#N canvas 157 135 1440 797 10;
#X obj 107 18 inlet~;
#X obj 271 10 inlet;
#X obj 271 102 s \$0-a;
#X obj 289 130 s \$0-d;
#X obj 305 161 s \$0-s;
#X obj 322 187 s \$0-r;
#X obj 350 121 s \$0-v1;
#X obj 365 143 s \$0-v2;
#X obj 1179 231 r \$0-v1;
#X obj 1229 257 r \$0-a;
#X obj 1018 196 r \$0-v2;
#X obj 1055 219 r \$0-d;
#X obj 1017 335 pack f f f;
#X obj 1106 220 r \$0-a;
#X obj 1084 306 +;
#X obj 1107 244 + 5;
#X obj 1055 242 t f f;
#X obj 1077 280 f;
#X obj 1106 264 t b f;
#X obj 871 331 pack f f f;
#X text 1189 193 attack;
#X text 1054 167 decay;
#X text 883 167 sustain + release;
#X obj 378 167 s \$0-v3;
#X obj 875 204 r \$0-v3;
#X obj 904 233 r \$0-r;
#X obj 270 36 t b a;
#X obj 262 259 s \$0-refresh;
#X obj 1035 38 r \$0-refresh;
#N canvas 721 253 719 566 add 0;
#X obj 1060 165 r \$0-a;
#X obj 1122 164 r \$0-d;
#X obj 1185 249 +;
#X obj 1182 213 t b f;
#X obj 1181 189 f;
#X obj 1127 249 +;
#X obj 1122 215 t b f;
#X obj 1121 191 f;
#X obj 1062 216 f;
#X floatatom 1187 287 5 0 0 0 - - -;
#X floatatom 1127 329 5 0 0 0 - - -;
#X floatatom 1072 290 5 0 0 0 - - -;
#X obj 1126 282 f;
#X obj 1060 189 + 5;
#X obj 1180 160 r \$0-s;
#X obj 1084 366 outlet;
#X connect 0 0 13 0;
#X connect 1 0 7 1;
#X connect 1 0 7 0;
#X connect 2 0 9 0;
#X connect 2 0 15 0;
#X connect 3 0 12 0;
#X connect 3 1 2 1;
#X connect 4 0 3 0;
#X connect 5 0 12 1;
#X connect 5 0 12 0;
#X connect 6 0 8 0;
#X connect 6 1 5 1;
#X connect 7 0 6 0;
#X connect 8 0 5 0;
#X connect 8 0 11 0;
#X connect 12 0 2 0;
#X connect 12 0 10 0;
#X connect 13 0 8 1;
#X connect 13 0 8 0;
#X connect 14 0 4 1;
#X connect 14 0 4 0;
#X restore 947 249 pd add;
#X msg 1262 355 addcomma;
#X msg 1047 453 0.5 5 \, 1 300 5 \, 0.5 40 345 \, 0.5 100 445;
#X msg 872 362 add2 \$1 \$2 \$3;
#X msg 1017 361 add2 \$1 \$2 \$3;
#X msg 1323 356 add2 \$1 \$2;
#X obj 1034 63 t b b b b b b b b;
#X obj 325 -46 loadbang;
#X obj 1157 86 s \$0-clear;
#X obj 1124 490 r \$0-clear;
#X msg 1124 514 set;
#X obj 187 20 inlet;
#X obj 186 48 s \$0-doAttack;
#X obj 1044 395 r \$0-doAttack;
#X obj 1045 575 s \$0-theEnv;
#X obj 107 358 *~;
#X obj 148 225 r \$0-theEnv;
#X obj 149 305 vline~;
#X obj 143 337 *~;
#X obj 107 413 outlet~;
#X msg 1324 329 \$1 5;
#X obj 1324 295 f;
#X obj 148 264 t a b;
#X msg 194 279 stop;
#X obj 424 113 t b b b b;
#X obj 424 297 pack f f f f;
#X obj 422 198 random 250;
#X msg 422 324 a \$1 \, d \$2 \, s \$3 \, r \$4;
#X obj 296 73 route a d s r v1 v2 v3 randomize;
#X obj 473 136 random 400;
#X obj 460 158 random 400;
#X obj 445 178 random 400;
#X obj 568 113 print toEnv;
#X obj 1327 242 r \$0-v3;
#X msg 324 -14 a 300 \, d 40 \, s 100 \, r 100 \, v1 1 \, v2 0.5 \,
v3 0.5 \,;
#X msg 1180 357 add2 \$1 \$2 \$3;
#X obj 1180 332 pack f f 5;
#X connect 0 0 44 0;
#X connect 1 0 26 0;
#X connect 8 0 65 0;
#X connect 9 0 65 1;
#X connect 10 0 12 0;
#X connect 11 0 16 0;
#X connect 12 0 33 0;
#X connect 13 0 15 0;
#X connect 14 0 12 2;
#X connect 15 0 18 0;
#X connect 16 0 12 1;
#X connect 16 1 17 1;
#X connect 16 1 17 0;
#X connect 17 0 14 0;
#X connect 18 0 17 0;
#X connect 18 1 14 1;
#X connect 19 0 32 0;
#X connect 24 0 19 0;
#X connect 25 0 19 1;
#X connect 26 0 27 0;
#X connect 26 1 57 0;
#X connect 28 0 35 0;
#X connect 29 0 19 2;
#X connect 30 0 31 0;
#X connect 31 0 43 0;
#X connect 32 0 31 0;
#X connect 33 0 31 0;
#X connect 34 0 31 0;
#X connect 35 0 19 0;
#X connect 35 1 30 0;
#X connect 35 2 12 0;
#X connect 35 3 30 0;
#X connect 35 4 65 0;
#X connect 35 5 30 0;
#X connect 35 6 50 0;
#X connect 35 7 37 0;
#X connect 36 0 63 0;
#X connect 38 0 39 0;
#X connect 39 0 31 0;
#X connect 40 0 41 0;
#X connect 42 0 31 0;
#X connect 44 0 48 0;
#X connect 45 0 51 0;
#X connect 46 0 47 1;
#X connect 46 0 47 0;
#X connect 47 0 44 1;
#X connect 49 0 34 0;
#X connect 50 0 49 0;
#X connect 51 0 46 0;
#X connect 51 1 52 0;
#X connect 53 0 55 0;
#X connect 53 1 60 0;
#X connect 53 2 59 0;
#X connect 53 3 58 0;
#X connect 54 0 56 0;
#X connect 55 0 54 0;
#X connect 56 0 26 0;
#X connect 57 0 2 0;
#X connect 57 1 3 0;
#X connect 57 2 4 0;
#X connect 57 3 5 0;
#X connect 57 4 6 0;
#X connect 57 5 7 0;
#X connect 57 6 23 0;
#X connect 57 7 53 0;
#X connect 58 0 54 3;
#X connect 59 0 54 2;
#X connect 60 0 54 1;
#X connect 62 0 50 1;
#X connect 62 0 50 0;
#X connect 63 0 26 0;
#X connect 64 0 31 0;
#X connect 65 0 64 0;
