#N canvas 146 106 590 461 10;
#X obj 127 32 inlet~;
#X obj 127 54 env~;
#N canvas 797 22 876 741 table 1;
#X obj 58 -12 inlet;
#X obj 57 46 t b f b;
#X obj 170 72 f;
#X obj 199 72 + 1;
#X obj 58 202 until;
#X msg 57 178 4;
#X obj 58 225 f;
#X obj 85 226 + 1;
#X obj 59 274 t f f;
#X obj 116 368 == 0;
#X obj 116 391 sel 1;
#X obj 51 751 outlet;
#X msg 114 416 0;
#X obj 54 -88 \$0;
#X obj 56 -131 loadbang;
#X obj 137 -125 bng 15 250 50 0 empty empty empty 17 7 0 10 -262144
-1 -1;
#X obj 58 250 mod 4;
#X obj 171 104 mod 4;
#X obj 22 507 f;
#X obj 64 505 +;
#X obj 27 410 t f b;
#X obj 66 533 / 4;
#X obj 83 139 tabwrite \$0-buffer2;
#X msg 62 -59 \; \$1-buffer2 resize 4;
#N canvas 0 22 450 278 (subpatch) 0;
#X array \$0-buffer2 4 float 3;
#A 0 0.237831 0.296531 0.187258 0.204943;
#X coords 0 1 4 -1 200 140 1;
#X restore 828 22 graph;
#X obj 59 303 tabread \$0-buffer2;
#X floatatom -61 390 5 0 0 0 - - -;
#X obj 54 570 > 4;
#X obj 51 683 change;
#X obj 328 -115 inlet;
#X obj 328 -81 s \$0-threshold;
#X obj 217 419 r \$0-threshold;
#X obj 219 473 *;
#X obj 218 497 * 10;
#X obj 124 613 r \$0-reset;
#X obj 401 -116 loadbang;
#X msg 435 -87 0.6;
#X floatatom 188 714 5 0 0 0 - - -;
#X floatatom 211 583 5 0 0 0 - - -;
#X obj -16 529 <;
#X msg -15 620 0;
#X obj 55 591 sel 1;
#X msg 55 612 1;
#X floatatom 102 590 5 0 0 0 - - -;
#X obj -16 554 sel 1;
#X obj -11 657 spigot;
#X msg 21 631 1;
#X obj 84 713 sel 1;
#X obj -12 684 t f b;
#X msg 16 598 0;
#X obj 210 552 * 8.5;
#X connect 0 0 1 0;
#X connect 1 0 5 0;
#X connect 1 1 22 0;
#X connect 1 2 2 0;
#X connect 2 0 3 0;
#X connect 2 0 17 0;
#X connect 3 0 2 1;
#X connect 4 0 6 0;
#X connect 5 0 4 0;
#X connect 6 0 7 0;
#X connect 6 0 16 0;
#X connect 7 0 6 1;
#X connect 8 0 25 0;
#X connect 8 1 9 0;
#X connect 9 0 10 0;
#X connect 10 0 12 0;
#X connect 12 0 19 1;
#X connect 12 0 18 1;
#X connect 13 0 23 0;
#X connect 14 0 13 0;
#X connect 15 0 13 0;
#X connect 16 0 8 0;
#X connect 17 0 22 1;
#X connect 18 0 19 1;
#X connect 19 0 18 1;
#X connect 19 0 21 0;
#X connect 20 0 19 0;
#X connect 20 1 18 0;
#X connect 21 0 27 0;
#X connect 21 0 39 0;
#X connect 21 0 43 0;
#X connect 25 0 26 0;
#X connect 25 0 20 0;
#X connect 27 0 41 0;
#X connect 28 0 11 0;
#X connect 28 0 37 0;
#X connect 28 0 47 0;
#X connect 29 0 30 0;
#X connect 31 0 32 1;
#X connect 31 0 32 0;
#X connect 32 0 33 0;
#X connect 32 0 50 0;
#X connect 33 0 27 1;
#X connect 34 0 28 0;
#X connect 35 0 36 0;
#X connect 36 0 30 0;
#X connect 39 0 44 0;
#X connect 40 0 45 0;
#X connect 41 0 42 0;
#X connect 42 0 28 0;
#X connect 44 0 40 0;
#X connect 45 0 48 0;
#X connect 46 0 45 1;
#X connect 47 0 46 0;
#X connect 48 0 28 0;
#X connect 48 1 49 0;
#X connect 49 0 45 1;
#X connect 50 0 38 0;
#X connect 50 0 39 1;
#X restore 127 134 pd table;
#X obj 128 220 select 0 1;
#X obj 160 302 outlet;
#X obj 111 303 outlet;
#X floatatom 239 224 5 0 0 0 - - -;
#X obj 251 259 bng 15 250 50 0 empty empty empty 17 7 0 10 -262144
-1 -1;
#X obj 18 272 bng 15 250 50 0 empty empty empty 17 7 0 10 -262144 -1
-1;
#X obj 127 167 birdDB 250;
#X obj 126 86 dbtorms;
#X obj 128 109 * 100;
#X floatatom 37 180 5 0 0 0 - - -;
#X floatatom 42 134 5 0 0 0 - - -;
#X obj 191 75 loadbang;
#X msg 191 99 0.5;
#X obj 255 30 inlet;
#X obj 128 192 change;
#X obj 256 59 route threshold debounce reset;
#X msg 375 85 0;
#X obj 376 117 s \$0-reset;
#X connect 0 0 1 0;
#X connect 1 0 10 0;
#X connect 2 0 9 0;
#X connect 3 0 8 0;
#X connect 3 0 5 0;
#X connect 3 1 7 0;
#X connect 3 1 4 0;
#X connect 9 0 6 0;
#X connect 9 0 17 0;
#X connect 10 0 11 0;
#X connect 11 0 2 0;
#X connect 11 0 13 0;
#X connect 14 0 15 0;
#X connect 15 0 2 1;
#X connect 16 0 18 0;
#X connect 17 0 3 0;
#X connect 18 0 2 1;
#X connect 18 1 9 1;
#X connect 18 2 19 0;
#X connect 19 0 17 0;
#X connect 19 0 20 0;
