#N canvas 0 22 1280 715 10;
#X obj 256 -12 catch~ outputR;
#X obj 340 16 catch~ outputL;
#X obj 442 146 loadbang;
#X obj 575 705 s~ toDacL;
#X obj 219 713 s~ toDacR;
#X obj 39 -7 catch~ toFuzz;
#N canvas 420 196 721 606 fuzz 0;
#X obj 63 -146 inlet~;
#X obj 64 162 expr~ atan($v1);
#X obj 64 131 *~;
#X obj 102 -59 t f f b;
#X obj 99 98 vline~;
#X msg 101 74 \$2 \, \$1 \$3;
#X obj 192 -94 r \$0-detectedTempo;
#X obj 191 -47 swap 60000;
#X obj 210 -21 /;
#X obj 209 3 * 4;
#X obj 102 49 pack f f f;
#X obj 125 -20 f 10;
#X obj 112 -265 random 100;
#X obj 210 115 r \$0-clock;
#X obj 207 166 sel 0;
#X msg 206 190 randomize;
#X obj 114 265 throw~ outputL;
#X obj 66 300 throw~ outputR;
#X obj 192 -69 route tempo;
#X obj 111 -315 r randomize;
#X obj 112 -290 t b;
#X obj 113 -242 * 0.01;
#X obj 115 -208 *;
#X obj 104 -85 * 100;
#X obj 209 143 mod 16;
#X obj 62 232 birdPan~;
#X obj 359 270 scope fuzzScope;
#X obj 114 -183 *;
#X obj 113 -155 *;
#X obj 63 195 *~ 0.025;
#X connect 0 0 2 0;
#X connect 1 0 29 0;
#X connect 2 0 1 0;
#X connect 3 0 10 0;
#X connect 3 1 11 1;
#X connect 3 2 11 0;
#X connect 4 0 2 1;
#X connect 5 0 4 0;
#X connect 6 0 18 0;
#X connect 7 0 8 0;
#X connect 7 1 8 1;
#X connect 8 0 9 0;
#X connect 9 0 10 2;
#X connect 10 0 5 0;
#X connect 11 0 10 1;
#X connect 12 0 21 0;
#X connect 13 0 24 0;
#X connect 14 0 15 0;
#X connect 15 0 25 1;
#X connect 18 0 7 0;
#X connect 19 0 20 0;
#X connect 20 0 12 0;
#X connect 21 0 22 1;
#X connect 21 0 22 0;
#X connect 22 0 27 1;
#X connect 22 0 27 0;
#X connect 23 0 3 0;
#X connect 24 0 14 0;
#X connect 25 0 17 0;
#X connect 25 0 26 0;
#X connect 25 1 16 0;
#X connect 25 1 26 0;
#X connect 27 0 28 1;
#X connect 27 0 28 0;
#X connect 28 0 23 0;
#X connect 29 0 25 0;
#X restore 39 29 pd fuzz;
#X obj 489 83 r randomize;
#X obj 501 128 r randomize2;
#X obj 246 208 mm_stereoChorus;
#X obj 34 84 catch~ toTremelo;
#N canvas 154 77 721 606 tremelo 0;
#X obj 42 -199 inlet~;
#X obj 50 300 *~;
#X obj 122 -119 r \$0-detectedTempo;
#X obj 333 240 r \$0-clock;
#X obj 330 291 sel 0;
#X msg 329 315 randomize;
#X obj 103 411 throw~ outputL;
#X obj 55 441 throw~ outputR;
#X obj 120 -54 route tempo;
#X obj 332 268 mod 16;
#X obj 51 373 birdPan~;
#X obj 119 126 osc~;
#X obj 121 -25 / 60;
#X obj 120 38 * 1;
#X obj 120 70 t f b;
#X msg 144 100 0;
#X obj 154 9 t b f;
#X floatatom 166 -21 5 0 0 0 - - -;
#X obj 233 -90 r \$0-clock;
#X obj 232 -65 mod 32;
#X obj 232 -41 sel 0;
#X obj 119 150 +~ 1;
#X obj 118 174 *~ 0.5;
#X obj 117 264 pow~ 2;
#X obj 179 233 sig~;
#X obj 180 115 r \$0-clock;
#X obj 179 140 mod 32;
#X obj 179 164 sel 0;
#X obj 178 184 random 8;
#X obj 178 209 + 1;
#X obj 232 -18 random 8;
#X obj 232 7 + 1;
#X obj 50 334 *~ 1.2;
#X obj 301 395 scope tremeloScope;
#X connect 0 0 1 0;
#X connect 1 0 32 0;
#X connect 2 0 8 0;
#X connect 3 0 9 0;
#X connect 4 0 5 0;
#X connect 5 0 10 1;
#X connect 8 0 12 0;
#X connect 9 0 4 0;
#X connect 10 0 7 0;
#X connect 10 0 33 0;
#X connect 10 1 6 0;
#X connect 10 1 33 0;
#X connect 11 0 21 0;
#X connect 12 0 13 0;
#X connect 13 0 14 0;
#X connect 14 0 11 0;
#X connect 14 1 15 0;
#X connect 15 0 11 1;
#X connect 16 0 13 0;
#X connect 16 1 13 1;
#X connect 17 0 16 0;
#X connect 18 0 19 0;
#X connect 19 0 20 0;
#X connect 20 0 30 0;
#X connect 21 0 22 0;
#X connect 22 0 23 0;
#X connect 23 0 1 1;
#X connect 24 0 23 1;
#X connect 25 0 26 0;
#X connect 26 0 27 0;
#X connect 27 0 28 0;
#X connect 28 0 29 0;
#X connect 29 0 24 0;
#X connect 30 0 31 0;
#X connect 31 0 16 0;
#X connect 32 0 10 0;
#X restore 34 120 pd tremelo;
#X obj 234 366 mm_compressor;
#X obj 360 362 mm_compressor;
#X obj 502 107 r randomize1;
#X obj 503 151 r randomize3;
#N canvas 0 22 450 278 (subpatch) 0;
#X array array1 100 float 3;
#A 0 -3.89629e-05 -3.86288e-05 -3.84932e-05 -3.89189e-05 -4.02564e-05
-4.28198e-05 -4.58072e-05 -4.82176e-05 -4.89252e-05 -4.70028e-05 -4.1956e-05
-3.37832e-05 -2.26361e-05 -9.79505e-06 3.54509e-06 1.61527e-05 2.68821e-05
3.57876e-05 4.2069e-05 4.65599e-05 5.05392e-05 5.40161e-05 5.79609e-05
6.26689e-05 6.77576e-05 7.22616e-05 7.54571e-05 7.64447e-05 7.3521e-05
6.6174e-05 5.43658e-05 3.8555e-05 1.95516e-05 -8.39897e-07 -2.11855e-05
-3.97479e-05 -5.47803e-05 -6.55799e-05 -7.1681e-05 -7.2594e-05 -6.88145e-05
-6.18228e-05 -5.23938e-05 -4.07787e-05 -2.87299e-05 -1.6401e-05 -4.51773e-06
7.83099e-06 1.98388e-05 3.18239e-05 4.36443e-05 5.6003e-05 6.76981e-05
7.8561e-05 8.79076e-05 9.48336e-05 9.97215e-05 0.000101043 9.90232e-05
9.33738e-05 8.44852e-05 7.25573e-05 5.82113e-05 4.20663e-05 2.53026e-05
8.59656e-06 -7.52873e-06 -2.2031e-05 -3.44499e-05 -4.5027e-05 -5.39743e-05
-6.06028e-05 -6.62677e-05 -7.10955e-05 -7.55267e-05 -7.98909e-05 -8.40914e-05
-8.81032e-05 -9.12278e-05 -9.33391e-05 -9.37024e-05 -9.13715e-05 -8.61029e-05
-7.70898e-05 -6.38528e-05 -4.70727e-05 -2.69291e-05 -4.32781e-06 1.90879e-05
4.18384e-05 6.21207e-05 7.81785e-05 8.86768e-05 9.26771e-05 8.96407e-05
8.04412e-05 6.59003e-05 4.7522e-05 2.70143e-05 6.23735e-06;
#X coords 0 1 99 -1 200 140 1;
#X restore 996 -8 graph;
#X obj 354 444 hip~ 4;
#X obj 235 442 hip~ 4;
#X obj 237 518 clip~ -1 1;
#X obj 357 525 clip~ -1 1;
#X obj 404 318 *~ 0.6;
#X obj 350 319 *~ 0.4;
#X obj 258 293 *~ 0.6;
#X obj 234 268 *~ 0.4;
#X obj 296 613 env~ 44100;
#X obj 355 486 *~ 1;
#X obj 234 477 *~ 1;
#X obj 371 717 s rms;
#X obj 338 652 clip 0 100;
#X obj 361 563 *~ 1;
#X obj 238 569 *~ 1;
#X obj 611 16 inlet;
#X msg 445 191 switch 1 \, threshold 95 \, ratio 10;
#X connect 0 0 9 0;
#X connect 0 0 23 0;
#X connect 0 0 18 0;
#X connect 1 0 9 1;
#X connect 1 0 21 0;
#X connect 1 0 17 0;
#X connect 2 0 33 0;
#X connect 5 0 6 0;
#X connect 7 0 9 2;
#X connect 8 0 9 2;
#X connect 9 0 24 0;
#X connect 9 1 22 0;
#X connect 10 0 11 0;
#X connect 12 0 18 0;
#X connect 13 0 17 0;
#X connect 14 0 9 2;
#X connect 15 0 9 2;
#X connect 17 0 26 0;
#X connect 18 0 27 0;
#X connect 19 0 25 0;
#X connect 19 0 31 0;
#X connect 20 0 30 0;
#X connect 21 0 13 0;
#X connect 22 0 13 0;
#X connect 23 0 12 0;
#X connect 24 0 12 0;
#X connect 25 0 29 0;
#X connect 26 0 20 0;
#X connect 27 0 19 0;
#X connect 29 0 28 0;
#X connect 30 0 3 0;
#X connect 30 0 25 0;
#X connect 31 0 4 0;
#X connect 32 0 9 2;
#X connect 33 0 12 1;
#X connect 33 0 13 1;
