#N canvas 0 22 450 300 10;
#X obj 171 60 t f f;
#X obj 198 112 + 1e-06;
#X obj 164 146 - 1;
#X obj 176 197 /;
#X obj 173 8 inlet;
#X obj 176 248 outlet;
#X connect 0 0 2 0;
#X connect 0 1 1 0;
#X connect 1 0 3 1;
#X connect 2 0 3 0;
#X connect 3 0 5 0;
#X connect 4 0 0 0;
