#N canvas 145 135 1440 804 10;
#X obj 441 24 inlet;
#X obj 448 192 mtof;
#X obj 903 421 inlet;
#X obj 454 816 outlet~;
#X obj 587 504 select 0 1;
#X obj 612 532 t b b;
#X obj 561 556 t b b;
#X obj 615 610 switch~;
#X msg 641 557 1;
#X msg 608 558 1;
#X obj 542 658 lop~ 1;
#X msg 584 582 0;
#X obj 560 606 del 30;
#X msg 561 632 0;
#X obj 456 688 *~;
#X obj 588 473 r \$0-switch;
#X obj 444 294 line;
#X msg 445 250 \$1 \$2;
#X obj 444 224 pack f f;
#X obj 947 715 s \$0-gliss;
#X obj 487 136 r \$0-gliss;
#X obj 442 51 t f f;
#X obj 443 146 sel 0;
#X obj 482 174 bng 15 250 50 0 empty empty empty 17 7 0 10 -262144
-1 -1;
#X msg 500 263 stop;
#X obj 454 109 f;
#X obj 482 193 t b b;
#X obj 948 555 *;
#X obj 1004 574 swap 60000;
#X obj 1016 598 /;
#N canvas 72 22 1345 696 wave1 0;
#N canvas 621 248 450 300 square 0;
#X obj 28 205 *~;
#X obj 29 249 outlet~;
#X obj 119 -44 inlet;
#X obj 121 34 select 0 1;
#X obj 207 141 switch~;
#X obj 180 70 t b b;
#X msg 205 109 1;
#X msg 171 109 1;
#X obj 46 184 lop~ 1;
#X obj 113 70 t b b;
#X msg 138 109 0;
#X obj 104 90 del 30;
#X msg 104 109 0;
#X obj -110 94 expr~ if($v1<0.5 \, -1 \, 1);
#X obj -112 -4 inlet;
#X obj -110 47 phasor~;
#X connect 0 0 1 0;
#X connect 2 0 3 0;
#X connect 3 0 9 0;
#X connect 3 1 5 0;
#X connect 5 0 7 0;
#X connect 5 1 6 0;
#X connect 6 0 4 0;
#X connect 7 0 8 0;
#X connect 8 0 0 1;
#X connect 9 0 11 0;
#X connect 9 1 10 0;
#X connect 10 0 8 0;
#X connect 11 0 12 0;
#X connect 12 0 4 0;
#X connect 13 0 0 0;
#X connect 14 0 15 0;
#X connect 15 0 13 0;
#X restore -17 364 pd square;
#X obj 935 690 hip~ 5;
#X obj 937 818 outlet~;
#X obj 382 256 r~ theNoise;
#N canvas 398 211 874 565 sub1 0;
#X obj 58 45 inlet~;
#X obj 121 396 *~;
#X obj 122 440 outlet~;
#X obj 318 142 inlet;
#X obj 320 220 select 0 1;
#X obj 406 327 switch~;
#X obj 379 256 t b b;
#X msg 404 295 1;
#X msg 370 295 1;
#X obj 245 370 lop~ 1;
#X obj 312 256 t b b;
#X msg 337 295 0;
#X obj 303 276 del 30;
#X msg 303 295 0;
#X obj 168 239 t f f;
#X obj 106 349 *~;
#X obj 192 291 lop~ 1;
#X obj 84 158 vcf~;
#X obj 228 196 loadbang;
#X obj 193 265 * 1.8;
#X obj 105 47 inlet;
#X obj 168 187 inlet;
#X msg 227 223 160;
#X connect 0 0 17 0;
#X connect 1 0 2 0;
#X connect 3 0 4 0;
#X connect 4 0 10 0;
#X connect 4 1 6 0;
#X connect 6 0 8 0;
#X connect 6 1 7 0;
#X connect 7 0 5 0;
#X connect 8 0 9 0;
#X connect 9 0 1 1;
#X connect 10 0 12 0;
#X connect 10 1 11 0;
#X connect 11 0 9 0;
#X connect 12 0 13 0;
#X connect 13 0 5 0;
#X connect 14 0 17 2;
#X connect 14 1 19 0;
#X connect 15 0 1 0;
#X connect 16 0 15 1;
#X connect 17 0 15 0;
#X connect 18 0 22 0;
#X connect 19 0 16 0;
#X connect 20 0 17 1;
#X connect 21 0 14 0;
#X connect 22 0 14 0;
#X restore 382 362 pd sub1;
#N canvas 371 418 450 300 saw 0;
#X obj 27 -43 inlet;
#X obj 27 17 phasor~;
#X obj 170 165 *~;
#X obj 171 241 outlet~;
#X obj 240 -62 inlet;
#X obj 240 3 select 0 1;
#X obj 326 110 switch~;
#X obj 299 39 t b b;
#X msg 324 78 1;
#X msg 290 78 1;
#X obj 188 144 lop~ 1;
#X obj 232 39 t b b;
#X msg 257 78 0;
#X obj 223 59 del 30;
#X msg 223 78 0;
#X obj 120 49 phasor~;
#X obj 104 10 * 2;
#X obj 173 113 *~ 0.5;
#X obj 170 194 hip~ 5;
#X obj 27 46 *~ 2;
#X obj 27 70 -~ 1;
#X obj 121 70 *~ 2;
#X obj 121 94 -~ 1;
#X obj 171 217 *~ 0.2;
#X connect 0 0 1 0;
#X connect 0 0 16 0;
#X connect 1 0 19 0;
#X connect 2 0 18 0;
#X connect 4 0 5 0;
#X connect 5 0 11 0;
#X connect 5 1 7 0;
#X connect 7 0 9 0;
#X connect 7 1 8 0;
#X connect 8 0 6 0;
#X connect 9 0 10 0;
#X connect 10 0 2 1;
#X connect 11 0 13 0;
#X connect 11 1 12 0;
#X connect 12 0 10 0;
#X connect 13 0 14 0;
#X connect 14 0 6 0;
#X connect 15 0 21 0;
#X connect 16 0 15 0;
#X connect 17 0 2 0;
#X connect 18 0 23 0;
#X connect 19 0 20 0;
#X connect 20 0 2 0;
#X connect 21 0 22 0;
#X connect 22 0 17 0;
#X connect 23 0 3 0;
#X restore 563 364 pd saw;
#N canvas 378 177 901 641 sin1 0;
#X obj 248 165 inlet;
#X obj 250 243 select 0 1;
#X obj 336 350 switch~;
#X obj 309 279 t b b;
#X msg 334 318 1;
#X msg 300 318 1;
#X obj 174 439 lop~ 1;
#X obj 242 279 t b b;
#X msg 267 318 0;
#X obj 233 299 del 30;
#X msg 233 318 0;
#X obj 140 476 *~;
#X obj 135 238 osc~;
#X obj 143 576 outlet~;
#X obj 136 155 inlet;
#X obj 178 306 osc~;
#X obj 196 344 osc~;
#X obj 177 223 * 2;
#X obj 190 254 * 3;
#X obj 173 370 *~ 0.5;
#X obj 184 398 *~ 0.25;
#X obj 140 534 *~ 1.1;
#X connect 0 0 1 0;
#X connect 1 0 7 0;
#X connect 1 1 3 0;
#X connect 3 0 5 0;
#X connect 3 1 4 0;
#X connect 4 0 2 0;
#X connect 5 0 6 0;
#X connect 6 0 11 1;
#X connect 7 0 9 0;
#X connect 7 1 8 0;
#X connect 8 0 6 0;
#X connect 9 0 10 0;
#X connect 10 0 2 0;
#X connect 11 0 21 0;
#X connect 12 0 11 0;
#X connect 14 0 12 0;
#X connect 14 0 17 0;
#X connect 14 0 18 0;
#X connect 15 0 19 0;
#X connect 16 0 20 0;
#X connect 17 0 15 0;
#X connect 18 0 16 0;
#X connect 19 0 11 0;
#X connect 20 0 11 0;
#X connect 21 0 13 0;
#X restore 192 362 pd sin1;
#X obj 740 367 mm_string~;
#X obj 733 289 r~ theNoise;
#X obj 109 24 inlet;
#X obj 934 621 catch~ \$0-out1;
#X obj 110 53 s \$0-pitch1;
#X obj -20 226 r \$0-pitch1;
#X obj 190 208 r \$0-pitch1;
#X obj 194 395 throw~ \$0-out1;
#X obj -17 395 throw~ \$0-out1;
#X obj -78 601 throw~ \$0-out1;
#X obj -76 478 r \$0-pitch1;
#X obj 394 284 r \$0-pitch1;
#X obj 407 310 r \$0-sub1Q;
#X obj 761 312 r \$0-pitch1;
#X obj 562 395 throw~ \$0-out1;
#X obj 563 292 r \$0-pitch1;
#X obj 55 309 r \$0-wave1;
#X obj 52 338 == 0;
#X obj 254 319 r \$0-wave1;
#X obj 253 347 == 1;
#X obj 476 314 r \$0-wave1;
#X obj 473 343 == 2;
#X obj -3 478 r \$0-wave1;
#X obj 645 322 r \$0-wave1;
#X obj 844 284 r \$0-wave1;
#X msg 843 334 switch \$1;
#X obj 930 378 mm_xylo~;
#X obj 952 239 r \$0-pitch1;
#X obj 1029 212 r \$0-wave1;
#X msg 1028 262 switch \$1;
#X msg 996 350 decay \$1;
#X obj 994 308 r \$0-xyloDec;
#X obj 808 159 r \$0-strLen;
#X msg 804 256 length \$1;
#X obj 808 181 * 0.01;
#X obj 805 206 *;
#X obj 804 231 * 100;
#X obj 933 211 r~ theNoise;
#X obj 1011 818 outlet~;
#X obj 642 351 == 3;
#X obj 844 310 == 4;
#X obj 1029 238 == 5;
#X msg -1 527 switch \$1;
#X obj -1 500 == 6;
#X obj 72 603 throw~ \$0-out1;
#X obj 74 480 r \$0-pitch1;
#X obj 151 474 r \$0-wave1;
#X msg 153 523 switch \$1;
#X obj 153 496 == 7;
#X obj 228 597 throw~ \$0-out1;
#X obj 230 474 r \$0-pitch1;
#X obj 294 497 r \$0-wave1;
#X msg 296 546 switch \$1;
#X obj 296 519 == 8;
#X obj 388 595 throw~ \$0-out1;
#X obj 390 472 r \$0-pitch1;
#X obj 454 495 r \$0-wave1;
#X msg 456 544 switch \$1;
#X obj 456 517 == 9;
#X obj -76 548 mm_blsine~;
#X obj -73 777 throw~ \$0-out1;
#X obj -71 654 r \$0-pitch1;
#X obj -7 677 r \$0-wave1;
#X msg -5 726 switch \$1;
#X obj 107 773 throw~ \$0-out1;
#X obj 109 650 r \$0-pitch1;
#X obj 186 651 r \$0-wave1;
#X msg 188 700 switch \$1;
#X obj 68 556 mm_blsaw~;
#X obj 224 570 mm_bltri~;
#X obj 389 560 mm_blsq4~;
#X obj -70 746 mm_blsq12~;
#X obj 115 729 mm_am~;
#X obj 294 771 throw~ \$0-out1;
#X obj 296 648 r \$0-pitch1;
#X obj 360 671 r \$0-wave1;
#X msg 362 720 switch \$1;
#X obj 293 719 mm_pulse~;
#X obj 516 776 throw~ \$0-out1;
#X obj 510 609 r \$0-pitch1;
#X obj 592 674 r \$0-wave1;
#X msg 594 723 switch \$1;
#X obj 519 726 mm_fm~;
#X obj 532 644 r \$0-mf;
#X obj 541 669 r \$0-ma;
#X obj -5 699 == 10;
#X obj 188 673 == 11;
#X obj 362 693 == 12;
#X obj 594 696 == 13;
#X obj 935 652 *~ 1.1;
#X obj 87 436 s \$0-theWave;
#X msg 85 417 square;
#X obj 84 394 sel 1;
#X obj 295 428 s \$0-theWave;
#X obj 292 386 sel 1;
#X msg 293 409 sine;
#X obj 488 432 s \$0-theWave;
#X obj 485 390 sel 1;
#X msg 486 413 subtractive;
#X obj 654 457 s \$0-theWave;
#X obj 665 406 sel 1;
#X msg 666 429 saw;
#X obj 838 449 s \$0-theWave;
#X msg 836 430 string;
#X obj 1071 445 s \$0-theWave;
#X msg 1069 426 xylo;
#X obj 546 567 s \$0-theWave;
#X obj 326 623 s \$0-theWave;
#X obj 154 616 s \$0-theWave;
#X msg 324 604 bl_triangle;
#X msg 152 597 bl_saw;
#X obj -10 601 s \$0-theWave;
#X msg -12 582 bl_sine;
#X msg 544 548 bl_square4;
#X obj 32 801 s \$0-theWave;
#X msg 30 782 bl_square12;
#X obj 835 407 sel 1;
#X obj 1068 403 sel 1;
#X obj -13 559 sel 1;
#X obj 151 574 sel 1;
#X obj 323 581 sel 1;
#X obj 543 525 sel 1;
#X obj 29 759 sel 1;
#X obj 215 791 s \$0-theWave;
#X obj 212 749 sel 1;
#X obj 398 792 s \$0-theWave;
#X obj 395 750 sel 1;
#X msg 213 772 AM;
#X msg 396 773 pulse;
#X obj 651 790 s \$0-theWave;
#X obj 648 748 sel 1;
#X msg 649 771 FM;
#X obj 741 411 *~ 0.8;
#X obj 1091 545 loadbang;
#X obj 1056 608 mm_compressor;
#X obj 377 452 throw~ \$0-out1_compression;
#X obj 1058 518 catch~ \$0-out1_compression;
#X obj 742 486 throw~ \$0-out1_compression;
#X obj 930 477 throw~ \$0-out1_compression;
#X obj 1059 632 *~ 1.4;
#X obj 1047 656 r \$0-wave1;
#X obj 1046 681 == 5;
#X obj 1071 730 swap 1;
#X obj 1044 708 t f f;
#X obj 1071 751 -;
#X obj 935 765 *~;
#X obj 953 741 lop~ 1;
#X obj 993 780 *~;
#X obj 1071 774 lop~ 1;
#X obj 928 429 *~ 2;
#X msg 1090 576 switch 1 \, threshold 90 \, ratio 5;
#X connect 0 0 15 0;
#X connect 1 0 152 0;
#X connect 1 0 154 0;
#X connect 3 0 4 0;
#X connect 4 0 142 0;
#X connect 5 0 21 0;
#X connect 6 0 14 0;
#X connect 7 0 139 0;
#X connect 8 0 7 0;
#X connect 9 0 11 0;
#X connect 10 0 96 0;
#X connect 12 0 0 0;
#X connect 13 0 6 0;
#X connect 17 0 66 0;
#X connect 18 0 4 1;
#X connect 19 0 4 2;
#X connect 20 0 7 1;
#X connect 22 0 5 0;
#X connect 23 0 24 0;
#X connect 24 0 0 1;
#X connect 24 0 99 0;
#X connect 25 0 26 0;
#X connect 26 0 6 1;
#X connect 26 0 101 0;
#X connect 27 0 28 0;
#X connect 28 0 4 3;
#X connect 28 0 104 0;
#X connect 29 0 50 0;
#X connect 30 0 46 0;
#X connect 31 0 47 0;
#X connect 32 0 7 2;
#X connect 33 0 156 0;
#X connect 34 0 33 1;
#X connect 35 0 48 0;
#X connect 36 0 33 2;
#X connect 37 0 33 2;
#X connect 38 0 37 0;
#X connect 39 0 41 0;
#X connect 40 0 7 2;
#X connect 41 0 42 1;
#X connect 41 0 42 0;
#X connect 42 0 43 0;
#X connect 43 0 40 0;
#X connect 44 0 33 0;
#X connect 46 0 5 1;
#X connect 46 0 107 0;
#X connect 47 0 32 0;
#X connect 47 0 123 0;
#X connect 48 0 36 0;
#X connect 48 0 124 0;
#X connect 49 0 66 1;
#X connect 50 0 49 0;
#X connect 50 0 125 0;
#X connect 52 0 75 0;
#X connect 53 0 55 0;
#X connect 54 0 75 1;
#X connect 55 0 54 0;
#X connect 55 0 126 0;
#X connect 57 0 76 0;
#X connect 58 0 60 0;
#X connect 59 0 76 1;
#X connect 60 0 59 0;
#X connect 60 0 127 0;
#X connect 62 0 77 0;
#X connect 63 0 65 0;
#X connect 64 0 77 1;
#X connect 65 0 64 0;
#X connect 65 0 128 0;
#X connect 66 0 16 0;
#X connect 68 0 78 0;
#X connect 69 0 92 0;
#X connect 70 0 78 1;
#X connect 72 0 79 0;
#X connect 73 0 93 0;
#X connect 74 0 79 1;
#X connect 75 0 51 0;
#X connect 76 0 56 0;
#X connect 77 0 61 0;
#X connect 78 0 67 0;
#X connect 79 0 71 0;
#X connect 81 0 84 0;
#X connect 82 0 94 0;
#X connect 83 0 84 1;
#X connect 84 0 80 0;
#X connect 86 0 89 0;
#X connect 87 0 95 0;
#X connect 88 0 89 3;
#X connect 89 0 85 0;
#X connect 90 0 89 1;
#X connect 91 0 89 2;
#X connect 92 0 70 0;
#X connect 92 0 129 0;
#X connect 93 0 74 0;
#X connect 93 0 131 0;
#X connect 94 0 83 0;
#X connect 94 0 133 0;
#X connect 95 0 88 0;
#X connect 95 0 137 0;
#X connect 96 0 1 0;
#X connect 98 0 97 0;
#X connect 99 0 98 0;
#X connect 101 0 102 0;
#X connect 102 0 100 0;
#X connect 104 0 105 0;
#X connect 105 0 103 0;
#X connect 107 0 108 0;
#X connect 108 0 106 0;
#X connect 110 0 109 0;
#X connect 112 0 111 0;
#X connect 116 0 114 0;
#X connect 117 0 115 0;
#X connect 119 0 118 0;
#X connect 120 0 113 0;
#X connect 122 0 121 0;
#X connect 123 0 110 0;
#X connect 124 0 112 0;
#X connect 125 0 119 0;
#X connect 126 0 117 0;
#X connect 127 0 116 0;
#X connect 128 0 120 0;
#X connect 129 0 122 0;
#X connect 131 0 134 0;
#X connect 133 0 135 0;
#X connect 134 0 130 0;
#X connect 135 0 132 0;
#X connect 137 0 138 0;
#X connect 138 0 136 0;
#X connect 139 0 144 0;
#X connect 140 0 157 0;
#X connect 141 0 146 0;
#X connect 143 0 141 0;
#X connect 146 0 1 0;
#X connect 147 0 148 0;
#X connect 148 0 150 0;
#X connect 149 0 151 0;
#X connect 149 1 151 1;
#X connect 150 0 153 0;
#X connect 150 1 149 0;
#X connect 151 0 155 0;
#X connect 152 0 2 0;
#X connect 153 0 152 1;
#X connect 154 0 45 0;
#X connect 155 0 154 1;
#X connect 156 0 145 0;
#X connect 157 0 141 1;
#X restore 447 377 pd wave1;
#X obj 947 680 *;
#X obj 905 513 s \$0-switch;
#X obj 1061 532 s \$0-list;
#X obj 887 12 r \$0-list;
#X obj 887 39 list-enumerate;
#N canvas 1130 155 450 300 s 0;
#X obj 37 102 + 0.5;
#X obj 36 127 int;
#X obj 35 15 inlet;
#X obj 35 157 outlet;
#X obj 36 76 / 7.6923;
#X connect 0 0 1 0;
#X connect 1 0 3 0;
#X connect 2 0 4 0;
#X connect 4 0 0 0;
#X restore 887 90 pd s;
#X obj 687 133 s \$0-wave1;
#N canvas 1130 155 450 300 s 0;
#X obj 31 36 inlet;
#X obj 35 157 outlet;
#X obj 36 76 * 0.01;
#X obj 37 102 *;
#X obj 36 127 * 220;
#X connect 0 0 2 0;
#X connect 2 0 3 1;
#X connect 2 0 3 0;
#X connect 3 0 4 0;
#X connect 4 0 1 0;
#X restore 900 135 pd s;
#N canvas 1130 155 450 300 s 0;
#X obj 31 36 inlet;
#X obj 35 157 outlet;
#X obj 36 76 * 0.01;
#X obj 37 102 *;
#X obj 36 127 * 1000;
#X connect 0 0 2 0;
#X connect 2 0 3 1;
#X connect 2 0 3 0;
#X connect 3 0 4 0;
#X connect 4 0 1 0;
#X restore 914 179 pd s;
#X obj 926 226 s \$0-rgliss;
#X obj 945 422 r \$0-rgliss;
#X msg 941 464 gliss \$1;
#X obj 949 278 + 50;
#X obj 948 303 s \$0-sub1Q;
#X obj 967 371 s \$0-xyloDec;
#X obj 968 323 * 2;
#X obj 991 394 s \$0-strLen;
#X obj 887 66 route 0 1 2 3 4 5 6;
#X msg 693 472 1;
#X obj 692 440 loadbang;
#X floatatom 784 142 5 0 0 0 - - -;
#X floatatom 809 176 5 0 0 0 - - -;
#X floatatom 830 224 5 0 0 0 - - -;
#X floatatom 860 320 5 0 0 0 - - -;
#X floatatom 879 388 5 0 0 0 - - -;
#X floatatom 1054 182 5 0 0 0 - - -;
#X obj 942 447 * 0.01;
#X obj 1015 626 * 0.375;
#X obj 949 250 * 5;
#X obj 601 693 *~;
#X obj 628 814 outlet~;
#X obj 904 486 route switch gliss tempo randomlist wave;
#X obj 1127 530 s \$0-wave1;
#X obj 968 347 + 30;
#X obj 898 159 s \$0-mf;
#X obj 912 203 s \$0-ma;
#X msg 759 33 0;
#X msg 540 263 0;
#X obj 1090 219 outlet;
#X obj 1091 160 r \$0-wave1;
#X obj 531 379 mm_sosc~;
#X obj 532 341 * 2;
#X obj 577 260 r \$0-wave1;
#X obj 717 314 t b;
#N canvas 1130 155 450 300 s 0;
#X obj 37 102 + 0.5;
#X obj 36 127 int;
#X obj 35 15 inlet;
#X obj 35 157 outlet;
#X obj 36 76 / 7.6923;
#X connect 0 0 1 0;
#X connect 1 0 3 0;
#X connect 2 0 4 0;
#X connect 4 0 0 0;
#X restore 662 311 pd s;
#X obj 686 64 t b;
#X obj 686 86 random 14;
#X obj 1150 686 s \$0-wave1;
#X obj 1149 617 t b;
#X obj 1149 639 random 14;
#X obj 716 339 random 14;
#X obj 525 411 *~ 0.7;
#X obj 577 405 *~ 0.7;
#X connect 0 0 21 0;
#X connect 1 0 18 0;
#X connect 2 0 62 0;
#X connect 4 0 6 0;
#X connect 4 1 5 0;
#X connect 5 0 9 0;
#X connect 5 1 8 0;
#X connect 6 0 12 0;
#X connect 6 1 11 0;
#X connect 8 0 10 0;
#X connect 9 0 7 0;
#X connect 10 0 14 1;
#X connect 10 0 60 1;
#X connect 11 0 10 0;
#X connect 12 0 13 0;
#X connect 13 0 7 0;
#X connect 14 0 3 0;
#X connect 15 0 4 0;
#X connect 16 0 30 0;
#X connect 16 0 72 0;
#X connect 17 0 16 0;
#X connect 18 0 17 0;
#X connect 20 0 18 1;
#X connect 21 0 22 0;
#X connect 21 1 25 1;
#X connect 22 0 23 0;
#X connect 22 1 25 0;
#X connect 23 0 26 0;
#X connect 24 0 16 0;
#X connect 25 0 1 0;
#X connect 26 0 68 0;
#X connect 26 1 24 0;
#X connect 27 0 31 0;
#X connect 28 0 29 0;
#X connect 28 1 29 1;
#X connect 29 0 58 0;
#X connect 30 0 14 0;
#X connect 30 1 60 0;
#X connect 31 0 19 0;
#X connect 34 0 35 0;
#X connect 35 0 48 0;
#X connect 36 0 51 0;
#X connect 38 0 52 0;
#X connect 39 0 53 0;
#X connect 41 0 57 0;
#X connect 42 0 62 0;
#X connect 43 0 44 0;
#X connect 43 0 54 0;
#X connect 46 0 64 0;
#X connect 48 0 36 0;
#X connect 48 0 76 0;
#X connect 48 1 38 0;
#X connect 48 2 39 0;
#X connect 48 3 40 0;
#X connect 48 4 59 0;
#X connect 48 5 46 0;
#X connect 48 6 47 0;
#X connect 48 6 56 0;
#X connect 49 0 4 0;
#X connect 50 0 49 0;
#X connect 57 0 42 0;
#X connect 58 0 31 1;
#X connect 59 0 43 0;
#X connect 60 0 61 0;
#X connect 62 0 32 0;
#X connect 62 1 27 1;
#X connect 62 1 27 0;
#X connect 62 2 28 0;
#X connect 62 3 33 0;
#X connect 62 4 79 0;
#X connect 64 0 45 0;
#X connect 64 0 55 0;
#X connect 67 0 36 0;
#X connect 68 0 16 0;
#X connect 70 0 69 0;
#X connect 71 0 82 0;
#X connect 71 1 83 0;
#X connect 72 0 71 0;
#X connect 73 0 71 1;
#X connect 74 0 81 0;
#X connect 76 0 77 0;
#X connect 77 0 37 0;
#X connect 79 0 80 0;
#X connect 80 0 78 0;
#X connect 82 0 14 0;
#X connect 83 0 60 0;
