#N canvas 357 121 450 300 10;
#X obj 164 19 inlet;
#X obj 164 97 t f b;
#X obj 191 121 samplerate~;
#X obj 165 68 * 0.001;
#X obj 166 176 *;
#X obj 166 208 int;
#X obj 165 235 outlet;
#X connect 0 0 3 0;
#X connect 1 0 4 0;
#X connect 1 1 2 0;
#X connect 2 0 4 1;
#X connect 3 0 1 0;
#X connect 4 0 5 0;
#X connect 5 0 6 0;
