#N canvas 415 218 908 525 10;
#X obj 256 1 notein;
#X obj 256 169 outlet;
#X obj 396 33 noteOff;
#X obj 256 144 pack f f;
#X floatatom 207 48 5 0 0 0 - - -;
#X obj 256 67 stripnote;
#X floatatom 88 95 5 0 0 0 - - -;
#X connect 0 0 5 0;
#X connect 0 1 5 1;
#X connect 3 0 1 0;
#X connect 5 0 3 0;
#X connect 5 1 3 1;
