#N canvas 151 128 1055 749 10;
#X obj 285 4 inlet~;
#X obj 449 -124 inlet;
#X obj 294 566 outlet~;
#X obj 284 229 tabwrite~ \$0-array1;
#X obj 293 299 r \$0-play;
#X obj 295 444 tabplay~ \$0-array1;
#X msg 333 133 stop;
#X msg 294 350 0;
#X msg 428 184 \; \$1-array1 normalize 1 \;;
#X obj 426 153 \$0;
#X obj 317 536 *~;
#X obj 432 433 vline~;
#X obj 431 463 *~;
#X obj 295 322 t b b;
#X obj 303 79 t b b;
#X obj 533 -71 s \$0-play;
#X obj 448 -71 s \$0-start;
#X obj 490 -33 s \$0-stop;
#X obj 334 176 r \$0-start;
#X obj 301 35 r \$0-stop;
#X obj 589 510 r \$0-start;
#X msg 590 543 1;
#X obj 667 511 r \$0-stop;
#X msg 668 540 0;
#X obj 741 509 r \$0-play;
#X msg 742 533 2;
#X obj 662 567 outlet;
#X obj 572 -31 pack s \$0;
#X obj 568 20 soundfiler;
#X obj 568 43 print \$0-soundFiler;
#X msg 569 -5 write \$1 \$2-array1;
#X obj 451 -102 route start stop play write length;
#X obj 793 -84 table \$0-array1;
#X obj 607 -76 s \$0-length;
#X obj 686 -308 r \$0-length;
#X msg 687 -183 \; \$2-array1 resize \$1;
#X obj 686 -282 t f b;
#X obj 713 -258 samplerate~;
#X obj 684 -234 *;
#X obj 508 -175 \$1;
#X obj 508 -199 loadbang;
#X msg 509 -149 length \$1;
#X obj 685 -207 pack f \$0;
#X obj 657 -135 print arraysize;
#X msg 777 -304 2;
#X obj 433 300 r \$0-length;
#X obj 432 323 * 1000;
#X obj 432 345 - 20;
#X obj 434 376 f;
#X msg 432 409 1 10 \, 0 10 \$1;
#X connect 0 0 3 0;
#X connect 1 0 31 0;
#X connect 4 0 13 0;
#X connect 5 0 10 0;
#X connect 6 0 3 0;
#X connect 7 0 5 0;
#X connect 9 0 8 0;
#X connect 10 0 2 0;
#X connect 11 0 12 1;
#X connect 11 0 12 0;
#X connect 12 0 10 1;
#X connect 13 0 7 0;
#X connect 13 1 48 0;
#X connect 14 0 9 0;
#X connect 14 1 6 0;
#X connect 18 0 3 0;
#X connect 19 0 14 0;
#X connect 20 0 21 0;
#X connect 21 0 26 0;
#X connect 22 0 23 0;
#X connect 23 0 26 0;
#X connect 24 0 25 0;
#X connect 25 0 26 0;
#X connect 27 0 30 0;
#X connect 28 0 29 0;
#X connect 30 0 28 0;
#X connect 31 0 16 0;
#X connect 31 1 17 0;
#X connect 31 2 15 0;
#X connect 31 3 27 0;
#X connect 31 4 33 0;
#X connect 34 0 36 0;
#X connect 36 0 38 0;
#X connect 36 1 37 0;
#X connect 37 0 38 1;
#X connect 38 0 42 0;
#X connect 39 0 41 0;
#X connect 40 0 39 0;
#X connect 41 0 31 0;
#X connect 42 0 35 0;
#X connect 42 0 43 0;
#X connect 44 0 36 0;
#X connect 45 0 46 0;
#X connect 46 0 47 0;
#X connect 47 0 48 1;
#X connect 48 0 49 0;
#X connect 49 0 11 0;
