#N canvas 63 23 1188 781 10;
#X obj 301 -277 inlet;
#X obj 296 115 birdOsc~;
#X obj 299 218 birdFilter~ \$2 \$3 \$4 \$5;
#X obj 299 41 route 0 1;
#X obj 301 -80 list prepend \$1;
#X obj 300 -47 list trim;
#X obj 270 558 birdPan~;
#X obj 340 607 outlet~;
#X obj 259 605 outlet~;
#X obj 509 -71 inlet;
#X obj 548 5 s \$0-osc;
#X obj 341 86 r \$0-osc;
#X obj 450 89 r \$0-string;
#X obj 584 26 s \$0-string;
#X obj 623 50 s \$0-pan;
#X obj 296 493 lop~ 1;
#X obj 274 516 *~;
#X obj 704 94 s \$0-switch;
#X obj 312 368 r \$0-switch;
#X obj 312 391 select 0 1;
#X obj 339 418 t b b;
#X msg 366 441 1;
#X obj 379 469 switch~;
#X msg 336 441 2;
#X msg 300 443 0;
#X obj 389 417 del 30;
#X msg 394 441 0;
#X obj 320 524 r \$0-pan;
#X obj 554 -114 loadbang;
#X obj 669 69 s \$0-filter;
#X msg 554 -70 switch 1;
#X obj 388 -113 r \$0-voice;
#X obj 747 118 s \$0-env;
#X obj 342 276 r \$0-env;
#X obj 299 -16 t a b;
#X obj 377 329 lop~ 1;
#X obj 375 301 r \$0-comp;
#X obj 784 145 s \$0-comp;
#X obj 511 -16 s \$0-voice;
#X obj 374 113 birdString~;
#X obj 295 304 birdEnv~;
#X obj 292 349 *~;
#X obj 452 304 loadbang;
#X msg 453 323 1;
#X msg 438 56 switch \$1;
#X obj 300 -251 t a a;
#X obj 509 -41 route voice osc string pan filter switch env comp sustain
;
#X obj 814 118 s \$0-sustain;
#X obj 367 -213 spigot;
#X obj 402 -239 r \$0-sustain;
#X obj 303 -115 spigot;
#X obj 394 -157 birdInvert 1;
#N canvas 705 22 450 300 sustain 0;
#X obj 112 37 inlet;
#X obj 114 65 unpack f f;
#X obj 117 152 pack f f;
#X obj 115 93 moses 1;
#X obj 113 120 change;
#X obj 120 185 outlet;
#X connect 0 0 1 0;
#X connect 1 0 3 0;
#X connect 1 1 2 1;
#X connect 2 0 5 0;
#X connect 3 0 4 0;
#X connect 4 0 2 0;
#X restore 537 -206 pd sustain;
#X msg 628 -69 sustain 1;
#X connect 0 0 45 0;
#X connect 1 0 2 0;
#X connect 2 0 40 0;
#X connect 3 0 1 0;
#X connect 3 1 39 0;
#X connect 4 0 5 0;
#X connect 5 0 34 0;
#X connect 6 0 8 0;
#X connect 6 1 7 0;
#X connect 9 0 46 0;
#X connect 11 0 1 1;
#X connect 12 0 39 1;
#X connect 15 0 16 1;
#X connect 16 0 6 0;
#X connect 18 0 19 0;
#X connect 19 0 24 0;
#X connect 19 0 25 0;
#X connect 19 1 20 0;
#X connect 20 0 23 0;
#X connect 20 1 21 0;
#X connect 21 0 22 0;
#X connect 23 0 15 0;
#X connect 24 0 15 0;
#X connect 25 0 26 0;
#X connect 26 0 22 0;
#X connect 27 0 6 1;
#X connect 28 0 30 0;
#X connect 28 0 53 0;
#X connect 30 0 46 0;
#X connect 31 0 4 1;
#X connect 33 0 40 2;
#X connect 34 0 3 0;
#X connect 34 1 40 1;
#X connect 35 0 41 1;
#X connect 36 0 35 0;
#X connect 39 0 2 0;
#X connect 40 0 41 0;
#X connect 41 0 16 0;
#X connect 42 0 43 0;
#X connect 43 0 35 0;
#X connect 44 0 39 1;
#X connect 45 0 50 0;
#X connect 45 1 48 0;
#X connect 46 0 38 0;
#X connect 46 0 44 0;
#X connect 46 1 10 0;
#X connect 46 2 13 0;
#X connect 46 3 14 0;
#X connect 46 4 29 0;
#X connect 46 5 17 0;
#X connect 46 6 32 0;
#X connect 46 7 37 0;
#X connect 46 8 47 0;
#X connect 48 0 4 0;
#X connect 49 0 48 1;
#X connect 49 0 51 0;
#X connect 50 0 4 0;
#X connect 51 0 50 1;
#X connect 53 0 46 0;
