#N canvas 138 155 1155 636 10;
#X obj 455 23 inlet;
#X obj 444 158 mtof;
#X obj 447 266 phasor~;
#X obj 635 36 inlet;
#X obj 458 607 outlet~;
#N canvas 530 427 722 458 wave 0;
#N canvas 621 248 450 300 sin 0;
#X obj 52 11 inlet~;
#X obj 51 196 *~;
#X obj 52 240 outlet~;
#X obj 121 -35 inlet;
#X obj 121 34 select 0 1;
#X obj 207 141 switch~;
#X obj 180 70 t b b;
#X msg 205 109 1;
#X msg 171 109 1;
#X obj 69 175 lop~ 1;
#X obj 113 70 t b b;
#X msg 138 109 0;
#X obj 104 90 del 30;
#X msg 104 109 0;
#X obj 52 71 *~ 6.28;
#X obj 51 105 cos~;
#X obj 118 -2 == 0;
#X connect 0 0 14 0;
#X connect 1 0 2 0;
#X connect 3 0 16 0;
#X connect 4 0 10 0;
#X connect 4 1 6 0;
#X connect 6 0 8 0;
#X connect 6 1 7 0;
#X connect 7 0 5 0;
#X connect 8 0 9 0;
#X connect 9 0 1 1;
#X connect 10 0 12 0;
#X connect 10 1 11 0;
#X connect 11 0 9 0;
#X connect 12 0 13 0;
#X connect 13 0 5 0;
#X connect 14 0 15 0;
#X connect 15 0 1 0;
#X connect 16 0 4 0;
#X restore 117 197 pd sin;
#N canvas 621 248 450 300 square 0;
#X obj -112 -4 inlet~;
#X obj 28 205 *~;
#X obj 29 249 outlet~;
#X obj 119 -44 inlet;
#X obj 121 34 select 0 1;
#X obj 207 141 switch~;
#X obj 180 70 t b b;
#X msg 205 109 1;
#X msg 171 109 1;
#X obj 46 184 lop~ 1;
#X obj 113 70 t b b;
#X msg 138 109 0;
#X obj 104 90 del 30;
#X msg 104 109 0;
#X obj -114 41 expr~ if($v1<0.5 \, -1 \, 1);
#X obj 118 4 == 2;
#X connect 0 0 14 0;
#X connect 1 0 2 0;
#X connect 3 0 15 0;
#X connect 4 0 10 0;
#X connect 4 1 6 0;
#X connect 6 0 8 0;
#X connect 6 1 7 0;
#X connect 7 0 5 0;
#X connect 8 0 9 0;
#X connect 9 0 1 1;
#X connect 10 0 12 0;
#X connect 10 1 11 0;
#X connect 11 0 9 0;
#X connect 12 0 13 0;
#X connect 13 0 5 0;
#X connect 14 0 1 0;
#X connect 15 0 4 0;
#X restore 298 191 pd square;
#X obj 213 36 inlet~;
#X obj 213 198 *~;
#X obj 230 175 lop~ 1;
#X obj 548 57 route sine square saw;
#X obj 546 16 inlet;
#X msg 549 81 0;
#X msg 587 79 1;
#X msg 628 81 2;
#X obj 548 116 s \$0-wave;
#X obj 345 159 r \$0-wave;
#X obj 152 137 r \$0-wave;
#X obj 231 101 r \$0-wave;
#X obj 229 129 == 1;
#X obj 217 330 hip~ 5;
#X obj 218 359 outlet~;
#X connect 0 0 15 0;
#X connect 1 0 15 0;
#X connect 2 0 1 0;
#X connect 2 0 0 0;
#X connect 2 0 3 0;
#X connect 3 0 15 0;
#X connect 4 0 3 1;
#X connect 5 0 7 0;
#X connect 5 1 8 0;
#X connect 5 2 9 0;
#X connect 6 0 5 0;
#X connect 7 0 10 0;
#X connect 8 0 10 0;
#X connect 9 0 10 0;
#X connect 11 0 1 1;
#X connect 12 0 0 1;
#X connect 13 0 14 0;
#X connect 14 0 4 0;
#X connect 15 0 16 0;
#X restore 459 312 pd wave;
#X obj 606 345 select 0 1;
#X obj 631 373 t b b;
#X obj 580 397 t b b;
#X obj 634 451 switch~;
#X msg 660 398 1;
#X msg 627 399 1;
#X obj 561 499 lop~ 1;
#X msg 603 423 0;
#X obj 579 447 del 30;
#X msg 580 473 0;
#X obj 773 0 loadbang;
#X msg 769 36 switch 1;
#X obj 458 555 *~;
#X obj 638 99 s \$0-shape;
#X obj 501 283 r \$0-shape;
#X obj 687 120 s \$0-switch;
#X obj 607 314 r \$0-switch;
#X obj 726 148 s \$0-env;
#X obj 455 71 unpack f f;
#X obj 515 122 moses 1;
#X floatatom 577 121 5 0 0 0 - - -;
#X obj 407 102 moses 1;
#X floatatom 316 243 5 0 0 0 - - -;
#X obj 446 242 line;
#X msg 445 213 \$1 \$2;
#X obj 444 187 pack f f;
#X obj 636 73 route shape switch env gliss;
#X obj 785 161 s \$0-gliss;
#X obj 759 104 *;
#X obj 786 133 * 250;
#X obj 492 152 r \$0-gliss;
#X msg 841 36 gliss 0.1;
#X msg 679 37 shape square;
#X obj 445 131 change;
#X obj 457 413 *~;
#X obj 475 381 lop~ 1;
#X obj 476 355 / 127;
#X connect 0 0 24 0;
#X connect 1 0 31 0;
#X connect 2 0 5 0;
#X connect 3 0 32 0;
#X connect 5 0 40 0;
#X connect 6 0 8 0;
#X connect 6 1 7 0;
#X connect 7 0 11 0;
#X connect 7 1 10 0;
#X connect 8 0 14 0;
#X connect 8 1 13 0;
#X connect 10 0 12 0;
#X connect 11 0 9 0;
#X connect 12 0 18 1;
#X connect 13 0 12 0;
#X connect 14 0 15 0;
#X connect 15 0 9 0;
#X connect 16 0 38 0;
#X connect 16 0 17 0;
#X connect 16 0 37 0;
#X connect 17 0 32 0;
#X connect 18 0 4 0;
#X connect 20 0 5 1;
#X connect 22 0 6 0;
#X connect 24 0 27 0;
#X connect 24 1 25 0;
#X connect 25 1 42 0;
#X connect 27 1 28 0;
#X connect 27 1 39 0;
#X connect 29 0 2 0;
#X connect 30 0 29 0;
#X connect 31 0 30 0;
#X connect 32 0 19 0;
#X connect 32 1 21 0;
#X connect 32 2 23 0;
#X connect 32 3 34 1;
#X connect 32 3 34 0;
#X connect 34 0 35 0;
#X connect 35 0 33 0;
#X connect 36 0 31 1;
#X connect 37 0 32 0;
#X connect 38 0 32 0;
#X connect 39 0 1 0;
#X connect 40 0 18 0;
#X connect 41 0 40 1;
#X connect 42 0 41 0;
