#N canvas 142 29 853 664 10;
#X obj 182 -347 inlet;
#X obj 191 -74 max 0;
#X obj 191 -47 f;
#X obj 241 -245 s \$0-reset;
#X obj 190 -217 list-enumerate;
#X obj 216 -124 r \$0-reset;
#X msg 218 -102 0;
#X obj 190 -162 list split 1;
#X obj 191 -23 change;
#X obj 191 0 pack f f;
#X obj 189 -191 list-rev;
#X obj 178 233 outlet;
#X obj 178 117 spigot;
#X obj 262 -49 ctr;
#X obj 235 -73 t f f;
#X obj 262 -27 + 1;
#X obj 263 23 ==;
#X obj 184 -322 t a a b;
#X obj 204 -297 list length;
#X obj 205 -273 s \$0-theLength;
#X obj 278 -5 r \$0-theLength;
#X obj 273 -96 bng 15 250 50 0 empty empty empty 17 7 0 10 -262144
-1 -1;
#X obj 188 40 t a b;
#X obj 168 71 list;
#X obj 214 71 del 1;
#X obj 179 152 unpack f f;
#X obj 240 238 outlet;
#X connect 0 0 17 0;
#X connect 1 0 2 0;
#X connect 2 0 1 1;
#X connect 2 0 8 0;
#X connect 4 0 10 0;
#X connect 5 0 6 0;
#X connect 5 0 13 1;
#X connect 5 0 21 0;
#X connect 6 0 1 1;
#X connect 7 0 1 0;
#X connect 7 1 14 0;
#X connect 8 0 9 0;
#X connect 9 0 22 0;
#X connect 10 0 7 0;
#X connect 12 0 25 0;
#X connect 13 0 15 0;
#X connect 14 0 9 1;
#X connect 14 1 13 0;
#X connect 15 0 16 0;
#X connect 16 0 12 1;
#X connect 17 0 4 0;
#X connect 17 1 18 0;
#X connect 17 2 3 0;
#X connect 18 0 19 0;
#X connect 20 0 16 1;
#X connect 22 0 23 1;
#X connect 22 1 24 0;
#X connect 23 0 12 0;
#X connect 24 0 23 0;
#X connect 25 0 11 0;
#X connect 25 1 26 0;
