#N canvas 41 72 1440 797 10;
#X obj 42 -22 inlet~;
#X obj 271 10 inlet;
#X obj 271 102 s \$0-a;
#X obj 289 130 s \$0-d;
#X obj 305 161 s \$0-s;
#X obj 322 187 s \$0-r;
#X obj 383 139 s \$0-v1;
#X obj 398 161 s \$0-v2;
#X obj 1179 231 r \$0-v1;
#X obj 1229 257 r \$0-a;
#X obj 1018 196 r \$0-v2;
#X obj 1055 219 r \$0-d;
#X obj 1017 335 pack f f f;
#X obj 1106 220 r \$0-a;
#X obj 1084 306 +;
#X obj 1107 244 + 5;
#X obj 1055 242 t f f;
#X obj 1077 280 f;
#X obj 1106 264 t b f;
#X obj 871 331 pack f f f;
#X text 1189 193 attack;
#X text 1054 167 decay;
#X text 883 167 sustain + release;
#X obj 411 185 s \$0-v3;
#X obj 875 204 r \$0-v3;
#X obj 904 233 r \$0-r;
#X obj 270 36 t b a;
#X obj 269 215 s \$0-refresh;
#X obj 1035 38 r \$0-refresh;
#N canvas 721 253 719 566 add 0;
#X obj 1060 165 r \$0-a;
#X obj 1122 164 r \$0-d;
#X obj 1185 249 +;
#X obj 1182 213 t b f;
#X obj 1181 189 f;
#X obj 1127 249 +;
#X obj 1122 215 t b f;
#X obj 1121 191 f;
#X obj 1062 216 f;
#X floatatom 1187 287 5 0 0 0 - - -;
#X floatatom 1127 329 5 0 0 0 - - -;
#X floatatom 1072 290 5 0 0 0 - - -;
#X obj 1126 282 f;
#X obj 1060 189 + 5;
#X obj 1180 160 r \$0-s;
#X obj 1084 366 outlet;
#X connect 0 0 13 0;
#X connect 1 0 7 1;
#X connect 1 0 7 0;
#X connect 2 0 9 0;
#X connect 2 0 15 0;
#X connect 3 0 12 0;
#X connect 3 1 2 1;
#X connect 4 0 3 0;
#X connect 5 0 12 1;
#X connect 5 0 12 0;
#X connect 6 0 8 0;
#X connect 6 1 5 1;
#X connect 7 0 6 0;
#X connect 8 0 5 0;
#X connect 8 0 11 0;
#X connect 12 0 2 0;
#X connect 12 0 10 0;
#X connect 13 0 8 1;
#X connect 13 0 8 0;
#X connect 14 0 4 1;
#X connect 14 0 4 0;
#X restore 947 249 pd add;
#X msg 1262 355 addcomma;
#X msg 1047 453 0 5 \, 1 300 5 \, 0.7 40 345 \, 0 100 445;
#X msg 872 362 add2 \$1 \$2 \$3;
#X msg 1017 361 add2 \$1 \$2 \$3;
#X msg 1323 356 add2 \$1 \$2;
#X obj 1034 63 t b b b b b b b b;
#X obj 325 -46 loadbang;
#X obj 1157 86 s \$0-clear;
#X obj 1124 490 r \$0-clear;
#X msg 1124 514 set;
#X obj 110 -82 inlet;
#X obj 109 179 s \$0-doAttack;
#X obj 1044 395 r \$0-doAttack;
#X obj 1045 575 s \$0-theEnv;
#X obj 39 354 *~;
#X obj 80 221 r \$0-theEnv;
#X obj 81 301 vline~;
#X obj 75 333 *~;
#X obj 39 409 outlet~;
#X msg 1324 329 \$1 5;
#X obj 1324 295 f;
#X obj 80 260 t a b;
#X obj 1327 242 r \$0-v3;
#X msg 1180 357 add2 \$1 \$2 \$3;
#X obj 1180 332 pack f f 5;
#X obj 703 92 t b b b b b;
#X obj 311 362 r \$0-a;
#X obj 280 477 del;
#X obj 511 101 s \$0-debounce;
#X obj 109 -47 t b b;
#X obj 135 -22 s \$0-newAttack;
#X obj 281 509 s \$0-debounceDone;
#X obj 111 131 spigot;
#N canvas 366 291 450 300 inv 0;
#X obj 146 37 inlet;
#X obj 148 77 swap 1;
#X obj 155 124 -;
#X obj 154 168 outlet;
#X connect 0 0 1 0;
#X connect 1 0 2 0;
#X connect 1 1 2 1;
#X connect 2 0 3 0;
#X restore 184 126 pd inv;
#X obj 109 154 t b b;
#X obj 134 78 r \$0-debounceDone;
#X obj 166 151 f 0;
#X msg 139 102 1;
#X obj 185 99 r \$0-debounce;
#X obj 336 474 loadbang;
#X obj 280 388 r \$0-doAttack;
#X msg 422 324 a \$1 \, d \$2 \, s \$3 \, r \$4 \, v3 \$5;
#X obj 289 58 route a d s r v1 v2 v3 randomize debounce tempo;
#X obj 538 81 s \$0-tempo;
#X obj 533 402 r \$0-tempo;
#X obj 531 427 swap 60000;
#X obj 531 449 /;
#X obj 544 137 random 9;
#X obj 524 537 s \$0-ms;
#X obj 543 157 * 0.25;
#X obj 560 186 r \$0-ms;
#X obj 543 215 *;
#X obj 616 137 random 5;
#X obj 618 158 * 0.25;
#X obj 616 211 *;
#X obj 635 181 r \$0-ms;
#X obj 688 135 random 17;
#X obj 690 156 * 0.25;
#X obj 687 200 *;
#X obj 703 178 r \$0-ms;
#X obj 757 129 random 17;
#X obj 759 150 * 0.25;
#X obj 756 194 *;
#X obj 775 174 r \$0-ms;
#X obj 424 297 pack f f f f 0;
#X obj 530 491 * 0.25;
#X msg 324 -14 a 300 \, d 40 \, s 100 \, r 100 \, v1 1 \, v2 0.7 \,
v3 0 \, debounce 0 \, tempo 120;
#X connect 0 0 44 0;
#X connect 1 0 26 0;
#X connect 8 0 54 0;
#X connect 9 0 54 1;
#X connect 10 0 12 0;
#X connect 11 0 16 0;
#X connect 12 0 33 0;
#X connect 13 0 15 0;
#X connect 14 0 12 2;
#X connect 15 0 18 0;
#X connect 16 0 12 1;
#X connect 16 1 17 1;
#X connect 16 1 17 0;
#X connect 17 0 14 0;
#X connect 18 0 17 0;
#X connect 18 1 14 1;
#X connect 19 0 32 0;
#X connect 24 0 19 0;
#X connect 25 0 19 1;
#X connect 26 0 27 0;
#X connect 26 1 72 0;
#X connect 28 0 35 0;
#X connect 29 0 19 2;
#X connect 30 0 31 0;
#X connect 31 0 43 0;
#X connect 32 0 31 0;
#X connect 33 0 31 0;
#X connect 34 0 31 0;
#X connect 35 0 19 0;
#X connect 35 1 30 0;
#X connect 35 2 12 0;
#X connect 35 3 30 0;
#X connect 35 4 54 0;
#X connect 35 5 30 0;
#X connect 35 6 50 0;
#X connect 35 7 37 0;
#X connect 36 0 96 0;
#X connect 38 0 39 0;
#X connect 39 0 31 0;
#X connect 40 0 59 0;
#X connect 42 0 31 0;
#X connect 44 0 48 0;
#X connect 45 0 51 0;
#X connect 46 0 47 1;
#X connect 46 0 47 0;
#X connect 47 0 44 1;
#X connect 49 0 34 0;
#X connect 50 0 49 0;
#X connect 51 0 46 0;
#X connect 52 0 50 1;
#X connect 52 0 50 0;
#X connect 53 0 31 0;
#X connect 54 0 53 0;
#X connect 55 0 77 0;
#X connect 55 1 82 0;
#X connect 55 2 86 0;
#X connect 55 3 90 0;
#X connect 56 0 57 1;
#X connect 57 0 61 0;
#X connect 59 0 62 0;
#X connect 59 1 60 0;
#X connect 62 0 64 0;
#X connect 63 0 66 1;
#X connect 64 0 41 0;
#X connect 64 1 66 0;
#X connect 65 0 67 0;
#X connect 66 0 62 1;
#X connect 67 0 62 1;
#X connect 68 0 63 0;
#X connect 69 0 61 0;
#X connect 70 0 57 0;
#X connect 71 0 26 0;
#X connect 72 0 2 0;
#X connect 72 1 3 0;
#X connect 72 2 4 0;
#X connect 72 3 5 0;
#X connect 72 4 6 0;
#X connect 72 5 7 0;
#X connect 72 6 23 0;
#X connect 72 7 55 0;
#X connect 72 8 58 0;
#X connect 72 9 73 0;
#X connect 74 0 75 0;
#X connect 75 0 76 0;
#X connect 75 1 76 1;
#X connect 76 0 95 0;
#X connect 77 0 79 0;
#X connect 79 0 81 0;
#X connect 80 0 81 1;
#X connect 81 0 94 0;
#X connect 82 0 83 0;
#X connect 83 0 84 0;
#X connect 84 0 94 1;
#X connect 85 0 84 1;
#X connect 86 0 87 0;
#X connect 87 0 88 0;
#X connect 88 0 94 2;
#X connect 89 0 88 1;
#X connect 90 0 91 0;
#X connect 91 0 92 0;
#X connect 92 0 94 3;
#X connect 93 0 92 1;
#X connect 94 0 71 0;
#X connect 95 0 78 0;
#X connect 96 0 26 0;
