#N canvas 182 46 450 300 10;
#X obj 170 63 inlet~;
#X obj 169 110 env~;
#X obj 169 176 t f f;
#X obj 169 220 outlet;
#X obj 313 62 inlet;
#X obj 313 88 t b;
#X msg 314 112 60;
#X obj 168 147 min 60;
#X connect 0 0 1 0;
#X connect 1 0 7 0;
#X connect 2 0 3 0;
#X connect 2 1 7 1;
#X connect 4 0 5 0;
#X connect 5 0 6 0;
#X connect 6 0 7 1;
#X connect 7 0 2 0;
