#N canvas 205 58 910 555 10;
#X obj 465 248 cos;
#X obj 464 271 + 1;
#X obj 462 292 * 0.5;
#X obj 464 218 * 3.14;
#X obj 464 194 + 1;
#X obj 461 316 * 100;
#X obj 462 347 moses 1;
#X obj 499 375 moses 99;
#X obj 462 80 inlet;
#X msg 461 397 0;
#X msg 541 422 100;
#X obj 474 467 * 0.01;
#X obj 461 373 bng 15 250 50 0 empty empty empty 17 7 0 10 -262144
-1 -1;
#X obj 544 400 bng 15 250 50 0 empty empty empty 17 7 0 10 -262144
-1 -1;
#X obj 472 538 outlet;
#X obj 542 483 swap 1;
#X obj 552 509 -;
#X obj 550 535 outlet;
#X obj 651 482 min 0.8;
#X obj 692 418 inlet;
#X obj 651 535 outlet;
#X connect 0 0 1 0;
#X connect 1 0 2 0;
#X connect 2 0 5 0;
#X connect 3 0 0 0;
#X connect 4 0 3 0;
#X connect 5 0 6 0;
#X connect 6 0 12 0;
#X connect 6 1 7 0;
#X connect 7 0 11 0;
#X connect 7 1 13 0;
#X connect 8 0 4 0;
#X connect 9 0 11 0;
#X connect 10 0 11 0;
#X connect 11 0 14 0;
#X connect 11 0 15 0;
#X connect 11 0 18 0;
#X connect 12 0 9 0;
#X connect 13 0 10 0;
#X connect 15 0 16 0;
#X connect 15 1 16 1;
#X connect 16 0 17 0;
#X connect 18 0 20 0;
#X connect 19 0 18 1;
