#N canvas 67 162 1268 785 10;
#N canvas 344 23 903 680 clock 0;
#X msg 156 109 play;
#X obj 277 286 s~ metro;
#X obj 152 268 route clock;
#X obj 117 -400 r onOff;
#X obj 117 -207 sel 0 1;
#X msg 256 146 stop;
#X obj 153 385 s \$0-clock;
#X obj 152 301 t f f;
#X obj 227 107 t b b;
#X msg 209 170 reset;
#X obj 295 -80 random 100;
#X obj 296 -58 * 0.01;
#X obj 292 35 int;
#X obj 537 385 s \$0-detectedTempo;
#X msg 291 57 tempo \$1;
#X obj 298 -307 r setNewTempo;
#X obj 428 62 s detectedTempo;
#X obj 444 -5 r setTempo;
#X obj 240 -266 loadbang;
#X obj 238 -219 timer;
#X obj 231 -194 f;
#X obj 138 -180 t b b b b b;
#X obj 230 -168 mod 200;
#X msg 230 -149 seed \$1;
#X obj 293 9 + 80;
#N canvas 695 279 450 300 inv 0;
#X obj 98 49 inlet;
#X obj 100 88 swap 1;
#X obj 102 115 -;
#X obj 97 145 outlet;
#X connect 0 0 1 0;
#X connect 1 0 2 0;
#X connect 1 1 2 1;
#X connect 2 0 3 0;
#X restore 354 -143 pd inv;
#X obj 294 -139 spigot;
#X obj 352 -240 r lockTempo;
#X msg 437 -167 0;
#X obj 436 -189 loadbang;
#X obj 294 -20 * 200;
#X obj 283 381 s clock;
#X obj 470 -129 r minTempo;
#X obj 400 -129 r maxTempo;
#X obj 399 -38 -;
#X obj 417 -66 t b f f;
#X obj 470 -94 change;
#X obj 397 -99 change;
#X obj 396 -12 t b f;
#X obj 673 56 r divisions;
#X msg 669 170 divisions \$1;
#X obj 767 60 r beats;
#X msg 762 174 beats \$1;
#X obj 837 60 r measures;
#X msg 829 174 measures \$1;
#X obj 671 118 t b f;
#X obj 763 116 t b f;
#X obj 834 115 t b f;
#X obj 586 53 r swing;
#X obj 154 240 birdClock 8 4 2 120 1;
#X obj 586 87 t b f;
#X obj 297 -111 t b;
#X obj 67 384 outlet;
#X obj 417 384 outlet;
#X msg 610 171 swing \$1;
#X obj 292 104 t b a a;
#X connect 0 0 49 0;
#X connect 2 0 7 0;
#X connect 3 0 4 0;
#X connect 4 0 8 0;
#X connect 4 1 21 0;
#X connect 5 0 49 0;
#X connect 7 0 52 0;
#X connect 7 1 31 0;
#X connect 8 0 9 0;
#X connect 8 1 5 0;
#X connect 9 0 49 0;
#X connect 10 0 11 0;
#X connect 11 0 30 0;
#X connect 12 0 14 0;
#X connect 12 0 16 0;
#X connect 14 0 55 0;
#X connect 15 0 26 0;
#X connect 17 0 12 0;
#X connect 18 0 19 0;
#X connect 19 0 20 1;
#X connect 20 0 22 0;
#X connect 21 0 0 0;
#X connect 21 2 26 0;
#X connect 21 3 20 0;
#X connect 21 4 19 1;
#X connect 22 0 23 0;
#X connect 23 0 10 0;
#X connect 24 0 12 0;
#X connect 25 0 26 1;
#X connect 26 0 51 0;
#X connect 27 0 25 0;
#X connect 28 0 25 0;
#X connect 29 0 28 0;
#X connect 30 0 24 0;
#X connect 32 0 36 0;
#X connect 33 0 37 0;
#X connect 34 0 38 0;
#X connect 35 0 34 0;
#X connect 35 1 34 1;
#X connect 35 2 24 1;
#X connect 36 0 35 0;
#X connect 37 0 34 0;
#X connect 38 0 26 0;
#X connect 38 1 30 1;
#X connect 39 0 45 0;
#X connect 40 0 49 1;
#X connect 41 0 46 0;
#X connect 42 0 49 1;
#X connect 43 0 47 0;
#X connect 44 0 49 1;
#X connect 45 0 0 0;
#X connect 45 1 40 0;
#X connect 46 0 0 0;
#X connect 46 1 42 0;
#X connect 47 0 0 0;
#X connect 47 1 44 0;
#X connect 48 0 50 0;
#X connect 49 0 2 0;
#X connect 49 1 1 0;
#X connect 50 0 0 0;
#X connect 50 1 54 0;
#X connect 51 0 10 0;
#X connect 54 0 49 1;
#X connect 55 0 0 0;
#X connect 55 1 49 1;
#X connect 55 2 53 0;
#X restore 782 318 pd clock;
#N canvas 256 54 911 714 drums 0;
#N canvas 207 23 1440 752 kick 0;
#X obj 512 376 soundfiler;
#X obj 143 716 outlet~;
#X obj 512 506 \$0;
#X obj 142 673 *~;
#X obj 150 252 t b b b;
#X obj 74 454 del;
#X obj 177 479 * 0.01;
#X obj 177 420 random 45;
#X obj 177 451 + 70;
#X obj 205 280 == 0;
#X obj 205 312 sel 0 1;
#X msg 245 341 90;
#X msg 204 342 60;
#X obj 25 8 table \$0-kickArray0;
#X obj 148 546 tabplay~ \$0-kickArray0;
#X obj 240 487 \$0;
#X msg 239 507 set \$1-kickArray0;
#X msg 512 533 \; \$1-kickArray0 normalize 1;
#X obj 170 640 *~;
#X obj 174 587 lop~ 1;
#X obj 193 374 random 10;
#X obj 190 88 random 100;
#X obj 191 111 <;
#X obj 148 171 spigot;
#X obj 265 -48 r notes;
#X obj 264 -1 list prepend read;
#X obj 263 22 list trim;
#X obj 264 -23 route 4;
#X obj 206 57 mm_pattern;
#X obj 166 1 inlet;
#X obj 167 26 t f b f f;
#X obj 514 309 list trim;
#X obj 514 279 r loadKickSample;
#X obj 72 490 s kickHits;
#X obj 513 338 route 0;
#X obj 512 402 t b b;
#X obj 285 70 r ticksPerMeasure;
#X obj 250 147 t f b f;
#X obj 276 224 random 16;
#X obj 209 219 mod 16;
#X obj 400 69 r loadNextPattern;
#X obj 283 108 f 16;
#X obj 204 713 scope kickScope;
#X obj 211 686 *~ 0.9;
#X connect 0 0 35 0;
#X connect 2 0 17 0;
#X connect 3 0 1 0;
#X connect 3 0 43 0;
#X connect 4 0 5 0;
#X connect 4 1 7 0;
#X connect 4 2 20 0;
#X connect 5 0 14 0;
#X connect 5 0 33 0;
#X connect 6 0 19 0;
#X connect 7 0 8 0;
#X connect 8 0 6 0;
#X connect 9 0 10 0;
#X connect 10 0 12 0;
#X connect 10 1 11 0;
#X connect 11 0 8 1;
#X connect 12 0 8 1;
#X connect 14 0 3 0;
#X connect 15 0 16 0;
#X connect 16 0 14 0;
#X connect 18 0 3 1;
#X connect 19 0 18 1;
#X connect 19 0 18 0;
#X connect 20 0 5 1;
#X connect 21 0 22 0;
#X connect 22 0 23 1;
#X connect 23 0 4 0;
#X connect 24 0 27 0;
#X connect 25 0 26 0;
#X connect 26 0 28 1;
#X connect 27 0 25 0;
#X connect 28 0 22 1;
#X connect 28 1 22 1;
#X connect 29 0 30 0;
#X connect 30 0 23 0;
#X connect 30 1 21 0;
#X connect 30 2 28 0;
#X connect 30 3 39 0;
#X connect 31 0 34 0;
#X connect 32 0 31 0;
#X connect 34 0 0 0;
#X connect 35 0 2 0;
#X connect 35 1 15 0;
#X connect 36 0 41 1;
#X connect 36 0 41 0;
#X connect 37 0 39 1;
#X connect 37 1 38 0;
#X connect 37 2 38 1;
#X connect 38 0 9 1;
#X connect 39 0 9 0;
#X connect 40 0 41 0;
#X connect 41 0 37 0;
#X connect 43 0 42 0;
#X restore 184 108 pd kick;
#N canvas 189 28 1440 752 sn 0;
#X obj 407 270 soundfiler;
#X obj 150 663 outlet~;
#X obj 407 330 \$0;
#X obj 149 614 *~;
#X obj 154 210 t b b b;
#X obj 151 365 del;
#X obj 177 349 * 0.01;
#X obj 177 297 random 45;
#X obj 177 321 + 60;
#X obj 225 199 == 0;
#X obj 225 231 sel 0 1;
#X msg 224 261 50;
#X obj 6 13 table \$0-snareArray0;
#X obj 289 389 \$0;
#X msg 288 415 set \$1-snareArray0;
#X obj 149 506 tabplay~ \$0-snareArray0;
#X msg 407 357 \; \$1-snareArray0 normalize 1;
#X obj 167 554 lop~ 1;
#X obj 168 581 *~;
#X obj 214 321 random 12;
#X obj 179 27 random 100;
#X obj 180 50 <;
#X obj 158 83 spigot;
#X obj 250 -102 r notes;
#X obj 253 -55 list prepend read;
#X obj 252 -32 list trim;
#X obj 195 -4 mm_pattern;
#X obj 253 -77 route 5;
#X obj 156 -28 t f b f f;
#X obj 155 -53 inlet;
#X obj 409 202 list trim;
#X obj 409 172 r loadSnareSample;
#X obj 408 231 route 0;
#X obj 407 299 t b b;
#X obj 317 -20 r ticksPerMeasure;
#X obj 282 57 t f b f;
#X obj 304 148 random 16;
#X obj 226 151 mod 16;
#X obj 432 -21 r loadNextPattern;
#X obj 315 18 f 16;
#X msg 265 260 90;
#X obj 168 404 s snareHits;
#X obj 223 656 scope snareScope;
#X connect 0 0 33 0;
#X connect 2 0 16 0;
#X connect 3 0 1 0;
#X connect 3 0 42 0;
#X connect 4 0 5 0;
#X connect 4 1 7 0;
#X connect 4 2 19 0;
#X connect 5 0 15 0;
#X connect 5 0 41 0;
#X connect 6 0 17 0;
#X connect 7 0 8 0;
#X connect 8 0 6 0;
#X connect 9 0 10 0;
#X connect 10 0 11 0;
#X connect 10 1 40 0;
#X connect 11 0 8 1;
#X connect 13 0 14 0;
#X connect 14 0 15 0;
#X connect 15 0 3 0;
#X connect 17 0 18 1;
#X connect 17 0 18 0;
#X connect 18 0 3 1;
#X connect 19 0 5 1;
#X connect 20 0 21 0;
#X connect 21 0 22 1;
#X connect 22 0 4 0;
#X connect 23 0 27 0;
#X connect 24 0 25 0;
#X connect 25 0 26 1;
#X connect 26 0 21 1;
#X connect 26 1 21 1;
#X connect 27 0 24 0;
#X connect 28 0 22 0;
#X connect 28 1 20 0;
#X connect 28 2 26 0;
#X connect 28 3 37 0;
#X connect 29 0 28 0;
#X connect 30 0 32 0;
#X connect 31 0 30 0;
#X connect 32 0 0 0;
#X connect 33 0 2 0;
#X connect 33 1 13 0;
#X connect 34 0 39 1;
#X connect 34 0 39 0;
#X connect 35 0 37 1;
#X connect 35 1 36 0;
#X connect 35 2 36 1;
#X connect 36 0 9 1;
#X connect 37 0 9 0;
#X connect 38 0 39 0;
#X connect 39 0 35 0;
#X connect 40 0 8 1;
#X restore 208 141 pd sn;
#N canvas 7 23 1440 752 perc 0;
#X obj 1201 651 soundfiler;
#X obj 329 974 outlet~;
#X obj 1203 678 t b;
#X obj 1201 711 \$0;
#X obj 326 762 *~;
#X obj 326 481 t b b b;
#X obj 324 597 del;
#X obj 352 568 * 0.01;
#X obj 352 516 random 45;
#X obj 352 540 + 55;
#X obj 23 -220 table \$0-percArray0;
#X obj 23 -197 table \$0-percArray1;
#X obj 24 -174 table \$0-percArray2;
#X obj 24 -151 table \$0-percArray3;
#X obj 323 635 tabplay~ \$0-percArray0;
#X obj 1362 652 soundfiler;
#X obj 1362 681 t b;
#X obj 1362 712 \$0;
#X obj 1520 649 soundfiler;
#X obj 1520 678 t b;
#X obj 1520 709 \$0;
#X obj 1681 650 soundfiler;
#X obj 1681 679 t b;
#X obj 1681 710 \$0;
#X msg 1201 738 \; \$1-percArray0 normalize 1;
#X msg 1362 739 \; \$1-percArray1 normalize 1;
#X msg 1520 736 \; \$1-percArray2 normalize 1;
#X msg 1681 737 \; \$1-percArray3 normalize 1;
#X obj 341 713 *~;
#X obj 339 672 lop~ 1;
#X obj 389 540 random 5;
#X obj 373 251 random 100;
#X obj 374 274 <;
#X obj 318 306 spigot;
#X obj 447 77 r notes;
#X obj 450 124 list prepend read;
#X obj 449 147 list trim;
#X obj 389 220 mm_pattern;
#X obj 450 102 route 6;
#X obj 355 178 t f b f f;
#X obj 325 -246 inlet;
#X obj 1201 309 r loadPercSample;
#X obj 1201 339 list trim;
#X obj 1200 368 route 0 1 2 3;
#X obj 374 374 s percHits;
#X obj 325 -48 f;
#X obj 363 -50 + 1;
#X msg 361 -103 0;
#X obj 316 43 mod 4;
#X obj 450 779 *~;
#X obj 474 748 *~;
#X obj 484 707 lop~ 1;
#X obj 461 666 tabplay~ \$0-percArray1;
#X obj 554 830 *~;
#X obj 584 802 *~;
#X obj 609 769 lop~ 1;
#X obj 565 724 tabplay~ \$0-percArray2;
#X obj 715 841 *~;
#X obj 739 810 *~;
#X obj 737 769 lop~ 1;
#X obj 722 727 tabplay~ \$0-percArray3;
#X obj 518 268 == 0;
#X obj 518 300 sel 0 1;
#X msg 517 330 50;
#X obj 577 53 r ticksPerMeasure;
#X obj 575 126 t f b f;
#X obj 607 218 random 16;
#X obj 519 220 mod 16;
#X obj 692 52 r loadNextPattern;
#X obj 575 91 f 16;
#X msg 558 329 90;
#X obj 443 478 t b b b;
#X obj 465 633 del;
#X obj 493 604 * 0.01;
#X obj 493 552 random 45;
#X obj 493 576 + 55;
#X obj 530 576 random 5;
#X obj 559 487 t b b b;
#X obj 582 640 del;
#X obj 610 611 * 0.01;
#X obj 610 559 random 45;
#X obj 610 583 + 55;
#X obj 647 583 random 5;
#X obj 739 487 t b b b;
#X obj 717 682 del;
#X obj 745 653 * 0.01;
#X obj 745 601 random 45;
#X obj 745 625 + 55;
#X obj 782 625 random 5;
#X obj 321 -101 until;
#X msg 322 -127 4;
#X obj 323 -192 t b b f;
#X floatatom 278 110 5 0 0 0 - - -;
#X obj 323 401 sel 0 1 2 3;
#X obj 354 140 f;
#X obj 315 90 t f b;
#X obj 336 880 birdPan~;
#X obj 618 978 outlet~;
#X obj 437 886 birdPan~;
#X obj 556 885 birdPan~;
#X obj 711 879 birdPan~;
#X obj 383 852 r randomize;
#X obj 480 859 r randomize1;
#X obj 600 852 r randomize2;
#X obj 756 842 r randomize3;
#X connect 0 0 2 0;
#X connect 2 0 3 0;
#X connect 3 0 24 0;
#X connect 4 0 96 0;
#X connect 5 0 6 0;
#X connect 5 1 8 0;
#X connect 5 2 30 0;
#X connect 6 0 14 0;
#X connect 7 0 29 0;
#X connect 8 0 9 0;
#X connect 9 0 7 0;
#X connect 14 0 4 0;
#X connect 15 0 16 0;
#X connect 16 0 17 0;
#X connect 17 0 25 0;
#X connect 18 0 19 0;
#X connect 19 0 20 0;
#X connect 20 0 26 0;
#X connect 21 0 22 0;
#X connect 22 0 23 0;
#X connect 23 0 27 0;
#X connect 28 0 4 1;
#X connect 29 0 28 1;
#X connect 29 0 28 0;
#X connect 30 0 6 1;
#X connect 31 0 32 0;
#X connect 32 0 33 1;
#X connect 33 0 93 0;
#X connect 33 0 44 0;
#X connect 34 0 38 0;
#X connect 35 0 36 0;
#X connect 36 0 37 1;
#X connect 37 0 32 1;
#X connect 37 1 32 1;
#X connect 38 0 35 0;
#X connect 39 1 31 0;
#X connect 39 2 37 0;
#X connect 39 3 67 0;
#X connect 40 0 91 0;
#X connect 41 0 42 0;
#X connect 42 0 43 0;
#X connect 43 0 0 0;
#X connect 43 1 15 0;
#X connect 43 2 18 0;
#X connect 43 3 21 0;
#X connect 45 0 46 0;
#X connect 45 0 48 0;
#X connect 46 0 45 1;
#X connect 47 0 45 1;
#X connect 48 0 92 0;
#X connect 48 0 95 0;
#X connect 49 0 98 0;
#X connect 50 0 49 1;
#X connect 51 0 50 1;
#X connect 51 0 50 0;
#X connect 52 0 49 0;
#X connect 53 0 99 0;
#X connect 54 0 53 1;
#X connect 55 0 54 1;
#X connect 55 0 54 0;
#X connect 56 0 53 0;
#X connect 57 0 100 0;
#X connect 58 0 57 1;
#X connect 59 0 58 1;
#X connect 59 0 58 0;
#X connect 60 0 57 0;
#X connect 61 0 62 0;
#X connect 62 0 63 0;
#X connect 62 1 70 0;
#X connect 63 0 9 1;
#X connect 63 0 75 1;
#X connect 63 0 81 1;
#X connect 63 0 87 1;
#X connect 64 0 69 1;
#X connect 64 0 69 0;
#X connect 65 0 67 1;
#X connect 65 1 66 0;
#X connect 65 2 66 1;
#X connect 66 0 61 1;
#X connect 67 0 61 0;
#X connect 68 0 69 0;
#X connect 69 0 65 0;
#X connect 70 0 9 1;
#X connect 70 0 75 1;
#X connect 70 0 81 1;
#X connect 70 0 87 1;
#X connect 71 0 72 0;
#X connect 71 1 74 0;
#X connect 71 2 76 0;
#X connect 72 0 52 0;
#X connect 73 0 51 0;
#X connect 74 0 75 0;
#X connect 75 0 73 0;
#X connect 76 0 72 1;
#X connect 77 0 78 0;
#X connect 77 1 80 0;
#X connect 77 2 82 0;
#X connect 78 0 56 0;
#X connect 79 0 55 0;
#X connect 80 0 81 0;
#X connect 81 0 79 0;
#X connect 82 0 78 1;
#X connect 83 0 84 0;
#X connect 83 1 86 0;
#X connect 83 2 88 0;
#X connect 84 0 60 0;
#X connect 85 0 59 0;
#X connect 86 0 87 0;
#X connect 87 0 85 0;
#X connect 88 0 84 1;
#X connect 89 0 45 0;
#X connect 90 0 89 0;
#X connect 91 0 90 0;
#X connect 91 1 47 0;
#X connect 91 2 94 1;
#X connect 93 0 5 0;
#X connect 93 1 71 0;
#X connect 93 2 77 0;
#X connect 93 3 83 0;
#X connect 94 0 39 0;
#X connect 95 0 33 0;
#X connect 95 1 94 0;
#X connect 96 0 1 0;
#X connect 96 1 97 0;
#X connect 98 0 1 0;
#X connect 98 1 97 0;
#X connect 99 0 1 0;
#X connect 99 1 97 0;
#X connect 100 0 1 0;
#X connect 100 1 97 0;
#X connect 101 0 96 1;
#X connect 102 0 98 1;
#X connect 103 0 99 1;
#X connect 104 0 100 1;
#X restore 234 173 pd perc;
#N canvas 501 222 450 300 toFuzz 0;
#X obj 75 -66 inlet~;
#X obj 76 197 throw~ toFuzz;
#X obj 76 167 *~;
#X obj 101 144 lop~ 1;
#X obj 154 44 random 100;
#X obj 152 67 * 0.01;
#X obj 152 91 *;
#X obj 37 36 r onOff;
#X obj 37 63 sel 0;
#X msg 36 90 0;
#X obj 152 -20 r randomize;
#X obj 154 13 t b;
#X connect 0 0 2 0;
#X connect 2 0 1 0;
#X connect 3 0 2 1;
#X connect 4 0 5 0;
#X connect 5 0 6 1;
#X connect 5 0 6 0;
#X connect 6 0 3 0;
#X connect 7 0 8 0;
#X connect 8 0 9 0;
#X connect 9 0 3 0;
#X connect 10 0 11 0;
#X connect 11 0 4 0;
#X restore 463 494 pd toFuzz;
#X obj 182 18 r \$0-clock;
#N canvas 710 242 450 300 toTremelo 0;
#X obj 75 -66 inlet~;
#X obj 76 167 *~;
#X obj 101 144 lop~ 1;
#X obj 154 44 random 100;
#X obj 152 67 * 0.01;
#X obj 152 91 *;
#X obj 37 36 r onOff;
#X obj 37 63 sel 0;
#X obj 155 15 t b;
#X obj 156 -9 r randomize2;
#X obj 76 208 throw~ toTremelo;
#X msg 39 92 0;
#X connect 0 0 1 0;
#X connect 1 0 10 0;
#X connect 2 0 1 1;
#X connect 3 0 4 0;
#X connect 4 0 5 1;
#X connect 4 0 5 0;
#X connect 5 0 2 0;
#X connect 6 0 7 0;
#X connect 7 0 11 0;
#X connect 8 0 3 0;
#X connect 9 0 8 0;
#X connect 11 0 2 0;
#X restore 373 499 pd toTremelo;
#N canvas 710 242 450 300 toTremelo 0;
#X obj 75 -66 inlet~;
#X obj 76 167 *~;
#X obj 101 144 lop~ 1;
#X obj 154 44 random 100;
#X obj 152 67 * 0.01;
#X obj 152 91 *;
#X obj 37 36 r onOff;
#X obj 37 63 sel 0;
#X obj 155 15 t b;
#X obj 76 208 throw~ toTremelo;
#X msg 39 92 0;
#X obj 156 -9 r randomize3;
#X connect 0 0 1 0;
#X connect 1 0 9 0;
#X connect 2 0 1 1;
#X connect 3 0 4 0;
#X connect 4 0 5 1;
#X connect 4 0 5 0;
#X connect 5 0 2 0;
#X connect 6 0 7 0;
#X connect 7 0 10 0;
#X connect 8 0 3 0;
#X connect 10 0 2 0;
#X connect 11 0 8 0;
#X restore 136 505 pd toTremelo;
#N canvas 501 222 450 300 toFuzz 0;
#X obj 75 -66 inlet~;
#X obj 76 197 throw~ toFuzz;
#X obj 76 167 *~;
#X obj 101 144 lop~ 1;
#X obj 154 44 random 100;
#X obj 152 67 * 0.01;
#X obj 152 91 *;
#X obj 37 36 r onOff;
#X obj 37 63 sel 0;
#X msg 36 90 0;
#X obj 154 13 t b;
#X obj 152 -20 r randomize2;
#X connect 0 0 2 0;
#X connect 2 0 1 0;
#X connect 3 0 2 1;
#X connect 4 0 5 0;
#X connect 5 0 6 1;
#X connect 5 0 6 0;
#X connect 6 0 3 0;
#X connect 7 0 8 0;
#X connect 8 0 9 0;
#X connect 9 0 3 0;
#X connect 10 0 4 0;
#X connect 11 0 10 0;
#X restore 60 506 pd toFuzz;
#X obj 210 372 scope drumScope;
#X obj 60 423 throw~ toVerbL;
#X obj 401 421 throw~ toVerbR;
#X obj 62 389 *~ 0.2;
#X obj 400 358 *~ 0.2;
#X obj 184 80 t f f f;
#X obj 188 341 mm_drum_mixer~;
#X obj 285 246 r \$0-detectedTempo;
#X obj 273 425 outlet~;
#X obj 186 426 outlet~;
#X connect 0 0 14 0;
#X connect 1 0 14 1;
#X connect 2 0 14 2;
#X connect 2 1 14 3;
#X connect 4 0 13 0;
#X connect 11 0 9 0;
#X connect 12 0 10 0;
#X connect 13 0 0 0;
#X connect 13 1 1 0;
#X connect 13 2 2 0;
#X connect 14 0 17 0;
#X connect 14 0 11 0;
#X connect 14 0 8 0;
#X connect 14 0 6 0;
#X connect 14 0 7 0;
#X connect 14 1 16 0;
#X connect 14 1 12 0;
#X connect 14 1 8 0;
#X connect 14 1 5 0;
#X connect 14 1 3 0;
#X connect 15 0 14 4;
#X restore 27 209 pd drums;
#N canvas 484 163 914 637 out 0;
#X obj 108 514 dac~;
#X obj 161 307 hip~ 4;
#X obj 79 307 hip~ 4;
#X obj 158 329 clip~ -1 1;
#X obj 80 329 clip~ -1 1;
#X msg 205 0 \$1 30;
#X obj 207 29 vline~;
#X obj 210 57 *~;
#X obj 162 259 *~;
#X obj 69 244 *~;
#X obj 205 -43 r audioOn;
#X obj 87 392 *~ 1;
#X obj 143 396 *~ 1;
#X obj 30 -127 inlet~;
#X obj 177 -133 inlet~;
#X connect 1 0 3 0;
#X connect 2 0 4 0;
#X connect 3 0 12 0;
#X connect 4 0 11 0;
#X connect 5 0 6 0;
#X connect 6 0 7 1;
#X connect 6 0 7 0;
#X connect 7 0 8 1;
#X connect 7 0 9 1;
#X connect 8 0 1 0;
#X connect 9 0 2 0;
#X connect 10 0 5 0;
#X connect 11 0 0 0;
#X connect 12 0 0 1;
#X connect 13 0 9 0;
#X connect 14 0 8 0;
#X restore 16 469 pd out;
#N canvas 805 219 556 476 taptempo 0;
#X obj 184 -192 r tapTempo;
#X obj 159 95 er_contAvg;
#X obj 182 -39 timer;
#X obj 182 -63 t b b;
#X obj 181 -18 t f f;
#X obj 208 26 t f f;
#X obj 235 53 sel 1;
#X obj 159 74 spigot;
#N canvas 695 279 450 300 inv 0;
#X obj 98 49 inlet;
#X obj 100 88 swap 1;
#X obj 102 115 -;
#X obj 97 145 outlet;
#X connect 0 0 1 0;
#X connect 1 0 2 0;
#X connect 1 1 2 1;
#X connect 2 0 3 0;
#X restore 193 53 pd inv;
#X obj 159 121 swap 60000;
#X obj 178 145 /;
#X obj 183 228 int;
#X obj 317 266 s \$0-detectedTempo;
#X obj 64 -84 bng 15 250 50 0 empty empty empty 17 7 0 10 -262144 -1
-1;
#X obj 181 278 s detectedTempo;
#X msg 318 235 tempo \$1;
#N canvas 695 279 450 300 inv 0;
#X obj 98 49 inlet;
#X obj 100 88 swap 1;
#X obj 102 115 -;
#X obj 97 145 outlet;
#X connect 0 0 1 0;
#X connect 1 0 2 0;
#X connect 1 1 2 1;
#X connect 2 0 3 0;
#X restore 224 -141 pd inv;
#X obj 186 -110 spigot;
#X obj 223 -172 r lockTempo;
#X msg 340 -161 0;
#X obj 358 -190 loadbang;
#X obj 78 -167 print tapTempo;
#X obj 208 3 > 5000;
#X connect 0 0 17 0;
#X connect 1 0 9 0;
#X connect 2 0 4 0;
#X connect 3 0 2 0;
#X connect 3 1 2 1;
#X connect 4 0 7 0;
#X connect 4 1 22 0;
#X connect 5 0 8 0;
#X connect 5 1 6 0;
#X connect 6 0 1 1;
#X connect 7 0 1 0;
#X connect 8 0 7 1;
#X connect 9 0 10 0;
#X connect 9 1 10 1;
#X connect 10 0 11 0;
#X connect 11 0 14 0;
#X connect 11 0 15 0;
#X connect 13 0 3 0;
#X connect 15 0 12 0;
#X connect 16 0 17 1;
#X connect 17 0 3 0;
#X connect 17 0 21 0;
#X connect 18 0 16 0;
#X connect 19 0 16 0;
#X connect 20 0 19 0;
#X connect 22 0 5 0;
#X restore 775 237 pd taptempo;
#N canvas 44 23 1440 754 fx 0;
#X obj 432 136 loadbang;
#X obj 337 76 r \$0-detectedTempo;
#X obj 479 73 r randomize;
#X obj 491 118 r randomize2;
#X obj 236 198 mm_stereoChorus;
#X obj 224 356 mm_compressor;
#X obj 350 361 mm_compressor;
#X obj 492 97 r randomize1;
#X obj 493 141 r randomize3;
#X obj 344 434 hip~ 4;
#X obj 225 432 hip~ 4;
#X obj 227 508 clip~ -1 1;
#X obj 347 515 clip~ -1 1;
#X msg 435 220 switch 1 \, threshold 95 \, ratio 1.1;
#X obj 394 308 *~ 0.6;
#X obj 340 309 *~ 0.4;
#X obj 248 283 *~ 0.6;
#X obj 224 258 *~ 0.4;
#X obj 345 476 *~ 1;
#X obj 224 467 *~ 1;
#X obj 228 559 *~ 1.2;
#X obj 351 553 *~ 1.2;
#N canvas 801 22 581 617 fuzz 0;
#N canvas 420 196 721 606 fuzz 0;
#X obj 63 -146 inlet~;
#X obj 64 162 expr~ atan($v1);
#X obj 64 131 *~;
#X obj 102 -59 t f f b;
#X obj 99 98 vline~;
#X msg 101 74 \$2 \, \$1 \$3;
#X obj 192 -118 r \$0-detectedTempo;
#X obj 191 -47 swap 60000;
#X obj 210 -21 /;
#X obj 209 3 * 4;
#X obj 102 49 pack f f f;
#X obj 125 -20 f 10;
#X obj 110 -162 random 100;
#X obj 210 115 r \$0-clock;
#X obj 207 166 sel 0;
#X msg 206 190 randomize;
#X obj 192 -69 route tempo;
#X obj 109 -212 r randomize;
#X obj 110 -187 t b;
#X obj 111 -139 * 0.01;
#X obj 110 -114 *;
#X obj 104 -85 * 100;
#X obj 209 143 mod 16;
#X obj 63 195 *~ 0.055;
#X obj 62 232 birdPan~;
#X obj 46 300 outlet~;
#X obj 163 296 outlet~;
#X connect 0 0 2 0;
#X connect 1 0 23 0;
#X connect 2 0 1 0;
#X connect 3 0 10 0;
#X connect 3 1 11 1;
#X connect 3 2 11 0;
#X connect 4 0 2 1;
#X connect 5 0 4 0;
#X connect 6 0 16 0;
#X connect 7 0 8 0;
#X connect 7 1 8 1;
#X connect 8 0 9 0;
#X connect 9 0 10 2;
#X connect 10 0 5 0;
#X connect 11 0 10 1;
#X connect 12 0 19 0;
#X connect 13 0 22 0;
#X connect 14 0 15 0;
#X connect 15 0 24 1;
#X connect 16 0 7 0;
#X connect 17 0 18 0;
#X connect 18 0 12 0;
#X connect 19 0 20 1;
#X connect 19 0 20 0;
#X connect 20 0 21 0;
#X connect 21 0 3 0;
#X connect 22 0 14 0;
#X connect 23 0 24 0;
#X connect 24 0 25 0;
#X connect 24 1 26 0;
#X restore 119 166 pd fuzz;
#X obj 148 -141 r \$0-clock;
#X obj 149 -104 == 0;
#X obj 249 0 < 5;
#X obj 119 128 *~;
#X obj 165 101 vline~;
#X obj 159 124 *~;
#X obj 259 -33 random 10;
#X obj 156 16 list;
#X msg 225 58 0 30 \, 1.5 \$1 60;
#X obj 230 -99 t f b;
#X obj 260 -76 random 2;
#X obj 260 -55 + 1;
#X obj 229 -38 * 1;
#X obj 252 27 sel 1 0;
#X msg 164 53 1 100;
#X obj 146 -61 sel 1;
#X obj 144 -27 t b b;
#X obj 228 -126 r msPerRep;
#X obj 356 -205 r \$0-timer;
#X msg 355 -148 seed \$1;
#X obj 356 -178 mod 53;
#X msg 351 -53 seed \$1;
#X obj 352 -83 mod 52;
#X obj 125 -246 inlet~;
#X obj 179 213 outlet~;
#X obj 93 216 outlet~;
#X connect 0 0 26 0;
#X connect 0 1 25 0;
#X connect 1 0 2 0;
#X connect 2 0 16 0;
#X connect 3 0 14 0;
#X connect 4 0 0 0;
#X connect 5 0 6 1;
#X connect 5 0 6 0;
#X connect 6 0 4 1;
#X connect 7 0 3 0;
#X connect 8 0 9 0;
#X connect 9 0 5 0;
#X connect 10 0 13 0;
#X connect 10 1 11 0;
#X connect 11 0 12 0;
#X connect 12 0 13 1;
#X connect 13 0 8 1;
#X connect 14 0 8 0;
#X connect 14 1 15 0;
#X connect 15 0 5 0;
#X connect 16 0 17 0;
#X connect 17 0 8 0;
#X connect 17 1 7 0;
#X connect 18 0 10 0;
#X connect 19 0 21 0;
#X connect 19 0 23 0;
#X connect 20 0 11 0;
#X connect 21 0 20 0;
#X connect 22 0 7 0;
#X connect 23 0 22 0;
#X connect 24 0 4 0;
#X restore 515 463 pd fuzz;
#N canvas 30 44 869 774 tremelo 0;
#N canvas 154 77 721 606 tremelo 0;
#X obj 47 -549 inlet~;
#X obj 52 -41 *~;
#X obj 127 -469 r \$0-detectedTempo;
#X obj 332 50 r \$0-clock;
#X obj 330 171 sel 0;
#X msg 329 195 randomize;
#X obj 125 -404 route tempo;
#X obj 332 148 mod 16;
#X obj 121 -215 osc~;
#X obj 126 -375 / 60;
#X obj 125 -312 * 1;
#X obj 122 -271 t f b;
#X msg 146 -241 0;
#X obj 159 -341 t b f;
#X floatatom 171 -371 5 0 0 0 - - -;
#X obj 238 -440 r \$0-clock;
#X obj 237 -415 mod 32;
#X obj 237 -391 sel 0;
#X obj 121 -191 +~ 1;
#X obj 120 -167 *~ 0.5;
#X obj 119 -77 pow~ 2;
#X obj 181 -108 sig~;
#X obj 182 -283 r \$0-clock;
#X obj 181 -206 mod 32;
#X obj 181 -177 sel 0;
#X obj 180 -157 random 8;
#X obj 180 -132 + 1;
#X obj 237 -368 random 8;
#X obj 237 -343 + 1;
#X obj 52 -7 *~ 1.2;
#X obj 57 316 birdPan~;
#X obj 103 411 outlet~;
#X obj 55 441 outlet~;
#X obj 367 86 r ticksPerMeasure;
#X obj 270 -252 r ticksPerMeasure;
#X obj 272 -222 * 2;
#X obj 336 -491 r ticksPerMeasure;
#X obj 338 -461 * 2;
#X connect 0 0 1 0;
#X connect 1 0 29 0;
#X connect 2 0 6 0;
#X connect 3 0 7 0;
#X connect 4 0 5 0;
#X connect 5 0 30 1;
#X connect 6 0 9 0;
#X connect 7 0 4 0;
#X connect 8 0 18 0;
#X connect 9 0 10 0;
#X connect 10 0 11 0;
#X connect 11 0 8 0;
#X connect 11 1 12 0;
#X connect 12 0 8 1;
#X connect 13 0 10 0;
#X connect 13 1 10 1;
#X connect 14 0 13 0;
#X connect 15 0 16 0;
#X connect 16 0 17 0;
#X connect 17 0 27 0;
#X connect 18 0 19 0;
#X connect 19 0 20 0;
#X connect 20 0 1 1;
#X connect 21 0 20 1;
#X connect 22 0 23 0;
#X connect 23 0 24 0;
#X connect 24 0 25 0;
#X connect 25 0 26 0;
#X connect 26 0 21 0;
#X connect 27 0 28 0;
#X connect 28 0 13 0;
#X connect 29 0 30 0;
#X connect 30 0 32 0;
#X connect 30 1 31 0;
#X connect 33 0 7 1;
#X connect 34 0 35 0;
#X connect 35 0 23 1;
#X connect 36 0 37 0;
#X connect 37 0 16 1;
#X restore -131 515 pd tremelo;
#X obj -104 184 r \$0-clock;
#X obj -104 211 == 0;
#X obj -4 315 < 5;
#X obj -134 443 *~;
#X obj -88 416 vline~;
#X obj -94 439 *~;
#X obj 13 293 random 10;
#X obj -49 331 list;
#X msg -20 377 0 30 \, 1.5 \$1 60;
#X obj -50 291 bng 15 250 50 0 empty empty empty 17 7 0 10 -262144
-1 -1;
#X obj -23 152 t f b;
#X obj 7 195 random 2;
#X obj 7 227 + 1;
#X obj -24 288 * 1;
#X obj -5 338 sel 1 0;
#X msg -88 371 1 100;
#X obj -105 235 sel 1;
#X obj -96 261 t b b;
#X obj 115 66 r \$0-timer;
#X msg 114 123 seed \$1;
#X msg 110 218 seed \$1;
#X obj 115 93 mod 50;
#X obj 111 188 mod 51;
#X obj -21 122 r msPerRep;
#X obj -117 102 inlet~;
#X obj -73 592 outlet~;
#X obj -124 636 outlet~;
#X connect 0 0 27 0;
#X connect 0 1 26 0;
#X connect 1 0 2 0;
#X connect 2 0 17 0;
#X connect 3 0 15 0;
#X connect 4 0 0 0;
#X connect 5 0 6 1;
#X connect 5 0 6 0;
#X connect 6 0 4 1;
#X connect 7 0 3 0;
#X connect 8 0 9 0;
#X connect 9 0 5 0;
#X connect 10 0 8 0;
#X connect 11 0 14 0;
#X connect 11 1 12 0;
#X connect 12 0 13 0;
#X connect 13 0 14 1;
#X connect 14 0 8 1;
#X connect 15 0 8 0;
#X connect 15 1 16 0;
#X connect 16 0 5 0;
#X connect 17 0 18 0;
#X connect 18 0 10 0;
#X connect 18 1 7 0;
#X connect 19 0 22 0;
#X connect 19 0 23 0;
#X connect 20 0 12 0;
#X connect 21 0 7 0;
#X connect 22 0 20 0;
#X connect 23 0 21 0;
#X connect 24 0 11 0;
#X connect 25 0 4 0;
#X restore 610 465 pd tremelo;
#X obj 514 431 catch~ toFuzz;
#X obj 609 430 catch~ toTremelo;
#X obj 241 -44 inlet~;
#X obj 329 -43 inlet~;
#X obj 233 699 outlet~;
#X obj 441 702 outlet~;
#N canvas 819 298 450 300 verb 0;
#N canvas 92 310 634 321 vfreeverb~ 0;
#N canvas 261 41 778 367 combfilters-left1 0;
#X obj 46 244 +~;
#X obj 61 219 *~ 0.3;
#X obj 61 194 lop~ 1000;
#X obj 231 244 +~;
#X obj 246 219 *~ 0.3;
#X obj 246 194 lop~ 1000;
#X obj 429 218 *~ 0.3;
#X obj 429 193 lop~ 1000;
#X obj 414 241 +~;
#X obj 610 218 *~ 0.3;
#X obj 610 193 lop~ 1000;
#X obj 595 241 +~;
#X obj 61 141 delread~ \$0-comb1left;
#X obj 246 142 delread~ \$0-comb2left;
#X obj 429 141 delread~ \$0-comb3left;
#X obj 610 141 delread~ \$0-comb4left;
#X obj 46 268 delwrite~ \$0-comb1left 100;
#X obj 231 268 delwrite~ \$0-comb2left 100;
#X obj 414 267 delwrite~ \$0-comb3left 100;
#X obj 595 267 delwrite~ \$0-comb4left 100;
#X obj 61 97 r \$0-comb1left;
#X obj 246 97 r \$0-comb2left;
#X obj 429 95 r \$0-comb3left;
#X obj 610 96 r \$0-comb4left;
#X obj 112 170 r \$0-frequency;
#X obj 297 170 r \$0-frequency;
#X obj 480 167 r \$0-frequency;
#X obj 661 167 r \$0-frequency;
#X obj 46 28 inlet~;
#X obj 338 326 outlet~;
#X floatatom 70 119 5 0 0 0 - - -;
#X floatatom 255 121 5 0 0 0 - - -;
#X floatatom 439 119 5 0 0 0 - - -;
#X floatatom 622 121 5 0 0 0 - - -;
#X obj 279 58 clip 0 0.99;
#X obj 279 29 r \$0-room;
#X connect 0 0 16 0;
#X connect 1 0 0 1;
#X connect 2 0 1 0;
#X connect 2 0 29 0;
#X connect 3 0 17 0;
#X connect 4 0 3 1;
#X connect 5 0 4 0;
#X connect 5 0 29 0;
#X connect 6 0 8 1;
#X connect 7 0 6 0;
#X connect 7 0 29 0;
#X connect 8 0 18 0;
#X connect 9 0 11 1;
#X connect 10 0 9 0;
#X connect 10 0 29 0;
#X connect 11 0 19 0;
#X connect 12 0 2 0;
#X connect 13 0 5 0;
#X connect 14 0 7 0;
#X connect 15 0 10 0;
#X connect 20 0 12 0;
#X connect 20 0 30 0;
#X connect 21 0 13 0;
#X connect 21 0 31 0;
#X connect 22 0 14 0;
#X connect 22 0 32 0;
#X connect 23 0 15 0;
#X connect 23 0 33 0;
#X connect 24 0 2 1;
#X connect 25 0 5 1;
#X connect 26 0 7 1;
#X connect 27 0 10 1;
#X connect 28 0 0 0;
#X connect 28 0 3 0;
#X connect 28 0 8 0;
#X connect 28 0 11 0;
#X connect 34 0 1 1;
#X connect 34 0 4 1;
#X connect 34 0 6 1;
#X connect 34 0 9 1;
#X connect 35 0 34 0;
#X restore 15 100 pd combfilters-left1;
#N canvas 27 56 358 650 diffusor-left 0;
#X obj 51 107 *~ 0.5;
#X obj 36 132 +~;
#X obj 66 132 -~;
#X obj 36 26 inlet~;
#X obj 81 238 *~ 0.5;
#X obj 66 263 +~;
#X obj 96 263 -~;
#X obj 111 368 *~ 0.5;
#X obj 96 393 +~;
#X obj 126 393 -~;
#X obj 141 498 *~ 0.5;
#X obj 126 523 +~;
#X obj 156 523 -~;
#X obj 156 605 outlet~;
#X text 95 28 freeverb's diffusor;
#X obj 156 576 hip~ 5;
#X floatatom 214 70 5 0 0 0 - - -;
#X floatatom 246 203 5 0 0 0 - - -;
#X floatatom 280 334 5 0 0 0 - - -;
#X floatatom 304 464 5 0 0 0 - - -;
#X obj 51 53 r \$0-allpass1left;
#X obj 51 80 delread~ \$0-allpass1left;
#X obj 36 158 delwrite~ \$0-allpass1left 40;
#X obj 81 186 r \$0-allpass2left;
#X obj 81 211 delread~ \$0-allpass2left;
#X obj 66 290 delwrite~ \$0-allpass2left 40;
#X obj 111 317 r \$0-allpass3left;
#X obj 111 341 delread~ \$0-allpass3left;
#X obj 96 420 delwrite~ \$0-allpass3left 40;
#X obj 141 447 r \$0-allpass4left;
#X obj 141 471 delread~ \$0-allpass4left;
#X obj 126 550 delwrite~ \$0-allpass4left 40;
#X connect 0 0 1 1;
#X connect 1 0 22 0;
#X connect 2 0 5 0;
#X connect 2 0 6 1;
#X connect 3 0 1 0;
#X connect 3 0 2 1;
#X connect 4 0 5 1;
#X connect 5 0 25 0;
#X connect 6 0 8 0;
#X connect 6 0 9 1;
#X connect 7 0 8 1;
#X connect 8 0 28 0;
#X connect 9 0 11 0;
#X connect 9 0 12 1;
#X connect 10 0 11 1;
#X connect 11 0 31 0;
#X connect 12 0 15 0;
#X connect 15 0 13 0;
#X connect 20 0 16 0;
#X connect 20 0 21 0;
#X connect 21 0 0 0;
#X connect 21 0 2 0;
#X connect 23 0 17 0;
#X connect 23 0 24 0;
#X connect 24 0 4 0;
#X connect 24 0 6 0;
#X connect 26 0 18 0;
#X connect 26 0 27 0;
#X connect 27 0 7 0;
#X connect 27 0 9 0;
#X connect 29 0 19 0;
#X connect 29 0 30 0;
#X connect 30 0 10 0;
#X connect 30 0 12 0;
#X restore 15 168 pd diffusor-left;
#N canvas 312 366 778 367 combfilters-left2 0;
#X obj 46 244 +~;
#X obj 61 219 *~ 0.3;
#X obj 61 194 lop~ 1000;
#X obj 231 244 +~;
#X obj 246 219 *~ 0.3;
#X obj 246 194 lop~ 1000;
#X obj 429 218 *~ 0.3;
#X obj 429 193 lop~ 1000;
#X obj 414 241 +~;
#X obj 610 218 *~ 0.3;
#X obj 610 193 lop~ 1000;
#X obj 595 241 +~;
#X obj 112 170 r \$0-frequency;
#X obj 297 170 r \$0-frequency;
#X obj 480 167 r \$0-frequency;
#X obj 661 167 r \$0-frequency;
#X obj 46 28 inlet~;
#X obj 338 326 outlet~;
#X obj 61 90 r \$0-comb5left;
#X obj 61 141 delread~ \$0-comb5left;
#X obj 46 268 delwrite~ \$0-comb5left 100;
#X obj 246 90 r \$0-comb6left;
#X obj 246 142 delread~ \$0-comb6left;
#X obj 231 268 delwrite~ \$0-comb6left 100;
#X obj 429 88 r \$0-comb7left;
#X obj 429 141 delread~ \$0-comb7left;
#X obj 414 267 delwrite~ \$0-comb7left 100;
#X obj 610 89 r \$0-comb8left;
#X obj 610 141 delread~ \$0-comb8left;
#X obj 595 267 delwrite~ \$0-comb8left 100;
#X floatatom 70 116 5 0 0 0 - - -;
#X floatatom 261 118 5 0 0 0 - - -;
#X floatatom 440 117 5 0 0 0 - - -;
#X floatatom 620 116 5 0 0 0 - - -;
#X obj 279 58 clip 0 0.99;
#X obj 279 28 r \$0-room;
#X connect 0 0 20 0;
#X connect 1 0 0 1;
#X connect 2 0 1 0;
#X connect 2 0 17 0;
#X connect 3 0 23 0;
#X connect 4 0 3 1;
#X connect 5 0 4 0;
#X connect 5 0 17 0;
#X connect 6 0 8 1;
#X connect 7 0 6 0;
#X connect 7 0 17 0;
#X connect 8 0 26 0;
#X connect 9 0 11 1;
#X connect 10 0 9 0;
#X connect 10 0 17 0;
#X connect 11 0 29 0;
#X connect 12 0 2 1;
#X connect 13 0 5 1;
#X connect 14 0 7 1;
#X connect 15 0 10 1;
#X connect 16 0 0 0;
#X connect 16 0 3 0;
#X connect 16 0 8 0;
#X connect 16 0 11 0;
#X connect 18 0 19 0;
#X connect 18 0 30 0;
#X connect 19 0 2 0;
#X connect 21 0 22 0;
#X connect 21 0 31 0;
#X connect 22 0 5 0;
#X connect 24 0 25 0;
#X connect 24 0 32 0;
#X connect 25 0 7 0;
#X connect 27 0 28 0;
#X connect 27 0 33 0;
#X connect 28 0 10 0;
#X connect 34 0 1 1;
#X connect 34 0 4 1;
#X connect 34 0 6 1;
#X connect 34 0 9 1;
#X connect 35 0 34 0;
#X restore 36 134 pd combfilters-left2;
#N canvas 261 41 778 367 combfilters-right1 0;
#X obj 46 244 +~;
#X obj 61 219 *~ 0.3;
#X obj 61 194 lop~ 1000;
#X obj 231 244 +~;
#X obj 246 219 *~ 0.3;
#X obj 246 194 lop~ 1000;
#X obj 429 218 *~ 0.3;
#X obj 429 193 lop~ 1000;
#X obj 414 241 +~;
#X obj 610 218 *~ 0.3;
#X obj 610 193 lop~ 1000;
#X obj 595 241 +~;
#X obj 112 170 r \$0-frequency;
#X obj 297 170 r \$0-frequency;
#X obj 480 167 r \$0-frequency;
#X obj 661 167 r \$0-frequency;
#X obj 46 28 inlet~;
#X obj 338 326 outlet~;
#X floatatom 70 119 5 0 0 0 - - -;
#X floatatom 255 121 5 0 0 0 - - -;
#X floatatom 439 119 5 0 0 0 - - -;
#X floatatom 622 121 5 0 0 0 - - -;
#X obj 61 141 delread~ \$0-comb1right;
#X obj 246 142 delread~ \$0-comb2right;
#X obj 429 141 delread~ \$0-comb3right;
#X obj 610 141 delread~ \$0-comb4right;
#X obj 61 97 r \$0-comb1right;
#X obj 246 97 r \$0-comb2right;
#X obj 429 95 r \$0-comb3right;
#X obj 610 97 r \$0-comb4right;
#X obj 46 268 delwrite~ \$0-comb1right 100;
#X obj 231 268 delwrite~ \$0-comb2right 100;
#X obj 414 267 delwrite~ \$0-comb3right 100;
#X obj 595 267 delwrite~ \$0-comb4right 100;
#X obj 279 58 clip 0 0.99;
#X obj 279 28 r \$0-room;
#X connect 0 0 30 0;
#X connect 1 0 0 1;
#X connect 2 0 1 0;
#X connect 2 0 17 0;
#X connect 3 0 31 0;
#X connect 4 0 3 1;
#X connect 5 0 4 0;
#X connect 5 0 17 0;
#X connect 6 0 8 1;
#X connect 7 0 6 0;
#X connect 7 0 17 0;
#X connect 8 0 32 0;
#X connect 9 0 11 1;
#X connect 10 0 9 0;
#X connect 10 0 17 0;
#X connect 11 0 33 0;
#X connect 12 0 2 1;
#X connect 13 0 5 1;
#X connect 14 0 7 1;
#X connect 15 0 10 1;
#X connect 16 0 0 0;
#X connect 16 0 3 0;
#X connect 16 0 8 0;
#X connect 16 0 11 0;
#X connect 22 0 2 0;
#X connect 23 0 5 0;
#X connect 24 0 7 0;
#X connect 25 0 10 0;
#X connect 26 0 18 0;
#X connect 26 0 22 0;
#X connect 27 0 19 0;
#X connect 27 0 23 0;
#X connect 28 0 20 0;
#X connect 28 0 24 0;
#X connect 29 0 21 0;
#X connect 29 0 25 0;
#X connect 34 0 1 1;
#X connect 34 0 4 1;
#X connect 34 0 6 1;
#X connect 34 0 9 1;
#X connect 35 0 34 0;
#X restore 208 99 pd combfilters-right1;
#N canvas 312 366 778 367 combfilters-right2 0;
#X obj 46 244 +~;
#X obj 61 219 *~ 0.3;
#X obj 61 194 lop~ 1000;
#X obj 231 244 +~;
#X obj 246 219 *~ 0.3;
#X obj 246 194 lop~ 1000;
#X obj 429 218 *~ 0.3;
#X obj 429 193 lop~ 1000;
#X obj 414 241 +~;
#X obj 610 218 *~ 0.3;
#X obj 610 193 lop~ 1000;
#X obj 595 241 +~;
#X obj 112 170 r \$0-frequency;
#X obj 297 170 r \$0-frequency;
#X obj 480 167 r \$0-frequency;
#X obj 661 167 r \$0-frequency;
#X obj 46 28 inlet~;
#X obj 338 326 outlet~;
#X floatatom 70 116 5 0 0 0 - - -;
#X floatatom 261 118 5 0 0 0 - - -;
#X floatatom 440 117 5 0 0 0 - - -;
#X floatatom 620 116 5 0 0 0 - - -;
#X obj 279 58 clip 0 0.99;
#X obj 61 90 r \$0-comb5right;
#X obj 246 90 r \$0-comb6right;
#X obj 429 88 r \$0-comb7right;
#X obj 610 89 r \$0-comb8right;
#X obj 61 141 delread~ \$0-comb5right;
#X obj 246 142 delread~ \$0-comb6right;
#X obj 429 141 delread~ \$0-comb7right;
#X obj 610 141 delread~ \$0-comb8right;
#X obj 46 268 delwrite~ \$0-comb5right 100;
#X obj 231 268 delwrite~ \$0-comb6right 100;
#X obj 414 267 delwrite~ \$0-comb7right 100;
#X obj 595 267 delwrite~ \$0-comb8right 100;
#X obj 279 28 r \$0-room;
#X connect 0 0 31 0;
#X connect 1 0 0 1;
#X connect 2 0 1 0;
#X connect 2 0 17 0;
#X connect 3 0 32 0;
#X connect 4 0 3 1;
#X connect 5 0 4 0;
#X connect 5 0 17 0;
#X connect 6 0 8 1;
#X connect 7 0 6 0;
#X connect 7 0 17 0;
#X connect 8 0 33 0;
#X connect 9 0 11 1;
#X connect 10 0 9 0;
#X connect 10 0 17 0;
#X connect 11 0 34 0;
#X connect 12 0 2 1;
#X connect 13 0 5 1;
#X connect 14 0 7 1;
#X connect 15 0 10 1;
#X connect 16 0 0 0;
#X connect 16 0 3 0;
#X connect 16 0 8 0;
#X connect 16 0 11 0;
#X connect 22 0 1 1;
#X connect 22 0 4 1;
#X connect 22 0 6 1;
#X connect 22 0 9 1;
#X connect 23 0 18 0;
#X connect 23 0 27 0;
#X connect 24 0 19 0;
#X connect 24 0 28 0;
#X connect 25 0 20 0;
#X connect 25 0 29 0;
#X connect 26 0 21 0;
#X connect 26 0 30 0;
#X connect 27 0 2 0;
#X connect 28 0 5 0;
#X connect 29 0 7 0;
#X connect 30 0 10 0;
#X connect 35 0 22 0;
#X restore 225 133 pd combfilters-right2;
#N canvas 27 56 358 650 diffusor-right 0;
#X obj 51 107 *~ 0.5;
#X obj 36 132 +~;
#X obj 66 132 -~;
#X obj 36 26 inlet~;
#X obj 81 238 *~ 0.5;
#X obj 66 263 +~;
#X obj 96 263 -~;
#X obj 111 368 *~ 0.5;
#X obj 96 393 +~;
#X obj 126 393 -~;
#X obj 141 498 *~ 0.5;
#X obj 126 523 +~;
#X obj 156 523 -~;
#X obj 156 605 outlet~;
#X text 95 28 freeverb's diffusor;
#X obj 156 576 hip~ 5;
#X floatatom 214 70 5 0 0 0 - - -;
#X floatatom 244 203 5 0 0 0 - - -;
#X floatatom 280 334 5 0 0 0 - - -;
#X floatatom 304 464 5 0 0 0 - - -;
#X obj 51 53 r \$0-allpass1right;
#X obj 51 80 delread~ \$0-allpass1right;
#X obj 36 158 delwrite~ \$0-allpass1right 40;
#X obj 81 186 r \$0-allpass2right;
#X obj 81 211 delread~ \$0-allpass2right;
#X obj 66 290 delwrite~ \$0-allpass2right 40;
#X obj 111 317 r \$0-allpass3right;
#X obj 111 341 delread~ \$0-allpass3right;
#X obj 96 420 delwrite~ \$0-allpass3right 40;
#X obj 141 447 r \$0-allpass4right;
#X obj 141 471 delread~ \$0-allpass4right;
#X obj 126 550 delwrite~ \$0-allpass4right 40;
#X connect 0 0 1 1;
#X connect 1 0 22 0;
#X connect 2 0 5 0;
#X connect 2 0 6 1;
#X connect 3 0 1 0;
#X connect 3 0 2 1;
#X connect 4 0 5 1;
#X connect 5 0 25 0;
#X connect 6 0 8 0;
#X connect 6 0 9 1;
#X connect 7 0 8 1;
#X connect 8 0 28 0;
#X connect 9 0 11 0;
#X connect 9 0 12 1;
#X connect 10 0 11 1;
#X connect 11 0 31 0;
#X connect 12 0 15 0;
#X connect 15 0 13 0;
#X connect 20 0 16 0;
#X connect 20 0 21 0;
#X connect 21 0 0 0;
#X connect 21 0 2 0;
#X connect 23 0 17 0;
#X connect 23 0 24 0;
#X connect 24 0 4 0;
#X connect 24 0 6 0;
#X connect 26 0 18 0;
#X connect 26 0 27 0;
#X connect 27 0 7 0;
#X connect 27 0 9 0;
#X connect 29 0 19 0;
#X connect 29 0 30 0;
#X connect 30 0 10 0;
#X connect 30 0 12 0;
#X restore 208 169 pd diffusor-right;
#X obj 208 61 *~ 0.015;
#X obj 15 226 *~ 1;
#X obj 208 228 *~ 1;
#X obj 94 228 *~ 1;
#X obj 169 228 *~ 1;
#X obj 115 202 r \$0-dry;
#X obj 229 203 r \$0-wet;
#X obj 36 201 r \$0-wet;
#X obj 94 14 inlet~;
#X obj 208 14 inlet~;
#X obj 15 268 outlet~;
#X obj 169 269 outlet~;
#X obj 312 14 inlet;
#X obj 374 14 inlet;
#X obj 462 14 inlet;
#X obj 544 16 inlet;
#N canvas 0 22 207 207 room 0;
#X obj 32 35 inlet;
#X obj 32 63 * 0.28;
#X obj 32 94 + 0.7;
#X obj 32 160 outlet;
#X text 80 65 scaleroom;
#X text 76 94 offsetroom;
#X obj 47 126 s \$0-room;
#X connect 0 0 1 0;
#X connect 1 0 2 0;
#X connect 2 0 3 0;
#X connect 2 0 6 0;
#X restore 312 45 pd room;
#N canvas 684 169 244 376 frequency 0;
#X obj 60 222 samplerate~;
#X obj 33 8 inlet;
#X obj 33 194 t f b;
#X obj 33 249 *;
#X obj 53 303 s \$0-frequency;
#X obj 33 327 outlet;
#X obj 33 64 * 0.4;
#X text 76 66 scaledamp;
#X obj 33 90 t b f;
#X obj 33 141 -;
#X msg 33 116 1;
#X obj 33 168 abs;
#X obj 33 275 * 0.5;
#X text 153 303 for [lop~];
#X obj 33 38 clip 0 2.4;
#X connect 0 0 3 1;
#X connect 1 0 14 0;
#X connect 2 0 3 0;
#X connect 2 1 0 0;
#X connect 3 0 12 0;
#X connect 6 0 8 0;
#X connect 8 0 10 0;
#X connect 8 1 9 1;
#X connect 9 0 11 0;
#X connect 10 0 9 0;
#X connect 11 0 2 0;
#X connect 12 0 5 0;
#X connect 12 0 4 0;
#X connect 14 0 6 0;
#X restore 374 45 pd frequency;
#N canvas 0 22 170 187 scalewet 0;
#X obj 22 42 inlet;
#X obj 22 143 outlet;
#X obj 22 73 * 3;
#X text 49 74 scalewet;
#X obj 40 112 s \$0-wet;
#X connect 0 0 2 0;
#X connect 2 0 1 0;
#X connect 2 0 4 0;
#X restore 544 45 pd scalewet;
#N canvas 0 22 220 198 scaledry 0;
#X obj 32 74 * 2;
#X obj 32 40 inlet;
#X obj 32 141 outlet;
#X text 58 75 scaledry;
#X obj 41 105 s \$0-dry;
#X connect 0 0 2 0;
#X connect 0 0 4 0;
#X connect 1 0 0 0;
#X restore 462 45 pd scaledry;
#X floatatom 312 70 5 0 0 0 - - -;
#X floatatom 374 70 10 0 0 0 - - -;
#X floatatom 462 69 5 0 0 0 - - -;
#X floatatom 544 69 5 0 0 0 - - -;
#N canvas 405 27 635 684 tuning 0;
#X msg 332 81 1139 \, 1211 \, 1300 \, 1379 \, 1445 \, 1514 \, 1580
\, 1640;
#X text 72 57 combfilter tunings left;
#X text 377 56 combfilter tunings right;
#X text 71 360 allpass tunings left;
#X text 383 355 allpass tunings right;
#N canvas 243 170 195 233 sampstoms 0;
#X obj 27 21 inlet;
#X obj 54 86 samplerate~;
#X obj 27 111 /;
#X obj 27 57 t f b;
#X obj 27 136 * 1000;
#X obj 27 162 outlet;
#X connect 0 0 3 0;
#X connect 1 0 2 1;
#X connect 2 0 4 0;
#X connect 3 0 2 0;
#X connect 3 1 1 0;
#X connect 4 0 5 0;
#X restore 30 107 pd sampstoms;
#X msg 30 82 1116 \, 1188 \, 1277 \, 1356 \, 1422 \, 1491 \, 1557 \,
1617;
#X obj 57 188 +;
#X msg 57 159 1;
#X obj 30 135 t f b;
#X obj 87 188 f;
#X obj 30 56 t b b;
#X msg 87 159 0;
#X obj 57 212 pack f \$0;
#X msg 57 238 \$2-comb\$1left;
#X obj 30 282 s;
#X obj 57 265 symbol;
#N canvas 0 22 195 233 sampstoms 0;
#X obj 27 21 inlet;
#X obj 54 86 samplerate~;
#X obj 27 111 /;
#X obj 27 57 t f b;
#X obj 27 136 * 1000;
#X obj 27 162 outlet;
#X connect 0 0 3 0;
#X connect 1 0 2 1;
#X connect 2 0 4 0;
#X connect 3 0 2 0;
#X connect 3 1 1 0;
#X connect 4 0 5 0;
#X restore 332 107 pd sampstoms;
#X obj 359 188 +;
#X msg 359 159 1;
#X obj 332 135 t f b;
#X obj 389 188 f;
#X msg 389 159 0;
#X obj 359 212 pack f \$0;
#X obj 332 282 s;
#X obj 359 265 symbol;
#X obj 332 56 t b b;
#X msg 359 238 \$2-comb\$1right;
#X obj 30 360 t b b;
#N canvas 0 22 195 233 sampstoms 0;
#X obj 27 21 inlet;
#X obj 54 86 samplerate~;
#X obj 27 111 /;
#X obj 27 57 t f b;
#X obj 27 136 * 1000;
#X obj 27 162 outlet;
#X connect 0 0 3 0;
#X connect 1 0 2 1;
#X connect 2 0 4 0;
#X connect 3 0 2 0;
#X connect 3 1 1 0;
#X connect 4 0 5 0;
#X restore 30 411 pd sampstoms;
#X obj 57 492 +;
#X msg 57 463 1;
#X obj 30 439 t f b;
#X obj 87 492 f;
#X msg 87 463 0;
#X obj 57 516 pack f \$0;
#X obj 30 586 s;
#X obj 57 569 symbol;
#X obj 334 356 t b b;
#N canvas 0 22 195 233 sampstoms 0;
#X obj 27 21 inlet;
#X obj 54 86 samplerate~;
#X obj 27 111 /;
#X obj 27 57 t f b;
#X obj 27 136 * 1000;
#X obj 27 162 outlet;
#X connect 0 0 3 0;
#X connect 1 0 2 1;
#X connect 2 0 4 0;
#X connect 3 0 2 0;
#X connect 3 1 1 0;
#X connect 4 0 5 0;
#X restore 334 407 pd sampstoms;
#X obj 361 488 +;
#X msg 361 459 1;
#X obj 334 435 t f b;
#X obj 391 488 f;
#X msg 391 459 0;
#X obj 361 512 pack f \$0;
#X obj 334 582 s;
#X obj 361 565 symbol;
#X obj 30 22 loadbang;
#X obj 332 27 loadbang;
#X obj 30 334 loadbang;
#X obj 334 331 loadbang;
#X obj 268 41 bng 15 250 50 0 empty empty empty 17 7 0 10 -262144 -1
-1;
#X msg 30 386 225 \, 556 \, 441 \, 341;
#X msg 334 380 248 \, 579 \, 464 \, 364;
#X msg 57 542 \$2-allpass\$1left;
#X msg 361 539 \$2-allpass\$1right;
#X text 27 624 Original Freeverb delay line lengths are converted to
milliseconds \, based on samplerate.;
#X connect 0 0 17 0;
#X connect 5 0 9 0;
#X connect 6 0 5 0;
#X connect 7 0 10 0;
#X connect 7 0 13 0;
#X connect 8 0 7 0;
#X connect 9 0 15 0;
#X connect 9 1 8 0;
#X connect 10 0 7 1;
#X connect 11 0 6 0;
#X connect 11 1 12 0;
#X connect 12 0 10 0;
#X connect 13 0 14 0;
#X connect 14 0 16 0;
#X connect 16 0 15 1;
#X connect 17 0 20 0;
#X connect 18 0 21 0;
#X connect 18 0 23 0;
#X connect 19 0 18 0;
#X connect 20 0 24 0;
#X connect 20 1 19 0;
#X connect 21 0 18 1;
#X connect 22 0 21 0;
#X connect 23 0 27 0;
#X connect 25 0 24 1;
#X connect 26 0 0 0;
#X connect 26 1 22 0;
#X connect 27 0 25 0;
#X connect 28 0 53 0;
#X connect 28 1 34 0;
#X connect 29 0 32 0;
#X connect 30 0 33 0;
#X connect 30 0 35 0;
#X connect 31 0 30 0;
#X connect 32 0 36 0;
#X connect 32 1 31 0;
#X connect 33 0 30 1;
#X connect 34 0 33 0;
#X connect 35 0 55 0;
#X connect 37 0 36 1;
#X connect 38 0 54 0;
#X connect 38 1 44 0;
#X connect 39 0 42 0;
#X connect 40 0 43 0;
#X connect 40 0 45 0;
#X connect 41 0 40 0;
#X connect 42 0 46 0;
#X connect 42 1 41 0;
#X connect 43 0 40 1;
#X connect 44 0 43 0;
#X connect 45 0 56 0;
#X connect 47 0 46 1;
#X connect 48 0 11 0;
#X connect 49 0 26 0;
#X connect 50 0 28 0;
#X connect 51 0 38 0;
#X connect 52 0 11 0;
#X connect 52 0 28 0;
#X connect 52 0 26 0;
#X connect 52 0 38 0;
#X connect 53 0 29 0;
#X connect 54 0 39 0;
#X connect 55 0 37 0;
#X connect 56 0 47 0;
#X restore 410 141 pd tuning;
#X connect 0 0 1 0;
#X connect 1 0 7 0;
#X connect 2 0 1 0;
#X connect 3 0 5 0;
#X connect 4 0 5 0;
#X connect 5 0 8 0;
#X connect 6 0 3 0;
#X connect 6 0 0 0;
#X connect 6 0 4 0;
#X connect 6 0 2 0;
#X connect 7 0 16 0;
#X connect 8 0 17 0;
#X connect 9 0 16 0;
#X connect 10 0 17 0;
#X connect 11 0 10 1;
#X connect 11 0 9 1;
#X connect 12 0 8 1;
#X connect 13 0 7 1;
#X connect 14 0 6 0;
#X connect 14 0 9 0;
#X connect 15 0 6 0;
#X connect 15 0 10 0;
#X connect 18 0 22 0;
#X connect 19 0 23 0;
#X connect 20 0 25 0;
#X connect 21 0 24 0;
#X connect 22 0 26 0;
#X connect 23 0 27 0;
#X connect 24 0 29 0;
#X connect 25 0 28 0;
#X restore 9 173 pd vfreeverb~;
#X obj 89 7 loadbang;
#X msg 81 85 0.4;
#X msg 94 108 0.7;
#X msg 109 130 0;
#X msg 118 156 1;
#X obj 52 61 inlet~;
#X obj -5 65 inlet~;
#X obj 86 210 outlet~;
#X obj 9 215 outlet~;
#X connect 0 0 9 0;
#X connect 0 1 8 0;
#X connect 1 0 2 0;
#X connect 1 0 3 0;
#X connect 1 0 4 0;
#X connect 1 0 5 0;
#X connect 2 0 0 2;
#X connect 3 0 0 3;
#X connect 4 0 0 4;
#X connect 5 0 0 5;
#X connect 6 0 0 1;
#X connect 7 0 0 0;
#X restore 746 461 pd verb;
#X obj 743 426 catch~ toVerbL;
#X obj 849 425 catch~ toVerbR;
#X connect 0 0 13 0;
#X connect 1 0 4 2;
#X connect 2 0 4 2;
#X connect 3 0 4 2;
#X connect 4 0 17 0;
#X connect 4 1 15 0;
#X connect 5 0 10 0;
#X connect 6 0 9 0;
#X connect 7 0 4 2;
#X connect 8 0 4 2;
#X connect 9 0 18 0;
#X connect 10 0 19 0;
#X connect 11 0 20 0;
#X connect 12 0 21 0;
#X connect 13 0 5 1;
#X connect 13 0 6 1;
#X connect 14 0 6 0;
#X connect 15 0 6 0;
#X connect 16 0 5 0;
#X connect 17 0 5 0;
#X connect 18 0 12 0;
#X connect 19 0 11 0;
#X connect 20 0 28 0;
#X connect 21 0 29 0;
#X connect 22 0 28 0;
#X connect 22 1 29 0;
#X connect 23 0 28 0;
#X connect 23 1 29 0;
#X connect 24 0 22 0;
#X connect 25 0 23 0;
#X connect 26 0 4 0;
#X connect 26 0 16 0;
#X connect 26 0 10 0;
#X connect 27 0 4 1;
#X connect 27 0 14 0;
#X connect 27 0 9 0;
#X connect 30 0 28 0;
#X connect 30 1 29 0;
#X connect 31 0 30 0;
#X connect 32 0 30 1;
#X restore 16 423 pd fx;
#N canvas 72 103 1429 845 bass 0;
#X obj 446 1279 throw~ outputL;
#X obj 544 1278 throw~ outputR;
#X obj 849 366 r randomize3;
#X obj 837 458 mm_rlist 7;
#X obj 837 482 list prepend randomlist;
#X obj 836 504 list trim;
#X obj 837 405 bng 15 250 50 0 empty empty empty 17 7 0 10 -262144
-1 -1;
#X obj 834 434 t b b b;
#X obj 827 340 r randomize1;
#X obj 939 312 r \$0-timer;
#X msg 941 409 seed \$1;
#X obj 940 387 mod 140;
#X obj 866 571 list;
#X obj 864 599 list trim;
#X obj 841 531 route randomlist;
#X obj 508 645 mm_bassosc3~;
#X obj 516 914 mm_asr~;
#X obj 557 745 r randomize1;
#X obj 556 770 t b;
#N canvas 11 22 1440 806 wobble 0;
#X obj 130 51 inlet~;
#X obj 126 697 outlet~;
#N canvas 28 234 1440 748 low 0;
#X obj 798 504 outlet~;
#X obj 821 343 clip~ 0 1;
#X obj 1169 -167 inlet;
#X obj 899 -192 inlet;
#X obj 816 -198 inlet;
#X text 793 -220 beat division;
#X text 899 -214 tempo;
#X text 1165 -189 exponent;
#N canvas 70 149 1320 734 div 0;
#X obj 487 39 inlet;
#X obj 488 68 / 60;
#X obj 400 283 *;
#X obj 400 234 f;
#X obj 488 150 t b f;
#X obj 402 339 outlet;
#N canvas 199 22 1220 795 sel 0;
#X obj 385 -22 inlet;
#X msg 674 521;
#X msg 688 550;
#X msg 702 580;
#X msg 387 59 0.03125;
#X msg 403 87 0.0416666;
#X msg 421 113 0.0625;
#X msg 438 140 0.083333;
#X msg 456 165 0.09375;
#X msg 476 191 0.125;
#X msg 491 220 0.16666;
#X msg 505 249 0.1875;
#X msg 519 279 0.25;
#X msg 532 304 0.3333;
#X msg 549 333 0.375;
#X msg 570 360 0.5;
#X msg 586 388 0.66666;
#X msg 604 414 0.75;
#X msg 621 441 1;
#X msg 633 468 2;
#X obj 446 652 * 4;
#X obj 446 676 swap 1;
#X obj 446 698 /;
#X obj 447 725 outlet;
#X obj 387 28 select 0 1 2 3 4 5 6 7 8 9 10 11 12 13 14 15 16 17 18
19 -1;
#X msg 659 492;
#X msg 715 605 0;
#X connect 0 0 24 0;
#X connect 1 0 20 0;
#X connect 2 0 20 0;
#X connect 3 0 20 0;
#X connect 4 0 20 0;
#X connect 5 0 20 0;
#X connect 6 0 20 0;
#X connect 7 0 20 0;
#X connect 8 0 20 0;
#X connect 9 0 20 0;
#X connect 10 0 20 0;
#X connect 11 0 20 0;
#X connect 12 0 20 0;
#X connect 13 0 20 0;
#X connect 14 0 20 0;
#X connect 15 0 20 0;
#X connect 16 0 20 0;
#X connect 17 0 20 0;
#X connect 18 0 20 0;
#X connect 19 0 20 0;
#X connect 20 0 21 0;
#X connect 21 0 22 0;
#X connect 21 1 22 1;
#X connect 22 0 23 0;
#X connect 24 0 4 0;
#X connect 24 1 5 0;
#X connect 24 2 6 0;
#X connect 24 3 7 0;
#X connect 24 4 8 0;
#X connect 24 5 9 0;
#X connect 24 6 10 0;
#X connect 24 7 11 0;
#X connect 24 8 12 0;
#X connect 24 9 13 0;
#X connect 24 10 14 0;
#X connect 24 11 15 0;
#X connect 24 12 16 0;
#X connect 24 13 17 0;
#X connect 24 14 18 0;
#X connect 24 15 19 0;
#X connect 24 16 25 0;
#X connect 24 17 1 0;
#X connect 24 18 2 0;
#X connect 24 19 3 0;
#X connect 24 20 26 0;
#X connect 26 0 20 0;
#X restore 399 199 pd sel;
#X obj 523 185 s tempoHZ;
#X obj 398 36 inlet;
#X connect 0 0 1 0;
#X connect 1 0 4 0;
#X connect 2 0 5 0;
#X connect 3 0 2 0;
#X connect 4 0 3 0;
#X connect 4 1 2 1;
#X connect 4 1 7 0;
#X connect 6 0 3 1;
#X connect 6 0 3 0;
#X connect 8 0 6 0;
#X restore 816 -96 pd div;
#X obj 911 -8 inlet;
#X obj 816 -70 change;
#X text 912 -38 phase;
#X obj 1169 -133 s \$0-exp;
#X obj 994 -192 loadbang;
#X obj 512 -37 table sineTable;
#X obj 820 25 pack f 0.5;
#X obj 818 59 unpack f f;
#X obj 820 85 osc~;
#X obj 818 186 expr~ pow($v1 \, $f2);
#X obj 934 93 r \$0-exp;
#X obj 819 120 +~ 1;
#X obj 819 144 *~ 0.5;
#X obj 819 309 *~;
#X obj 838 261 sig~;
#X obj 838 284 lop~ 1;
#X obj 840 213 * 10;
#N canvas 0 22 770 507 switch 0;
#X obj 195 51 inlet~;
#X obj 353 50 inlet~;
#X obj 462 56 inlet;
#X obj 190 268 *~;
#X obj 346 265 *~;
#X obj 209 224 sig~;
#X obj 363 203 sig~;
#X obj 363 226 lop~ 1;
#X obj 207 247 lop~ 1;
#X obj 271 351 outlet~;
#X obj 211 178 swap 1;
#X obj 212 199 -;
#X connect 0 0 3 0;
#X connect 1 0 4 0;
#X connect 2 0 6 0;
#X connect 2 0 10 0;
#X connect 3 0 9 0;
#X connect 4 0 9 0;
#X connect 5 0 8 0;
#X connect 6 0 7 0;
#X connect 7 0 4 1;
#X connect 8 0 3 1;
#X connect 10 0 11 0;
#X connect 10 1 11 1;
#X connect 11 0 5 0;
#X restore 795 461 pd switch;
#X obj 845 439 != -1;
#X obj 747 335 sig~ 1;
#X obj 930 121 * 10;
#X obj 839 237 + 0.25;
#X obj 931 143 + 0.1;
#X obj 845 414 r \$0-speed;
#X obj 898 -163 * 0.5;
#X msg 994 -162 60;
#X connect 1 0 26 1;
#X connect 2 0 12 0;
#X connect 3 0 33 0;
#X connect 4 0 8 0;
#X connect 8 0 10 0;
#X connect 9 0 15 1;
#X connect 10 0 15 0;
#X connect 13 0 34 0;
#X connect 15 0 16 0;
#X connect 16 0 17 0;
#X connect 16 1 17 1;
#X connect 17 0 20 0;
#X connect 18 0 22 0;
#X connect 19 0 25 0;
#X connect 19 0 29 0;
#X connect 20 0 21 0;
#X connect 21 0 18 0;
#X connect 22 0 1 0;
#X connect 23 0 24 0;
#X connect 24 0 22 1;
#X connect 25 0 30 0;
#X connect 26 0 0 0;
#X connect 27 0 26 2;
#X connect 28 0 26 0;
#X connect 29 0 31 0;
#X connect 30 0 23 0;
#X connect 31 0 18 1;
#X connect 32 0 27 0;
#X connect 33 0 8 1;
#X connect 34 0 8 1;
#X restore 496 324 pd low frequency oscillator;
#N canvas 0 22 820 613 amp 0;
#X obj 294 125 inlet~;
#X obj 287 439 outlet~;
#X obj 290 231 *~;
#X obj 289 292 *~ 1.5;
#X obj 335 179 r~ \$0-theLFO;
#X connect 0 0 2 0;
#X connect 2 0 3 0;
#X connect 3 0 1 0;
#X connect 4 0 2 1;
#X restore 126 253 pd amp mod;
#N canvas 116 29 1097 772 freq 0;
#X obj -53 -32 inlet~;
#X obj 6 539 outlet~;
#X obj 141 121 sig~;
#X obj 115 226 sig~;
#X obj 85 249 +~ 20;
#X obj 92 148 *~ 1750;
#X obj 10 320 vcf~ 10;
#X obj 10 343 *~ 8;
#X obj 141 95 r \$0-maxFreq;
#X obj 122 195 r \$0-minFreq;
#X obj 123 276 r \$0-Q;
#X obj 96 -4 r~ \$0-theLFO;
#X connect 0 0 6 0;
#X connect 4 0 6 1;
#X connect 5 0 4 0;
#X connect 6 0 7 0;
#X connect 7 0 1 0;
#X connect 8 0 2 0;
#X connect 9 0 3 0;
#X connect 10 0 6 2;
#X connect 11 0 5 0;
#X restore 161 217 pd freq mod;
#X obj 124 600 *~;
#X obj 312 355 select 0 1;
#X obj 344 408 t b b;
#X msg 376 440 1;
#X obj 330 535 switch~;
#X msg 338 440 1;
#X obj 284 404 t b b;
#X msg 314 470 0;
#X msg 279 470 0;
#X obj 266 445 del 30;
#X obj 224 329 loadbang;
#X obj 126 668 hip~ 4;
#X obj 493 224 loadbang;
#X msg 492 250 0.5;
#X obj 187 568 vline~;
#X msg 196 537 \$1 20;
#N canvas 680 91 450 300 2xfade 0;
#X obj 40 -47 inlet~;
#X obj 184 -53 inlet~;
#X obj 308 -57 inlet;
#X obj 47 245 outlet~;
#X obj 185 240 outlet~;
#X obj 46 136 *~;
#X obj 187 137 *~;
#X obj 65 86 sig~;
#X obj 65 109 lop~ 1;
#X obj 206 88 sig~;
#X obj 206 111 lop~ 1;
#N canvas 223 149 450 300 xfade 0;
#X obj 276 53 inlet;
#X obj 275 141 + 1;
#X obj 274 162 * 0.5;
#X obj 275 120 cos;
#X obj 219 216 outlet;
#X obj 285 186 swap 1;
#X obj 293 207 -;
#X obj 292 231 outlet;
#X obj 330 35 loadbang;
#X obj 276 96 * 3.14;
#X msg 328 58 0.5;
#X connect 0 0 9 0;
#X connect 1 0 2 0;
#X connect 2 0 4 0;
#X connect 2 0 5 0;
#X connect 3 0 1 0;
#X connect 5 0 6 0;
#X connect 5 1 6 1;
#X connect 6 0 7 0;
#X connect 8 0 10 0;
#X connect 9 0 3 0;
#X connect 10 0 9 0;
#X restore 127 21 pd xfade;
#X connect 0 0 5 0;
#X connect 1 0 6 0;
#X connect 2 0 11 0;
#X connect 5 0 3 0;
#X connect 6 0 4 0;
#X connect 7 0 8 0;
#X connect 8 0 5 1;
#X connect 9 0 10 0;
#X connect 10 0 6 1;
#X connect 11 0 7 0;
#X connect 11 1 9 0;
#X restore 155 433 pd 2xfade;
#X msg 226 353 0.5;
#X obj 126 638 clip~ -1 1;
#X obj 520 383 expr~ 1-$v1;
#N canvas 0 22 770 507 switch 0;
#X obj 195 51 inlet~;
#X obj 353 50 inlet~;
#X obj 462 56 inlet;
#X obj 190 268 *~;
#X obj 346 265 *~;
#X obj 209 224 sig~;
#X obj 363 221 sig~;
#X obj 363 244 lop~ 1;
#X obj 207 247 lop~ 1;
#X obj 271 351 outlet~;
#X obj 211 178 swap 1;
#X obj 212 199 -;
#X connect 0 0 3 0;
#X connect 1 0 4 0;
#X connect 2 0 6 0;
#X connect 2 0 10 0;
#X connect 3 0 9 0;
#X connect 4 0 9 0;
#X connect 5 0 8 0;
#X connect 6 0 7 0;
#X connect 7 0 4 1;
#X connect 8 0 3 1;
#X connect 10 0 11 0;
#X connect 10 1 11 1;
#X connect 11 0 5 0;
#X restore 478 485 pd switch;
#X obj 608 448 loadbang;
#X msg 595 476 0;
#X obj 578 120 r \$0-tempo;
#X obj 526 84 r \$0-speed;
#X obj 619 219 r \$0-phase;
#X obj 661 270 r \$0-depth;
#X obj 541 421 r \$0-invert;
#X obj 312 311 r \$0-switch;
#X obj 272 225 r \$0-mix;
#X obj 478 513 s~ \$0-theLFO;
#X obj 941 183 route speed tempo phase depth invert mix randomize switch
;
#X obj 940 129 inlet;
#X obj 941 209 s \$0-speed;
#X obj 989 241 s \$0-tempo;
#X obj 1019 271 s \$0-phase;
#X obj 1055 303 s \$0-depth;
#X obj 1103 338 s \$0-invert;
#X obj 1137 366 s \$0-mix;
#X obj 1164 397 s \$0-randomize;
#X obj 1198 430 s \$0-switch;
#X obj 1100 -94 r \$0-randomize;
#X obj 1103 -67 t b b b b b b;
#X msg 994 28 speed \$1;
#X obj 1065 -2 random 100;
#X obj 1066 21 * 0.01;
#X msg 1065 43 depth \$1;
#X obj 1135 -2 random 100;
#X obj 1136 21 * 0.01;
#X msg 1135 43 mix \$1;
#X obj 272 277 pack f f;
#X obj 343 166 r \$0-tempo;
#X obj 343 192 swap 60000;
#X obj 342 214 /;
#X obj 340 241 * 4;
#X obj 271 300 line;
#X obj 1212 -4 random 2;
#X msg 1211 30 invert \$1;
#X obj 1284 -4 random 3;
#X msg 1285 42 phase \$1;
#X obj 1284 18 / 2;
#X msg 1196 147 switch 1 \, tempo 120 \, randomize;
#X obj 1193 103 loadbang;
#X obj 994 2 random 17;
#X obj 11 595 *~;
#X obj 49 562 lop~ 1;
#X obj 95 562 lop~ 1;
#X obj 55 462 random 100;
#X obj 52 491 * 0.01;
#X obj 104 496 loadbang;
#X msg 106 517 1;
#X obj 55 426 r \$0-randomize;
#X obj 50 530 mm_xfade;
#X connect 0 0 4 0;
#X connect 0 0 3 0;
#X connect 0 0 69 0;
#X connect 2 0 24 0;
#X connect 2 0 25 0;
#X connect 3 0 21 0;
#X connect 4 0 21 1;
#X connect 5 0 23 0;
#X connect 6 0 11 0;
#X connect 6 1 7 0;
#X connect 7 0 10 0;
#X connect 7 1 8 0;
#X connect 8 0 9 0;
#X connect 10 0 20 0;
#X connect 11 0 14 0;
#X connect 11 1 12 0;
#X connect 12 0 20 0;
#X connect 13 0 9 0;
#X connect 14 0 13 0;
#X connect 15 0 22 0;
#X connect 16 0 1 0;
#X connect 17 0 18 0;
#X connect 18 0 2 0;
#X connect 19 0 5 1;
#X connect 20 0 19 0;
#X connect 21 0 5 0;
#X connect 21 1 5 0;
#X connect 22 0 21 2;
#X connect 23 0 16 0;
#X connect 24 0 25 1;
#X connect 25 0 35 0;
#X connect 26 0 27 0;
#X connect 27 0 25 2;
#X connect 28 0 2 1;
#X connect 29 0 2 0;
#X connect 30 0 2 2;
#X connect 31 0 2 3;
#X connect 32 0 25 2;
#X connect 33 0 6 0;
#X connect 34 0 55 0;
#X connect 36 0 38 0;
#X connect 36 1 39 0;
#X connect 36 2 40 0;
#X connect 36 3 41 0;
#X connect 36 4 42 0;
#X connect 36 5 43 0;
#X connect 36 6 44 0;
#X connect 36 7 45 0;
#X connect 37 0 36 0;
#X connect 46 0 47 0;
#X connect 47 1 68 0;
#X connect 47 2 49 0;
#X connect 47 3 52 0;
#X connect 47 4 61 0;
#X connect 47 5 63 0;
#X connect 48 0 36 0;
#X connect 49 0 50 0;
#X connect 50 0 51 0;
#X connect 51 0 36 0;
#X connect 52 0 53 0;
#X connect 53 0 54 0;
#X connect 54 0 36 0;
#X connect 55 0 60 0;
#X connect 56 0 57 0;
#X connect 57 0 58 0;
#X connect 57 1 58 1;
#X connect 58 0 59 0;
#X connect 59 0 55 1;
#X connect 60 0 21 2;
#X connect 61 0 62 0;
#X connect 62 0 36 0;
#X connect 63 0 65 0;
#X connect 64 0 36 0;
#X connect 65 0 64 0;
#X connect 66 0 36 0;
#X connect 67 0 66 0;
#X connect 68 0 48 0;
#X connect 69 0 23 0;
#X connect 70 0 69 1;
#X connect 71 0 5 1;
#X connect 72 0 73 0;
#X connect 73 0 77 0;
#X connect 74 0 75 0;
#X connect 75 0 77 0;
#X connect 76 0 72 0;
#X connect 77 0 70 0;
#X connect 77 1 71 0;
#X restore 510 728 pd wobble;
#X obj 563 697 r \$0-detectedTempo;
#X obj 691 602 r \$0-clock;
#X msg 690 696 randomize;
#X obj 690 672 wrandom;
#X obj 744 626 loadbang;
#X msg 743 654 50 5 15 2;
#X obj 589 776 r quarterMS;
#X obj 521 942 hip~ 75;
#X obj 521 971 lop~ 8000;
#N canvas 470 107 702 469 renv 0;
#X obj 101 148 random 150;
#X obj 139 249 random 950;
#X obj 185 304 random 200;
#X obj 102 32 inlet;
#X obj 101 58 bang;
#X obj 90 443 outlet;
#X obj 99 334 pack f f f;
#X obj 100 93 trigger b b b;
#X msg 90 413 a \$1 \, s \$2 \, r \$3 \, v 0;
#X obj 282 26 inlet;
#X obj 282 52 t f f f;
#X obj 282 106 int;
#X obj 297 158 int;
#X obj 282 81 / 4;
#X obj 139 273 + 1;
#X obj 322 176 / 2;
#X obj 321 210 int;
#X obj 385 26 loadbang;
#X msg 385 48 500;
#X obj 297 130 * 2;
#X obj 27 73 loadbang;
#X obj 27 104 t b b b;
#X msg 26 130 seed 75;
#X msg 39 161 seed 88;
#X msg 66 195 seed 103;
#N canvas 908 219 519 500 list 0;
#X obj 492 214 list-drip;
#X obj 473 306 f;
#X obj 492 250 +;
#X obj 492 278 t f f;
#X obj 540 241 t b b b;
#X msg 550 290 0;
#X msg 541 265 0;
#X obj 466 350 outlet;
#X obj 483 82 inlet;
#X connect 0 0 2 0;
#X connect 0 1 4 0;
#X connect 1 0 7 0;
#X connect 2 0 3 0;
#X connect 3 0 1 1;
#X connect 3 1 2 1;
#X connect 4 0 6 0;
#X connect 4 1 5 0;
#X connect 4 2 1 0;
#X connect 5 0 2 1;
#X connect 6 0 1 1;
#X connect 8 0 0 0;
#X restore -73 363 pd list add;
#X obj -110 42 inlet;
#X obj -112 127 spigot;
#X obj -52 41 loadbang;
#X msg -49 64 1;
#X obj -112 170 t b b b;
#X msg -73 196 0;
#X msg -90 243 1;
#X obj -94 219 del 1000;
#X obj -126 434 outlet;
#X connect 0 0 6 0;
#X connect 1 0 14 0;
#X connect 2 0 6 2;
#X connect 3 0 4 0;
#X connect 4 0 7 0;
#X connect 6 0 8 0;
#X connect 6 0 25 0;
#X connect 7 0 0 0;
#X connect 7 1 1 0;
#X connect 7 2 2 0;
#X connect 8 0 5 0;
#X connect 9 0 10 0;
#X connect 10 0 13 0;
#X connect 10 1 19 0;
#X connect 10 2 15 0;
#X connect 11 0 0 1;
#X connect 12 0 1 1;
#X connect 13 0 11 0;
#X connect 14 0 6 1;
#X connect 15 0 16 0;
#X connect 16 0 2 1;
#X connect 17 0 18 0;
#X connect 18 0 10 0;
#X connect 19 0 12 0;
#X connect 20 0 21 0;
#X connect 21 0 22 0;
#X connect 21 1 23 0;
#X connect 21 2 24 0;
#X connect 22 0 0 0;
#X connect 23 0 1 0;
#X connect 24 0 2 0;
#X connect 25 0 33 1;
#X connect 26 0 27 0;
#X connect 27 0 30 0;
#X connect 28 0 29 0;
#X connect 29 0 27 1;
#X connect 30 0 34 0;
#X connect 30 1 33 0;
#X connect 30 2 31 0;
#X connect 31 0 27 1;
#X connect 32 0 27 1;
#X connect 33 0 32 0;
#X restore 550 826 pd renv;
#X obj 512 458 mm_bass_notes;
#X obj 550 417 r notes;
#X obj 608 417 r \$0-randomNotes;
#X obj 424 182 r \$0-clock;
#X obj 488 237 r \$0-theRoot;
#X msg 424 204 clock \$1;
#X msg 489 258 root \$1;
#X obj 534 370 r \$0-detectedTempo;
#X obj 517 311 r \$0-timer;
#X msg 518 337 timer \$1;
#N canvas 710 242 450 300 toFuzz 0;
#X obj 75 -66 inlet~;
#X obj 76 197 throw~ toFuzz;
#X obj 76 167 *~;
#X obj 101 144 lop~ 1;
#X obj 154 44 random 100;
#X obj 152 91 *;
#X obj 99 22 r onOff;
#X obj 99 49 sel 0;
#X msg 98 76 0;
#X obj 155 18 t b;
#X obj 157 -7 r randomize2;
#X obj 152 67 * 0.0075;
#X connect 0 0 2 0;
#X connect 2 0 1 0;
#X connect 3 0 2 1;
#X connect 4 0 11 0;
#X connect 5 0 3 0;
#X connect 6 0 7 0;
#X connect 7 0 8 0;
#X connect 8 0 3 0;
#X connect 9 0 4 0;
#X connect 10 0 9 0;
#X connect 11 0 5 1;
#X connect 11 0 5 0;
#X restore 570 1076 pd toFuzz;
#X obj 537 1161 throw~ toVerbL;
#X obj 642 1161 throw~ toVerbR;
#X obj 644 1134 *~ 0.2;
#X obj 539 1128 *~ 0.2;
#X obj 522 1022 mm_bass_mixer~;
#X obj 602 998 r \$0-detectedTempo;
#X obj 510 559 t f b;
#X obj 439 1143 outlet~;
#X obj 751 1135 outlet~;
#X connect 2 0 6 0;
#X connect 3 0 4 0;
#X connect 4 0 5 0;
#X connect 5 0 14 0;
#X connect 5 0 15 1;
#X connect 6 0 7 0;
#X connect 7 0 3 0;
#X connect 7 1 12 0;
#X connect 8 0 6 0;
#X connect 9 0 11 0;
#X connect 10 0 3 1;
#X connect 11 0 10 0;
#X connect 12 0 13 0;
#X connect 14 0 12 1;
#X connect 15 0 19 0;
#X connect 16 0 27 0;
#X connect 17 0 18 0;
#X connect 18 0 29 1;
#X connect 19 0 16 0;
#X connect 20 0 19 1;
#X connect 21 0 23 0;
#X connect 22 0 19 1;
#X connect 23 0 22 0;
#X connect 24 0 25 0;
#X connect 24 0 22 0;
#X connect 25 0 23 1;
#X connect 26 0 29 2;
#X connect 27 0 28 0;
#X connect 28 0 45 1;
#X connect 28 0 45 0;
#X connect 29 0 16 1;
#X connect 29 1 16 2;
#X connect 30 0 47 0;
#X connect 31 0 30 1;
#X connect 32 0 30 2;
#X connect 33 0 35 0;
#X connect 34 0 36 0;
#X connect 35 0 30 0;
#X connect 36 0 30 0;
#X connect 37 0 30 0;
#X connect 38 0 39 0;
#X connect 39 0 30 0;
#X connect 43 0 42 0;
#X connect 44 0 41 0;
#X connect 45 0 44 0;
#X connect 45 0 40 0;
#X connect 45 0 48 0;
#X connect 45 1 43 0;
#X connect 45 1 40 0;
#X connect 45 1 49 0;
#X connect 46 0 45 2;
#X connect 47 0 15 0;
#X connect 47 1 29 0;
#X restore 20 125 pd bass;
#N canvas 96 135 1332 748 randomness 0;
#X obj 29 355 s drumPattern;
#X obj 29 184 loadbang;
#X text 379 393 pattern 0-4;
#X obj -10 148 r randomize;
#X obj -9 171 t b;
#X obj 96 248 mod 200;
#X msg 97 271 seed \$1;
#X obj 1155 -204 loadbang;
#X obj 1146 -106 timer;
#X obj 1172 -137 sel 1;
#X obj 987 -121 r loadNewPattern;
#X obj 988 34 f;
#X obj 1020 35 + 1;
#X obj 1024 -53 sel 1;
#X msg 1024 -19 0;
#X obj 991 103 s loadNextPattern;
#X obj 1182 174 s patternNumber;
#X obj 652 -538 r \$0-clock;
#X obj 685 -387 t b;
#X obj 687 -320 f;
#X obj 729 -320 + 1;
#X obj 641 -48 sel 0;
#X obj 587 132 s randomize;
#X msg 566 87 randomize;
#X obj 503 -67 loadbang;
#X obj 739 -268 sel 0;
#X obj 751 -121 s loadNewPattern;
#X obj 721 -418 r onOff;
#X obj 723 -392 sel 1;
#X msg 725 -367 0;
#X obj 1171 -159 r onOff;
#X obj 1021 -93 r onOff;
#X obj 871 -147 mod 1024;
#X obj 872 -116 sel 0;
#X obj 842 28 s setNewTempo;
#X obj 880 -53 t b;
#X obj 878 6 random 12;
#X obj 898 66 s \$0-theRoot;
#X obj 997 262 loadbang;
#X text 735 -161 reconnect;
#X text 1014 85 reconnect;
#X msg 641 59 \$1 randomize;
#X obj 640 83 route 0 1 2 3;
#X obj 597 174 s randomize1;
#X obj 620 201 s randomize2;
#X obj 640 227 s randomize3;
#X text 644 38 reconnect;
#X obj 791 233 == 0;
#X obj 1147 118 t b f;
#X obj 687 -48 sel 0;
#X obj 685 -71 mod 256;
#X obj 1145 -82 mod 200;
#X msg 1145 -51 seed \$1;
#X obj 564 64 bng 15 250 50 0 empty empty empty 17 7 0 10 -262144 -1
-1;
#X obj 559 4 r onOff;
#X obj 789 76 until;
#X obj 788 103 f;
#X obj 817 105 + 1;
#X obj 790 185 t b f;
#X obj 791 257 list prepend;
#X obj 790 280 list trim;
#X obj 790 159 + 1;
#X obj 749 -147 sel 0;
#X obj 742 -22 s colorTheme;
#X obj 740 -97 random 100;
#X obj 29 310 random 8;
#X obj 739 -292 mod 64;
#X obj 790 321 route 1 2 3 0;
#X obj 738 -249 t b b;
#X obj 811 -225 random 100;
#X msg 932 -274 seed \$1;
#X obj 931 -300 mod 150;
#X msg 894 -180 seed \$1;
#X obj 893 -205 mod 130;
#X msg 971 -161 seed \$1;
#X obj 970 -187 mod 140;
#X msg 915 -38 seed \$1;
#X obj 914 -64 mod 125;
#X obj 1209 -94 s \$0-timer;
#X obj 546 -233 r \$0-timer;
#X msg 548 -136 seed \$1;
#X obj 547 -158 mod 110;
#X obj 813 -167 sel 1;
#X obj 742 -71 + 50;
#X obj 742 -44 * 0.01;
#X obj 97 224 r \$0-timer;
#X obj 692 21 s \$0-willRandomize;
#X msg 1001 286 0;
#X obj 644 -8 random 16;
#X obj 144 464 s \$0-changePerc;
#X obj 60 451 s \$0-changeKick;
#X obj 13 411 s \$0-changeSnare;
#X obj 11 375 random 4;
#X obj 73 389 random 4;
#X obj 138 434 random 4;
#X obj 141 323 r randomize1;
#X obj 141 348 t b;
#X obj 166 396 t b;
#X obj 166 371 r randomize2;
#X obj 837 -84 random 100;
#X obj 834 -37 sel 1;
#X obj 836 -59 < 80;
#X obj 1142 -22 t b a;
#X obj 789 130 mod 4;
#X msg 789 53 4;
#X obj 748 -211 random 6;
#X obj 846 153 r \$0-timer;
#X obj 843 176 mod 60;
#X msg 848 198 seed \$1;
#X obj 813 -190 < 6;
#X obj 956 -10 bng 15 250 50 0 empty empty empty 17 7 0 10 -262144
-1 -1;
#X obj 1146 74 random 5;
#X obj 790 208 random 8;
#X obj 641 24 mod 4;
#X obj 561 31 t b;
#X obj 680 -444 spigot;
#X msg 740 -477 1;
#X obj 746 -506 loadbang;
#X obj 746 -542 r allowRandom;
#X obj 639 -87 mod 16;
#X obj 789 349 s 1shouldImprovise;
#X obj 812 372 s 2shouldImprovise;
#X obj 833 393 s 3shouldImprovise;
#X obj 862 420 s 0shouldImprovise;
#X connect 1 0 65 0;
#X connect 3 0 4 0;
#X connect 4 0 65 0;
#X connect 4 0 92 0;
#X connect 5 0 6 0;
#X connect 6 0 65 0;
#X connect 7 0 8 0;
#X connect 8 0 51 0;
#X connect 8 0 71 0;
#X connect 8 0 73 0;
#X connect 8 0 75 0;
#X connect 8 0 77 0;
#X connect 8 0 78 0;
#X connect 9 0 8 1;
#X connect 10 0 11 0;
#X connect 11 0 12 0;
#X connect 11 0 15 0;
#X connect 12 0 11 1;
#X connect 13 0 14 0;
#X connect 14 0 11 1;
#X connect 17 0 115 0;
#X connect 18 0 19 0;
#X connect 19 0 20 0;
#X connect 19 0 32 0;
#X connect 19 0 50 0;
#X connect 19 0 66 0;
#X connect 19 0 119 0;
#X connect 20 0 19 1;
#X connect 21 0 88 0;
#X connect 23 0 22 0;
#X connect 23 0 43 0;
#X connect 23 0 44 0;
#X connect 23 0 45 0;
#X connect 24 0 23 0;
#X connect 25 0 68 0;
#X connect 27 0 28 0;
#X connect 28 0 29 0;
#X connect 29 0 19 1;
#X connect 30 0 9 0;
#X connect 31 0 13 0;
#X connect 32 0 33 0;
#X connect 33 0 35 0;
#X connect 33 0 99 0;
#X connect 35 0 36 0;
#X connect 36 0 37 0;
#X connect 38 0 87 0;
#X connect 41 0 42 0;
#X connect 42 0 22 0;
#X connect 42 1 43 0;
#X connect 42 2 44 0;
#X connect 42 3 45 0;
#X connect 47 0 59 0;
#X connect 48 0 11 0;
#X connect 48 1 16 0;
#X connect 49 0 104 0;
#X connect 50 0 49 0;
#X connect 51 0 52 0;
#X connect 52 0 102 0;
#X connect 53 0 23 0;
#X connect 54 0 114 0;
#X connect 55 0 56 0;
#X connect 56 0 57 0;
#X connect 56 0 103 0;
#X connect 57 0 56 1;
#X connect 58 0 112 0;
#X connect 58 1 59 1;
#X connect 59 0 60 0;
#X connect 60 0 67 0;
#X connect 61 0 58 0;
#X connect 62 0 26 0;
#X connect 64 0 83 0;
#X connect 65 0 0 0;
#X connect 66 0 25 0;
#X connect 67 0 120 0;
#X connect 67 1 121 0;
#X connect 67 2 122 0;
#X connect 67 3 123 0;
#X connect 68 0 64 0;
#X connect 68 0 105 0;
#X connect 68 1 69 0;
#X connect 69 0 109 0;
#X connect 70 0 69 0;
#X connect 71 0 70 0;
#X connect 72 0 105 0;
#X connect 73 0 72 0;
#X connect 74 0 64 0;
#X connect 75 0 74 0;
#X connect 76 0 36 0;
#X connect 77 0 76 0;
#X connect 79 0 81 0;
#X connect 80 0 88 0;
#X connect 81 0 80 0;
#X connect 82 0 111 0;
#X connect 83 0 84 0;
#X connect 84 0 63 0;
#X connect 85 0 5 0;
#X connect 87 0 120 0;
#X connect 87 0 121 0;
#X connect 87 0 122 0;
#X connect 87 0 123 0;
#X connect 88 0 86 0;
#X connect 88 0 113 0;
#X connect 92 0 91 0;
#X connect 93 0 90 0;
#X connect 94 0 89 0;
#X connect 95 0 96 0;
#X connect 96 0 93 0;
#X connect 97 0 94 0;
#X connect 98 0 97 0;
#X connect 99 0 101 0;
#X connect 100 0 34 0;
#X connect 100 0 35 0;
#X connect 101 0 100 0;
#X connect 102 0 111 0;
#X connect 102 1 111 0;
#X connect 103 0 61 0;
#X connect 104 0 55 0;
#X connect 105 0 62 0;
#X connect 106 0 107 0;
#X connect 107 0 108 0;
#X connect 108 0 112 0;
#X connect 109 0 82 0;
#X connect 110 0 36 0;
#X connect 111 0 48 0;
#X connect 112 0 47 0;
#X connect 113 0 41 0;
#X connect 114 0 53 0;
#X connect 115 0 18 0;
#X connect 116 0 115 1;
#X connect 117 0 116 0;
#X connect 118 0 115 1;
#X connect 119 0 21 0;
#X restore 772 205 pd randomness;
#X obj 764 112 mm_alter_pattern;
#X obj 854 83 r \$0-timer;
#X obj 764 62 r loadNextPattern;
#X obj 782 348 s \$0-clock;
#X obj 823 375 s \$0-detectedTempo;
#X obj 78 29 throw~ outputL;
#X obj 14 5 throw~ outputR;
#N canvas 208 23 995 738 samplers 0;
#X obj 149 148 mm_audio_input;
#X obj 243 341 mm_audio_input_filter~;
#X obj 159 305 mm_audio_input_filter~;
#X obj 345 241 mm_half_floor~;
#X obj 163 432 mm_double_audio_input_sampler~;
#X obj 165 566 mm_sampler_fx~;
#X obj 326 567 mm_sampler_fx~;
#X obj 664 407 r \$0-detectedTempo;
#X obj 423 182 r \$0-clock;
#X obj 425 207 sel 0;
#X obj 413 502 r randomize1;
#X obj 249 527 r randomize2;
#X floatatom 329 308 5 0 0 0 - - -;
#X msg 341 418 threshold \$1;
#X obj 466 287 r onOff;
#X msg 465 310 on \$1;
#X obj 197 262 scope rawInputScope;
#X obj 467 581 r \$0-detectedTempo;
#X obj 470 608 r randomize;
#X obj 470 655 r randomize2;
#X obj 239 699 mm_stereoChorus;
#X obj 471 634 r randomize1;
#X obj 472 678 r randomize3;
#X msg 150 82 play1;
#X msg 169 107 play2;
#X msg 583 93 slice1;
#X msg 598 127 slice2;
#X obj 631 562 mm_sample_player~;
#X obj 668 476 r \$0-timer;
#X floatatom 745 507 5 0 0 0 - - -;
#X msg 670 497 timer \$1;
#X obj 793 501 list trim;
#X obj 792 480 r loadOtherSample;
#X obj 149 53 sel 0 1 2;
#X obj 583 64 sel 0 1 2;
#X msg 625 157 slice;
#X obj 625 642 mm_sampler_fx~;
#X obj 779 549 r randomize3;
#X obj 689 296 r \$0-clock;
#X msg 688 324 clock \$1;
#X obj 755 440 r randomize1;
#X obj 228 812 *~;
#X obj 247 783 lop~ 1;
#X obj 298 814 *~;
#X obj 317 785 lop~ 1;
#X obj 358 734 *~ 0.9;
#X obj 179 734 *~ 0.9;
#X obj 394 758 r samplerVolume;
#X obj 229 860 outlet~;
#X obj 302 854 outlet~;
#X connect 0 0 2 0;
#X connect 0 0 3 0;
#X connect 0 0 16 0;
#X connect 0 1 1 0;
#X connect 0 1 16 0;
#X connect 0 1 3 0;
#X connect 1 0 4 0;
#X connect 2 0 4 0;
#X connect 3 0 2 1;
#X connect 3 0 13 0;
#X connect 3 0 1 1;
#X connect 4 0 5 0;
#X connect 4 0 27 0;
#X connect 4 1 6 0;
#X connect 4 1 27 0;
#X connect 5 0 20 0;
#X connect 5 0 46 0;
#X connect 5 1 20 1;
#X connect 5 1 45 0;
#X connect 6 0 20 0;
#X connect 6 0 46 0;
#X connect 6 1 20 1;
#X connect 6 1 45 0;
#X connect 7 0 6 1;
#X connect 7 0 5 1;
#X connect 7 0 27 1;
#X connect 8 0 9 0;
#X connect 9 0 3 1;
#X connect 10 0 6 1;
#X connect 11 0 5 1;
#X connect 13 0 4 1;
#X connect 14 0 15 0;
#X connect 15 0 4 1;
#X connect 17 0 20 2;
#X connect 18 0 20 2;
#X connect 19 0 20 2;
#X connect 20 0 46 0;
#X connect 20 1 45 0;
#X connect 21 0 20 2;
#X connect 22 0 20 2;
#X connect 23 0 4 1;
#X connect 24 0 4 1;
#X connect 25 0 4 1;
#X connect 26 0 4 1;
#X connect 27 0 36 0;
#X connect 28 0 30 0;
#X connect 30 0 27 1;
#X connect 31 0 27 2;
#X connect 32 0 31 0;
#X connect 33 0 23 0;
#X connect 33 1 24 0;
#X connect 34 0 25 0;
#X connect 34 1 26 0;
#X connect 34 2 35 0;
#X connect 35 0 27 1;
#X connect 36 0 20 0;
#X connect 36 0 46 0;
#X connect 36 1 20 1;
#X connect 36 1 45 0;
#X connect 37 0 36 1;
#X connect 38 0 39 0;
#X connect 39 0 27 1;
#X connect 40 0 27 1;
#X connect 41 0 48 0;
#X connect 42 0 41 1;
#X connect 43 0 49 0;
#X connect 44 0 43 1;
#X connect 45 0 43 0;
#X connect 46 0 41 0;
#X connect 47 0 44 0;
#X connect 47 0 42 0;
#X restore 14 -22 pd samplers;
#N canvas 421 187 823 644 synths 0;
#N canvas 151 23 1440 851 synth 0;
#X obj 897 342 r randomize;
#X obj 914 368 r randomize1;
#X obj 660 514 r \$0-detectedTempo;
#X obj 896 451 mm_rlist 7;
#X obj 896 475 list prepend randomlist;
#X obj 896 499 list trim;
#X obj 905 524 list;
#X obj 936 574 list;
#X obj 907 397 bng 15 250 50 0 empty empty empty 17 7 0 10 -262144
-1 -1;
#X obj 893 427 t b b b;
#X obj 908 548 list trim;
#X obj 935 598 list trim;
#X obj 1020 317 r \$0-timer;
#X msg 1022 414 seed \$1;
#X obj 1021 392 mod 125;
#X obj 418 664 *~ 0.85;
#X obj 472 665 *~ 0.85;
#X obj 526 647 *~ 0.85;
#X obj 551 678 *~ 0.85;
#X obj 593 662 *~ 0.85;
#X obj 635 671 *~ 0.85;
#X obj 569 583 mm_osc3~;
#X obj 502 580 mm_osc3~;
#X obj 438 581 mm_osc3~;
#X obj 668 870 mm_asr~;
#X obj 722 747 r randomize1;
#X obj 723 776 t b;
#X obj 345 869 mm_asr~;
#X obj 391 788 t b;
#X obj 389 744 r randomize2;
#X obj 500 875 mm_asr~;
#X obj 548 822 t b;
#X obj 545 787 r randomize3;
#X obj 426 777 r quarterMS;
#N canvas 470 107 702 469 renv 0;
#X obj 102 32 inlet;
#X obj 101 58 bang;
#X obj 90 443 outlet;
#X obj 99 334 pack f f f;
#X obj 100 93 trigger b b b;
#X msg 90 413 a \$1 \, s \$2 \, r \$3 \, v 0;
#X obj 282 26 inlet;
#X obj 282 52 t f f f;
#X obj 282 106 int;
#X obj 297 158 int;
#X obj 282 81 / 4;
#X obj 139 273 + 1;
#X obj 322 176 / 2;
#X obj 321 210 int;
#X obj 385 26 loadbang;
#X msg 385 48 500;
#X obj 297 130 * 2;
#X obj 27 73 loadbang;
#X obj 27 104 t b b b;
#X msg 26 130 seed 75;
#X msg 39 161 seed 88;
#X msg 66 195 seed 103;
#N canvas 908 219 519 500 list 0;
#X obj 492 214 list-drip;
#X obj 473 306 f;
#X obj 492 250 +;
#X obj 492 278 t f f;
#X obj 540 241 t b b b;
#X msg 550 290 0;
#X msg 541 265 0;
#X obj 466 350 outlet;
#X obj 483 82 inlet;
#X connect 0 0 2 0;
#X connect 0 1 4 0;
#X connect 1 0 7 0;
#X connect 2 0 3 0;
#X connect 3 0 1 1;
#X connect 3 1 2 1;
#X connect 4 0 6 0;
#X connect 4 1 5 0;
#X connect 4 2 1 0;
#X connect 5 0 2 1;
#X connect 6 0 1 1;
#X connect 8 0 0 0;
#X restore -73 363 pd list add;
#X obj -110 42 inlet;
#X obj -112 127 spigot;
#X obj -52 41 loadbang;
#X msg -49 64 1;
#X obj -112 170 t b b b;
#X msg -73 196 0;
#X msg -90 243 1;
#X obj -94 219 del 1000;
#X obj -126 434 outlet;
#X obj 101 148 random 100;
#X obj 139 249 random 200;
#X obj 185 304 random 100;
#X connect 0 0 1 0;
#X connect 1 0 4 0;
#X connect 3 0 5 0;
#X connect 3 0 22 0;
#X connect 4 0 32 0;
#X connect 4 1 33 0;
#X connect 4 2 34 0;
#X connect 5 0 2 0;
#X connect 6 0 7 0;
#X connect 7 0 10 0;
#X connect 7 1 16 0;
#X connect 7 2 12 0;
#X connect 8 0 32 1;
#X connect 9 0 33 1;
#X connect 10 0 8 0;
#X connect 11 0 3 1;
#X connect 12 0 13 0;
#X connect 13 0 34 1;
#X connect 14 0 15 0;
#X connect 15 0 7 0;
#X connect 16 0 9 0;
#X connect 17 0 18 0;
#X connect 18 0 19 0;
#X connect 18 1 20 0;
#X connect 18 2 21 0;
#X connect 19 0 32 0;
#X connect 20 0 33 0;
#X connect 21 0 34 0;
#X connect 22 0 30 1;
#X connect 23 0 24 0;
#X connect 24 0 27 0;
#X connect 25 0 26 0;
#X connect 26 0 24 1;
#X connect 27 0 31 0;
#X connect 27 1 30 0;
#X connect 27 2 28 0;
#X connect 28 0 24 1;
#X connect 29 0 24 1;
#X connect 30 0 29 0;
#X connect 32 0 3 0;
#X connect 33 0 11 0;
#X connect 34 0 3 2;
#X restore 695 815 pd renv;
#X obj 755 791 r quarterMS;
#X obj 578 747 r quarterMS;
#N canvas 470 107 702 469 renv 0;
#X obj 101 148 random 150;
#X obj 139 249 random 950;
#X obj 185 304 random 200;
#X obj 102 32 inlet;
#X obj 101 58 bang;
#X obj 90 443 outlet;
#X obj 99 334 pack f f f;
#X obj 100 93 trigger b b b;
#X msg 90 413 a \$1 \, s \$2 \, r \$3 \, v 0;
#X obj 282 26 inlet;
#X obj 282 52 t f f f;
#X obj 282 106 int;
#X obj 297 158 int;
#X obj 282 81 / 4;
#X obj 139 273 + 1;
#X obj 322 176 / 2;
#X obj 321 210 int;
#X obj 385 26 loadbang;
#X msg 385 48 500;
#X obj 297 130 * 2;
#X obj 27 73 loadbang;
#X obj 27 104 t b b b;
#N canvas 908 219 519 500 list 0;
#X obj 492 214 list-drip;
#X obj 473 306 f;
#X obj 492 250 +;
#X obj 492 278 t f f;
#X obj 540 241 t b b b;
#X msg 550 290 0;
#X msg 541 265 0;
#X obj 466 350 outlet;
#X obj 483 82 inlet;
#X connect 0 0 2 0;
#X connect 0 1 4 0;
#X connect 1 0 7 0;
#X connect 2 0 3 0;
#X connect 3 0 1 1;
#X connect 3 1 2 1;
#X connect 4 0 6 0;
#X connect 4 1 5 0;
#X connect 4 2 1 0;
#X connect 5 0 2 1;
#X connect 6 0 1 1;
#X connect 8 0 0 0;
#X restore -73 363 pd list add;
#X obj -110 42 inlet;
#X obj -112 127 spigot;
#X obj -52 41 loadbang;
#X msg -49 64 1;
#X obj -112 170 t b b b;
#X msg -73 196 0;
#X msg -90 243 1;
#X obj -94 219 del 1000;
#X obj -126 434 outlet;
#X msg 26 130 seed 74;
#X msg 39 161 seed 89;
#X msg 66 195 seed 104;
#X connect 0 0 6 0;
#X connect 1 0 14 0;
#X connect 2 0 6 2;
#X connect 3 0 4 0;
#X connect 4 0 7 0;
#X connect 6 0 8 0;
#X connect 6 0 22 0;
#X connect 7 0 0 0;
#X connect 7 1 1 0;
#X connect 7 2 2 0;
#X connect 8 0 5 0;
#X connect 9 0 10 0;
#X connect 10 0 13 0;
#X connect 10 1 19 0;
#X connect 10 2 15 0;
#X connect 11 0 0 1;
#X connect 12 0 1 1;
#X connect 13 0 11 0;
#X connect 14 0 6 1;
#X connect 15 0 16 0;
#X connect 16 0 2 1;
#X connect 17 0 18 0;
#X connect 18 0 10 0;
#X connect 19 0 12 0;
#X connect 20 0 21 0;
#X connect 21 0 32 0;
#X connect 21 1 33 0;
#X connect 21 2 34 0;
#X connect 22 0 30 1;
#X connect 23 0 24 0;
#X connect 24 0 27 0;
#X connect 25 0 26 0;
#X connect 26 0 24 1;
#X connect 27 0 31 0;
#X connect 27 1 30 0;
#X connect 27 2 28 0;
#X connect 28 0 24 1;
#X connect 29 0 24 1;
#X connect 30 0 29 0;
#X connect 32 0 0 0;
#X connect 33 0 1 0;
#X connect 34 0 2 0;
#X restore 516 844 pd renv;
#N canvas 470 107 702 469 renv 0;
#X obj 101 148 random 150;
#X obj 139 249 random 950;
#X obj 185 304 random 200;
#X obj 102 32 inlet;
#X obj 101 58 bang;
#X obj 90 443 outlet;
#X obj 99 334 pack f f f;
#X obj 100 93 trigger b b b;
#X msg 90 413 a \$1 \, s \$2 \, r \$3 \, v 0;
#X obj 282 26 inlet;
#X obj 282 52 t f f f;
#X obj 282 106 int;
#X obj 297 158 int;
#X obj 282 81 / 4;
#X obj 139 273 + 1;
#X obj 322 176 / 2;
#X obj 321 210 int;
#X obj 385 26 loadbang;
#X msg 385 48 500;
#X obj 297 130 * 2;
#X obj 27 73 loadbang;
#X obj 27 104 t b b b;
#X msg 26 130 seed 75;
#X msg 39 161 seed 88;
#X msg 66 195 seed 103;
#N canvas 908 219 519 500 list 0;
#X obj 492 214 list-drip;
#X obj 473 306 f;
#X obj 492 250 +;
#X obj 492 278 t f f;
#X obj 540 241 t b b b;
#X msg 550 290 0;
#X msg 541 265 0;
#X obj 466 350 outlet;
#X obj 483 82 inlet;
#X connect 0 0 2 0;
#X connect 0 1 4 0;
#X connect 1 0 7 0;
#X connect 2 0 3 0;
#X connect 3 0 1 1;
#X connect 3 1 2 1;
#X connect 4 0 6 0;
#X connect 4 1 5 0;
#X connect 4 2 1 0;
#X connect 5 0 2 1;
#X connect 6 0 1 1;
#X connect 8 0 0 0;
#X restore -73 363 pd list add;
#X obj -110 42 inlet;
#X obj -112 127 spigot;
#X obj -52 41 loadbang;
#X msg -49 64 1;
#X obj -112 170 t b b b;
#X msg -73 196 0;
#X msg -90 243 1;
#X obj -94 219 del 1000;
#X obj -126 434 outlet;
#X connect 0 0 6 0;
#X connect 1 0 14 0;
#X connect 2 0 6 2;
#X connect 3 0 4 0;
#X connect 4 0 7 0;
#X connect 6 0 8 0;
#X connect 6 0 25 0;
#X connect 7 0 0 0;
#X connect 7 1 1 0;
#X connect 7 2 2 0;
#X connect 8 0 5 0;
#X connect 9 0 10 0;
#X connect 10 0 13 0;
#X connect 10 1 19 0;
#X connect 10 2 15 0;
#X connect 11 0 0 1;
#X connect 12 0 1 1;
#X connect 13 0 11 0;
#X connect 14 0 6 1;
#X connect 15 0 16 0;
#X connect 16 0 2 1;
#X connect 17 0 18 0;
#X connect 18 0 10 0;
#X connect 19 0 12 0;
#X connect 20 0 21 0;
#X connect 21 0 22 0;
#X connect 21 1 23 0;
#X connect 21 2 24 0;
#X connect 22 0 0 0;
#X connect 23 0 1 0;
#X connect 24 0 2 0;
#X connect 25 0 33 1;
#X connect 26 0 27 0;
#X connect 27 0 30 0;
#X connect 28 0 29 0;
#X connect 29 0 27 1;
#X connect 30 0 34 0;
#X connect 30 1 33 0;
#X connect 30 2 31 0;
#X connect 31 0 27 1;
#X connect 32 0 27 1;
#X connect 33 0 32 0;
#X restore 368 821 pd renv;
#X obj 657 919 outlet~;
#X obj 503 912 outlet~;
#X obj 351 917 outlet~;
#X obj 423 198 inlet;
#X obj 474 197 inlet;
#X obj 541 195 inlet;
#X obj 429 313 t f b;
#X obj 476 346 t f b;
#X obj 550 388 t f b;
#X connect 0 0 8 0;
#X connect 1 0 8 0;
#X connect 2 0 21 1;
#X connect 2 0 22 1;
#X connect 2 0 23 1;
#X connect 3 0 4 0;
#X connect 4 0 5 0;
#X connect 5 0 6 1;
#X connect 5 0 23 1;
#X connect 6 0 7 1;
#X connect 6 0 10 0;
#X connect 7 0 11 0;
#X connect 8 0 9 0;
#X connect 9 0 3 0;
#X connect 9 1 6 0;
#X connect 9 2 7 0;
#X connect 10 0 22 1;
#X connect 11 0 21 1;
#X connect 12 0 14 0;
#X connect 13 0 3 1;
#X connect 14 0 13 0;
#X connect 15 0 27 0;
#X connect 16 0 27 0;
#X connect 17 0 30 0;
#X connect 18 0 30 0;
#X connect 19 0 24 0;
#X connect 20 0 24 0;
#X connect 21 0 19 0;
#X connect 21 1 20 0;
#X connect 22 0 17 0;
#X connect 22 1 18 0;
#X connect 23 0 15 0;
#X connect 23 1 16 0;
#X connect 24 0 39 0;
#X connect 25 0 26 0;
#X connect 26 0 34 1;
#X connect 27 0 41 0;
#X connect 28 0 38 1;
#X connect 29 0 28 0;
#X connect 30 0 40 0;
#X connect 31 0 37 1;
#X connect 32 0 31 0;
#X connect 33 0 38 2;
#X connect 34 0 24 1;
#X connect 34 1 24 2;
#X connect 35 0 34 2;
#X connect 36 0 37 2;
#X connect 37 0 30 1;
#X connect 37 1 30 2;
#X connect 38 0 27 1;
#X connect 38 1 27 2;
#X connect 42 0 45 0;
#X connect 43 0 46 0;
#X connect 44 0 47 0;
#X connect 45 0 23 0;
#X connect 45 1 38 0;
#X connect 46 0 22 0;
#X connect 46 1 37 0;
#X connect 47 0 21 0;
#X connect 47 1 34 0;
#X restore 410 125 pd synth;
#X obj 425 244 *~ 0.15;
#X obj 551 244 *~ 0.15;
#X obj 414 186 mm_synth_mixer~;
#X obj 503 129 r \$0-detectedTempo;
#X obj 530 49 r \$0-randomNotes;
#X obj 395 11 r \$0-clock;
#X obj 450 45 r notes;
#X obj 384 -38 r \$0-theRoot;
#X msg 395 33 clock \$1;
#X msg 385 -17 root \$1;
#X obj 403 80 mm_synth_notes;
#X obj 547 -49 r \$0-detectedTempo;
#X obj 518 311 outlet~;
#X obj 394 311 outlet~;
#X obj 552 272 throw~ toVerbR;
#X obj 422 274 throw~ toVerbL;
#X obj 568 100 print notes;
#N canvas 710 242 450 300 toTremelo 0;
#X obj 75 -66 inlet~;
#X obj 76 167 *~;
#X obj 101 144 lop~ 1;
#X obj 154 44 random 100;
#X obj 152 67 * 0.01;
#X obj 152 91 *;
#X obj 155 15 t b;
#X obj 76 197 throw~ toTremelo;
#X obj 156 -9 r randomize3;
#X connect 0 0 1 0;
#X connect 1 0 7 0;
#X connect 2 0 1 1;
#X connect 3 0 4 0;
#X connect 4 0 5 1;
#X connect 4 0 5 0;
#X connect 5 0 2 0;
#X connect 6 0 3 0;
#X connect 8 0 6 0;
#X restore 168 273 pd toTremelo;
#N canvas 710 242 450 300 toTremelo 0;
#X obj 75 -66 inlet~;
#X obj 76 167 *~;
#X obj 101 144 lop~ 1;
#X obj 154 44 random 100;
#X obj 152 67 * 0.01;
#X obj 152 91 *;
#X obj 155 15 t b;
#X obj 76 197 throw~ toTremelo;
#X obj 156 -9 r randomize;
#X connect 0 0 1 0;
#X connect 1 0 7 0;
#X connect 2 0 1 1;
#X connect 3 0 4 0;
#X connect 4 0 5 1;
#X connect 4 0 5 0;
#X connect 5 0 2 0;
#X connect 6 0 3 0;
#X connect 8 0 6 0;
#X restore 689 240 pd toTremelo;
#N canvas 710 242 450 300 toFuzz 0;
#X obj 75 -66 inlet~;
#X obj 76 197 throw~ toFuzz;
#X obj 76 167 *~;
#X obj 101 144 lop~ 1;
#X obj 154 44 random 100;
#X obj 152 67 * 0.01;
#X obj 152 91 *;
#X obj 37 36 r onOff;
#X obj 37 63 sel 0;
#X msg 36 90 0;
#X obj 155 15 t b;
#X obj 156 -9 r randomize;
#X connect 0 0 2 0;
#X connect 2 0 1 0;
#X connect 3 0 2 1;
#X connect 4 0 5 0;
#X connect 5 0 6 1;
#X connect 5 0 6 0;
#X connect 6 0 3 0;
#X connect 7 0 8 0;
#X connect 8 0 9 0;
#X connect 9 0 3 0;
#X connect 10 0 4 0;
#X connect 11 0 10 0;
#X restore 259 273 pd toFuzz;
#N canvas 710 242 450 300 toFuzz 0;
#X obj 75 -66 inlet~;
#X obj 76 197 throw~ toFuzz;
#X obj 76 167 *~;
#X obj 101 144 lop~ 1;
#X obj 154 44 random 100;
#X obj 152 67 * 0.01;
#X obj 152 91 *;
#X obj 37 36 r onOff;
#X obj 37 63 sel 0;
#X msg 36 90 0;
#X obj 155 15 t b;
#X obj 156 -9 r randomize1;
#X connect 0 0 2 0;
#X connect 2 0 1 0;
#X connect 3 0 2 1;
#X connect 4 0 5 0;
#X connect 5 0 6 1;
#X connect 5 0 6 0;
#X connect 6 0 3 0;
#X connect 7 0 8 0;
#X connect 8 0 9 0;
#X connect 9 0 3 0;
#X connect 10 0 4 0;
#X connect 11 0 10 0;
#X restore 621 243 pd toFuzz;
#X connect 0 0 3 0;
#X connect 0 1 3 1;
#X connect 0 2 3 2;
#X connect 1 0 16 0;
#X connect 2 0 15 0;
#X connect 3 0 1 0;
#X connect 3 0 14 0;
#X connect 3 0 20 0;
#X connect 3 0 18 0;
#X connect 3 1 2 0;
#X connect 3 1 13 0;
#X connect 3 1 21 0;
#X connect 3 1 19 0;
#X connect 4 0 3 3;
#X connect 5 0 11 2;
#X connect 6 0 9 0;
#X connect 7 0 11 1;
#X connect 8 0 10 0;
#X connect 9 0 11 0;
#X connect 10 0 11 0;
#X connect 11 0 0 0;
#X connect 11 1 0 1;
#X connect 11 2 0 2;
#X connect 12 0 11 0;
#X restore 10 57 pd synths;
#X obj 9 82 throw~ outputR;
#X obj 60 102 throw~ outputL;
#X obj 772 9 s \$0-theChord;
#X obj 843 -13 s \$0-randomNotes;
#X obj 773 -42 mm_improvise;
#X obj 770 -71 r \$0-clock;
#X obj 20 152 throw~ outputR;
#X obj 62 180 throw~ outputL;
#X obj 27 235 throw~ outputR;
#X obj 73 257 throw~ outputL;
#X obj 16 382 catch~ outputR;
#X obj 47 354 catch~ outputL;
#N canvas 747 22 450 300 globals 0;
#X obj 1008 55 noise~;
#X obj 1008 83 s~ theNoise;
#X obj 1044 133 r audioSwitch;
#X obj 1050 410 switch~;
#X obj 991 354 s audioOn;
#X obj 1083 186 == 0;
#X obj 1051 385 f;
#X obj 1051 326 del;
#X obj 1080 215 sel 1 0;
#X obj 1077 241 f 1;
#X obj 1113 242 f 0;
#X obj 1044 158 t f f f;
#X obj 989 285 t f b;
#X obj 1079 279 * 50;
#X obj 793 373 loadbang;
#X obj 795 406 \$0;
#X obj 795 434 s dollarZero;
#X obj 1003 458 r \$0-detectedTempo;
#X obj 1001 493 route tempo;
#X obj 1001 518 swap 60000;
#X obj 1002 539 /;
#X obj 1001 562 * 2;
#X obj 1002 588 s halfMS;
#X obj 1092 586 s quarterMS;
#X obj 792 79 r beats;
#X obj 851 80 r divisions;
#X obj 850 114 t b f;
#X obj 787 150 f 4;
#X obj 787 172 * 4;
#X obj 789 196 s ticksPerMeasure;
#X obj 691 83 r beats;
#X obj 625 60 r measures;
#X obj 691 118 t b f;
#X obj 628 154 f 4;
#X obj 628 176 * 4;
#X obj 630 200 s beatsPerRep;
#X obj 626 245 r \$0-detectedTempo;
#X obj 626 268 route tempo;
#X obj 627 293 swap 60000;
#X obj 625 315 /;
#X obj 656 321 r beatsPerRep;
#X obj 626 410 *;
#X obj 625 388 f;
#X obj 649 361 t b f;
#X obj 627 452 s msPerRep;
#X connect 0 0 1 0;
#X connect 2 0 11 0;
#X connect 5 0 8 0;
#X connect 6 0 3 0;
#X connect 7 0 6 0;
#X connect 8 0 9 0;
#X connect 8 1 10 0;
#X connect 9 0 13 0;
#X connect 10 0 13 0;
#X connect 11 0 12 0;
#X connect 11 1 6 1;
#X connect 11 2 5 0;
#X connect 12 0 4 0;
#X connect 12 1 7 0;
#X connect 13 0 7 1;
#X connect 14 0 15 0;
#X connect 15 0 16 0;
#X connect 17 0 18 0;
#X connect 18 0 19 0;
#X connect 19 0 20 0;
#X connect 19 1 20 1;
#X connect 20 0 21 0;
#X connect 20 0 23 0;
#X connect 21 0 22 0;
#X connect 24 0 27 1;
#X connect 24 0 27 0;
#X connect 25 0 26 0;
#X connect 26 0 27 0;
#X connect 26 1 28 1;
#X connect 27 0 28 0;
#X connect 28 0 29 0;
#X connect 30 0 32 0;
#X connect 31 0 33 1;
#X connect 31 0 33 0;
#X connect 32 0 33 0;
#X connect 32 1 34 1;
#X connect 33 0 34 0;
#X connect 34 0 35 0;
#X connect 36 0 37 0;
#X connect 37 0 38 0;
#X connect 38 0 39 0;
#X connect 38 1 39 1;
#X connect 39 0 42 1;
#X connect 39 0 42 0;
#X connect 40 0 43 0;
#X connect 41 0 44 0;
#X connect 42 0 41 0;
#X connect 43 0 42 0;
#X connect 43 1 41 1;
#X restore 779 270 pd globals;
#X connect 0 0 10 0;
#X connect 0 1 11 0;
#X connect 1 0 24 0;
#X connect 1 1 25 0;
#X connect 4 0 2 0;
#X connect 4 1 2 1;
#X connect 5 0 22 0;
#X connect 5 1 23 0;
#X connect 8 0 7 1;
#X connect 9 0 7 0;
#X connect 14 0 13 0;
#X connect 14 1 12 0;
#X connect 15 0 16 0;
#X connect 15 1 17 0;
#X connect 20 0 18 0;
#X connect 20 1 19 0;
#X connect 21 0 20 0;
#X connect 26 0 4 0;
#X connect 27 0 4 1;
