#N canvas 161 74 1128 746 12;
#N canvas 333 26 795 617 fft-analysis 0;
#X obj 94 511 *~;
#X obj 55 511 *~;
#X obj 413 356 *~;
#X obj 372 356 *~;
#X obj 372 379 +~;
#X obj 54 183 *~;
#X obj 54 158 inlet~;
#X obj 54 206 rfft~;
#X obj 54 560 *~;
#X obj 141 245 *~;
#X obj 372 333 rfft~;
#X obj 54 535 rifft~;
#X obj 54 583 outlet~;
#X obj 107 245 *~;
#X obj 107 268 +~;
#X text 458 408 modulus;
#X obj 107 420 *~;
#X obj 600 13 block~ 1024 4;
#X obj 107 398 clip~;
#X obj 87 184 tabreceive~ \$0-hann;
#X obj 599 53 loadbang;
#X obj 148 346 r squelch;
#X obj 147 369 expr 0.01*$f1*$f1;
#X obj 107 294 +~ 1e-20;
#X obj 108 480 *~ 0.00065;
#X obj 87 560 tabreceive~ \$0-hann;
#X obj 373 307 *~;
#X obj 373 282 inlet~;
#X obj 406 308 tabreceive~ \$0-hann;
#X obj 107 321 q8_rsqrt~;
#X obj 372 402 q8_sqrt~;
#X text 458 425 of control;
#X text 456 442 amplitude;
#X text 196 248 reciprocal;
#X text 199 267 modulus of;
#X text 195 287 filter input;
#X text 196 306 amplitude;
#X text 115 159 filter input;
#X text 438 282 control source;
#X text 434 332 Fourier transform;
#X text 28 17 Internal workings of the timbre stamping algorithm. First
the "filter input" is treated as in the compressor patch \, multiplying
each channel amplitude by one over its modulus (but limited by the
"squelch" parameter.) It is then multiplied by the modulus of the channel
amplitude for the control source (which is Fourier analyzed in parallel
with the filter input.);
#X text 145 422 multiply the two amplitude;
#X text 143 439 factors (for compression;
#X text 145 455 and to apply new timbre);
#X msg 599 76 \; window-size 1024 \; squelch 30 \; squelch-set set
30;
#X connect 0 0 11 1;
#X connect 1 0 11 0;
#X connect 2 0 4 1;
#X connect 3 0 4 0;
#X connect 4 0 30 0;
#X connect 5 0 7 0;
#X connect 6 0 5 0;
#X connect 7 0 13 0;
#X connect 7 0 13 1;
#X connect 7 0 1 0;
#X connect 7 1 9 0;
#X connect 7 1 9 1;
#X connect 7 1 0 0;
#X connect 8 0 12 0;
#X connect 9 0 14 1;
#X connect 10 0 3 0;
#X connect 10 0 3 1;
#X connect 10 1 2 0;
#X connect 10 1 2 1;
#X connect 11 0 8 0;
#X connect 13 0 14 0;
#X connect 14 0 23 0;
#X connect 16 0 24 0;
#X connect 18 0 16 0;
#X connect 19 0 5 1;
#X connect 20 0 44 0;
#X connect 21 0 22 0;
#X connect 22 0 18 2;
#X connect 23 0 29 0;
#X connect 24 0 0 1;
#X connect 24 0 1 1;
#X connect 25 0 8 1;
#X connect 26 0 10 0;
#X connect 27 0 26 0;
#X connect 28 0 26 1;
#X connect 29 0 18 0;
#X connect 30 0 16 1;
#X restore 84 456 pd fft-analysis;
#X text 137 12 CORT&ZACK's SECRET;
#X text 27 412 filter;
#X text 29 437 input;
#X text 232 441 source;
#X text 233 422 control;
#X floatatom 534 336 0 0 500 0 - squelch-set -;
#X obj 534 360 s squelch;
#X msg 157 278 ../sound/bell.aiff;
#X msg 157 303 ../sound/voice.wav;
#X msg 157 328 ../sound/voice2.wav;
#X obj 157 354 s read-sound1;
#X msg 373 280 ../sound/bell.aiff;
#X msg 373 305 ../sound/voice.wav;
#X msg 373 330 ../sound/voice2.wav;
#X obj 373 355 s read-sound2;
#X text 386 256 control source;
#X text 169 255 filter input;
#X text 255 231 change input sounds;
#X floatatom 454 409 5 0 0 0 - #0-samp-msec -;
#X obj 87 384 bng 15 250 50 0 empty empty empty 0 -6 0 8 -262144 -1
-1;
#X obj 215 385 bng 15 250 50 0 empty empty empty 0 -6 0 8 -262144 -1
-1;
#N canvas 190 43 661 593 test-signals 0;
#X obj 90 444 line~;
#X obj 90 369 f;
#X obj 90 524 outlet~;
#X msg 90 423 0 \, \$1 \$2;
#X obj 90 397 pack 0 0;
#X obj 190 344 /;
#X obj 249 325 * 0.001;
#X obj 90 497 hip~ 5;
#X obj 35 246 loadbang;
#X msg 90 322 1;
#X obj 90 344 metro 1000;
#X obj 191 302 t b b f;
#X obj 117 270 t b f;
#X obj 90 469 tabread4~ \$0-sample;
#X text 21 28 test signal: looped sample playback;
#X obj 51 159 hip~ 5;
#X obj 51 135 adc~ 1;
#X obj 113 159 s insamprate;
#X obj 40 99 inlet;
#X obj 113 135 samplerate~;
#X obj 116 246 r \$0-samplength;
#X obj 191 276 r \$0-insamprate;
#X obj 40 182 tabwrite~ \$0-sample;
#X obj 398 437 line~;
#X obj 398 362 f;
#X obj 398 517 outlet~;
#X msg 398 416 0 \, \$1 \$2;
#X obj 398 390 pack 0 0;
#X obj 498 337 /;
#X obj 557 318 * 0.001;
#X obj 398 490 hip~ 5;
#X obj 343 239 loadbang;
#X msg 398 315 1;
#X obj 398 337 metro 1000;
#X obj 499 295 t b b f;
#X obj 425 263 t b f;
#X obj 360 152 hip~ 5;
#X obj 360 128 adc~ 1;
#X obj 348 91 inlet;
#X obj 422 128 samplerate~;
#X obj 422 152 s insamprate2;
#X obj 348 175 tabwrite~ \$0-sample2;
#X obj 424 239 r \$0-samplength2;
#X obj 499 269 r \$0-insamprate2;
#X obj 398 462 tabread4~ \$0-sample2;
#X connect 0 0 13 0;
#X connect 1 0 4 0;
#X connect 3 0 0 0;
#X connect 4 0 3 0;
#X connect 5 0 4 1;
#X connect 5 0 10 1;
#X connect 6 0 5 1;
#X connect 7 0 2 0;
#X connect 8 0 9 0;
#X connect 9 0 10 0;
#X connect 10 0 1 0;
#X connect 11 0 9 0;
#X connect 11 1 5 0;
#X connect 11 2 6 0;
#X connect 12 0 9 0;
#X connect 12 1 5 0;
#X connect 12 1 1 1;
#X connect 13 0 7 0;
#X connect 15 0 22 0;
#X connect 16 0 15 0;
#X connect 18 0 19 0;
#X connect 18 0 22 0;
#X connect 19 0 17 0;
#X connect 20 0 12 0;
#X connect 21 0 11 0;
#X connect 23 0 44 0;
#X connect 24 0 27 0;
#X connect 26 0 23 0;
#X connect 27 0 26 0;
#X connect 28 0 27 1;
#X connect 28 0 33 1;
#X connect 29 0 28 1;
#X connect 30 0 25 0;
#X connect 31 0 32 0;
#X connect 32 0 33 0;
#X connect 33 0 24 0;
#X connect 34 0 32 0;
#X connect 34 1 28 0;
#X connect 34 2 29 0;
#X connect 35 0 32 0;
#X connect 35 1 28 0;
#X connect 35 1 24 1;
#X connect 36 0 41 0;
#X connect 37 0 36 0;
#X connect 38 0 39 0;
#X connect 38 0 41 0;
#X connect 39 0 40 0;
#X connect 42 0 35 0;
#X connect 43 0 34 0;
#X connect 44 0 30 0;
#X restore 87 403 pd test-signals;
#X text 104 383 <- record ->;
#N canvas 388 86 722 350 insample2 0;
#N canvas 0 22 450 300 (subpatch) 0;
#X array \$0-sample2 1.99433e+06 float 0;
#X coords 0 1 1.99432e+06 -1 400 150 1;
#X restore 298 24 graph;
#X obj 19 74 unpack s f;
#X obj 19 184 soundfiler;
#X text 356 250 read a sample;
#X obj 276 249 loadbang;
#X obj 19 100 t s b;
#X obj 19 135 pack s s;
#X msg 19 160 read -resize \$1 \$2;
#X obj 74 46 44100;
#X obj 19 47 t a b;
#X obj 19 247 /;
#X obj 19 271 * 1000;
#X obj 19 23 r read-sound2;
#X obj 116 74 s \$0-insamprate2;
#X obj 75 99 symbol \$0-sample2;
#X obj 29 208 s \$0-samplength2;
#X obj 57 247 r \$0-insamprate2;
#X obj 19 294 s \$0-samp2-msec;
#X msg 276 273 \; read-sound2 ../sound/voice.wav;
#X connect 1 0 5 0;
#X connect 1 1 13 0;
#X connect 2 0 10 0;
#X connect 2 0 15 0;
#X connect 4 0 18 0;
#X connect 5 0 6 0;
#X connect 5 1 14 0;
#X connect 6 0 7 0;
#X connect 7 0 2 0;
#X connect 8 0 13 0;
#X connect 9 0 1 0;
#X connect 9 1 8 0;
#X connect 10 0 11 0;
#X connect 11 0 17 0;
#X connect 12 0 9 0;
#X connect 14 0 6 1;
#X connect 16 0 10 1;
#X restore 334 430 pd insample2;
#N canvas 388 86 722 350 insample1 0;
#N canvas 0 22 450 300 (subpatch) 0;
#X array \$0-sample 155944 float 0;
#X coords 0 1 155943 -1 400 150 1;
#X restore 259 24 graph;
#X obj 19 74 unpack s f;
#X obj 19 184 soundfiler;
#X text 356 250 read a sample;
#X obj 276 249 loadbang;
#X obj 19 100 t s b;
#X obj 75 99 symbol \$0-sample;
#X obj 19 135 pack s s;
#X msg 19 160 read -resize \$1 \$2;
#X obj 74 46 44100;
#X obj 19 47 t a b;
#X obj 29 208 s \$0-samplength;
#X obj 116 74 s \$0-insamprate;
#X obj 19 247 /;
#X obj 19 271 * 1000;
#X obj 19 294 s \$0-samp-msec;
#X obj 57 247 r \$0-insamprate;
#X obj 19 23 r read-sound1;
#X msg 276 273 \; read-sound1 ../sound/bell.aiff;
#X connect 1 0 5 0;
#X connect 1 1 12 0;
#X connect 2 0 11 0;
#X connect 2 0 13 0;
#X connect 4 0 18 0;
#X connect 5 0 7 0;
#X connect 5 1 6 0;
#X connect 6 0 7 1;
#X connect 7 0 8 0;
#X connect 8 0 2 0;
#X connect 9 0 12 0;
#X connect 10 0 1 0;
#X connect 10 1 9 0;
#X connect 13 0 14 0;
#X connect 14 0 15 0;
#X connect 16 0 13 1;
#X connect 17 0 10 0;
#X restore 334 408 pd insample1;
#X floatatom 453 432 5 0 0 0 - #0-samp2-msec -;
#N canvas 0 110 565 454 hann-window 0;
#N canvas 0 22 450 300 (subpatch) 0;
#X array \$0-hann 1024 float 0;
#X coords 0 1 1023 0 300 100 1;
#X restore 82 311 graph;
#X obj 378 165 osc~;
#X obj 378 190 *~ -0.5;
#X obj 378 214 +~ 0.5;
#X obj 331 247 tabwrite~ \$0-hann;
#X obj 37 88 r window-size;
#X obj 38 173 /;
#X obj 127 142 samplerate~;
#X obj 38 251 s window-sec;
#X obj 177 204 swap;
#X obj 177 228 /;
#X obj 177 252 s window-hz;
#X obj 49 201 * 1000;
#X obj 49 228 s window-msec;
#X obj 38 115 t f b f;
#X msg 173 92 resize \$1;
#X obj 173 116 s \$0-hann;
#X obj 330 105 r window-hz;
#X msg 382 130 0;
#X obj 330 131 t f b;
#X text 15 8 calculate Hann window table (variable window size) and
constants window-hz (fundamental frequency of analysis) \, window-sec
and window-msec (analysis window size in seconds and msec).;
#X connect 1 0 2 0;
#X connect 2 0 3 0;
#X connect 3 0 4 0;
#X connect 5 0 14 0;
#X connect 6 0 8 0;
#X connect 6 0 12 0;
#X connect 7 0 6 1;
#X connect 7 0 9 1;
#X connect 9 0 10 0;
#X connect 9 1 10 1;
#X connect 10 0 11 0;
#X connect 12 0 13 0;
#X connect 14 0 6 0;
#X connect 14 0 9 0;
#X connect 14 1 7 0;
#X connect 14 2 15 0;
#X connect 15 0 16 0;
#X connect 17 0 19 0;
#X connect 18 0 1 1;
#X connect 19 0 1 0;
#X connect 19 1 4 0;
#X connect 19 1 18 0;
#X restore 334 455 pd hann-window;
#X text 509 412 sample lengths \,;
#X text 510 427 msec;
#X text 27 35 This is a Fourier-based "vocoder" (perhaps better called
a "timbre stamp") like the one the Convolution brothers use. The "control
source" is analyzed to get its spectral envelope \, which is then stamped
onto the "filter input" by adjusting the amplitudes of its Fourier
transform. The "filter input" is first whitened by the compression
algorithm from the previous patch in this series. The best value of
"squelch" to use depends critically on what kind of sounds are used
for the filter input and the control source.;
#X text 402 498 updated for Pd version 0.39;
#N canvas 399 41 844 774 p2s 0;
#X obj 63 101 phasor~;
#X obj 143 -100 ftom;
#X obj 143 -71 + 0.5;
#X obj 142 -44 int;
#X obj 183 219 phasor~;
#X obj 142 -149 inlet;
#X obj 207 318 phasor~;
#X obj 214 399 phasor~;
#X obj 211 486 phasor~;
#X obj 65 479 hip~ 4;
#X obj 66 517 outlet~;
#X obj 143 34 mtof;
#X obj 181 186 *~ 0.5;
#X obj 208 292 *~ 2;
#X obj 215 373 *~ 3;
#X obj 211 455 *~ 4;
#X obj 116 410 *~;
#X obj 139 375 lop~ 1;
#X obj 429 -102 inlet;
#X obj 206 344 *~ 1;
#X obj 59 243 loadbang;
#X msg 58 269 0.5;
#X obj 213 425 *~ 1;
#X obj 210 512 *~ 1;
#X obj 429 -56 *;
#X obj 428 -4 * 2;
#X obj 186 246 *~ 0.5;
#X obj 142 67 lop~ 20;
#X obj 213 -136 r songKey;
#X obj 97 451 *~ 0.5;
#X obj 213 -102 select -1;
#X obj 273 -73 t f b;
#X msg 213 -73 1;
#X obj 145 -9 spigot;
#X obj 210 -8 spigot;
#X msg 247 -47 0;
#X msg 302 -47 0;
#X msg 336 -46 1;
#X obj 305 -132 loadbang;
#X msg 307 -104 -1;
#N canvas 224 196 1114 602 mle 0;
#N canvas 591 32 900 736 key 0;
#X obj 77 46 inlet;
#X msg 76 144 0.8333 0.8333 0.8333 0.8333 0.8333 0.8333 0.8333 0.8333
0.8333 0.8333 0.8333 0.8333;
#X msg 156 205 0.2 0 0.1 0.025 0.2 0.1 0 0.2 0.025 0.1 0.05 0.1;
#X obj 155 239 list-rot;
#X obj 170 116 t b f;
#X obj 208 177 * -1;
#X obj 105 351 outlet;
#X obj 75 86 moses 0;
#X connect 0 0 7 0;
#X connect 1 0 6 0;
#X connect 2 0 3 0;
#X connect 3 0 6 0;
#X connect 4 0 2 0;
#X connect 4 1 5 0;
#X connect 5 0 3 1;
#X connect 7 0 1 0;
#X connect 7 1 4 0;
#X restore 578 171 pd key;
#X obj 470 75 inlet;
#X obj 471 260 list;
#X obj 497 140 / 12;
#X obj 470 117 t f f;
#X obj 497 180 s octaveNum;
#X obj 472 200 mod 12;
#X obj 579 69 inlet;
#X obj 464 355 outlet;
#N canvas 494 282 619 426 mle 0;
#X obj 333 103 list-idx;
#X obj 332 143 t f f;
#X obj 358 168 * 0.5;
#X obj 325 244 /;
#X obj 325 390 outlet;
#X floatatom 343 124 5 0 0 0 - - -;
#X floatatom 365 190 5 0 0 0 - - -;
#X floatatom 355 231 5 0 0 0 - - -;
#X floatatom 206 229 5 0 0 0 - - -;
#X floatatom 328 265 5 0 0 0 - - -;
#X obj 379 15 inlet;
#X obj 333 16 inlet;
#X obj 356 207 + 0.5;
#X obj 406 214 r octaveNum;
#X obj 389 279 +;
#X obj 406 241 * 12;
#X obj 357 313 pack f f;
#X connect 0 0 1 0;
#X connect 0 0 5 0;
#X connect 1 0 3 0;
#X connect 1 1 2 0;
#X connect 2 0 12 0;
#X connect 2 0 6 0;
#X connect 3 0 9 0;
#X connect 3 0 16 0;
#X connect 10 0 0 1;
#X connect 10 0 14 0;
#X connect 11 0 0 0;
#X connect 12 0 7 0;
#X connect 12 0 3 1;
#X connect 13 0 15 0;
#X connect 14 0 16 1;
#X connect 15 0 14 1;
#X connect 16 0 4 0;
#X restore 468 291 pd mle;
#N canvas 24 102 619 426 mle 0;
#X obj 333 103 list-idx;
#X obj 332 143 t f f;
#X obj 359 178 * 0.5;
#X obj 325 244 /;
#X floatatom 372 129 5 0 0 0 - - -;
#X floatatom 405 207 5 0 0 0 - - -;
#X floatatom 357 231 5 0 0 0 - - -;
#X floatatom 310 210 5 0 0 0 - - -;
#X floatatom 331 269 5 0 0 0 - - -;
#X obj 379 15 inlet;
#X obj 333 16 inlet;
#X obj 379 66 - 1;
#X obj 368 377 outlet;
#X obj 411 232 r octaveNum;
#X obj 394 297 +;
#X obj 411 259 * 12;
#X obj 362 331 pack f f;
#X obj 310 183 * 0.1;
#X obj 356 207 + 0.05;
#X connect 0 0 1 0;
#X connect 0 0 4 0;
#X connect 1 0 17 0;
#X connect 1 1 2 0;
#X connect 2 0 5 0;
#X connect 2 0 18 0;
#X connect 3 0 8 0;
#X connect 3 0 16 0;
#X connect 9 0 11 0;
#X connect 10 0 0 0;
#X connect 11 0 0 1;
#X connect 11 0 14 0;
#X connect 13 0 15 0;
#X connect 14 0 16 1;
#X connect 15 0 14 1;
#X connect 16 0 12 0;
#X connect 17 0 3 0;
#X connect 17 0 7 0;
#X connect 18 0 6 0;
#X connect 18 0 3 1;
#X restore 420 292 pd mle;
#N canvas 812 31 619 426 mle 0;
#X obj 333 103 list-idx;
#X obj 332 143 t f f;
#X obj 361 161 * 0.5;
#X obj 325 244 /;
#X obj 327 402 outlet;
#X floatatom 337 125 5 0 0 0 - - -;
#X floatatom 313 211 5 0 0 0 - - -;
#X floatatom 363 230 5 0 0 0 - - -;
#X floatatom 206 229 5 0 0 0 - - -;
#X floatatom 369 184 5 0 0 0 - - -;
#X floatatom 332 272 5 0 0 0 - - -;
#X obj 465 8 inlet;
#X obj 333 16 inlet;
#X obj 465 41 + 1;
#X obj 381 254 r octaveNum;
#X obj 364 319 +;
#X obj 381 281 * 12;
#X obj 332 353 pack f f;
#X floatatom 486 80 5 0 0 0 - - -;
#X obj 410 84 mod 12;
#X obj 312 188 * 0.1;
#X obj 361 207 + 0.05;
#X connect 0 0 1 0;
#X connect 0 0 5 0;
#X connect 1 0 20 0;
#X connect 1 1 2 0;
#X connect 2 0 9 0;
#X connect 2 0 21 0;
#X connect 3 0 10 0;
#X connect 3 0 17 0;
#X connect 11 0 13 0;
#X connect 12 0 0 0;
#X connect 13 0 15 0;
#X connect 13 0 18 0;
#X connect 13 0 19 0;
#X connect 14 0 16 0;
#X connect 15 0 17 1;
#X connect 16 0 15 1;
#X connect 17 0 4 0;
#X connect 19 0 0 1;
#X connect 20 0 3 0;
#X connect 20 0 6 0;
#X connect 21 0 7 0;
#X connect 21 0 3 1;
#X restore 517 294 pd mle;
#X obj 471 225 t b f;
#X obj 496 160 int;
#N canvas 324 295 540 425 rank 0;
#X obj 109 -98 inlet;
#X obj 112 21 list split 1;
#X msg 166 88 add2 \$1;
#X msg 166 111 67 66 65 67 66 65 67 66 65 67 66 65 67 66 65 67 66 65
67 66 65 67 66 65 67 66 65 67 66 65 67 66 65 67 66 65 67 66 65 67 66
65 67 66 65 67 66 65;
#X obj 128 245 findGreatest;
#X obj 128 192 list-group 3;
#X obj 232 87 t b f;
#X obj 224 148 list-idx;
#X obj 226 172 t b b f;
#X obj 263 205 outlet;
#X msg 232 4 set;
#X msg 195 164 3;
#X connect 0 0 1 0;
#X connect 1 0 5 0;
#X connect 1 1 2 0;
#X connect 2 0 3 0;
#X connect 3 0 7 0;
#X connect 4 1 6 0;
#X connect 5 0 4 0;
#X connect 6 0 3 0;
#X connect 6 1 7 1;
#X connect 7 0 8 0;
#X connect 8 0 11 0;
#X connect 8 1 10 0;
#X connect 8 2 9 0;
#X connect 10 0 3 0;
#X connect 11 0 5 1;
#X restore 464 325 pd rank;
#X obj 634 102 loadbang;
#X msg 635 128 0;
#X connect 0 0 2 1;
#X connect 1 0 4 0;
#X connect 2 0 11 0;
#X connect 2 0 9 0;
#X connect 2 0 10 0;
#X connect 3 0 13 0;
#X connect 4 0 6 0;
#X connect 4 1 3 0;
#X connect 6 0 12 0;
#X connect 7 0 0 0;
#X connect 9 0 14 0;
#X connect 10 0 14 0;
#X connect 11 0 14 0;
#X connect 12 0 2 0;
#X connect 12 1 11 1;
#X connect 12 1 9 1;
#X connect 12 1 10 1;
#X connect 13 0 5 0;
#X connect 14 0 8 0;
#X connect 15 0 16 0;
#X connect 16 0 0 0;
#X restore 281 -7 pd mle;
#X connect 0 0 9 0;
#X connect 1 0 2 0;
#X connect 2 0 3 0;
#X connect 3 0 33 0;
#X connect 3 0 40 0;
#X connect 4 0 26 0;
#X connect 5 0 1 0;
#X connect 6 0 19 0;
#X connect 7 0 22 0;
#X connect 8 0 23 0;
#X connect 9 0 10 0;
#X connect 11 0 27 0;
#X connect 12 0 4 0;
#X connect 13 0 6 0;
#X connect 14 0 7 0;
#X connect 15 0 8 0;
#X connect 16 0 29 0;
#X connect 17 0 16 1;
#X connect 18 0 24 1;
#X connect 18 0 24 0;
#X connect 19 0 16 0;
#X connect 20 0 21 0;
#X connect 21 0 17 0;
#X connect 22 0 16 0;
#X connect 23 0 16 0;
#X connect 24 0 25 0;
#X connect 25 0 17 0;
#X connect 26 0 16 0;
#X connect 27 0 0 0;
#X connect 27 0 12 0;
#X connect 27 0 13 0;
#X connect 27 0 14 0;
#X connect 27 0 15 0;
#X connect 28 0 30 0;
#X connect 29 0 9 0;
#X connect 30 0 32 0;
#X connect 30 0 35 0;
#X connect 30 1 31 0;
#X connect 31 0 40 1;
#X connect 31 1 36 0;
#X connect 31 1 37 0;
#X connect 32 0 33 1;
#X connect 33 0 11 0;
#X connect 34 0 11 0;
#X connect 35 0 34 1;
#X connect 36 0 33 1;
#X connect 37 0 34 1;
#X connect 38 0 39 0;
#X connect 39 0 30 0;
#X connect 40 0 34 0;
#X restore 249 467 pd p2s;
#X msg 405 222 riana.wav;
#X obj 260 380 inlet~;
#X obj 81 536 outlet~;
#X obj 536 248 inlet;
#X obj 666 290 inlet;
#X obj 538 289 max 1;
#X obj 80 503 hip~ 4;
#X obj 200 507 helmholtz~ 512 1;
#X connect 0 0 39 0;
#X connect 6 0 7 0;
#X connect 8 0 11 0;
#X connect 9 0 11 0;
#X connect 10 0 11 0;
#X connect 12 0 15 0;
#X connect 13 0 15 0;
#X connect 14 0 15 0;
#X connect 20 0 22 0;
#X connect 21 0 22 1;
#X connect 22 1 0 1;
#X connect 22 1 40 0;
#X connect 32 0 0 0;
#X connect 33 0 15 0;
#X connect 34 0 0 1;
#X connect 34 0 40 0;
#X connect 36 0 38 0;
#X connect 37 0 32 1;
#X connect 38 0 7 0;
#X connect 39 0 35 0;
#X connect 40 1 32 0;
