#N canvas 225 89 450 300 10;
#X obj 160 36 inlet~;
#X obj 248 38 inlet~;
#X obj 162 144 *~;
#X obj 251 145 *~;
#X obj 179 113 lop~ 1;
#X obj 270 112 lop~ 1;
#X obj 179 92 birdInvert 1;
#X obj 347 41 inlet;
#X obj 345 74 loadbang;
#X msg 346 99 0;
#X obj 197 191 outlet~;
#X connect 0 0 2 0;
#X connect 1 0 3 0;
#X connect 2 0 10 0;
#X connect 3 0 10 0;
#X connect 4 0 2 1;
#X connect 5 0 3 1;
#X connect 6 0 4 0;
#X connect 7 0 6 0;
#X connect 7 0 5 0;
#X connect 8 0 9 0;
#X connect 9 0 5 0;
#X connect 9 0 6 0;
