#N canvas 28 74 1309 789 10;
#X obj 892 -44 \$0;
#X obj 846 -21 pack f f;
#X obj 849 -62 t f b;
#X obj 650 -185 inlet;
#X obj 649 -132 bng 15 250 50 0 empty empty empty 17 7 0 10 -262144
-1 -1;
#X obj 648 -105 s \$0-play;
#X obj 690 -83 s \$0-stop;
#X obj 743 187 s \$0-record;
#X obj 185 -185 inlet;
#X obj 253 -188 r \$0-record;
#X obj 336 -189 r \$0-stop;
#X obj 405 -189 r \$0-play;
#X obj 210 332 r \$0-theIndex;
#X obj 213 669 spigot;
#X obj 246 605 r \$0-play;
#X msg 245 630 1;
#X obj 322 606 r \$0-stop;
#X msg 324 628 0;
#X obj 388 605 r \$0-record;
#X obj -9 -175 table \$0-velocityBuffer;
#X obj 196 176 tabwrite \$0-velocityBuffer;
#X obj 299 572 tabread \$0-velocityBuffer;
#X obj 295 736 spigot;
#X obj 329 685 r \$0-play;
#X msg 328 710 1;
#X obj 399 688 r \$0-stop;
#X msg 401 710 0;
#X obj 471 685 r \$0-record;
#X msg 470 704 0;
#X obj 180 921 outlet;
#X obj 849 -90 f;
#X obj 769 -129 s \$0-theIndex;
#X obj -11 -142 table \$0-noteBuffer;
#X obj 161 124 tabwrite \$0-noteBuffer;
#X obj 213 532 tabread \$0-noteBuffer;
#X msg 845 4 \$2-patternBuffer resize \$1 \;;
#X obj 853 36 print;
#X msg 842 61 \$2-noteBuffer resize \$1 \;;
#X obj 842 98 print;
#X obj 688 -126 bng 15 250 50 0 empty empty empty 17 7 0 10 -262144
-1 -1;
#X obj 726 -53 t f b;
#X obj 752 -23 \$1;
#X obj 726 5 ==;
#X obj 724 32 sel 0 1;
#X obj 723 114 s \$0-play;
#X obj 874 -111 s \$0-clear;
#X obj 505 -158 r \$0-clear;
#X obj 506 -66 f;
#X obj 505 -18 until;
#X obj 505 8 f;
#X obj 532 9 + 1;
#X obj 505 38 mod;
#X obj 503 64 t b f;
#X msg 504 87 0;
#X obj 507 -125 t b;
#X obj 519 -44 print toUntil;
#X obj 891 -73 s \$0-theLength;
#X obj 551 -121 r \$0-theLength;
#X obj 564 14 r \$0-theLength;
#X obj 558 -78 print theLength;
#X obj 211 444 spigot;
#X obj 238 754 f;
#X obj 222 779 ==;
#X obj 212 728 t f f f b;
#X obj 193 830 spigot;
#X obj 227 804 birdInvert 1;
#X obj 180 889 pack \$1 f f;
#X obj 190 859 t b f;
#X obj 184 -130 spigot;
#X msg 337 -166 0;
#X obj 180 -86 unpack f f f;
#X msg 405 -163 0;
#X msg 253 -165 1;
#X obj 186 -26 print \$1-toBuffer;
#X obj 211 478 t f f f;
#X obj 742 146 t b b;
#X obj 766 217 s \$0-clear;
#X msg 387 626 0;
#X obj 1048 -75 pack s \$1 \$0;
#X obj 1047 31 print filename;
#X obj 1048 59 pack s \$1 \$0;
#X obj 1047 161 print filename;
#X obj 649 -162 route play stop record clock length clear write read
;
#X msg 1045 -49 \; \$3-noteBuffer write \$2-notes-\$1 \;;
#X msg 1065 -17 \; \$3-velocityBuffer write \$2-vel-\$1 \;;
#X msg 1048 93 \; \$3-noteBuffer read \$2-notes-\$1 \;;
#X msg 1065 113 \; \$3-velocityBuffer read \$2-vel-\$1 \;;
#X obj 212 400 mod 32;
#X connect 0 0 1 1;
#X connect 1 0 35 0;
#X connect 1 0 37 0;
#X connect 2 0 1 0;
#X connect 2 1 0 0;
#X connect 3 0 82 0;
#X connect 4 0 5 0;
#X connect 8 0 68 0;
#X connect 9 0 72 0;
#X connect 10 0 69 0;
#X connect 11 0 71 0;
#X connect 12 0 87 0;
#X connect 13 0 63 0;
#X connect 14 0 15 0;
#X connect 15 0 13 1;
#X connect 15 0 60 1;
#X connect 16 0 17 0;
#X connect 17 0 13 1;
#X connect 17 0 60 1;
#X connect 18 0 77 0;
#X connect 21 0 22 0;
#X connect 22 0 66 2;
#X connect 23 0 24 0;
#X connect 24 0 22 1;
#X connect 25 0 26 0;
#X connect 26 0 22 1;
#X connect 27 0 28 0;
#X connect 28 0 22 1;
#X connect 30 0 2 0;
#X connect 30 0 56 0;
#X connect 34 0 13 0;
#X connect 35 0 36 0;
#X connect 37 0 38 0;
#X connect 39 0 6 0;
#X connect 40 0 42 0;
#X connect 40 1 41 0;
#X connect 41 0 42 1;
#X connect 42 0 43 0;
#X connect 43 0 44 0;
#X connect 43 1 75 0;
#X connect 46 0 54 0;
#X connect 47 0 48 0;
#X connect 47 0 55 0;
#X connect 48 0 49 0;
#X connect 49 0 50 0;
#X connect 49 0 51 0;
#X connect 50 0 49 1;
#X connect 51 0 52 0;
#X connect 52 0 53 0;
#X connect 52 1 20 1;
#X connect 52 1 33 1;
#X connect 53 0 20 0;
#X connect 53 0 33 0;
#X connect 54 0 47 0;
#X connect 57 0 47 1;
#X connect 57 0 59 0;
#X connect 58 0 51 1;
#X connect 60 0 74 0;
#X connect 61 0 62 1;
#X connect 62 0 65 0;
#X connect 63 0 64 0;
#X connect 63 1 62 0;
#X connect 63 2 61 1;
#X connect 63 3 61 0;
#X connect 64 0 67 0;
#X connect 65 0 64 1;
#X connect 66 0 29 0;
#X connect 67 0 66 0;
#X connect 67 1 66 1;
#X connect 68 0 70 0;
#X connect 68 0 73 0;
#X connect 69 0 68 1;
#X connect 70 0 33 0;
#X connect 70 1 20 0;
#X connect 70 2 20 1;
#X connect 70 2 33 1;
#X connect 71 0 68 1;
#X connect 72 0 68 1;
#X connect 74 0 34 0;
#X connect 74 1 21 0;
#X connect 75 0 7 0;
#X connect 75 1 76 0;
#X connect 77 0 13 1;
#X connect 77 0 60 1;
#X connect 78 0 83 0;
#X connect 78 0 84 0;
#X connect 80 0 85 0;
#X connect 80 0 86 0;
#X connect 82 0 4 0;
#X connect 82 1 39 0;
#X connect 82 2 40 0;
#X connect 82 3 31 0;
#X connect 82 4 30 1;
#X connect 82 4 30 0;
#X connect 82 5 45 0;
#X connect 82 6 78 0;
#X connect 82 7 80 0;
#X connect 83 0 79 0;
#X connect 84 0 79 0;
#X connect 85 0 81 0;
#X connect 86 0 81 0;
#X connect 87 0 60 0;
#X coords 0 789 1 788 700 420 0;
