#N canvas 496 36 821 512 10;
#X obj 320 239 mm_sample_slicer~;
#X msg 321 199 play;
#N canvas 342 65 1099 724 samples 0;
#X obj 401 461 s \$0-toSampler;
#X msg 477 180 beats 2 \, sample gospel1.aif;
#X msg 179 185 beats 4 \, sample rasta8.wav;
#X msg 217 269 beats 2 \, sample rasta9.aif;
#X msg 214 291 beats 4 \, sample rasta10.wav;
#X msg 248 312 beats 4 \, sample rasta11.aif;
#X msg 232 333 beats 2 \, sample rasta13.aif;
#X msg 163 206 beats 2 \, sample rasta14.aif;
#X msg 200 228 beats 2 \, sample rasta4.aif;
#X msg 194 249 beats 4 \, sample rasta16.wav;
#X msg 224 357 beats 6 \, sample rasta21.aif;
#X msg 208 378 beats 2 \, sample rasta18.aif;
#X msg 205 399 beats 2 \, sample rasta19.aif;
#X msg 199 425 beats 1 \, sample rasta20.aif;
#X obj 132 457 s \$0-toSampler;
#X msg 466 229 beats 8 \, sample rap1.wav;
#X msg 479 252 beats 8 \, sample rap2.wav;
#X msg 487 281 beats 8 \, sample other1.aif;
#X msg 499 305 beats 2 \, sample african1.wav;
#X msg 509 330 beats 4 \, sample african2.wav;
#X msg 518 353 beats 2 \, sample african3.wav;
#X msg 548 377 beats 4 \, sample african4.wav;
#X msg 560 403 beats 2 \, sample african5.wav;
#X obj 162 148 sel 0 1 2 3 4 5 6 7 8 9 10 11;
#X obj 281 501 r \$0-toSampler;
#X obj 282 632 outlet;
#X obj 144 -86 t b a;
#X obj 284 -138 loadbang;
#X obj 282 587 list append 0;
#X obj 283 609 list trim;
#X obj 290 113 s \$0-sampleCount;
#X obj 354 559 r \$0-sampleCount;
#X obj 272 -7 f;
#X obj 308 -7 + 1;
#X obj 270 17 mod 3;
#X msg 286 -106 1;
#X msg 209 -77 1;
#X obj 269 38 t b f f;
#X obj 312 63 sel 2;
#X msg 315 85 0;
#X obj 272 -60 metro 100;
#X msg 442 207 beats 4 \, sample eastern1.wav;
#X obj 362 -142 r loadNewSamples;
#X msg 596 431 beats 2 \, sample ah_60_2_60.wav;
#X msg 609 454 beats 4 \, sample ah_60_4_60.wav;
#X obj 441 149 sel 12 13 14 15 16 17 18 19 20 21 22 23;
#X obj 690 179 sel 24 25 26;
#X msg 709 222 beats 4 \, sample ooh_60_1_60.wav;
#X msg 722 258 beats 8 \, sample ooh_60_2_60.wav;
#X msg 736 303 beats 8 \, sample ooh_60_4_60.wav;
#X obj 161 109 random 27;
#X obj 556 -223 r \$0-timer;
#X msg 558 -126 seed \$1;
#X obj 557 -148 mod 150;
#X connect 1 0 0 0;
#X connect 2 0 14 0;
#X connect 3 0 14 0;
#X connect 4 0 14 0;
#X connect 5 0 14 0;
#X connect 6 0 14 0;
#X connect 7 0 14 0;
#X connect 8 0 14 0;
#X connect 9 0 14 0;
#X connect 10 0 14 0;
#X connect 11 0 14 0;
#X connect 12 0 14 0;
#X connect 13 0 14 0;
#X connect 15 0 0 0;
#X connect 16 0 0 0;
#X connect 17 0 0 0;
#X connect 18 0 0 0;
#X connect 19 0 0 0;
#X connect 20 0 0 0;
#X connect 21 0 0 0;
#X connect 22 0 0 0;
#X connect 23 0 7 0;
#X connect 23 1 2 0;
#X connect 23 2 9 0;
#X connect 23 3 8 0;
#X connect 23 4 4 0;
#X connect 23 5 3 0;
#X connect 23 6 6 0;
#X connect 23 7 5 0;
#X connect 23 8 10 0;
#X connect 23 9 11 0;
#X connect 23 10 12 0;
#X connect 23 11 13 0;
#X connect 23 12 45 0;
#X connect 24 0 28 0;
#X connect 26 0 36 0;
#X connect 26 1 50 0;
#X connect 27 0 35 0;
#X connect 28 0 29 0;
#X connect 29 0 25 0;
#X connect 31 0 28 1;
#X connect 32 0 33 0;
#X connect 32 0 34 0;
#X connect 33 0 32 1;
#X connect 34 0 37 0;
#X connect 35 0 40 0;
#X connect 36 0 40 0;
#X connect 37 0 50 0;
#X connect 37 1 30 0;
#X connect 37 2 38 0;
#X connect 38 0 39 0;
#X connect 39 0 40 0;
#X connect 40 0 32 0;
#X connect 41 0 0 0;
#X connect 42 0 35 0;
#X connect 43 0 0 0;
#X connect 44 0 0 0;
#X connect 45 0 41 0;
#X connect 45 1 1 0;
#X connect 45 2 15 0;
#X connect 45 3 16 0;
#X connect 45 4 17 0;
#X connect 45 5 18 0;
#X connect 45 6 19 0;
#X connect 45 7 20 0;
#X connect 45 8 21 0;
#X connect 45 9 22 0;
#X connect 45 10 43 0;
#X connect 45 11 44 0;
#X connect 45 12 46 0;
#X connect 46 0 47 0;
#X connect 46 1 48 0;
#X connect 46 2 49 0;
#X connect 47 0 0 0;
#X connect 48 0 0 0;
#X connect 49 0 0 0;
#X connect 50 0 23 0;
#X connect 51 0 53 0;
#X connect 52 0 26 0;
#X connect 53 0 52 0;
#X restore 417 200 pd samples;
#X obj 319 342 dac~;
#X msg 324 145 slice;
#X connect 0 0 3 1;
#X connect 0 0 3 0;
#X connect 1 0 0 0;
#X connect 2 0 0 1;
#X connect 4 0 0 0;
