#N canvas 117 116 692 526 10;
#X obj 255 124 noise~;
#X obj 292 205 vline~;
#X obj 329 506 delwrite~ \$0-kickBuffer 500;
#X obj 234 367 *~;
#X obj 269 338 *~;
#X obj 283 393 delread~ \$0-kickBuffer 20;
#X obj 224 503 outlet~;
#X obj 294 425 delread~ \$0-kickBuffer 70;
#X obj 170 163 osc~;
#X obj 151 62 loadbang;
#X obj 297 23 inlet;
#X obj 297 85 unpack b f;
#X obj 358 125 / 127;
#X obj 300 360 lop~ 1;
#X obj 233 399 *~;
#X msg 171 126 20;
#X obj 205 184 *~ 1;
#X obj 200 225 +~;
#X obj 343 466 *~ 0.2;
#X obj 244 235 birdFilter~ 1000 1500 2000 2500;
#X msg 298 166 0 \, 1 2 \, 0 100 50;
#X obj 241 277 *~ 1;
#X connect 0 0 17 1;
#X connect 0 0 19 0;
#X connect 1 0 4 1;
#X connect 1 0 4 0;
#X connect 3 0 14 0;
#X connect 4 0 3 1;
#X connect 5 0 6 0;
#X connect 5 0 18 0;
#X connect 7 0 6 0;
#X connect 7 0 18 0;
#X connect 8 0 16 0;
#X connect 9 0 15 0;
#X connect 10 0 11 0;
#X connect 11 0 20 0;
#X connect 11 1 12 0;
#X connect 12 0 13 0;
#X connect 13 0 14 1;
#X connect 14 0 6 0;
#X connect 14 0 2 0;
#X connect 15 0 8 0;
#X connect 16 0 17 0;
#X connect 18 0 2 0;
#X connect 19 0 21 0;
#X connect 20 0 1 0;
#X connect 21 0 3 0;
