#N canvas 231 124 995 512 10;
#X obj 26 67 table \$0-score;
#X obj 680 32 inlet;
#X obj 682 162 t b f;
#X obj 681 188 \$0;
#X obj 681 219 pack f f;
#X msg 682 258 \; \$1-score resize \$2 \;;
#X obj 244 30 inlet;
#X obj 245 169 tabread \$0-score;
#X obj 247 311 outlet;
#X obj 294 249 tabwrite \$0-score;
#X obj 291 207 unpack f f;
#X obj 244 62 route play record;
#X obj 681 61 route length clear;
#X obj 731 85 list append bang;
#X obj 733 109 list trim;
#X obj 683 136 f \$1;
#X obj 623 95 loadbang;
#X obj 219 102 t f f;
#X obj 217 128 == \$1;
#X obj 216 149 select 1;
#X obj 319 309 outlet;
#X obj 215 185 t b b;
#X connect 1 0 12 0;
#X connect 2 0 3 0;
#X connect 2 1 4 1;
#X connect 3 0 4 0;
#X connect 4 0 5 0;
#X connect 6 0 11 0;
#X connect 7 0 8 0;
#X connect 10 0 9 0;
#X connect 10 1 9 1;
#X connect 11 0 17 0;
#X connect 11 1 10 0;
#X connect 12 0 15 1;
#X connect 12 0 15 0;
#X connect 12 1 13 0;
#X connect 13 0 14 0;
#X connect 14 0 15 0;
#X connect 15 0 2 0;
#X connect 16 0 15 0;
#X connect 17 0 18 0;
#X connect 17 1 7 0;
#X connect 18 0 19 0;
#X connect 19 0 21 0;
#X connect 21 1 20 0;
