#N canvas 0 59 1440 804 10;
#X obj 441 24 inlet;
#X obj 444 199 mtof;
#X obj 451 367 phasor~;
#X obj 903 330 inlet;
#X obj 456 740 outlet~;
#N canvas 236 134 986 503 wave 0;
#N canvas 621 248 450 300 sin 0;
#X obj 52 11 inlet~;
#X obj 51 196 *~;
#X obj 52 240 outlet~;
#X obj 121 -35 inlet;
#X obj 121 34 select 0 1;
#X obj 207 141 switch~;
#X obj 180 70 t b b;
#X msg 205 109 1;
#X msg 171 109 1;
#X obj 69 175 lop~ 1;
#X obj 113 70 t b b;
#X msg 138 109 0;
#X obj 104 90 del 30;
#X msg 104 109 0;
#X obj 52 71 *~ 6.28;
#X obj 51 105 cos~;
#X obj 118 -2 == 0;
#X connect 0 0 14 0;
#X connect 1 0 2 0;
#X connect 3 0 16 0;
#X connect 4 0 10 0;
#X connect 4 1 6 0;
#X connect 6 0 8 0;
#X connect 6 1 7 0;
#X connect 7 0 5 0;
#X connect 8 0 9 0;
#X connect 9 0 1 1;
#X connect 10 0 12 0;
#X connect 10 1 11 0;
#X connect 11 0 9 0;
#X connect 12 0 13 0;
#X connect 13 0 5 0;
#X connect 14 0 15 0;
#X connect 15 0 1 0;
#X connect 16 0 4 0;
#X restore 117 197 pd sin;
#N canvas 621 248 450 300 square 0;
#X obj -112 -4 inlet~;
#X obj 28 205 *~;
#X obj 29 249 outlet~;
#X obj 119 -44 inlet;
#X obj 121 34 select 0 1;
#X obj 207 141 switch~;
#X obj 180 70 t b b;
#X msg 205 109 1;
#X msg 171 109 1;
#X obj 46 184 lop~ 1;
#X obj 113 70 t b b;
#X msg 138 109 0;
#X obj 104 90 del 30;
#X msg 104 109 0;
#X obj -114 41 expr~ if($v1<0.5 \, -1 \, 1);
#X obj 118 4 == 2;
#X connect 0 0 14 0;
#X connect 1 0 2 0;
#X connect 3 0 15 0;
#X connect 4 0 10 0;
#X connect 4 1 6 0;
#X connect 6 0 8 0;
#X connect 6 1 7 0;
#X connect 7 0 5 0;
#X connect 8 0 9 0;
#X connect 9 0 1 1;
#X connect 10 0 12 0;
#X connect 10 1 11 0;
#X connect 11 0 9 0;
#X connect 12 0 13 0;
#X connect 13 0 5 0;
#X connect 14 0 1 0;
#X connect 15 0 4 0;
#X restore 298 191 pd square;
#X obj 109 24 inlet~;
#X obj 213 198 *~;
#X obj 230 175 lop~ 1;
#X obj 348 148 r \$0-wave;
#X obj 148 155 r \$0-wave;
#X obj 229 116 r \$0-wave;
#X obj 229 145 == 1;
#X obj 217 330 hip~ 5;
#X obj 218 359 outlet~;
#X obj 413 83 r~ theNoise;
#X obj 458 145 r \$0-wave;
#N canvas 846 160 450 300 sub1 0;
#X obj 56 -5 inlet~;
#X obj 103 239 *~;
#X obj 104 283 outlet~;
#X obj 300 -15 inlet;
#X obj 302 63 select 0 1;
#X obj 388 170 switch~;
#X obj 361 99 t b b;
#X msg 386 138 1;
#X msg 352 138 1;
#X obj 227 213 lop~ 1;
#X obj 294 99 t b b;
#X msg 319 138 0;
#X obj 285 119 del 30;
#X msg 285 138 0;
#X obj 299 33 == 3;
#X obj 82 23 r \$0-pitch;
#X floatatom 114 78 5 0 0 0 - - -;
#X obj 150 51 r \$0-noiseQ;
#X obj 150 82 t f f;
#X obj 88 192 *~;
#X obj 119 171 lop~ 1;
#X obj 80 122 vcf~;
#X msg 163 20 50;
#X obj 164 -7 loadbang;
#X obj 160 118 * 1.8;
#X connect 0 0 21 0;
#X connect 1 0 2 0;
#X connect 3 0 14 0;
#X connect 4 0 10 0;
#X connect 4 1 6 0;
#X connect 6 0 8 0;
#X connect 6 1 7 0;
#X connect 7 0 5 0;
#X connect 8 0 9 0;
#X connect 9 0 1 1;
#X connect 10 0 12 0;
#X connect 10 1 11 0;
#X connect 11 0 9 0;
#X connect 12 0 13 0;
#X connect 13 0 5 0;
#X connect 14 0 4 0;
#X connect 15 0 16 0;
#X connect 15 0 21 1;
#X connect 17 0 18 0;
#X connect 18 0 21 2;
#X connect 18 1 24 0;
#X connect 19 0 1 0;
#X connect 20 0 19 1;
#X connect 21 0 19 0;
#X connect 22 0 18 0;
#X connect 23 0 22 0;
#X connect 24 0 20 0;
#X restore 415 190 pd sub1;
#N canvas 378 177 901 641 sin 0;
#X obj 738 156 inlet;
#X obj 740 234 select 0 1;
#X obj 826 341 switch~;
#X obj 799 270 t b b;
#X msg 824 309 1;
#X msg 790 309 1;
#X obj 249 461 lop~ 1;
#X obj 732 270 t b b;
#X msg 757 309 0;
#X obj 723 290 del 30;
#X msg 723 309 0;
#X obj 131 476 *~;
#X obj 135 238 osc~;
#X obj 151 272 osc~;
#X obj 179 309 osc~;
#X obj 140 348 *~ 0.75;
#X obj 153 380 *~ 0.33;
#X obj 172 405 *~ 0.166;
#X obj 128 525 outlet~;
#X obj 136 155 r \$0-pitch;
#X obj 156 191 * 2;
#X obj 186 246 * 3;
#X obj 737 205 == 4;
#X connect 0 0 22 0;
#X connect 1 0 7 0;
#X connect 1 1 3 0;
#X connect 3 0 5 0;
#X connect 3 1 4 0;
#X connect 4 0 2 0;
#X connect 5 0 6 0;
#X connect 6 0 11 1;
#X connect 7 0 9 0;
#X connect 7 1 8 0;
#X connect 8 0 6 0;
#X connect 9 0 10 0;
#X connect 10 0 2 0;
#X connect 11 0 18 0;
#X connect 12 0 15 0;
#X connect 13 0 16 0;
#X connect 14 0 17 0;
#X connect 15 0 11 0;
#X connect 16 0 11 0;
#X connect 17 0 11 0;
#X connect 19 0 12 0;
#X connect 19 0 20 0;
#X connect 19 0 21 0;
#X connect 20 0 13 0;
#X connect 21 0 14 0;
#X connect 22 0 1 0;
#X restore 516 190 pd sin;
#X obj 528 142 r \$0-wave;
#X obj 622 58 r \$0-wave;
#X obj 612 33 r \$0-pitch;
#X obj 625 84 == 5;
#X obj 638 139 r \$0-seed2;
#X obj 652 163 r \$0-seed3;
#X obj 761 112 r \$0-wave;
#X obj 761 141 == 6;
#X obj 596 192 birdString;
#X obj 615 386 spigot;
#X obj 614 360 env~ 44100;
#X obj 616 415 print mallet;
#X obj 720 327 spigot;
#X obj 719 301 env~ 44100;
#X obj 721 356 print string;
#X obj 701 252 mm_mallet;
#X connect 0 0 9 0;
#X connect 1 0 9 0;
#X connect 2 0 1 0;
#X connect 2 0 0 0;
#X connect 2 0 3 0;
#X connect 2 0 23 0;
#X connect 2 0 30 0;
#X connect 3 0 9 0;
#X connect 4 0 3 1;
#X connect 5 0 1 1;
#X connect 6 0 0 1;
#X connect 7 0 8 0;
#X connect 8 0 4 0;
#X connect 9 0 10 0;
#X connect 11 0 13 0;
#X connect 11 0 30 2;
#X connect 12 0 13 1;
#X connect 13 0 9 0;
#X connect 14 0 9 0;
#X connect 15 0 14 0;
#X connect 16 0 18 0;
#X connect 17 0 23 1;
#X connect 17 0 30 1;
#X connect 18 0 23 2;
#X connect 18 0 24 1;
#X connect 19 0 23 3;
#X connect 20 0 23 4;
#X connect 21 0 22 0;
#X connect 22 0 27 1;
#X connect 22 0 30 3;
#X connect 23 0 9 0;
#X connect 23 0 25 0;
#X connect 24 0 26 0;
#X connect 25 0 24 0;
#X connect 27 0 29 0;
#X connect 28 0 27 0;
#X connect 30 0 9 0;
#X connect 30 0 28 0;
#X restore 450 405 pd wave;
#X obj 604 478 select 0 1;
#X obj 629 506 t b b;
#X obj 578 530 t b b;
#X obj 632 584 switch~;
#X msg 658 531 1;
#X msg 625 532 1;
#X obj 559 632 lop~ 1;
#X msg 601 556 0;
#X obj 577 580 del 30;
#X msg 578 606 0;
#X obj 1041 285 loadbang;
#X msg 1037 330 switch 1;
#X obj 456 688 *~;
#X obj 1013 428 s \$0-switch;
#X obj 605 447 r \$0-switch;
#X obj 446 283 line;
#X msg 445 254 \$1 \$2;
#X obj 444 228 pack f f;
#X obj 955 680 s \$0-gliss;
#X obj 548 160 r \$0-gliss;
#X msg 1109 330 gliss 0.1;
#X obj 873 444 s \$0-wave;
#X obj 1052 398 s \$0-randomize;
#X obj 819 56 r \$0-randomize;
#X msg 938 253 wave \$1;
#X obj 858 234 * 0.01;
#X msg 854 284 gliss \$1;
#X obj 441 53 t f f;
#X obj 443 146 sel 0;
#X obj 477 172 bng 15 250 50 0 empty empty empty 17 7 0 10 -262144
-1 -1;
#X msg 500 263 stop;
#X obj 454 109 f;
#X msg 540 263 0;
#X obj 482 193 t b b;
#X obj 573 361 s \$0-pitch;
#X obj 953 443 *;
#X obj 774 283 s \$0-noiseQ;
#X obj 775 252 + 50;
#X obj 775 216 random 100;
#X obj 846 412 t f f;
#X obj 846 463 + 1;
#X obj 868 537 s \$0-wave2;
#N canvas 448 182 898 484 wave 0;
#N canvas 621 248 450 300 sin 0;
#X obj 52 11 inlet~;
#X obj 51 196 *~;
#X obj 52 240 outlet~;
#X obj 121 -35 inlet;
#X obj 121 34 select 0 1;
#X obj 207 141 switch~;
#X obj 180 70 t b b;
#X msg 205 109 1;
#X msg 171 109 1;
#X obj 69 175 lop~ 1;
#X obj 113 70 t b b;
#X msg 138 109 0;
#X obj 104 90 del 30;
#X msg 104 109 0;
#X obj 52 71 *~ 6.28;
#X obj 51 105 cos~;
#X obj 118 -2 == 0;
#X connect 0 0 14 0;
#X connect 1 0 2 0;
#X connect 3 0 16 0;
#X connect 4 0 10 0;
#X connect 4 1 6 0;
#X connect 6 0 8 0;
#X connect 6 1 7 0;
#X connect 7 0 5 0;
#X connect 8 0 9 0;
#X connect 9 0 1 1;
#X connect 10 0 12 0;
#X connect 10 1 11 0;
#X connect 11 0 9 0;
#X connect 12 0 13 0;
#X connect 13 0 5 0;
#X connect 14 0 15 0;
#X connect 15 0 1 0;
#X connect 16 0 4 0;
#X restore 117 197 pd sin;
#N canvas 621 248 450 300 square 0;
#X obj -112 -4 inlet~;
#X obj 28 205 *~;
#X obj 29 249 outlet~;
#X obj 119 -44 inlet;
#X obj 121 34 select 0 1;
#X obj 207 141 switch~;
#X obj 180 70 t b b;
#X msg 205 109 1;
#X msg 171 109 1;
#X obj 46 184 lop~ 1;
#X obj 113 70 t b b;
#X msg 138 109 0;
#X obj 104 90 del 30;
#X msg 104 109 0;
#X obj -114 41 expr~ if($v1<0.5 \, -1 \, 1);
#X obj 118 4 == 2;
#X connect 0 0 14 0;
#X connect 1 0 2 0;
#X connect 3 0 15 0;
#X connect 4 0 10 0;
#X connect 4 1 6 0;
#X connect 6 0 8 0;
#X connect 6 1 7 0;
#X connect 7 0 5 0;
#X connect 8 0 9 0;
#X connect 9 0 1 1;
#X connect 10 0 12 0;
#X connect 10 1 11 0;
#X connect 11 0 9 0;
#X connect 12 0 13 0;
#X connect 13 0 5 0;
#X connect 14 0 1 0;
#X connect 15 0 4 0;
#X restore 298 191 pd square;
#X obj 109 24 inlet~;
#X obj 213 198 *~;
#X obj 230 175 lop~ 1;
#X obj 229 145 == 1;
#X obj 217 330 hip~ 5;
#X obj 218 359 outlet~;
#X obj 413 83 r~ theNoise;
#N canvas 780 408 450 300 sub1 0;
#X obj 54 -30 inlet~;
#X obj 103 239 *~;
#X obj 104 283 outlet~;
#X obj 300 -15 inlet;
#X obj 302 63 select 0 1;
#X obj 388 170 switch~;
#X obj 361 99 t b b;
#X msg 386 138 1;
#X msg 352 138 1;
#X obj 227 213 lop~ 1;
#X obj 294 99 t b b;
#X msg 319 138 0;
#X obj 285 119 del 30;
#X msg 285 138 0;
#X obj 299 33 == 3;
#X floatatom 114 78 5 0 0 0 - - -;
#X obj 150 51 r \$0-noiseQ;
#X obj 150 82 t f f;
#X obj 88 192 *~;
#X obj 119 171 lop~ 1;
#X obj 80 122 vcf~;
#X msg 163 20 50;
#X obj 164 -7 loadbang;
#X obj 160 118 * 1.8;
#X obj 83 7 r \$0-pitch2;
#X connect 0 0 20 0;
#X connect 1 0 2 0;
#X connect 3 0 14 0;
#X connect 4 0 10 0;
#X connect 4 1 6 0;
#X connect 6 0 8 0;
#X connect 6 1 7 0;
#X connect 7 0 5 0;
#X connect 8 0 9 0;
#X connect 9 0 1 1;
#X connect 10 0 12 0;
#X connect 10 1 11 0;
#X connect 11 0 9 0;
#X connect 12 0 13 0;
#X connect 13 0 5 0;
#X connect 14 0 4 0;
#X connect 16 0 17 0;
#X connect 17 0 20 2;
#X connect 17 1 23 0;
#X connect 18 0 1 0;
#X connect 19 0 18 1;
#X connect 20 0 18 0;
#X connect 21 0 17 0;
#X connect 22 0 21 0;
#X connect 23 0 19 0;
#X connect 24 0 15 0;
#X connect 24 0 20 1;
#X restore 415 190 pd sub1;
#N canvas 378 177 901 641 sin 0;
#X obj 738 156 inlet;
#X obj 731 232 select 0 1;
#X obj 826 341 switch~;
#X obj 799 270 t b b;
#X msg 824 309 1;
#X msg 790 309 1;
#X obj 249 461 lop~ 1;
#X obj 732 270 t b b;
#X msg 757 309 0;
#X obj 723 290 del 30;
#X msg 723 309 0;
#X obj 131 476 *~;
#X obj 135 238 osc~;
#X obj 151 272 osc~;
#X obj 182 301 osc~;
#X obj 737 204 == 5;
#X obj 140 348 *~ 0.75;
#X obj 153 380 *~ 0.33;
#X obj 172 405 *~ 0.166;
#X obj 128 525 outlet~;
#X obj 156 191 * 2;
#X obj 186 246 * 3;
#X obj 136 110 r \$0-pitch2;
#X connect 0 0 15 0;
#X connect 1 0 7 0;
#X connect 1 1 3 0;
#X connect 3 0 5 0;
#X connect 3 1 4 0;
#X connect 4 0 2 0;
#X connect 5 0 6 0;
#X connect 6 0 11 1;
#X connect 7 0 9 0;
#X connect 7 1 8 0;
#X connect 8 0 6 0;
#X connect 9 0 10 0;
#X connect 10 0 2 0;
#X connect 11 0 19 0;
#X connect 12 0 16 0;
#X connect 13 0 17 0;
#X connect 14 0 18 0;
#X connect 15 0 1 0;
#X connect 16 0 11 0;
#X connect 17 0 11 0;
#X connect 18 0 11 0;
#X connect 20 0 13 0;
#X connect 21 0 14 0;
#X connect 22 0 12 0;
#X connect 22 0 20 0;
#X connect 22 0 21 0;
#X restore 527 190 pd sin;
#X obj 148 155 r \$0-wave2;
#X obj 229 116 r \$0-wave2;
#X obj 348 148 r \$0-wave2;
#X obj 458 145 r \$0-wave2;
#X obj 533 143 r \$0-wave2;
#X obj 624 44 r \$0-pitch2;
#X obj 653 119 r \$0-wave2;
#X obj 653 151 == 6;
#X obj 619 192 birdString;
#X obj 701 153 r \$0-seed2;
#X obj 705 175 r \$0-seed3;
#X obj 654 229 r \$0-wave2;
#X obj 654 261 == 7;
#X obj 605 376 spigot;
#X obj 604 350 env~ 44100;
#X obj 606 405 print mallet;
#X obj 710 317 spigot;
#X obj 709 291 env~ 44100;
#X obj 711 346 print string;
#X obj 602 299 mm_mallet;
#X connect 0 0 6 0;
#X connect 1 0 6 0;
#X connect 2 0 1 0;
#X connect 2 0 0 0;
#X connect 2 0 3 0;
#X connect 2 0 19 0;
#X connect 2 0 30 0;
#X connect 3 0 6 0;
#X connect 4 0 3 1;
#X connect 5 0 4 0;
#X connect 6 0 7 0;
#X connect 8 0 9 0;
#X connect 8 0 30 2;
#X connect 9 0 6 0;
#X connect 10 0 6 0;
#X connect 11 0 0 1;
#X connect 12 0 5 0;
#X connect 13 0 1 1;
#X connect 14 0 9 1;
#X connect 15 0 10 0;
#X connect 16 0 19 1;
#X connect 16 0 30 1;
#X connect 17 0 18 0;
#X connect 18 0 19 2;
#X connect 18 0 27 1;
#X connect 19 0 6 0;
#X connect 19 0 28 0;
#X connect 20 0 19 3;
#X connect 21 0 19 4;
#X connect 22 0 23 0;
#X connect 23 0 24 1;
#X connect 23 0 30 3;
#X connect 24 0 26 0;
#X connect 25 0 24 0;
#X connect 27 0 29 0;
#X connect 28 0 27 0;
#X connect 30 0 6 0;
#X connect 30 0 25 0;
#X restore 511 405 pd wave;
#X obj 561 336 s \$0-pitch2;
#X obj 539 312 * 2;
#X obj 512 367 phasor~;
#X obj 511 480 *~ 0.33;
#X obj 860 581 pack f f;
#X obj 862 641 outlet;
#X obj 859 212 random 100;
#X obj 945 58 loadbang;
#X obj 944 84 timer;
#X obj 937 110 f;
#X obj 820 99 t b b b b b b;
#X obj 937 131 mod 200;
#X msg 936 158 seed \$1;
#X obj 450 478 *~ 0.66;
#X obj 872 159 bng 15 250 50 0 empty empty empty 17 7 0 10 -262144
-1 -1;
#X obj 904 367 route wave gliss switch randomize tempo;
#X obj 1105 428 s \$0-tempo;
#X obj 981 506 r \$0-tempo;
#X obj 980 531 swap 60000;
#X obj 992 555 /;
#X obj 991 583 * 0.25;
#X floatatom 1015 618 5 0 0 0 - - -;
#X msg 961 330 wave 5;
#X obj 1017 132 mod 150;
#X obj 1100 135 mod 140;
#X msg 1015 156 seed \$1;
#X msg 1096 162 seed \$1;
#X obj 1016 191 s \$0-seed2;
#X obj 1095 192 s \$0-seed3;
#X obj 938 223 random 7;
#X obj 845 487 mod 7;
#X obj 955 645 * 100;
#X obj 942 284 print;
#X connect 0 0 33 0;
#X connect 1 0 23 0;
#X connect 2 0 5 0;
#X connect 3 0 64 0;
#X connect 5 0 62 0;
#X connect 6 0 8 0;
#X connect 6 1 7 0;
#X connect 7 0 11 0;
#X connect 7 1 10 0;
#X connect 8 0 14 0;
#X connect 8 1 13 0;
#X connect 10 0 12 0;
#X connect 11 0 9 0;
#X connect 12 0 18 1;
#X connect 13 0 12 0;
#X connect 14 0 15 0;
#X connect 15 0 9 0;
#X connect 16 0 71 0;
#X connect 16 0 17 0;
#X connect 16 0 26 0;
#X connect 17 0 64 0;
#X connect 18 0 4 0;
#X connect 20 0 6 0;
#X connect 21 0 2 0;
#X connect 21 0 40 0;
#X connect 21 0 50 0;
#X connect 22 0 21 0;
#X connect 23 0 22 0;
#X connect 25 0 23 1;
#X connect 26 0 64 0;
#X connect 29 0 59 0;
#X connect 30 0 64 0;
#X connect 30 0 81 0;
#X connect 31 0 32 0;
#X connect 32 0 64 0;
#X connect 33 0 34 0;
#X connect 33 1 37 1;
#X connect 34 0 35 0;
#X connect 34 1 37 0;
#X connect 35 0 39 0;
#X connect 36 0 21 0;
#X connect 37 0 1 0;
#X connect 38 0 2 0;
#X connect 38 0 51 0;
#X connect 39 0 38 0;
#X connect 39 1 36 0;
#X connect 41 0 80 0;
#X connect 43 0 42 0;
#X connect 44 0 43 0;
#X connect 45 0 46 0;
#X connect 45 1 27 0;
#X connect 45 1 47 0;
#X connect 45 1 53 1;
#X connect 46 0 79 0;
#X connect 48 0 52 0;
#X connect 50 0 49 0;
#X connect 50 0 51 0;
#X connect 51 0 48 0;
#X connect 52 0 18 0;
#X connect 53 0 54 0;
#X connect 55 0 31 0;
#X connect 56 0 57 0;
#X connect 57 0 58 1;
#X connect 58 0 60 0;
#X connect 58 0 72 0;
#X connect 58 0 73 0;
#X connect 59 0 44 0;
#X connect 59 1 55 0;
#X connect 59 2 78 0;
#X connect 59 3 57 0;
#X connect 59 4 58 0;
#X connect 59 5 57 1;
#X connect 60 0 61 0;
#X connect 61 0 55 0;
#X connect 61 0 44 0;
#X connect 61 0 78 0;
#X connect 62 0 18 0;
#X connect 63 0 55 0;
#X connect 64 0 45 0;
#X connect 64 1 41 1;
#X connect 64 1 41 0;
#X connect 64 2 19 0;
#X connect 64 3 28 0;
#X connect 64 4 65 0;
#X connect 66 0 67 0;
#X connect 67 0 68 0;
#X connect 67 1 68 1;
#X connect 68 0 69 0;
#X connect 69 0 70 0;
#X connect 69 0 80 1;
#X connect 71 0 64 0;
#X connect 72 0 74 0;
#X connect 73 0 75 0;
#X connect 74 0 76 0;
#X connect 75 0 77 0;
#X connect 78 0 30 0;
#X connect 79 0 47 0;
#X connect 79 0 53 0;
#X connect 80 0 24 0;
