#N canvas 80 24 1427 774 10;
#X obj 1255 -270 adc~;
#N canvas 71 127 1256 433 time 0;
#X msg 311 136 play;
#X msg 370 148 stop;
#X msg 481 83 tempo \$1;
#X obj 509 244 s~ metro;
#X obj 379 245 route clock tempo;
#X obj 428 268 s \$0-tempo;
#X floatatom 481 49 5 0 0 0 - - -;
#X obj 398 316 s \$0-random;
#X obj 542 70 s \$0-tempo;
#X obj 378 353 s \$0-clock;
#X floatatom 318 324 5 0 0 0 - - -;
#X obj 396 293 sel 0;
#X obj 479 18 r \$0-setTempo;
#X msg 528 153 divisions 4;
#X msg 569 31 120;
#X obj 630 33 r \$0-doubleTime;
#X obj 630 62 sel 0 1;
#X obj 481 106 t b a;
#X obj 632 117 f;
#X obj 663 116 f;
#X obj 665 140 * 2;
#X obj 272 236 s \$0-cmd;
#X msg 409 165 record;
#X obj 409 136 r \$0-recordPattern;
#X obj 378 214 birdClock 2 4 4 60 1;
#X obj 547 180 r \$0-currentPattern;
#X obj 221 164 r \$0-clearPattern;
#X msg 219 192 clear;
#X msg 628 238 swing \$1;
#X obj 627 203 r \$0-swingSwitch;
#X obj 309 -6 r start;
#X obj 311 37 sel 0 1;
#X obj 328 59 t b b;
#X obj 353 85 s \$0-resample;
#X connect 0 0 24 0;
#X connect 1 0 24 0;
#X connect 2 0 17 0;
#X connect 4 0 9 0;
#X connect 4 0 10 0;
#X connect 4 0 11 0;
#X connect 4 1 5 0;
#X connect 6 0 2 0;
#X connect 6 0 8 0;
#X connect 11 0 7 0;
#X connect 12 0 6 0;
#X connect 12 0 18 1;
#X connect 12 0 19 1;
#X connect 13 0 24 1;
#X connect 14 0 6 0;
#X connect 15 0 16 0;
#X connect 16 0 18 0;
#X connect 16 1 19 0;
#X connect 17 0 0 0;
#X connect 17 1 24 1;
#X connect 18 0 2 0;
#X connect 19 0 20 0;
#X connect 20 0 2 0;
#X connect 22 0 24 0;
#X connect 23 0 22 0;
#X connect 24 0 4 0;
#X connect 24 0 21 0;
#X connect 24 1 3 0;
#X connect 25 0 24 1;
#X connect 26 0 27 0;
#X connect 27 0 24 0;
#X connect 28 0 24 1;
#X connect 29 0 28 0;
#X connect 30 0 31 0;
#X connect 31 0 1 0;
#X connect 31 1 32 0;
#X connect 32 0 0 0;
#X connect 32 1 33 0;
#X restore 1260 -1 pd time;
#N canvas 389 22 450 300 monitor 0;
#X obj 58 79 dbtorms;
#X obj 57 58 env~ 88200;
#X obj 58 104 runningAvg 10;
#X floatatom 58 154 5 0 0 0 - - -;
#X obj 57 15 r~ rawInput;
#X obj 155 105 runningAvg 10;
#X floatatom 153 151 5 0 0 0 - - -;
#X obj 193 155 s \$0-avgDB;
#X obj 62 184 s \$0-avgRMS;
#X connect 0 0 2 0;
#X connect 1 0 0 0;
#X connect 1 0 5 0;
#X connect 2 0 3 0;
#X connect 2 0 8 0;
#X connect 4 0 1 0;
#X connect 5 0 6 0;
#X connect 5 0 7 0;
#X restore 1254 -112 pd monitor;
#N canvas 76 22 1263 749 out 0;
#X obj 916 294 birdOut~;
#X obj 996 147 r \$0-tempo;
#X obj 872 -211 r~ samplerL;
#X obj 977 -206 r~ samplerR;
#X obj 1096 148 r \$0-random;
#X obj 908 526 writesf~ 2;
#X msg 904 426 open newStuff.wav;
#X msg 916 454 start;
#X msg 961 453 stop;
#X msg 979 275 volume \$1;
#X obj 907 346 r \$0-startRecord;
#X obj 907 366 t b b;
#X obj 906 400 del 500;
#X obj 1031 425 r \$0-stopRecord;
#X obj 575 -55 *~;
#X obj 656 -55 *~;
#X obj 735 -52 lop~ 1;
#X obj 658 -29 throw~ \$0-outR;
#X obj 925 206 catch~ \$0-outR;
#X obj 563 -28 throw~ \$0-outL;
#X obj 889 168 catch~ \$0-outL;
#X obj 654 -138 r~ synthR;
#X obj 558 -126 r~ synthL;
#X obj 898 -94 *~;
#X obj 979 -94 *~;
#X obj 999 -117 lop~ 1;
#X obj 981 -67 throw~ \$0-outR;
#X obj 885 -65 throw~ \$0-outL;
#X obj 1167 -201 r~ drumsL;
#X obj 1266 -204 r~ drumsR;
#X obj 1185 -57 *~;
#X obj 1266 -57 *~;
#X obj 1286 -80 lop~ 1;
#X obj 1268 -30 throw~ \$0-outR;
#X obj 1172 -28 throw~ \$0-outL;
#X msg 1055 304 fxMix \$1;
#X msg 1071 330 0;
#X msg 995 166 fx tempo \$1;
#X msg 1095 173 fx randomize;
#X obj 1022 501 env~;
#X floatatom 1004 534 5 0 0 0 - - -;
#X obj 567 119 *~;
#X obj 648 119 *~;
#X obj 741 98 lop~ 1;
#X obj 650 145 throw~ \$0-outR;
#X obj 555 146 throw~ \$0-outL;
#X obj 520 5 r~ pitchedL;
#X obj 616 6 r~ pitchedR;
#X obj 547 420 *~;
#X obj 628 420 *~;
#X obj 668 408 lop~ 1;
#X obj 630 446 throw~ \$0-outR;
#X obj 535 447 throw~ \$0-outL;
#X obj 539 317 r~ metro;
#X obj 1173 -156 birdSqueeze~;
#X obj 1285 -165 birdSqueeze~;
#X obj 564 43 birdSqueeze~;
#X obj 658 44 birdSqueeze~;
#X obj 891 -172 birdSqueeze~;
#X obj 979 -168 birdSqueeze~;
#X obj 628 247 tgl 15 0 empty empty empty 17 7 0 10 -262144 -1 -1 0
1;
#X obj 627 220 random 2;
#X obj 628 197 r \$0-random2;
#X obj 878 -140 *~ 3;
#X obj 967 -140 *~ 3;
#X msg 735 -97 \$1 5000;
#X obj 735 -72 line;
#X msg 1055 -170 \$1 5000;
#X obj 1055 -145 line;
#X msg 1356 -107 \$1 5000;
#X obj 1356 -82 line;
#X msg 739 51 \$1 5000;
#X obj 739 76 line;
#X obj 1054 276 r \$0-fxLevel;
#X obj 757 -151 r \$0-synthSwitch;
#X obj 736 -179 r \$0-synthFade;
#X obj 1057 -230 r \$0-samplerSwitch;
#X obj 1059 -203 r \$0-samplerFade;
#X obj 1339 -152 r \$0-drumsSwitch;
#X obj 1354 -131 r \$0-drumsFade;
#X obj 542 347 *~ 4;
#X obj 736 -2 r \$0-pitchedFade;
#X obj 840 22 r \$0-pitchedSwitch;
#X obj 562 83 *~ 5;
#X obj 651 83 *~ 5;
#X obj 1178 -112 *~ 10;
#X obj 1267 -122 *~ 10;
#X obj 733 -222 r \$0-synthVolume;
#X obj 979 -256 r \$0-samplerVolume;
#X obj 1346 -207 r \$0-drumsVolume;
#X obj 800 -32 r \$0-pitchedVolume;
#X obj 985 236 r \$0-mainLevel;
#X obj 663 330 r \$0-metroVolume;
#X connect 0 0 5 0;
#X connect 0 0 39 0;
#X connect 0 1 5 1;
#X connect 0 1 39 0;
#X connect 1 0 37 0;
#X connect 2 0 58 0;
#X connect 2 0 63 0;
#X connect 3 0 59 0;
#X connect 3 0 64 0;
#X connect 4 0 38 0;
#X connect 6 0 5 0;
#X connect 7 0 5 0;
#X connect 8 0 5 0;
#X connect 9 0 0 2;
#X connect 10 0 11 0;
#X connect 11 0 12 0;
#X connect 11 1 6 0;
#X connect 12 0 7 0;
#X connect 13 0 8 0;
#X connect 14 0 19 0;
#X connect 15 0 17 0;
#X connect 16 0 15 1;
#X connect 16 0 14 1;
#X connect 18 0 0 1;
#X connect 20 0 0 0;
#X connect 21 0 15 0;
#X connect 22 0 14 0;
#X connect 23 0 27 0;
#X connect 24 0 26 0;
#X connect 25 0 24 1;
#X connect 25 0 23 1;
#X connect 28 0 54 0;
#X connect 28 0 85 0;
#X connect 29 0 55 0;
#X connect 29 0 86 0;
#X connect 30 0 34 0;
#X connect 31 0 33 0;
#X connect 32 0 31 1;
#X connect 32 0 30 1;
#X connect 35 0 0 2;
#X connect 36 0 35 0;
#X connect 37 0 0 2;
#X connect 38 0 0 2;
#X connect 39 0 40 0;
#X connect 41 0 45 0;
#X connect 42 0 44 0;
#X connect 43 0 42 1;
#X connect 43 0 41 1;
#X connect 46 0 56 0;
#X connect 46 0 83 0;
#X connect 47 0 57 0;
#X connect 47 0 84 0;
#X connect 48 0 52 0;
#X connect 49 0 51 0;
#X connect 50 0 49 1;
#X connect 50 0 48 1;
#X connect 53 0 80 0;
#X connect 54 0 85 0;
#X connect 55 0 86 0;
#X connect 56 0 83 0;
#X connect 57 0 84 0;
#X connect 58 0 63 0;
#X connect 59 0 64 0;
#X connect 61 0 60 0;
#X connect 62 0 61 0;
#X connect 63 0 23 0;
#X connect 64 0 24 0;
#X connect 65 0 66 0;
#X connect 66 0 16 0;
#X connect 67 0 68 0;
#X connect 68 0 25 0;
#X connect 69 0 70 0;
#X connect 70 0 32 0;
#X connect 71 0 72 0;
#X connect 72 0 43 0;
#X connect 73 0 35 0;
#X connect 74 0 16 0;
#X connect 75 0 65 0;
#X connect 76 0 25 0;
#X connect 77 0 67 0;
#X connect 78 0 32 0;
#X connect 79 0 69 0;
#X connect 80 0 48 0;
#X connect 80 0 49 0;
#X connect 81 0 71 0;
#X connect 82 0 43 0;
#X connect 83 0 41 0;
#X connect 84 0 42 0;
#X connect 85 0 30 0;
#X connect 86 0 31 0;
#X connect 87 0 16 0;
#X connect 88 0 25 0;
#X connect 89 0 32 0;
#X connect 90 0 43 0;
#X connect 91 0 9 0;
#X connect 92 0 50 0;
#X coords 0 749 1 748 150 300 0;
#X restore 1263 24 pd out;
#N canvas 617 81 774 698 sampler 1;
#X obj 51 290 s~ input;
#X obj 2 235 birdGate~;
#X msg 154 200 learn;
#X msg 70 178 mask \$1;
#X obj 71 157 hsl 128 15 0 1 0 0 empty empty empty -2 -8 0 10 -262144
-1 -1 4191 1;
#X obj 10 465 samplerChain~;
#X msg 59 401 init;
#X msg 134 427 play \$1;
#X obj 174 493 hsl 128 15 0 1 0 0 empty empty empty -2 -8 0 10 -262144
-1 -1 6350 1;
#X msg 172 510 threshold \$1;
#X msg 314 486 0.25;
#X obj 30 43 hsl 128 15 0 1 0 0 empty empty empty -2 -8 0 10 -262144
-1 -1 0 1;
#X obj 84 496 bng 15 250 50 0 empty empty empty 17 7 0 10 -262144 -1
-1;
#X obj 64 377 t b b;
#X msg 100 402 1;
#X msg 86 517 0;
#X obj 64 354 bng 15 250 50 0 empty empty empty 17 7 0 10 -262144 -1
-1;
#X obj 81 334 r \$0-resample;
#X obj -1 183 *~;
#X obj 168 68 loadbang;
#X msg 65 118 0.33;
#X obj 173 446 loadbang;
#X obj 169 91 t b b b;
#X msg 207 118 1;
#X obj 213 144 del 2500;
#X msg 213 164 0;
#X obj 248 170 del 2500;
#X obj 247 194 s \$0-start;
#X obj 244 448 r \$0-threshold;
#X obj -28 594 s~ samplerR;
#X obj 52 595 s~ samplerL;
#X obj 160 397 hradio 15 1 0 4 empty empty empty 0 -8 0 10 -262144
-1 -1 0;
#X obj 177 343 randomSequencer;
#X obj 174 234 r \$0-clock;
#X obj 26 72 * 10;
#X obj 177 319 mod 4;
#X obj 66 314 r \$0-forceResample;
#X obj -8 9 r~ rawInput;
#N canvas 616 173 450 300 half 0;
#X obj 261 20 inlet;
#X obj 62 12 inlet;
#X obj 62 81 spigot;
#X obj 223 125 spigot;
#X obj 314 23 loadbang;
#X msg 314 49 0;
#X obj 223 32 / 2;
#X obj 223 53 int;
#X obj 131 167 outlet;
#X obj 101 58 birdInvert 1;
#X obj 222 83 change;
#X connect 0 0 3 1;
#X connect 0 0 9 0;
#X connect 1 0 2 0;
#X connect 1 0 6 0;
#X connect 2 0 8 0;
#X connect 3 0 8 0;
#X connect 4 0 5 0;
#X connect 5 0 3 1;
#X connect 5 0 9 0;
#X connect 6 0 7 0;
#X connect 7 0 10 0;
#X connect 9 0 2 1;
#X connect 10 0 3 0;
#X restore 181 297 pd half;
#X obj 218 258 r \$0-samplerHalftime;
#X obj 51 570 birdFilter~ 300 750 2500 3300;
#X obj -38 547 birdFilter~ 300 750 2500 3300;
#X msg 174 468 0.5;
#X connect 1 0 0 0;
#X connect 1 0 5 0;
#X connect 2 0 1 1;
#X connect 3 0 1 1;
#X connect 4 0 3 0;
#X connect 5 0 41 0;
#X connect 5 1 40 0;
#X connect 5 2 12 0;
#X connect 6 0 5 1;
#X connect 7 0 5 1;
#X connect 8 0 9 0;
#X connect 9 0 5 1;
#X connect 10 0 9 0;
#X connect 11 0 34 0;
#X connect 12 0 15 0;
#X connect 13 0 6 0;
#X connect 13 1 14 0;
#X connect 14 0 11 0;
#X connect 15 0 11 0;
#X connect 16 0 13 0;
#X connect 17 0 16 0;
#X connect 18 0 1 0;
#X connect 19 0 20 0;
#X connect 19 0 22 0;
#X connect 20 0 4 0;
#X connect 21 0 42 0;
#X connect 22 0 2 0;
#X connect 22 1 24 0;
#X connect 22 2 23 0;
#X connect 23 0 11 0;
#X connect 24 0 25 0;
#X connect 24 0 26 0;
#X connect 25 0 11 0;
#X connect 26 0 27 0;
#X connect 31 0 7 0;
#X connect 32 0 7 0;
#X connect 33 0 38 0;
#X connect 34 0 18 1;
#X connect 35 0 32 0;
#X connect 36 0 16 0;
#X connect 37 0 18 0;
#X connect 38 0 35 0;
#X connect 39 0 38 1;
#X connect 40 0 30 0;
#X connect 41 0 29 0;
#X connect 42 0 8 0;
#X restore 1256 -87 pd sampler;
#X obj 1254 -239 s~ rawInput;
#X obj 1260 -149 switch~;
#X msg 1257 -181 1;
#X obj 102 -386 bng 50 250 50 0 \$0-start empty empty 17 7 0 10 -262144
-1 -1;
#X text 107 -331 play;
#X obj 199 -385 bng 50 250 50 0 \$0-stop empty empty 17 7 0 10 -262144
-1 -1;
#X text 209 -331 stop;
#X text 100 -249 resample;
#X obj 101 -299 bng 50 250 50 0 \$0-forceResample empty empty 17 7
0 10 -262144 -1 -1;
#X text 209 -256 clock;
#X floatatom 210 -275 5 0 0 0 - #0-clock -;
#X obj 1258 -202 loadbang;
#X obj 293 -383 bng 50 250 50 0 \$0-startRecord empty empty 17 7 0
10 -262144 -1 -1;
#X text 282 -330 start record;
#X obj 295 -299 bng 50 250 50 0 \$0-stopRecord empty empty 17 7 0 10
-262144 -1 -1;
#X text 284 -246 stop record;
#X obj 517 -298 tgl 50 0 \$0-doubleTime empty empty 17 7 0 10 -262144
-1 -1 0 1;
#X text 508 -247 double time;
#X msg 1290 -180 0;
#N canvas 414 106 852 611 synth 0;
#N canvas 238 78 962 742 instr 0;
#X obj 144 757 outlet~;
#X obj -101 -93 inlet;
#X obj 785 752 outlet~;
#X obj 1251 618 r \$0-random;
#X obj 1231 778 s \$0-toSynths;
#X obj 66 270 r \$0-toSynths;
#X obj 501 214 r \$0-toSynths;
#X obj 509 465 r \$0-toSynths;
#X obj 722 257 pack f 127;
#X obj -102 -73 route monitor;
#X obj -100 -15 route 0 1 2 3;
#X obj -100 -40 s \$0-theMonitor;
#X obj -100 12 s \$0-synth1;
#X obj -81 38 s \$0-synth2;
#X obj -63 59 s \$0-synth3;
#X obj -46 83 s \$0-synth4;
#X obj -94 106 r \$0-synth1;
#X obj -99 460 r \$0-synth2;
#X obj 286 211 r \$0-synth3;
#X obj 303 413 r \$0-synth4;
#X obj 723 222 r \$0-theMonitor;
#X obj 73 292 route 0;
#X obj -93 343 throw~ \$0-synthOutL;
#X obj 76 342 throw~ \$0-synthOutR;
#X obj 140 717 catch~ \$0-synthOutL;
#X obj 778 716 catch~ \$0-synthOutR;
#X obj -79 572 throw~ \$0-synthOutL;
#X obj 118 565 throw~ \$0-synthOutR;
#X obj 305 331 throw~ \$0-synthOutL;
#X obj 507 325 throw~ \$0-synthOutR;
#X obj 311 567 throw~ \$0-synthOutL;
#X obj 513 561 throw~ \$0-synthOutR;
#X obj 724 323 throw~ \$0-synthOutL;
#X obj 902 319 throw~ \$0-synthOutR;
#N canvas 488 201 902 552 r 0;
#X obj 471 180 random 3;
#X obj 470 209 sel 0 1 2;
#X floatatom 435 272 5 0 0 0 - - -;
#X msg 493 265 osc shape square;
#X msg 528 286 osc shape sine;
#X msg 474 245 osc shape saw;
#X obj 471 35 inlet;
#X obj 496 322 list prepend;
#X obj 490 354 list trim;
#X obj 492 389 outlet;
#X obj 472 110 until;
#X obj 472 134 t b b;
#X obj 561 176 f;
#X obj 591 177 + 1;
#X obj 562 203 mod 4;
#X msg 472 72 4;
#X connect 0 0 1 0;
#X connect 0 0 2 0;
#X connect 1 0 5 0;
#X connect 1 1 3 0;
#X connect 1 2 4 0;
#X connect 3 0 7 0;
#X connect 4 0 7 0;
#X connect 5 0 7 0;
#X connect 6 0 15 0;
#X connect 7 0 8 0;
#X connect 8 0 9 0;
#X connect 10 0 11 0;
#X connect 11 0 0 0;
#X connect 11 1 12 0;
#X connect 12 0 13 0;
#X connect 12 0 14 0;
#X connect 13 0 12 1;
#X connect 14 0 7 1;
#X connect 15 0 10 0;
#X restore 1254 672 pd r shape;
#X obj 118 483 r \$0-toSynths;
#X obj 118 512 route 1;
#X obj 501 265 route 2;
#X obj 510 501 route 3;
#X obj 1347 263 hsl 128 15 0 20 0 0 empty empty empty -2 -8 0 10 -262144
-1 -1 0 1;
#X obj 1345 93 r \$0-random;
#X obj 1416 320 hradio 15 1 0 8 empty empty empty 0 -8 0 10 -262144
-1 -1 0;
#X obj 1416 297 loadbang;
#X obj 1198 454 vsl 15 128 0.01 1 0 0 empty empty empty 0 -9 0 10 -262144
-1 -1 0 1;
#X msg 1197 593 env a \$1;
#X obj 1345 404 s \$0-toSynths;
#X obj 1345 353 list prepend;
#X obj 1346 375 list trim;
#X msg 1344 327 comp \$1;
#X obj 1303 645 bng 15 250 50 0 empty empty empty 17 7 0 10 -262144
-1 -1;
#X msg 1242 699 0 env randomize \, 1 env randomize \, 2 env randomize
\, 3 env randomize;
#X msg 1258 734 0 pan randomize \, 1 pan randomize \, 2 pan randomize
\, 3 pan randomize;
#X obj 1264 502 list prepend voice;
#X obj 1263 529 list prepend;
#X obj 1264 553 list trim;
#X obj 1272 459 hradio 15 1 0 8 empty empty empty 0 -8 0 10 -262144
-1 -1 0;
#X obj 1331 481 hradio 15 1 0 8 empty empty empty 0 -8 0 10 -262144
-1 -1 0;
#X obj 1267 437 loadbang;
#X obj -95 139 - 36;
#X obj -81 539 birdSynth~ 0 1250 1750 2500 4000 2;
#N canvas 414 222 902 552 r 0;
#X obj 471 35 inlet;
#X obj 487 314 list prepend;
#X obj 490 354 list trim;
#X obj 492 389 outlet;
#X obj 472 110 until;
#X obj 472 134 t b b;
#X obj 561 176 f;
#X obj 591 177 + 1;
#X obj 562 203 mod 4;
#X msg 472 72 4;
#X obj 475 172 random 100;
#X obj 478 208 * 0.01;
#X msg 479 233 osc gliss \$1;
#X connect 0 0 9 0;
#X connect 1 0 2 0;
#X connect 2 0 3 0;
#X connect 4 0 5 0;
#X connect 5 0 10 0;
#X connect 5 1 6 0;
#X connect 6 0 7 0;
#X connect 6 0 8 0;
#X connect 7 0 6 1;
#X connect 8 0 1 1;
#X connect 9 0 4 0;
#X connect 10 0 11 0;
#X connect 11 0 12 0;
#X connect 12 0 1 0;
#X restore 1328 671 pd r gliss;
#X obj 717 385 print toMon;
#X obj -11 146 r \$0-clearPattern;
#X msg -11 171 0;
#X obj 372 193 r \$0-clearPattern;
#X msg 372 218 0;
#X obj -5 476 r \$0-clearPattern;
#X msg -5 501 0;
#X obj 383 423 r \$0-clearPattern;
#X msg 383 448 0;
#X msg 896 251 comp \$1;
#X floatatom 896 213 5 0 0 0 - - -;
#X obj 301 287 birdSynth~ 0 2500 2750 2600 5000 1;
#X obj -97 316 birdSynth~ 0 50 150 250 500 8;
#X obj 311 529 birdSynth~ 0 2500 2750 2600 5000 1;
#X obj 721 286 birdSynth~ 0 50 150 250 500 30;
#N canvas 414 222 902 552 r 0;
#X obj 471 35 inlet;
#X obj 487 314 list prepend;
#X obj 490 354 list trim;
#X obj 492 389 outlet;
#X obj 472 110 until;
#X obj 472 134 t b b;
#X obj 561 176 f;
#X obj 591 177 + 1;
#X obj 562 203 mod 4;
#X msg 472 72 4;
#X obj 475 172 random 2;
#X msg 479 233 sustain \$1;
#X connect 0 0 9 0;
#X connect 1 0 2 0;
#X connect 2 0 3 0;
#X connect 4 0 5 0;
#X connect 5 0 10 0;
#X connect 5 1 6 0;
#X connect 6 0 7 0;
#X connect 6 0 8 0;
#X connect 7 0 6 1;
#X connect 8 0 1 1;
#X connect 9 0 4 0;
#X connect 10 0 11 0;
#X connect 11 0 1 0;
#X restore 1397 672 pd r sustain;
#N canvas 712 141 450 300 humanize 0;
#X obj 193 62 random 40;
#X obj 192 84 + 87;
#X obj 141 145 del;
#X obj 176 124 random 20;
#X obj 138 201 pack f f;
#X obj 139 31 t b f b b;
#X obj 139 175 f;
#X obj 138 -2 inlet;
#X obj 140 230 outlet;
#X connect 0 0 1 0;
#X connect 1 0 4 1;
#X connect 2 0 6 0;
#X connect 3 0 2 1;
#X connect 4 0 8 0;
#X connect 5 0 2 0;
#X connect 5 1 6 1;
#X connect 5 2 3 0;
#X connect 5 3 0 0;
#X connect 6 0 4 0;
#X connect 7 0 5 0;
#X restore -94 282 pd humanize;
#N canvas 712 141 450 300 humanize 0;
#X obj 193 62 random 40;
#X obj 192 84 + 87;
#X obj 141 145 del;
#X obj 176 124 random 20;
#X obj 138 201 pack f f;
#X obj 139 31 t b f b b;
#X obj 139 175 f;
#X obj 138 -2 inlet;
#X obj 140 230 outlet;
#X connect 0 0 1 0;
#X connect 1 0 4 1;
#X connect 2 0 6 0;
#X connect 3 0 2 1;
#X connect 4 0 8 0;
#X connect 5 0 2 0;
#X connect 5 1 6 1;
#X connect 5 2 3 0;
#X connect 5 3 0 0;
#X connect 6 0 4 0;
#X connect 7 0 5 0;
#X restore 298 260 pd humanize;
#N canvas 712 141 450 300 humanize 0;
#X obj 193 62 random 40;
#X obj 192 84 + 87;
#X obj 141 145 del;
#X obj 176 124 random 20;
#X obj 138 201 pack f f;
#X obj 139 31 t b f b b;
#X obj 139 175 f;
#X obj 138 -2 inlet;
#X obj 140 230 outlet;
#X connect 0 0 1 0;
#X connect 1 0 4 1;
#X connect 2 0 6 0;
#X connect 3 0 2 1;
#X connect 4 0 8 0;
#X connect 5 0 2 0;
#X connect 5 1 6 1;
#X connect 5 2 3 0;
#X connect 5 3 0 0;
#X connect 6 0 4 0;
#X connect 7 0 5 0;
#X restore -99 495 pd humanize;
#N canvas 712 141 450 300 humanize 0;
#X obj 193 62 random 40;
#X obj 192 84 + 87;
#X obj 141 145 del;
#X obj 176 124 random 20;
#X obj 138 201 pack f f;
#X obj 139 31 t b f b b;
#X obj 139 175 f;
#X obj 138 -2 inlet;
#X obj 140 230 outlet;
#X connect 0 0 1 0;
#X connect 1 0 4 1;
#X connect 2 0 6 0;
#X connect 3 0 2 1;
#X connect 4 0 8 0;
#X connect 5 0 2 0;
#X connect 5 1 6 1;
#X connect 5 2 3 0;
#X connect 5 3 0 0;
#X connect 6 0 4 0;
#X connect 7 0 5 0;
#X restore 305 497 pd humanize;
#X msg 1413 567 0 voice 0 \, 1 voice 0 \, 2 voice 0 \, 3 voice 0 \,
;
#X connect 1 0 9 0;
#X connect 3 0 51 0;
#X connect 3 0 50 0;
#X connect 3 0 34 0;
#X connect 3 0 49 0;
#X connect 3 0 60 0;
#X connect 3 0 76 0;
#X connect 5 0 21 0;
#X connect 6 0 37 0;
#X connect 7 0 38 0;
#X connect 8 0 61 0;
#X connect 8 0 75 0;
#X connect 9 0 11 0;
#X connect 9 1 10 0;
#X connect 10 0 12 0;
#X connect 10 1 13 0;
#X connect 10 2 14 0;
#X connect 10 3 15 0;
#X connect 16 0 58 0;
#X connect 17 0 79 0;
#X connect 18 0 78 0;
#X connect 19 0 80 0;
#X connect 20 0 8 0;
#X connect 21 0 73 1;
#X connect 24 0 0 0;
#X connect 25 0 2 0;
#X connect 34 0 4 0;
#X connect 35 0 36 0;
#X connect 36 0 59 1;
#X connect 37 0 72 1;
#X connect 38 0 74 1;
#X connect 39 0 48 0;
#X connect 41 0 46 1;
#X connect 42 0 41 0;
#X connect 46 0 47 0;
#X connect 47 0 45 0;
#X connect 48 0 46 0;
#X connect 50 0 4 0;
#X connect 51 0 4 0;
#X connect 52 0 53 0;
#X connect 53 0 54 0;
#X connect 54 0 4 0;
#X connect 55 0 52 0;
#X connect 56 0 53 1;
#X connect 57 0 56 0;
#X connect 57 0 55 0;
#X connect 58 0 77 0;
#X connect 59 0 26 0;
#X connect 59 1 27 0;
#X connect 60 0 4 0;
#X connect 62 0 63 0;
#X connect 63 0 77 0;
#X connect 64 0 65 0;
#X connect 65 0 78 0;
#X connect 66 0 67 0;
#X connect 67 0 59 0;
#X connect 68 0 69 0;
#X connect 69 0 80 0;
#X connect 70 0 75 1;
#X connect 71 0 70 0;
#X connect 72 0 28 0;
#X connect 72 1 29 0;
#X connect 73 0 22 0;
#X connect 73 1 23 0;
#X connect 74 0 30 0;
#X connect 74 1 31 0;
#X connect 75 0 32 0;
#X connect 75 1 33 0;
#X connect 76 0 4 0;
#X connect 77 0 73 0;
#X connect 78 0 72 0;
#X connect 79 0 59 0;
#X connect 80 0 74 0;
#X connect 81 0 4 0;
#X restore 322 498 pd instr;
#X obj 321 328 r \$0-randomPlayer;
#X obj 393 562 s~ synthR;
#X obj 331 559 s~ synthL;
#X obj -15 336 randomPlayer;
#X obj -15 270 r \$0-clock;
#X floatatom -3 294 5 0 0 0 - - -;
#X obj 53 163 r \$0-currentChord;
#X obj 52 209 list trim;
#X obj 53 187 list prepend chord set;
#X obj -16 365 s \$0-randomPlayer;
#X obj 200 99 loadbang;
#X obj 486 372 route random;
#X obj 322 434 spigot;
#X obj 403 434 spigot;
#X obj 618 325 loadbang;
#X msg 619 348 random 0;
#X obj 482 404 birdInvert 1;
#X obj 475 132 route 0 1 2 3;
#X floatatom 672 275 5 0 0 0 - - -;
#X floatatom 611 276 5 0 0 0 - - -;
#X obj 477 257 pack f f f f;
#X obj 424 170 moses 1;
#X obj 475 169 moses 1;
#X obj 527 167 moses 1;
#X obj 578 166 moses 1;
#X obj 478 283 s \$0-currentChord;
#X msg 110 255 probs probs 80 25 25 50;
#X msg 105 279 probs probs 90 10 90 20;
#X msg 110 302 probs probs 80 90 10 20;
#X msg 109 331 probs probs 10 10 90 10;
#X obj 188 224 select 0 1 2 3;
#X obj 200 198 hradio 15 1 0 8 empty empty empty 0 -8 0 10 -262144
-1 -1 0;
#X obj 218 128 r \$0-random;
#X obj 218 152 random 4;
#X msg 487 339 random \$1;
#X obj 402 70 r \$0-playback;
#X obj 486 307 r \$0-randomizeNotes;
#X obj 376 525 *~ 0.5;
#X obj 324 528 *~ 0.5;
#X obj 611 193 change;
#X obj 611 217 t b f;
#X obj 562 192 change;
#X obj 562 216 t b f;
#X obj 511 193 change;
#X obj 511 217 t b f;
#X obj 423 194 change;
#X connect 0 0 39 0;
#X connect 0 1 38 0;
#X connect 1 0 13 0;
#X connect 4 0 10 0;
#X connect 5 0 4 0;
#X connect 5 0 6 0;
#X connect 7 0 9 0;
#X connect 8 0 4 1;
#X connect 9 0 8 0;
#X connect 11 0 32 0;
#X connect 12 0 13 1;
#X connect 12 0 17 0;
#X connect 13 0 0 0;
#X connect 14 0 0 0;
#X connect 15 0 16 0;
#X connect 16 0 12 0;
#X connect 17 0 14 1;
#X connect 18 0 20 0;
#X connect 18 0 22 0;
#X connect 18 1 19 0;
#X connect 18 1 23 0;
#X connect 18 2 24 0;
#X connect 18 3 25 0;
#X connect 21 0 26 0;
#X connect 22 0 46 0;
#X connect 23 1 44 0;
#X connect 24 1 42 0;
#X connect 25 1 40 0;
#X connect 27 0 4 1;
#X connect 28 0 4 1;
#X connect 29 0 4 1;
#X connect 30 0 4 1;
#X connect 31 0 27 0;
#X connect 31 1 28 0;
#X connect 31 2 29 0;
#X connect 31 3 30 0;
#X connect 32 0 31 0;
#X connect 33 0 34 0;
#X connect 34 0 32 0;
#X connect 35 0 12 0;
#X connect 36 0 14 0;
#X connect 36 0 18 0;
#X connect 37 0 35 0;
#X connect 38 0 2 0;
#X connect 39 0 3 0;
#X connect 40 0 41 0;
#X connect 41 0 21 0;
#X connect 41 1 21 3;
#X connect 42 0 43 0;
#X connect 43 0 21 0;
#X connect 43 1 21 2;
#X connect 44 0 45 0;
#X connect 45 0 21 0;
#X connect 45 1 21 1;
#X connect 46 0 21 0;
#X restore 1261 78 pd synth;
#N canvas 253 236 695 518 drums 0;
#X obj 111 -111 r \$0-clock;
#X obj 110 126 wrandom;
#X obj 110 356 birdKick~;
#X obj 215 155 wrandom;
#X obj 260 480 birdPan~;
#X msg 314 450 randomize;
#X obj 147 33 loadbang;
#X obj 76 161 bng 15 250 50 0 empty empty empty 17 7 0 10 -262144 -1
-1;
#X obj 253 354 birdSnare~;
#X msg 323 332 volume 1;
#X obj 316 539 s~ drumsR;
#X obj 107 518 s~ drumsL;
#X obj 236 -24 inlet;
#X obj 237 34 route kick snare;
#X obj 108 17 mod 4;
#X msg 148 81 probs 95 15 15 60;
#X msg 367 104 probs 85 85 85 85;
#X msg 383 123 probs 5 20 95 25;
#X obj 367 75 select 0 1 2 3 4;
#X obj 367 50 hradio 15 1 0 8 empty empty empty 0 -8 0 10 -262144 -1
-1 1;
#X msg 402 144 probs 5 5 50 95;
#X obj 365 17 random 4;
#X obj 361 -8 r \$0-random;
#X obj -101 103 select 0 1 2 3 4;
#X obj -101 80 hradio 15 1 0 8 empty empty empty 0 -8 0 10 -262144
-1 -1 1;
#X obj -98 50 random 4;
#X obj -102 25 r \$0-random;
#X msg 414 167 probs 90 5 20 95;
#X msg -101 131 probs 95 15 15 60;
#X msg -85 150 probs 90 50 90 50;
#X msg -68 171 probs 5 90 90 10;
#X msg -56 197 probs 90 90 20 95;
#N canvas 616 173 450 300 half 0;
#X obj 261 20 inlet;
#X obj 62 12 inlet;
#X obj 62 81 spigot;
#X obj 224 123 spigot;
#X obj 314 23 loadbang;
#X msg 314 49 0;
#X obj 223 32 / 2;
#X obj 223 53 int;
#X obj 131 167 outlet;
#X obj 101 58 birdInvert 1;
#X obj 223 88 change;
#X connect 0 0 3 1;
#X connect 0 0 9 0;
#X connect 1 0 2 0;
#X connect 1 0 6 0;
#X connect 2 0 8 0;
#X connect 3 0 8 0;
#X connect 4 0 5 0;
#X connect 5 0 3 1;
#X connect 5 0 9 0;
#X connect 6 0 7 0;
#X connect 7 0 10 0;
#X connect 9 0 2 1;
#X connect 10 0 3 0;
#X restore 110 -29 pd half;
#X obj 147 -68 r \$0-drumsHalftime;
#X floatatom 178 -8 5 0 0 0 - - -;
#X floatatom 48 50 5 0 0 0 - - -;
#X obj 252 332 pack 1 f;
#X obj 109 317 pack 1 f;
#X obj 112 174 t b b b;
#X obj 151 205 random 40;
#X obj 149 230 + 87;
#X obj 111 290 del;
#X obj 131 253 random 20;
#X obj 254 209 t b b b;
#X obj 293 240 random 40;
#X obj 295 264 + 87;
#X obj 253 309 del;
#X obj 274 287 random 20;
#X obj 231 184 t b;
#X obj 106 462 *~ 3;
#X obj 248 447 *~ 0.33;
#X connect 0 0 32 0;
#X connect 1 0 7 0;
#X connect 1 0 38 0;
#X connect 2 0 49 0;
#X connect 3 0 48 0;
#X connect 4 0 11 0;
#X connect 4 1 10 0;
#X connect 5 0 4 1;
#X connect 6 0 15 0;
#X connect 6 0 19 0;
#X connect 8 0 50 0;
#X connect 9 0 8 1;
#X connect 12 0 13 0;
#X connect 13 0 1 1;
#X connect 13 0 2 1;
#X connect 13 1 3 1;
#X connect 13 1 8 1;
#X connect 14 0 1 0;
#X connect 14 0 3 0;
#X connect 14 0 35 0;
#X connect 15 0 1 1;
#X connect 16 0 3 1;
#X connect 17 0 3 1;
#X connect 18 0 16 0;
#X connect 18 1 17 0;
#X connect 18 2 20 0;
#X connect 18 3 27 0;
#X connect 19 0 18 0;
#X connect 20 0 3 1;
#X connect 21 0 19 0;
#X connect 22 0 21 0;
#X connect 23 0 28 0;
#X connect 23 1 29 0;
#X connect 23 2 30 0;
#X connect 23 3 31 0;
#X connect 24 0 23 0;
#X connect 25 0 24 0;
#X connect 26 0 25 0;
#X connect 27 0 3 1;
#X connect 28 0 1 1;
#X connect 29 0 1 1;
#X connect 30 0 1 1;
#X connect 31 0 1 1;
#X connect 32 0 14 0;
#X connect 32 0 34 0;
#X connect 33 0 32 1;
#X connect 36 0 8 0;
#X connect 37 0 2 0;
#X connect 38 0 41 0;
#X connect 38 1 42 0;
#X connect 38 2 39 0;
#X connect 39 0 40 0;
#X connect 40 0 37 1;
#X connect 41 0 37 0;
#X connect 42 0 41 1;
#X connect 43 0 46 0;
#X connect 43 1 47 0;
#X connect 43 2 44 0;
#X connect 44 0 45 0;
#X connect 45 0 36 1;
#X connect 46 0 36 0;
#X connect 47 0 46 1;
#X connect 48 0 5 0;
#X connect 48 0 43 0;
#X connect 49 0 11 0;
#X connect 49 0 10 0;
#X connect 50 0 4 0;
#X restore 1260 -28 pd drums;
#X obj 449 120 hsl 300 50 40 200 0 0 empty empty empty -2 -8 0 10 -262144
-1 -1 0 1;
#X floatatom 447 172 5 0 0 0 - - #0-setTempo;
#N canvas 645 63 698 563 compose 0;
#X obj -145 348 4Track;
#X obj -151 68 birdMidiIn;
#X obj -114 118 r \$0-cmd;
#X obj -115 139 t a a;
#X obj -150 257 list append;
#X obj -150 283 list trim;
#X obj 25 186 t b;
#X msg 25 207 0;
#X obj -85 165 route clock quant record length;
#X floatatom -86 200 5 0 0 0 - - -;
#X floatatom -40 189 5 0 0 0 - - -;
#X obj -42 212 / 2;
#X floatatom -44 246 5 0 0 0 - - -;
#X obj -44 269 + 0.5;
#X obj -46 295 int;
#X floatatom -1 313 5 0 0 0 - - -;
#X floatatom 37 257 5 0 0 0 - - -;
#X obj -147 382 list split 2;
#X obj -148 407 list trim;
#X msg -8 79 pattern \$1;
#X obj -7 106 s \$0-currentPattern;
#X obj -105 323 r \$0-saveload;
#X obj 153 673 s \$0-saveload;
#X msg 164 194 read test1.txt;
#X msg 187 218 read test2.txt;
#X obj 168 62 loadbang;
#X obj 204 123 r \$0-selectProgression;
#X obj 167 161 sel 0 1 2 3 4 5;
#X obj -145 448 s \$0-playback;
#X obj -11 29 r \$0-setPattern;
#X msg 207 244 read test3.txt;
#X msg 222 269 read test4.txt;
#X msg 167 108 0;
#X msg 221 447 read test5.txt;
#X msg 268 535 read test6.txt;
#X obj 299 293 r \$0-clock;
#X obj 226 305 t b b;
#X obj 300 325 spigot;
#X obj 300 346 mod 32;
#X obj 300 369 == 0;
#X obj 300 393 sel 1;
#X obj 298 417 f;
#X obj 326 417 + 1;
#X obj 298 478 == 1;
#X obj 296 502 sel 1;
#X obj 334 442 == 2;
#X obj 334 501 sel 1;
#X msg 344 325 1;
#X msg 338 612 read test4.txt;
#X obj 333 557 t b b;
#X msg 359 579 0;
#X connect 0 0 17 0;
#X connect 1 0 4 0;
#X connect 2 0 3 0;
#X connect 3 0 0 1;
#X connect 3 1 8 0;
#X connect 4 0 5 0;
#X connect 5 0 0 0;
#X connect 6 0 7 0;
#X connect 7 0 4 1;
#X connect 8 0 16 0;
#X connect 8 1 10 0;
#X connect 8 2 6 0;
#X connect 10 0 11 0;
#X connect 11 0 12 0;
#X connect 12 0 13 0;
#X connect 13 0 14 0;
#X connect 14 0 15 0;
#X connect 14 0 9 0;
#X connect 14 0 4 1;
#X connect 17 0 18 0;
#X connect 18 0 28 0;
#X connect 19 0 20 0;
#X connect 21 0 0 2;
#X connect 23 0 22 0;
#X connect 24 0 22 0;
#X connect 25 0 32 0;
#X connect 26 0 27 0;
#X connect 27 0 23 0;
#X connect 27 1 24 0;
#X connect 27 2 30 0;
#X connect 27 3 31 0;
#X connect 27 4 36 0;
#X connect 27 5 34 0;
#X connect 29 0 19 0;
#X connect 30 0 22 0;
#X connect 31 0 22 0;
#X connect 32 0 27 0;
#X connect 33 0 22 0;
#X connect 34 0 22 0;
#X connect 35 0 37 0;
#X connect 36 0 33 0;
#X connect 36 1 47 0;
#X connect 37 0 38 0;
#X connect 38 0 39 0;
#X connect 39 0 40 0;
#X connect 40 0 41 0;
#X connect 41 0 42 0;
#X connect 41 0 43 0;
#X connect 41 0 45 0;
#X connect 42 0 41 1;
#X connect 43 0 44 0;
#X connect 44 0 34 0;
#X connect 45 0 46 0;
#X connect 46 0 49 0;
#X connect 47 0 37 1;
#X connect 48 0 22 0;
#X connect 49 0 48 0;
#X connect 49 1 50 0;
#X connect 50 0 37 1;
#X connect 50 0 41 1;
#X restore 1258 50 pd compose;
#X obj 103 -226 bng 50 250 50 0 \$0-recordPattern empty empty 17 7
0 10 -262144 -1 -1;
#X text 92 -173 record pattern;
#X obj 203 -224 bng 50 250 50 0 \$0-clearPattern empty empty 17 7 0
10 -262144 -1 -1;
#X text 192 -171 clear pattern;
#X obj 298 -223 bng 50 250 50 0 \$0-resampleMelody empty empty 17 7
0 10 -262144 -1 -1;
#X text 287 -170 resample melody;
#X obj 515 -145 tgl 50 0 \$0-randomizeNotes empty empty 17 7 0 10 -262144
-1 -1 0 1;
#X obj 526 -381 hradio 50 1 0 8 \$0-selectProgression empty empty 0
-8 0 10 -262144 -1 -1 0;
#X text 677 -407 chord progression;
#X text 588 172 tempo;
#X obj 514 195 hradio 50 1 0 4 \$0-setPattern empty empty 0 -8 0 10
-262144 -1 -1 0;
#X text 573 248 set pattern;
#X obj 610 -220 tgl 50 0 \$0-drumsSwitch empty empty 17 7 0 10 -262144
-1 -1 0 1;
#X text 601 -169 drums switch;
#X obj 701 -219 tgl 50 0 \$0-synthSwitch empty empty 17 7 0 10 -262144
-1 -1 0 1;
#X text 692 -168 synth switch;
#X obj 802 -219 tgl 50 0 \$0-samplerSwitch samplerSwitch empty 17 7
0 10 -262144 -1 -1 0 1;
#X text 786 -169 sampler switch;
#X obj 807 -144 tgl 50 0 \$0-samplerFade empty empty 17 7 0 10 -262144
-1 -1 0 1;
#X obj 611 -142 tgl 50 0 \$0-drumsFade empty empty 17 7 0 10 -262144
-1 -1 0 1;
#X text 602 -91 drums fade;
#X obj 704 -144 tgl 50 0 \$0-synthFade empty empty 17 7 0 10 -262144
-1 -1 0 1;
#X text 695 -93 synth fade;
#X text 791 -94 sampler fade;
#X obj 761 193 hsl 300 50 0.01 1 1 0 \$0-fxLevel fxLevel empty -2 -8
0 10 -262144 -1 -1 0 1;
#X text 880 246 fx level;
#X floatatom 447 97 5 0 0 0 - - -;
#X obj 609 -302 tgl 50 0 \$0-drumsHalftime empty empty 17 7 0 10 -262144
-1 -1 0 1;
#X text 591 -250 drums halftime;
#X obj 801 -300 tgl 50 0 \$0-samplerHalftime empty empty 17 7 0 10
-262144 -1 -1 0 1;
#X text 783 -248 sampler halftime;
#X obj 517 -215 tgl 50 0 \$0-swingSwitch empty empty 17 7 0 10 -262144
-1 -1 0 1;
#X text 500 -89 randomize notes;
#X text 521 -164 swing;
#X obj 912 -219 tgl 50 0 \$0-pitchedSwitch empty empty 17 7 0 10 -262144
-1 -1 0 1;
#X obj 917 -144 tgl 50 0 \$0-pitchedFade empty empty 17 7 0 10 -262144
-1 -1 0 1;
#X obj 911 -300 tgl 50 0 \$0-pitchedHalftime empty empty 17 7 0 10
-262144 -1 -1 0 1;
#X text 893 -248 pitched halftime;
#X text 901 -94 pitched fade;
#N canvas 130 91 1440 796 pitched 0;
#X obj -38 459 birdPan~;
#X obj 152 413 birdPan~;
#X obj 245 450 birdPan~;
#X obj 463 483 birdPan~;
#X obj 508 517 throw~ pitchedL;
#X obj 457 541 throw~ pitchedR;
#X obj 291 484 throw~ pitchedL;
#X obj 240 508 throw~ pitchedR;
#X obj 197 450 throw~ pitchedL;
#X obj 146 474 throw~ pitchedR;
#X obj 12 492 throw~ pitchedL;
#X obj -47 516 throw~ pitchedR;
#X obj 303 541 catch~ pitchedL;
#X obj 143 498 catch~ pitchedR;
#X obj 304 570 s~ pitchedL;
#X obj 157 525 s~ pitchedR;
#X obj 189 71 r \$0-currentChord;
#X obj 188 97 unpack f f f f;
#X floatatom 174 152 5 0 0 0 - - -;
#X floatatom 210 152 5 0 0 0 - - -;
#X floatatom 247 153 5 0 0 0 - - -;
#X floatatom 283 155 5 0 0 0 - - -;
#X obj 496 349 r \$0-random;
#X msg 496 372 randomize;
#X obj 467 382 bng 15 250 50 0 empty empty empty 17 7 0 10 -262144
-1 -1;
#X obj 58 44 r~ samplerL;
#X obj 91 118 *~ 1;
#X obj 162 47 r~ samplerR;
#X obj 593 372 pitcher2~;
#X obj 155 364 voxPitcher~;
#X obj 448 277 s \$0-toPitcher;
#X msg 448 246 squelch \$1;
#X msg 466 217 harmonics \$1;
#X obj 407 322 r \$0-toPitcher;
#X obj 465 66 hsl 128 15 0.01 1 0 0 empty empty empty -2 -8 0 10 -262144
-1 -1 0 1;
#X obj 446 181 hsl 128 15 0.01 1 1 0 empty empty empty -2 -8 0 10 -262144
-1 -1 0 1;
#X floatatom 411 219 5 0 0 0 - - -;
#X obj 558 230 + 0.02;
#X floatatom 569 261 5 0 0 0 - - -;
#X obj 556 208 * 0.02;
#X obj 389 37 r \$0-random;
#X obj 434 123 random 100;
#X obj 435 149 * 0.01;
#X obj 523 115 birdInvert 1;
#X obj 46 357 voxPitcher~;
#X obj 240 363 voxPitcher~;
#X obj 337 364 voxPitcher~;
#X obj 107 234 random 5;
#X obj 107 278 * 12;
#X obj 77 208 t f b;
#X obj 77 296 +;
#X obj 107 255 - 3;
#X obj 196 233 random 5;
#X obj 196 277 * 12;
#X obj 166 207 t f b;
#X obj 166 295 +;
#X obj 196 254 - 3;
#X obj 279 232 random 5;
#X obj 279 276 * 12;
#X obj 249 206 t f b;
#X obj 249 294 +;
#X obj 279 253 - 3;
#X obj 368 231 random 5;
#X obj 368 275 * 12;
#X obj 338 205 t f b;
#X obj 338 293 +;
#X obj 368 252 - 3;
#X obj 460 452 birdFilter~ 350 700 1750 3500;
#X obj 248 425 birdFilter~ 350 700 1750 3500;
#X obj 155 391 birdFilter~ 350 700 1750 3500;
#X obj -36 432 birdFilter~ 350 700 1750 3500;
#X connect 0 0 11 0;
#X connect 0 1 10 0;
#X connect 1 0 9 0;
#X connect 1 1 8 0;
#X connect 2 0 7 0;
#X connect 2 1 6 0;
#X connect 3 0 5 0;
#X connect 3 1 4 0;
#X connect 12 0 14 0;
#X connect 13 0 15 0;
#X connect 16 0 17 0;
#X connect 17 0 18 0;
#X connect 17 0 49 0;
#X connect 17 1 19 0;
#X connect 17 1 54 0;
#X connect 17 2 20 0;
#X connect 17 2 59 0;
#X connect 17 3 21 0;
#X connect 17 3 64 0;
#X connect 22 0 23 0;
#X connect 22 0 24 0;
#X connect 23 0 3 1;
#X connect 23 0 2 1;
#X connect 23 0 1 1;
#X connect 23 0 0 1;
#X connect 25 0 26 0;
#X connect 26 0 29 0;
#X connect 26 0 44 0;
#X connect 26 0 45 0;
#X connect 26 0 46 0;
#X connect 27 0 26 0;
#X connect 29 0 69 0;
#X connect 31 0 30 0;
#X connect 32 0 30 0;
#X connect 33 0 29 2;
#X connect 33 0 44 2;
#X connect 33 0 45 2;
#X connect 33 0 46 2;
#X connect 34 0 32 0;
#X connect 35 0 36 0;
#X connect 35 0 39 0;
#X connect 37 0 31 0;
#X connect 37 0 38 0;
#X connect 39 0 37 0;
#X connect 41 0 42 0;
#X connect 42 0 43 0;
#X connect 42 0 35 0;
#X connect 43 0 34 0;
#X connect 44 0 70 0;
#X connect 45 0 68 0;
#X connect 46 0 67 0;
#X connect 47 0 51 0;
#X connect 48 0 50 1;
#X connect 49 0 50 0;
#X connect 49 1 47 0;
#X connect 50 0 44 1;
#X connect 51 0 48 0;
#X connect 52 0 56 0;
#X connect 53 0 55 1;
#X connect 54 0 55 0;
#X connect 54 1 52 0;
#X connect 55 0 29 1;
#X connect 56 0 53 0;
#X connect 57 0 61 0;
#X connect 58 0 60 1;
#X connect 59 0 60 0;
#X connect 59 1 57 0;
#X connect 60 0 45 1;
#X connect 61 0 58 0;
#X connect 62 0 66 0;
#X connect 63 0 65 1;
#X connect 64 0 65 0;
#X connect 64 1 62 0;
#X connect 65 0 46 1;
#X connect 66 0 63 0;
#X connect 67 0 3 0;
#X connect 68 0 2 0;
#X connect 69 0 1 0;
#X connect 70 0 0 0;
#X restore 1256 -61 pd pitched;
#X text 896 -169 pitched switch;
#X obj 611 -65 vsl 50 128 0.01 1 1 0 \$0-drumsVolume empty empty 0
-9 0 10 -262144 -1 -1 0 1;
#X text 600 66 drum volume;
#X obj 706 -63 vsl 50 128 0.01 1 1 0 \$0-synthVolume empty empty 0
-9 0 10 -262144 -1 -1 0 1;
#X text 695 68 synth volume;
#X obj 810 -66 vsl 50 128 0.01 1 1 0 \$0-samplerVolume samplerVolume
empty 0 -9 0 10 -262144 -1 -1 0 1;
#X text 795 68 sampler volume;
#X obj 919 -65 vsl 50 128 0.01 1 1 0 \$0-pitchedVolume empty empty
0 -9 0 10 -262144 -1 -1 0 1;
#X text 904 69 pitched volume;
#X obj 763 121 hsl 300 50 0.01 1 1 0 \$0-mainLevel mainLevel empty
-2 -8 0 10 -262144 -1 -1 0 1;
#X text 882 174 main level;
#X obj 517 -66 vsl 50 128 0.01 1 1 0 \$0-metroVolume empty empty 0
-9 0 10 -262144 -1 -1 0 1;
#X text 486 65 metronome volume;
#X connect 0 0 5 0;
#X connect 0 1 5 0;
#X connect 7 0 6 0;
#X connect 16 0 7 0;
#X connect 23 0 6 0;
#X connect 26 0 27 0;
#X connect 55 0 26 0;
