#N canvas 81 158 796 463 10;
#X obj -45 -45 inlet~;
#X obj 39 391 outlet~;
#X obj 135 51 inlet;
#X obj 135 113 select 0 1;
#X obj 18 311 *~;
#X obj 192 185 switch~;
#X obj 164 134 t b b;
#X obj 136 157 t b b;
#X obj 82 267 lop~ 1;
#X msg 191 160 1;
#X msg 85 237 1;
#X msg 117 237 0;
#X obj 135 183 del 30;
#X msg 134 205 0;
#X obj 71 48 loadbang;
#X msg 80 75 0.5;
#X obj 79 123 + 1;
#N canvas 399 41 844 774 p2s 0;
#X obj 196 246 phasor~;
#X obj 133 247 phasor~;
#X obj 142 -149 inlet;
#X obj 253 244 phasor~;
#X obj 195 476 hip~ 4;
#X obj 196 514 outlet~;
#X obj 132 217 *~ 0.5;
#X obj 254 218 *~ 2;
#X obj 385 -64 inlet;
#X obj 497 525 loadbang;
#X msg 496 551 0.5;
#X obj 143 136 lop~ 20;
#X obj 469 133 cos;
#X floatatom 467 212 5 0 0 0 - - -;
#X obj 468 177 clip 0 1;
#X obj 468 101 + 3.14;
#X obj 406 50 * 3.14;
#X obj 332 110 cos;
#X floatatom 331 182 5 0 0 0 - - -;
#X obj 331 140 clip 0 1;
#X obj 405 123 cos;
#X floatatom 403 227 5 0 0 0 - - -;
#X obj 404 192 clip 0 1;
#X obj 403 101 + 1.57;
#X floatatom 487 157 5 0 0 0 - - -;
#X obj 404 159 abs;
#X obj 194 445 *~ 0.333;
#X obj 133 330 *~;
#X obj 157 295 lop~ 1;
#X msg 435 -20 0.5;
#X obj 428 -63 loadbang;
#X obj 196 335 *~;
#X obj 220 300 lop~ 1;
#X obj 255 332 *~;
#X obj 279 297 lop~ 1;
#X connect 0 0 31 0;
#X connect 1 0 27 0;
#X connect 2 0 11 0;
#X connect 3 0 33 0;
#X connect 4 0 5 0;
#X connect 6 0 1 0;
#X connect 7 0 3 0;
#X connect 8 0 16 0;
#X connect 9 0 10 0;
#X connect 11 0 0 0;
#X connect 11 0 6 0;
#X connect 11 0 7 0;
#X connect 12 0 14 0;
#X connect 12 0 24 0;
#X connect 14 0 13 0;
#X connect 14 0 34 0;
#X connect 15 0 12 0;
#X connect 16 0 15 0;
#X connect 16 0 17 0;
#X connect 16 0 23 0;
#X connect 17 0 19 0;
#X connect 19 0 18 0;
#X connect 19 0 28 0;
#X connect 20 0 25 0;
#X connect 22 0 21 0;
#X connect 22 0 32 0;
#X connect 23 0 20 0;
#X connect 25 0 22 0;
#X connect 26 0 4 0;
#X connect 27 0 26 0;
#X connect 28 0 27 1;
#X connect 29 0 16 0;
#X connect 30 0 29 0;
#X connect 31 0 26 0;
#X connect 32 0 31 1;
#X connect 33 0 26 0;
#X connect 34 0 33 1;
#X restore -12 220 pd p2s;
#X obj -13 260 autoPitch1.1;
#X msg 155 18 switch 1;
#X obj 158 -22 loadbang;
#X obj 8 -44 inlet;
#X floatatom 251 121 5 0 0 0 - - -;
#X obj 135 77 route switch squelch harmonics;
#X obj 79 101 * 80;
#X floatatom 36 -10 5 0 0 0 - - -;
#X obj -7 71 mtof;
#X floatatom 8 112 5 0 0 0 - - -;
#X obj 32 359 hip~ 4;
#X connect 0 0 18 1;
#X connect 2 0 23 0;
#X connect 3 0 7 0;
#X connect 3 1 6 0;
#X connect 4 0 28 0;
#X connect 6 0 10 0;
#X connect 6 1 9 0;
#X connect 7 0 12 0;
#X connect 7 1 11 0;
#X connect 8 0 4 1;
#X connect 9 0 5 0;
#X connect 10 0 8 0;
#X connect 11 0 8 0;
#X connect 12 0 13 0;
#X connect 13 0 5 0;
#X connect 14 0 15 0;
#X connect 15 0 24 0;
#X connect 16 0 18 2;
#X connect 17 0 18 0;
#X connect 18 0 4 0;
#X connect 19 0 23 0;
#X connect 20 0 19 0;
#X connect 21 0 25 0;
#X connect 21 0 26 0;
#X connect 23 0 3 0;
#X connect 23 1 24 0;
#X connect 23 2 17 1;
#X connect 23 2 22 0;
#X connect 24 0 16 0;
#X connect 26 0 17 0;
#X connect 26 0 27 0;
#X connect 28 0 1 0;
