#N canvas 91 145 1290 618 10;
#N canvas 271 22 982 674 controls 0;
#X obj 162 162 vsl 15 128 0 1 0 0 empty empty empty 0 -9 0 10 -262144
-1 -1 8403 1;
#X obj 188 162 vsl 15 128 0 1 0 0 empty empty empty 0 -9 0 10 -262144
-1 -1 9736 1;
#X obj 167 307 tgl 15 0 empty empty empty 17 7 0 10 -262144 -1 -1 1
1;
#X obj 230 164 vsl 15 128 0 1 0 0 empty empty empty 0 -9 0 10 -262144
-1 -1 1792 1;
#X obj 251 163 vsl 15 128 0 1 0 0 empty empty empty 0 -9 0 10 -262144
-1 -1 12116 1;
#X obj 230 308 tgl 15 0 empty empty empty 17 7 0 10 -262144 -1 -1 1
1;
#X text 171 139 fuzz;
#X text 228 140 filter;
#X obj 294 163 vsl 15 128 0 1 0 0 empty empty empty 0 -9 0 10 -262144
-1 -1 6477 1;
#X obj 316 163 vsl 15 128 0 1 0 0 empty empty empty 0 -9 0 10 -262144
-1 -1 3810 1;
#X obj 295 307 tgl 15 0 empty empty empty 17 7 0 10 -262144 -1 -1 1
1;
#X obj 357 163 vsl 15 128 0 1 0 0 empty empty empty 0 -9 0 10 -262144
-1 -1 10414 1;
#X obj 379 162 vsl 15 128 0 1 0 0 empty empty empty 0 -9 0 10 -262144
-1 -1 508 1;
#X obj 358 307 tgl 15 0 empty empty empty 17 7 0 10 -262144 -1 -1 0
1;
#X obj 420 164 vsl 15 128 0 1 0 0 empty empty empty 0 -9 0 10 -262144
-1 -1 8763 1;
#X obj 442 163 vsl 15 128 0 1 0 0 empty empty empty 0 -9 0 10 -262144
-1 -1 5334 1;
#X obj 421 308 tgl 15 0 empty empty empty 17 7 0 10 -262144 -1 -1 0
1;
#X text 293 137 delay;
#X text 356 138 chorus;
#X text 419 140 reverb;
#X floatatom 257 410 5 0 0 0 - - -;
#X floatatom 538 279 5 0 0 0 - - -;
#X obj 618 201 loadbang;
#X msg 619 223 120;
#X text 459 297 Time Sync;
#X text 529 296 Set tempo;
#X obj 474 280 tgl 15 0 empty empty empty 17 7 0 10 -262144 -1 -1 0
1;
#X obj 507 490 s timeSyncSwitch;
#X obj 722 68 inlet;
#X obj 513 366 swap 60000;
#X obj 523 393 /;
#X obj 519 428 metro;
#X obj 519 454 s metroBangs;
#X obj 637 458 s timeBaseMS;
#X obj 785 123 s \$0-randomize;
#X obj 290 -262 r \$0-randomize;
#X obj 130 -187 random 2;
#X obj 289 -240 t b b b b b;
#X obj 130 -164 sel 1;
#X obj 130 -139 t b b;
#X obj 183 -55 random 100;
#X obj 130 -117 random 100;
#X obj 183 -35 * 0.01;
#X obj 130 -96 * 0.01;
#X obj 237 -209 random 2;
#X obj 237 -186 sel 1;
#X obj 237 -161 t b b;
#X obj 265 -97 random 100;
#X obj 237 -139 random 100;
#X obj 265 -77 * 0.01;
#X obj 237 -118 * 0.01;
#X obj 406 -213 random 2;
#X obj 406 -190 sel 1;
#X obj 406 -165 t b b;
#X obj 434 -101 random 100;
#X obj 406 -143 random 100;
#X obj 434 -81 * 0.01;
#X obj 406 -122 * 0.01;
#X obj 481 -212 random 2;
#X obj 481 -189 sel 1;
#X obj 481 -164 t b b;
#X obj 509 -100 random 100;
#X obj 481 -142 random 100;
#X obj 509 -80 * 0.01;
#X obj 481 -121 * 0.01;
#X obj 553 -215 random 2;
#X obj 553 -192 sel 1;
#X obj 553 -167 t b b;
#X obj 581 -103 random 100;
#X obj 553 -145 random 100;
#X obj 581 -83 * 0.01;
#X obj 553 -124 * 0.01;
#X obj 724 95 route tempo randomize measures;
#X obj 638 431 f;
#X obj 836 141 s \$0-measures;
#X obj 698 335 r \$0-measures;
#X obj 697 401 t b f;
#X obj 719 458 s \$0-transitionTime;
#X obj 707 426 *;
#X obj 698 289 loadbang;
#X obj 226 -16 r \$0-transitionTime;
#X obj 210 11 f;
#X obj 179 35 pack f f;
#X obj 180 58 line;
#X obj 181 -12 t f b;
#X obj 153 8 f;
#X obj 122 32 pack f f;
#X obj 123 55 line;
#X obj 124 -15 t f b;
#X obj 352 -6 r \$0-transitionTime;
#X obj 335 32 f;
#X obj 304 56 pack f f;
#X obj 305 79 line;
#X obj 306 9 t f b;
#X obj 278 29 f;
#X obj 247 53 pack f f;
#X obj 248 76 line;
#X obj 249 6 t f b;
#X obj 489 3 r \$0-transitionTime;
#X obj 473 30 f;
#X obj 442 54 pack f f;
#X obj 443 77 line;
#X obj 444 7 t f b;
#X obj 416 27 f;
#X obj 385 51 pack f f;
#X obj 386 74 line;
#X obj 387 4 t f b;
#X obj 652 -1 r \$0-transitionTime;
#X obj 636 26 f;
#X obj 605 50 pack f f;
#X obj 606 73 line;
#X obj 607 3 t f b;
#X obj 579 23 f;
#X obj 548 47 pack f f;
#X obj 549 70 line;
#X obj 550 0 t f b;
#X obj 550 -251 bng 15 250 50 0 empty empty empty 17 7 0 10 -262144
-1 -1;
#X floatatom 618 120 5 0 0 0 - - -;
#X floatatom 565 115 5 0 0 0 - - -;
#X msg 698 314 8;
#X obj 185 529 s \$0-distortionSwitch;
#X obj 185 553 s \$0-distortionGain;
#X obj 205 572 s \$0-distortionFuzz;
#X obj 254 610 s \$0-filterSwitch;
#X obj 259 634 s \$0-filterLowCutFreq;
#X obj 271 655 s \$0-filterHighCutFreq;
#X obj 318 455 s \$0-delaySwitch;
#X obj 317 477 s \$0-delayTime1;
#X obj 339 503 s \$0-delayTime2;
#X obj 386 535 s \$0-chorusSwitch;
#X obj 399 559 s \$0-chorusRate;
#X obj 414 582 s \$0-chorusDepth;
#X obj 486 608 s \$0-reverbSwitch;
#X obj 505 635 s \$0-reverbRoomSize;
#X obj 522 660 s \$0-reverbDampen;
#X connect 0 0 20 0;
#X connect 0 0 121 0;
#X connect 1 0 122 0;
#X connect 2 0 120 0;
#X connect 3 0 124 0;
#X connect 4 0 125 0;
#X connect 5 0 123 0;
#X connect 8 0 127 0;
#X connect 9 0 128 0;
#X connect 10 0 126 0;
#X connect 11 0 130 0;
#X connect 12 0 131 0;
#X connect 13 0 129 0;
#X connect 14 0 133 0;
#X connect 15 0 134 0;
#X connect 16 0 132 0;
#X connect 21 0 29 0;
#X connect 22 0 23 0;
#X connect 23 0 21 0;
#X connect 26 0 27 0;
#X connect 26 0 31 0;
#X connect 28 0 72 0;
#X connect 29 0 30 0;
#X connect 29 1 30 1;
#X connect 30 0 31 1;
#X connect 30 0 73 0;
#X connect 30 0 73 1;
#X connect 31 0 32 0;
#X connect 35 0 37 0;
#X connect 36 0 38 0;
#X connect 36 0 2 0;
#X connect 37 0 36 0;
#X connect 37 1 44 0;
#X connect 37 2 51 0;
#X connect 37 3 58 0;
#X connect 37 4 65 0;
#X connect 38 0 39 0;
#X connect 39 0 41 0;
#X connect 39 1 40 0;
#X connect 40 0 42 0;
#X connect 41 0 43 0;
#X connect 42 0 84 0;
#X connect 43 0 88 0;
#X connect 44 0 45 0;
#X connect 44 0 5 0;
#X connect 45 0 46 0;
#X connect 46 0 48 0;
#X connect 46 1 47 0;
#X connect 47 0 49 0;
#X connect 48 0 50 0;
#X connect 49 0 93 0;
#X connect 50 0 97 0;
#X connect 51 0 52 0;
#X connect 51 0 10 0;
#X connect 52 0 53 0;
#X connect 53 0 55 0;
#X connect 53 1 54 0;
#X connect 54 0 56 0;
#X connect 55 0 57 0;
#X connect 56 0 9 0;
#X connect 57 0 8 0;
#X connect 58 0 59 0;
#X connect 58 0 13 0;
#X connect 59 0 60 0;
#X connect 60 0 62 0;
#X connect 60 1 61 0;
#X connect 61 0 63 0;
#X connect 62 0 64 0;
#X connect 63 0 102 0;
#X connect 64 0 106 0;
#X connect 65 0 66 0;
#X connect 65 0 16 0;
#X connect 66 0 67 0;
#X connect 67 0 69 0;
#X connect 67 1 68 0;
#X connect 68 0 70 0;
#X connect 69 0 71 0;
#X connect 70 0 111 0;
#X connect 71 0 115 0;
#X connect 72 0 21 0;
#X connect 72 1 34 0;
#X connect 72 2 74 0;
#X connect 73 0 33 0;
#X connect 73 0 78 0;
#X connect 75 0 76 0;
#X connect 76 0 73 0;
#X connect 76 1 78 1;
#X connect 78 0 77 0;
#X connect 79 0 119 0;
#X connect 80 0 81 0;
#X connect 80 0 81 1;
#X connect 80 0 85 1;
#X connect 80 0 85 0;
#X connect 81 0 82 1;
#X connect 82 0 83 0;
#X connect 83 0 1 0;
#X connect 84 0 82 0;
#X connect 84 1 81 0;
#X connect 85 0 86 1;
#X connect 86 0 87 0;
#X connect 87 0 0 0;
#X connect 88 0 86 0;
#X connect 88 1 85 0;
#X connect 89 0 90 0;
#X connect 89 0 90 1;
#X connect 89 0 94 1;
#X connect 89 0 94 0;
#X connect 90 0 91 1;
#X connect 91 0 92 0;
#X connect 92 0 4 0;
#X connect 93 0 91 0;
#X connect 93 1 90 0;
#X connect 94 0 95 1;
#X connect 95 0 96 0;
#X connect 96 0 3 0;
#X connect 97 0 95 0;
#X connect 97 1 94 0;
#X connect 98 0 99 0;
#X connect 98 0 99 1;
#X connect 98 0 103 1;
#X connect 98 0 103 0;
#X connect 99 0 100 1;
#X connect 100 0 101 0;
#X connect 101 0 12 0;
#X connect 102 0 100 0;
#X connect 102 1 99 0;
#X connect 103 0 104 1;
#X connect 104 0 105 0;
#X connect 105 0 11 0;
#X connect 106 0 104 0;
#X connect 106 1 103 0;
#X connect 107 0 108 0;
#X connect 107 0 108 1;
#X connect 107 0 112 1;
#X connect 107 0 112 0;
#X connect 108 0 109 1;
#X connect 109 0 110 0;
#X connect 110 0 15 0;
#X connect 110 0 117 0;
#X connect 111 0 109 0;
#X connect 111 1 108 0;
#X connect 112 0 113 1;
#X connect 113 0 114 0;
#X connect 114 0 14 0;
#X connect 114 0 118 0;
#X connect 115 0 113 0;
#X connect 115 1 112 0;
#X connect 116 0 65 0;
#X connect 119 0 76 0;
#X coords 0 -1 1 1 500 250 1 100 100;
#X restore 556 95 pd controls;
#N canvas 0 22 1440 746 reverb 0;
#X obj 480 104 inlet~;
#X obj 506 396 outlet~;
#N canvas 496 121 711 552 verb 0;
#X obj -9 13 inlet~;
#X obj 53 303 outlet~;
#X obj 129 31 inlet;
#X obj 129 80 select 0 1;
#X obj 54 282 *~;
#X obj 129 57 route switch size damp;
#X obj 186 152 switch~;
#X obj 158 101 t b b;
#X obj 130 124 t b b;
#X obj 76 234 lop~ 1;
#X msg 185 127 1;
#X msg 79 204 1;
#X msg 111 204 0;
#X msg 128 172 0;
#N canvas 92 310 634 321 vfreeverb~ 0;
#N canvas 261 41 778 367 combfilters-left1 0;
#X obj 46 244 +~;
#X obj 61 219 *~ 0.3;
#X obj 61 194 lop~ 1000;
#X obj 231 244 +~;
#X obj 246 219 *~ 0.3;
#X obj 246 194 lop~ 1000;
#X obj 429 218 *~ 0.3;
#X obj 429 193 lop~ 1000;
#X obj 414 241 +~;
#X obj 610 218 *~ 0.3;
#X obj 610 193 lop~ 1000;
#X obj 595 241 +~;
#X obj 61 141 delread~ \$0-comb1left;
#X obj 246 142 delread~ \$0-comb2left;
#X obj 429 141 delread~ \$0-comb3left;
#X obj 610 141 delread~ \$0-comb4left;
#X obj 46 268 delwrite~ \$0-comb1left 100;
#X obj 231 268 delwrite~ \$0-comb2left 100;
#X obj 414 267 delwrite~ \$0-comb3left 100;
#X obj 595 267 delwrite~ \$0-comb4left 100;
#X obj 61 97 r \$0-comb1left;
#X obj 246 97 r \$0-comb2left;
#X obj 429 95 r \$0-comb3left;
#X obj 610 96 r \$0-comb4left;
#X obj 112 170 r \$0-frequency;
#X obj 297 170 r \$0-frequency;
#X obj 480 167 r \$0-frequency;
#X obj 661 167 r \$0-frequency;
#X obj 46 28 inlet~;
#X obj 338 326 outlet~;
#X floatatom 70 119 5 0 0 0 - - -;
#X floatatom 255 121 5 0 0 0 - - -;
#X floatatom 439 119 5 0 0 0 - - -;
#X floatatom 622 121 5 0 0 0 - - -;
#X obj 279 58 clip 0 0.99;
#X obj 279 29 r \$0-room;
#X connect 0 0 16 0;
#X connect 1 0 0 1;
#X connect 2 0 1 0;
#X connect 2 0 29 0;
#X connect 3 0 17 0;
#X connect 4 0 3 1;
#X connect 5 0 4 0;
#X connect 5 0 29 0;
#X connect 6 0 8 1;
#X connect 7 0 6 0;
#X connect 7 0 29 0;
#X connect 8 0 18 0;
#X connect 9 0 11 1;
#X connect 10 0 9 0;
#X connect 10 0 29 0;
#X connect 11 0 19 0;
#X connect 12 0 2 0;
#X connect 13 0 5 0;
#X connect 14 0 7 0;
#X connect 15 0 10 0;
#X connect 20 0 12 0;
#X connect 20 0 30 0;
#X connect 21 0 13 0;
#X connect 21 0 31 0;
#X connect 22 0 14 0;
#X connect 22 0 32 0;
#X connect 23 0 15 0;
#X connect 23 0 33 0;
#X connect 24 0 2 1;
#X connect 25 0 5 1;
#X connect 26 0 7 1;
#X connect 27 0 10 1;
#X connect 28 0 0 0;
#X connect 28 0 3 0;
#X connect 28 0 8 0;
#X connect 28 0 11 0;
#X connect 34 0 1 1;
#X connect 34 0 4 1;
#X connect 34 0 6 1;
#X connect 34 0 9 1;
#X connect 35 0 34 0;
#X restore 15 100 pd combfilters-left1;
#N canvas 27 56 358 650 diffusor-left 0;
#X obj 51 107 *~ 0.5;
#X obj 36 132 +~;
#X obj 66 132 -~;
#X obj 36 26 inlet~;
#X obj 81 238 *~ 0.5;
#X obj 66 263 +~;
#X obj 96 263 -~;
#X obj 111 368 *~ 0.5;
#X obj 96 393 +~;
#X obj 126 393 -~;
#X obj 141 498 *~ 0.5;
#X obj 126 523 +~;
#X obj 156 523 -~;
#X obj 156 605 outlet~;
#X text 95 28 freeverb's diffusor;
#X obj 156 576 hip~ 5;
#X floatatom 214 70 5 0 0 0 - - -;
#X floatatom 246 203 5 0 0 0 - - -;
#X floatatom 280 334 5 0 0 0 - - -;
#X floatatom 304 464 5 0 0 0 - - -;
#X obj 51 53 r \$0-allpass1left;
#X obj 51 80 delread~ \$0-allpass1left;
#X obj 36 158 delwrite~ \$0-allpass1left 40;
#X obj 81 186 r \$0-allpass2left;
#X obj 81 211 delread~ \$0-allpass2left;
#X obj 66 290 delwrite~ \$0-allpass2left 40;
#X obj 111 317 r \$0-allpass3left;
#X obj 111 341 delread~ \$0-allpass3left;
#X obj 96 420 delwrite~ \$0-allpass3left 40;
#X obj 141 447 r \$0-allpass4left;
#X obj 141 471 delread~ \$0-allpass4left;
#X obj 126 550 delwrite~ \$0-allpass4left 40;
#X connect 0 0 1 1;
#X connect 1 0 22 0;
#X connect 2 0 5 0;
#X connect 2 0 6 1;
#X connect 3 0 1 0;
#X connect 3 0 2 1;
#X connect 4 0 5 1;
#X connect 5 0 25 0;
#X connect 6 0 8 0;
#X connect 6 0 9 1;
#X connect 7 0 8 1;
#X connect 8 0 28 0;
#X connect 9 0 11 0;
#X connect 9 0 12 1;
#X connect 10 0 11 1;
#X connect 11 0 31 0;
#X connect 12 0 15 0;
#X connect 15 0 13 0;
#X connect 20 0 16 0;
#X connect 20 0 21 0;
#X connect 21 0 0 0;
#X connect 21 0 2 0;
#X connect 23 0 17 0;
#X connect 23 0 24 0;
#X connect 24 0 4 0;
#X connect 24 0 6 0;
#X connect 26 0 18 0;
#X connect 26 0 27 0;
#X connect 27 0 7 0;
#X connect 27 0 9 0;
#X connect 29 0 19 0;
#X connect 29 0 30 0;
#X connect 30 0 10 0;
#X connect 30 0 12 0;
#X restore 15 168 pd diffusor-left;
#N canvas 312 366 778 367 combfilters-left2 0;
#X obj 46 244 +~;
#X obj 61 219 *~ 0.3;
#X obj 61 194 lop~ 1000;
#X obj 231 244 +~;
#X obj 246 219 *~ 0.3;
#X obj 246 194 lop~ 1000;
#X obj 429 218 *~ 0.3;
#X obj 429 193 lop~ 1000;
#X obj 414 241 +~;
#X obj 610 218 *~ 0.3;
#X obj 610 193 lop~ 1000;
#X obj 595 241 +~;
#X obj 112 170 r \$0-frequency;
#X obj 297 170 r \$0-frequency;
#X obj 480 167 r \$0-frequency;
#X obj 661 167 r \$0-frequency;
#X obj 46 28 inlet~;
#X obj 338 326 outlet~;
#X obj 61 90 r \$0-comb5left;
#X obj 61 141 delread~ \$0-comb5left;
#X obj 46 268 delwrite~ \$0-comb5left 100;
#X obj 246 90 r \$0-comb6left;
#X obj 246 142 delread~ \$0-comb6left;
#X obj 231 268 delwrite~ \$0-comb6left 100;
#X obj 429 88 r \$0-comb7left;
#X obj 429 141 delread~ \$0-comb7left;
#X obj 414 267 delwrite~ \$0-comb7left 100;
#X obj 610 89 r \$0-comb8left;
#X obj 610 141 delread~ \$0-comb8left;
#X obj 595 267 delwrite~ \$0-comb8left 100;
#X floatatom 70 116 5 0 0 0 - - -;
#X floatatom 261 118 5 0 0 0 - - -;
#X floatatom 440 117 5 0 0 0 - - -;
#X floatatom 620 116 5 0 0 0 - - -;
#X obj 279 58 clip 0 0.99;
#X obj 279 28 r \$0-room;
#X connect 0 0 20 0;
#X connect 1 0 0 1;
#X connect 2 0 1 0;
#X connect 2 0 17 0;
#X connect 3 0 23 0;
#X connect 4 0 3 1;
#X connect 5 0 4 0;
#X connect 5 0 17 0;
#X connect 6 0 8 1;
#X connect 7 0 6 0;
#X connect 7 0 17 0;
#X connect 8 0 26 0;
#X connect 9 0 11 1;
#X connect 10 0 9 0;
#X connect 10 0 17 0;
#X connect 11 0 29 0;
#X connect 12 0 2 1;
#X connect 13 0 5 1;
#X connect 14 0 7 1;
#X connect 15 0 10 1;
#X connect 16 0 0 0;
#X connect 16 0 3 0;
#X connect 16 0 8 0;
#X connect 16 0 11 0;
#X connect 18 0 19 0;
#X connect 18 0 30 0;
#X connect 19 0 2 0;
#X connect 21 0 22 0;
#X connect 21 0 31 0;
#X connect 22 0 5 0;
#X connect 24 0 25 0;
#X connect 24 0 32 0;
#X connect 25 0 7 0;
#X connect 27 0 28 0;
#X connect 27 0 33 0;
#X connect 28 0 10 0;
#X connect 34 0 1 1;
#X connect 34 0 4 1;
#X connect 34 0 6 1;
#X connect 34 0 9 1;
#X connect 35 0 34 0;
#X restore 36 134 pd combfilters-left2;
#N canvas 261 41 778 367 combfilters-right1 0;
#X obj 46 244 +~;
#X obj 61 219 *~ 0.3;
#X obj 61 194 lop~ 1000;
#X obj 231 244 +~;
#X obj 246 219 *~ 0.3;
#X obj 246 194 lop~ 1000;
#X obj 429 218 *~ 0.3;
#X obj 429 193 lop~ 1000;
#X obj 414 241 +~;
#X obj 610 218 *~ 0.3;
#X obj 610 193 lop~ 1000;
#X obj 595 241 +~;
#X obj 112 170 r \$0-frequency;
#X obj 297 170 r \$0-frequency;
#X obj 480 167 r \$0-frequency;
#X obj 661 167 r \$0-frequency;
#X obj 46 28 inlet~;
#X obj 338 326 outlet~;
#X floatatom 70 119 5 0 0 0 - - -;
#X floatatom 255 121 5 0 0 0 - - -;
#X floatatom 439 119 5 0 0 0 - - -;
#X floatatom 622 121 5 0 0 0 - - -;
#X obj 61 141 delread~ \$0-comb1right;
#X obj 246 142 delread~ \$0-comb2right;
#X obj 429 141 delread~ \$0-comb3right;
#X obj 610 141 delread~ \$0-comb4right;
#X obj 61 97 r \$0-comb1right;
#X obj 246 97 r \$0-comb2right;
#X obj 429 95 r \$0-comb3right;
#X obj 610 97 r \$0-comb4right;
#X obj 46 268 delwrite~ \$0-comb1right 100;
#X obj 231 268 delwrite~ \$0-comb2right 100;
#X obj 414 267 delwrite~ \$0-comb3right 100;
#X obj 595 267 delwrite~ \$0-comb4right 100;
#X obj 279 58 clip 0 0.99;
#X obj 279 28 r \$0-room;
#X connect 0 0 30 0;
#X connect 1 0 0 1;
#X connect 2 0 1 0;
#X connect 2 0 17 0;
#X connect 3 0 31 0;
#X connect 4 0 3 1;
#X connect 5 0 4 0;
#X connect 5 0 17 0;
#X connect 6 0 8 1;
#X connect 7 0 6 0;
#X connect 7 0 17 0;
#X connect 8 0 32 0;
#X connect 9 0 11 1;
#X connect 10 0 9 0;
#X connect 10 0 17 0;
#X connect 11 0 33 0;
#X connect 12 0 2 1;
#X connect 13 0 5 1;
#X connect 14 0 7 1;
#X connect 15 0 10 1;
#X connect 16 0 0 0;
#X connect 16 0 3 0;
#X connect 16 0 8 0;
#X connect 16 0 11 0;
#X connect 22 0 2 0;
#X connect 23 0 5 0;
#X connect 24 0 7 0;
#X connect 25 0 10 0;
#X connect 26 0 18 0;
#X connect 26 0 22 0;
#X connect 27 0 19 0;
#X connect 27 0 23 0;
#X connect 28 0 20 0;
#X connect 28 0 24 0;
#X connect 29 0 21 0;
#X connect 29 0 25 0;
#X connect 34 0 1 1;
#X connect 34 0 4 1;
#X connect 34 0 6 1;
#X connect 34 0 9 1;
#X connect 35 0 34 0;
#X restore 208 99 pd combfilters-right1;
#N canvas 312 366 778 367 combfilters-right2 0;
#X obj 46 244 +~;
#X obj 61 219 *~ 0.3;
#X obj 61 194 lop~ 1000;
#X obj 231 244 +~;
#X obj 246 219 *~ 0.3;
#X obj 246 194 lop~ 1000;
#X obj 429 218 *~ 0.3;
#X obj 429 193 lop~ 1000;
#X obj 414 241 +~;
#X obj 610 218 *~ 0.3;
#X obj 610 193 lop~ 1000;
#X obj 595 241 +~;
#X obj 112 170 r \$0-frequency;
#X obj 297 170 r \$0-frequency;
#X obj 480 167 r \$0-frequency;
#X obj 661 167 r \$0-frequency;
#X obj 46 28 inlet~;
#X obj 338 326 outlet~;
#X floatatom 70 116 5 0 0 0 - - -;
#X floatatom 261 118 5 0 0 0 - - -;
#X floatatom 440 117 5 0 0 0 - - -;
#X floatatom 620 116 5 0 0 0 - - -;
#X obj 279 58 clip 0 0.99;
#X obj 61 90 r \$0-comb5right;
#X obj 246 90 r \$0-comb6right;
#X obj 429 88 r \$0-comb7right;
#X obj 610 89 r \$0-comb8right;
#X obj 61 141 delread~ \$0-comb5right;
#X obj 246 142 delread~ \$0-comb6right;
#X obj 429 141 delread~ \$0-comb7right;
#X obj 610 141 delread~ \$0-comb8right;
#X obj 46 268 delwrite~ \$0-comb5right 100;
#X obj 231 268 delwrite~ \$0-comb6right 100;
#X obj 414 267 delwrite~ \$0-comb7right 100;
#X obj 595 267 delwrite~ \$0-comb8right 100;
#X obj 279 28 r \$0-room;
#X connect 0 0 31 0;
#X connect 1 0 0 1;
#X connect 2 0 1 0;
#X connect 2 0 17 0;
#X connect 3 0 32 0;
#X connect 4 0 3 1;
#X connect 5 0 4 0;
#X connect 5 0 17 0;
#X connect 6 0 8 1;
#X connect 7 0 6 0;
#X connect 7 0 17 0;
#X connect 8 0 33 0;
#X connect 9 0 11 1;
#X connect 10 0 9 0;
#X connect 10 0 17 0;
#X connect 11 0 34 0;
#X connect 12 0 2 1;
#X connect 13 0 5 1;
#X connect 14 0 7 1;
#X connect 15 0 10 1;
#X connect 16 0 0 0;
#X connect 16 0 3 0;
#X connect 16 0 8 0;
#X connect 16 0 11 0;
#X connect 22 0 1 1;
#X connect 22 0 4 1;
#X connect 22 0 6 1;
#X connect 22 0 9 1;
#X connect 23 0 18 0;
#X connect 23 0 27 0;
#X connect 24 0 19 0;
#X connect 24 0 28 0;
#X connect 25 0 20 0;
#X connect 25 0 29 0;
#X connect 26 0 21 0;
#X connect 26 0 30 0;
#X connect 27 0 2 0;
#X connect 28 0 5 0;
#X connect 29 0 7 0;
#X connect 30 0 10 0;
#X connect 35 0 22 0;
#X restore 225 133 pd combfilters-right2;
#N canvas 27 56 358 650 diffusor-right 0;
#X obj 51 107 *~ 0.5;
#X obj 36 132 +~;
#X obj 66 132 -~;
#X obj 36 26 inlet~;
#X obj 81 238 *~ 0.5;
#X obj 66 263 +~;
#X obj 96 263 -~;
#X obj 111 368 *~ 0.5;
#X obj 96 393 +~;
#X obj 126 393 -~;
#X obj 141 498 *~ 0.5;
#X obj 126 523 +~;
#X obj 156 523 -~;
#X obj 156 605 outlet~;
#X text 95 28 freeverb's diffusor;
#X obj 156 576 hip~ 5;
#X floatatom 214 70 5 0 0 0 - - -;
#X floatatom 244 203 5 0 0 0 - - -;
#X floatatom 280 334 5 0 0 0 - - -;
#X floatatom 304 464 5 0 0 0 - - -;
#X obj 51 53 r \$0-allpass1right;
#X obj 51 80 delread~ \$0-allpass1right;
#X obj 36 158 delwrite~ \$0-allpass1right 40;
#X obj 81 186 r \$0-allpass2right;
#X obj 81 211 delread~ \$0-allpass2right;
#X obj 66 290 delwrite~ \$0-allpass2right 40;
#X obj 111 317 r \$0-allpass3right;
#X obj 111 341 delread~ \$0-allpass3right;
#X obj 96 420 delwrite~ \$0-allpass3right 40;
#X obj 141 447 r \$0-allpass4right;
#X obj 141 471 delread~ \$0-allpass4right;
#X obj 126 550 delwrite~ \$0-allpass4right 40;
#X connect 0 0 1 1;
#X connect 1 0 22 0;
#X connect 2 0 5 0;
#X connect 2 0 6 1;
#X connect 3 0 1 0;
#X connect 3 0 2 1;
#X connect 4 0 5 1;
#X connect 5 0 25 0;
#X connect 6 0 8 0;
#X connect 6 0 9 1;
#X connect 7 0 8 1;
#X connect 8 0 28 0;
#X connect 9 0 11 0;
#X connect 9 0 12 1;
#X connect 10 0 11 1;
#X connect 11 0 31 0;
#X connect 12 0 15 0;
#X connect 15 0 13 0;
#X connect 20 0 16 0;
#X connect 20 0 21 0;
#X connect 21 0 0 0;
#X connect 21 0 2 0;
#X connect 23 0 17 0;
#X connect 23 0 24 0;
#X connect 24 0 4 0;
#X connect 24 0 6 0;
#X connect 26 0 18 0;
#X connect 26 0 27 0;
#X connect 27 0 7 0;
#X connect 27 0 9 0;
#X connect 29 0 19 0;
#X connect 29 0 30 0;
#X connect 30 0 10 0;
#X connect 30 0 12 0;
#X restore 208 169 pd diffusor-right;
#X obj 208 61 *~ 0.015;
#X obj 15 226 *~ 1;
#X obj 208 228 *~ 1;
#X obj 94 228 *~ 1;
#X obj 169 228 *~ 1;
#X obj 115 202 r \$0-dry;
#X obj 229 203 r \$0-wet;
#X obj 36 201 r \$0-wet;
#X obj 94 14 inlet~;
#X obj 208 14 inlet~;
#X obj 15 268 outlet~;
#X obj 169 269 outlet~;
#X obj 312 14 inlet;
#X obj 377 -5 inlet;
#N canvas 0 22 207 207 room 0;
#X obj 32 35 inlet;
#X obj 32 63 * 0.28;
#X obj 32 94 + 0.7;
#X obj 32 160 outlet;
#X text 80 65 scaleroom;
#X text 76 94 offsetroom;
#X obj 47 126 s \$0-room;
#X connect 0 0 1 0;
#X connect 1 0 2 0;
#X connect 2 0 3 0;
#X connect 2 0 6 0;
#X restore 312 45 pd room;
#N canvas 684 169 244 376 frequency 0;
#X obj 60 222 samplerate~;
#X obj 33 8 inlet;
#X obj 33 194 t f b;
#X obj 33 249 *;
#X obj 53 303 s \$0-frequency;
#X obj 33 327 outlet;
#X obj 33 64 * 0.4;
#X text 76 66 scaledamp;
#X obj 33 90 t b f;
#X obj 33 141 -;
#X msg 33 116 1;
#X obj 33 168 abs;
#X obj 33 275 * 0.5;
#X text 153 303 for [lop~];
#X obj 33 38 clip 0 2.4;
#X connect 0 0 3 1;
#X connect 1 0 14 0;
#X connect 2 0 3 0;
#X connect 2 1 0 0;
#X connect 3 0 12 0;
#X connect 6 0 8 0;
#X connect 8 0 10 0;
#X connect 8 1 9 1;
#X connect 9 0 11 0;
#X connect 10 0 9 0;
#X connect 11 0 2 0;
#X connect 12 0 5 0;
#X connect 12 0 4 0;
#X connect 14 0 6 0;
#X restore 374 45 pd frequency;
#N canvas 0 22 170 187 scalewet 0;
#X obj 22 42 inlet;
#X obj 22 143 outlet;
#X obj 22 73 * 3;
#X text 49 74 scalewet;
#X obj 40 112 s \$0-wet;
#X connect 0 0 2 0;
#X connect 2 0 1 0;
#X connect 2 0 4 0;
#X restore 544 45 pd scalewet;
#N canvas 0 22 220 198 scaledry 0;
#X obj 32 74 * 2;
#X obj 32 40 inlet;
#X obj 32 141 outlet;
#X text 58 75 scaledry;
#X obj 41 105 s \$0-dry;
#X connect 0 0 2 0;
#X connect 0 0 4 0;
#X connect 1 0 0 0;
#X restore 462 45 pd scaledry;
#X floatatom 312 70 5 0 0 0 - - -;
#X floatatom 374 70 10 0 0 0 - - -;
#X floatatom 462 69 5 0 0 0 - - -;
#X floatatom 544 69 5 0 0 0 - - -;
#N canvas 405 27 635 684 tuning 0;
#X msg 332 81 1139 \, 1211 \, 1300 \, 1379 \, 1445 \, 1514 \, 1580
\, 1640;
#X text 72 57 combfilter tunings left;
#X text 377 56 combfilter tunings right;
#X text 71 360 allpass tunings left;
#X text 383 355 allpass tunings right;
#N canvas 243 170 195 233 sampstoms 0;
#X obj 27 21 inlet;
#X obj 54 86 samplerate~;
#X obj 27 111 /;
#X obj 27 57 t f b;
#X obj 27 136 * 1000;
#X obj 27 162 outlet;
#X connect 0 0 3 0;
#X connect 1 0 2 1;
#X connect 2 0 4 0;
#X connect 3 0 2 0;
#X connect 3 1 1 0;
#X connect 4 0 5 0;
#X restore 30 107 pd sampstoms;
#X msg 30 82 1116 \, 1188 \, 1277 \, 1356 \, 1422 \, 1491 \, 1557 \,
1617;
#X obj 57 188 +;
#X msg 57 159 1;
#X obj 30 135 t f b;
#X obj 87 188 f;
#X obj 30 56 t b b;
#X msg 87 159 0;
#X obj 57 212 pack f \$0;
#X msg 57 238 \$2-comb\$1left;
#X obj 30 282 s;
#X obj 57 265 symbol;
#N canvas 0 22 195 233 sampstoms 0;
#X obj 27 21 inlet;
#X obj 54 86 samplerate~;
#X obj 27 111 /;
#X obj 27 57 t f b;
#X obj 27 136 * 1000;
#X obj 27 162 outlet;
#X connect 0 0 3 0;
#X connect 1 0 2 1;
#X connect 2 0 4 0;
#X connect 3 0 2 0;
#X connect 3 1 1 0;
#X connect 4 0 5 0;
#X restore 332 107 pd sampstoms;
#X obj 359 188 +;
#X msg 359 159 1;
#X obj 332 135 t f b;
#X obj 389 188 f;
#X msg 389 159 0;
#X obj 359 212 pack f \$0;
#X obj 332 282 s;
#X obj 359 265 symbol;
#X obj 332 56 t b b;
#X msg 359 238 \$2-comb\$1right;
#X obj 30 360 t b b;
#N canvas 0 22 195 233 sampstoms 0;
#X obj 27 21 inlet;
#X obj 54 86 samplerate~;
#X obj 27 111 /;
#X obj 27 57 t f b;
#X obj 27 136 * 1000;
#X obj 27 162 outlet;
#X connect 0 0 3 0;
#X connect 1 0 2 1;
#X connect 2 0 4 0;
#X connect 3 0 2 0;
#X connect 3 1 1 0;
#X connect 4 0 5 0;
#X restore 30 411 pd sampstoms;
#X obj 57 492 +;
#X msg 57 463 1;
#X obj 30 439 t f b;
#X obj 87 492 f;
#X msg 87 463 0;
#X obj 57 516 pack f \$0;
#X obj 30 586 s;
#X obj 57 569 symbol;
#X obj 334 356 t b b;
#N canvas 0 22 195 233 sampstoms 0;
#X obj 27 21 inlet;
#X obj 54 86 samplerate~;
#X obj 27 111 /;
#X obj 27 57 t f b;
#X obj 27 136 * 1000;
#X obj 27 162 outlet;
#X connect 0 0 3 0;
#X connect 1 0 2 1;
#X connect 2 0 4 0;
#X connect 3 0 2 0;
#X connect 3 1 1 0;
#X connect 4 0 5 0;
#X restore 334 407 pd sampstoms;
#X obj 361 488 +;
#X msg 361 459 1;
#X obj 334 435 t f b;
#X obj 391 488 f;
#X msg 391 459 0;
#X obj 361 512 pack f \$0;
#X obj 334 582 s;
#X obj 361 565 symbol;
#X obj 30 22 loadbang;
#X obj 332 27 loadbang;
#X obj 30 334 loadbang;
#X obj 334 331 loadbang;
#X obj 268 41 bng 15 250 50 0 empty empty empty 17 7 0 10 -262144 -1
-1;
#X msg 30 386 225 \, 556 \, 441 \, 341;
#X msg 334 380 248 \, 579 \, 464 \, 364;
#X msg 57 542 \$2-allpass\$1left;
#X msg 361 539 \$2-allpass\$1right;
#X text 27 624 Original Freeverb delay line lengths are converted to
milliseconds \, based on samplerate.;
#X connect 0 0 17 0;
#X connect 5 0 9 0;
#X connect 6 0 5 0;
#X connect 7 0 10 0;
#X connect 7 0 13 0;
#X connect 8 0 7 0;
#X connect 9 0 15 0;
#X connect 9 1 8 0;
#X connect 10 0 7 1;
#X connect 11 0 6 0;
#X connect 11 1 12 0;
#X connect 12 0 10 0;
#X connect 13 0 14 0;
#X connect 14 0 16 0;
#X connect 16 0 15 1;
#X connect 17 0 20 0;
#X connect 18 0 21 0;
#X connect 18 0 23 0;
#X connect 19 0 18 0;
#X connect 20 0 24 0;
#X connect 20 1 19 0;
#X connect 21 0 18 1;
#X connect 22 0 21 0;
#X connect 23 0 27 0;
#X connect 25 0 24 1;
#X connect 26 0 0 0;
#X connect 26 1 22 0;
#X connect 27 0 25 0;
#X connect 28 0 53 0;
#X connect 28 1 34 0;
#X connect 29 0 32 0;
#X connect 30 0 33 0;
#X connect 30 0 35 0;
#X connect 31 0 30 0;
#X connect 32 0 36 0;
#X connect 32 1 31 0;
#X connect 33 0 30 1;
#X connect 34 0 33 0;
#X connect 35 0 55 0;
#X connect 37 0 36 1;
#X connect 38 0 54 0;
#X connect 38 1 44 0;
#X connect 39 0 42 0;
#X connect 40 0 43 0;
#X connect 40 0 45 0;
#X connect 41 0 40 0;
#X connect 42 0 46 0;
#X connect 42 1 41 0;
#X connect 43 0 40 1;
#X connect 44 0 43 0;
#X connect 45 0 56 0;
#X connect 47 0 46 1;
#X connect 48 0 11 0;
#X connect 49 0 26 0;
#X connect 50 0 28 0;
#X connect 51 0 38 0;
#X connect 52 0 11 0;
#X connect 52 0 28 0;
#X connect 52 0 26 0;
#X connect 52 0 38 0;
#X connect 53 0 29 0;
#X connect 54 0 39 0;
#X connect 55 0 37 0;
#X connect 56 0 47 0;
#X restore 410 141 pd tuning;
#X obj 489 -21 loadbang;
#X obj 375 21 * 2.4;
#X msg 418 21 0.5;
#X msg 459 18 0.5;
#X msg 544 18 0.33;
#X connect 0 0 1 0;
#X connect 1 0 7 0;
#X connect 2 0 1 0;
#X connect 3 0 5 0;
#X connect 4 0 5 0;
#X connect 5 0 8 0;
#X connect 6 0 3 0;
#X connect 6 0 0 0;
#X connect 6 0 4 0;
#X connect 6 0 2 0;
#X connect 7 0 16 0;
#X connect 8 0 17 0;
#X connect 9 0 16 0;
#X connect 10 0 17 0;
#X connect 11 0 10 1;
#X connect 11 0 9 1;
#X connect 12 0 8 1;
#X connect 13 0 7 1;
#X connect 14 0 6 0;
#X connect 14 0 9 0;
#X connect 15 0 6 0;
#X connect 15 0 10 0;
#X connect 18 0 20 0;
#X connect 19 0 30 0;
#X connect 20 0 24 0;
#X connect 21 0 25 0;
#X connect 22 0 27 0;
#X connect 23 0 26 0;
#X connect 29 0 32 0;
#X connect 29 0 33 0;
#X connect 29 0 31 0;
#X connect 30 0 21 0;
#X connect 31 0 30 0;
#X connect 31 0 20 0;
#X connect 32 0 23 0;
#X connect 33 0 22 0;
#X restore -8 123 pd vfreeverb~;
#X obj 18 38 inlet~;
#X obj -11 281 *~;
#X obj -12 303 outlet~;
#X obj 129 150 del 50;
#X connect 0 0 14 0;
#X connect 2 0 5 0;
#X connect 3 0 8 0;
#X connect 3 1 7 0;
#X connect 4 0 1 0;
#X connect 5 0 3 0;
#X connect 5 1 14 2;
#X connect 5 2 14 3;
#X connect 7 0 11 0;
#X connect 7 1 10 0;
#X connect 8 0 18 0;
#X connect 8 1 12 0;
#X connect 9 0 4 1;
#X connect 9 0 16 1;
#X connect 10 0 6 0;
#X connect 11 0 9 0;
#X connect 12 0 9 0;
#X connect 13 0 6 0;
#X connect 14 0 16 0;
#X connect 14 1 4 0;
#X connect 15 0 14 1;
#X connect 16 0 17 0;
#X connect 18 0 13 0;
#X restore 583 278 pd verb guts;
#X msg 697 172 switch \$1;
#X msg 711 220 size \$1;
#X msg 743 267 damp \$1;
#X obj 511 328 *~;
#X obj 648 328 *~;
#X obj 672 139 t f f;
#X obj 664 304 lop~ 1;
#X obj 530 304 lop~ 1;
#X obj 533 248 swap 1;
#X obj 534 268 -;
#X obj 723 102 loadbang;
#X msg 724 122 0;
#X obj 598 397 outlet~;
#X obj 580 329 *~;
#X obj 567 105 inlet~;
#X obj 461 325 *~;
#X obj 673 78 r \$0-reverbSwitch;
#X obj 711 198 r \$0-reverbRoomSize;
#X obj 743 241 r \$0-reverbDampen;
#X connect 0 0 2 0;
#X connect 0 0 18 0;
#X connect 2 0 16 0;
#X connect 2 1 7 0;
#X connect 3 0 2 2;
#X connect 4 0 2 2;
#X connect 5 0 2 2;
#X connect 6 0 15 0;
#X connect 7 0 15 0;
#X connect 8 0 9 0;
#X connect 8 0 11 0;
#X connect 8 1 3 0;
#X connect 9 0 7 1;
#X connect 9 0 16 1;
#X connect 10 0 6 1;
#X connect 10 0 18 1;
#X connect 11 0 12 0;
#X connect 11 1 12 1;
#X connect 12 0 10 0;
#X connect 13 0 14 0;
#X connect 14 0 8 0;
#X connect 16 0 1 0;
#X connect 17 0 2 1;
#X connect 17 0 6 0;
#X connect 18 0 1 0;
#X connect 19 0 8 0;
#X connect 20 0 4 0;
#X connect 21 0 5 0;
#X restore 107 411 pd reverb;
#N canvas 257 129 627 442 filter 0;
#X obj 87 -15 inlet~;
#X obj 89 257 outlet~;
#X obj 55 198 *~;
#X obj 125 199 *~;
#X obj 216 9 t f f;
#X obj 141 175 lop~ 1;
#X obj 74 174 lop~ 1;
#X obj 77 118 swap 1;
#X obj 78 138 -;
#X obj 267 -28 loadbang;
#X msg 268 -8 0;
#N canvas 739 266 450 300 guts 0;
#X obj 47 25 inlet~;
#X obj 53 275 outlet~;
#X obj 129 31 inlet;
#X obj 129 80 select 0 1;
#X obj 54 254 *~;
#X obj 186 152 switch~;
#X obj 158 101 t b b;
#X obj 130 124 t b b;
#X obj 76 234 lop~ 1;
#X msg 185 127 1;
#X msg 79 204 1;
#X msg 111 204 0;
#X obj 129 150 del 30;
#X msg 128 172 0;
#X obj 129 57 route switch lo hi;
#N canvas 833 282 450 300 guts 0;
#X obj 56 -15 inlet~;
#X obj 98 266 outlet~;
#X obj 92 73 biquad~;
#X obj 95 142 biquad~;
#N canvas 22 22 407 351 hi 0;
#N canvas 0 22 786 513 b0 0;
#X obj 101 245 outlet;
#X obj 424 96 r \$0-Q;
#X obj 320 95 r \$0-alpha;
#X obj 69 92 r \$0-w;
#X obj 232 94 r \$0-wsin;
#X msg 131 136 1 \$1;
#X obj 131 159 -;
#X obj 131 182 * 0.5;
#X obj 131 94 r \$0-wcos;
#X connect 5 0 6 0;
#X connect 6 0 7 0;
#X connect 7 0 0 0;
#X connect 8 0 5 0;
#X restore 177 454 pd b0;
#N canvas 0 22 786 513 b1 0;
#X obj 101 245 outlet;
#X obj 424 96 r \$0-Q;
#X obj 320 95 r \$0-alpha;
#X obj 69 92 r \$0-w;
#X obj 232 94 r \$0-wsin;
#X msg 131 136 1 \$1;
#X obj 131 159 -;
#X obj 131 94 r \$0-wcos;
#X connect 5 0 6 0;
#X connect 6 0 0 0;
#X connect 7 0 5 0;
#X restore 197 483 pd b1;
#N canvas 0 22 786 513 b2 0;
#X obj 101 245 outlet;
#X obj 424 96 r \$0-Q;
#X obj 320 95 r \$0-alpha;
#X obj 69 92 r \$0-w;
#X obj 232 94 r \$0-wsin;
#X msg 131 136 1 \$1;
#X obj 131 159 -;
#X obj 131 182 * 0.5;
#X obj 131 94 r \$0-wcos;
#X connect 5 0 6 0;
#X connect 6 0 7 0;
#X connect 7 0 0 0;
#X connect 8 0 5 0;
#X restore 218 507 pd b2;
#N canvas 236 89 786 513 a0 0;
#X obj 219 280 outlet;
#X obj 424 96 r \$0-Q;
#X obj 320 95 r \$0-alpha;
#X obj 69 92 r \$0-w;
#X obj 232 94 r \$0-wsin;
#X obj 320 138 + 1;
#X obj 131 94 r \$0-wcos;
#X connect 2 0 5 0;
#X connect 5 0 0 0;
#X restore 115 387 pd a0;
#N canvas 0 22 786 513 a1 0;
#X obj 101 245 outlet;
#X obj 424 96 r \$0-Q;
#X obj 320 95 r \$0-alpha;
#X obj 69 92 r \$0-w;
#X obj 232 94 r \$0-wsin;
#X obj 131 128 * -2;
#X obj 131 94 r \$0-wcos;
#X connect 5 0 0 0;
#X connect 6 0 5 0;
#X restore 136 408 pd a1;
#N canvas 0 22 786 513 a2 0;
#X obj 101 245 outlet;
#X obj 424 96 r \$0-Q;
#X obj 320 95 r \$0-alpha;
#X obj 69 92 r \$0-w;
#X obj 232 94 r \$0-wsin;
#X msg 320 140 1 \$1;
#X obj 320 164 -;
#X obj 131 94 r \$0-wcos;
#X connect 2 0 5 0;
#X connect 5 0 6 0;
#X connect 6 0 0 0;
#X restore 156 429 pd a2;
#N canvas 0 22 1060 735 biquad6 0;
#X obj 351 302 pack 0 0 0 0 0;
#X msg 351 327 fb1 fb2 ff1 ff2 ff3;
#X msg 625 327 p p z z z;
#X text 561 430 H = -----------------------------;
#X text 590 414 ff1 + ff2*z^(-1) + ff3*z^(-2);
#X text 591 450 1 - fb1*z^(-1) - fb2*z^(-2);
#X text 560 488 Audio-Cookbook:;
#X text 592 557 1 + (-a1/a0)*z^(-1) + (-a2/a0)*z^(-2);
#X text 562 537 H = -----------------------------------------;
#X obj 333 103 inlet;
#X obj 390 103 inlet;
#X obj 449 103 inlet;
#X obj 511 103 inlet;
#X obj 572 103 inlet;
#X obj 630 103 inlet;
#X text 333 80 a0;
#X text 390 80 a1;
#X text 449 80 a2;
#X text 511 80 b0;
#X text 572 80 b1;
#X text 630 80 b2;
#X text 591 524 (b0/a0) + (b1/a0)*z^(-1) + (b2/a0)*z^(-2);
#N canvas 0 22 450 300 /a0 0;
#X obj 88 49 inlet;
#X obj 88 164 outlet;
#X obj 88 137 / 1;
#X obj 127 69 inlet;
#X obj 88 106 swap 1;
#X connect 0 0 4 0;
#X connect 2 0 1 0;
#X connect 3 0 4 1;
#X connect 4 0 2 0;
#X connect 4 1 2 1;
#X restore 591 206 pd /a0;
#X obj 116 107 inlet;
#X obj 116 226 list;
#X obj 141 259 print biquad;
#X obj 116 201 b;
#X obj 116 289 outlet;
#X obj 116 154 route print bang;
#X obj 315 157 f;
#N canvas 0 22 450 300 /a0 0;
#X obj 88 49 inlet;
#X obj 88 164 outlet;
#X obj 88 137 / 1;
#X obj 127 69 inlet;
#X obj 88 106 swap 1;
#X connect 0 0 4 0;
#X connect 2 0 1 0;
#X connect 3 0 4 1;
#X connect 4 0 2 0;
#X connect 4 1 2 1;
#X restore 472 206 pd /a0;
#N canvas 0 22 450 300 /a0 0;
#X obj 88 49 inlet;
#X obj 88 164 outlet;
#X obj 88 137 / 1;
#X obj 127 69 inlet;
#X obj 88 106 swap 1;
#X connect 0 0 4 0;
#X connect 2 0 1 0;
#X connect 3 0 4 1;
#X connect 4 0 2 0;
#X connect 4 1 2 1;
#X restore 533 206 pd /a0;
#N canvas 0 22 450 300 /a0 0;
#X obj 88 49 inlet;
#X obj 88 164 outlet;
#X obj 88 137 / 1;
#X obj 127 69 inlet;
#X obj 88 106 swap 1;
#X connect 0 0 4 0;
#X connect 2 0 1 0;
#X connect 3 0 4 1;
#X connect 4 0 2 0;
#X connect 4 1 2 1;
#X restore 410 206 pd /a0;
#N canvas 0 22 450 300 /a0 0;
#X obj 88 49 inlet;
#X obj 88 164 outlet;
#X obj 88 137 / 1;
#X obj 127 69 inlet;
#X obj 88 106 swap 1;
#X connect 0 0 4 0;
#X connect 2 0 1 0;
#X connect 3 0 4 1;
#X connect 4 0 2 0;
#X connect 4 1 2 1;
#X restore 351 206 pd /a0;
#X obj 351 157 t a a a a a;
#X obj 283 132 t b b;
#X text 329 46 all coefficient inlets are cold inlets. Activate them
with a bang into first inlet.;
#X obj 351 247 * -1;
#X obj 410 247 * -1;
#X connect 0 0 24 1;
#X connect 9 0 29 1;
#X connect 10 0 33 1;
#X connect 11 0 32 1;
#X connect 12 0 30 1;
#X connect 13 0 31 1;
#X connect 14 0 22 1;
#X connect 22 0 0 4;
#X connect 23 0 28 0;
#X connect 24 0 27 0;
#X connect 26 0 24 0;
#X connect 28 0 26 0;
#X connect 28 1 35 0;
#X connect 29 0 34 0;
#X connect 30 0 0 2;
#X connect 31 0 0 3;
#X connect 32 0 38 0;
#X connect 33 0 37 0;
#X connect 34 0 33 0;
#X connect 34 1 32 0;
#X connect 34 2 30 0;
#X connect 34 3 31 0;
#X connect 34 4 22 0;
#X connect 35 0 26 0;
#X connect 35 1 29 0;
#X connect 37 0 0 0;
#X connect 38 0 0 1;
#X restore 95 551 pd biquad6 -------;
#X obj 678 272 hradio 15 1 0 2 empty empty bw/Q 0 -8 1 10 -262144 -1
-1 0;
#X floatatom 504 240 5 0 0 2 BW - -;
#X floatatom 612 266 5 0 0 2 Q - -;
#X floatatom 447 267 5 0 0 0 freq - -;
#X text 727 266 <(default: BW);
#X obj 612 286 t b a;
#X obj 503 259 t b a;
#X obj 678 295 t b a;
#X obj 535 292 * 0.01;
#X obj 447 352 f;
#X obj 95 589 outlet;
#X obj 93 2 inlet;
#X obj 373 49 loadbang;
#X obj 373 75 t b b b;
#X text 157 24 BW;
#X text 91 -24 freq;
#N canvas 0 22 1185 531 compute-stuff 0;
#X obj 947 343 / 1;
#X obj 965 293 * 2;
#X obj 524 145 s \$0-Q;
#X obj 142 159 s \$0-w;
#X obj 947 386 s \$0-alpha;
#X obj 965 270 r \$0-Q;
#X obj 205 316 s \$0-wsin;
#X obj 947 238 r \$0-wsin;
#X obj 205 294 sin;
#X obj 118 295 cos;
#X obj 118 229 r \$0-w;
#X obj 205 232 r \$0-w;
#X obj 635 150 / 2;
#X obj 617 174 *;
#X obj 617 238 *;
#X obj 647 184 r \$0-w;
#X obj 653 244 r \$0-wsin;
#X obj 617 294 /;
#N canvas 217 313 450 300 sinh 0;
#X obj 88 37 inlet;
#X obj 88 87 t a a;
#X obj 88 223 outlet;
#X obj 120 116 * -1;
#X obj 120 136 exp;
#X obj 88 136 exp;
#X obj 88 174 -;
#X obj 88 199 * 0.5;
#X text 313 133 2;
#X text 272 105 exp(x) - exp(-x);
#X text 223 117 sinh = ----------------;
#X obj 88 64 f;
#X connect 0 0 11 0;
#X connect 1 0 5 0;
#X connect 1 1 3 0;
#X connect 3 0 4 0;
#X connect 4 0 6 1;
#X connect 5 0 6 0;
#X connect 6 0 7 0;
#X connect 7 0 2 0;
#X connect 11 0 1 0;
#X restore 617 335 pd sinh;
#X obj 617 369 *;
#X obj 617 65 r \$0-BW;
#X obj 617 422 s \$0-alpha;
#X obj 947 365 spigot 0;
#X obj 1000 341 tgl 15 0 empty empty empty 17 7 0 10 -262144 -1 -1
0 1;
#X obj 670 374 tgl 15 0 empty empty empty 17 7 0 10 -262144 -1 -1 1
1;
#X obj 635 130 log;
#X msg 635 109 2;
#X obj 635 87 loadbang;
#X obj 439 91 select 0;
#X obj 397 91 moses;
#X obj 273 101 select 0;
#X obj 231 101 moses;
#X obj 492 119 t b a;
#X obj 326 125 t b a;
#X obj 358 147 s \$0-BW;
#X obj 118 317 s \$0-wcos;
#N canvas 0 22 783 567 hz2rad 0;
#X obj 194 113 samplerate~;
#X obj 194 71 loadbang;
#X obj 194 185 atan;
#X msg 194 160 1;
#X text 382 53 w = 2 * pi * f / SR;
#X obj 194 207 * 8;
#X obj 194 137 t b a;
#X msg 205 90 bang;
#X obj 194 230 / 44100;
#X text 260 232 2 * pi / SR;
#X obj 119 269 *;
#X obj 119 35 inlet;
#X obj 119 298 outlet;
#X text 175 300 w(rad);
#X text 167 35 freq(Hz);
#X obj 285 35 r pd;
#X obj 285 55 route dsp;
#X obj 285 78 select 1;
#X connect 0 0 6 0;
#X connect 1 0 0 0;
#X connect 2 0 5 0;
#X connect 3 0 2 0;
#X connect 5 0 8 0;
#X connect 6 0 3 0;
#X connect 6 1 8 1;
#X connect 7 0 0 0;
#X connect 8 0 10 1;
#X connect 10 0 12 0;
#X connect 11 0 10 0;
#X connect 15 0 16 0;
#X connect 16 0 17 0;
#X connect 17 0 0 0;
#X restore 110 111 pd hz2rad;
#X obj 110 77 inlet;
#X text 108 56 frequency;
#X obj 397 68 inlet;
#X text 396 49 Q;
#X obj 231 78 inlet;
#X text 227 57 BW;
#X obj 786 74 inlet;
#X obj 786 102 select 0 1;
#X obj 786 169 unpack 0 0;
#X msg 786 136 1 0;
#X msg 819 136 0 1;
#X text 785 43 Bandwith or Q;
#X obj 617 398 spigot 1;
#X floatatom 552 459 8 0 0 0 - - -;
#X text 721 452 alpha = sin(w0)*sinh( ln(2)/2 * BW * w0/sin(w0) ) (case:
BW);
#X obj 205 267 spigot 1;
#X obj 110 132 t b a;
#X obj 965 317 t b a;
#X obj 653 267 t b a a;
#X obj 647 204 t b a;
#X obj 118 266 spigot 1;
#X connect 0 0 22 0;
#X connect 1 0 54 0;
#X connect 5 0 1 0;
#X connect 7 0 0 0;
#X connect 8 0 6 0;
#X connect 9 0 35 0;
#X connect 10 0 57 0;
#X connect 11 0 52 0;
#X connect 12 0 13 1;
#X connect 13 0 14 0;
#X connect 14 0 17 0;
#X connect 15 0 56 0;
#X connect 16 0 55 0;
#X connect 17 0 18 0;
#X connect 18 0 19 0;
#X connect 19 0 49 0;
#X connect 20 0 13 0;
#X connect 22 0 4 0;
#X connect 23 0 22 1;
#X connect 24 0 49 1;
#X connect 25 0 12 0;
#X connect 26 0 25 0;
#X connect 27 0 26 0;
#X connect 28 1 32 0;
#X connect 29 1 28 0;
#X connect 30 1 33 0;
#X connect 31 1 30 0;
#X connect 32 1 2 0;
#X connect 33 1 34 0;
#X connect 36 0 53 0;
#X connect 37 0 36 0;
#X connect 39 0 29 0;
#X connect 41 0 31 0;
#X connect 43 0 44 0;
#X connect 44 0 46 0;
#X connect 44 1 47 0;
#X connect 45 0 24 0;
#X connect 45 1 23 0;
#X connect 46 0 45 0;
#X connect 47 0 45 0;
#X connect 49 0 21 0;
#X connect 49 0 50 0;
#X connect 52 0 8 0;
#X connect 53 1 3 0;
#X connect 54 0 0 0;
#X connect 54 1 0 1;
#X connect 55 0 17 0;
#X connect 55 1 17 1;
#X connect 55 2 19 1;
#X connect 56 0 14 0;
#X connect 56 1 14 1;
#X connect 57 0 9 0;
#X restore 447 387 pd compute-stuff;
#X msg 678 227 0;
#X obj 91 195 t b a;
#X obj 157 129 t b a;
#X obj 373 146 f 10000;
#X obj 157 48 r filterHighCutBW;
#X obj 198 74 loadbang;
#X obj 92 32 t f f;
#X obj 93 54 *;
#X obj 90 138 + 1000;
#X obj 91 111 * 11000;
#X msg 198 101 70;
#X obj 405 113 f 70;
#X connect 0 0 6 4;
#X connect 1 0 6 5;
#X connect 2 0 6 6;
#X connect 3 0 6 1;
#X connect 4 0 6 2;
#X connect 5 0 6 3;
#X connect 6 0 17 0;
#X connect 7 0 14 0;
#X connect 8 0 13 0;
#X connect 9 0 12 0;
#X connect 10 0 16 0;
#X connect 12 0 16 0;
#X connect 12 1 23 2;
#X connect 13 0 16 0;
#X connect 13 1 15 0;
#X connect 14 0 16 0;
#X connect 14 1 23 3;
#X connect 15 0 23 1;
#X connect 16 0 23 0;
#X connect 18 0 30 0;
#X connect 19 0 20 0;
#X connect 20 0 27 0;
#X connect 20 1 35 0;
#X connect 20 2 24 0;
#X connect 24 0 7 0;
#X connect 25 0 6 0;
#X connect 25 1 16 0;
#X connect 26 0 6 0;
#X connect 26 1 13 0;
#X connect 27 0 16 0;
#X connect 28 0 26 0;
#X connect 29 0 34 0;
#X connect 30 0 31 0;
#X connect 30 1 31 1;
#X connect 31 0 33 0;
#X connect 32 0 25 0;
#X connect 33 0 32 0;
#X connect 34 0 26 0;
#X connect 35 0 13 0;
#X restore 110 117 pd hi;
#N canvas 324 124 995 659 lo 0;
#N canvas 0 22 786 513 b0 0;
#X obj 101 245 outlet;
#X obj 424 96 r \$0-Q;
#X obj 320 95 r \$0-alpha;
#X obj 69 92 r \$0-w;
#X obj 232 94 r \$0-wsin;
#X obj 131 182 * 0.5;
#X obj 131 94 r \$0-wcos;
#X obj 131 159 + 1;
#X connect 5 0 0 0;
#X connect 6 0 7 0;
#X connect 7 0 5 0;
#X restore 177 454 pd b0;
#N canvas 0 22 786 513 b1 0;
#X obj 101 245 outlet;
#X obj 424 96 r \$0-Q;
#X obj 320 95 r \$0-alpha;
#X obj 69 92 r \$0-w;
#X obj 232 94 r \$0-wsin;
#X obj 131 94 r \$0-wcos;
#X obj 131 139 + 1;
#X obj 131 159 * -1;
#X connect 5 0 6 0;
#X connect 6 0 7 0;
#X connect 7 0 0 0;
#X restore 197 483 pd b1;
#N canvas 0 22 786 513 b2 0;
#X obj 101 245 outlet;
#X obj 424 96 r \$0-Q;
#X obj 320 95 r \$0-alpha;
#X obj 69 92 r \$0-w;
#X obj 232 94 r \$0-wsin;
#X obj 131 182 * 0.5;
#X obj 131 94 r \$0-wcos;
#X obj 131 159 + 1;
#X connect 5 0 0 0;
#X connect 6 0 7 0;
#X connect 7 0 5 0;
#X restore 218 507 pd b2;
#N canvas 236 89 786 513 a0 0;
#X obj 219 280 outlet;
#X obj 424 96 r \$0-Q;
#X obj 320 95 r \$0-alpha;
#X obj 69 92 r \$0-w;
#X obj 232 94 r \$0-wsin;
#X obj 320 138 + 1;
#X obj 131 94 r \$0-wcos;
#X connect 2 0 5 0;
#X connect 5 0 0 0;
#X restore 115 387 pd a0;
#N canvas 0 22 786 513 a1 0;
#X obj 101 245 outlet;
#X obj 424 96 r \$0-Q;
#X obj 320 95 r \$0-alpha;
#X obj 69 92 r \$0-w;
#X obj 232 94 r \$0-wsin;
#X obj 131 128 * -2;
#X obj 131 94 r \$0-wcos;
#X connect 5 0 0 0;
#X connect 6 0 5 0;
#X restore 136 408 pd a1;
#N canvas 0 22 786 513 a2 0;
#X obj 101 245 outlet;
#X obj 424 96 r \$0-Q;
#X obj 320 95 r \$0-alpha;
#X obj 69 92 r \$0-w;
#X obj 232 94 r \$0-wsin;
#X msg 320 140 1 \$1;
#X obj 320 164 -;
#X obj 131 94 r \$0-wcos;
#X connect 2 0 5 0;
#X connect 5 0 6 0;
#X connect 6 0 0 0;
#X restore 156 429 pd a2;
#N canvas 0 22 1060 735 biquad6 0;
#X obj 351 302 pack 0 0 0 0 0;
#X msg 351 327 fb1 fb2 ff1 ff2 ff3;
#X msg 625 327 p p z z z;
#X text 561 430 H = -----------------------------;
#X text 590 414 ff1 + ff2*z^(-1) + ff3*z^(-2);
#X text 591 450 1 - fb1*z^(-1) - fb2*z^(-2);
#X text 560 488 Audio-Cookbook:;
#X text 592 557 1 + (-a1/a0)*z^(-1) + (-a2/a0)*z^(-2);
#X text 562 537 H = -----------------------------------------;
#X obj 333 103 inlet;
#X obj 390 103 inlet;
#X obj 449 103 inlet;
#X obj 511 103 inlet;
#X obj 572 103 inlet;
#X obj 630 103 inlet;
#X text 333 80 a0;
#X text 390 80 a1;
#X text 449 80 a2;
#X text 511 80 b0;
#X text 572 80 b1;
#X text 630 80 b2;
#X text 591 524 (b0/a0) + (b1/a0)*z^(-1) + (b2/a0)*z^(-2);
#N canvas 0 22 450 300 /a0 0;
#X obj 88 49 inlet;
#X obj 88 164 outlet;
#X obj 88 137 / 1;
#X obj 127 69 inlet;
#X obj 88 106 swap 1;
#X connect 0 0 4 0;
#X connect 2 0 1 0;
#X connect 3 0 4 1;
#X connect 4 0 2 0;
#X connect 4 1 2 1;
#X restore 591 206 pd /a0;
#X obj 116 107 inlet;
#X obj 116 226 list;
#X obj 141 259 print biquad;
#X obj 116 201 b;
#X obj 116 289 outlet;
#X obj 116 154 route print bang;
#X obj 315 157 f;
#N canvas 0 22 450 300 /a0 0;
#X obj 88 49 inlet;
#X obj 88 164 outlet;
#X obj 88 137 / 1;
#X obj 127 69 inlet;
#X obj 88 106 swap 1;
#X connect 0 0 4 0;
#X connect 2 0 1 0;
#X connect 3 0 4 1;
#X connect 4 0 2 0;
#X connect 4 1 2 1;
#X restore 472 206 pd /a0;
#N canvas 0 22 450 300 /a0 0;
#X obj 88 49 inlet;
#X obj 88 164 outlet;
#X obj 88 137 / 1;
#X obj 127 69 inlet;
#X obj 88 106 swap 1;
#X connect 0 0 4 0;
#X connect 2 0 1 0;
#X connect 3 0 4 1;
#X connect 4 0 2 0;
#X connect 4 1 2 1;
#X restore 533 206 pd /a0;
#N canvas 0 22 450 300 /a0 0;
#X obj 88 49 inlet;
#X obj 88 164 outlet;
#X obj 88 137 / 1;
#X obj 127 69 inlet;
#X obj 88 106 swap 1;
#X connect 0 0 4 0;
#X connect 2 0 1 0;
#X connect 3 0 4 1;
#X connect 4 0 2 0;
#X connect 4 1 2 1;
#X restore 410 206 pd /a0;
#N canvas 0 22 450 300 /a0 0;
#X obj 88 49 inlet;
#X obj 88 164 outlet;
#X obj 88 137 / 1;
#X obj 127 69 inlet;
#X obj 88 106 swap 1;
#X connect 0 0 4 0;
#X connect 2 0 1 0;
#X connect 3 0 4 1;
#X connect 4 0 2 0;
#X connect 4 1 2 1;
#X restore 351 206 pd /a0;
#X obj 351 157 t a a a a a;
#X obj 283 132 t b b;
#X text 329 46 all coefficient inlets are cold inlets. Activate them
with a bang into first inlet.;
#X obj 351 247 * -1;
#X obj 410 247 * -1;
#X connect 0 0 24 1;
#X connect 9 0 29 1;
#X connect 10 0 33 1;
#X connect 11 0 32 1;
#X connect 12 0 30 1;
#X connect 13 0 31 1;
#X connect 14 0 22 1;
#X connect 22 0 0 4;
#X connect 23 0 28 0;
#X connect 24 0 27 0;
#X connect 26 0 24 0;
#X connect 28 0 26 0;
#X connect 28 1 35 0;
#X connect 29 0 34 0;
#X connect 30 0 0 2;
#X connect 31 0 0 3;
#X connect 32 0 38 0;
#X connect 33 0 37 0;
#X connect 34 0 33 0;
#X connect 34 1 32 0;
#X connect 34 2 30 0;
#X connect 34 3 31 0;
#X connect 34 4 22 0;
#X connect 35 0 26 0;
#X connect 35 1 29 0;
#X connect 37 0 0 0;
#X connect 38 0 0 1;
#X restore 95 551 pd biquad6 -------;
#X obj 678 272 hradio 15 1 0 2 empty empty bw/Q 0 -8 1 10 -262144 -1
-1 0;
#X floatatom 504 240 5 0 0 2 BW - -;
#X floatatom 612 266 5 0 0 2 Q - -;
#X floatatom 447 267 5 0 0 0 freq - -;
#X text 727 266 <(default: BW);
#X obj 612 286 t b a;
#X obj 503 259 t b a;
#X obj 678 295 t b a;
#X obj 535 292 * 0.01;
#X obj 447 352 f;
#X obj 95 589 outlet;
#X obj 90 -31 inlet;
#X obj 373 49 loadbang;
#X obj 373 75 t b b b;
#X text 162 120 BW;
#X text 88 -59 freq;
#N canvas 0 22 1185 531 compute-stuff 0;
#X obj 947 343 / 1;
#X obj 965 293 * 2;
#X obj 524 145 s \$0-Q;
#X obj 142 159 s \$0-w;
#X obj 947 386 s \$0-alpha;
#X obj 965 270 r \$0-Q;
#X obj 205 316 s \$0-wsin;
#X obj 947 238 r \$0-wsin;
#X obj 205 294 sin;
#X obj 118 295 cos;
#X obj 118 229 r \$0-w;
#X obj 205 232 r \$0-w;
#X obj 635 150 / 2;
#X obj 617 174 *;
#X obj 617 238 *;
#X obj 647 184 r \$0-w;
#X obj 653 244 r \$0-wsin;
#X obj 617 294 /;
#N canvas 217 313 450 300 sinh 0;
#X obj 88 37 inlet;
#X obj 88 87 t a a;
#X obj 88 223 outlet;
#X obj 120 116 * -1;
#X obj 120 136 exp;
#X obj 88 136 exp;
#X obj 88 174 -;
#X obj 88 199 * 0.5;
#X text 313 133 2;
#X text 272 105 exp(x) - exp(-x);
#X text 223 117 sinh = ----------------;
#X obj 88 64 f;
#X connect 0 0 11 0;
#X connect 1 0 5 0;
#X connect 1 1 3 0;
#X connect 3 0 4 0;
#X connect 4 0 6 1;
#X connect 5 0 6 0;
#X connect 6 0 7 0;
#X connect 7 0 2 0;
#X connect 11 0 1 0;
#X restore 617 335 pd sinh;
#X obj 617 369 *;
#X obj 617 65 r \$0-BW;
#X obj 617 422 s \$0-alpha;
#X obj 947 365 spigot 0;
#X obj 1000 341 tgl 15 0 empty empty empty 17 7 0 10 -262144 -1 -1
0 1;
#X obj 670 374 tgl 15 0 empty empty empty 17 7 0 10 -262144 -1 -1 1
1;
#X obj 635 130 log;
#X msg 635 109 2;
#X obj 635 87 loadbang;
#X obj 439 91 select 0;
#X obj 397 91 moses;
#X obj 273 101 select 0;
#X obj 231 101 moses;
#X obj 492 119 t b a;
#X obj 326 125 t b a;
#X obj 358 147 s \$0-BW;
#X obj 118 317 s \$0-wcos;
#N canvas 0 22 783 567 hz2rad 0;
#X obj 194 113 samplerate~;
#X obj 194 71 loadbang;
#X obj 194 185 atan;
#X msg 194 160 1;
#X text 412 62 w = 2 * pi * f / SR;
#X obj 194 207 * 8;
#X obj 194 137 t b a;
#X msg 205 90 bang;
#X obj 194 230 / 44100;
#X text 260 232 2 * pi / SR;
#X obj 119 269 *;
#X obj 119 35 inlet;
#X obj 119 298 outlet;
#X text 175 300 w(rad);
#X text 167 35 freq(Hz);
#X obj 285 35 r pd;
#X obj 285 55 route dsp;
#X obj 285 78 select 1;
#X connect 0 0 6 0;
#X connect 1 0 0 0;
#X connect 2 0 5 0;
#X connect 3 0 2 0;
#X connect 5 0 8 0;
#X connect 6 0 3 0;
#X connect 6 1 8 1;
#X connect 7 0 0 0;
#X connect 8 0 10 1;
#X connect 10 0 12 0;
#X connect 11 0 10 0;
#X connect 15 0 16 0;
#X connect 16 0 17 0;
#X connect 17 0 0 0;
#X restore 110 111 pd hz2rad;
#X obj 110 77 inlet;
#X text 108 56 frequency;
#X obj 397 68 inlet;
#X text 396 49 Q;
#X obj 231 78 inlet;
#X text 227 57 BW;
#X obj 786 74 inlet;
#X obj 786 102 select 0 1;
#X obj 786 169 unpack 0 0;
#X msg 786 136 1 0;
#X msg 819 136 0 1;
#X text 785 43 Bandwith or Q;
#X obj 617 398 spigot 1;
#X floatatom 552 459 8 0 0 0 - - -;
#X text 721 452 alpha = sin(w0)*sinh( ln(2)/2 * BW * w0/sin(w0) ) (case:
BW);
#X obj 205 267 spigot 1;
#X obj 110 132 t b a;
#X obj 965 317 t b a;
#X obj 653 267 t b a a;
#X obj 647 204 t b a;
#X obj 118 266 spigot 1;
#X connect 0 0 22 0;
#X connect 1 0 54 0;
#X connect 5 0 1 0;
#X connect 7 0 0 0;
#X connect 8 0 6 0;
#X connect 9 0 35 0;
#X connect 10 0 57 0;
#X connect 11 0 52 0;
#X connect 12 0 13 1;
#X connect 13 0 14 0;
#X connect 14 0 17 0;
#X connect 15 0 56 0;
#X connect 16 0 55 0;
#X connect 17 0 18 0;
#X connect 18 0 19 0;
#X connect 19 0 49 0;
#X connect 20 0 13 0;
#X connect 22 0 4 0;
#X connect 23 0 22 1;
#X connect 24 0 49 1;
#X connect 25 0 12 0;
#X connect 26 0 25 0;
#X connect 27 0 26 0;
#X connect 28 1 32 0;
#X connect 29 1 28 0;
#X connect 30 1 33 0;
#X connect 31 1 30 0;
#X connect 32 1 2 0;
#X connect 33 1 34 0;
#X connect 36 0 53 0;
#X connect 37 0 36 0;
#X connect 39 0 29 0;
#X connect 41 0 31 0;
#X connect 43 0 44 0;
#X connect 44 0 46 0;
#X connect 44 1 47 0;
#X connect 45 0 24 0;
#X connect 45 1 23 0;
#X connect 46 0 45 0;
#X connect 47 0 45 0;
#X connect 49 0 21 0;
#X connect 49 0 50 0;
#X connect 52 0 8 0;
#X connect 53 1 3 0;
#X connect 54 0 0 0;
#X connect 54 1 0 1;
#X connect 55 0 17 0;
#X connect 55 1 17 1;
#X connect 55 2 19 1;
#X connect 56 0 14 0;
#X connect 56 1 14 1;
#X connect 57 0 9 0;
#X restore 447 387 pd compute-stuff;
#X msg 678 227 0;
#X obj 94 126 t b a;
#X obj 157 129 t b a;
#X obj 373 146 f 1000;
#X obj 157 35 r filterLowCutBW;
#X obj 91 -8 t f f;
#X obj 91 17 *;
#X obj 174 61 loadbang;
#X obj 93 101 + 50;
#X obj 92 78 * 4950;
#X msg 175 87 70;
#X obj 405 113 f 70;
#X connect 0 0 6 4;
#X connect 1 0 6 5;
#X connect 2 0 6 6;
#X connect 3 0 6 1;
#X connect 4 0 6 2;
#X connect 5 0 6 3;
#X connect 6 0 17 0;
#X connect 7 0 14 0;
#X connect 8 0 13 0;
#X connect 9 0 12 0;
#X connect 10 0 16 0;
#X connect 12 0 16 0;
#X connect 12 1 23 2;
#X connect 13 0 16 0;
#X connect 13 1 15 0;
#X connect 14 0 16 0;
#X connect 14 1 23 3;
#X connect 15 0 23 1;
#X connect 16 0 23 0;
#X connect 18 0 29 0;
#X connect 19 0 20 0;
#X connect 20 0 27 0;
#X connect 20 1 35 0;
#X connect 20 2 24 0;
#X connect 24 0 7 0;
#X connect 25 0 6 0;
#X connect 25 1 16 0;
#X connect 26 0 6 0;
#X connect 26 1 13 0;
#X connect 27 0 16 0;
#X connect 28 0 26 0;
#X connect 29 0 30 0;
#X connect 29 1 30 1;
#X connect 30 0 33 0;
#X connect 31 0 34 0;
#X connect 32 0 25 0;
#X connect 33 0 32 0;
#X connect 34 0 26 0;
#X connect 35 0 13 0;
#X restore 104 47 pd lo;
#X obj 125 -6 inlet;
#X obj 159 27 inlet;
#X connect 0 0 2 0;
#X connect 2 0 3 0;
#X connect 3 0 1 0;
#X connect 4 0 3 0;
#X connect 5 0 2 0;
#X connect 6 0 5 0;
#X connect 7 0 4 0;
#X restore 51 138 pd guts;
#X obj 64 63 loadbang;
#X msg 65 91 0.5;
#X connect 0 0 15 0;
#X connect 2 0 14 0;
#X connect 3 0 7 0;
#X connect 3 1 6 0;
#X connect 4 0 1 0;
#X connect 6 0 10 0;
#X connect 6 1 9 0;
#X connect 7 0 12 0;
#X connect 7 1 11 0;
#X connect 8 0 4 1;
#X connect 9 0 5 0;
#X connect 10 0 8 0;
#X connect 11 0 8 0;
#X connect 12 0 13 0;
#X connect 13 0 5 0;
#X connect 14 0 3 0;
#X connect 14 1 15 1;
#X connect 14 2 15 2;
#X connect 15 0 4 0;
#X connect 16 0 17 0;
#X connect 17 0 15 2;
#X connect 17 0 15 1;
#X restore 127 148 pd guts;
#X msg 241 42 switch \$1;
#X msg 287 137 hi \$1;
#X msg 255 90 lo \$1;
#X obj 217 -52 r \$0-filterSwitch;
#X obj 255 68 r \$0-filterLowCutFreq;
#X obj 287 111 r \$0-filterHighCutFreq;
#X connect 0 0 2 0;
#X connect 0 0 11 0;
#X connect 2 0 1 0;
#X connect 3 0 1 0;
#X connect 4 0 5 0;
#X connect 4 0 7 0;
#X connect 4 1 12 0;
#X connect 5 0 3 1;
#X connect 6 0 2 1;
#X connect 7 0 8 0;
#X connect 7 1 8 1;
#X connect 8 0 6 0;
#X connect 9 0 10 0;
#X connect 10 0 4 0;
#X connect 11 0 3 0;
#X connect 12 0 11 1;
#X connect 13 0 11 1;
#X connect 14 0 11 1;
#X connect 15 0 4 0;
#X connect 16 0 14 0;
#X connect 17 0 13 0;
#X restore 105 245 pd filter;
#N canvas 739 290 450 300 delay 0;
#X obj 87 -15 inlet~;
#X obj 89 257 outlet~;
#X obj 55 198 *~;
#X obj 125 199 *~;
#X obj 216 9 t f f;
#X obj 141 175 lop~ 1;
#X obj 74 174 lop~ 1;
#X obj 77 118 swap 1;
#X obj 78 138 -;
#X obj 267 -28 loadbang;
#X msg 268 -8 0;
#N canvas 877 273 450 300 guts 0;
#X obj 47 25 inlet~;
#X obj 55 284 outlet~;
#X obj 129 31 inlet;
#X obj 129 80 select 0 1;
#X obj 54 254 *~;
#X obj 186 152 switch~;
#X obj 158 101 t b b;
#X obj 130 124 t b b;
#X obj 76 234 lop~ 1;
#X msg 185 127 1;
#X msg 79 204 1;
#X msg 111 204 0;
#X obj 129 150 del 30;
#X msg 128 172 0;
#X obj 129 57 route switch time1 time2;
#N canvas 262 113 829 572 guts 0;
#X obj 60 10 inlet~;
#X obj 283 573 outlet~;
#X obj 278 378 vd~ \$0-delayBuffer;
#X obj 323 415 vd~ \$0-delayBuffer;
#X obj 314 508 s~ \$0-delayBufferFeedback;
#X obj 120 9 r~ \$0-delayBufferFeedback;
#X obj 61 127 delwrite~ \$0-delayBuffer 2000;
#X obj 155 41 r delayFeedback;
#X obj 273 33 inlet;
#X obj 323 35 inlet;
#X obj 328 350 lop~ 1;
#X obj 277 349 lop~ 1;
#X obj 280 468 *~ 0.7;
#N canvas 883 387 450 300 time 0;
#X obj 55 -48 inlet;
#X obj 57 103 spigot;
#X obj 138 102 spigot;
#X obj 213 16 r timeSyncSwitch;
#X obj 82 45 swap 1;
#X obj 88 64 -;
#X obj 61 246 outlet;
#N canvas 561 48 669 698 quant 0;
#X obj 145 15 inlet;
#X obj 144 90 int;
#X obj 118 638 *;
#X obj 329 604 r timeBaseMS;
#X obj 120 685 outlet;
#X msg 161 209 0.125;
#X msg 171 233 0.16666;
#X msg 190 277 0.25;
#X msg 201 299 0.3333;
#X msg 226 344 0.5;
#X msg 179 255 0.1875;
#X msg 211 322 0.375;
#X msg 238 367 0.666;
#X msg 251 390 0.75;
#X msg 266 415 1;
#X msg 313 489 1.5;
#X msg 293 462 1.333;
#X msg 277 439 1.25;
#X msg 329 514 2;
#X msg 342 538 4;
#X obj 145 57 * 16;
#X msg 147 183 0.0833;
#X obj 147 152 select 0 1 2 3 4 5 6 7 8 9 10 11 12 13 14 15;
#X obj 331 630 * 2;
#X connect 0 0 20 0;
#X connect 1 0 22 0;
#X connect 2 0 4 0;
#X connect 3 0 23 0;
#X connect 5 0 2 0;
#X connect 6 0 2 0;
#X connect 7 0 2 0;
#X connect 8 0 2 0;
#X connect 9 0 2 0;
#X connect 10 0 2 0;
#X connect 11 0 2 0;
#X connect 12 0 2 0;
#X connect 13 0 2 0;
#X connect 14 0 2 0;
#X connect 15 0 2 0;
#X connect 16 0 2 0;
#X connect 17 0 2 0;
#X connect 18 0 2 0;
#X connect 19 0 2 0;
#X connect 20 0 1 0;
#X connect 21 0 2 0;
#X connect 22 0 21 0;
#X connect 22 1 5 0;
#X connect 22 2 6 0;
#X connect 22 3 10 0;
#X connect 22 4 7 0;
#X connect 22 5 8 0;
#X connect 22 6 11 0;
#X connect 22 7 9 0;
#X connect 22 8 12 0;
#X connect 22 9 13 0;
#X connect 22 10 14 0;
#X connect 22 11 17 0;
#X connect 22 12 16 0;
#X connect 22 13 15 0;
#X connect 22 14 18 0;
#X connect 22 15 19 0;
#X connect 23 0 2 1;
#X restore 134 67 pd quant;
#X obj 236 50 loadbang;
#X msg 239 77 0;
#X obj 56 19 * 1000;
#X connect 0 0 7 0;
#X connect 0 0 10 0;
#X connect 1 0 6 0;
#X connect 2 0 6 0;
#X connect 3 0 4 0;
#X connect 3 0 2 1;
#X connect 4 0 5 0;
#X connect 4 1 5 1;
#X connect 5 0 1 1;
#X connect 7 0 2 0;
#X connect 8 0 9 0;
#X connect 9 0 4 0;
#X connect 9 0 2 1;
#X connect 10 0 1 0;
#X restore 322 257 pd time sync;
#X floatatom 380 310 5 0 0 0 - - -;
#X floatatom 294 310 5 0 0 0 - - -;
#X obj 120 80 *~ 0.15;
#N canvas 883 387 450 300 time 0;
#X obj 55 -48 inlet;
#X obj 57 103 spigot;
#X obj 138 102 spigot;
#X obj 213 16 r timeSyncSwitch;
#X obj 82 45 swap 1;
#X obj 88 64 -;
#X obj 61 246 outlet;
#N canvas 561 48 669 698 quant 0;
#X obj 145 15 inlet;
#X obj 149 90 int;
#X obj 118 638 *;
#X obj 329 604 r timeBaseMS;
#X obj 120 685 outlet;
#X msg 161 209 0.125;
#X msg 171 233 0.16666;
#X msg 190 277 0.25;
#X msg 201 299 0.3333;
#X msg 226 344 0.5;
#X msg 179 255 0.1875;
#X msg 211 322 0.375;
#X msg 238 367 0.666;
#X msg 251 390 0.75;
#X msg 266 415 1;
#X msg 313 489 1.5;
#X msg 293 462 1.333;
#X msg 277 439 1.25;
#X msg 329 514 2;
#X msg 342 538 4;
#X obj 145 57 * 16;
#X msg 147 183 0.0833;
#X obj 147 152 select 0 1 2 3 4 5 6 7 8 9 10 11 12 13 14 15;
#X obj 331 630 * 2;
#X connect 0 0 20 0;
#X connect 1 0 22 0;
#X connect 2 0 4 0;
#X connect 3 0 23 0;
#X connect 5 0 2 0;
#X connect 6 0 2 0;
#X connect 7 0 2 0;
#X connect 8 0 2 0;
#X connect 9 0 2 0;
#X connect 10 0 2 0;
#X connect 11 0 2 0;
#X connect 12 0 2 0;
#X connect 13 0 2 0;
#X connect 14 0 2 0;
#X connect 15 0 2 0;
#X connect 16 0 2 0;
#X connect 17 0 2 0;
#X connect 18 0 2 0;
#X connect 19 0 2 0;
#X connect 20 0 1 0;
#X connect 21 0 2 0;
#X connect 22 0 21 0;
#X connect 22 1 5 0;
#X connect 22 2 6 0;
#X connect 22 3 10 0;
#X connect 22 4 7 0;
#X connect 22 5 8 0;
#X connect 22 6 11 0;
#X connect 22 7 9 0;
#X connect 22 8 12 0;
#X connect 22 9 13 0;
#X connect 22 10 14 0;
#X connect 22 11 17 0;
#X connect 22 12 16 0;
#X connect 22 13 15 0;
#X connect 22 14 18 0;
#X connect 22 15 19 0;
#X connect 23 0 2 1;
#X restore 134 67 pd quant;
#X obj 236 50 loadbang;
#X msg 239 77 0;
#X obj 56 19 * 1000;
#X connect 0 0 7 0;
#X connect 0 0 10 0;
#X connect 1 0 6 0;
#X connect 2 0 6 0;
#X connect 3 0 4 0;
#X connect 3 0 2 1;
#X connect 4 0 5 0;
#X connect 4 1 5 1;
#X connect 5 0 1 1;
#X connect 7 0 2 0;
#X connect 8 0 9 0;
#X connect 9 0 4 0;
#X connect 9 0 2 1;
#X connect 10 0 1 0;
#X restore 273 224 pd time sync;
#X connect 0 0 6 0;
#X connect 2 0 12 0;
#X connect 3 0 12 0;
#X connect 5 0 16 0;
#X connect 7 0 16 1;
#X connect 8 0 17 0;
#X connect 9 0 13 0;
#X connect 10 0 3 0;
#X connect 11 0 2 0;
#X connect 12 0 4 0;
#X connect 12 0 1 0;
#X connect 13 0 10 0;
#X connect 13 0 14 0;
#X connect 16 0 6 0;
#X connect 17 0 11 0;
#X connect 17 0 15 0;
#X restore 44 82 pd guts;
#X connect 0 0 15 0;
#X connect 2 0 14 0;
#X connect 3 0 7 0;
#X connect 3 1 6 0;
#X connect 4 0 1 0;
#X connect 6 0 10 0;
#X connect 6 1 9 0;
#X connect 7 0 12 0;
#X connect 7 1 11 0;
#X connect 8 0 4 1;
#X connect 9 0 5 0;
#X connect 10 0 8 0;
#X connect 11 0 8 0;
#X connect 12 0 13 0;
#X connect 13 0 5 0;
#X connect 14 0 3 0;
#X connect 14 1 15 1;
#X connect 14 2 15 2;
#X connect 15 0 4 0;
#X restore 127 148 pd guts;
#X msg 241 42 switch \$1;
#X msg 255 90 time1 \$1;
#X msg 287 137 time2 \$1;
#X obj 217 -52 r \$0-delaySwitch;
#X obj 255 68 r \$0-delayTime1;
#X obj 287 111 r \$0-delayTime2;
#X connect 0 0 2 0;
#X connect 0 0 11 0;
#X connect 2 0 1 0;
#X connect 3 0 1 0;
#X connect 4 0 5 0;
#X connect 4 0 7 0;
#X connect 4 1 12 0;
#X connect 5 0 3 1;
#X connect 6 0 2 1;
#X connect 7 0 8 0;
#X connect 7 1 8 1;
#X connect 8 0 6 0;
#X connect 9 0 10 0;
#X connect 10 0 4 0;
#X connect 11 0 3 0;
#X connect 12 0 11 1;
#X connect 13 0 11 1;
#X connect 14 0 11 1;
#X connect 15 0 4 0;
#X connect 16 0 13 0;
#X connect 17 0 14 0;
#X restore 103 292 pd delay;
#N canvas 405 81 733 588 chorus 0;
#X obj 87 -15 inlet~;
#X obj 89 257 outlet~;
#X obj 55 198 *~;
#X obj 167 199 *~;
#X obj 216 9 t f f;
#X obj 183 175 lop~ 1;
#X obj 74 174 lop~ 1;
#X obj 77 118 swap 1;
#X obj 78 138 -;
#X obj 267 -28 loadbang;
#X msg 268 -8 0;
#N canvas 921 370 450 300 guts 0;
#X obj 35 -5 inlet~;
#X obj 53 275 outlet~;
#X obj 129 31 inlet;
#X obj 129 80 select 0 1;
#X obj 54 254 *~;
#X obj 186 152 switch~;
#X obj 158 101 t b b;
#X obj 130 124 t b b;
#X obj 76 234 lop~ 1;
#X msg 185 127 1;
#X msg 79 204 1;
#X msg 111 204 0;
#X obj 129 150 del 30;
#X msg 128 172 0;
#X obj 129 57 route switch rate depth;
#N canvas 0 22 1440 743 guts 0;
#X obj 488 116 inlet~;
#X obj 496 613 outlet~;
#X obj 551 358 osc~;
#X obj 551 385 +~ 1;
#X obj 551 411 *~ 0.5;
#X obj 552 436 *~;
#X obj 548 119 inlet;
#X obj 803 213 inlet;
#X obj 550 320 * 5;
#X obj 551 463 +~;
#X obj 494 502 *~ 0.3;
#X obj 606 358 osc~;
#X obj 606 385 +~ 1;
#X obj 606 411 *~ 0.5;
#X obj 607 436 *~;
#X obj 606 463 +~;
#X obj 606 335 + 1;
#X obj 613 619 outlet~;
#X obj 603 138 *~ 0.3;
#X obj 527 234 delwrite~ \$0-chorusBufferR 250;
#X obj 525 163 delwrite~ \$0-chorusBufferL 250;
#X obj 547 543 s~ \$0-chorusBufferLFeedback;
#X obj 605 518 vd~ \$0-chorusBufferR;
#X obj 551 489 vd~ \$0-chorusBufferL;
#X obj 625 572 s~ \$0-chorusBufferRFeedback;
#X obj 602 113 r~ \$0-chorusBufferLFeedback;
#X obj 575 209 *~ 0.3;
#X obj 574 184 r~ \$0-chorusBufferRFeedback;
#X obj 802 296 lop~ 1;
#X obj 805 256 * 5;
#X obj 550 294 max 0.01;
#X connect 0 0 10 0;
#X connect 0 0 20 0;
#X connect 0 0 19 0;
#X connect 2 0 3 0;
#X connect 3 0 4 0;
#X connect 4 0 5 0;
#X connect 5 0 9 0;
#X connect 6 0 30 0;
#X connect 7 0 29 0;
#X connect 8 0 2 0;
#X connect 8 0 16 0;
#X connect 9 0 23 0;
#X connect 10 0 1 0;
#X connect 10 0 17 0;
#X connect 11 0 12 0;
#X connect 12 0 13 0;
#X connect 13 0 14 0;
#X connect 14 0 15 0;
#X connect 15 0 22 0;
#X connect 16 0 11 0;
#X connect 18 0 20 0;
#X connect 22 0 17 0;
#X connect 22 0 24 0;
#X connect 23 0 1 0;
#X connect 23 0 21 0;
#X connect 25 0 18 0;
#X connect 26 0 19 0;
#X connect 27 0 26 0;
#X connect 28 0 5 1;
#X connect 28 0 9 1;
#X connect 28 0 14 1;
#X connect 28 0 15 1;
#X connect 29 0 28 0;
#X connect 30 0 8 0;
#X restore 45 98 pd guts;
#X obj 3 253 *~;
#X obj 3 278 outlet~;
#X obj 63 28 loadbang;
#X msg 62 54 0.5;
#X connect 0 0 15 0;
#X connect 2 0 14 0;
#X connect 3 0 7 0;
#X connect 3 1 6 0;
#X connect 4 0 1 0;
#X connect 6 0 10 0;
#X connect 6 1 9 0;
#X connect 7 0 12 0;
#X connect 7 1 11 0;
#X connect 8 0 4 1;
#X connect 8 0 16 1;
#X connect 9 0 5 0;
#X connect 10 0 8 0;
#X connect 11 0 8 0;
#X connect 12 0 13 0;
#X connect 13 0 5 0;
#X connect 14 0 3 0;
#X connect 14 1 15 1;
#X connect 14 2 15 2;
#X connect 15 0 16 0;
#X connect 15 1 4 0;
#X connect 16 0 17 0;
#X connect 18 0 19 0;
#X connect 19 0 15 1;
#X connect 19 0 15 2;
#X restore 127 148 pd guts;
#X msg 241 42 switch \$1;
#X msg 255 90 rate \$1;
#X msg 287 137 depth \$1;
#X obj 128 197 *~;
#X obj 165 258 outlet~;
#X obj 217 -52 r \$0-chorusSwitch;
#X obj 255 68 r \$0-chorusRate;
#X obj 287 111 r \$0-chorusDepth;
#X connect 0 0 2 0;
#X connect 0 0 11 0;
#X connect 2 0 1 0;
#X connect 2 0 16 0;
#X connect 3 0 16 0;
#X connect 4 0 5 0;
#X connect 4 0 7 0;
#X connect 4 1 12 0;
#X connect 5 0 3 1;
#X connect 5 0 15 1;
#X connect 6 0 2 1;
#X connect 7 0 8 0;
#X connect 7 1 8 1;
#X connect 8 0 6 0;
#X connect 9 0 10 0;
#X connect 10 0 4 0;
#X connect 11 0 15 0;
#X connect 11 1 3 0;
#X connect 12 0 11 1;
#X connect 13 0 11 1;
#X connect 14 0 11 1;
#X connect 15 0 1 0;
#X connect 17 0 4 0;
#X connect 18 0 13 0;
#X connect 19 0 14 0;
#X restore 107 344 pd chorus;
#N canvas 405 81 733 588 distort 0;
#X obj 87 -15 inlet~;
#X obj 89 257 outlet~;
#X obj 55 198 *~;
#X obj 125 199 *~;
#X obj 216 9 t f f;
#X obj 141 175 lop~ 1;
#X obj 74 174 lop~ 1;
#X obj 77 118 swap 1;
#X obj 78 138 -;
#X obj 267 -28 loadbang;
#X msg 268 -8 0;
#N canvas 576 100 619 574 guts 0;
#X obj 46 -23 inlet~;
#X obj 55 308 outlet~;
#X obj 129 31 inlet;
#X obj 129 80 select 0 1;
#X obj 54 254 *~;
#X obj 186 152 switch~;
#X obj 158 101 t b b;
#X obj 130 124 t b b;
#X obj 76 234 lop~ 1;
#X msg 185 127 1;
#X msg 79 204 1;
#X msg 111 204 0;
#X obj 129 150 del 30;
#X msg 128 172 0;
#X obj 129 57 route switch gain fuzz;
#N canvas 12 41 597 771 guts 0;
#X obj 145 -104 inlet~;
#X obj 144 164 expr~ atan($v1);
#X obj 145 137 *~;
#X obj 159 114 lop~ 1;
#X obj 246 -46 inlet;
#X obj 241 680 outlet~;
#X obj 184 42 *;
#N canvas 134 139 1440 745 crush 0;
#X obj 269 334 wrap~;
#X obj 220 367 -~;
#X obj 218 493 hip~ 4;
#X obj 220 300 *~;
#X obj 339 267 sig~;
#X obj 342 329 +~ 1e-20;
#X obj 218 258 hip~ 4;
#X obj 216 575 outlet~;
#X obj 216 187 inlet~;
#X obj 326 7 inlet;
#X obj 541 151 -;
#X obj 327 63 pow 0.5;
#X obj 327 37 * 10;
#X obj 327 86 / 3.162;
#X obj 531 126 swap 16;
#X obj 415 205 loadbang;
#X msg 415 232 8;
#X floatatom 422 298 5 0 0 0 - - -;
#X obj 328 189 + 0.5;
#X obj 327 210 int;
#X floatatom 377 212 5 0 0 0 - - -;
#X obj 215 444 expr~ ($v1/$v2);
#X obj 338 238 max 2;
#X obj 329 110 * 16;
#X obj 329 154 -;
#X obj 328 132 swap 16;
#X connect 0 0 1 1;
#X connect 1 0 21 0;
#X connect 2 0 7 0;
#X connect 3 0 0 0;
#X connect 3 0 1 0;
#X connect 4 0 3 1;
#X connect 4 0 5 0;
#X connect 5 0 21 1;
#X connect 6 0 3 0;
#X connect 8 0 6 0;
#X connect 9 0 12 0;
#X connect 11 0 13 0;
#X connect 12 0 11 0;
#X connect 13 0 23 0;
#X connect 14 0 10 0;
#X connect 14 1 10 1;
#X connect 15 0 16 0;
#X connect 16 0 4 0;
#X connect 18 0 19 0;
#X connect 18 0 20 0;
#X connect 19 0 22 0;
#X connect 21 0 2 0;
#X connect 22 0 4 0;
#X connect 22 0 17 0;
#X connect 23 0 25 0;
#X connect 24 0 18 0;
#X connect 25 0 24 0;
#X connect 25 1 24 1;
#X restore 241 466 pd crush;
#X obj 297 376 inlet;
#X obj 159 86 max 1;
#X obj 205 607 clip~ -1 1;
#X obj 142 -10 hip~ 4;
#X obj 146 379 *~;
#X obj 161 358 lop~ 1;
#X obj 279 196 swap 1;
#X obj 281 219 /;
#X floatatom 338 278 5 0 0 0 - - -;
#X msg 305 536 0;
#X obj 305 516 t b;
#X floatatom 307 75 5 0 0 0 - - -;
#X floatatom 168 315 5 0 0 0 - - -;
#X obj 290 117 * 0.01;
#X obj 160 219 moses 0.13;
#X obj 220 243 * 10;
#X floatatom 276 321 5 0 0 0 - - -;
#X floatatom 218 344 5 0 0 0 - - -;
#X obj 221 267 pow 2;
#X obj 222 289 * 0.1;
#X obj 220 312 - 0.03;
#X floatatom 265 344 5 0 0 0 - - -;
#X obj 184 62 * 100;
#X obj 280 171 + 0.175;
#X obj 176 545 +~;
#X obj 178 571 *~ 0.5;
#X obj 237 510 *~;
#X obj 304 478 moses 0.02;
#X obj 356 516 t b;
#X msg 356 536 1;
#X floatatom 341 432 5 0 0 0 - - -;
#X floatatom 393 504 5 0 0 0 - - -;
#X floatatom 293 568 5 0 0 0 - - -;
#X obj 258 489 lop~ 1;
#X obj 161 187 * 0.075;
#X obj 222 540 *~ 0.5;
#X connect 0 0 11 0;
#X connect 1 0 12 0;
#X connect 2 0 1 0;
#X connect 3 0 2 1;
#X connect 4 0 6 1;
#X connect 4 0 6 0;
#X connect 4 0 31 0;
#X connect 6 0 30 0;
#X connect 7 0 34 0;
#X connect 8 0 7 1;
#X connect 8 0 35 0;
#X connect 8 0 38 0;
#X connect 9 0 3 0;
#X connect 10 0 5 0;
#X connect 11 0 2 0;
#X connect 12 0 7 0;
#X connect 12 0 32 0;
#X connect 13 0 12 1;
#X connect 14 0 15 0;
#X connect 14 1 15 1;
#X connect 15 0 16 0;
#X connect 15 0 42 0;
#X connect 17 0 41 0;
#X connect 18 0 17 0;
#X connect 19 0 21 0;
#X connect 21 0 31 0;
#X connect 22 0 20 0;
#X connect 22 0 13 0;
#X connect 22 1 23 0;
#X connect 23 0 26 0;
#X connect 26 0 27 0;
#X connect 27 0 28 0;
#X connect 28 0 25 0;
#X connect 28 0 13 0;
#X connect 30 0 9 0;
#X connect 31 0 14 0;
#X connect 32 0 33 0;
#X connect 33 0 10 0;
#X connect 34 0 43 0;
#X connect 35 0 18 0;
#X connect 35 0 40 0;
#X connect 35 1 36 0;
#X connect 35 1 39 0;
#X connect 36 0 37 0;
#X connect 37 0 41 0;
#X connect 41 0 34 1;
#X connect 42 0 22 0;
#X connect 42 0 29 0;
#X connect 43 0 32 1;
#X restore 49 127 pd guts;
#X obj 62 18 loadbang;
#X msg 63 39 0.5;
#X connect 0 0 15 0;
#X connect 2 0 14 0;
#X connect 3 0 7 0;
#X connect 3 1 6 0;
#X connect 4 0 1 0;
#X connect 6 0 10 0;
#X connect 6 1 9 0;
#X connect 7 0 12 0;
#X connect 7 1 11 0;
#X connect 8 0 4 1;
#X connect 9 0 5 0;
#X connect 10 0 8 0;
#X connect 11 0 8 0;
#X connect 12 0 13 0;
#X connect 13 0 5 0;
#X connect 14 0 3 0;
#X connect 14 1 15 1;
#X connect 14 2 15 2;
#X connect 15 0 4 0;
#X connect 16 0 17 0;
#X connect 17 0 15 1;
#X connect 17 0 15 2;
#X restore 127 148 pd guts;
#X msg 241 42 switch \$1;
#X msg 255 90 gain \$1;
#X msg 287 137 fuzz \$1;
#X obj 217 -52 r \$0-distortionSwitch;
#X obj 255 68 r \$0-distortionGain;
#X obj 287 111 r \$0-distortionFuzz;
#X connect 0 0 2 0;
#X connect 0 0 11 0;
#X connect 2 0 1 0;
#X connect 3 0 1 0;
#X connect 4 0 5 0;
#X connect 4 0 7 0;
#X connect 4 1 12 0;
#X connect 5 0 3 1;
#X connect 6 0 2 1;
#X connect 7 0 8 0;
#X connect 7 1 8 1;
#X connect 8 0 6 0;
#X connect 9 0 10 0;
#X connect 10 0 4 0;
#X connect 11 0 3 0;
#X connect 12 0 11 1;
#X connect 13 0 11 1;
#X connect 14 0 11 1;
#X connect 15 0 4 0;
#X connect 16 0 13 0;
#X connect 17 0 14 0;
#X restore 106 198 pd distort;
#X obj 107 221 *~ 0.5;
#X obj 105 268 *~ 0.5;
#X obj 108 319 *~ 0.5;
#X obj 162 378 *~ 0.5;
#X obj 108 378 *~ 0.5;
#X obj 160 460 *~ 16;
#X obj 107 459 *~ 16;
#X obj 103 137 inlet~;
#X obj 163 504 outlet~;
#X obj 101 504 outlet~;
#X obj 555 12 inlet;
#X connect 1 0 12 0;
#X connect 1 1 11 0;
#X connect 2 0 7 0;
#X connect 3 0 8 0;
#X connect 4 0 10 0;
#X connect 4 1 9 0;
#X connect 5 0 6 0;
#X connect 6 0 2 0;
#X connect 7 0 3 0;
#X connect 8 0 4 0;
#X connect 9 0 1 1;
#X connect 10 0 1 0;
#X connect 11 0 14 0;
#X connect 12 0 15 0;
#X connect 13 0 5 0;
#X connect 16 0 0 0;
