#N canvas 117 116 872 649 10;
#X obj 236 92 noise~;
#X obj 294 186 vline~;
#X obj 335 542 delwrite~ \$0-kickBuffer 500;
#X obj 235 328 *~;
#X obj 288 298 *~;
#X obj 87 -44 loadbang;
#X obj 299 6 inlet;
#X obj 358 125 / 127;
#X obj 233 380 *~;
#X obj 238 191 +~;
#X msg 96 28 10;
#X obj 297 85 unpack f f;
#X obj 296 116 t b;
#X obj 348 329 lop~ 20;
#X obj 97 113 phasor~;
#X obj 98 138 expr~ if($v1>0 \, 1 \, -1);
#X obj 311 428 delread~ \$0-kickBuffer 70;
#X obj 236 123 *~ 1;
#X obj 173 32 random 100;
#X obj 172 54 * 0.05;
#X obj 173 78 - 2.5;
#X obj 98 59 f;
#X obj 97 91 +;
#X floatatom 61 113 5 0 0 0 - - -;
#X obj 243 470 *~ 0.6;
#X obj 281 394 delread~ \$0-kickBuffer 15;
#X obj 255 496 *~ 0.3;
#X obj 335 511 *~ 0.05;
#X obj 228 591 *~;
#X obj 227 674 outlet~;
#X obj 536 -6 inlet;
#X obj 534 26 route volume;
#X obj 531 56 s \$0-vol;
#X obj 592 -38 loadbang;
#X obj 255 537 r \$0-vol;
#X obj 255 562 lop~ 1;
#X obj 228 615 clip~ -1 1;
#X obj 227 643 hip~ 4;
#X obj 112 562 env~;
#X floatatom 121 595 5 0 0 0 - - -;
#X obj 99 166 *~ 0.1;
#X obj 234 263 birdFilter~ 300 330 400 2000;
#X msg 591 -9 volume 1;
#X msg 294 157 0 \, 1 5 \, 0 100 20;
#X obj 235 292 *~ 1;
#X obj 267 242 birdFilter~ 800 1250 1599 3500;
#X connect 0 0 17 0;
#X connect 1 0 4 1;
#X connect 1 0 4 0;
#X connect 3 0 8 0;
#X connect 4 0 3 1;
#X connect 5 0 10 0;
#X connect 6 0 11 0;
#X connect 7 0 13 0;
#X connect 8 0 2 0;
#X connect 8 0 28 0;
#X connect 9 0 41 0;
#X connect 9 0 45 0;
#X connect 10 0 21 1;
#X connect 10 0 21 0;
#X connect 11 0 12 0;
#X connect 11 1 7 0;
#X connect 12 0 43 0;
#X connect 12 0 18 0;
#X connect 13 0 8 1;
#X connect 14 0 15 0;
#X connect 15 0 40 0;
#X connect 16 0 26 0;
#X connect 16 0 27 0;
#X connect 17 0 9 0;
#X connect 18 0 19 0;
#X connect 19 0 20 0;
#X connect 20 0 22 0;
#X connect 21 0 22 1;
#X connect 22 0 14 0;
#X connect 22 0 23 0;
#X connect 24 0 28 0;
#X connect 25 0 24 0;
#X connect 25 0 27 0;
#X connect 26 0 28 0;
#X connect 27 0 2 0;
#X connect 28 0 36 0;
#X connect 30 0 31 0;
#X connect 31 0 32 0;
#X connect 33 0 42 0;
#X connect 34 0 35 0;
#X connect 35 0 28 1;
#X connect 36 0 37 0;
#X connect 37 0 29 0;
#X connect 38 0 39 0;
#X connect 40 0 9 1;
#X connect 41 0 44 0;
#X connect 42 0 31 0;
#X connect 43 0 1 0;
#X connect 44 0 3 0;
#X connect 45 0 44 0;
