#N canvas 425 170 450 300 10;
#X obj 151 60 inlet;
#X obj 151 140 spigot;
#X obj 213 13 inlet;
#X msg 212 106 1;
#X obj 149 169 t a b;
#X obj 150 230 outlet;
#X obj 253 76 loadbang;
#X msg 205 139 0;
#X obj 205 186 del 250;
#X msg 204 212 1;
#X obj 213 37 spigot;
#X msg 267 38 1;
#X connect 0 0 1 0;
#X connect 1 0 4 0;
#X connect 2 0 10 0;
#X connect 3 0 1 1;
#X connect 4 0 5 0;
#X connect 4 1 7 0;
#X connect 4 1 8 0;
#X connect 6 0 3 0;
#X connect 6 0 11 0;
#X connect 7 0 1 1;
#X connect 7 0 10 1;
#X connect 8 0 9 0;
#X connect 9 0 10 1;
#X connect 10 0 3 0;
#X connect 11 0 10 1;
