#N canvas 47 208 1440 804 10;
#X obj 441 24 inlet;
#X obj 448 192 mtof;
#X obj 903 421 inlet;
#X obj 454 816 outlet~;
#X obj 587 504 select 0 1;
#X obj 612 532 t b b;
#X obj 561 556 t b b;
#X obj 615 610 switch~;
#X msg 641 557 1;
#X msg 608 558 1;
#X obj 542 658 lop~ 1;
#X msg 584 582 0;
#X obj 560 606 del 30;
#X msg 561 632 0;
#X obj 456 688 *~;
#X obj 588 473 r \$0-switch;
#X obj 444 294 line;
#X msg 445 250 \$1 \$2;
#X obj 444 224 pack f f;
#X obj 947 715 s \$0-gliss;
#X obj 487 136 r \$0-gliss;
#X obj 442 51 t f f;
#X obj 443 146 sel 0;
#X obj 482 174 bng 15 250 50 0 empty empty empty 17 7 0 10 -262144
-1 -1;
#X msg 500 263 stop;
#X obj 454 109 f;
#X obj 482 193 t b b;
#X obj 948 555 *;
#X obj 1004 574 swap 60000;
#X obj 1016 598 /;
#X obj 947 680 *;
#X obj 905 513 s \$0-switch;
#X obj 1061 532 s \$0-list;
#X obj 887 12 r \$0-list;
#X obj 887 39 list-enumerate;
#N canvas 1130 155 450 300 s 0;
#X obj 37 102 + 0.5;
#X obj 36 127 int;
#X obj 35 15 inlet;
#X obj 35 157 outlet;
#X obj 36 76 / 7.6923;
#X connect 0 0 1 0;
#X connect 1 0 3 0;
#X connect 2 0 4 0;
#X connect 4 0 0 0;
#X restore 887 90 pd s;
#X obj 687 133 s \$0-wave1;
#N canvas 1130 155 450 300 s 0;
#X obj 31 36 inlet;
#X obj 35 157 outlet;
#X obj 36 76 * 0.01;
#X obj 37 102 *;
#X obj 36 127 * 220;
#X connect 0 0 2 0;
#X connect 2 0 3 1;
#X connect 2 0 3 0;
#X connect 3 0 4 0;
#X connect 4 0 1 0;
#X restore 900 135 pd s;
#N canvas 1130 155 450 300 s 0;
#X obj 31 36 inlet;
#X obj 35 157 outlet;
#X obj 36 76 * 0.01;
#X obj 37 102 *;
#X obj 36 127 * 1000;
#X connect 0 0 2 0;
#X connect 2 0 3 1;
#X connect 2 0 3 0;
#X connect 3 0 4 0;
#X connect 4 0 1 0;
#X restore 914 179 pd s;
#X obj 926 226 s \$0-rgliss;
#X obj 945 422 r \$0-rgliss;
#X msg 941 464 gliss \$1;
#X obj 949 278 + 50;
#X obj 948 303 s \$0-sub1Q;
#X obj 967 371 s \$0-xyloDec;
#X obj 968 323 * 2;
#X obj 991 394 s \$0-strLen;
#X obj 887 66 route 0 1 2 3 4 5 6;
#X msg 693 472 1;
#X obj 692 440 loadbang;
#X floatatom 784 142 5 0 0 0 - - -;
#X floatatom 809 176 5 0 0 0 - - -;
#X floatatom 830 224 5 0 0 0 - - -;
#X floatatom 860 320 5 0 0 0 - - -;
#X floatatom 879 388 5 0 0 0 - - -;
#X floatatom 1054 182 5 0 0 0 - - -;
#X obj 942 447 * 0.01;
#X obj 1015 626 * 0.375;
#X obj 949 250 * 5;
#X obj 601 693 *~;
#X obj 628 814 outlet~;
#X obj 904 486 route switch gliss tempo randomlist wave;
#X obj 1127 530 s \$0-wave1;
#X obj 968 347 + 30;
#X obj 898 159 s \$0-mf;
#X obj 912 203 s \$0-ma;
#X msg 759 33 0;
#X msg 540 263 0;
#X obj 1090 219 outlet;
#X obj 1091 160 r \$0-wave1;
#X obj 577 260 r \$0-wave1;
#X obj 717 314 t b;
#N canvas 1130 155 450 300 s 0;
#X obj 37 102 + 0.5;
#X obj 36 127 int;
#X obj 35 15 inlet;
#X obj 35 157 outlet;
#X obj 36 76 / 7.6923;
#X connect 0 0 1 0;
#X connect 1 0 3 0;
#X connect 2 0 4 0;
#X connect 4 0 0 0;
#X restore 662 311 pd s;
#X obj 686 64 t b;
#X obj 686 86 random 14;
#X obj 1150 686 s \$0-wave1;
#X obj 1149 617 t b;
#X obj 1149 639 random 14;
#X obj 716 339 random 14;
#X msg 484 320 \$1 100;
#X obj 579 297 r \$0-wave1;
#X obj 484 373 mm_spad~;
#N canvas 3 118 1335 609 spad 0;
#X obj 585 19 r \$0-GUI;
#X symbolatom 360 281 20 0 0 0 - - -;
#X obj 462 258 s \$0-GUI;
#X obj 360 210 nbx 3 20 0 256 0 0 empty empty empty 0 -8 0 16 -260097
-262144 -1 4 256;
#X obj 360 187 pgmin 1;
#X obj 317 167 hradio 15 1 0 5 empty empty empty 0 -8 0 10 -262144
-1 -1 4;
#X obj 585 66 g_synthcontrol;
#N canvas 0 22 1152 704 spad_presets 0;
#X obj 91 26 inlet;
#X obj 134 647 outlet name;
#X obj 118 611 symbol;
#X obj 217 646 outlet parms;
#X obj 151 566 route name;
#X obj 589 225 loadbang;
#X text 584 171 set up the interface to be human readable and show
which controls are actually used;
#X text 586 201 Requires modified [g-hsl];
#X obj 90 52 sel 0 1 2 3 4 5 6 7 8 9 10 11 12;
#X msg 584 255 env1a color 128 \, env1a label AMP-ATTACK \, env1d color
128 \, env1d label AMP-DECAY \, env1r color 128 \, env1r label AMP-REL
\, env1s color 128 \, env1s label AMP-SUS \, env2a color 128 \, env2a
label FLT-ATTACK \, env2d color 128 \, env2d label FLT-DECAY \, env2r
color 128 \, env2r label FLT-REL \, env2s color 128 \, env2s label
FLT-SUS \, env3a color 2 \, env3a label _ \, env3d color 2 \, env3d
label _ \, env3r color 2 \, env3r label _ \, env3s color 2 \, env3s
label _ \, mod1a color 128 \, mod1a label LFO-FREQ \, mod1b color 128
\, mod1b label VIB-AMT \, mod1c color 128 \, mod1c label VIB-ONSET
\, mod1d color 128 \, mod1d label SLIDE \, mod2a color 2 \, mod2a label
_ \, mod2b color 2 \, mod2b label _ \, mod2c color 2 \, mod2c label
_ \, mod2d color 2 \, mod2d label _ \, mod3a color 2 \, mod3a label
_ \, mod3b color 128 \, mod3b label VOLUME \, mod3c color 2 \, mod3c
label _ \, mod3d color 2 \, mod3d label _ \, osc1a color 128 \, osc1a
label DETUNE-FREQ \, osc1b color 128 \, osc1b label RES \, osc1c color
128 \, osc1c label CUT \, osc1d color 128 \, osc1d label FLT-ENV \,
osc2a color 128 \, osc2a label COARSE \, osc2b color 2 \, osc2b label
_ \, osc2c color 2 \, osc2c label _ \, osc2d color 2 \, osc2d label
_ \, osc3a color 2 \, osc3a label _ \, osc3b color 2 \, osc3b label
_ \, osc3c color 2 \, osc3c label _ \, osc3d color 2 \, osc3d label
_;
#X msg 91 285 mod3d 0 \, mod3c 0 \, mod3b 0.173622 \, mod3a 0 \, mod2d
0 \, mod2c 0 \, mod2b 0 \, mod2a 0 \, mod1d 0.867795 \, mod1c 0.465512
\, mod1b 0.08 \, mod1a 0.000472441 \, osc3d 0 \, osc3c 0 \, osc3b 0
\, osc3a 0 \, osc2d 0 \, osc2c 0 \, osc2b 0 \, osc2a 0.496063 \, osc1d
0.000472441 \, osc1c 0.998504 \, osc1b 0.975118 \, osc1a 0.991339 \,
env3r 0 \, env3s 0 \, env3d 0 \, env3a 0 \, env2r 0.0559843 \, env2s
0.0796063 \, env2d 0.0872441 \, env2a 0.197402 \, env1r 0.0410236 \,
env1s 0.904567 \, env1d 0.0874016 \, env1a 0.000314961 \,;
#X msg 98 282 name floppybass \, mod3d 0 \, mod3c 0 \, mod3b 0.520079
\, mod3a 0 \, mod2d 0 \, mod2c 0 \, mod2b 0 \, mod2a 0 \, mod1d 0.867795
\, mod1c 0.465512 \, mod1b 0.08 \, mod1a 0.000472441 \, osc3d 0 \,
osc3c 0 \, osc3b 0 \, osc3a 0 \, osc2d 0 \, osc2c 0 \, osc2b 0 \, osc2a
0.181102 \, osc1d 0.54378 \, osc1c 0.83315 \, osc1b 0.353071 \, osc1a
0 \, env3r 0 \, env3s 0 \, env3d 0 \, env3a 0 \, env2r 0.0559843 \,
env2s 0.0796063 \, env2d 0.11874 \, env2a 0.0320472 \, env1r 0.0410236
\, env1s 0 \, env1d 0.189764 \, env1a 0.000314961 \,;
#X msg 110 265 name sweeppad \, mod3d 0 \, mod3c 0 \, mod3b 0.520079
\, mod3a 0 \, mod2d 0 \, mod2c 0 \, mod2b 0 \, mod2a 0 \, mod1d 0.867795
\, mod1c 0.465512 \, mod1b 0.08 \, mod1a 0.000472441 \, osc3d 0 \,
osc3c 0 \, osc3b 0 \, osc3a 0 \, osc2d 0 \, osc2c 0 \, osc2b 0 \, osc2a
0.472441 \, osc1d 0.54378 \, osc1c 0.83315 \, osc1b 0.668032 \, osc1a
0.0866142 \, env3r 0 \, env3s 0 \, env3d 0 \, env3a 0 \, env2r 0.0717323
\, env2s 0.174094 \, env2d 0.378583 \, env2a 0.378504 \, env1r 0.11189
\, env1s 0.929134 \, env1d 0.205512 \, env1a 0.488504 \,;
#X msg 107 261 name acid \, mod3d 0 \, mod3c 0 \, mod3b 0.520079 \,
mod3a 0 \, mod2d 0 \, mod2c 0 \, mod2b 0 \, mod2a 0 \, mod1d 0.883543
\, mod1c 0.465512 \, mod1b 0.08 \, mod1a 0.000472441 \, osc3d 0 \,
osc3c 0 \, osc3b 0 \, osc3a 0 \, osc2d 0 \, osc2c 0 \, osc2b 0 \, osc2a
0.779528 \, osc1d 0.921732 \, osc1c 0.470945 \, osc1b 0.99874 \, osc1a
0.0866142 \, env3r 0 \, env3s 0 \, env3d 0 \, env3a 0 \, env2r 0.0323622
\, env2s 0.0481102 \, env2d 0.0708661 \, env2a 0.000472441 \, env1r
0.0410236 \, env1s 0.322835 \, env1d 0.111024 \, env1a 0.0015748 \,
;
#X msg 128 264 name stringypad \, mod3d 0 \, mod3c 0 \, mod3b 0.520079
\, mod3a 0 \, mod2d 0 \, mod2c 0 \, mod2b 0 \, mod2a 0 \, mod1d 0 \,
mod1c 0.465512 \, mod1b 0.166614 \, mod1a 0.654016 \, osc3d 0 \, osc3c
0 \, osc3b 0 \, osc3a 0 \, osc2d 0 \, osc2c 0 \, osc2b 0 \, osc2a 0.779528
\, osc1d 0.669764 \, osc1c 0.596929 \, osc1b 0.699528 \, osc1a 0.228346
\, env3r 0 \, env3s 0 \, env3d 0 \, env3a 0 \, env2r 0.0323622 \, env2s
0.567795 \, env2d 0.0708661 \, env2a 0.630394 \, env1r 0.0410236 \,
env1s 0.322835 \, env1d 0.111024 \, env1a 0.080315 \,;
#X msg 139 269 name solo \, mod3d 0 \, mod3c 0 \, mod3b 0.520079 \,
mod3a 0 \, mod2d 0 \, mod2c 0 \, mod2b 0 \, mod2a 0 \, mod1d 0 \, mod1c
0.284409 \, mod1b 0.103622 \, mod1a 0.724882 \, osc3d 0 \, osc3c 0
\, osc3b 0 \, osc3a 0 \, osc2d 0 \, osc2c 0 \, osc2b 0 \, osc2a 1 \,
osc1d 0.646142 \, osc1c 0.974882 \, osc1b 0.244094 \, osc1a 0.228346
\, env3r 0 \, env3s 0 \, env3d 0 \, env3a 0 \, env2r 0.0244882 \, env2s
0.992992 \, env2d 0.0708661 \, env2a 0.00787402 \, env1r 0.00952756
\, env1s 0.889764 \, env1d 0.111024 \, env1a 0.0173228 \,;
#X connect 0 0 8 0;
#X connect 2 0 1 0;
#X connect 4 0 2 0;
#X connect 4 1 3 0;
#X connect 5 0 9 0;
#X connect 8 0 10 0;
#X connect 8 1 11 0;
#X connect 8 2 12 0;
#X connect 8 3 13 0;
#X connect 8 4 14 0;
#X connect 8 5 15 0;
#X connect 9 0 3 0;
#X connect 10 0 4 0;
#X connect 11 0 4 0;
#X connect 12 0 4 0;
#X connect 13 0 4 0;
#X connect 14 0 4 0;
#X connect 15 0 4 0;
#X restore 360 237 pd spad_presets;
#X obj 316 75 inlet;
#X obj 318 108 random 5;
#X obj 616 558 outlet;
#X connect 0 0 6 0;
#X connect 3 0 7 0;
#X connect 4 0 3 0;
#X connect 5 0 3 0;
#X connect 6 0 10 0;
#X connect 7 0 1 0;
#X connect 7 1 2 0;
#X connect 8 0 9 0;
#X connect 9 0 5 0;
#X restore 564 357 pd spad;
#X obj 564 335 bang;
#X connect 0 0 21 0;
#X connect 1 0 18 0;
#X connect 2 0 61 0;
#X connect 4 0 6 0;
#X connect 4 1 5 0;
#X connect 5 0 9 0;
#X connect 5 1 8 0;
#X connect 6 0 12 0;
#X connect 6 1 11 0;
#X connect 8 0 10 0;
#X connect 9 0 7 0;
#X connect 10 0 14 1;
#X connect 10 0 59 1;
#X connect 11 0 10 0;
#X connect 12 0 13 0;
#X connect 13 0 7 0;
#X connect 14 0 3 0;
#X connect 15 0 4 0;
#X connect 17 0 16 0;
#X connect 18 0 17 0;
#X connect 20 0 18 1;
#X connect 21 0 22 0;
#X connect 21 1 25 1;
#X connect 22 0 23 0;
#X connect 22 1 25 0;
#X connect 23 0 26 0;
#X connect 24 0 16 0;
#X connect 25 0 1 0;
#X connect 25 0 79 0;
#X connect 26 0 67 0;
#X connect 26 1 24 0;
#X connect 27 0 30 0;
#X connect 28 0 29 0;
#X connect 28 1 29 1;
#X connect 29 0 57 0;
#X connect 30 0 19 0;
#X connect 33 0 34 0;
#X connect 34 0 47 0;
#X connect 35 0 50 0;
#X connect 37 0 51 0;
#X connect 38 0 52 0;
#X connect 40 0 56 0;
#X connect 41 0 61 0;
#X connect 42 0 43 0;
#X connect 42 0 53 0;
#X connect 45 0 63 0;
#X connect 47 0 35 0;
#X connect 47 0 73 0;
#X connect 47 1 37 0;
#X connect 47 2 38 0;
#X connect 47 3 39 0;
#X connect 47 4 58 0;
#X connect 47 5 45 0;
#X connect 47 6 46 0;
#X connect 47 6 55 0;
#X connect 48 0 4 0;
#X connect 49 0 48 0;
#X connect 56 0 41 0;
#X connect 57 0 30 1;
#X connect 58 0 42 0;
#X connect 59 0 60 0;
#X connect 61 0 31 0;
#X connect 61 1 27 1;
#X connect 61 1 27 0;
#X connect 61 2 28 0;
#X connect 61 3 32 0;
#X connect 61 4 76 0;
#X connect 63 0 44 0;
#X connect 63 0 54 0;
#X connect 66 0 35 0;
#X connect 67 0 16 0;
#X connect 69 0 68 0;
#X connect 71 0 78 0;
#X connect 73 0 74 0;
#X connect 74 0 36 0;
#X connect 76 0 77 0;
#X connect 77 0 75 0;
#X connect 79 0 81 0;
#X connect 80 0 83 0;
#X connect 81 0 59 0;
#X connect 81 0 14 0;
#X connect 82 0 81 1;
#X connect 83 0 82 0;
