#N canvas 98 22 1309 789 10;
#X obj 986 -15 \$0;
#X obj 940 8 pack f f;
#X obj 943 -33 t f b;
#X obj 650 -185 inlet;
#X obj 173 -407 inlet;
#X obj 212 314 outlet;
#X obj 199 92 tabread \$0-noteBuffer;
#X msg 941 37 \$2-noteBuffer resize \$1 \;;
#X obj 743 -38 pack s \$1 \$0;
#X obj 648 -135 s \$0-read;
#X obj 698 -109 s \$0-length;
#X obj 941 -61 r \$0-length;
#X obj 743 -78 r \$0-read;
#X obj 172 240 moses 1;
#X obj 363 -22 list-tabdump \$0-noteBuffer;
#X obj 364 3 list-rev;
#X obj 386 -80 r \$0-length;
#X obj 364 -48 f 64;
#X obj 362 218 tabwrite \$0-noteBuffer;
#X obj 739 -138 s \$0-reverse;
#X obj 356 -177 r \$0-reverse;
#X obj 361 158 t f b;
#X obj 391 184 f;
#X obj 422 184 + 1;
#X obj 358 -137 t b b;
#X msg 405 161 0;
#X obj 361 131 list-dripslow;
#X obj 457 -130 bng 15 250 50 0 empty empty empty 17 7 0 10 -262144
-1 -1;
#X obj 363 29 t a a;
#X obj 362 64 list length;
#X obj 361 99 until;
#X obj 783 -113 s \$0-rate;
#X obj 212 -48 r \$0-rate;
#X obj 189 -23 * 1;
#X floatatom 46 -50 5 0 0 0 - - -;
#X floatatom 160 88 5 0 0 0 - - -;
#X obj 199 62 mod 64;
#X obj 824 -139 s \$0-sparse;
#X obj 217 128 r \$0-sparse;
#N canvas 350 249 450 300 inv 0;
#X obj 181 23 inlet;
#X obj 179 71 swap 1;
#X obj 185 97 -;
#X obj 187 138 outlet;
#X connect 0 0 1 0;
#X connect 1 0 2 0;
#X connect 1 1 2 1;
#X connect 2 0 3 0;
#X restore 217 194 pd inv;
#X obj -143 -316 table \$0-noteBuffer 64;
#X obj 176 -283 t f f;
#X obj 243 40 r \$0-length;
#X obj 280 -353 r \$0-length;
#X obj 335 -307 r \$0-rate;
#X obj 333 -281 t b f;
#X obj 284 -256 /;
#X obj 202 -257 sel 0;
#X obj 181 -98 +;
#X obj 283 -227 /;
#X msg 726 -204 length 64;
#X obj 282 -306 t f f f;
#X obj 203 -232 f;
#X obj 233 -232 + 1;
#X obj 205 -171 mod;
#X obj 211 -114 *;
#X floatatom 215 -90 5 0 0 0 - - -;
#X floatatom 260 -95 5 0 0 0 - - -;
#X floatatom 860 -227 5 0 0 0 - - -;
#X floatatom 277 -187 5 0 0 0 - - -;
#X obj 235 -160 r \$0-length;
#X obj 227 -327 r \$0-read;
#X obj 226 -303 t b;
#X msg 225 -280 0;
#X obj 649 -162 route read length reverse rate sparse offset;
#X obj 872 -110 s \$0-offset;
#X obj 174 -360 +;
#X obj 189 -387 r \$0-offset;
#X obj 945 65 print resize;
#X obj 743 43 t b;
#X obj 742 85 outlet;
#X msg 743 -8 \; \$3-noteBuffer read \$2-\$1 \;;
#X connect 0 0 1 1;
#X connect 1 0 7 0;
#X connect 2 0 1 0;
#X connect 2 1 0 0;
#X connect 3 0 64 0;
#X connect 4 0 66 0;
#X connect 6 0 13 0;
#X connect 7 0 68 0;
#X connect 8 0 71 0;
#X connect 12 0 8 0;
#X connect 13 1 5 0;
#X connect 14 0 15 0;
#X connect 15 0 28 0;
#X connect 16 0 17 1;
#X connect 17 0 14 0;
#X connect 20 0 24 0;
#X connect 21 0 18 0;
#X connect 21 1 22 0;
#X connect 22 0 23 0;
#X connect 22 0 18 1;
#X connect 23 0 22 1;
#X connect 24 0 17 0;
#X connect 24 1 25 0;
#X connect 25 0 22 1;
#X connect 26 0 21 0;
#X connect 27 0 24 0;
#X connect 28 0 29 0;
#X connect 28 1 26 1;
#X connect 29 0 30 0;
#X connect 30 0 26 0;
#X connect 32 0 33 1;
#X connect 33 0 36 0;
#X connect 36 0 6 0;
#X connect 36 0 35 0;
#X connect 38 0 39 0;
#X connect 39 0 13 1;
#X connect 41 0 48 0;
#X connect 41 1 47 0;
#X connect 42 0 36 1;
#X connect 43 0 51 0;
#X connect 44 0 45 0;
#X connect 45 0 46 0;
#X connect 45 1 46 1;
#X connect 46 0 49 0;
#X connect 47 0 52 0;
#X connect 48 0 33 0;
#X connect 49 0 54 1;
#X connect 49 0 59 0;
#X connect 50 0 64 0;
#X connect 51 1 46 0;
#X connect 51 2 49 1;
#X connect 52 0 53 0;
#X connect 52 0 54 0;
#X connect 53 0 52 1;
#X connect 54 0 55 0;
#X connect 55 0 48 1;
#X connect 55 0 56 0;
#X connect 60 0 55 1;
#X connect 61 0 62 0;
#X connect 62 0 63 0;
#X connect 63 0 52 1;
#X connect 64 0 9 0;
#X connect 64 1 10 0;
#X connect 64 2 19 0;
#X connect 64 3 31 0;
#X connect 64 4 37 0;
#X connect 64 5 65 0;
#X connect 66 0 41 0;
#X connect 67 0 66 1;
#X connect 69 0 70 0;
#X connect 71 0 69 0;
#X coords 0 789 1 788 700 420 0;
