#N canvas 0 22 1440 757 10;
#X obj 347 333 tabwrite~ \$0-sampler;
#X obj 405 66 sel 0 1;
#X obj 561 117 s \$0-startSampling;
#X obj 406 115 s \$0-stopSampling;
#X obj 232 246 r \$0-startSampling;
#X obj 235 300 timer;
#X obj 404 40 spigot;
#X obj 508 -46 r \$0-arm;
#X obj 750 -23 s \$0-arm;
#X obj 240 499 t f b;
#X obj 270 543 samplerate~;
#X obj 237 588 * 0.001;
#X obj 237 613 *;
#X obj 348 -99 inlet~;
#X obj 751 -76 inlet;
#X obj 369 791 tabread4~ \$0-sampler;
#X obj 367 921 outlet~;
#X obj 371 748 vline~;
#X obj 385 176 r \$0-startSampling;
#X obj 398 202 r \$0-stopSampling;
#X msg 423 265 stop;
#X obj 421 359 \$0;
#X msg 421 381 \; \$1-sampler normalize 1;
#X msg 372 692 0 \, 0 2500;
#X obj 262 269 r \$0-stopSampling;
#X obj 316 634 bng 15 250 50 0 empty empty empty 17 7 0 10 -262144
-1 -1;
#X obj 404 578 r \$0-play;
#X obj 790 7 s \$0-play;
#X obj 237 708 pack f f;
#X msg 236 731 add2 \$1 \$2;
#X obj 367 896 *~;
#X obj 407 849 vline~;
#X obj 291 467 s \$0-duration;
#X msg 494 813 1 30 \, 0 30 2470;
#X msg 532 734 addcomma;
#X obj 516 655 r \$0-duration;
#X obj 517 681 t f b b b b;
#X obj 400 874 *~;
#X obj 404 602 t b b;
#X msg 851 -73 play;
#X obj 829 38 s \$0-timebase;
#X obj 868 68 s \$0-edge;
#X obj 484 -83 r \$0-edge;
#X obj 816 866 outlet;
#X obj 816 812 r \$0-stopSampling;
#X msg 506 7 1;
#X msg 538 5 reset;
#X msg 451 39 0;
#X obj 431 146 bng 15 250 50 0 empty empty empty 17 7 0 10 -262144
-1 -1;
#X obj 399 146 bng 15 250 50 0 empty empty empty 17 7 0 10 -262144
-1 -1;
#X msg 894 -77 arm;
#X floatatom 361 2 5 0 0 0 - - -;
#X obj 888 103 s \$0-tempo;
#N canvas 104 85 829 687 tempo 0;
#X obj 370 13 r \$0-tempo;
#X obj 371 38 swap 60000;
#X obj 372 66 /;
#X obj 365 233 /;
#X msg 455 3 120;
#X obj 365 256 + 0.5;
#X obj 364 279 int;
#X floatatom 434 320 5 0 0 0 - - -;
#X obj 390 208 t f f;
#X obj 364 302 *;
#X floatatom 427 355 5 0 0 0 - - -;
#X obj 339 401 /;
#X obj 297 134 t f f f;
#X floatatom 396 -38 5 0 0 0 - - -;
#X obj 338 424 swap 1;
#X obj 339 449 /;
#X obj 311 601 *;
#X floatatom 267 652 5 0 0 0 - - -;
#X obj 456 -30 loadbang;
#X obj 296 71 inlet;
#X obj 310 644 outlet;
#X obj 391 183 * 1;
#X obj 412 112 r \$0-beats;
#X obj 413 153 t b f;
#X obj 374 459 r \$0-beats;
#X obj 335 518 * 1;
#X floatatom 500 130 5 0 0 0 - - -;
#X floatatom 446 254 5 0 0 0 - - -;
#X floatatom 412 285 5 0 0 0 - - -;
#X floatatom 316 102 5 0 0 0 - - -;
#X floatatom 457 178 5 0 0 0 - - -;
#X floatatom 451 75 5 0 0 0 - - -;
#X obj 381 122 f;
#X obj 334 486 f;
#X obj 372 485 t b f;
#X obj 335 344 f;
#X obj 366 328 t b f;
#X obj 309 567 f;
#X obj 333 544 t b f;
#X connect 0 0 1 0;
#X connect 0 0 31 0;
#X connect 1 0 2 0;
#X connect 1 1 2 1;
#X connect 2 0 32 1;
#X connect 2 0 32 0;
#X connect 3 0 5 0;
#X connect 3 0 28 0;
#X connect 4 0 1 0;
#X connect 5 0 6 0;
#X connect 6 0 7 0;
#X connect 6 0 9 0;
#X connect 8 0 3 1;
#X connect 8 1 9 1;
#X connect 8 1 27 0;
#X connect 9 0 10 0;
#X connect 9 0 36 0;
#X connect 11 0 14 0;
#X connect 12 0 37 1;
#X connect 12 0 37 0;
#X connect 12 1 35 1;
#X connect 12 1 35 0;
#X connect 12 2 3 0;
#X connect 14 0 15 0;
#X connect 14 1 15 1;
#X connect 15 0 33 1;
#X connect 15 0 33 0;
#X connect 16 0 17 0;
#X connect 16 0 20 0;
#X connect 18 0 4 0;
#X connect 19 0 12 0;
#X connect 19 0 29 0;
#X connect 21 0 8 0;
#X connect 22 0 23 0;
#X connect 22 0 30 0;
#X connect 23 0 32 0;
#X connect 23 1 21 1;
#X connect 24 0 34 0;
#X connect 25 0 38 0;
#X connect 26 0 23 0;
#X connect 32 0 21 0;
#X connect 33 0 25 0;
#X connect 34 0 33 0;
#X connect 34 1 25 1;
#X connect 35 0 11 0;
#X connect 36 0 35 0;
#X connect 36 1 11 1;
#X connect 37 0 16 0;
#X connect 38 0 37 0;
#X connect 38 1 16 1;
#X restore 347 394 pd tempo;
#X obj 960 125 s \$0-beats;
#X obj 749 -51 route arm play timebase edge tempo beats randomize clear
;
#X obj 1038 -20 s \$0-clear;
#X obj 1206 123 r \$0-clear;
#X obj 1208 162 \$0;
#X msg 1209 192 \; \$1-sampler const 0;
#X obj 508 -24 t b b b;
#X obj 600 94 s \$0-clear;
#X obj 564 67 t b b;
#X obj 612 11 print armed;
#X floatatom 156 428 5 0 0 0 - - -;
#X obj 976 -10 bng 15 250 50 0 empty empty empty 17 7 0 10 -262144
-1 -1;
#X msg 271 782 set 0;
#X msg 251 805 addcomma;
#X obj 232 327 t f f;
#X obj 236 638 int;
#X obj 282 641 int;
#X obj 282 669 t b f;
#X obj 263 421 t f f;
#X obj 235 754 t a b b;
#X floatatom 177 334 5 0 0 0 - - -;
#N canvas 104 85 829 687 tempo 0;
#X obj 370 13 r \$0-tempo;
#X obj 371 38 swap 60000;
#X obj 372 66 /;
#X msg 455 3 120;
#X floatatom 396 -38 5 0 0 0 - - -;
#X floatatom 267 652 5 0 0 0 - - -;
#X obj 456 -30 loadbang;
#X obj 288 289 outlet;
#X obj 391 183 * 1;
#X obj 412 112 r \$0-beats;
#X obj 413 153 t b f;
#X floatatom 500 130 5 0 0 0 - - -;
#X floatatom 457 178 5 0 0 0 - - -;
#X floatatom 451 75 5 0 0 0 - - -;
#X obj 381 122 f;
#X obj 286 255 f;
#X obj 270 -13 inlet;
#X obj 269 14 t b;
#X connect 0 0 1 0;
#X connect 0 0 13 0;
#X connect 1 0 2 0;
#X connect 1 1 2 1;
#X connect 2 0 14 1;
#X connect 2 0 14 0;
#X connect 3 0 1 0;
#X connect 6 0 3 0;
#X connect 8 0 15 1;
#X connect 8 0 15 0;
#X connect 9 0 10 0;
#X connect 9 0 12 0;
#X connect 10 0 14 0;
#X connect 10 1 8 1;
#X connect 11 0 10 0;
#X connect 14 0 8 0;
#X connect 15 0 7 0;
#X connect 16 0 17 0;
#X connect 17 0 15 0;
#X restore 262 385 pd tempo;
#X obj 404 -21 mm_edge2~ 35 20;
#X obj 1215 17 table \$0-sampler 176400;
#X obj 665 212 samplerate~;
#X msg 654 185 176400;
#X obj 645 234 /;
#X obj 644 257 * 1000;
#X obj 599 277 del;
#X obj 615 157 t b b b b;
#X obj 401 227 t b b b;
#X msg 596 304 stop;
#X obj 559 327 spigot;
#X msg 613 189 1;
#X msg 458 265 0;
#X msg 563 710 set;
#X msg 498 778 add2 0 30 \$1;
#X msg 520 754 add2 1 30;
#X obj 499 723 - 30;
#X obj 998 31 + 1;
#X obj 997 7 random 4;
#X connect 1 0 3 0;
#X connect 1 0 47 0;
#X connect 1 0 49 0;
#X connect 1 1 48 0;
#X connect 1 1 62 0;
#X connect 4 0 5 0;
#X connect 5 0 68 0;
#X connect 5 0 74 0;
#X connect 6 0 1 0;
#X connect 7 0 60 0;
#X connect 7 0 63 0;
#X connect 9 0 11 0;
#X connect 9 1 10 0;
#X connect 10 0 12 1;
#X connect 11 0 12 0;
#X connect 12 0 69 0;
#X connect 13 0 0 0;
#X connect 13 0 76 0;
#X connect 14 0 55 0;
#X connect 15 0 30 0;
#X connect 17 0 15 0;
#X connect 18 0 0 0;
#X connect 19 0 84 0;
#X connect 20 0 0 0;
#X connect 21 0 22 0;
#X connect 23 0 17 0;
#X connect 24 0 5 1;
#X connect 25 0 23 0;
#X connect 26 0 38 0;
#X connect 28 0 29 0;
#X connect 29 0 73 0;
#X connect 30 0 16 0;
#X connect 31 0 37 1;
#X connect 31 0 37 0;
#X connect 33 0 31 0;
#X connect 34 0 33 0;
#X connect 35 0 36 0;
#X connect 36 0 92 0;
#X connect 36 1 34 0;
#X connect 36 2 91 0;
#X connect 36 3 89 0;
#X connect 37 0 30 1;
#X connect 38 0 23 0;
#X connect 38 1 33 0;
#X connect 39 0 55 0;
#X connect 42 0 76 1;
#X connect 44 0 43 0;
#X connect 45 0 6 1;
#X connect 46 0 76 1;
#X connect 47 0 6 1;
#X connect 50 0 55 0;
#X connect 55 0 8 0;
#X connect 55 1 27 0;
#X connect 55 2 40 0;
#X connect 55 3 41 0;
#X connect 55 4 52 0;
#X connect 55 5 54 0;
#X connect 55 6 94 0;
#X connect 55 7 56 0;
#X connect 57 0 58 0;
#X connect 58 0 59 0;
#X connect 60 0 45 0;
#X connect 60 1 46 0;
#X connect 62 0 2 0;
#X connect 62 0 83 0;
#X connect 62 1 61 0;
#X connect 65 0 94 0;
#X connect 66 0 23 0;
#X connect 67 0 23 0;
#X connect 68 0 9 0;
#X connect 68 1 75 0;
#X connect 69 0 28 0;
#X connect 70 0 71 0;
#X connect 71 0 28 0;
#X connect 71 1 28 1;
#X connect 72 0 70 0;
#X connect 72 1 32 0;
#X connect 73 0 23 0;
#X connect 73 1 67 0;
#X connect 73 2 66 0;
#X connect 75 0 72 0;
#X connect 76 0 6 0;
#X connect 76 0 51 0;
#X connect 78 0 80 1;
#X connect 79 0 80 0;
#X connect 80 0 81 0;
#X connect 81 0 82 1;
#X connect 82 0 85 0;
#X connect 83 0 87 0;
#X connect 83 1 82 0;
#X connect 83 2 79 0;
#X connect 83 3 78 0;
#X connect 84 0 21 0;
#X connect 84 1 20 0;
#X connect 84 2 88 0;
#X connect 85 0 86 0;
#X connect 86 0 0 0;
#X connect 87 0 86 1;
#X connect 88 0 86 1;
#X connect 89 0 33 0;
#X connect 90 0 33 0;
#X connect 91 0 33 0;
#X connect 92 0 90 0;
#X connect 93 0 54 0;
#X connect 94 0 93 0;
