#N canvas 117 72 1440 752 10;
#X obj 1215 17 table \$0-sampler 88200;
#X obj 347 333 tabwrite~ \$0-sampler;
#X obj 405 66 sel 0 1;
#X obj 425 92 s \$0-startSampling;
#X obj 406 115 s \$0-stopSampling;
#X obj 404 40 spigot;
#X obj 508 -46 r \$0-arm;
#X obj 750 -23 s \$0-arm;
#X obj 348 -99 inlet~;
#X obj 751 -76 inlet;
#X obj 390 172 r \$0-startSampling;
#X obj 400 203 r \$0-stopSampling;
#X obj 401 227 t b b;
#X msg 427 249 stop;
#X obj 473 247 \$0;
#X msg 473 269 \; \$1-sampler normalize 1;
#X obj 790 7 s \$0-play;
#X obj 578 -39 loadbang;
#X msg 851 -73 play;
#X obj 829 38 s \$0-timebase;
#X obj 868 68 s \$0-edge;
#X obj 484 -83 r \$0-edge;
#X obj 927 1123 outlet;
#X obj 927 1069 r \$0-stopSampling;
#X msg 506 7 1;
#X obj 508 -24 t b b;
#X msg 538 5 reset;
#X msg 451 39 0;
#X obj 404 -42 mm_edge~ 80 60;
#X obj 431 146 bng 15 250 50 0 empty empty empty 17 7 0 10 -262144
-1 -1;
#X obj 399 146 bng 15 250 50 0 empty empty empty 17 7 0 10 -262144
-1 -1;
#X msg 894 -77 arm;
#X floatatom 361 2 5 0 0 0 - - -;
#X obj 905 103 s \$0-tempo;
#N canvas 324 22 684 631 tempo 0;
#X obj 370 13 r \$0-tempo;
#X obj 371 38 swap 60000;
#X obj 371 63 /;
#X obj 365 233 /;
#X msg 455 3 120;
#X obj 365 256 + 0.5;
#X obj 364 279 int;
#X floatatom 378 302 5 0 0 0 - - -;
#X obj 390 208 t f f;
#X obj 364 302 *;
#X floatatom 364 327 5 0 0 0 - - -;
#X obj 339 353 /;
#X obj 294 155 t f f f;
#X floatatom 396 -38 5 0 0 0 - - -;
#X obj 338 376 swap 1;
#X obj 339 401 /;
#X obj 314 430 *;
#X floatatom 309 460 5 0 0 0 - - -;
#X obj 456 -30 loadbang;
#X obj 293 92 inlet;
#X obj 313 493 outlet;
#X obj 391 183 * 1;
#X obj 416 129 r \$0-beats;
#X connect 0 0 1 0;
#X connect 1 0 2 0;
#X connect 1 1 2 1;
#X connect 2 0 21 0;
#X connect 3 0 5 0;
#X connect 4 0 1 0;
#X connect 5 0 6 0;
#X connect 6 0 7 0;
#X connect 6 0 9 0;
#X connect 8 0 3 1;
#X connect 8 1 9 1;
#X connect 9 0 10 0;
#X connect 9 0 11 1;
#X connect 11 0 14 0;
#X connect 12 0 16 0;
#X connect 12 1 11 0;
#X connect 12 2 3 0;
#X connect 14 0 15 0;
#X connect 14 1 15 1;
#X connect 15 0 16 1;
#X connect 16 0 17 0;
#X connect 16 0 20 0;
#X connect 18 0 4 0;
#X connect 19 0 12 0;
#X connect 21 0 8 0;
#X connect 22 0 21 1;
#X restore 502 610 pd tempo;
#X obj 943 65 s \$0-beats;
#X obj 749 -51 route arm play timebase edge tempo beats randomize;
#X obj 987 17 random 4;
#X obj 985 37 + 1;
#X obj 490 951 tabread4~ \$0-sampler;
#X obj 486 1146 outlet~;
#X obj 490 928 vline~;
#X msg 489 900 0 \, 185.76 504.202;
#X obj 435 859 bng 15 250 50 0 empty empty empty 17 7 0 10 -262144
-1 -1;
#X msg 521 694 set 0;
#X msg 506 726 addcomma;
#X obj 516 775 r \$0-play;
#X msg 365 761 add2 \$1 \$2;
#X obj 486 1093 *~;
#X obj 541 1044 vline~;
#X msg 629 950 0 30 \, 1 30 30 \, 0 30 414.202;
#X msg 686 873 addcomma;
#X obj 635 769 r \$0-duration;
#X obj 636 816 t f b b b b;
#X obj 534 1069 *~;
#X obj 515 830 t b b;
#N canvas 324 22 684 631 tempo 0;
#X obj 348 100 swap 60000;
#X obj 348 125 /;
#X obj 344 318 swap 1;
#X obj 345 343 /;
#X obj 320 372 *;
#X obj 293 13 inlet;
#X obj 349 462 outlet;
#X obj 293 36 unpack f f f;
#X obj 348 154 *;
#X obj 294 155 t f f b;
#X obj 337 189 samplerate~;
#X obj 316 214 /;
#X obj 316 235 * 0.001;
#X obj 317 261 t f f;
#X obj 344 285 /;
#X obj 321 403 t f f;
#X obj 274 433 pack f f;
#X obj 274 464 outlet;
#X connect 0 0 1 0;
#X connect 0 1 1 1;
#X connect 1 0 8 0;
#X connect 2 0 3 0;
#X connect 2 1 3 1;
#X connect 3 0 4 1;
#X connect 4 0 15 0;
#X connect 5 0 7 0;
#X connect 7 0 9 0;
#X connect 7 1 0 0;
#X connect 7 2 8 1;
#X connect 8 0 14 1;
#X connect 9 0 16 0;
#X connect 9 1 11 0;
#X connect 9 2 10 0;
#X connect 10 0 11 1;
#X connect 11 0 12 0;
#X connect 12 0 13 0;
#X connect 13 0 4 0;
#X connect 13 1 14 0;
#X connect 14 0 2 0;
#X connect 15 0 16 1;
#X connect 15 1 6 0;
#X connect 16 0 17 0;
#X restore 362 646 pd tempo;
#X obj 415 728 s \$0-duration;
#X obj 380 488 r \$0-tempo;
#X obj 380 520 t b f;
#X obj 489 665 t b b;
#X obj 363 614 t a b;
#X obj 362 587 pack f f f;
#X obj 449 487 r \$0-beats;
#X obj 448 519 t b f;
#X obj 719 1090 del;
#X obj 735 1046 r \$0-duration;
#X obj 720 979 r \$0-play;
#X obj 721 1116 outlet;
#X obj 723 1017 t b;
#X obj 580 805 bng 15 250 50 0 empty empty empty 17 7 0 10 -262144
-1 -1;
#X msg 632 921 add2 0 30 \$1;
#X obj 349 406 r \$0-startSampling;
#X obj 355 460 timer;
#X obj 473 408 r \$0-stopSampling;
#X msg 1066 9 1;
#X obj 1065 -20 loadbang;
#X msg 720 845 set 0 30;
#X msg 656 896 add2 1 30 30;
#X obj 636 867 - 90;
#X obj 488 1116 hip~ 10;
#X connect 2 0 4 0;
#X connect 2 0 27 0;
#X connect 2 0 30 0;
#X connect 2 1 3 0;
#X connect 2 1 29 0;
#X connect 5 0 2 0;
#X connect 6 0 25 0;
#X connect 8 0 1 0;
#X connect 8 0 28 0;
#X connect 9 0 36 0;
#X connect 10 0 1 0;
#X connect 11 0 12 0;
#X connect 12 0 14 0;
#X connect 12 1 13 0;
#X connect 13 0 1 0;
#X connect 14 0 15 0;
#X connect 18 0 36 0;
#X connect 21 0 28 1;
#X connect 23 0 22 0;
#X connect 24 0 5 1;
#X connect 25 0 24 0;
#X connect 25 1 26 0;
#X connect 26 0 28 1;
#X connect 27 0 5 1;
#X connect 28 0 5 0;
#X connect 28 0 32 0;
#X connect 31 0 36 0;
#X connect 36 0 7 0;
#X connect 36 1 16 0;
#X connect 36 2 19 0;
#X connect 36 3 20 0;
#X connect 36 4 33 0;
#X connect 36 5 35 0;
#X connect 36 6 37 0;
#X connect 37 0 38 0;
#X connect 38 0 35 0;
#X connect 39 0 48 0;
#X connect 41 0 39 0;
#X connect 42 0 41 0;
#X connect 43 0 42 0;
#X connect 44 0 42 0;
#X connect 45 0 42 0;
#X connect 46 0 55 0;
#X connect 47 0 42 0;
#X connect 48 0 80 0;
#X connect 49 0 54 1;
#X connect 49 0 54 0;
#X connect 50 0 49 0;
#X connect 51 0 50 0;
#X connect 52 0 53 0;
#X connect 53 0 79 0;
#X connect 53 1 51 0;
#X connect 53 2 78 0;
#X connect 53 3 51 0;
#X connect 53 4 77 0;
#X connect 54 0 48 1;
#X connect 55 0 42 0;
#X connect 55 1 50 0;
#X connect 56 0 47 0;
#X connect 56 1 57 0;
#X connect 58 0 59 0;
#X connect 59 0 62 0;
#X connect 59 1 62 1;
#X connect 60 0 45 0;
#X connect 60 1 44 0;
#X connect 61 0 56 0;
#X connect 61 1 60 0;
#X connect 62 0 61 0;
#X connect 63 0 64 0;
#X connect 64 0 62 0;
#X connect 64 1 62 2;
#X connect 65 0 68 0;
#X connect 66 0 65 1;
#X connect 67 0 69 0;
#X connect 69 0 65 0;
#X connect 70 0 55 0;
#X connect 71 0 50 0;
#X connect 72 0 73 0;
#X connect 73 0 62 0;
#X connect 74 0 73 1;
#X connect 75 0 35 0;
#X connect 76 0 75 0;
#X connect 77 0 50 0;
#X connect 78 0 50 0;
#X connect 79 0 71 0;
#X connect 80 0 40 0;
