#N canvas 229 22 1440 744 10;
#X obj 93 33 inlet~;
#X obj 92 65 s~ \$0-theInput;
#X obj 90 133 r~ \$0-theInput;
#X obj 167 431 sel 1;
#X obj 202 33 inlet;
#X obj 201 81 s \$0-init;
#X obj 165 168 r \$0-init;
#X msg 165 192 arm;
#X obj 250 103 s \$0-play;
#X obj 202 199 r \$0-play;
#X obj 202 224 sel 0;
#X msg 201 245 play;
#X obj 188 563 r~ \$0-theInput;
#X obj 264 733 sel 1;
#X msg 281 487 arm;
#X obj 290 529 r \$0-play;
#X msg 288 576 play;
#X obj 291 553 sel 1;
#X obj 151 968 outlet~;
#X msg 166 459 0;
#X obj 167 490 print arrayFull;
#X obj 264 803 print arrayFull;
#X msg 263 772 1;
#X obj 202 58 route init play threshold;
#X obj 297 155 s \$0-theshold;
#X msg 297 126 threshold \$1;
#X obj 197 266 r \$0-theshold;
#X obj 293 507 r \$0-theshold;
#X obj 281 463 del 1000;
#X obj 93 367 birdPan~;
#X obj 93 411 throw~ \$0-theOutputL;
#X obj 141 894 catch~ \$0-theOutputL;
#X obj 148 386 throw~ \$0-theOutputR;
#X obj 203 924 catch~ \$0-theOutputR;
#X obj 206 968 outlet~;
#X obj 190 672 birdPan~;
#X obj 185 717 throw~ \$0-theOutputL;
#X obj 233 697 throw~ \$0-theOutputR;
#X msg 138 343 randomize;
#X msg 275 616 randomize;
#X obj 91 276 birdSampler2~;
#X obj 145 459 bng 15 250 50 0 empty empty empty 17 7 0 10 -262144
-1 -1;
#X obj 245 757 bng 15 250 50 0 empty empty empty 17 7 0 10 -262144
-1 -1;
#X obj 196 461 bng 15 250 50 0 empty empty empty 17 7 0 10 -262144
-1 -1;
#X obj 297 757 bng 15 250 50 0 empty empty empty 17 7 0 10 -262144
-1 -1;
#X obj 187 644 birdFilter~ 500 1000 7500 4500;
#X obj 189 584 birdSampler2~;
#X obj 91 309 birdFilter~ 250 2500 7500 4500;
#X connect 0 0 1 0;
#X connect 2 0 40 0;
#X connect 3 0 19 0;
#X connect 3 0 28 0;
#X connect 3 0 41 0;
#X connect 3 1 43 0;
#X connect 4 0 23 0;
#X connect 6 0 7 0;
#X connect 7 0 40 1;
#X connect 9 0 10 0;
#X connect 10 0 11 0;
#X connect 10 0 38 0;
#X connect 11 0 40 1;
#X connect 12 0 46 0;
#X connect 13 0 22 0;
#X connect 13 0 42 0;
#X connect 13 1 44 0;
#X connect 14 0 46 1;
#X connect 15 0 17 0;
#X connect 16 0 46 1;
#X connect 17 0 16 0;
#X connect 17 0 35 1;
#X connect 17 0 39 0;
#X connect 19 0 20 0;
#X connect 22 0 21 0;
#X connect 23 0 5 0;
#X connect 23 1 8 0;
#X connect 23 2 25 0;
#X connect 25 0 24 0;
#X connect 26 0 40 1;
#X connect 27 0 46 1;
#X connect 28 0 14 0;
#X connect 29 0 30 0;
#X connect 29 1 32 0;
#X connect 31 0 18 0;
#X connect 33 0 34 0;
#X connect 35 0 36 0;
#X connect 35 1 37 0;
#X connect 38 0 29 1;
#X connect 39 0 35 1;
#X connect 40 0 47 0;
#X connect 40 1 3 0;
#X connect 45 0 35 0;
#X connect 46 0 45 0;
#X connect 46 1 13 0;
#X connect 47 0 29 0;
