#N canvas 312 61 855 576 10;
#X obj 32 40 adc~;
#X obj 253 305 birdOut~;
#X obj 207 438 writesf~ 2;
#X obj 318 196 metroClick~;
#X obj 318 140 f;
#X obj 347 139 + 1;
#X obj 319 169 t f f f;
#X obj 338 223 == 4;
#X obj 338 253 sel 1;
#X obj 377 254 sel 1;
#X msg 339 276 start;
#X msg 405 295 stop;
#X obj 378 274 t b b;
#X msg 327 78 0;
#X msg 317 9 1;
#X obj 317 109 metro 1000;
#X msg 355 61 0;
#X obj 316 38 t f b;
#X msg 455 295 play;
#X floatatom 418 368 5 0 0 0 - - -;
#X obj 233 145 osc~;
#X obj 234 121 mtof;
#X obj 231 172 *~ 0.33;
#X msg 234 84 60;
#X obj 35 95 *~ 1;
#X obj 338 492 pitcher2~ 60;
#X msg 406 460 target \$1;
#X obj 477 385 f;
#X obj 506 384 + 1;
#X obj 476 354 metro 1000;
#X msg 475 323 1;
#X floatatom 406 440 5 0 0 0 - - -;
#X obj 398 532 pitcher2~ 60;
#X msg 466 500 target \$1;
#X floatatom 466 480 5 0 0 0 - - -;
#X obj 375 223 == 8;
#X msg 521 293 write ah_60_4_60.wav;
#X obj 325 338 birdSampler4~ 4;
#X connect 0 0 24 0;
#X connect 0 1 24 0;
#X connect 3 0 1 0;
#X connect 3 0 1 1;
#X connect 4 0 5 0;
#X connect 4 0 6 0;
#X connect 5 0 4 1;
#X connect 6 0 3 0;
#X connect 6 1 7 0;
#X connect 6 2 35 0;
#X connect 7 0 8 0;
#X connect 8 0 10 0;
#X connect 9 0 12 0;
#X connect 10 0 37 1;
#X connect 11 0 37 1;
#X connect 12 0 13 0;
#X connect 12 1 11 0;
#X connect 13 0 15 0;
#X connect 13 0 21 0;
#X connect 14 0 17 0;
#X connect 15 0 4 0;
#X connect 16 0 4 1;
#X connect 17 0 15 0;
#X connect 17 1 16 0;
#X connect 17 1 23 0;
#X connect 18 0 37 1;
#X connect 20 0 22 0;
#X connect 21 0 20 0;
#X connect 22 0 1 1;
#X connect 22 0 1 0;
#X connect 23 0 21 0;
#X connect 24 0 1 1;
#X connect 24 0 1 0;
#X connect 24 0 37 0;
#X connect 25 0 1 1;
#X connect 25 0 1 0;
#X connect 26 0 25 1;
#X connect 27 0 28 0;
#X connect 28 0 27 1;
#X connect 29 0 27 0;
#X connect 31 0 26 0;
#X connect 32 0 1 1;
#X connect 32 0 1 0;
#X connect 33 0 32 1;
#X connect 34 0 33 0;
#X connect 35 0 9 0;
#X connect 36 0 37 1;
#X connect 37 0 25 0;
#X connect 37 0 1 1;
#X connect 37 0 1 0;
#X connect 37 0 32 0;
#X connect 37 1 19 0;
