#N canvas 429 267 623 492 10;
#X obj 136 100 inlet;
#X obj 135 154 unpack f f;
#X obj 135 179 mtof;
#X obj 136 308 phasor~;
#X obj 136 334 expr~ if($v1>0.5 \, 1 \, -1);
#X obj 135 386 *~;
#X obj 192 244 / 127;
#X obj 165 364 lop~ 20;
#X obj 135 413 outlet~;
#X obj 135 224 list trim;
#X obj 240 98 inlet;
#X obj 240 126 route gliss;
#X obj 136 265 vline~;
#X obj 236 150 *;
#X obj 221 178 * 350;
#X obj 135 201 list append;
#X obj 292 40 loadbang;
#X obj 190 273 * 0.33;
#X msg 288 100 gliss 0.75;
#X connect 0 0 1 0;
#X connect 1 0 2 0;
#X connect 1 1 6 0;
#X connect 2 0 15 0;
#X connect 3 0 4 0;
#X connect 4 0 5 0;
#X connect 5 0 8 0;
#X connect 6 0 17 0;
#X connect 7 0 5 1;
#X connect 9 0 12 0;
#X connect 10 0 11 0;
#X connect 11 0 13 1;
#X connect 11 0 13 0;
#X connect 12 0 3 0;
#X connect 13 0 14 0;
#X connect 14 0 15 1;
#X connect 15 0 9 0;
#X connect 16 0 18 0;
#X connect 17 0 7 0;
#X connect 18 0 11 0;
