#N canvas 0 22 604 384 10;
#X obj 72 45 inlet~;
#X obj 133 91 bp~ \$1 5;
#X obj 143 120 bp~ \$2 5;
#X obj 162 145 bp~ \$3 5;
#X obj 172 174 bp~ \$4 5;
#X obj 152 222 outlet~;
#X connect 0 0 1 0;
#X connect 0 0 2 0;
#X connect 0 0 3 0;
#X connect 0 0 4 0;
#X connect 1 0 5 0;
#X connect 2 0 5 0;
#X connect 3 0 5 0;
#X connect 4 0 5 0;
