#N canvas 0 22 891 596 10;
#X msg 515 282;
#X msg 513 204 add2 \$1;
#X floatatom 515 168 5 0 0 0 - - -;
#X obj 542 334 list-len;
#X floatatom 513 384 5 0 0 0 - - -;
#X obj 511 228 t b a;
#X obj 550 358 -;
#X floatatom 625 331 5 0 0 0 - - -;
#X floatatom 717 381 5 0 0 0 - - -;
#X obj 513 388 list split;
#X obj 514 311 t a a;
#X obj 577 465 list prepend set;
#X obj 577 484 list trim;
#X obj 632 287 \$1;
#X obj 631 250 loadbang;
#X obj 512 131 inlet;
#X obj 543 422 t a a;
#X obj 514 516 outlet;
#X obj 679 141 inlet;
#X obj 681 168 t b;
#X msg 681 193 set;
#X connect 0 0 10 0;
#X connect 1 0 5 0;
#X connect 2 0 1 0;
#X connect 3 0 4 0;
#X connect 3 0 6 0;
#X connect 5 0 0 0;
#X connect 5 1 0 0;
#X connect 6 0 8 0;
#X connect 6 0 9 1;
#X connect 7 0 6 1;
#X connect 9 1 16 0;
#X connect 10 0 9 0;
#X connect 10 1 3 0;
#X connect 11 0 12 0;
#X connect 12 0 0 0;
#X connect 13 0 6 1;
#X connect 14 0 13 0;
#X connect 15 0 2 0;
#X connect 16 0 17 0;
#X connect 16 1 11 0;
#X connect 18 0 19 0;
#X connect 19 0 20 0;
#X connect 20 0 5 0;
