#N canvas 0 22 1165 722 10;
#X obj 26 -45 inlet~;
#X obj 37 373 outlet~;
#X obj 347 -92 inlet;
#N canvas 0 22 1440 809 guts 0;
#X obj 554 114 inlet~;
#X obj 578 725 outlet~;
#X obj 639 357 biquad~;
#X obj 630 585 biquad~;
#N canvas 22 22 1124 699 hi 0;
#N canvas 0 22 786 513 b0 0;
#X obj 101 245 outlet;
#X obj 424 96 r \$0-Q;
#X obj 320 95 r \$0-alpha;
#X obj 69 92 r \$0-w;
#X obj 232 94 r \$0-wsin;
#X msg 131 136 1 \$1;
#X obj 131 159 -;
#X obj 131 182 * 0.5;
#X obj 131 94 r \$0-wcos;
#X connect 5 0 6 0;
#X connect 6 0 7 0;
#X connect 7 0 0 0;
#X connect 8 0 5 0;
#X restore 177 574 pd b0;
#N canvas 0 22 786 513 b1 0;
#X obj 101 245 outlet;
#X obj 424 96 r \$0-Q;
#X obj 320 95 r \$0-alpha;
#X obj 69 92 r \$0-w;
#X obj 232 94 r \$0-wsin;
#X msg 131 136 1 \$1;
#X obj 131 159 -;
#X obj 131 94 r \$0-wcos;
#X connect 5 0 6 0;
#X connect 6 0 0 0;
#X connect 7 0 5 0;
#X restore 197 603 pd b1;
#N canvas 0 22 786 513 b2 0;
#X obj 101 245 outlet;
#X obj 424 96 r \$0-Q;
#X obj 320 95 r \$0-alpha;
#X obj 69 92 r \$0-w;
#X obj 232 94 r \$0-wsin;
#X msg 131 136 1 \$1;
#X obj 131 159 -;
#X obj 131 182 * 0.5;
#X obj 131 94 r \$0-wcos;
#X connect 5 0 6 0;
#X connect 6 0 7 0;
#X connect 7 0 0 0;
#X connect 8 0 5 0;
#X restore 218 627 pd b2;
#N canvas 236 89 786 513 a0 0;
#X obj 219 280 outlet;
#X obj 424 96 r \$0-Q;
#X obj 320 95 r \$0-alpha;
#X obj 69 92 r \$0-w;
#X obj 232 94 r \$0-wsin;
#X obj 320 138 + 1;
#X obj 131 94 r \$0-wcos;
#X connect 2 0 5 0;
#X connect 5 0 0 0;
#X restore 115 507 pd a0;
#N canvas 0 22 786 513 a1 0;
#X obj 101 245 outlet;
#X obj 424 96 r \$0-Q;
#X obj 320 95 r \$0-alpha;
#X obj 69 92 r \$0-w;
#X obj 232 94 r \$0-wsin;
#X obj 131 128 * -2;
#X obj 131 94 r \$0-wcos;
#X connect 5 0 0 0;
#X connect 6 0 5 0;
#X restore 136 528 pd a1;
#N canvas 0 22 786 513 a2 0;
#X obj 101 245 outlet;
#X obj 424 96 r \$0-Q;
#X obj 320 95 r \$0-alpha;
#X obj 69 92 r \$0-w;
#X obj 232 94 r \$0-wsin;
#X msg 320 140 1 \$1;
#X obj 320 164 -;
#X obj 131 94 r \$0-wcos;
#X connect 2 0 5 0;
#X connect 5 0 6 0;
#X connect 6 0 0 0;
#X restore 156 549 pd a2;
#N canvas 0 22 1060 735 biquad6 0;
#X obj 351 302 pack 0 0 0 0 0;
#X msg 351 327 fb1 fb2 ff1 ff2 ff3;
#X msg 625 327 p p z z z;
#X text 561 430 H = -----------------------------;
#X text 590 414 ff1 + ff2*z^(-1) + ff3*z^(-2);
#X text 591 450 1 - fb1*z^(-1) - fb2*z^(-2);
#X text 560 488 Audio-Cookbook:;
#X text 592 557 1 + (-a1/a0)*z^(-1) + (-a2/a0)*z^(-2);
#X text 562 537 H = -----------------------------------------;
#X obj 333 103 inlet;
#X obj 390 103 inlet;
#X obj 449 103 inlet;
#X obj 511 103 inlet;
#X obj 572 103 inlet;
#X obj 630 103 inlet;
#X text 333 80 a0;
#X text 390 80 a1;
#X text 449 80 a2;
#X text 511 80 b0;
#X text 572 80 b1;
#X text 630 80 b2;
#X text 591 524 (b0/a0) + (b1/a0)*z^(-1) + (b2/a0)*z^(-2);
#N canvas 0 22 450 300 /a0 0;
#X obj 88 49 inlet;
#X obj 88 164 outlet;
#X obj 88 137 / 1;
#X obj 127 69 inlet;
#X obj 88 106 swap 1;
#X connect 0 0 4 0;
#X connect 2 0 1 0;
#X connect 3 0 4 1;
#X connect 4 0 2 0;
#X connect 4 1 2 1;
#X restore 591 206 pd /a0;
#X obj 116 107 inlet;
#X obj 116 226 list;
#X obj 141 259 print biquad;
#X obj 116 201 b;
#X obj 116 289 outlet;
#X obj 116 154 route print bang;
#X obj 315 157 f;
#N canvas 0 22 450 300 /a0 0;
#X obj 88 49 inlet;
#X obj 88 164 outlet;
#X obj 88 137 / 1;
#X obj 127 69 inlet;
#X obj 88 106 swap 1;
#X connect 0 0 4 0;
#X connect 2 0 1 0;
#X connect 3 0 4 1;
#X connect 4 0 2 0;
#X connect 4 1 2 1;
#X restore 472 206 pd /a0;
#N canvas 0 22 450 300 /a0 0;
#X obj 88 49 inlet;
#X obj 88 164 outlet;
#X obj 88 137 / 1;
#X obj 127 69 inlet;
#X obj 88 106 swap 1;
#X connect 0 0 4 0;
#X connect 2 0 1 0;
#X connect 3 0 4 1;
#X connect 4 0 2 0;
#X connect 4 1 2 1;
#X restore 533 206 pd /a0;
#N canvas 0 22 450 300 /a0 0;
#X obj 88 49 inlet;
#X obj 88 164 outlet;
#X obj 88 137 / 1;
#X obj 127 69 inlet;
#X obj 88 106 swap 1;
#X connect 0 0 4 0;
#X connect 2 0 1 0;
#X connect 3 0 4 1;
#X connect 4 0 2 0;
#X connect 4 1 2 1;
#X restore 410 206 pd /a0;
#N canvas 0 22 450 300 /a0 0;
#X obj 88 49 inlet;
#X obj 88 164 outlet;
#X obj 88 137 / 1;
#X obj 127 69 inlet;
#X obj 88 106 swap 1;
#X connect 0 0 4 0;
#X connect 2 0 1 0;
#X connect 3 0 4 1;
#X connect 4 0 2 0;
#X connect 4 1 2 1;
#X restore 351 206 pd /a0;
#X obj 351 157 t a a a a a;
#X obj 283 132 t b b;
#X text 329 46 all coefficient inlets are cold inlets. Activate them
with a bang into first inlet.;
#X obj 351 247 * -1;
#X obj 410 247 * -1;
#X connect 0 0 24 1;
#X connect 9 0 29 1;
#X connect 10 0 33 1;
#X connect 11 0 32 1;
#X connect 12 0 30 1;
#X connect 13 0 31 1;
#X connect 14 0 22 1;
#X connect 22 0 0 4;
#X connect 23 0 28 0;
#X connect 24 0 27 0;
#X connect 26 0 24 0;
#X connect 28 0 26 0;
#X connect 28 1 35 0;
#X connect 29 0 34 0;
#X connect 30 0 0 2;
#X connect 31 0 0 3;
#X connect 32 0 38 0;
#X connect 33 0 37 0;
#X connect 34 0 33 0;
#X connect 34 1 32 0;
#X connect 34 2 30 0;
#X connect 34 3 31 0;
#X connect 34 4 22 0;
#X connect 35 0 26 0;
#X connect 35 1 29 0;
#X connect 37 0 0 0;
#X connect 38 0 0 1;
#X restore 95 671 pd biquad6 -------;
#X obj 678 272 hradio 15 1 0 2 empty empty bw/Q 0 -8 1 10 -262144 -1
-1 0;
#X floatatom 504 240 5 0 0 2 BW - -;
#X floatatom 612 266 5 0 0 2 Q - -;
#X floatatom 447 267 5 0 0 0 freq - -;
#X text 727 266 <(default: BW);
#X obj 612 286 t b a;
#X obj 503 259 t b a;
#X obj 678 295 t b a;
#X obj 535 292 * 0.01;
#X obj 447 352 f;
#X obj 95 709 outlet;
#X obj 89 -2 inlet;
#X obj 373 49 loadbang;
#X obj 373 75 t b b b;
#X text 157 144 BW;
#X text 91 -24 freq;
#N canvas 0 22 1185 531 compute-stuff 0;
#X obj 947 343 / 1;
#X obj 965 293 * 2;
#X obj 524 145 s \$0-Q;
#X obj 142 159 s \$0-w;
#X obj 947 386 s \$0-alpha;
#X obj 965 270 r \$0-Q;
#X obj 205 316 s \$0-wsin;
#X obj 947 238 r \$0-wsin;
#X obj 205 294 sin;
#X obj 118 295 cos;
#X obj 118 229 r \$0-w;
#X obj 205 232 r \$0-w;
#X obj 635 150 / 2;
#X obj 617 174 *;
#X obj 617 238 *;
#X obj 647 184 r \$0-w;
#X obj 653 244 r \$0-wsin;
#X obj 617 294 /;
#N canvas 217 313 450 300 sinh 0;
#X obj 88 37 inlet;
#X obj 88 87 t a a;
#X obj 88 223 outlet;
#X obj 120 116 * -1;
#X obj 120 136 exp;
#X obj 88 136 exp;
#X obj 88 174 -;
#X obj 88 199 * 0.5;
#X text 313 133 2;
#X text 272 105 exp(x) - exp(-x);
#X text 223 117 sinh = ----------------;
#X obj 88 64 f;
#X connect 0 0 11 0;
#X connect 1 0 5 0;
#X connect 1 1 3 0;
#X connect 3 0 4 0;
#X connect 4 0 6 1;
#X connect 5 0 6 0;
#X connect 6 0 7 0;
#X connect 7 0 2 0;
#X connect 11 0 1 0;
#X restore 617 335 pd sinh;
#X obj 617 369 *;
#X obj 617 65 r \$0-BW;
#X obj 617 422 s \$0-alpha;
#X obj 947 365 spigot 0;
#X obj 1000 341 tgl 15 0 empty empty empty 17 7 0 10 -262144 -1 -1
0 1;
#X obj 670 374 tgl 15 0 empty empty empty 17 7 0 10 -262144 -1 -1 1
1;
#X obj 635 130 log;
#X msg 635 109 2;
#X obj 635 87 loadbang;
#X obj 439 91 select 0;
#X obj 397 91 moses;
#X obj 273 101 select 0;
#X obj 231 101 moses;
#X obj 492 119 t b a;
#X obj 326 125 t b a;
#X obj 358 147 s \$0-BW;
#X obj 118 317 s \$0-wcos;
#N canvas 0 22 783 567 hz2rad 0;
#X obj 194 113 samplerate~;
#X obj 194 71 loadbang;
#X obj 194 185 atan;
#X msg 194 160 1;
#X text 382 53 w = 2 * pi * f / SR;
#X obj 194 207 * 8;
#X obj 194 137 t b a;
#X msg 205 90 bang;
#X obj 194 230 / 44100;
#X text 260 232 2 * pi / SR;
#X obj 119 269 *;
#X obj 119 35 inlet;
#X obj 119 298 outlet;
#X text 175 300 w(rad);
#X text 167 35 freq(Hz);
#X obj 285 35 r pd;
#X obj 285 55 route dsp;
#X obj 285 78 select 1;
#X connect 0 0 6 0;
#X connect 1 0 0 0;
#X connect 2 0 5 0;
#X connect 3 0 2 0;
#X connect 5 0 8 0;
#X connect 6 0 3 0;
#X connect 6 1 8 1;
#X connect 7 0 0 0;
#X connect 8 0 10 1;
#X connect 10 0 12 0;
#X connect 11 0 10 0;
#X connect 15 0 16 0;
#X connect 16 0 17 0;
#X connect 17 0 0 0;
#X restore 110 111 pd hz2rad;
#X obj 110 77 inlet;
#X text 108 56 frequency;
#X obj 397 68 inlet;
#X text 396 49 Q;
#X obj 231 78 inlet;
#X text 227 57 BW;
#X obj 786 74 inlet;
#X obj 786 102 select 0 1;
#X obj 786 169 unpack 0 0;
#X msg 786 136 1 0;
#X msg 819 136 0 1;
#X text 785 43 Bandwith or Q;
#X obj 617 398 spigot 1;
#X floatatom 552 459 8 0 0 0 - - -;
#X text 721 452 alpha = sin(w0)*sinh( ln(2)/2 * BW * w0/sin(w0) ) (case:
BW);
#X obj 205 267 spigot 1;
#X obj 110 132 t b a;
#X obj 965 317 t b a;
#X obj 653 267 t b a a;
#X obj 647 204 t b a;
#X obj 118 266 spigot 1;
#X connect 0 0 22 0;
#X connect 1 0 54 0;
#X connect 5 0 1 0;
#X connect 7 0 0 0;
#X connect 8 0 6 0;
#X connect 9 0 35 0;
#X connect 10 0 57 0;
#X connect 11 0 52 0;
#X connect 12 0 13 1;
#X connect 13 0 14 0;
#X connect 14 0 17 0;
#X connect 15 0 56 0;
#X connect 16 0 55 0;
#X connect 17 0 18 0;
#X connect 18 0 19 0;
#X connect 19 0 49 0;
#X connect 20 0 13 0;
#X connect 22 0 4 0;
#X connect 23 0 22 1;
#X connect 24 0 49 1;
#X connect 25 0 12 0;
#X connect 26 0 25 0;
#X connect 27 0 26 0;
#X connect 28 1 32 0;
#X connect 29 1 28 0;
#X connect 30 1 33 0;
#X connect 31 1 30 0;
#X connect 32 1 2 0;
#X connect 33 1 34 0;
#X connect 36 0 53 0;
#X connect 37 0 36 0;
#X connect 39 0 29 0;
#X connect 41 0 31 0;
#X connect 43 0 44 0;
#X connect 44 0 46 0;
#X connect 44 1 47 0;
#X connect 45 0 24 0;
#X connect 45 1 23 0;
#X connect 46 0 45 0;
#X connect 47 0 45 0;
#X connect 49 0 21 0;
#X connect 49 0 50 0;
#X connect 52 0 8 0;
#X connect 53 1 3 0;
#X connect 54 0 0 0;
#X connect 54 1 0 1;
#X connect 55 0 17 0;
#X connect 55 1 17 1;
#X connect 55 2 19 1;
#X connect 56 0 14 0;
#X connect 56 1 14 1;
#X connect 57 0 9 0;
#X restore 447 387 pd compute-stuff;
#X msg 678 227 0;
#X obj 91 315 t b a;
#X obj 157 249 t b a;
#X obj 373 146 f 10000;
#X obj 157 168 r filterHighCutBW;
#X obj 198 194 loadbang;
#X obj 90 148 t f f;
#X obj 91 170 *;
#X msg 198 221 70;
#X obj 405 113 f 70;
#X obj 91 288 + 750;
#X obj 91 253 * 11000;
#N canvas 255 79 450 300 inv 0;
#X obj 91 33 inlet;
#X obj 93 73 swap 1;
#X obj 99 95 -;
#X obj 95 130 outlet;
#X connect 0 0 1 0;
#X connect 1 0 2 0;
#X connect 1 1 2 1;
#X connect 2 0 3 0;
#X restore 88 53 pd inv;
#X msg 177 58 0;
#X connect 0 0 6 4;
#X connect 1 0 6 5;
#X connect 2 0 6 6;
#X connect 3 0 6 1;
#X connect 4 0 6 2;
#X connect 5 0 6 3;
#X connect 6 0 17 0;
#X connect 7 0 14 0;
#X connect 8 0 13 0;
#X connect 9 0 12 0;
#X connect 10 0 16 0;
#X connect 12 0 16 0;
#X connect 12 1 23 2;
#X connect 13 0 16 0;
#X connect 13 1 15 0;
#X connect 14 0 16 0;
#X connect 14 1 23 3;
#X connect 15 0 23 1;
#X connect 16 0 23 0;
#X connect 18 0 36 0;
#X connect 19 0 20 0;
#X connect 20 0 27 0;
#X connect 20 1 33 0;
#X connect 20 2 24 0;
#X connect 24 0 7 0;
#X connect 25 0 6 0;
#X connect 25 1 16 0;
#X connect 26 0 6 0;
#X connect 26 1 13 0;
#X connect 27 0 16 0;
#X connect 28 0 26 0;
#X connect 29 0 32 0;
#X connect 29 0 37 0;
#X connect 30 0 31 0;
#X connect 30 1 31 1;
#X connect 31 0 35 0;
#X connect 32 0 26 0;
#X connect 33 0 13 0;
#X connect 34 0 25 0;
#X connect 35 0 34 0;
#X connect 36 0 30 0;
#X connect 37 0 36 0;
#X restore 641 551 pd hi;
#N canvas 324 124 995 659 lo 0;
#N canvas 0 22 786 513 b0 0;
#X obj 101 245 outlet;
#X obj 424 96 r \$0-Q;
#X obj 320 95 r \$0-alpha;
#X obj 69 92 r \$0-w;
#X obj 232 94 r \$0-wsin;
#X obj 131 182 * 0.5;
#X obj 131 94 r \$0-wcos;
#X obj 131 159 + 1;
#X connect 5 0 0 0;
#X connect 6 0 7 0;
#X connect 7 0 5 0;
#X restore 177 454 pd b0;
#N canvas 0 22 786 513 b1 0;
#X obj 101 245 outlet;
#X obj 424 96 r \$0-Q;
#X obj 320 95 r \$0-alpha;
#X obj 69 92 r \$0-w;
#X obj 232 94 r \$0-wsin;
#X obj 131 94 r \$0-wcos;
#X obj 131 139 + 1;
#X obj 131 159 * -1;
#X connect 5 0 6 0;
#X connect 6 0 7 0;
#X connect 7 0 0 0;
#X restore 197 483 pd b1;
#N canvas 0 22 786 513 b2 0;
#X obj 101 245 outlet;
#X obj 424 96 r \$0-Q;
#X obj 320 95 r \$0-alpha;
#X obj 69 92 r \$0-w;
#X obj 232 94 r \$0-wsin;
#X obj 131 182 * 0.5;
#X obj 131 94 r \$0-wcos;
#X obj 131 159 + 1;
#X connect 5 0 0 0;
#X connect 6 0 7 0;
#X connect 7 0 5 0;
#X restore 218 507 pd b2;
#N canvas 236 89 786 513 a0 0;
#X obj 219 280 outlet;
#X obj 424 96 r \$0-Q;
#X obj 320 95 r \$0-alpha;
#X obj 69 92 r \$0-w;
#X obj 232 94 r \$0-wsin;
#X obj 320 138 + 1;
#X obj 131 94 r \$0-wcos;
#X connect 2 0 5 0;
#X connect 5 0 0 0;
#X restore 115 387 pd a0;
#N canvas 0 22 786 513 a1 0;
#X obj 101 245 outlet;
#X obj 424 96 r \$0-Q;
#X obj 320 95 r \$0-alpha;
#X obj 69 92 r \$0-w;
#X obj 232 94 r \$0-wsin;
#X obj 131 128 * -2;
#X obj 131 94 r \$0-wcos;
#X connect 5 0 0 0;
#X connect 6 0 5 0;
#X restore 136 408 pd a1;
#N canvas 0 22 786 513 a2 0;
#X obj 101 245 outlet;
#X obj 424 96 r \$0-Q;
#X obj 320 95 r \$0-alpha;
#X obj 69 92 r \$0-w;
#X obj 232 94 r \$0-wsin;
#X msg 320 140 1 \$1;
#X obj 320 164 -;
#X obj 131 94 r \$0-wcos;
#X connect 2 0 5 0;
#X connect 5 0 6 0;
#X connect 6 0 0 0;
#X restore 156 429 pd a2;
#N canvas 0 22 1060 735 biquad6 0;
#X obj 351 302 pack 0 0 0 0 0;
#X msg 351 327 fb1 fb2 ff1 ff2 ff3;
#X msg 625 327 p p z z z;
#X text 561 430 H = -----------------------------;
#X text 590 414 ff1 + ff2*z^(-1) + ff3*z^(-2);
#X text 591 450 1 - fb1*z^(-1) - fb2*z^(-2);
#X text 560 488 Audio-Cookbook:;
#X text 592 557 1 + (-a1/a0)*z^(-1) + (-a2/a0)*z^(-2);
#X text 562 537 H = -----------------------------------------;
#X obj 333 103 inlet;
#X obj 390 103 inlet;
#X obj 449 103 inlet;
#X obj 511 103 inlet;
#X obj 572 103 inlet;
#X obj 630 103 inlet;
#X text 333 80 a0;
#X text 390 80 a1;
#X text 449 80 a2;
#X text 511 80 b0;
#X text 572 80 b1;
#X text 630 80 b2;
#X text 591 524 (b0/a0) + (b1/a0)*z^(-1) + (b2/a0)*z^(-2);
#N canvas 0 22 450 300 /a0 0;
#X obj 88 49 inlet;
#X obj 88 164 outlet;
#X obj 88 137 / 1;
#X obj 127 69 inlet;
#X obj 88 106 swap 1;
#X connect 0 0 4 0;
#X connect 2 0 1 0;
#X connect 3 0 4 1;
#X connect 4 0 2 0;
#X connect 4 1 2 1;
#X restore 591 206 pd /a0;
#X obj 116 107 inlet;
#X obj 116 226 list;
#X obj 141 259 print biquad;
#X obj 116 201 b;
#X obj 116 289 outlet;
#X obj 116 154 route print bang;
#X obj 315 157 f;
#N canvas 0 22 450 300 /a0 0;
#X obj 88 49 inlet;
#X obj 88 164 outlet;
#X obj 88 137 / 1;
#X obj 127 69 inlet;
#X obj 88 106 swap 1;
#X connect 0 0 4 0;
#X connect 2 0 1 0;
#X connect 3 0 4 1;
#X connect 4 0 2 0;
#X connect 4 1 2 1;
#X restore 472 206 pd /a0;
#N canvas 0 22 450 300 /a0 0;
#X obj 88 49 inlet;
#X obj 88 164 outlet;
#X obj 88 137 / 1;
#X obj 127 69 inlet;
#X obj 88 106 swap 1;
#X connect 0 0 4 0;
#X connect 2 0 1 0;
#X connect 3 0 4 1;
#X connect 4 0 2 0;
#X connect 4 1 2 1;
#X restore 533 206 pd /a0;
#N canvas 0 22 450 300 /a0 0;
#X obj 88 49 inlet;
#X obj 88 164 outlet;
#X obj 88 137 / 1;
#X obj 127 69 inlet;
#X obj 88 106 swap 1;
#X connect 0 0 4 0;
#X connect 2 0 1 0;
#X connect 3 0 4 1;
#X connect 4 0 2 0;
#X connect 4 1 2 1;
#X restore 410 206 pd /a0;
#N canvas 0 22 450 300 /a0 0;
#X obj 88 49 inlet;
#X obj 88 164 outlet;
#X obj 88 137 / 1;
#X obj 127 69 inlet;
#X obj 88 106 swap 1;
#X connect 0 0 4 0;
#X connect 2 0 1 0;
#X connect 3 0 4 1;
#X connect 4 0 2 0;
#X connect 4 1 2 1;
#X restore 351 206 pd /a0;
#X obj 351 157 t a a a a a;
#X obj 283 132 t b b;
#X text 329 46 all coefficient inlets are cold inlets. Activate them
with a bang into first inlet.;
#X obj 351 247 * -1;
#X obj 410 247 * -1;
#X connect 0 0 24 1;
#X connect 9 0 29 1;
#X connect 10 0 33 1;
#X connect 11 0 32 1;
#X connect 12 0 30 1;
#X connect 13 0 31 1;
#X connect 14 0 22 1;
#X connect 22 0 0 4;
#X connect 23 0 28 0;
#X connect 24 0 27 0;
#X connect 26 0 24 0;
#X connect 28 0 26 0;
#X connect 28 1 35 0;
#X connect 29 0 34 0;
#X connect 30 0 0 2;
#X connect 31 0 0 3;
#X connect 32 0 38 0;
#X connect 33 0 37 0;
#X connect 34 0 33 0;
#X connect 34 1 32 0;
#X connect 34 2 30 0;
#X connect 34 3 31 0;
#X connect 34 4 22 0;
#X connect 35 0 26 0;
#X connect 35 1 29 0;
#X connect 37 0 0 0;
#X connect 38 0 0 1;
#X restore 95 551 pd biquad6 -------;
#X obj 678 272 hradio 15 1 0 2 empty empty bw/Q 0 -8 1 10 -262144 -1
-1 0;
#X floatatom 504 240 5 0 0 2 BW - -;
#X floatatom 612 266 5 0 0 2 Q - -;
#X floatatom 447 267 5 0 0 0 freq - -;
#X text 727 266 <(default: BW);
#X obj 612 286 t b a;
#X obj 503 259 t b a;
#X obj 678 295 t b a;
#X obj 535 292 * 0.01;
#X obj 447 352 f;
#X obj 95 589 outlet;
#X obj 90 -31 inlet;
#X obj 373 49 loadbang;
#X obj 373 75 t b b b;
#X text 162 120 BW;
#X text 88 -59 freq;
#N canvas 0 22 1185 531 compute-stuff 0;
#X obj 947 343 / 1;
#X obj 965 293 * 2;
#X obj 524 145 s \$0-Q;
#X obj 142 159 s \$0-w;
#X obj 947 386 s \$0-alpha;
#X obj 965 270 r \$0-Q;
#X obj 205 316 s \$0-wsin;
#X obj 947 238 r \$0-wsin;
#X obj 205 294 sin;
#X obj 118 295 cos;
#X obj 118 229 r \$0-w;
#X obj 205 232 r \$0-w;
#X obj 635 150 / 2;
#X obj 617 174 *;
#X obj 617 238 *;
#X obj 647 184 r \$0-w;
#X obj 653 244 r \$0-wsin;
#X obj 617 294 /;
#N canvas 217 313 450 300 sinh 0;
#X obj 88 37 inlet;
#X obj 88 87 t a a;
#X obj 88 223 outlet;
#X obj 120 116 * -1;
#X obj 120 136 exp;
#X obj 88 136 exp;
#X obj 88 174 -;
#X obj 88 199 * 0.5;
#X text 313 133 2;
#X text 272 105 exp(x) - exp(-x);
#X text 223 117 sinh = ----------------;
#X obj 88 64 f;
#X connect 0 0 11 0;
#X connect 1 0 5 0;
#X connect 1 1 3 0;
#X connect 3 0 4 0;
#X connect 4 0 6 1;
#X connect 5 0 6 0;
#X connect 6 0 7 0;
#X connect 7 0 2 0;
#X connect 11 0 1 0;
#X restore 617 335 pd sinh;
#X obj 617 369 *;
#X obj 617 65 r \$0-BW;
#X obj 617 422 s \$0-alpha;
#X obj 947 365 spigot 0;
#X obj 1000 341 tgl 15 0 empty empty empty 17 7 0 10 -262144 -1 -1
0 1;
#X obj 670 374 tgl 15 0 empty empty empty 17 7 0 10 -262144 -1 -1 1
1;
#X obj 635 130 log;
#X msg 635 109 2;
#X obj 635 87 loadbang;
#X obj 439 91 select 0;
#X obj 397 91 moses;
#X obj 273 101 select 0;
#X obj 231 101 moses;
#X obj 492 119 t b a;
#X obj 326 125 t b a;
#X obj 358 147 s \$0-BW;
#X obj 118 317 s \$0-wcos;
#N canvas 0 22 783 567 hz2rad 0;
#X obj 194 113 samplerate~;
#X obj 194 71 loadbang;
#X obj 194 185 atan;
#X msg 194 160 1;
#X text 412 62 w = 2 * pi * f / SR;
#X obj 194 207 * 8;
#X obj 194 137 t b a;
#X msg 205 90 bang;
#X obj 194 230 / 44100;
#X text 260 232 2 * pi / SR;
#X obj 119 269 *;
#X obj 119 35 inlet;
#X obj 119 298 outlet;
#X text 175 300 w(rad);
#X text 167 35 freq(Hz);
#X obj 285 35 r pd;
#X obj 285 55 route dsp;
#X obj 285 78 select 1;
#X connect 0 0 6 0;
#X connect 1 0 0 0;
#X connect 2 0 5 0;
#X connect 3 0 2 0;
#X connect 5 0 8 0;
#X connect 6 0 3 0;
#X connect 6 1 8 1;
#X connect 7 0 0 0;
#X connect 8 0 10 1;
#X connect 10 0 12 0;
#X connect 11 0 10 0;
#X connect 15 0 16 0;
#X connect 16 0 17 0;
#X connect 17 0 0 0;
#X restore 110 111 pd hz2rad;
#X obj 110 77 inlet;
#X text 108 56 frequency;
#X obj 397 68 inlet;
#X text 396 49 Q;
#X obj 231 78 inlet;
#X text 227 57 BW;
#X obj 786 74 inlet;
#X obj 786 102 select 0 1;
#X obj 786 169 unpack 0 0;
#X msg 786 136 1 0;
#X msg 819 136 0 1;
#X text 785 43 Bandwith or Q;
#X obj 617 398 spigot 1;
#X floatatom 552 459 8 0 0 0 - - -;
#X text 721 452 alpha = sin(w0)*sinh( ln(2)/2 * BW * w0/sin(w0) ) (case:
BW);
#X obj 205 267 spigot 1;
#X obj 110 132 t b a;
#X obj 965 317 t b a;
#X obj 653 267 t b a a;
#X obj 647 204 t b a;
#X obj 118 266 spigot 1;
#X connect 0 0 22 0;
#X connect 1 0 54 0;
#X connect 5 0 1 0;
#X connect 7 0 0 0;
#X connect 8 0 6 0;
#X connect 9 0 35 0;
#X connect 10 0 57 0;
#X connect 11 0 52 0;
#X connect 12 0 13 1;
#X connect 13 0 14 0;
#X connect 14 0 17 0;
#X connect 15 0 56 0;
#X connect 16 0 55 0;
#X connect 17 0 18 0;
#X connect 18 0 19 0;
#X connect 19 0 49 0;
#X connect 20 0 13 0;
#X connect 22 0 4 0;
#X connect 23 0 22 1;
#X connect 24 0 49 1;
#X connect 25 0 12 0;
#X connect 26 0 25 0;
#X connect 27 0 26 0;
#X connect 28 1 32 0;
#X connect 29 1 28 0;
#X connect 30 1 33 0;
#X connect 31 1 30 0;
#X connect 32 1 2 0;
#X connect 33 1 34 0;
#X connect 36 0 53 0;
#X connect 37 0 36 0;
#X connect 39 0 29 0;
#X connect 41 0 31 0;
#X connect 43 0 44 0;
#X connect 44 0 46 0;
#X connect 44 1 47 0;
#X connect 45 0 24 0;
#X connect 45 1 23 0;
#X connect 46 0 45 0;
#X connect 47 0 45 0;
#X connect 49 0 21 0;
#X connect 49 0 50 0;
#X connect 52 0 8 0;
#X connect 53 1 3 0;
#X connect 54 0 0 0;
#X connect 54 1 0 1;
#X connect 55 0 17 0;
#X connect 55 1 17 1;
#X connect 55 2 19 1;
#X connect 56 0 14 0;
#X connect 56 1 14 1;
#X connect 57 0 9 0;
#X restore 447 387 pd compute-stuff;
#X msg 678 227 0;
#X obj 94 126 t b a;
#X obj 157 129 t b a;
#X obj 373 146 f 1000;
#X obj 91 -8 t f f;
#X obj 91 17 *;
#X obj 176 -4 loadbang;
#X msg 177 22 70;
#X obj 405 113 f 70;
#X obj 93 101 + 50;
#X obj 92 78 * 4950;
#X msg 142 53 0;
#X connect 0 0 6 4;
#X connect 1 0 6 5;
#X connect 2 0 6 6;
#X connect 3 0 6 1;
#X connect 4 0 6 2;
#X connect 5 0 6 3;
#X connect 6 0 17 0;
#X connect 7 0 14 0;
#X connect 8 0 13 0;
#X connect 9 0 12 0;
#X connect 10 0 16 0;
#X connect 12 0 16 0;
#X connect 12 1 23 2;
#X connect 13 0 16 0;
#X connect 13 1 15 0;
#X connect 14 0 16 0;
#X connect 14 1 23 3;
#X connect 15 0 23 1;
#X connect 16 0 23 0;
#X connect 18 0 28 0;
#X connect 19 0 20 0;
#X connect 20 0 27 0;
#X connect 20 1 32 0;
#X connect 20 2 24 0;
#X connect 24 0 7 0;
#X connect 25 0 6 0;
#X connect 25 1 16 0;
#X connect 26 0 6 0;
#X connect 26 1 13 0;
#X connect 27 0 16 0;
#X connect 28 0 29 0;
#X connect 28 1 29 1;
#X connect 29 0 34 0;
#X connect 30 0 31 0;
#X connect 30 0 35 0;
#X connect 31 0 26 0;
#X connect 32 0 13 0;
#X connect 33 0 25 0;
#X connect 34 0 33 0;
#X connect 35 0 28 0;
#X restore 705 323 pd lo;
#X obj 569 325 *~;
#X obj 639 326 *~;
#X obj 655 302 lop~ 1;
#X obj 584 296 lop~ 1;
#X obj 582 253 swap 1;
#X obj 583 273 -;
#X obj 580 198 r \$0-lo-cut-switch;
#X obj 551 522 *~;
#X obj 621 523 *~;
#X obj 637 499 lop~ 1;
#X obj 566 493 lop~ 1;
#X obj 564 450 swap 1;
#X obj 565 470 -;
#X obj 562 420 r \$0-hi-cut-switch;
#X obj 703 300 r \$0-lo-cut-freq;
#X obj 650 525 r \$0-hi-cut-freq;
#X obj 581 395 *~ 1;
#X obj 584 629 *~ 1;
#X connect 0 0 7 0;
#X connect 0 0 6 0;
#X connect 2 0 22 0;
#X connect 3 0 23 0;
#X connect 4 0 3 0;
#X connect 5 0 2 0;
#X connect 6 0 22 0;
#X connect 7 0 2 0;
#X connect 8 0 7 1;
#X connect 9 0 6 1;
#X connect 10 0 11 0;
#X connect 10 1 11 1;
#X connect 11 0 9 0;
#X connect 12 0 10 0;
#X connect 12 0 8 0;
#X connect 13 0 23 0;
#X connect 14 0 3 0;
#X connect 15 0 14 1;
#X connect 16 0 13 1;
#X connect 17 0 18 0;
#X connect 17 1 18 1;
#X connect 18 0 16 0;
#X connect 19 0 17 0;
#X connect 19 0 15 0;
#X connect 20 0 5 0;
#X connect 21 0 4 0;
#X connect 22 0 14 0;
#X connect 22 0 13 0;
#X connect 23 0 1 0;
#X restore 69 159 pd guts;
#X obj 735 483 s \$0-lo-cut-freq;
#X obj 751 310 s \$0-lo-cut-switch;
#X obj 429 489 s \$0-hi-cut-freq;
#X obj 448 305 s \$0-hi-cut-switch;
#X obj 408 234 f 0;
#X obj 422 193 swap 1;
#X obj 423 213 -;
#X msg 447 280 1;
#X obj 429 397 line;
#X obj 493 336 r \$0-time;
#X obj 374 16 s \$0-time;
#X obj 407 160 r \$0-do-hicut;
#X obj 713 154 r \$0-do-locut;
#X obj 712 243 f 0;
#X obj 726 202 swap 1;
#X obj 727 222 -;
#X msg 751 289 1;
#X obj 733 406 line;
#X obj 797 338 r \$0-time;
#X obj 871 310 s \$0-hi-cut-switch;
#X msg 870 276 0;
#X obj 712 266 t f f b b;
#X obj 408 257 t f f b b;
#X obj 566 306 s \$0-lo-cut-switch;
#X msg 566 285 0;
#X obj 344 -45 route randomize seed time;
#X obj 332 47 s \$0-randomize;
#X obj 430 -13 s \$0-seed;
#X obj 800 -80 r \$0-seed;
#X msg 800 -57 seed \$1;
#X obj 798 22 sel 0 1 2;
#X obj 798 -1 random 3;
#X obj 795 50 s \$0-do-locut;
#X obj 803 75 s \$0-do-hicut;
#X obj 813 99 s \$0-do-neither;
#X obj 68 250 *~;
#X obj 2 251 *~;
#X obj 68 184 *~ 1.333;
#X obj 50 45 r \$0-do-neither;
#X obj 102 76 r \$0-do-hicut;
#X obj 157 106 r \$0-do-locut;
#X obj 49 69 t b b;
#X obj 86 224 lop~ 1;
#X obj 21 223 lop~ 1;
#X msg 72 90 0;
#X msg 40 90 1;
#X obj 103 102 t b b;
#X msg 126 123 1;
#X msg 94 123 0;
#X obj 157 132 t b b;
#X msg 180 153 1;
#X msg 150 154 0;
#X obj 428 454 *;
#X obj 734 447 *;
#X obj 575 330 s \$0-lo-cut-freq;
#X obj 890 332 s \$0-hi-cut-freq;
#X obj 428 362 pack f 2000;
#X obj 732 371 pack f 2000;
#X connect 0 0 3 0;
#X connect 0 0 40 0;
#X connect 2 0 29 0;
#X connect 3 0 41 0;
#X connect 8 0 26 0;
#X connect 9 0 10 0;
#X connect 9 1 10 1;
#X connect 10 0 8 1;
#X connect 11 0 7 0;
#X connect 12 0 56 1;
#X connect 12 0 56 0;
#X connect 13 0 60 1;
#X connect 15 0 8 0;
#X connect 16 0 17 0;
#X connect 17 0 25 0;
#X connect 18 0 19 0;
#X connect 18 1 19 1;
#X connect 19 0 17 1;
#X connect 20 0 5 0;
#X connect 21 0 57 1;
#X connect 21 0 57 0;
#X connect 22 0 61 1;
#X connect 24 0 23 0;
#X connect 24 0 59 0;
#X connect 25 0 18 0;
#X connect 25 1 61 0;
#X connect 25 2 20 0;
#X connect 25 3 24 0;
#X connect 26 0 9 0;
#X connect 26 1 60 0;
#X connect 26 2 11 0;
#X connect 26 3 28 0;
#X connect 28 0 27 0;
#X connect 28 0 58 0;
#X connect 29 0 30 0;
#X connect 29 1 14 0;
#X connect 29 2 31 0;
#X connect 32 0 33 0;
#X connect 33 0 35 0;
#X connect 34 0 36 0;
#X connect 34 1 37 0;
#X connect 34 2 38 0;
#X connect 35 0 34 0;
#X connect 39 0 1 0;
#X connect 40 0 1 0;
#X connect 41 0 39 0;
#X connect 42 0 45 0;
#X connect 43 0 50 0;
#X connect 44 0 53 0;
#X connect 45 0 49 0;
#X connect 45 1 48 0;
#X connect 46 0 39 1;
#X connect 47 0 40 1;
#X connect 48 0 46 0;
#X connect 49 0 47 0;
#X connect 50 0 52 0;
#X connect 50 1 51 0;
#X connect 51 0 46 0;
#X connect 52 0 47 0;
#X connect 53 0 55 0;
#X connect 53 1 54 0;
#X connect 54 0 46 0;
#X connect 55 0 47 0;
#X connect 56 0 6 0;
#X connect 57 0 4 0;
#X connect 60 0 12 0;
#X connect 61 0 21 0;
