#N canvas 210 184 979 492 10;
#X obj 401 -127 inlet~;
#X obj 466 -125 inlet~;
#X obj 401 119 *~;
#X obj 513 117 *~;
#X obj 438 430 dac~;
#X obj 607 56 inlet;
#X obj 606 107 lop~ 1;
#X obj 511 328 *~;
#X obj 410 322 *~;
#X obj 654 135 lop~ 1;
#X obj 655 111 birdInvert 1;
#X msg 615 9 mute 0;
#X obj 612 -43 loadbang;
#X obj 516 429 outlet~;
#X obj 611 433 outlet~;
#X obj 386 169 birdSqueeze~;
#X msg 623 36 volume 1;
#X obj 496 164 birdSqueeze~;
#X obj 402 58 hip~ 5;
#X obj 513 57 hip~ 5;
#X obj 406 254 hip~ 4;
#X obj 511 256 hip~ 4;
#N canvas 680 139 450 300 fx 0;
#X obj 64 37 inlet~;
#X obj 156 36 inlet~;
#X obj 247 32 inlet;
#X obj 68 212 outlet~;
#X obj 162 211 outlet~;
#X obj 159 116 birdFX~;
#X obj 65 118 birdFX~;
#X connect 0 0 6 0;
#X connect 1 0 5 0;
#X connect 2 0 5 1;
#X connect 2 0 6 1;
#X connect 5 0 3 0;
#X connect 5 1 4 0;
#X connect 6 0 3 0;
#X connect 6 1 4 0;
#X restore 420 -46 pd fx;
#X obj 706 137 s \$0-toFX;
#X obj 441 -86 r \$0-toFX;
#X obj 607 83 route volume mute fx fxMix;
#X obj 751 164 s \$0-theFXMix;
#X obj 491 -60 r \$0-theFXMix;
#X obj 450 -9 *~;
#X obj 467 -34 lop~ 1;
#X obj 418 -11 *~;
#X obj 728 197 print;
#X obj 517 -14 birdInvert 1;
#X obj 461 34 *~;
#X obj 478 9 lop~ 1;
#X obj 357 14 *~;
#X obj 691 25 loadbang;
#X msg 693 47 fxMix 0.5;
#X obj 505 217 *~ 0.5;
#X obj 398 215 *~ 0.5;
#X connect 0 0 22 0;
#X connect 0 0 35 0;
#X connect 1 0 22 1;
#X connect 1 0 33 0;
#X connect 2 0 15 0;
#X connect 2 0 39 0;
#X connect 3 0 17 0;
#X connect 3 0 38 0;
#X connect 5 0 25 0;
#X connect 6 0 3 1;
#X connect 6 0 2 1;
#X connect 7 0 14 0;
#X connect 7 0 4 1;
#X connect 8 0 4 0;
#X connect 8 0 13 0;
#X connect 9 0 7 1;
#X connect 9 0 8 1;
#X connect 10 0 9 0;
#X connect 11 0 25 0;
#X connect 12 0 11 0;
#X connect 12 0 16 0;
#X connect 15 0 39 0;
#X connect 16 0 25 0;
#X connect 17 0 38 0;
#X connect 18 0 2 0;
#X connect 19 0 3 0;
#X connect 20 0 8 0;
#X connect 21 0 7 0;
#X connect 22 0 30 0;
#X connect 22 1 28 0;
#X connect 24 0 22 2;
#X connect 25 0 6 0;
#X connect 25 1 10 0;
#X connect 25 2 23 0;
#X connect 25 3 26 0;
#X connect 25 3 31 0;
#X connect 27 0 29 0;
#X connect 27 0 32 0;
#X connect 28 0 19 0;
#X connect 29 0 28 1;
#X connect 29 0 30 1;
#X connect 30 0 18 0;
#X connect 32 0 34 0;
#X connect 33 0 19 0;
#X connect 34 0 33 1;
#X connect 34 0 35 1;
#X connect 35 0 18 0;
#X connect 36 0 37 0;
#X connect 37 0 25 0;
#X connect 38 0 21 0;
#X connect 39 0 20 0;
