#N canvas 319 22 913 672 12;
#X obj 131 273 del;
#X obj -21 651 *~;
#X obj 212 476 *~ 0.5;
#X obj 317 391 *~ 0.5;
#X obj 211 521 +~;
#X text 376 613 www.pd-tutorial.com;
#X text 381 586 Johannes Kreidler;
#X obj 193 120 expr 1000 / $f1;
#X obj 218 725 outlet~;
#X obj 364 60 samplerate~;
#X obj 364 87 swap 1000;
#X obj 364 115 /;
#X obj 364 11 loadbang;
#X msg 376 37 bang;
#X obj 314 176 +;
#X obj 137 79 t b f;
#X obj 216 599 *~;
#X obj 457 402 sig~;
#X obj 464 344 loadbang;
#X obj 218 633 *~;
#X obj 210 446 vd~ \$0-buffer 500;
#X obj 316 360 vd~ \$0-buffer 500;
#X obj -28 736 delwrite~ \$0-buffer 4000;
#X obj 604 25 inlet;
#X obj 505 147 switch~;
#X obj 43 505 vline~;
#X obj 48 532 *~;
#X obj 10 32 inlet~;
#X obj 139 -6 inlet;
#X obj 191 309 vline~;
#X obj 178 354 *~;
#X obj 316 293 vline~;
#X floatatom 483 227 5 0 0 0 - - -;
#X obj 361 147 r \$0-deltime;
#X obj 462 10 r samplerate;
#X obj 461 36 t b;
#X obj 47 565 *~;
#X obj 218 659 hip~ 5;
#X obj 218 688 hip~ 5;
#X obj 251 565 lop~ 1;
#X obj 73 388 r \$0-deltime;
#X msg 41 448 0 20 \, 1 \$1 20;
#X obj 40 420 f 10;
#X msg 457 371 0.9;
#X obj 211 209 r \$0-deltime;
#X msg 179 269 0 20 \, 1 \$1 20;
#X obj 178 241 f 10;
#X obj 348 195 r \$0-deltime;
#X msg 314 256 0 20 \, 1 \$1 20;
#X obj 315 227 f 10;
#X obj 516 513 s \$0-deltime;
#X obj 601 277 bng 15 250 50 0 empty empty empty 17 7 0 10 -262144
-1 -1;
#X obj 543 326 random 50;
#X obj 542 354 + 48;
#X obj 543 385 * 0.01;
#X msg 525 115 0;
#X obj 606 51 t f b;
#X obj 702 99 inlet;
#X obj 702 137 t b a;
#X obj 781 96 inlet;
#X obj 784 133 t b a;
#X obj 516 479 random 150;
#X obj 93 45 moses 1;
#X connect 1 0 22 0;
#X connect 2 0 4 0;
#X connect 3 0 4 1;
#X connect 4 0 16 0;
#X connect 7 0 0 1;
#X connect 7 0 14 0;
#X connect 7 0 46 0;
#X connect 9 0 10 0;
#X connect 10 0 11 0;
#X connect 10 1 11 1;
#X connect 11 0 14 1;
#X connect 12 0 9 0;
#X connect 13 0 9 0;
#X connect 14 0 32 0;
#X connect 14 0 49 0;
#X connect 15 0 0 0;
#X connect 15 0 42 0;
#X connect 15 1 7 0;
#X connect 16 0 19 0;
#X connect 16 0 22 0;
#X connect 17 0 39 0;
#X connect 18 0 43 0;
#X connect 19 0 37 0;
#X connect 20 0 2 0;
#X connect 21 0 3 0;
#X connect 23 0 56 0;
#X connect 25 0 26 1;
#X connect 25 0 26 0;
#X connect 26 0 36 1;
#X connect 26 0 36 0;
#X connect 27 0 1 0;
#X connect 28 0 62 0;
#X connect 29 0 30 1;
#X connect 29 0 30 0;
#X connect 30 0 20 0;
#X connect 31 0 21 0;
#X connect 34 0 35 0;
#X connect 35 0 9 0;
#X connect 36 0 1 1;
#X connect 36 0 19 1;
#X connect 37 0 38 0;
#X connect 38 0 8 0;
#X connect 39 0 16 1;
#X connect 40 0 42 1;
#X connect 41 0 25 0;
#X connect 42 0 41 0;
#X connect 43 0 17 0;
#X connect 44 0 46 1;
#X connect 45 0 29 0;
#X connect 46 0 45 0;
#X connect 47 0 49 1;
#X connect 48 0 31 0;
#X connect 49 0 48 0;
#X connect 51 0 52 0;
#X connect 51 0 61 0;
#X connect 52 0 53 0;
#X connect 53 0 54 0;
#X connect 54 0 17 0;
#X connect 55 0 24 0;
#X connect 56 0 24 0;
#X connect 56 1 51 0;
#X connect 57 0 58 0;
#X connect 58 0 51 0;
#X connect 58 1 52 0;
#X connect 59 0 60 0;
#X connect 60 0 51 0;
#X connect 60 1 61 0;
#X connect 61 0 50 0;
#X connect 62 1 15 0;
