#N canvas 71 104 1022 612 10;
#X msg 313 182 0;
#X obj 105 231 *~;
#X msg 264 153 1;
#X obj 365 252 expr 1000 / $f1;
#X obj 107 49 inlet~;
#X obj 267 65 inlet;
#X obj 266 94 t b b f;
#X obj 101 604 outlet~;
#X obj 313 154 del 10;
#X obj 708 56 inlet;
#X obj 708 115 s \$0-switch;
#X obj 761 144 s \$0-length;
#X obj 346 112 r \$0-length;
#N canvas 195 311 776 437 delay-writer 0;
#X obj 90 196 inlet~;
#X obj 86 414 outlet~;
#X obj 517 54 block~ 1;
#X obj 87 360 +~;
#X obj 151 195 inlet;
#X text 83 159 incoming;
#X text 85 174 pulses;
#X text 151 156 delay;
#X text 152 171 time;
#X obj 152 241 vd~ \$0-buf1;
#X obj 510 150 inlet;
#X obj 510 175 * 0.005;
#X obj 511 256 + 0.99;
#X obj 150 350 *~;
#X obj 510 278 lop~ 1;
#X msg 606 152 0.3;
#X obj 605 126 loadbang;
#X obj 282 191 inlet;
#X obj 282 238 vd~ \$0-buf1;
#X obj 281 334 *~;
#X obj 280 356 *~ 0.33;
#X obj 390 192 inlet;
#X obj 389 242 vd~ \$0-buf1;
#X obj 389 334 *~;
#X obj 388 356 *~ 0.33;
#X obj 167 414 delwrite~ \$0-buf1 250;
#X connect 0 0 3 0;
#X connect 3 0 1 0;
#X connect 3 0 25 0;
#X connect 4 0 9 0;
#X connect 9 0 13 0;
#X connect 10 0 11 0;
#X connect 11 0 12 0;
#X connect 12 0 14 0;
#X connect 13 0 3 1;
#X connect 14 0 13 1;
#X connect 14 0 19 1;
#X connect 14 0 23 1;
#X connect 15 0 11 0;
#X connect 16 0 15 0;
#X connect 17 0 18 0;
#X connect 18 0 19 0;
#X connect 19 0 20 0;
#X connect 20 0 1 0;
#X connect 21 0 22 0;
#X connect 22 0 23 0;
#X connect 23 0 24 0;
#X connect 24 0 1 0;
#X restore 102 492 pd delay-writer;
#X obj 809 175 s \$0-feedback;
#X obj 190 467 r \$0-feedback;
#X obj 860 204 s \$0-lopfreq;
#X obj 158 98 r \$0-lopfreq;
#X floatatom 344 67 5 0 0 0 - - -;
#X obj 387 298 expr 1000 / $f1;
#X obj 386 277 * 2;
#X obj 105 165 lop~ 1200;
#X obj 875 433 r \$0-switch;
#X obj 874 470 switch~;
#X obj 608 311 r \$0-list;
#X obj 607 336 list-enumerate;
#X obj 606 360 route 0 1 2;
#X obj 708 87 route switch length feedback lopfreq randomlist;
#X obj 919 240 s \$0-list;
#X obj 604 393 s \$0-length;
#X obj 623 424 * 0.01;
#X obj 622 449 s \$0-feedback;
#X obj 641 474 * 5;
#X obj 640 503 + 750;
#X obj 639 526 s \$0-lopfreq;
#X obj 403 344 expr 1000 / $f1;
#X obj 402 323 * 0.5;
#X obj 53 449 *~;
#X obj 123 305 vline~;
#X msg 122 277 0 \, 1 2 \, 0 5 2;
#X obj 122 329 *~;
#X obj 121 387 *~;
#X obj 50 565 bp~ 1200 3;
#X obj 123 247 t b b;
#X obj 171 302 random 100;
#X obj 171 368 \$1;
#X obj 170 323 * 0.001;
#X obj 171 344 t b f;
#X obj 171 391 *;
#X obj 171 417 t b f;
#X obj 52 473 *~ 0.5;
#X obj 764 21 loadbang;
#X msg 762 49 switch 1 \, length 25 \, feedback 0.1 \, lopfreq 1000
;
#X connect 0 0 1 1;
#X connect 1 0 13 0;
#X connect 2 0 1 1;
#X connect 2 0 43 0;
#X connect 3 0 13 1;
#X connect 4 0 21 0;
#X connect 4 0 37 0;
#X connect 5 0 6 0;
#X connect 6 0 2 0;
#X connect 6 1 8 0;
#X connect 6 2 3 0;
#X connect 6 2 20 0;
#X connect 6 2 36 0;
#X connect 8 0 0 0;
#X connect 9 0 27 0;
#X connect 12 0 8 1;
#X connect 13 0 7 0;
#X connect 15 0 13 4;
#X connect 17 0 21 1;
#X connect 18 0 8 1;
#X connect 19 0 13 3;
#X connect 20 0 19 0;
#X connect 21 0 1 0;
#X connect 22 0 23 0;
#X connect 24 0 25 0;
#X connect 25 0 26 0;
#X connect 26 0 29 0;
#X connect 26 1 30 0;
#X connect 26 2 32 0;
#X connect 27 0 10 0;
#X connect 27 1 11 0;
#X connect 27 2 14 0;
#X connect 27 3 16 0;
#X connect 27 4 28 0;
#X connect 30 0 31 0;
#X connect 32 0 33 0;
#X connect 33 0 34 0;
#X connect 35 0 13 2;
#X connect 36 0 35 0;
#X connect 37 0 50 0;
#X connect 38 0 40 1;
#X connect 38 0 40 0;
#X connect 39 0 38 0;
#X connect 40 0 41 1;
#X connect 40 0 41 0;
#X connect 41 0 37 1;
#X connect 42 0 7 0;
#X connect 43 0 39 0;
#X connect 43 1 44 0;
#X connect 44 0 46 0;
#X connect 45 0 48 0;
#X connect 46 0 47 0;
#X connect 47 0 45 0;
#X connect 47 1 48 1;
#X connect 50 0 42 0;
#X connect 51 0 52 0;
#X connect 52 0 27 0;
