#N canvas 0 22 1440 809 10;
#X obj 751 -76 inlet;
#X obj 550 1128 outlet~;
#X obj 557 937 vline~;
#X obj 605 516 r \$0-play;
#X obj 550 1103 *~;
#X obj 605 1026 vline~;
#X msg 693 932 0 10 \, 1 10 10 \, 0 30 -50;
#X msg 734 846 addcomma;
#X obj 716 778 r \$0-duration;
#X obj 716 800 t f b b b b;
#X obj 598 1051 *~;
#X obj 600 596 t b b;
#X obj 795 1 s \$0-tempo;
#N canvas 324 22 684 631 tempo 0;
#X obj 348 100 swap 60000;
#X obj 348 125 /;
#X obj 344 318 swap 1;
#X obj 345 343 /;
#X obj 320 372 *;
#X obj 293 13 inlet;
#X obj 349 462 outlet;
#X obj 293 36 unpack f f f;
#X obj 348 154 *;
#X obj 294 155 t f f b;
#X obj 337 189 samplerate~;
#X obj 316 214 /;
#X obj 316 235 * 0.001;
#X obj 317 261 t f f;
#X obj 344 285 /;
#X obj 321 403 t f f;
#X obj 274 433 pack f f;
#X obj 274 464 outlet;
#X connect 0 0 1 0;
#X connect 0 1 1 1;
#X connect 1 0 8 0;
#X connect 2 0 3 0;
#X connect 2 1 3 1;
#X connect 3 0 4 1;
#X connect 4 0 15 0;
#X connect 5 0 7 0;
#X connect 7 0 9 0;
#X connect 7 1 0 0;
#X connect 7 2 8 1;
#X connect 8 0 14 1;
#X connect 9 0 16 0;
#X connect 9 1 11 0;
#X connect 9 2 10 0;
#X connect 10 0 11 1;
#X connect 11 0 12 0;
#X connect 12 0 13 0;
#X connect 13 0 4 0;
#X connect 13 1 14 0;
#X connect 14 0 2 0;
#X connect 15 0 16 1;
#X connect 15 1 6 0;
#X connect 16 0 17 0;
#X restore 588 414 pd tempo;
#X obj 1218 513 soundfiler;
#X obj 1219 571 \$0;
#X obj 748 -24 s \$0-sample;
#X obj 1239 143 r \$0-sample;
#X obj 1219 540 t b f;
#X obj 589 221 r \$0-length;
#X obj 633 450 s \$0-duration;
#X obj 606 256 r \$0-tempo;
#X obj 606 288 t b f;
#X obj 589 382 t a b;
#X obj 783 -132 loadbang;
#X obj 192 -109 inlet;
#X obj 588 355 pack f f f;
#X obj 660 89 r \$0-beats;
#X obj 783 1072 del;
#X obj 799 1028 r \$0-duration;
#X obj 784 961 r \$0-play;
#X obj 785 1098 outlet;
#X obj 787 999 t b;
#X obj 665 545 bng 15 250 50 0 empty empty empty 17 7 0 10 -262144
-1 -1;
#X msg 785 829 set 0 10;
#X msg 737 868 add2 1 10 10;
#X msg 699 887 add2 0 30 \$1;
#X obj 700 849 - 50;
#X obj 1276 -80 table \$0-sampler-0;
#X obj 1278 -48 table \$0-sampler-1;
#X msg 1219 483 read -resize ooh_60_1_60.wav 1344-sampler-2;
#X obj 1239 170 list split 1;
#X obj 1238 204 list prepend set read -resize;
#X obj 1218 416 list append;
#X obj 1277 251 pack f \$0;
#X obj 1218 438 list trim;
#X msg 1276 275 \$2-sampler-\$1;
#X obj 1277 296 t a a;
#X obj 1304 346 list prepend;
#X obj 1303 370 list trim;
#X obj 1303 396 s \$0-sampleID;
#X obj 1304 325 list prepend set set;
#N canvas 630 134 810 515 samples 0;
#X obj 59 72 r \$0-sampleID;
#X obj 58 100 route 0 1 2;
#X msg 58 127 set 1344-sampler-0;
#X msg 76 147 set 1344-sampler-1;
#X msg 99 169 set 1344-sampler-2;
#X obj 197 64 r \$0-sampleLength;
#X obj 197 93 route 0 1 2;
#X obj 347 91 route 0 1 2;
#X obj 348 67 r \$0-sampleBeats;
#X obj 37 17 inlet;
#X obj 37 40 t f f f;
#X obj 63 243 outlet;
#X obj 207 252 outlet;
#X obj 383 246 outlet;
#X msg 196 119 88200;
#X msg 211 143 168348;
#X msg 229 166 44100;
#X msg 349 116 8;
#X msg 364 140 4;
#X msg 388 166 4;
#X connect 0 0 1 0;
#X connect 1 0 2 0;
#X connect 1 1 3 0;
#X connect 1 2 4 0;
#X connect 2 0 11 0;
#X connect 3 0 11 0;
#X connect 4 0 11 0;
#X connect 5 0 6 0;
#X connect 6 0 14 0;
#X connect 6 1 15 0;
#X connect 6 2 16 0;
#X connect 7 0 17 0;
#X connect 7 1 18 0;
#X connect 7 2 19 0;
#X connect 8 0 7 0;
#X connect 9 0 10 0;
#X connect 10 0 1 0;
#X connect 10 1 6 0;
#X connect 10 2 7 0;
#X connect 14 0 12 0;
#X connect 15 0 12 0;
#X connect 16 0 12 0;
#X connect 17 0 13 0;
#X connect 18 0 13 0;
#X connect 19 0 13 0;
#X restore 890 220 pd samples;
#X obj 1288 593 list prepend;
#X obj 1288 621 list trim;
#X obj 1288 646 s \$0-sampleLength;
#X floatatom 1161 551 5 0 0 0 - - -;
#X obj 1287 566 list prepend set;
#X obj 1219 458 t b a;
#X obj 947 249 s \$0-beats;
#X obj 918 273 s \$0-length;
#X obj 889 307 s \$0-setSample;
#X obj 841 25 list split 1;
#X obj 840 49 list prepend set;
#X obj 838 70 list prepend;
#X obj 838 94 list trim;
#X obj 836 118 s \$0-sampleBeats;
#X msg 777 -96 tempo 120;
#X obj 889 197 change;
#X obj 233 59 s \$0-loadSample;
#X obj 889 175 r \$0-loadSample;
#X obj 187 36 s \$0-play;
#X obj 1280 -17 table \$0-sampler-2;
#X obj 192 -79 route play;
#X obj 193 -41 random 3;
#X obj 608 958 r \$0-setSample;
#X obj 556 995 tabread4~;
#X obj 1274 226 t f f f;
#X obj 1354 535 t f f;
#X obj 1224 703 pack f f;
#X msg 1223 758 \; \$1-sampler-\$2 normalize 1;
#X obj 749 -51 route sample tempo beats;
#X msg 558 903 0 \, 0 0;
#X msg 507 706 add2 \$1 \$2;
#X msg 615 831 addcomma;
#N canvas 567 223 566 465 reverse 0;
#X obj -61 -64 inlet;
#X obj 145 175 unpack f f;
#X obj 235 27 inlet;
#X obj 78 432 outlet;
#X obj 210 433 outlet;
#X obj 198 241 s \$0-second;
#X obj 142 274 s \$0-first;
#X obj 143 149 spigot;
#X obj 236 84 s \$0-direction;
#X obj 176 112 r \$0-direction;
#X obj -55 70 s \$0-inputList;
#X obj -36 188 spigot;
#X obj 3 117 r \$0-direction;
#X obj 2 144 swap 1;
#X obj 10 165 -;
#X obj 296 18 loadbang;
#X msg 296 39 0;
#X msg 15 253 0;
#X obj 15 276 s \$0-first;
#X obj -37 304 s \$0-second;
#X obj -32 95 r \$0-inputList;
#X obj 129 84 r \$0-inputList;
#X obj 211 375 r \$0-first;
#X obj 76 374 r \$0-second;
#X obj 310 107 s \$0-readList;
#X obj 236 49 t b f;
#X obj 41 8 r \$0-readList;
#X msg -23 36 0 0;
#X obj -23 -19 list prepend set;
#X obj -23 6 list trim;
#X obj 198 218 pack 0 f;
#X obj 212 196 t b a;
#X obj -36 218 t b a;
#X connect 0 0 10 0;
#X connect 0 0 28 0;
#X connect 1 0 6 0;
#X connect 1 1 31 0;
#X connect 2 0 25 0;
#X connect 7 0 1 0;
#X connect 9 0 7 1;
#X connect 11 0 32 0;
#X connect 12 0 13 0;
#X connect 13 0 14 0;
#X connect 13 1 14 1;
#X connect 14 0 11 1;
#X connect 15 0 16 0;
#X connect 16 0 25 0;
#X connect 17 0 18 0;
#X connect 20 0 11 0;
#X connect 21 0 7 0;
#X connect 22 0 4 0;
#X connect 23 0 3 0;
#X connect 25 0 24 0;
#X connect 25 1 8 0;
#X connect 26 0 27 0;
#X connect 27 0 10 0;
#X connect 28 0 29 0;
#X connect 29 0 27 0;
#X connect 30 0 5 0;
#X connect 31 0 30 0;
#X connect 31 1 30 1;
#X connect 32 0 17 0;
#X connect 32 1 19 0;
#X restore 508 677 pd reverse;
#X msg 644 765 set \$1;
#X obj 506 732 list prepend set;
#X obj 506 756 list trim;
#X msg 505 783 add2 0 0;
#X obj 599 744 t b b f;
#X obj 569 632 r \$0-toDirection;
#X obj 616 663 tgl 15 0 empty empty empty 17 7 0 10 -262144 -1 -1 0
1;
#X obj 200 131 s \$0-toDirection;
#X obj 201 78 random 3;
#X obj 202 104 == 0;
#X obj 665 122 +;
#X obj 684 58 r \$0-changeBeats;
#X obj 191 -10 t b b f b;
#X obj 317 138 s \$0-changeBeats;
#X obj 667 279 t b f;
#X obj 666 179 max 2;
#X obj 319 86 random 5;
#X obj 321 108 - 2;
#X connect 0 0 81 0;
#X connect 2 0 76 0;
#X connect 3 0 11 0;
#X connect 4 0 1 0;
#X connect 5 0 10 1;
#X connect 5 0 10 0;
#X connect 6 0 5 0;
#X connect 7 0 6 0;
#X connect 8 0 9 0;
#X connect 9 0 37 0;
#X connect 9 1 7 0;
#X connect 9 2 35 0;
#X connect 9 3 7 0;
#X connect 9 4 34 0;
#X connect 10 0 4 1;
#X connect 11 0 82 0;
#X connect 11 1 6 0;
#X connect 13 0 85 0;
#X connect 13 1 20 0;
#X connect 14 0 18 0;
#X connect 14 0 56 0;
#X connect 15 0 79 0;
#X connect 17 0 41 0;
#X connect 18 0 15 0;
#X connect 18 1 57 0;
#X connect 19 0 26 0;
#X connect 21 0 22 0;
#X connect 22 0 26 0;
#X connect 22 1 26 1;
#X connect 23 0 13 0;
#X connect 24 0 67 0;
#X connect 25 0 73 0;
#X connect 26 0 23 0;
#X connect 27 0 96 0;
#X connect 28 0 31 0;
#X connect 29 0 28 1;
#X connect 30 0 32 0;
#X connect 32 0 28 0;
#X connect 33 0 11 0;
#X connect 34 0 6 0;
#X connect 35 0 6 0;
#X connect 36 0 6 0;
#X connect 37 0 36 0;
#X connect 40 0 14 0;
#X connect 41 0 42 0;
#X connect 41 1 77 0;
#X connect 42 0 43 0;
#X connect 43 0 45 0;
#X connect 44 0 46 0;
#X connect 45 0 58 0;
#X connect 46 0 47 0;
#X connect 47 0 43 1;
#X connect 47 1 51 0;
#X connect 48 0 49 0;
#X connect 49 0 50 0;
#X connect 51 0 48 0;
#X connect 52 0 61 0;
#X connect 52 1 60 0;
#X connect 52 2 59 0;
#X connect 53 0 54 0;
#X connect 54 0 55 0;
#X connect 57 0 53 0;
#X connect 58 0 40 0;
#X connect 58 1 40 0;
#X connect 62 0 63 0;
#X connect 62 1 64 1;
#X connect 63 0 64 0;
#X connect 64 0 65 0;
#X connect 65 0 66 0;
#X connect 67 0 81 0;
#X connect 68 0 52 0;
#X connect 70 0 68 0;
#X connect 73 0 74 0;
#X connect 74 0 98 0;
#X connect 75 0 76 0;
#X connect 76 0 4 0;
#X connect 77 0 44 0;
#X connect 77 1 48 1;
#X connect 77 2 78 0;
#X connect 78 0 53 1;
#X connect 78 1 79 1;
#X connect 79 0 80 0;
#X connect 81 0 16 0;
#X connect 81 1 12 0;
#X connect 81 2 62 0;
#X connect 82 0 2 0;
#X connect 83 0 87 0;
#X connect 84 0 82 0;
#X connect 85 0 83 0;
#X connect 85 1 90 0;
#X connect 86 0 82 0;
#X connect 87 0 88 0;
#X connect 88 0 89 0;
#X connect 89 0 82 0;
#X connect 90 0 89 0;
#X connect 90 1 84 0;
#X connect 90 2 86 0;
#X connect 91 0 85 1;
#X connect 91 0 92 0;
#X connect 94 0 95 0;
#X connect 95 0 93 0;
#X connect 96 0 101 0;
#X connect 97 0 96 1;
#X connect 98 0 71 0;
#X connect 98 1 94 0;
#X connect 98 2 69 0;
#X connect 98 3 102 0;
#X connect 100 0 26 0;
#X connect 100 1 26 2;
#X connect 101 0 100 0;
#X connect 102 0 103 0;
#X connect 103 0 99 0;
