#N canvas 0 22 450 300 10;
#X obj 201 88 osc~ 440;
#X obj 207 219 dac~;
#X obj 252 148 env~ 44100;
#X obj 256 182 print test;
#X connect 0 0 1 1;
#X connect 0 0 1 0;
#X connect 0 0 2 0;
#X connect 2 0 3 0;
