#N canvas 0 22 1440 797 10;
#X obj 18 25 table \$0-noteState 127;
#X obj 270 19 inlet;
#X obj 290 74 tabread \$0-noteState;
#X obj 290 100 + 1;
#X obj 290 124 mod 2;
#X obj 290 149 tabwrite \$0-noteState;
#X obj 271 47 t f f f;
#X obj 301 225 tabread \$0-noteState;
#X obj 273 183 t f f;
#X msg 312 320 127;
#X obj 312 347 until;
#X obj 311 398 mod 127;
#X obj 313 497 tabread \$0-noteState;
#X obj 312 372 f;
#X obj 338 372 + 1;
#X obj 272 244 *;
#X obj 306 573 f;
#X obj 340 574 +;
#X obj 312 542 t f b;
#X obj 312 296 t b b f;
#X msg 354 550 0;
#X obj 285 425 t f f;
#X obj 284 445 == 126;
#X obj 284 466 sel 1;
#X obj 323 600 f;
#X obj 322 620 > 0;
#X obj 322 667 select 0 1;
#X obj 351 693 f;
#X msg 321 692 0;
#X obj 320 763 outlet;
#X obj 272 270 moses 0;
#X obj 351 322 moses 1;
#N canvas 630 319 450 300 change 0;
#X obj 104 11 inlet;
#X obj 131 60 change;
#X obj 104 36 t f f;
#X obj 107 139 db1;
#X obj 130 84 t b;
#X obj 107 175 outlet;
#X obj 198 7 inlet;
#X obj 161 123 bng 15 250 50 0 empty empty empty 17 7 0 10 -262144
-1 -1;
#X connect 0 0 2 0;
#X connect 1 0 4 0;
#X connect 2 0 3 0;
#X connect 2 1 1 0;
#X connect 3 0 5 0;
#X connect 4 0 3 1;
#X connect 4 0 7 0;
#X connect 6 0 3 1;
#X restore 352 718 pd change;
#X obj 319 740 change;
#X connect 1 0 6 0;
#X connect 2 0 3 0;
#X connect 3 0 4 0;
#X connect 4 0 5 0;
#X connect 6 0 8 0;
#X connect 6 1 2 0;
#X connect 6 2 5 1;
#X connect 7 0 15 1;
#X connect 8 0 15 0;
#X connect 8 1 7 0;
#X connect 9 0 10 0;
#X connect 10 0 13 0;
#X connect 11 0 21 0;
#X connect 12 0 18 0;
#X connect 13 0 14 0;
#X connect 13 0 11 0;
#X connect 14 0 13 1;
#X connect 15 0 30 0;
#X connect 16 0 17 1;
#X connect 17 0 16 1;
#X connect 17 0 24 1;
#X connect 18 0 17 0;
#X connect 18 1 16 0;
#X connect 19 0 9 0;
#X connect 19 1 20 0;
#X connect 19 2 31 0;
#X connect 20 0 17 1;
#X connect 20 0 16 1;
#X connect 21 0 22 0;
#X connect 21 1 12 0;
#X connect 22 0 23 0;
#X connect 23 0 24 0;
#X connect 24 0 25 0;
#X connect 25 0 26 0;
#X connect 26 0 28 0;
#X connect 26 0 32 1;
#X connect 26 1 27 0;
#X connect 27 0 32 0;
#X connect 28 0 33 0;
#X connect 30 1 19 0;
#X connect 31 1 27 1;
#X connect 32 0 33 0;
#X connect 33 0 29 0;
