#N canvas 24 22 1055 802 10;
#X obj 282 -232 inlet~;
#X obj 357 52 spigot;
#X obj 383 -107 inlet;
#X msg 383 -2 1;
#X obj 304 52 spigot;
#X obj 294 566 outlet~;
#X obj 428 526 outlet;
#X obj 357 20 bng 15 250 50 0 empty empty empty 17 7 0 10 -262144 -1
-1;
#X obj 303 23 bng 15 250 50 0 empty empty empty 17 7 0 10 -262144 -1
-1;
#X obj 284 229 tabwrite~ \$0-array1;
#X obj 422 -38 s \$0-play;
#X obj 293 299 r \$0-play;
#X obj 295 444 tabplay~ \$0-array1;
#X obj 362 77 t b b;
#X msg 387 101 0;
#X msg 344 115 0;
#X msg 323 145 stop;
#X msg 294 350 0;
#X obj 303 79 t b b b;
#X msg 428 184 \; \$1-array1 normalize 1 \;;
#X obj 426 153 \$0;
#X obj 294 536 *~;
#X obj 437 408 vline~;
#X obj 443 65 realtime;
#X obj 444 83 int;
#X obj 444 134 s \$0-sampleLength;
#X obj 449 325 r \$0-sampleLength;
#X obj 434 351 f;
#X obj 436 438 *~;
#X obj 295 322 t b b;
#X msg 305 166 1;
#X obj 305 190 s \$0-arrayFull;
#X msg 523 66 0;
#X obj 523 89 s \$0-arrayFull;
#X obj 428 473 r \$0-arrayFull;
#X msg 437 384 0 10 \, 1 10 \, 0 25 \$1;
#X obj 793 -101 table \$0-array1 88200;
#N canvas 946 91 495 495 edge 0;
#X obj 85 7 inlet~;
#X obj 87 58 + 0.5;
#X obj 87 79 int;
#X obj 84 180 change;
#X obj 84 152 spigot;
#X obj 263 50 route arm;
#X obj 260 21 inlet;
#X obj 85 286 f;
#X obj 114 286 + 1;
#X obj 83 313 mod 2;
#X obj 83 419 outlet;
#X obj 102 374 t b b;
#X obj 133 419 outlet;
#X msg 137 169 0;
#X msg 172 134 1;
#X obj 84 342 sel 1 0;
#X floatatom 41 404 5 0 0 0 - - -;
#X floatatom 48 184 5 0 0 0 - - -;
#X msg 210 135 0;
#X floatatom -88 292 5 0 0 0 - - -;
#X obj 159 364 bng 15 250 50 0 empty empty empty 17 7 0 10 -262144
-1 -1;
#X obj 139 368 bng 15 250 50 0 empty empty empty 17 7 0 10 -262144
-1 -1;
#X obj 85 32 fiddle~ 4096;
#X obj 59 255 t f b;
#X obj -60 331 spigot;
#X obj 7 330 spigot;
#X floatatom -59 374 5 0 0 0 - - -;
#X floatatom 10 372 5 0 0 0 - - -;
#X obj -32 292 birdInvert 1;
#X floatatom 2 170 5 0 0 0 - - -;
#X obj 86 111 moses 1;
#X obj 19 137 spigot;
#X msg 52 107 1;
#X msg 146 398 0;
#X floatatom 101 230 5 0 0 0 - - -;
#X connect 0 0 22 0;
#X connect 1 0 2 0;
#X connect 2 0 17 0;
#X connect 2 0 30 0;
#X connect 3 0 19 0;
#X connect 3 0 23 0;
#X connect 3 0 34 0;
#X connect 4 0 3 0;
#X connect 5 0 14 0;
#X connect 5 0 18 0;
#X connect 6 0 5 0;
#X connect 7 0 8 0;
#X connect 7 0 9 0;
#X connect 8 0 7 1;
#X connect 9 0 15 0;
#X connect 9 0 16 0;
#X connect 9 0 28 0;
#X connect 9 0 25 1;
#X connect 11 0 12 0;
#X connect 11 1 33 0;
#X connect 13 0 4 1;
#X connect 14 0 4 1;
#X connect 15 0 10 0;
#X connect 15 0 21 0;
#X connect 15 0 13 0;
#X connect 15 0 32 0;
#X connect 15 1 11 0;
#X connect 15 1 20 0;
#X connect 18 0 7 1;
#X connect 22 0 1 0;
#X connect 23 0 24 0;
#X connect 23 0 25 0;
#X connect 23 1 7 0;
#X connect 24 0 26 0;
#X connect 25 0 27 0;
#X connect 28 0 24 1;
#X connect 30 0 31 0;
#X connect 30 1 4 0;
#X connect 31 0 4 0;
#X connect 32 0 31 1;
#X connect 33 0 31 1;
#X restore 306 -13 pd edge;
#X msg 381 -40 arm;
#X obj 446 105 - 46;
#X obj 382 -74 route arm play;
#X obj 536 473 r \$0-basePitch;
#X obj 539 521 outlet;
#N canvas 323 91 495 495 edge 0;
#X obj 84 -49 inlet~;
#X obj 263 50 route arm;
#X obj 260 21 inlet;
#X obj 83 419 outlet;
#X obj 133 419 outlet;
#X obj 85 -25 fiddle~ 4096;
#X obj 85 128 spigot;
#X obj 98 107 f;
#X obj 86 84 t f f;
#X obj 85 194 change;
#X obj 85 250 spigot;
#X obj 86 229 t b;
#X obj 264 82 t b b b;
#X obj 85 -3 + 0.5;
#X obj 87 22 int;
#X msg 132 127 1;
#X msg 132 251 1;
#X connect 0 0 5 0;
#X connect 1 0 12 0;
#X connect 2 0 1 0;
#X connect 5 0 13 0;
#X connect 6 0 9 0;
#X connect 8 0 6 0;
#X connect 8 1 7 1;
#X connect 9 0 11 0;
#X connect 11 0 10 0;
#X connect 13 0 14 0;
#X connect 14 0 8 0;
#X restore 316 -132 pd edge;
#X connect 0 0 37 0;
#X connect 0 0 9 0;
#X connect 0 0 43 0;
#X connect 1 0 13 0;
#X connect 2 0 40 0;
#X connect 3 0 1 1;
#X connect 3 0 4 1;
#X connect 4 0 18 0;
#X connect 7 0 1 0;
#X connect 7 0 32 0;
#X connect 7 0 23 0;
#X connect 8 0 4 0;
#X connect 8 0 23 1;
#X connect 11 0 29 0;
#X connect 12 0 21 0;
#X connect 13 0 9 0;
#X connect 13 1 14 0;
#X connect 14 0 1 1;
#X connect 15 0 4 1;
#X connect 16 0 9 0;
#X connect 17 0 12 0;
#X connect 18 0 20 0;
#X connect 18 0 30 0;
#X connect 18 1 16 0;
#X connect 18 2 15 0;
#X connect 20 0 19 0;
#X connect 21 0 5 0;
#X connect 22 0 28 1;
#X connect 22 0 28 0;
#X connect 23 0 24 0;
#X connect 24 0 39 0;
#X connect 26 0 27 1;
#X connect 27 0 35 0;
#X connect 28 0 21 1;
#X connect 29 0 17 0;
#X connect 29 1 27 0;
#X connect 30 0 31 0;
#X connect 32 0 33 0;
#X connect 34 0 6 0;
#X connect 35 0 22 0;
#X connect 37 0 8 0;
#X connect 37 1 7 0;
#X connect 38 0 37 1;
#X connect 39 0 25 0;
#X connect 40 0 38 0;
#X connect 40 0 3 0;
#X connect 40 1 10 0;
#X connect 41 0 42 0;
