#N canvas 436 115 584 665 12;
#X obj 114 308 del;
#X msg 81 334 1;
#X msg 114 334 0;
#X obj 35 457 *~;
#X obj 224 354 *~ 0.5;
#X obj 312 355 *~ 0.5;
#X obj 225 392 +~;
#X text 376 613 www.pd-tutorial.com;
#X text 381 586 Johannes Kreidler;
#X obj 203 176 expr 1000 / $f1;
#X text 184 207 duration of one period (ms);
#X obj 219 635 outlet~;
#X obj 60 -19 inlet;
#X obj 351 137 samplerate~;
#X obj 351 164 swap 1000;
#X obj 351 192 /;
#X obj 351 88 loadbang;
#X msg 363 114 bang;
#X obj 311 249 +;
#X obj 139 145 t b f;
#X obj 209 500 *~;
#X obj 373 415 sig~;
#X obj 373 373 inlet;
#X obj 460 337 loadbang;
#X obj 60 94 mtof;
#X obj 61 11 unpack f f;
#X obj 127 42 s \$0-amp;
#X obj 273 497 r \$0-amp;
#X obj 274 525 / 127;
#X obj 218 575 *~;
#X obj 43 168 phasor~;
#X obj 191 303 vd~ \$0-buffer 500;
#X obj 314 331 vd~ \$0-buffer 500;
#X obj 33 633 delwrite~ \$0-buffer 4000;
#X obj 214 245 lop~ 80;
#X obj 271 461 lop~ 80;
#X obj 272 552 lop~ 80;
#X msg 457 371 1;
#X obj 144 420 bng 15 250 50 0 empty empty empty 17 7 0 10 -262144
-1 -1;
#X obj 101 424 bng 15 250 50 0 empty empty empty 17 7 0 10 -262144
-1 -1;
#X obj 315 303 lop~ 80;
#X obj 80 378 lop~ 100;
#X obj 419 416 route switch;
#X obj 418 454 switch~;
#X obj 59 55 moses 1;
#X obj 101 83 change;
#X connect 0 0 2 0;
#X connect 1 0 39 0;
#X connect 1 0 41 0;
#X connect 2 0 38 0;
#X connect 2 0 41 0;
#X connect 3 0 33 0;
#X connect 4 0 6 0;
#X connect 5 0 6 1;
#X connect 6 0 20 0;
#X connect 9 0 0 1;
#X connect 9 0 18 0;
#X connect 9 0 34 0;
#X connect 12 0 25 0;
#X connect 13 0 14 0;
#X connect 14 0 15 0;
#X connect 14 1 15 1;
#X connect 15 0 18 1;
#X connect 16 0 13 0;
#X connect 17 0 13 0;
#X connect 18 0 40 0;
#X connect 19 0 0 0;
#X connect 19 0 1 0;
#X connect 19 1 9 0;
#X connect 20 0 29 0;
#X connect 20 0 33 0;
#X connect 21 0 35 0;
#X connect 22 0 42 0;
#X connect 23 0 37 0;
#X connect 24 0 19 0;
#X connect 24 0 30 0;
#X connect 25 0 44 0;
#X connect 25 1 26 0;
#X connect 27 0 28 0;
#X connect 28 0 36 0;
#X connect 29 0 11 0;
#X connect 30 0 3 0;
#X connect 31 0 4 0;
#X connect 32 0 5 0;
#X connect 34 0 31 0;
#X connect 35 0 20 1;
#X connect 36 0 29 1;
#X connect 37 0 21 0;
#X connect 37 0 43 0;
#X connect 40 0 32 0;
#X connect 41 0 3 1;
#X connect 42 0 43 0;
#X connect 42 1 21 0;
#X connect 44 1 45 0;
#X connect 45 0 24 0;
