#N canvas 59 78 1440 797 10;
#X obj -315 175 4Track;
#X obj -317 -47 birdMidiIn;
#X obj -277 -13 r \$0-cmd;
#X msg 61 14 play;
#X obj 49 114 s \$0-cmd;
#X msg 47 -14 stop;
#X msg 31 -37 record;
#X msg 8 -60 reset;
#X msg -13 -85 clear;
#X msg 170 -64 pattern \$1;
#X obj 169 -89 hradio 15 1 0 4 empty empty empty 0 -8 0 10 -262144
-1 -1 3;
#X obj -285 507 throw~ output;
#X obj 448 437 birdOut~;
#X obj 448 293 catch~ output;
#X obj 154 141 throw~ output;
#X obj 49 84 birdClock 2 4 4 80;
#X msg 178 55 divisions 2;
#X msg 178 31 loop \$1;
#X obj 179 5 tgl 15 0 empty empty empty 17 7 0 10 -262144 -1 -1 1 1
;
#X obj -342 239 s \$0-toInstrument;
#N canvas 487 235 580 405 instr 0;
#X obj 81 -324 inlet;
#X obj 134 17 outlet~;
#X obj 82 -271 route monitor;
#X obj 164 -220 route 0 1 2 3;
#X obj 190 -118 birdOsc~;
#X obj 161 -178 birdOsc~;
#X obj 181 -145 birdOsc~;
#X obj 192 -71 birdOsc~;
#X obj 86 -208 birdOsc~;
#X obj 267 -209 loadbang;
#X msg 322 -145 shape sine;
#X msg 326 -116 shape saw;
#X msg 130 -247 env a 300 \, d 200 \, s 1000 \, r 500;
#X obj 99 -116 *~ 3;
#X msg 292 -58 shape saw;
#X msg 266 -181 env a 500 \, d 200 \, s 200 \, r 500;
#X connect 0 0 2 0;
#X connect 2 0 8 0;
#X connect 2 1 3 0;
#X connect 3 0 5 0;
#X connect 3 1 6 0;
#X connect 3 2 4 0;
#X connect 3 3 7 0;
#X connect 4 0 1 0;
#X connect 5 0 1 0;
#X connect 6 0 1 0;
#X connect 7 0 1 0;
#X connect 8 0 13 0;
#X connect 9 0 15 0;
#X connect 10 0 4 1;
#X connect 11 0 6 1;
#X connect 12 0 8 1;
#X connect 13 0 1 0;
#X connect 14 0 7 1;
#X connect 15 0 7 1;
#X restore -285 419 pd instr 1;
#X obj -284 393 r \$0-toInstrument;
#X obj 513 327 hsl 128 15 0 1 0 0 empty empty empty -2 -8 0 10 -262144
-1 -1 0 1;
#X msg 513 351 volume \$1;
#X obj -278 8 t a a;
#X obj -316 118 list append;
#X obj -316 144 list trim;
#X msg 174 -36 countin 8;
#X obj -275 214 print notes;
#X obj -142 67 t b;
#X msg -142 88 0;
#X obj -252 46 route clock quant record length;
#X floatatom -253 81 5 0 0 0 - - -;
#X floatatom -207 70 5 0 0 0 - - -;
#X obj -209 93 / 2;
#X floatatom -211 127 5 0 0 0 - - -;
#X obj -211 150 + 0.5;
#X obj -213 176 int;
#X floatatom -168 194 5 0 0 0 - - -;
#X floatatom -130 138 5 0 0 0 - - -;
#X obj 451 323 birdFX~;
#X obj 155 114 *~ 0.75;
#X msg 275 36 tempo \$1;
#X floatatom 277 12 5 0 0 0 - - -;
#X obj 447 510 writesf~ 2;
#X obj 476 391 birdSqueeze;
#X obj 444 368 birdSqueeze;
#X msg 525 469 open game_music1.wav;
#X msg 525 497 start;
#X msg 528 525 stop;
#X connect 0 0 19 0;
#X connect 1 0 25 0;
#X connect 2 0 24 0;
#X connect 3 0 15 0;
#X connect 5 0 15 0;
#X connect 6 0 15 0;
#X connect 7 0 15 0;
#X connect 8 0 15 0;
#X connect 9 0 15 1;
#X connect 10 0 9 0;
#X connect 12 0 44 0;
#X connect 12 1 44 1;
#X connect 13 0 40 0;
#X connect 15 0 4 0;
#X connect 15 1 41 0;
#X connect 16 0 15 1;
#X connect 17 0 15 1;
#X connect 18 0 17 0;
#X connect 20 0 11 0;
#X connect 21 0 20 0;
#X connect 22 0 23 0;
#X connect 23 0 12 2;
#X connect 24 0 0 1;
#X connect 24 1 31 0;
#X connect 25 0 26 0;
#X connect 26 0 0 0;
#X connect 26 0 28 0;
#X connect 27 0 15 1;
#X connect 29 0 30 0;
#X connect 30 0 25 1;
#X connect 31 0 39 0;
#X connect 31 1 33 0;
#X connect 31 2 29 0;
#X connect 33 0 34 0;
#X connect 34 0 35 0;
#X connect 35 0 36 0;
#X connect 36 0 37 0;
#X connect 37 0 38 0;
#X connect 37 0 32 0;
#X connect 37 0 25 1;
#X connect 40 0 46 0;
#X connect 40 1 45 0;
#X connect 41 0 14 0;
#X connect 42 0 15 1;
#X connect 43 0 42 0;
#X connect 45 0 12 1;
#X connect 46 0 12 0;
#X connect 47 0 44 0;
#X connect 48 0 44 0;
#X connect 49 0 44 0;
