#N canvas 0 23 1440 804 10;
#X obj 441 24 inlet;
#X obj 448 192 mtof;
#X obj 903 421 inlet;
#X obj 454 816 outlet~;
#X obj 587 504 select 0 1;
#X obj 612 532 t b b;
#X obj 561 556 t b b;
#X obj 615 610 switch~;
#X msg 641 557 1;
#X msg 608 558 1;
#X obj 542 658 lop~ 1;
#X msg 584 582 0;
#X obj 560 606 del 30;
#X msg 561 632 0;
#X obj 456 688 *~;
#X obj 588 473 r \$0-switch;
#X obj 444 294 line;
#X msg 445 250 \$1 \$2;
#X obj 444 224 pack f f;
#X obj 947 715 s \$0-gliss;
#X obj 487 136 r \$0-gliss;
#X obj 442 51 t f f;
#X obj 443 146 sel 0;
#X obj 482 174 bng 15 250 50 0 empty empty empty 17 7 0 10 -262144
-1 -1;
#X msg 500 263 stop;
#X obj 454 109 f;
#X obj 482 193 t b b;
#X obj 948 555 *;
#X obj 1004 574 swap 60000;
#X obj 1016 598 /;
#N canvas 72 22 1345 696 wave1 1;
#N canvas 621 248 450 300 square 0;
#X obj 28 205 *~;
#X obj 29 249 outlet~;
#X obj 119 -44 inlet;
#X obj 121 34 select 0 1;
#X obj 207 141 switch~;
#X obj 180 70 t b b;
#X msg 205 109 1;
#X msg 171 109 1;
#X obj 46 184 lop~ 1;
#X obj 113 70 t b b;
#X msg 138 109 0;
#X obj 104 90 del 30;
#X msg 104 109 0;
#X obj -110 94 expr~ if($v1<0.5 \, -1 \, 1);
#X obj -112 -4 inlet;
#X obj -110 47 phasor~;
#X connect 0 0 1 0;
#X connect 2 0 3 0;
#X connect 3 0 9 0;
#X connect 3 1 5 0;
#X connect 5 0 7 0;
#X connect 5 1 6 0;
#X connect 6 0 4 0;
#X connect 7 0 8 0;
#X connect 8 0 0 1;
#X connect 9 0 11 0;
#X connect 9 1 10 0;
#X connect 10 0 8 0;
#X connect 11 0 12 0;
#X connect 12 0 4 0;
#X connect 13 0 0 0;
#X connect 14 0 15 0;
#X connect 15 0 13 0;
#X restore -17 364 pd square;
#X obj 935 690 hip~ 5;
#X obj 934 735 outlet~;
#N canvas 378 177 901 641 sin1 0;
#X obj 248 165 inlet;
#X obj 250 243 select 0 1;
#X obj 336 350 switch~;
#X obj 309 279 t b b;
#X msg 334 318 1;
#X msg 300 318 1;
#X obj 174 439 lop~ 1;
#X obj 242 279 t b b;
#X msg 267 318 0;
#X obj 233 299 del 30;
#X msg 233 318 0;
#X obj 140 476 *~;
#X obj 135 238 osc~;
#X obj 143 576 outlet~;
#X obj 136 155 inlet;
#X obj 178 306 osc~;
#X obj 196 344 osc~;
#X obj 177 223 * 2;
#X obj 190 254 * 3;
#X obj 173 370 *~ 0.5;
#X obj 184 398 *~ 0.25;
#X obj 140 534 *~ 1.1;
#X connect 0 0 1 0;
#X connect 1 0 7 0;
#X connect 1 1 3 0;
#X connect 3 0 5 0;
#X connect 3 1 4 0;
#X connect 4 0 2 0;
#X connect 5 0 6 0;
#X connect 6 0 11 1;
#X connect 7 0 9 0;
#X connect 7 1 8 0;
#X connect 8 0 6 0;
#X connect 9 0 10 0;
#X connect 10 0 2 0;
#X connect 11 0 21 0;
#X connect 12 0 11 0;
#X connect 14 0 12 0;
#X connect 14 0 17 0;
#X connect 14 0 18 0;
#X connect 15 0 19 0;
#X connect 16 0 20 0;
#X connect 17 0 15 0;
#X connect 18 0 16 0;
#X connect 19 0 11 0;
#X connect 20 0 11 0;
#X connect 21 0 13 0;
#X restore 192 382 pd sin1;
#X obj 109 24 inlet;
#X obj 933 608 catch~ \$0-out1;
#X obj 110 53 s \$0-pitch1;
#X obj -16 292 r \$0-pitch1;
#X obj 191 298 r \$0-pitch1;
#X obj 194 461 throw~ \$0-out1;
#X obj -20 468 throw~ \$0-out1;
#X obj 55 309 r \$0-wave1;
#X obj 52 338 == 0;
#X obj 256 318 r \$0-wave1;
#X obj 407 470 throw~ \$0-out1;
#X obj 409 316 r \$0-pitch1;
#X obj 473 339 r \$0-wave1;
#X msg 475 388 switch \$1;
#X obj 410 408 mm_blsq12~;
#X obj 934 637 *~ 1.1;
#X obj 89 392 sel 1;
#X msg 89 421 square;
#X obj 101 451 s \$0-wave;
#X obj 299 409 sel 1;
#X obj 311 468 s \$0-wave;
#X msg 299 438 sine;
#X obj 494 213 sel 1;
#X obj 506 272 s \$0-wave;
#X msg 494 242 bl_sqaure12;
#X obj 195 425 *~ 1.5;
#X obj 253 347 == 2;
#N canvas 378 177 901 641 sin1 0;
#X obj 248 165 inlet;
#X obj 250 243 select 0 1;
#X obj 336 350 switch~;
#X obj 309 279 t b b;
#X msg 334 318 1;
#X msg 300 318 1;
#X obj 174 439 lop~ 1;
#X obj 242 279 t b b;
#X msg 267 318 0;
#X obj 233 299 del 30;
#X msg 233 318 0;
#X obj 140 476 *~;
#X obj 135 238 osc~;
#X obj 143 576 outlet~;
#X obj 136 155 inlet;
#X obj 178 306 osc~;
#X obj 196 344 osc~;
#X obj 177 223 * 2;
#X obj 190 254 * 3;
#X obj 173 370 *~ 0.5;
#X obj 184 398 *~ 0.25;
#X obj 140 534 *~ 1.1;
#X connect 0 0 1 0;
#X connect 1 0 7 0;
#X connect 1 1 3 0;
#X connect 3 0 5 0;
#X connect 3 1 4 0;
#X connect 4 0 2 0;
#X connect 5 0 6 0;
#X connect 6 0 11 1;
#X connect 7 0 9 0;
#X connect 7 1 8 0;
#X connect 8 0 6 0;
#X connect 9 0 10 0;
#X connect 10 0 2 0;
#X connect 11 0 21 0;
#X connect 12 0 11 0;
#X connect 14 0 12 0;
#X connect 14 0 17 0;
#X connect 14 0 18 0;
#X connect 15 0 19 0;
#X connect 16 0 20 0;
#X connect 17 0 15 0;
#X connect 18 0 16 0;
#X connect 19 0 11 0;
#X connect 20 0 11 0;
#X connect 21 0 13 0;
#X restore 599 380 pd sin1;
#X obj 598 296 r \$0-pitch1;
#X obj 601 459 throw~ \$0-out1;
#X obj 663 316 r \$0-wave1;
#X obj 706 407 sel 1;
#X obj 718 466 s \$0-wave;
#X msg 706 436 sine;
#X obj 602 423 *~ 1.5;
#X obj 660 345 == 3;
#X obj -21 410 *~ 0.25;
#X obj 407 443 *~ 0.9;
#N canvas 621 248 450 300 square 0;
#X obj 28 205 *~;
#X obj 29 249 outlet~;
#X obj 119 -44 inlet;
#X obj 121 34 select 0 1;
#X obj 207 141 switch~;
#X obj 180 70 t b b;
#X msg 205 109 1;
#X msg 171 109 1;
#X obj 46 184 lop~ 1;
#X obj 113 70 t b b;
#X msg 138 109 0;
#X obj 104 90 del 30;
#X msg 104 109 0;
#X obj -110 94 expr~ if($v1<0.5 \, -1 \, 1);
#X obj -112 -4 inlet;
#X obj -110 47 phasor~;
#X connect 0 0 1 0;
#X connect 2 0 3 0;
#X connect 3 0 9 0;
#X connect 3 1 5 0;
#X connect 5 0 7 0;
#X connect 5 1 6 0;
#X connect 6 0 4 0;
#X connect 7 0 8 0;
#X connect 8 0 0 1;
#X connect 9 0 11 0;
#X connect 9 1 10 0;
#X connect 10 0 8 0;
#X connect 11 0 12 0;
#X connect 12 0 4 0;
#X connect 13 0 0 0;
#X connect 14 0 15 0;
#X connect 15 0 13 0;
#X restore 844 342 pd square;
#X obj 845 270 r \$0-pitch1;
#X obj 841 446 throw~ \$0-out1;
#X obj 916 287 r \$0-wave1;
#X obj 950 370 sel 1;
#X msg 950 399 square;
#X obj 962 429 s \$0-wave;
#X obj 840 388 *~ 0.25;
#X obj 913 316 == 1;
#X obj 475 361 == -1;
#X connect 0 0 40 0;
#X connect 1 0 2 0;
#X connect 3 0 29 0;
#X connect 4 0 6 0;
#X connect 5 0 19 0;
#X connect 7 0 0 0;
#X connect 8 0 3 0;
#X connect 11 0 12 0;
#X connect 12 0 0 1;
#X connect 12 0 20 0;
#X connect 13 0 30 0;
#X connect 15 0 18 0;
#X connect 16 0 51 0;
#X connect 17 0 18 1;
#X connect 18 0 41 0;
#X connect 19 0 1 0;
#X connect 20 0 21 0;
#X connect 21 0 22 0;
#X connect 23 0 25 0;
#X connect 25 0 24 0;
#X connect 26 0 28 0;
#X connect 28 0 27 0;
#X connect 29 0 9 0;
#X connect 30 0 3 1;
#X connect 30 0 23 0;
#X connect 31 0 38 0;
#X connect 32 0 31 0;
#X connect 34 0 39 0;
#X connect 35 0 37 0;
#X connect 37 0 36 0;
#X connect 38 0 33 0;
#X connect 39 0 31 1;
#X connect 39 0 35 0;
#X connect 40 0 10 0;
#X connect 41 0 14 0;
#X connect 42 0 49 0;
#X connect 43 0 42 0;
#X connect 45 0 50 0;
#X connect 46 0 47 0;
#X connect 47 0 48 0;
#X connect 49 0 44 0;
#X connect 50 0 42 1;
#X connect 50 0 46 0;
#X connect 51 0 17 0;
#X connect 51 0 26 0;
#X restore 447 377 pd wave1;
#X obj 947 680 *;
#X obj 905 513 s \$0-switch;
#X obj 1061 532 s \$0-list;
#X obj 887 12 r \$0-list;
#X obj 887 39 list-enumerate;
#N canvas 1130 155 450 300 s 0;
#X obj 37 102 + 0.5;
#X obj 36 127 int;
#X obj 35 15 inlet;
#X obj 35 157 outlet;
#X obj 36 76 / 14.2857;
#X connect 0 0 1 0;
#X connect 1 0 3 0;
#X connect 2 0 4 0;
#X connect 4 0 0 0;
#X restore 833 104 pd s;
#X obj 1251 667 s \$0-wave1;
#N canvas 1130 155 450 300 s 0;
#X obj 31 36 inlet;
#X obj 35 157 outlet;
#X obj 36 76 * 0.01;
#X obj 37 102 *;
#X obj 36 127 * 220;
#X connect 0 0 2 0;
#X connect 2 0 3 1;
#X connect 2 0 3 0;
#X connect 3 0 4 0;
#X connect 4 0 1 0;
#X restore 900 135 pd s;
#N canvas 1130 155 450 300 s 0;
#X obj 31 36 inlet;
#X obj 35 157 outlet;
#X obj 36 76 * 0.01;
#X obj 37 102 *;
#X obj 36 127 * 1000;
#X connect 0 0 2 0;
#X connect 2 0 3 1;
#X connect 2 0 3 0;
#X connect 3 0 4 0;
#X connect 4 0 1 0;
#X restore 914 179 pd s;
#X obj 926 226 s \$0-rgliss;
#X obj 945 422 r \$0-rgliss;
#X msg 941 464 gliss \$1;
#X obj 949 278 + 50;
#X obj 948 303 s \$0-sub1Q;
#X obj 967 371 s \$0-xyloDec;
#X obj 968 323 * 2;
#X obj 991 394 s \$0-strLen;
#X obj 887 66 route 0 1 2 3 4 5 6;
#X msg 693 472 1;
#X obj 692 440 loadbang;
#X floatatom 784 142 5 0 0 0 - - -;
#X floatatom 809 176 5 0 0 0 - - -;
#X floatatom 830 224 5 0 0 0 - - -;
#X floatatom 860 320 5 0 0 0 - - -;
#X floatatom 879 388 5 0 0 0 - - -;
#X floatatom 1054 182 5 0 0 0 - - -;
#X obj 942 447 * 0.01;
#X obj 1015 626 * 0.375;
#X obj 949 250 * 5;
#X obj 904 486 route switch gliss tempo randomlist wave;
#X obj 1149 626 s \$0-wave1;
#X obj 968 347 + 30;
#X obj 898 159 s \$0-mf;
#X obj 912 203 s \$0-ma;
#X msg 540 263 0;
#X obj 1090 219 outlet;
#X obj 1091 160 r \$0-wave1;
#X obj 681 44 bng 15 250 50 0 empty empty empty 17 7 0 10 -262144 -1
-1;
#X obj 757 38 random 100;
#X floatatom 763 75 5 0 0 0 - - -;
#X floatatom 790 111 5 0 0 0 - - -;
#X obj 1248 589 t b;
#X obj 735 227 s \$0-wave1;
#X obj 732 177 t b;
#X obj 736 201 random 4;
#X obj 1252 613 random 4;
#X obj 507 345 * 2;
#X obj 514 410 *~ 0.5;
#X obj 515 377 mm_bsosc~;
#X obj 572 337 r \$0-wave1;
#X connect 0 0 21 0;
#X connect 1 0 18 0;
#X connect 2 0 60 0;
#X connect 4 0 6 0;
#X connect 4 1 5 0;
#X connect 5 0 9 0;
#X connect 5 1 8 0;
#X connect 6 0 12 0;
#X connect 6 1 11 0;
#X connect 8 0 10 0;
#X connect 9 0 7 0;
#X connect 10 0 14 1;
#X connect 11 0 10 0;
#X connect 12 0 13 0;
#X connect 13 0 7 0;
#X connect 14 0 3 0;
#X connect 15 0 4 0;
#X connect 16 0 30 0;
#X connect 16 0 77 0;
#X connect 17 0 16 0;
#X connect 18 0 17 0;
#X connect 20 0 18 1;
#X connect 21 0 22 0;
#X connect 21 1 25 1;
#X connect 22 0 23 0;
#X connect 22 1 25 0;
#X connect 23 0 26 0;
#X connect 24 0 16 0;
#X connect 25 0 1 0;
#X connect 26 0 65 0;
#X connect 26 1 24 0;
#X connect 27 0 31 0;
#X connect 28 0 29 0;
#X connect 28 1 29 1;
#X connect 29 0 58 0;
#X connect 30 0 14 0;
#X connect 31 0 19 0;
#X connect 34 0 35 0;
#X connect 35 0 48 0;
#X connect 36 0 51 0;
#X connect 36 0 74 0;
#X connect 38 0 52 0;
#X connect 39 0 53 0;
#X connect 41 0 57 0;
#X connect 42 0 60 0;
#X connect 43 0 44 0;
#X connect 43 0 54 0;
#X connect 46 0 62 0;
#X connect 48 0 36 0;
#X connect 48 0 71 0;
#X connect 48 1 38 0;
#X connect 48 2 39 0;
#X connect 48 3 40 0;
#X connect 48 4 59 0;
#X connect 48 5 46 0;
#X connect 48 6 47 0;
#X connect 48 6 56 0;
#X connect 49 0 4 0;
#X connect 50 0 49 0;
#X connect 57 0 42 0;
#X connect 58 0 31 1;
#X connect 59 0 43 0;
#X connect 60 0 32 0;
#X connect 60 1 27 1;
#X connect 60 1 27 0;
#X connect 60 2 28 0;
#X connect 60 3 33 0;
#X connect 60 4 72 0;
#X connect 62 0 45 0;
#X connect 62 0 55 0;
#X connect 65 0 16 0;
#X connect 67 0 66 0;
#X connect 68 0 69 0;
#X connect 70 0 36 0;
#X connect 72 0 76 0;
#X connect 74 0 75 0;
#X connect 75 0 73 0;
#X connect 76 0 37 0;
#X connect 77 0 79 0;
#X connect 78 0 14 0;
#X connect 79 0 78 0;
#X connect 80 0 79 1;
