#N canvas 145 135 1440 804 10;
#X obj 441 24 inlet;
#X obj 448 192 mtof;
#X obj 903 421 inlet;
#X obj 454 816 outlet~;
#X obj 587 504 select 0 1;
#X obj 612 532 t b b;
#X obj 561 556 t b b;
#X obj 615 610 switch~;
#X msg 641 557 1;
#X msg 608 558 1;
#X obj 542 658 lop~ 1;
#X msg 584 582 0;
#X obj 560 606 del 30;
#X msg 561 632 0;
#X obj 456 688 *~;
#X obj 588 473 r \$0-switch;
#X obj 444 294 line;
#X msg 445 250 \$1 \$2;
#X obj 444 224 pack f f;
#X obj 947 715 s \$0-gliss;
#X obj 487 136 r \$0-gliss;
#X obj 442 51 t f f;
#X obj 443 146 sel 0;
#X obj 482 174 bng 15 250 50 0 empty empty empty 17 7 0 10 -262144
-1 -1;
#X msg 500 263 stop;
#X obj 454 109 f;
#X obj 482 193 t b b;
#X obj 948 555 *;
#X obj 1004 574 swap 60000;
#X obj 1016 598 /;
#X obj 947 680 *;
#X obj 905 513 s \$0-switch;
#X obj 1061 532 s \$0-list;
#X obj 887 12 r \$0-list;
#X obj 887 39 list-enumerate;
#N canvas 1130 155 450 300 s 0;
#X obj 37 102 + 0.5;
#X obj 36 127 int;
#X obj 35 15 inlet;
#X obj 35 157 outlet;
#X obj 36 76 / 7.6923;
#X connect 0 0 1 0;
#X connect 1 0 3 0;
#X connect 2 0 4 0;
#X connect 4 0 0 0;
#X restore 887 90 pd s;
#X obj 687 133 s \$0-wave1;
#N canvas 1130 155 450 300 s 0;
#X obj 31 36 inlet;
#X obj 35 157 outlet;
#X obj 36 76 * 0.01;
#X obj 37 102 *;
#X obj 36 127 * 220;
#X connect 0 0 2 0;
#X connect 2 0 3 1;
#X connect 2 0 3 0;
#X connect 3 0 4 0;
#X connect 4 0 1 0;
#X restore 900 135 pd s;
#N canvas 1130 155 450 300 s 0;
#X obj 31 36 inlet;
#X obj 35 157 outlet;
#X obj 36 76 * 0.01;
#X obj 37 102 *;
#X obj 36 127 * 1000;
#X connect 0 0 2 0;
#X connect 2 0 3 1;
#X connect 2 0 3 0;
#X connect 3 0 4 0;
#X connect 4 0 1 0;
#X restore 914 179 pd s;
#X obj 926 226 s \$0-rgliss;
#X obj 945 422 r \$0-rgliss;
#X msg 941 464 gliss \$1;
#X obj 949 278 + 50;
#X obj 948 303 s \$0-sub1Q;
#X obj 967 371 s \$0-xyloDec;
#X obj 968 323 * 2;
#X obj 991 394 s \$0-strLen;
#X obj 887 66 route 0 1 2 3 4 5 6;
#X msg 693 472 1;
#X obj 692 440 loadbang;
#X floatatom 784 142 5 0 0 0 - - -;
#X floatatom 809 176 5 0 0 0 - - -;
#X floatatom 830 224 5 0 0 0 - - -;
#X floatatom 860 320 5 0 0 0 - - -;
#X floatatom 879 388 5 0 0 0 - - -;
#X floatatom 1054 182 5 0 0 0 - - -;
#X obj 942 447 * 0.01;
#X obj 1015 626 * 0.375;
#X obj 949 250 * 5;
#X obj 601 693 *~;
#X obj 628 814 outlet~;
#X obj 904 486 route switch gliss tempo randomlist wave;
#X obj 1127 530 s \$0-wave1;
#X obj 968 347 + 30;
#X obj 898 159 s \$0-mf;
#X obj 912 203 s \$0-ma;
#X msg 759 33 0;
#X msg 540 263 0;
#X obj 1090 219 outlet;
#X obj 1091 160 r \$0-wave1;
#X obj 577 260 r \$0-wave1;
#X obj 717 314 t b;
#N canvas 1130 155 450 300 s 0;
#X obj 37 102 + 0.5;
#X obj 36 127 int;
#X obj 35 15 inlet;
#X obj 35 157 outlet;
#X obj 36 76 / 7.6923;
#X connect 0 0 1 0;
#X connect 1 0 3 0;
#X connect 2 0 4 0;
#X connect 4 0 0 0;
#X restore 662 311 pd s;
#X obj 686 64 t b;
#X obj 686 86 random 14;
#X obj 1150 686 s \$0-wave1;
#X obj 1149 617 t b;
#X obj 1149 639 random 14;
#X obj 716 339 random 14;
#X obj 484 373 mm_rhodes~;
#X msg 484 320 \$1 100;
#X obj 544 331 r \$0-wave1;
#X connect 0 0 21 0;
#X connect 1 0 18 0;
#X connect 2 0 61 0;
#X connect 4 0 6 0;
#X connect 4 1 5 0;
#X connect 5 0 9 0;
#X connect 5 1 8 0;
#X connect 6 0 12 0;
#X connect 6 1 11 0;
#X connect 8 0 10 0;
#X connect 9 0 7 0;
#X connect 10 0 14 1;
#X connect 10 0 59 1;
#X connect 11 0 10 0;
#X connect 12 0 13 0;
#X connect 13 0 7 0;
#X connect 14 0 3 0;
#X connect 15 0 4 0;
#X connect 17 0 16 0;
#X connect 18 0 17 0;
#X connect 20 0 18 1;
#X connect 21 0 22 0;
#X connect 21 1 25 1;
#X connect 22 0 23 0;
#X connect 22 1 25 0;
#X connect 23 0 26 0;
#X connect 24 0 16 0;
#X connect 25 0 1 0;
#X connect 25 0 80 0;
#X connect 26 0 67 0;
#X connect 26 1 24 0;
#X connect 27 0 30 0;
#X connect 28 0 29 0;
#X connect 28 1 29 1;
#X connect 29 0 57 0;
#X connect 30 0 19 0;
#X connect 33 0 34 0;
#X connect 34 0 47 0;
#X connect 35 0 50 0;
#X connect 37 0 51 0;
#X connect 38 0 52 0;
#X connect 40 0 56 0;
#X connect 41 0 61 0;
#X connect 42 0 43 0;
#X connect 42 0 53 0;
#X connect 45 0 63 0;
#X connect 47 0 35 0;
#X connect 47 0 73 0;
#X connect 47 1 37 0;
#X connect 47 2 38 0;
#X connect 47 3 39 0;
#X connect 47 4 58 0;
#X connect 47 5 45 0;
#X connect 47 6 46 0;
#X connect 47 6 55 0;
#X connect 48 0 4 0;
#X connect 49 0 48 0;
#X connect 56 0 41 0;
#X connect 57 0 30 1;
#X connect 58 0 42 0;
#X connect 59 0 60 0;
#X connect 61 0 31 0;
#X connect 61 1 27 1;
#X connect 61 1 27 0;
#X connect 61 2 28 0;
#X connect 61 3 32 0;
#X connect 61 4 76 0;
#X connect 63 0 44 0;
#X connect 63 0 54 0;
#X connect 66 0 35 0;
#X connect 67 0 16 0;
#X connect 69 0 68 0;
#X connect 71 0 78 0;
#X connect 73 0 74 0;
#X connect 74 0 36 0;
#X connect 76 0 77 0;
#X connect 77 0 75 0;
#X connect 79 0 59 0;
#X connect 79 0 14 0;
#X connect 80 0 79 0;
#X connect 81 0 79 1;
