#N canvas 0 22 1211 588 10;
#X obj 623 350 mm_stirling;
#X obj 670 212 f 2.71828;
#X obj 670 280 pow;
#X obj 693 256 * -1;
#X obj 587 211 f;
#X obj 590 273 pow;
#X obj 590 305 *;
#X obj 587 164 t b f f;
#X obj 594 371 /;
#X obj 636 164 t b f b f;
#X obj 636 124 \$1;
#X obj 584 60 inlet;
#X obj 636 62 inlet;
#X obj 674 88 loadbang;
#X obj 594 407 outlet;
#X connect 0 0 8 1;
#X connect 1 0 2 0;
#X connect 2 0 6 1;
#X connect 3 0 2 1;
#X connect 4 0 5 0;
#X connect 5 0 6 0;
#X connect 6 0 8 0;
#X connect 7 0 4 0;
#X connect 7 1 5 1;
#X connect 7 2 0 0;
#X connect 8 0 14 0;
#X connect 9 0 4 0;
#X connect 9 1 4 1;
#X connect 9 2 1 0;
#X connect 9 3 3 0;
#X connect 10 0 9 0;
#X connect 11 0 7 0;
#X connect 12 0 10 0;
#X connect 13 0 10 0;
