#N canvas 275 55 1165 730 10;
#X obj 751 -76 inlet;
#X obj 367 921 outlet~;
#X obj 374 730 vline~;
#X msg 375 698 0 \, 0 0;
#X obj 316 634 bng 15 250 50 0 empty empty empty 17 7 0 10 -262144
-1 -1;
#X msg 402 469 set 0;
#X msg 387 501 addcomma;
#X obj 401 551 r \$0-play;
#X msg 246 536 add2 \$1 \$2;
#X obj 367 896 *~;
#X obj 422 819 vline~;
#X msg 510 725 0 10 \, 1 10 10 \, 0 30 -50;
#X msg 551 639 addcomma;
#X obj 533 571 r \$0-duration;
#X obj 533 593 t f b b b b;
#X obj 415 844 *~;
#X obj 396 631 t b b;
#X obj 795 1 s \$0-tempo;
#N canvas 324 22 684 631 tempo 0;
#X obj 348 100 swap 60000;
#X obj 348 125 /;
#X obj 344 318 swap 1;
#X obj 345 343 /;
#X obj 320 372 *;
#X obj 293 13 inlet;
#X obj 349 462 outlet;
#X obj 293 36 unpack f f f;
#X obj 348 154 *;
#X obj 294 155 t f f b;
#X obj 337 189 samplerate~;
#X obj 316 214 /;
#X obj 316 235 * 0.001;
#X obj 317 261 t f f;
#X obj 344 285 /;
#X obj 321 403 t f f;
#X obj 274 433 pack f f;
#X obj 274 464 outlet;
#X connect 0 0 1 0;
#X connect 0 1 1 1;
#X connect 1 0 8 0;
#X connect 2 0 3 0;
#X connect 2 1 3 1;
#X connect 3 0 4 1;
#X connect 4 0 15 0;
#X connect 5 0 7 0;
#X connect 7 0 9 0;
#X connect 7 1 0 0;
#X connect 7 2 8 1;
#X connect 8 0 14 1;
#X connect 9 0 16 0;
#X connect 9 1 11 0;
#X connect 9 2 10 0;
#X connect 10 0 11 1;
#X connect 11 0 12 0;
#X connect 12 0 13 0;
#X connect 13 0 4 0;
#X connect 13 1 14 0;
#X connect 14 0 2 0;
#X connect 15 0 16 1;
#X connect 15 1 6 0;
#X connect 16 0 17 0;
#X restore 243 421 pd tempo;
#X obj 873 520 soundfiler;
#X obj 874 578 \$0;
#X obj 748 -24 s \$0-sample;
#X obj 894 150 r \$0-sample;
#X obj 874 547 t b f;
#X obj 244 228 r \$0-length;
#X obj 296 503 s \$0-duration;
#X obj 261 263 r \$0-tempo;
#X obj 261 295 t b f;
#X obj 370 440 t b b;
#X obj 244 389 t a b;
#X obj 783 -132 loadbang;
#X obj 192 -109 inlet;
#X obj 243 362 pack f f f;
#X obj 330 262 r \$0-beats;
#X obj 329 294 t b f;
#X obj 600 865 del;
#X obj 616 821 r \$0-duration;
#X obj 601 754 r \$0-play;
#X obj 602 891 outlet;
#X obj 604 792 t b;
#X obj 461 580 bng 15 250 50 0 empty empty empty 17 7 0 10 -262144
-1 -1;
#X msg 602 622 set 0 10;
#X msg 554 661 add2 1 10 10;
#X msg 516 680 add2 0 30 \$1;
#X obj 517 642 - 50;
#X obj 1276 -80 table \$0-sampler-0;
#X obj 1278 -48 table \$0-sampler-1;
#X msg 874 490 read -resize eastern1.wav 1207-sampler-2;
#X obj 894 177 list split 1;
#X obj 893 211 list prepend set read -resize;
#X obj 873 423 list append;
#X obj 932 258 pack f \$0;
#X obj 873 445 list trim;
#X msg 931 282 \$2-sampler-\$1;
#X obj 932 303 t a a;
#X obj 959 353 list prepend;
#X obj 958 377 list trim;
#X obj 958 403 s \$0-sampleID;
#X obj 959 332 list prepend set set;
#N canvas 630 134 810 515 samples 0;
#X obj 59 72 r \$0-sampleID;
#X obj 58 100 route 0 1 2;
#X msg 58 127 set 1207-sampler-0;
#X msg 76 147 set 1207-sampler-1;
#X msg 99 169 set 1207-sampler-2;
#X obj 197 64 r \$0-sampleLength;
#X obj 197 93 route 0 1 2;
#X obj 347 91 route 0 1 2;
#X obj 348 67 r \$0-sampleBeats;
#X obj 37 17 inlet;
#X obj 37 40 t f f f;
#X obj 63 243 outlet;
#X obj 207 252 outlet;
#X obj 383 246 outlet;
#X msg 196 119 47360;
#X msg 211 143 84893;
#X msg 229 166 110103;
#X msg 349 116 2;
#X msg 364 140 4;
#X msg 388 166 4;
#X connect 0 0 1 0;
#X connect 1 0 2 0;
#X connect 1 1 3 0;
#X connect 1 2 4 0;
#X connect 2 0 11 0;
#X connect 3 0 11 0;
#X connect 4 0 11 0;
#X connect 5 0 6 0;
#X connect 6 0 14 0;
#X connect 6 1 15 0;
#X connect 6 2 16 0;
#X connect 7 0 17 0;
#X connect 7 1 18 0;
#X connect 7 2 19 0;
#X connect 8 0 7 0;
#X connect 9 0 10 0;
#X connect 10 0 1 0;
#X connect 10 1 6 0;
#X connect 10 2 7 0;
#X connect 14 0 12 0;
#X connect 15 0 12 0;
#X connect 16 0 12 0;
#X connect 17 0 13 0;
#X connect 18 0 13 0;
#X connect 19 0 13 0;
#X restore 545 227 pd samples;
#X obj 943 600 list prepend;
#X obj 943 628 list trim;
#X obj 943 653 s \$0-sampleLength;
#X floatatom 816 558 5 0 0 0 - - -;
#X obj 942 573 list prepend set;
#X obj 874 465 t b a;
#X obj 602 256 s \$0-beats;
#X obj 573 280 s \$0-length;
#X obj 544 314 s \$0-setSample;
#X obj 841 25 list split 1;
#X obj 840 49 list prepend set;
#X obj 838 70 list prepend;
#X obj 838 94 list trim;
#X obj 836 118 s \$0-sampleBeats;
#X msg 777 -96 tempo 120;
#X obj 544 204 change;
#X obj 193 20 t b f;
#X obj 221 56 s \$0-loadSample;
#X obj 544 182 r \$0-loadSample;
#X obj 195 78 s \$0-play;
#X obj 1280 -17 table \$0-sampler-2;
#X obj 192 -79 route play;
#X obj 193 -41 random 3;
#X obj 429 739 r \$0-setSample;
#X obj 373 788 tabread4~;
#X obj 929 233 t f f f;
#X obj 1009 542 t f f;
#X obj 879 710 pack f f;
#X msg 878 765 \; \$1-sampler-\$2 normalize 1;
#X obj 749 -51 route sample tempo beats;
#X connect 0 0 89 0;
#X connect 2 0 84 0;
#X connect 3 0 2 0;
#X connect 4 0 3 0;
#X connect 5 0 3 0;
#X connect 6 0 3 0;
#X connect 7 0 16 0;
#X connect 8 0 3 0;
#X connect 9 0 1 0;
#X connect 10 0 15 1;
#X connect 10 0 15 0;
#X connect 11 0 10 0;
#X connect 12 0 11 0;
#X connect 13 0 14 0;
#X connect 14 0 44 0;
#X connect 14 1 12 0;
#X connect 14 2 42 0;
#X connect 14 3 12 0;
#X connect 14 4 41 0;
#X connect 15 0 9 1;
#X connect 16 0 3 0;
#X connect 16 1 11 0;
#X connect 18 0 8 0;
#X connect 18 1 25 0;
#X connect 19 0 23 0;
#X connect 19 0 63 0;
#X connect 20 0 87 0;
#X connect 22 0 48 0;
#X connect 23 0 20 0;
#X connect 23 1 64 0;
#X connect 24 0 32 0;
#X connect 26 0 27 0;
#X connect 27 0 32 0;
#X connect 27 1 32 1;
#X connect 28 0 6 0;
#X connect 28 1 5 0;
#X connect 29 0 18 0;
#X connect 29 1 28 0;
#X connect 30 0 74 0;
#X connect 31 0 81 0;
#X connect 32 0 29 0;
#X connect 33 0 34 0;
#X connect 34 0 32 0;
#X connect 34 1 32 2;
#X connect 35 0 38 0;
#X connect 36 0 35 1;
#X connect 37 0 39 0;
#X connect 39 0 35 0;
#X connect 40 0 16 0;
#X connect 41 0 11 0;
#X connect 42 0 11 0;
#X connect 43 0 11 0;
#X connect 44 0 43 0;
#X connect 47 0 19 0;
#X connect 48 0 49 0;
#X connect 48 1 85 0;
#X connect 49 0 50 0;
#X connect 50 0 52 0;
#X connect 51 0 53 0;
#X connect 52 0 65 0;
#X connect 53 0 54 0;
#X connect 54 0 50 1;
#X connect 54 1 58 0;
#X connect 55 0 56 0;
#X connect 56 0 57 0;
#X connect 58 0 55 0;
#X connect 59 0 68 0;
#X connect 59 1 67 0;
#X connect 59 2 66 0;
#X connect 60 0 61 0;
#X connect 61 0 62 0;
#X connect 64 0 60 0;
#X connect 65 0 47 0;
#X connect 65 1 47 0;
#X connect 69 0 70 0;
#X connect 69 1 71 1;
#X connect 70 0 71 0;
#X connect 71 0 72 0;
#X connect 72 0 73 0;
#X connect 74 0 89 0;
#X connect 75 0 59 0;
#X connect 76 0 79 0;
#X connect 76 1 77 0;
#X connect 78 0 75 0;
#X connect 81 0 82 0;
#X connect 82 0 76 0;
#X connect 83 0 84 0;
#X connect 84 0 9 0;
#X connect 85 0 51 0;
#X connect 85 1 55 1;
#X connect 85 2 86 0;
#X connect 86 0 60 1;
#X connect 86 1 87 1;
#X connect 87 0 88 0;
#X connect 89 0 21 0;
#X connect 89 1 17 0;
#X connect 89 2 69 0;
