#N canvas 0 22 769 761 10;
#X obj 92 -22 inlet;
#X obj 92 11 unpack f f;
#X obj 96 654 outlet~;
#X obj 176 342 sig~;
#X obj 174 222 *;
#X obj 91 35 mtof;
#X obj 329 110 loadbang;
#X msg 332 133 10;
#X obj 175 55 * 1000;
#X obj 176 32 t f f;
#X obj 91 152 spigot;
#X obj 175 105 change;
#X obj 174 129 select 0 1;
#X msg 173 150 0;
#X msg 201 160 1;
#X obj 176 84 > 10;
#X obj 200 -41 inlet;
#X obj 291 -26 inlet;
#X obj 113 379 * 2;
#X obj 171 389 * 3;
#X obj 247 409 * 4;
#X obj 111 457 *~ 0.33;
#X obj 166 469 *~ 0.1666;
#X obj 235 490 *~ 0.8333;
#X obj 95 356 phasor~;
#X obj 114 423 phasor~;
#X obj 173 437 phasor~;
#X obj 247 461 phasor~;
#X obj 113 401 lop~ 1;
#X obj 93 238 lop~ \$1;
#X obj 172 415 lop~ \$1;
#X obj 246 434 lop~ \$1;
#X obj 179 367 lop~ 1;
#X obj 97 607 *~;
#X obj 174 250 t f f;
#X obj 176 303 /;
#X floatatom 271 376 5 0 0 0 - - -;
#X floatatom 220 344 5 0 0 0 - - -;
#X obj 327 277 * 100;
#X floatatom 334 399 5 0 0 0 - - -;
#X floatatom 382 348 5 0 0 0 - - -;
#X obj 327 322 pow 0.3333;
#X obj 335 372 / 20;
#X obj 114 533 *~ 0.5;
#X connect 0 0 1 0;
#X connect 1 0 5 0;
#X connect 1 1 9 0;
#X connect 3 0 32 0;
#X connect 4 0 34 0;
#X connect 5 0 10 0;
#X connect 6 0 7 0;
#X connect 7 0 4 1;
#X connect 7 0 15 1;
#X connect 8 0 15 0;
#X connect 9 0 8 0;
#X connect 9 1 4 0;
#X connect 10 0 18 0;
#X connect 10 0 19 0;
#X connect 10 0 20 0;
#X connect 10 0 29 0;
#X connect 11 0 12 0;
#X connect 12 0 13 0;
#X connect 12 1 14 0;
#X connect 13 0 29 0;
#X connect 14 0 10 1;
#X connect 15 0 11 0;
#X connect 16 0 15 1;
#X connect 17 0 4 1;
#X connect 18 0 28 0;
#X connect 19 0 30 0;
#X connect 20 0 31 0;
#X connect 21 0 43 0;
#X connect 22 0 43 0;
#X connect 23 0 43 0;
#X connect 24 0 33 0;
#X connect 25 0 21 0;
#X connect 26 0 22 0;
#X connect 27 0 23 0;
#X connect 28 0 25 0;
#X connect 29 0 24 0;
#X connect 30 0 26 0;
#X connect 31 0 27 0;
#X connect 32 0 33 1;
#X connect 33 0 2 0;
#X connect 34 0 35 0;
#X connect 34 0 37 0;
#X connect 34 1 38 0;
#X connect 35 0 36 0;
#X connect 38 0 41 0;
#X connect 41 0 40 0;
#X connect 41 0 42 0;
#X connect 42 0 39 0;
#X connect 42 0 3 0;
#X connect 43 0 33 0;
