#N canvas 132 41 969 779 10;
#N canvas 423 297 650 463 short 0;
#X obj 111 5 inlet~;
#X obj 222 319 outlet;
#N canvas 769 329 450 300 a 0;
#X obj 121 10 inlet;
#X obj 121 33 unpack;
#X obj 143 113 ftom;
#X obj 128 273 mod 12;
#X obj 156 294 / 12;
#X obj 143 136 + 0.5;
#X obj 145 157 int;
#X obj 156 314 int;
#X obj 126 338 pack f f f;
#X obj 126 362 outlet;
#X obj 123 89 swap;
#X obj 124 233 f;
#X obj 145 178 moses 24;
#X obj 191 202 t f f b;
#X connect 0 0 1 0;
#X connect 1 0 10 0;
#X connect 1 1 10 1;
#X connect 2 0 5 0;
#X connect 3 0 8 0;
#X connect 4 0 7 0;
#X connect 5 0 6 0;
#X connect 6 0 12 0;
#X connect 7 0 8 1;
#X connect 8 0 9 0;
#X connect 10 0 11 1;
#X connect 10 1 2 0;
#X connect 11 0 8 2;
#X connect 12 1 13 0;
#X connect 13 0 3 0;
#X connect 13 1 4 0;
#X connect 13 2 11 0;
#X restore 367 208 pd a;
#X obj 369 181 route 1 2 3;
#N canvas 769 329 450 300 a 0;
#X obj 121 10 inlet;
#X obj 121 33 unpack;
#X obj 143 113 ftom;
#X obj 128 273 mod 12;
#X obj 156 294 / 12;
#X obj 143 136 + 0.5;
#X obj 145 157 int;
#X obj 156 314 int;
#X obj 126 338 pack f f f;
#X obj 126 362 outlet;
#X obj 123 89 swap;
#X obj 124 233 f;
#X obj 145 178 moses 24;
#X obj 191 202 t f f b;
#X connect 0 0 1 0;
#X connect 1 0 10 0;
#X connect 1 1 10 1;
#X connect 2 0 5 0;
#X connect 3 0 8 0;
#X connect 4 0 7 0;
#X connect 5 0 6 0;
#X connect 6 0 12 0;
#X connect 7 0 8 1;
#X connect 8 0 9 0;
#X connect 10 0 11 1;
#X connect 10 1 2 0;
#X connect 11 0 8 2;
#X connect 12 1 13 0;
#X connect 13 0 3 0;
#X connect 13 1 4 0;
#X connect 13 2 11 0;
#X restore 388 230 pd a;
#N canvas 769 329 450 300 a 0;
#X obj 121 10 inlet;
#X obj 121 33 unpack;
#X obj 143 113 ftom;
#X obj 128 273 mod 12;
#X obj 156 294 / 12;
#X obj 143 136 + 0.5;
#X obj 145 157 int;
#X obj 156 314 int;
#X obj 126 338 pack f f f;
#X obj 126 362 outlet;
#X obj 123 89 swap;
#X obj 124 233 f;
#X obj 145 178 moses 24;
#X obj 191 202 t f f b;
#X connect 0 0 1 0;
#X connect 1 0 10 0;
#X connect 1 1 10 1;
#X connect 2 0 5 0;
#X connect 3 0 8 0;
#X connect 4 0 7 0;
#X connect 5 0 6 0;
#X connect 6 0 12 0;
#X connect 7 0 8 1;
#X connect 8 0 9 0;
#X connect 10 0 11 1;
#X connect 10 1 2 0;
#X connect 11 0 8 2;
#X connect 12 1 13 0;
#X connect 13 0 3 0;
#X connect 13 1 4 0;
#X connect 13 2 11 0;
#X restore 409 251 pd a;
#X obj 115 82 fiddle~ 512 1 20 3;
#X connect 0 0 6 0;
#X connect 3 0 2 0;
#X connect 3 1 4 0;
#X connect 3 2 5 0;
#X connect 6 4 1 0;
#X restore 115 336 pd short;
#N canvas 568 360 450 300 long 0;
#X obj 180 72 inlet~;
#X obj 181 227 outlet;
#X obj 178 180 + 0.5;
#X obj 178 201 int;
#X obj 179 153 fiddle~ 1024 1 1 1;
#X connect 0 0 4 0;
#X connect 2 0 3 0;
#X connect 3 0 1 0;
#X connect 4 0 2 0;
#X restore 203 287 pd long;
#N canvas 454 308 684 688 hist 0;
#X obj 71 4 inlet;
#X obj 71 103 mod 12;
#X obj 71 127 select 0 1 2 3 4 5 6 7 8 9 10 11;
#X obj 71 27 t f b;
#X obj 97 51 ctr;
#X obj 248 3 inlet;
#X obj 249 33 s \$0-resetHist;
#X obj 113 25 r \$0-resetHist;
#X obj 97 78 s \$0-num;
#N canvas 841 340 450 300 a 0;
#X obj 141 100 ctr;
#X obj 157 73 r \$0-resetHist;
#X obj 142 144 /;
#X obj 162 121 r \$0-num;
#X obj 141 168 t b f;
#X obj 135 36 inlet;
#X obj 181 206 outlet;
#X obj 141 234 s \$0-bangOut;
#X connect 0 0 2 0;
#X connect 1 0 0 1;
#X connect 2 0 4 0;
#X connect 3 0 2 1;
#X connect 4 0 7 0;
#X connect 4 1 6 0;
#X connect 5 0 0 0;
#X restore 71 150 pd a;
#X obj 72 405 pack f f f f f f f f f f f f;
#N canvas 841 340 450 300 a 0;
#X obj 141 100 ctr;
#X obj 157 73 r \$0-resetHist;
#X obj 142 144 /;
#X obj 162 121 r \$0-num;
#X obj 141 168 t b f;
#X obj 135 36 inlet;
#X obj 181 206 outlet;
#X obj 141 234 s \$0-bangOut;
#X connect 0 0 2 0;
#X connect 1 0 0 1;
#X connect 2 0 4 0;
#X connect 3 0 2 1;
#X connect 4 0 7 0;
#X connect 4 1 6 0;
#X connect 5 0 0 0;
#X restore 82 170 pd a;
#N canvas 841 340 450 300 a 0;
#X obj 141 100 ctr;
#X obj 157 73 r \$0-resetHist;
#X obj 142 144 /;
#X obj 162 121 r \$0-num;
#X obj 141 168 t b f;
#X obj 135 36 inlet;
#X obj 181 206 outlet;
#X obj 141 234 s \$0-bangOut;
#X connect 0 0 2 0;
#X connect 1 0 0 1;
#X connect 2 0 4 0;
#X connect 3 0 2 1;
#X connect 4 0 7 0;
#X connect 4 1 6 0;
#X connect 5 0 0 0;
#X restore 97 190 pd a;
#N canvas 841 340 450 300 a 0;
#X obj 141 100 ctr;
#X obj 157 73 r \$0-resetHist;
#X obj 142 144 /;
#X obj 162 121 r \$0-num;
#X obj 141 168 t b f;
#X obj 135 36 inlet;
#X obj 181 206 outlet;
#X obj 141 234 s \$0-bangOut;
#X connect 0 0 2 0;
#X connect 1 0 0 1;
#X connect 2 0 4 0;
#X connect 3 0 2 1;
#X connect 4 0 7 0;
#X connect 4 1 6 0;
#X connect 5 0 0 0;
#X restore 108 210 pd a;
#N canvas 841 340 450 300 a 0;
#X obj 141 100 ctr;
#X obj 157 73 r \$0-resetHist;
#X obj 142 144 /;
#X obj 162 121 r \$0-num;
#X obj 141 168 t b f;
#X obj 135 36 inlet;
#X obj 181 206 outlet;
#X obj 141 234 s \$0-bangOut;
#X connect 0 0 2 0;
#X connect 1 0 0 1;
#X connect 2 0 4 0;
#X connect 3 0 2 1;
#X connect 4 0 7 0;
#X connect 4 1 6 0;
#X connect 5 0 0 0;
#X restore 120 231 pd a;
#N canvas 841 340 450 300 a 0;
#X obj 141 100 ctr;
#X obj 157 73 r \$0-resetHist;
#X obj 142 144 /;
#X obj 162 121 r \$0-num;
#X obj 141 168 t b f;
#X obj 135 36 inlet;
#X obj 181 206 outlet;
#X obj 141 234 s \$0-bangOut;
#X connect 0 0 2 0;
#X connect 1 0 0 1;
#X connect 2 0 4 0;
#X connect 3 0 2 1;
#X connect 4 0 7 0;
#X connect 4 1 6 0;
#X connect 5 0 0 0;
#X restore 131 251 pd a;
#N canvas 841 340 450 300 a 0;
#X obj 141 100 ctr;
#X obj 157 73 r \$0-resetHist;
#X obj 142 144 /;
#X obj 162 121 r \$0-num;
#X obj 141 168 t b f;
#X obj 135 36 inlet;
#X obj 181 206 outlet;
#X obj 141 234 s \$0-bangOut;
#X connect 0 0 2 0;
#X connect 1 0 0 1;
#X connect 2 0 4 0;
#X connect 3 0 2 1;
#X connect 4 0 7 0;
#X connect 4 1 6 0;
#X connect 5 0 0 0;
#X restore 146 271 pd a;
#N canvas 841 340 450 300 a 0;
#X obj 141 100 ctr;
#X obj 157 73 r \$0-resetHist;
#X obj 142 144 /;
#X obj 162 121 r \$0-num;
#X obj 141 168 t b f;
#X obj 135 36 inlet;
#X obj 181 206 outlet;
#X obj 141 234 s \$0-bangOut;
#X connect 0 0 2 0;
#X connect 1 0 0 1;
#X connect 2 0 4 0;
#X connect 3 0 2 1;
#X connect 4 0 7 0;
#X connect 4 1 6 0;
#X connect 5 0 0 0;
#X restore 157 291 pd a;
#N canvas 841 340 450 300 a 0;
#X obj 141 100 ctr;
#X obj 157 73 r \$0-resetHist;
#X obj 142 144 /;
#X obj 162 121 r \$0-num;
#X obj 141 168 t b f;
#X obj 135 36 inlet;
#X obj 181 206 outlet;
#X obj 141 234 s \$0-bangOut;
#X connect 0 0 2 0;
#X connect 1 0 0 1;
#X connect 2 0 4 0;
#X connect 3 0 2 1;
#X connect 4 0 7 0;
#X connect 4 1 6 0;
#X connect 5 0 0 0;
#X restore 174 313 pd a;
#N canvas 841 340 450 300 a 0;
#X obj 141 100 ctr;
#X obj 157 73 r \$0-resetHist;
#X obj 142 144 /;
#X obj 162 121 r \$0-num;
#X obj 141 168 t b f;
#X obj 135 36 inlet;
#X obj 181 206 outlet;
#X obj 141 234 s \$0-bangOut;
#X connect 0 0 2 0;
#X connect 1 0 0 1;
#X connect 2 0 4 0;
#X connect 3 0 2 1;
#X connect 4 0 7 0;
#X connect 4 1 6 0;
#X connect 5 0 0 0;
#X restore 192 332 pd a;
#N canvas 841 340 450 300 a 0;
#X obj 141 100 ctr;
#X obj 157 73 r \$0-resetHist;
#X obj 142 144 /;
#X obj 162 121 r \$0-num;
#X obj 141 168 t b f;
#X obj 135 36 inlet;
#X obj 181 206 outlet;
#X obj 141 234 s \$0-bangOut;
#X connect 0 0 2 0;
#X connect 1 0 0 1;
#X connect 2 0 4 0;
#X connect 3 0 2 1;
#X connect 4 0 7 0;
#X connect 4 1 6 0;
#X connect 5 0 0 0;
#X restore 211 352 pd a;
#N canvas 841 340 450 300 a 0;
#X obj 141 100 ctr;
#X obj 157 73 r \$0-resetHist;
#X obj 142 144 /;
#X obj 162 121 r \$0-num;
#X obj 141 168 t b f;
#X obj 135 36 inlet;
#X obj 181 206 outlet;
#X obj 141 234 s \$0-bangOut;
#X connect 0 0 2 0;
#X connect 1 0 0 1;
#X connect 2 0 4 0;
#X connect 3 0 2 1;
#X connect 4 0 7 0;
#X connect 4 1 6 0;
#X connect 5 0 0 0;
#X restore 232 371 pd a;
#X obj -5 371 r \$0-bangOut;
#X obj 75 436 outlet;
#X connect 0 0 3 0;
#X connect 1 0 2 0;
#X connect 2 0 9 0;
#X connect 2 1 11 0;
#X connect 2 2 12 0;
#X connect 2 3 13 0;
#X connect 2 4 14 0;
#X connect 2 5 15 0;
#X connect 2 6 16 0;
#X connect 2 7 17 0;
#X connect 2 8 18 0;
#X connect 2 9 19 0;
#X connect 2 10 20 0;
#X connect 2 11 21 0;
#X connect 3 0 1 0;
#X connect 3 1 4 0;
#X connect 4 0 8 0;
#X connect 5 0 6 0;
#X connect 7 0 4 1;
#X connect 9 0 10 0;
#X connect 10 0 23 0;
#X connect 11 0 10 1;
#X connect 12 0 10 2;
#X connect 13 0 10 3;
#X connect 14 0 10 4;
#X connect 15 0 10 5;
#X connect 16 0 10 6;
#X connect 17 0 10 7;
#X connect 18 0 10 8;
#X connect 19 0 10 9;
#X connect 20 0 10 10;
#X connect 21 0 10 11;
#X connect 22 0 10 0;
#X restore 203 343 pd hist;
#X obj 109 56 inlet~;
#X obj 354 75 inlet;
#X obj 354 100 s \$0-reset;
#X obj 242 315 r \$0-reset;
#X obj 209 72 inlet;
#X obj 209 129 s \$0-key;
#X obj 270 72 inlet;
#X obj 202 367 s \$0-theHist;
#X obj 270 131 s \$0-weights;
#N canvas 293 54 1066 671 analyze 0;
#X obj 250 16 inlet;
#X msg 649 205 0.015444 0.084507 0.210909 0.0549828 0.155172 0.0422535
0.0553633 0.0321429 0.0826772 0.0939597 0.0662021 0.132867;
#N canvas 918 397 450 300 hist 0;
#X obj 130 184 outlet;
#X obj 131 113 list prepend set;
#X obj 133 134 list trim;
#X obj 131 81 r \$0-theHist;
#X connect 1 0 2 0;
#X connect 2 0 0 0;
#X connect 3 0 1 0;
#X restore 649 182 pd hist;
#N canvas 1005 425 450 300 key 0;
#X obj 153 149 outlet;
#X obj 156 -55 list-equalize;
#X msg 153 13 0.322581 0.0322581 0.0645161 0.0322581 0.0645161 0.16129
0.0322581 0.16129 0.0645161 0.0322581 0.0322581;
#X obj 155 -33 list prepend set;
#X obj 154 -12 list trim;
#X obj 158 -75 r noteProbs;
#X obj 152 72 list-rot;
#X obj 154 97 list prepend set;
#X obj 153 118 list trim;
#X obj 198 48 * -1;
#X obj 282 -75 r \$0-key;
#X obj 364 -111 loadbang;
#X msg 366 -91 0;
#X obj 283 -44 t b f;
#X connect 1 0 3 0;
#X connect 2 0 6 0;
#X connect 3 0 4 0;
#X connect 4 0 2 0;
#X connect 5 0 1 0;
#X connect 6 0 7 0;
#X connect 7 0 8 0;
#X connect 8 0 0 0;
#X connect 9 0 6 1;
#X connect 10 0 13 0;
#X connect 11 0 12 0;
#X connect 12 0 13 0;
#X connect 13 0 2 0;
#X connect 13 1 9 0;
#X restore 733 127 pd key;
#X msg 732 152 0.0645161 0.16129 0.0322581 0.16129 0.0645161 0.0322581
0.0322581 0.322581 0.0322581 0.0645161 0.0322581;
#X obj 250 39 route 1 2 3;
#N canvas 450 97 694 529 a 0;
#X obj 121 10 inlet;
#X obj 121 33 unpack;
#X obj 155 64 t f f;
#X obj 121 131 spigot;
#X obj 155 96 > 0;
#X obj 122 431 outlet;
#X obj 121 79 ftom;
#N canvas 918 397 450 300 hist 0;
#X obj 79 254 outlet;
#X obj 131 81 r \$0-theHist;
#X obj 78 153 list;
#X obj 83 -52 inlet;
#X obj 85 84 t b f;
#X obj 80 202 list-idx;
#X obj 83 51 mod 12;
#X obj 84 -18 + 0.5;
#X obj 83 11 int;
#X connect 1 0 2 1;
#X connect 2 0 5 0;
#X connect 3 0 7 0;
#X connect 4 0 2 0;
#X connect 4 1 5 1;
#X connect 5 0 0 0;
#X connect 6 0 4 0;
#X connect 7 0 8 0;
#X connect 8 0 6 0;
#X restore 142 198 pd hist;
#N canvas 923 233 517 418 key 0;
#X obj 122 179 outlet;
#X obj 156 -55 list-equalize;
#X msg 153 13 0.322581 0.0322581 0.0645161 0.0322581 0.0645161 0.16129
0.0322581 0.16129 0.0645161 0.0322581 0.0322581;
#X obj 155 -33 list prepend set;
#X obj 154 -12 list trim;
#X obj 158 -75 r noteProbs;
#X obj 152 72 list-rot;
#X obj 198 48 * -1;
#X obj 282 -75 r \$0-key;
#X obj 364 -111 loadbang;
#X msg 366 -91 0;
#X obj 283 -44 t b f;
#X obj 126 101 list;
#X obj 124 129 list-idx;
#X obj 111 -142 inlet;
#X obj 115 26 t b f;
#X obj 112 -32 mod 12;
#X obj 112 -94 + 0.5;
#X obj 111 -65 int;
#X connect 1 0 3 0;
#X connect 2 0 6 0;
#X connect 3 0 4 0;
#X connect 4 0 2 0;
#X connect 5 0 1 0;
#X connect 6 0 12 1;
#X connect 7 0 6 1;
#X connect 8 0 11 0;
#X connect 9 0 10 0;
#X connect 10 0 11 0;
#X connect 11 0 2 0;
#X connect 11 1 7 0;
#X connect 12 0 13 0;
#X connect 13 0 0 0;
#X connect 14 0 17 0;
#X connect 15 0 12 0;
#X connect 15 1 13 1;
#X connect 16 0 15 0;
#X connect 17 0 18 0;
#X connect 18 0 16 0;
#X restore 164 222 pd key;
#X obj 121 160 t f f f;
#X obj 120 285 pack f f f f;
#N canvas 572 216 604 466 bayes 0;
#X obj 40 17 inlet;
#X obj 40 43 unpack f f f f;
#X obj 100 130 *;
#X obj 74 159 *;
#X obj 140 69 t f f;
#X obj 103 71 t f f;
#X obj 65 70 t f f;
#X obj 169 97 *;
#X obj 130 98 *;
#X obj 93 98 *;
#X obj 187 -106 r \$0-weights;
#X obj 186 5 unpack f f f;
#X obj 187 -68 list-equalize;
#X obj 187 -35 list-map;
#X obj 259 -20 -;
#X obj 258 -44 swap 1;
#X obj 100 184 +;
#X obj 137 159 +;
#X obj 76 224 /;
#X obj 33 280 pack f f;
#X obj 31 339 outlet;
#X connect 0 0 1 0;
#X connect 1 0 19 0;
#X connect 1 1 6 0;
#X connect 1 2 5 0;
#X connect 1 3 4 0;
#X connect 2 0 3 1;
#X connect 3 0 18 0;
#X connect 4 0 2 1;
#X connect 4 1 7 0;
#X connect 5 0 2 0;
#X connect 5 1 8 0;
#X connect 6 0 3 0;
#X connect 6 1 9 0;
#X connect 7 0 17 1;
#X connect 8 0 17 0;
#X connect 9 0 16 0;
#X connect 10 0 12 0;
#X connect 11 0 9 1;
#X connect 11 1 8 1;
#X connect 11 2 7 1;
#X connect 12 0 13 0;
#X connect 13 0 11 0;
#X connect 13 1 15 0;
#X connect 14 0 13 1;
#X connect 15 0 14 0;
#X connect 15 1 14 1;
#X connect 16 0 18 1;
#X connect 17 0 16 1;
#X connect 18 0 19 1;
#X connect 19 0 20 0;
#X restore 121 325 pd bayes;
#X connect 0 0 1 0;
#X connect 1 0 6 0;
#X connect 1 1 2 0;
#X connect 2 0 4 0;
#X connect 2 1 10 3;
#X connect 3 0 9 0;
#X connect 4 0 3 1;
#X connect 6 0 3 0;
#X connect 7 0 10 1;
#X connect 8 0 10 2;
#X connect 9 0 10 0;
#X connect 9 1 7 0;
#X connect 9 2 8 0;
#X connect 10 0 11 0;
#X connect 11 0 5 0;
#X restore 250 64 pd a;
#N canvas 450 97 694 529 a 0;
#X obj 121 10 inlet;
#X obj 121 33 unpack;
#X obj 155 64 t f f;
#X obj 121 131 spigot;
#X obj 155 96 > 0;
#X obj 125 370 outlet;
#X obj 121 79 ftom;
#N canvas 918 397 450 300 hist 0;
#X obj 79 254 outlet;
#X obj 131 81 r \$0-theHist;
#X obj 78 153 list;
#X obj 83 -52 inlet;
#X obj 85 84 t b f;
#X obj 80 202 list-idx;
#X obj 83 51 mod 12;
#X obj 84 -18 + 0.5;
#X obj 83 11 int;
#X connect 1 0 2 1;
#X connect 2 0 5 0;
#X connect 3 0 7 0;
#X connect 4 0 2 0;
#X connect 4 1 5 1;
#X connect 5 0 0 0;
#X connect 6 0 4 0;
#X connect 7 0 8 0;
#X connect 8 0 6 0;
#X restore 142 198 pd hist;
#N canvas 923 233 517 418 key 0;
#X obj 122 179 outlet;
#X obj 156 -55 list-equalize;
#X msg 153 13 0.322581 0.0322581 0.0645161 0.0322581 0.0645161 0.16129
0.0322581 0.16129 0.0645161 0.0322581 0.0322581;
#X obj 155 -33 list prepend set;
#X obj 154 -12 list trim;
#X obj 158 -75 r noteProbs;
#X obj 152 72 list-rot;
#X obj 198 48 * -1;
#X obj 282 -75 r \$0-key;
#X obj 364 -111 loadbang;
#X msg 366 -91 0;
#X obj 283 -44 t b f;
#X obj 126 101 list;
#X obj 124 129 list-idx;
#X obj 111 -142 inlet;
#X obj 115 26 t b f;
#X obj 112 -32 mod 12;
#X obj 112 -94 + 0.5;
#X obj 111 -65 int;
#X connect 1 0 3 0;
#X connect 2 0 6 0;
#X connect 3 0 4 0;
#X connect 4 0 2 0;
#X connect 5 0 1 0;
#X connect 6 0 12 1;
#X connect 7 0 6 1;
#X connect 8 0 11 0;
#X connect 9 0 10 0;
#X connect 10 0 11 0;
#X connect 11 0 2 0;
#X connect 11 1 7 0;
#X connect 12 0 13 0;
#X connect 13 0 0 0;
#X connect 14 0 17 0;
#X connect 15 0 12 0;
#X connect 15 1 13 1;
#X connect 16 0 15 0;
#X connect 17 0 18 0;
#X connect 18 0 16 0;
#X restore 164 222 pd key;
#X obj 121 160 t f f f;
#X obj 120 285 pack f f f f;
#N canvas 572 216 604 466 bayes 0;
#X obj 40 17 inlet;
#X obj 40 43 unpack f f f f;
#X obj 100 130 *;
#X obj 74 159 *;
#X obj 140 69 t f f;
#X obj 103 71 t f f;
#X obj 65 70 t f f;
#X obj 169 97 *;
#X obj 130 98 *;
#X obj 93 98 *;
#X obj 187 -106 r \$0-weights;
#X obj 186 5 unpack f f f;
#X obj 187 -68 list-equalize;
#X obj 187 -35 list-map;
#X obj 259 -20 -;
#X obj 258 -44 swap 1;
#X obj 100 184 +;
#X obj 137 159 +;
#X obj 76 224 /;
#X obj 27 256 pack f f;
#X obj 28 324 outlet;
#X connect 0 0 1 0;
#X connect 1 0 19 0;
#X connect 1 1 6 0;
#X connect 1 2 5 0;
#X connect 1 3 4 0;
#X connect 2 0 3 1;
#X connect 3 0 18 0;
#X connect 4 0 2 1;
#X connect 4 1 7 0;
#X connect 5 0 2 0;
#X connect 5 1 8 0;
#X connect 6 0 3 0;
#X connect 6 1 9 0;
#X connect 7 0 17 1;
#X connect 8 0 17 0;
#X connect 9 0 16 0;
#X connect 10 0 12 0;
#X connect 11 0 9 1;
#X connect 11 1 8 1;
#X connect 11 2 7 1;
#X connect 12 0 13 0;
#X connect 13 0 11 0;
#X connect 13 1 15 0;
#X connect 14 0 13 1;
#X connect 15 0 14 0;
#X connect 15 1 14 1;
#X connect 16 0 18 1;
#X connect 17 0 16 1;
#X connect 18 0 19 1;
#X connect 19 0 20 0;
#X restore 121 325 pd bayes;
#X connect 0 0 1 0;
#X connect 1 0 6 0;
#X connect 1 1 2 0;
#X connect 2 0 4 0;
#X connect 2 1 10 3;
#X connect 3 0 9 0;
#X connect 4 0 3 1;
#X connect 6 0 3 0;
#X connect 7 0 10 1;
#X connect 8 0 10 2;
#X connect 9 0 10 0;
#X connect 9 1 7 0;
#X connect 9 2 8 0;
#X connect 10 0 11 0;
#X connect 11 0 5 0;
#X restore 270 89 pd a;
#N canvas 450 97 694 529 a 0;
#X obj 121 10 inlet;
#X obj 121 33 unpack;
#X obj 155 64 t f f;
#X obj 121 131 spigot;
#X obj 155 96 > 0;
#X obj 125 370 outlet;
#X obj 121 79 ftom;
#N canvas 918 397 450 300 hist 0;
#X obj 79 254 outlet;
#X obj 131 81 r \$0-theHist;
#X obj 78 153 list;
#X obj 83 -52 inlet;
#X obj 85 84 t b f;
#X obj 80 202 list-idx;
#X obj 83 51 mod 12;
#X obj 84 -18 + 0.5;
#X obj 83 11 int;
#X connect 1 0 2 1;
#X connect 2 0 5 0;
#X connect 3 0 7 0;
#X connect 4 0 2 0;
#X connect 4 1 5 1;
#X connect 5 0 0 0;
#X connect 6 0 4 0;
#X connect 7 0 8 0;
#X connect 8 0 6 0;
#X restore 142 198 pd hist;
#N canvas 923 233 517 418 key 0;
#X obj 122 179 outlet;
#X obj 156 -55 list-equalize;
#X msg 153 13 0.322581 0.0322581 0.0645161 0.0322581 0.0645161 0.16129
0.0322581 0.16129 0.0645161 0.0322581 0.0322581;
#X obj 155 -33 list prepend set;
#X obj 154 -12 list trim;
#X obj 158 -75 r noteProbs;
#X obj 152 72 list-rot;
#X obj 198 48 * -1;
#X obj 282 -75 r \$0-key;
#X obj 364 -111 loadbang;
#X msg 366 -91 0;
#X obj 283 -44 t b f;
#X obj 126 101 list;
#X obj 124 129 list-idx;
#X obj 111 -142 inlet;
#X obj 115 26 t b f;
#X obj 112 -32 mod 12;
#X obj 112 -94 + 0.5;
#X obj 111 -65 int;
#X connect 1 0 3 0;
#X connect 2 0 6 0;
#X connect 3 0 4 0;
#X connect 4 0 2 0;
#X connect 5 0 1 0;
#X connect 6 0 12 1;
#X connect 7 0 6 1;
#X connect 8 0 11 0;
#X connect 9 0 10 0;
#X connect 10 0 11 0;
#X connect 11 0 2 0;
#X connect 11 1 7 0;
#X connect 12 0 13 0;
#X connect 13 0 0 0;
#X connect 14 0 17 0;
#X connect 15 0 12 0;
#X connect 15 1 13 1;
#X connect 16 0 15 0;
#X connect 17 0 18 0;
#X connect 18 0 16 0;
#X restore 164 222 pd key;
#X obj 121 160 t f f f;
#X obj 120 285 pack f f f f;
#N canvas 572 216 604 466 bayes 0;
#X obj 40 17 inlet;
#X obj 40 43 unpack f f f f;
#X obj 100 130 *;
#X obj 74 159 *;
#X obj 140 69 t f f;
#X obj 103 71 t f f;
#X obj 65 70 t f f;
#X obj 169 97 *;
#X obj 130 98 *;
#X obj 93 98 *;
#X obj 187 -106 r \$0-weights;
#X obj 186 5 unpack f f f;
#X obj 187 -68 list-equalize;
#X obj 187 -35 list-map;
#X obj 259 -20 -;
#X obj 258 -44 swap 1;
#X obj 100 184 +;
#X obj 137 159 +;
#X obj 76 224 /;
#X obj 27 256 pack f f;
#X obj 28 324 outlet;
#X connect 0 0 1 0;
#X connect 1 0 19 0;
#X connect 1 1 6 0;
#X connect 1 2 5 0;
#X connect 1 3 4 0;
#X connect 2 0 3 1;
#X connect 3 0 18 0;
#X connect 4 0 2 1;
#X connect 4 1 7 0;
#X connect 5 0 2 0;
#X connect 5 1 8 0;
#X connect 6 0 3 0;
#X connect 6 1 9 0;
#X connect 7 0 17 1;
#X connect 8 0 17 0;
#X connect 9 0 16 0;
#X connect 10 0 12 0;
#X connect 11 0 9 1;
#X connect 11 1 8 1;
#X connect 11 2 7 1;
#X connect 12 0 13 0;
#X connect 13 0 11 0;
#X connect 13 1 15 0;
#X connect 14 0 13 1;
#X connect 15 0 14 0;
#X connect 15 1 14 1;
#X connect 16 0 18 1;
#X connect 17 0 16 1;
#X connect 18 0 19 1;
#X connect 19 0 20 0;
#X restore 121 325 pd bayes;
#X connect 0 0 1 0;
#X connect 1 0 6 0;
#X connect 1 1 2 0;
#X connect 2 0 4 0;
#X connect 2 1 10 3;
#X connect 3 0 9 0;
#X connect 4 0 3 1;
#X connect 6 0 3 0;
#X connect 7 0 10 1;
#X connect 8 0 10 2;
#X connect 9 0 10 0;
#X connect 9 1 7 0;
#X connect 9 2 8 0;
#X connect 10 0 11 0;
#X connect 11 0 5 0;
#X restore 289 113 pd a;
#N canvas 223 368 450 300 p2n 0;
#X obj 200 94 + 0.5;
#X obj 199 115 int;
#X obj 199 138 mod 12;
#X obj 199 42 inlet;
#X obj 195 173 outlet;
#X connect 0 0 1 0;
#X connect 1 0 2 0;
#X connect 2 0 4 0;
#X connect 3 0 0 0;
#X restore 457 406 pd p2n;
#X obj 457 428 pack f f;
#N canvas 223 368 450 300 p2n 0;
#X obj 200 94 + 0.5;
#X obj 199 115 int;
#X obj 199 138 mod 12;
#X obj 199 42 inlet;
#X obj 195 173 outlet;
#X connect 0 0 1 0;
#X connect 1 0 2 0;
#X connect 2 0 4 0;
#X connect 3 0 0 0;
#X restore 462 351 pd p2n;
#X obj 462 373 pack f f;
#N canvas 223 368 450 300 p2n 0;
#X obj 200 94 + 0.5;
#X obj 199 115 int;
#X obj 199 138 mod 12;
#X obj 199 42 inlet;
#X obj 195 173 outlet;
#X connect 0 0 1 0;
#X connect 1 0 2 0;
#X connect 2 0 4 0;
#X connect 3 0 0 0;
#X restore 537 332 pd p2n;
#X obj 537 352 pack f f;
#N canvas 657 88 684 688 hist 0;
#X obj 71 4 inlet;
#X obj 68 120 select 0 1 2 3 4 5 6 7 8 9 10 11;
#X obj 71 27 t f b;
#X obj 97 51 ctr;
#N canvas 841 340 450 300 a 0;
#X obj 141 100 ctr;
#X obj 142 144 /;
#X obj 135 36 inlet;
#X obj 157 73 r \$0-resetHist2;
#X obj 162 121 r \$0-num2;
#X obj 141 172 outlet;
#X connect 0 0 1 0;
#X connect 1 0 5 0;
#X connect 2 0 0 0;
#X connect 3 0 0 1;
#X connect 4 0 1 1;
#X restore 71 150 pd a;
#X obj 71 478 pack f f f f f f f f f f f f;
#X obj 256 -24 loadbang;
#X msg 255 -2 1;
#X obj 257 52 t b b;
#X obj 283 83 s \$0-poll;
#X obj 254 106 s \$0-resetHist2;
#X obj 113 25 r \$0-resetHist2;
#X obj 97 78 s \$0-num2;
#X obj 0 342 r \$0-poll;
#X obj 317 -15 inlet;
#N canvas 841 340 450 300 a 0;
#X obj 141 100 ctr;
#X obj 142 144 /;
#X obj 135 36 inlet;
#X obj 157 73 r \$0-resetHist2;
#X obj 162 121 r \$0-num2;
#X obj 141 172 outlet;
#X connect 0 0 1 0;
#X connect 1 0 5 0;
#X connect 2 0 0 0;
#X connect 3 0 0 1;
#X connect 4 0 1 1;
#X restore 87 174 pd a;
#N canvas 841 340 450 300 a 0;
#X obj 141 100 ctr;
#X obj 142 144 /;
#X obj 135 36 inlet;
#X obj 157 73 r \$0-resetHist2;
#X obj 162 121 r \$0-num2;
#X obj 141 172 outlet;
#X connect 0 0 1 0;
#X connect 1 0 5 0;
#X connect 2 0 0 0;
#X connect 3 0 0 1;
#X connect 4 0 1 1;
#X restore 102 197 pd a;
#N canvas 841 340 450 300 a 0;
#X obj 141 100 ctr;
#X obj 142 144 /;
#X obj 135 36 inlet;
#X obj 157 73 r \$0-resetHist2;
#X obj 162 121 r \$0-num2;
#X obj 141 172 outlet;
#X connect 0 0 1 0;
#X connect 1 0 5 0;
#X connect 2 0 0 0;
#X connect 3 0 0 1;
#X connect 4 0 1 1;
#X restore 118 221 pd a;
#N canvas 841 340 450 300 a 0;
#X obj 141 100 ctr;
#X obj 142 144 /;
#X obj 135 36 inlet;
#X obj 157 73 r \$0-resetHist2;
#X obj 162 121 r \$0-num2;
#X obj 141 172 outlet;
#X connect 0 0 1 0;
#X connect 1 0 5 0;
#X connect 2 0 0 0;
#X connect 3 0 0 1;
#X connect 4 0 1 1;
#X restore 132 244 pd a;
#N canvas 841 340 450 300 a 0;
#X obj 141 100 ctr;
#X obj 142 144 /;
#X obj 135 36 inlet;
#X obj 157 73 r \$0-resetHist2;
#X obj 162 121 r \$0-num2;
#X obj 141 172 outlet;
#X connect 0 0 1 0;
#X connect 1 0 5 0;
#X connect 2 0 0 0;
#X connect 3 0 0 1;
#X connect 4 0 1 1;
#X restore 148 268 pd a;
#N canvas 841 340 450 300 a 0;
#X obj 141 100 ctr;
#X obj 142 144 /;
#X obj 135 36 inlet;
#X obj 157 73 r \$0-resetHist2;
#X obj 162 121 r \$0-num2;
#X obj 141 172 outlet;
#X connect 0 0 1 0;
#X connect 1 0 5 0;
#X connect 2 0 0 0;
#X connect 3 0 0 1;
#X connect 4 0 1 1;
#X restore 163 291 pd a;
#N canvas 841 340 450 300 a 0;
#X obj 141 100 ctr;
#X obj 142 144 /;
#X obj 135 36 inlet;
#X obj 157 73 r \$0-resetHist2;
#X obj 162 121 r \$0-num2;
#X obj 141 172 outlet;
#X connect 0 0 1 0;
#X connect 1 0 5 0;
#X connect 2 0 0 0;
#X connect 3 0 0 1;
#X connect 4 0 1 1;
#X restore 179 315 pd a;
#N canvas 841 340 450 300 a 0;
#X obj 141 100 ctr;
#X obj 142 144 /;
#X obj 135 36 inlet;
#X obj 157 73 r \$0-resetHist2;
#X obj 162 121 r \$0-num2;
#X obj 141 172 outlet;
#X connect 0 0 1 0;
#X connect 1 0 5 0;
#X connect 2 0 0 0;
#X connect 3 0 0 1;
#X connect 4 0 1 1;
#X restore 191 341 pd a;
#N canvas 841 340 450 300 a 0;
#X obj 141 100 ctr;
#X obj 142 144 /;
#X obj 135 36 inlet;
#X obj 157 73 r \$0-resetHist2;
#X obj 162 121 r \$0-num2;
#X obj 141 172 outlet;
#X connect 0 0 1 0;
#X connect 1 0 5 0;
#X connect 2 0 0 0;
#X connect 3 0 0 1;
#X connect 4 0 1 1;
#X restore 207 365 pd a;
#N canvas 841 340 450 300 a 0;
#X obj 141 100 ctr;
#X obj 142 144 /;
#X obj 135 36 inlet;
#X obj 157 73 r \$0-resetHist2;
#X obj 162 121 r \$0-num2;
#X obj 141 172 outlet;
#X connect 0 0 1 0;
#X connect 1 0 5 0;
#X connect 2 0 0 0;
#X connect 3 0 0 1;
#X connect 4 0 1 1;
#X restore 222 388 pd a;
#N canvas 841 340 450 300 a 0;
#X obj 141 100 ctr;
#X obj 142 144 /;
#X obj 135 36 inlet;
#X obj 157 73 r \$0-resetHist2;
#X obj 162 121 r \$0-num2;
#X obj 141 172 outlet;
#X connect 0 0 1 0;
#X connect 1 0 5 0;
#X connect 2 0 0 0;
#X connect 3 0 0 1;
#X connect 4 0 1 1;
#X restore 238 412 pd a;
#X obj 55 420 f;
#X obj 257 22 metro 100;
#X msg 218 -1 0;
#X obj 71 524 outlet;
#X connect 0 0 2 0;
#X connect 1 0 4 0;
#X connect 1 1 15 0;
#X connect 1 2 16 0;
#X connect 1 3 17 0;
#X connect 1 4 18 0;
#X connect 1 5 19 0;
#X connect 1 6 20 0;
#X connect 1 7 21 0;
#X connect 1 8 22 0;
#X connect 1 9 23 0;
#X connect 1 10 24 0;
#X connect 1 11 25 0;
#X connect 2 0 1 0;
#X connect 2 1 3 0;
#X connect 3 0 12 0;
#X connect 4 0 26 1;
#X connect 5 0 29 0;
#X connect 6 0 7 0;
#X connect 7 0 27 0;
#X connect 8 0 10 0;
#X connect 8 1 9 0;
#X connect 11 0 3 1;
#X connect 13 0 26 0;
#X connect 14 0 27 1;
#X connect 15 0 5 1;
#X connect 16 0 5 2;
#X connect 17 0 5 3;
#X connect 18 0 5 4;
#X connect 19 0 5 5;
#X connect 20 0 5 6;
#X connect 21 0 5 7;
#X connect 22 0 5 8;
#X connect 23 0 5 9;
#X connect 24 0 5 10;
#X connect 25 0 5 11;
#X connect 26 0 5 0;
#X connect 27 0 8 0;
#X connect 28 0 27 0;
#X restore 688 465 pd hist;
#X obj 687 493 print;
#X obj 247 320 outlet;
#X obj 271 366 outlet;
#X obj 287 410 outlet;
#X connect 0 0 5 0;
#X connect 2 0 1 0;
#X connect 3 0 4 0;
#X connect 5 0 6 0;
#X connect 5 1 7 0;
#X connect 5 2 8 0;
#X connect 6 0 17 0;
#X connect 7 0 18 0;
#X connect 8 0 19 0;
#X connect 9 0 10 0;
#X connect 11 0 12 0;
#X connect 13 0 14 0;
#X restore 114 400 pd analyze;
#X obj 114 449 outlet;
#X obj 208 98 t f b;
#X obj 269 95 t a b;
#X obj 138 482 outlet;
#X obj 166 518 outlet;
#X connect 0 0 12 0;
#X connect 1 0 2 0;
#X connect 2 0 10 0;
#X connect 3 0 1 0;
#X connect 3 0 0 0;
#X connect 4 0 5 0;
#X connect 6 0 2 1;
#X connect 7 0 14 0;
#X connect 9 0 15 0;
#X connect 12 0 13 0;
#X connect 12 1 16 0;
#X connect 12 2 17 0;
#X connect 14 0 8 0;
#X connect 14 1 5 0;
#X connect 15 0 11 0;
#X connect 15 1 5 0;
