#N canvas 346 58 959 760 10;
#X obj 188 26 inlet;
#X obj 6 22 table \$0-buffer \$1;
#X obj 230 95 f;
#X obj 261 96 + 1;
#X obj 189 62 t b f b;
#X obj 230 137 t f f;
#X obj 126 217 tabwrite \$0-buffer;
#X obj 231 173 mod \$1;
#X obj 313 281 > \$1;
#X obj 279 315 spigot;
#X obj 259 400 spigot;
#X obj 292 376 birdInvert 1;
#X obj 258 243 t f b f;
#X obj 279 343 \$1;
#X obj 216 669 /;
#X obj 182 470 until;
#X obj 181 503 f;
#X obj 210 504 + 1;
#X obj 186 412 t f f b;
#X msg 223 436 0;
#X obj 181 532 tabread \$0-buffer;
#X obj 178 612 f;
#X obj 214 612 +;
#X obj 180 566 t f b;
#X obj 217 696 outlet;
#X obj 453 22 inlet;
#X obj 456 202 s \$0-clear;
#X obj 455 56 t b b;
#X obj 502 95 bng 15 250 50 0 empty empty empty 17 7 0 10 -262144 -1
-1;
#X obj 481 112 pack \$0 \$1;
#X msg 479 138 \; \$1-buffer resize \$2;
#X msg 458 177 0;
#X obj 250 45 r \$0-clear;
#X obj 257 447 r \$0-clear;
#X connect 0 0 4 0;
#X connect 2 0 3 0;
#X connect 2 0 5 0;
#X connect 3 0 2 1;
#X connect 4 1 6 0;
#X connect 4 2 2 0;
#X connect 5 0 7 0;
#X connect 5 1 12 0;
#X connect 7 0 6 1;
#X connect 8 0 9 1;
#X connect 8 0 11 0;
#X connect 9 0 13 0;
#X connect 10 0 18 0;
#X connect 11 0 10 1;
#X connect 12 0 10 0;
#X connect 12 1 9 0;
#X connect 12 2 8 0;
#X connect 13 0 18 0;
#X connect 14 0 24 0;
#X connect 15 0 16 0;
#X connect 16 0 17 0;
#X connect 16 0 20 0;
#X connect 17 0 16 1;
#X connect 18 0 15 0;
#X connect 18 1 14 1;
#X connect 18 2 19 0;
#X connect 19 0 16 1;
#X connect 19 0 22 1;
#X connect 19 0 21 1;
#X connect 20 0 23 0;
#X connect 21 0 22 1;
#X connect 22 0 21 1;
#X connect 22 0 14 0;
#X connect 23 0 22 0;
#X connect 23 1 21 0;
#X connect 25 0 27 0;
#X connect 27 0 31 0;
#X connect 27 1 29 0;
#X connect 28 0 29 0;
#X connect 29 0 30 0;
#X connect 31 0 26 0;
#X connect 32 0 2 1;
#X connect 33 0 16 1;
#X connect 33 0 22 1;
#X connect 33 0 21 1;
