#N canvas 81 158 796 463 10;
#X msg 444 48 arm;
#X msg 385 65 play;
#X obj 409 151 ftom;
#X obj 315 273 birdPitchShift;
#X obj 385 6 inlet;
#X obj 321 16 inlet~;
#X obj 384 37 t b f;
#X obj 315 317 outlet~;
#X obj 442 13 inlet;
#X obj 360 223 -;
#X floatatom 417 234 5 0 0 0 - - -;
#X obj 361 200 f;
#X obj 409 176 t b f;
#X floatatom 454 122 5 0 0 0 - - -;
#X obj 331 126 helmholtz~ 2048;
#X msg 466 248 0.3;
#X obj 416 319 outlet;
#X obj 319 94 birdSampler2~;
#X obj 465 210 loadbang;
#X connect 0 0 17 1;
#X connect 1 0 17 1;
#X connect 2 0 12 0;
#X connect 3 0 7 0;
#X connect 4 0 6 0;
#X connect 5 0 17 0;
#X connect 6 0 1 0;
#X connect 6 1 11 0;
#X connect 6 1 13 0;
#X connect 8 0 0 0;
#X connect 9 0 3 1;
#X connect 9 0 10 0;
#X connect 11 0 9 0;
#X connect 12 0 11 0;
#X connect 12 1 9 1;
#X connect 14 1 2 0;
#X connect 15 0 3 2;
#X connect 17 0 14 0;
#X connect 17 0 3 0;
#X connect 17 1 16 0;
#X connect 18 0 15 0;
