#N canvas 28 74 1309 789 10;
#X obj 971 133 \$0;
#X obj 925 156 pack f f;
#X obj 928 115 t f b;
#X obj 701 -185 inlet;
#X obj 649 -132 bng 15 250 50 0 empty empty empty 17 7 0 10 -262144
-1 -1;
#X obj 648 -105 s \$0-play;
#X obj 690 -83 s \$0-stop;
#X obj 742 303 s \$0-record;
#X obj 185 -185 inlet;
#X obj 253 -188 r \$0-record;
#X obj 336 -189 r \$0-stop;
#X obj 405 -189 r \$0-play;
#X obj 214 338 r \$0-theIndex;
#X obj 213 669 spigot;
#X obj 257 605 r \$0-play;
#X msg 256 630 1;
#X obj 322 606 r \$0-stop;
#X msg 324 628 0;
#X obj 388 605 r \$0-record;
#X obj 180 921 outlet;
#X obj 928 63 f;
#X obj 805 -73 s \$0-theIndex;
#X obj 220 179 tabwrite \$0-noteBuffer;
#X obj 212 524 tabread \$0-noteBuffer;
#X msg 924 181 \$2-patternBuffer resize \$1 \;;
#X obj 953 213 print;
#X msg 921 238 \$2-noteBuffer resize \$1 \;;
#X obj 921 275 print;
#X obj 688 -126 bng 15 250 50 0 empty empty empty 17 7 0 10 -262144
-1 -1;
#X obj 726 69 t f b;
#X obj 752 99 \$1;
#X obj 726 127 ==;
#X obj 724 154 sel 0 1;
#X obj 746 199 s \$0-play;
#X obj 898 -108 s \$0-clear;
#X obj 491 -178 r \$0-clear;
#X obj 492 -86 f;
#X obj 491 -38 until;
#X obj 491 -12 f;
#X obj 518 -11 + 1;
#X obj 491 18 mod;
#X obj 489 44 t b f;
#X msg 490 67 0;
#X obj 493 -145 t b;
#X obj 555 -51 print toUntil;
#X obj 970 104 s \$0-theLength;
#X obj 537 -141 r \$0-theLength;
#X obj 558 -1 r \$0-theLength;
#X obj 544 -98 print theLength;
#X obj 211 444 spigot;
#X obj 238 754 f;
#X obj 222 779 ==;
#X obj 212 707 t f f f b;
#X obj 193 830 spigot;
#X obj 227 804 birdInvert 1;
#X obj 180 889 pack \$1 f f;
#X obj 190 859 t b f;
#X obj 184 -130 spigot;
#X msg 337 -166 0;
#X obj 209 -69 unpack f f f;
#X msg 253 -165 1;
#X obj 183 24 print \$1-toBuffer;
#X obj 211 478 t f f f;
#X obj 741 262 t b b;
#X obj 765 333 s \$0-clear;
#X obj 212 400 mod 32;
#X msg 405 -163 1;
#X obj 921 14 r \$0-setLength;
#X msg 387 626 1;
#X obj 687 -163 route play record clock clear write read;
#X obj 725 46 r onOff;
#X obj 720 226 s \$0-stop;
#X obj -11 -142 table \$0-noteBufferBass;
#X obj -11 -107 table \$0-noteBufferSynth1;
#X obj -9 -72 table \$0-noteBufferSynth2;
#X obj -8 -43 table \$0-noteBufferSynth3;
#X connect 0 0 1 1;
#X connect 1 0 24 0;
#X connect 1 0 26 0;
#X connect 2 0 1 0;
#X connect 2 1 0 0;
#X connect 3 0 69 0;
#X connect 4 0 5 0;
#X connect 8 0 57 0;
#X connect 9 0 60 0;
#X connect 10 0 58 0;
#X connect 11 0 66 0;
#X connect 12 0 65 0;
#X connect 13 0 52 0;
#X connect 14 0 15 0;
#X connect 15 0 13 1;
#X connect 15 0 49 1;
#X connect 16 0 17 0;
#X connect 17 0 13 1;
#X connect 17 0 49 1;
#X connect 18 0 68 0;
#X connect 20 0 2 0;
#X connect 20 0 45 0;
#X connect 23 0 13 0;
#X connect 24 0 25 0;
#X connect 26 0 27 0;
#X connect 28 0 6 0;
#X connect 29 0 31 0;
#X connect 29 1 30 0;
#X connect 30 0 31 1;
#X connect 31 0 32 0;
#X connect 32 0 71 0;
#X connect 32 1 33 0;
#X connect 35 0 43 0;
#X connect 36 0 37 0;
#X connect 36 0 44 0;
#X connect 37 0 38 0;
#X connect 38 0 39 0;
#X connect 38 0 40 0;
#X connect 39 0 38 1;
#X connect 40 0 41 0;
#X connect 41 0 42 0;
#X connect 41 1 22 1;
#X connect 42 0 22 0;
#X connect 43 0 36 0;
#X connect 46 0 36 1;
#X connect 46 0 48 0;
#X connect 47 0 40 1;
#X connect 49 0 62 0;
#X connect 50 0 51 1;
#X connect 51 0 54 0;
#X connect 52 0 53 0;
#X connect 52 1 51 0;
#X connect 52 2 50 1;
#X connect 52 3 50 0;
#X connect 53 0 56 0;
#X connect 54 0 53 1;
#X connect 55 0 19 0;
#X connect 56 0 55 0;
#X connect 56 1 55 1;
#X connect 57 0 59 0;
#X connect 57 0 61 0;
#X connect 58 0 57 1;
#X connect 59 0 22 0;
#X connect 59 2 22 1;
#X connect 60 0 57 1;
#X connect 62 0 23 0;
#X connect 63 0 7 0;
#X connect 63 1 64 0;
#X connect 65 0 49 0;
#X connect 66 0 57 1;
#X connect 67 0 20 1;
#X connect 67 0 20 0;
#X connect 68 0 13 1;
#X connect 68 0 49 1;
#X connect 69 0 4 0;
#X connect 69 1 28 0;
#X connect 69 3 21 0;
#X connect 69 5 34 0;
#X connect 70 0 29 0;
#X coords 0 789 1 788 700 420 0;
