#N canvas 0 22 450 300 10;
#X obj 158 106 inlet;
#X obj 160 146 spigot;
#X obj 159 184 t a b;
#X obj 185 216 del \$1;
#X msg 185 243 1;
#X msg 206 184 0;
#X obj 263 103 inlet;
#X obj 215 39 loadbang;
#X msg 216 68 1;
#X obj 159 273 outlet;
#X connect 0 0 1 0;
#X connect 1 0 2 0;
#X connect 2 0 9 0;
#X connect 2 1 3 0;
#X connect 2 1 5 0;
#X connect 3 0 4 0;
#X connect 4 0 1 1;
#X connect 5 0 1 1;
#X connect 6 0 3 1;
#X connect 7 0 8 0;
#X connect 8 0 1 1;
