#N canvas 15 22 1425 795 12;
#X obj 45 352 phasor~;
#X obj 46 532 *~ -1;
#X obj 46 557 +~ 1;
#X obj 146 646 sig~ 1;
#X obj 211 654 cos~;
#X obj 147 679 -~;
#X obj 148 704 *~ 0.5;
#X obj 69 733 *~;
#X obj 77 619 samphold~;
#X obj 46 646 *~;
#X obj 78 591 sig~;
#X obj 150 351 / 44.1;
#X obj 432 501 *~ -1;
#X obj 433 534 +~ 1;
#X obj 526 630 sig~ 1;
#X obj 544 591 cos~;
#X obj 527 661 -~;
#X obj 528 686 *~ 0.5;
#X obj 455 718 *~;
#X obj 467 599 samphold~;
#X obj 408 636 *~;
#X obj 468 571 sig~;
#X obj 453 414 +~ 0.5;
#X obj 453 436 wrap~;
#X obj 121 918 outlet~;
#X obj 121 782 *~ 1;
#X obj -234 64 inlet~;
#X obj 39 687 vd~ \$0-buffer1;
#X obj 412 666 vd~ \$0-buffer1;
#X obj 65 222 swap 44100;
#X obj 82 254 /;
#X obj 45 315 *;
#X obj 83 288 f;
#X obj 5 151 / 12;
#X obj 16 243 - 1;
#X obj 16 273 f;
#X obj 16 205 pow;
#X obj 6 175 swap 2;
#X obj 63 188 t b f f;
#X obj -5 -159 inlet;
#X obj -235 95 delwrite~ \$0-buffer1 5000;
#X obj 298 135 switch~;
#X obj 121 885 *~;
#X obj 139 857 sig~;
#X obj 139 829 r \$0-volume;
#X obj 138 198 s \$0-volume;
#X obj 266 82 t b b;
#X msg 298 106 1;
#X obj 202 32 select 0 1;
#X obj 202 60 t b b;
#X msg 234 84 0;
#X obj 200 114 del 30;
#X msg 200 144 0;
#X obj 244 804 loadbang;
#X obj 128 138 f 0.5;
#X obj 63 92 loadbang;
#X obj 434 46 print windowSize;
#X obj 440 -1 + 1000;
#X obj 440 -30 * 29000;
#X obj 440 -118 inlet;
#X msg 245 835 1;
#X obj 199 -48 loadbang;
#X msg 199 -13 1;
#X msg 60 125 2500;
#X connect 0 0 1 0;
#X connect 0 0 4 0;
#X connect 0 0 8 1;
#X connect 0 0 22 0;
#X connect 1 0 2 0;
#X connect 2 0 9 0;
#X connect 3 0 5 0;
#X connect 4 0 5 1;
#X connect 5 0 6 0;
#X connect 6 0 7 1;
#X connect 7 0 25 0;
#X connect 8 0 9 1;
#X connect 9 0 27 0;
#X connect 10 0 8 0;
#X connect 11 0 21 0;
#X connect 11 0 10 0;
#X connect 12 0 13 0;
#X connect 13 0 20 0;
#X connect 14 0 16 0;
#X connect 15 0 16 1;
#X connect 16 0 17 0;
#X connect 17 0 18 1;
#X connect 18 0 25 0;
#X connect 19 0 20 1;
#X connect 20 0 28 0;
#X connect 21 0 19 0;
#X connect 22 0 23 0;
#X connect 23 0 12 0;
#X connect 23 0 19 1;
#X connect 23 0 15 0;
#X connect 25 0 42 0;
#X connect 26 0 40 0;
#X connect 27 0 7 0;
#X connect 28 0 18 0;
#X connect 29 0 30 0;
#X connect 29 1 30 1;
#X connect 30 0 32 1;
#X connect 30 0 32 0;
#X connect 31 0 0 0;
#X connect 32 0 31 1;
#X connect 33 0 37 0;
#X connect 34 0 35 1;
#X connect 34 0 35 0;
#X connect 35 0 31 0;
#X connect 36 0 34 0;
#X connect 37 0 36 0;
#X connect 37 1 36 1;
#X connect 38 0 35 0;
#X connect 38 1 29 0;
#X connect 38 2 11 0;
#X connect 39 0 33 0;
#X connect 42 0 24 0;
#X connect 43 0 42 1;
#X connect 44 0 43 0;
#X connect 46 0 54 0;
#X connect 46 1 47 0;
#X connect 47 0 41 0;
#X connect 48 0 49 0;
#X connect 48 1 46 0;
#X connect 49 0 51 0;
#X connect 49 1 50 0;
#X connect 50 0 45 0;
#X connect 51 0 52 0;
#X connect 52 0 41 0;
#X connect 53 0 60 0;
#X connect 54 0 45 0;
#X connect 55 0 63 0;
#X connect 57 0 38 0;
#X connect 57 0 56 0;
#X connect 58 0 57 0;
#X connect 59 0 58 0;
#X connect 60 0 43 0;
#X connect 61 0 62 0;
#X connect 62 0 48 0;
#X connect 63 0 38 0;
