#N canvas 120 36 1254 621 10;
#X obj -18 -305 adc~;
#N canvas 211 205 1256 433 time 0;
#X msg 170 96 play;
#X msg 229 108 stop;
#X msg 340 43 tempo \$1;
#X obj 368 204 s~ metro;
#X obj 238 205 route clock tempo;
#X obj 287 228 s \$0-tempo;
#X floatatom 340 9 5 0 0 0 - - -;
#X obj 257 276 s \$0-random;
#X obj 169 34 t b b;
#X obj 198 53 s \$0-resample;
#X obj 401 30 s \$0-tempo;
#X obj 167 -14 r \$0-start;
#X obj 237 313 s \$0-clock;
#X floatatom 177 284 5 0 0 0 - - -;
#X obj 255 253 sel 0;
#X obj 338 -22 r \$0-setTempo;
#X obj 225 23 r \$0-stop;
#X msg 387 113 divisions 4;
#X msg 428 -9 120;
#X obj 489 -7 r \$0-doubleTime;
#X obj 489 22 sel 0 1;
#X obj 340 66 t b a;
#X obj 491 77 f;
#X obj 522 76 f;
#X obj 521 104 * 2;
#X obj 131 196 s \$0-cmd;
#X msg 268 125 record;
#X obj 273 88 r \$0-recordPattern;
#X obj 237 174 birdClock 2 4 4 60 1;
#X obj 467 153 r \$0-currentPattern;
#X obj 80 124 r \$0-clearPattern;
#X msg 78 152 clear;
#X connect 0 0 28 0;
#X connect 1 0 28 0;
#X connect 2 0 21 0;
#X connect 4 0 12 0;
#X connect 4 0 13 0;
#X connect 4 0 14 0;
#X connect 4 1 5 0;
#X connect 6 0 2 0;
#X connect 6 0 10 0;
#X connect 8 0 0 0;
#X connect 8 1 9 0;
#X connect 11 0 8 0;
#X connect 14 0 7 0;
#X connect 15 0 6 0;
#X connect 15 0 22 1;
#X connect 15 0 23 1;
#X connect 16 0 1 0;
#X connect 17 0 28 1;
#X connect 18 0 6 0;
#X connect 19 0 20 0;
#X connect 20 0 22 0;
#X connect 20 1 23 0;
#X connect 21 0 0 0;
#X connect 21 1 28 1;
#X connect 22 0 2 0;
#X connect 23 0 24 0;
#X connect 24 0 2 0;
#X connect 26 0 28 0;
#X connect 27 0 26 0;
#X connect 28 0 4 0;
#X connect 28 0 25 0;
#X connect 28 1 3 0;
#X connect 29 0 28 1;
#X connect 30 0 31 0;
#X connect 31 0 28 0;
#X restore -14 70 pd time;
#N canvas 152 27 1440 796 melody 0;
#X obj 73 -97 inlet~;
#X obj 137 362 pitcher~;
#X obj 80 11 birdGate~;
#X msg 166 -22 learn;
#X msg 135 -166 mask \$1;
#X obj 158 -151 hsl 128 15 0 1 0 0 empty empty empty -2 -8 0 10 -262144
-1 -1 1270 1;
#X obj 239 364 pitcher~;
#X obj 360 367 pitcher~;
#X obj 168 -79 loadbang;
#X obj 152 -210 loadbang;
#X msg 157 -185 0.1;
#X obj 132 234 r \$0-currentChord;
#X obj 130 257 unpack f f f f;
#X obj 32 361 pitcher~;
#X obj 27 656 s~ pitchedR;
#X obj 261 652 s~ pitchedL;
#X msg 278 56 arm;
#X msg 241 37 play;
#X obj 241 -108 r \$0-clock;
#X obj 241 -14 sel 0;
#X obj 355 112 r \$0-tempo;
#X obj 356 167 swap 60000;
#X obj 356 194 /;
#X msg 434 119 120;
#X obj 138 337 vd~ \$0-delread1;
#X obj 76 -43 *~ 5;
#X obj 279 32 r \$0-resampleMelody;
#X obj 347 -153 r \$0-random;
#X floatatom 239 312 5 0 0 0 - - -;
#X floatatom 201 312 5 0 0 0 - - -;
#X floatatom 166 311 5 0 0 0 - - -;
#X floatatom 128 312 5 0 0 0 - - -;
#X obj 322 -2 bng 15 250 50 0 empty empty empty 17 7 0 10 -262144 -1
-1;
#X floatatom 314 -42 5 0 0 0 - - -;
#X obj 423 -127 bng 15 250 50 0 empty empty empty 17 7 0 10 -262144
-1 -1;
#X obj 241 -67 mod;
#X obj 108 91 *~ 2;
#X obj 347 -115 random 3;
#X obj 350 -85 + 2;
#X msg 411 26 threshold 0.7;
#X floatatom 321 283 5 0 0 0 - - -;
#X floatatom 365 307 5 0 0 0 - - -;
#X floatatom 420 310 5 0 0 0 - - -;
#X obj 104 43 birdSampler3~;
#X obj 266 254 r \$0-transpose;
#X obj 131 288 + 24;
#X obj 173 289 + 24;
#X obj 206 289 + 24;
#X obj 240 289 + 24;
#X obj 671 -48 hradio 15 1 0 8 empty empty empty 0 -8 0 10 -262144
-1 -1 3;
#X obj 672 -24 - 3;
#X obj 673 3 * 12;
#X obj 673 28 s \$0-transpose;
#X obj 118 166 delwrite~ \$0-delread1 5000;
#X obj 236 335 vd~ \$0-delread1;
#X obj 360 337 vd~ \$0-delread1;
#X obj 353 230 * 2;
#X obj 401 226 * 3;
#X obj 462 228 * 4;
#X obj 351 252 lop~ 20;
#X obj 402 251 lop~ 20;
#X obj 462 253 lop~ 20;
#X obj 182 80 print melodySampler;
#X obj 99 136 birdFilter~ 1250 2500 6500 8500;
#X connect 0 0 25 0;
#X connect 1 0 15 0;
#X connect 3 0 2 1;
#X connect 4 0 2 1;
#X connect 5 0 4 0;
#X connect 6 0 14 0;
#X connect 7 0 15 0;
#X connect 8 0 3 0;
#X connect 9 0 10 0;
#X connect 10 0 5 0;
#X connect 11 0 12 0;
#X connect 12 0 45 0;
#X connect 12 1 46 0;
#X connect 12 2 47 0;
#X connect 12 3 48 0;
#X connect 13 0 14 0;
#X connect 16 0 43 1;
#X connect 17 0 43 1;
#X connect 18 0 35 0;
#X connect 19 0 17 0;
#X connect 19 0 32 0;
#X connect 20 0 21 0;
#X connect 21 0 22 0;
#X connect 21 1 22 1;
#X connect 22 0 40 0;
#X connect 22 0 56 0;
#X connect 22 0 57 0;
#X connect 22 0 58 0;
#X connect 23 0 21 0;
#X connect 24 0 1 0;
#X connect 25 0 2 0;
#X connect 25 0 43 0;
#X connect 26 0 16 0;
#X connect 27 0 34 0;
#X connect 27 0 37 0;
#X connect 34 0 37 0;
#X connect 35 0 19 0;
#X connect 35 0 33 0;
#X connect 36 0 63 0;
#X connect 37 0 38 0;
#X connect 38 0 35 1;
#X connect 43 0 36 0;
#X connect 43 1 62 0;
#X connect 44 0 45 1;
#X connect 44 0 46 1;
#X connect 44 0 47 1;
#X connect 44 0 48 1;
#X connect 45 0 13 1;
#X connect 45 0 31 0;
#X connect 46 0 1 1;
#X connect 46 0 30 0;
#X connect 47 0 6 1;
#X connect 47 0 29 0;
#X connect 48 0 7 1;
#X connect 48 0 28 0;
#X connect 49 0 50 0;
#X connect 50 0 51 0;
#X connect 51 0 52 0;
#X connect 54 0 6 0;
#X connect 55 0 7 0;
#X connect 56 0 59 0;
#X connect 57 0 41 0;
#X connect 57 0 60 0;
#X connect 58 0 42 0;
#X connect 58 0 61 0;
#X connect 59 0 24 0;
#X connect 60 0 54 0;
#X connect 61 0 55 0;
#X connect 63 0 53 0;
#X connect 63 0 13 0;
#X restore -18 -10 pd melody;
#N canvas 389 22 450 300 monitor 0;
#X obj 57 15 inlet~;
#X obj 58 79 dbtorms;
#X obj 57 58 env~ 88200;
#X obj 58 104 runningAvg 10;
#X floatatom 58 154 5 0 0 0 - - -;
#X obj 101 179 min 1;
#X obj 102 201 s \$0-threshold;
#X floatatom 53 229 5 0 0 0 - - -;
#X obj 101 154 * 200;
#X connect 0 0 2 0;
#X connect 1 0 3 0;
#X connect 2 0 1 0;
#X connect 3 0 4 0;
#X connect 3 0 8 0;
#X connect 5 0 6 0;
#X connect 5 0 7 0;
#X connect 8 0 5 0;
#X restore -20 -115 pd monitor;
#N canvas 119 68 1226 669 out 1;
#X obj 916 214 birdOut~;
#X obj 996 67 r \$0-tempo;
#X obj 873 -280 r~ samplerL;
#X obj 975 -279 r~ samplerR;
#X obj 1096 68 r \$0-random;
#X obj 981 171 hsl 128 15 0.01 1 1 0 empty empty empty -2 -8 0 10 -262144
-1 -1 0 1;
#X obj 908 446 writesf~ 2;
#X msg 904 346 open newStuff.wav;
#X msg 916 374 start;
#X msg 961 373 stop;
#X msg 979 195 volume \$1;
#X obj 907 266 r \$0-startRecord;
#X obj 907 286 t b b;
#X obj 906 320 del 500;
#X obj 1031 345 r \$0-stopRecord;
#X obj 575 -135 *~;
#X obj 656 -135 *~;
#X obj 735 -132 lop~ 1;
#X obj 658 -109 throw~ \$0-outR;
#X obj 925 126 catch~ \$0-outR;
#X obj 563 -108 throw~ \$0-outL;
#X obj 889 88 catch~ \$0-outL;
#X obj 679 -201 hsl 128 15 0.01 1 1 0 empty empty empty -2 -8 0 10
-262144 -1 -1 12700 1;
#X obj 654 -260 r~ synthR;
#X obj 574 -230 r~ synthL;
#X obj 898 -174 *~;
#X obj 979 -174 *~;
#X obj 999 -197 lop~ 1;
#X obj 981 -147 throw~ \$0-outR;
#X obj 885 -145 throw~ \$0-outL;
#X obj 1002 -221 hsl 128 15 0.01 1 1 0 empty empty empty -2 -8 0 10
-262144 -1 -1 12700 1;
#X obj 1167 -281 r~ drumsL;
#X obj 1266 -284 r~ drumsR;
#X obj 1185 -137 *~;
#X obj 1266 -137 *~;
#X obj 1286 -160 lop~ 1;
#X obj 1268 -110 throw~ \$0-outR;
#X obj 1172 -108 throw~ \$0-outL;
#X obj 1351 -217 hsl 128 15 0.01 1 1 0 empty empty empty -2 -8 0 10
-262144 -1 -1 12700 1;
#X msg 1055 226 fxMix \$1;
#X obj 1062 204 hsl 128 15 0.01 1 1 0 empty empty empty -2 -8 0 10
-262144 -1 -1 12700 1;
#X msg 1071 250 0;
#X msg 995 86 fx tempo \$1;
#X msg 1095 93 fx randomize;
#X obj 1022 421 env~;
#X floatatom 1004 454 5 0 0 0 - - -;
#X obj 567 39 *~;
#X obj 648 39 *~;
#X obj 741 18 lop~ 1;
#X obj 650 65 throw~ \$0-outR;
#X obj 555 66 throw~ \$0-outL;
#X obj 755 -10 hsl 128 15 0.01 1 1 0 empty empty empty -2 -8 0 10 -262144
-1 -1 12700 1;
#X obj 565 -58 r~ pitchedL;
#X obj 650 -52 r~ pitchedR;
#X obj 547 340 *~;
#X obj 628 340 *~;
#X obj 648 317 lop~ 1;
#X obj 630 366 throw~ \$0-outR;
#X obj 535 367 throw~ \$0-outL;
#X obj 654 253 hsl 128 15 0.01 1 1 0 empty empty empty -2 -8 0 10 -262144
-1 -1 9500 1;
#X obj 548 203 r~ metro;
#X obj 1353 -245 tgl 15 0 empty empty empty 17 7 0 10 -262144 -1 -1
1 1;
#X obj 1069 -259 tgl 15 0 empty empty empty 17 7 0 10 -262144 -1 -1
1 1;
#X obj 679 -219 tgl 15 0 empty empty empty 17 7 0 10 -262144 -1 -1
1 1;
#X obj 754 -37 tgl 15 0 empty empty empty 17 7 0 10 -262144 -1 -1 1
1;
#X obj 1056 115 tgl 15 0 empty empty empty 17 7 0 10 -262144 -1 -1
1 1;
#X obj 1054 133 sel 0 1;
#X msg 1027 123 0;
#X obj 1171 136 tgl 15 0 empty empty empty 17 7 0 10 -262144 -1 -1
1 1;
#X obj 1173 -236 birdSqueeze~;
#X obj 1266 -250 birdSqueeze~;
#X obj 564 -20 birdSqueeze~;
#X obj 658 -28 birdSqueeze~;
#X obj 891 -252 birdSqueeze~;
#X obj 979 -248 birdSqueeze~;
#X obj 723 -291 random 2;
#X obj 1072 -277 random 2;
#X obj 1352 -274 random 2;
#X obj 753 -64 random 2;
#X obj 628 167 tgl 15 0 empty empty empty 17 7 0 10 -262144 -1 -1 1
1;
#X obj 627 140 random 2;
#X obj 724 -321 r \$0-random2;
#X obj 1073 -300 r \$0-random2;
#X obj 1353 -297 r \$0-random2;
#X obj 754 -87 r \$0-random2;
#X obj 628 117 r \$0-random2;
#X obj 570 -330 s \$0-random2;
#X obj 569 -358 bng 15 250 50 0 empty empty empty 17 7 0 10 -262144
-1 -1;
#X obj 878 -220 *~ 3;
#X obj 967 -220 *~ 3;
#X obj 698 -218 bng 15 250 50 0 empty empty empty 17 7 0 10 -262144
-1 -1;
#X obj 1267 -202 *~ 15;
#X obj 1178 -192 *~ 15;
#X obj 562 3 *~ 2;
#X obj 651 3 *~ 2;
#X msg 735 -177 \$1 5000;
#X obj 735 -152 line;
#X msg 1082 -198 \$1 5000;
#X obj 1082 -173 line;
#X msg 1356 -187 \$1 5000;
#X obj 1356 -162 line;
#X msg 763 42 \$1 5000;
#X obj 763 67 line;
#X msg 695 277 \$1 5000;
#X obj 695 302 line;
#X connect 0 0 6 0;
#X connect 0 0 44 0;
#X connect 0 1 6 1;
#X connect 0 1 44 0;
#X connect 1 0 42 0;
#X connect 2 0 73 0;
#X connect 2 0 88 0;
#X connect 3 0 74 0;
#X connect 3 0 89 0;
#X connect 4 0 43 0;
#X connect 5 0 10 0;
#X connect 7 0 6 0;
#X connect 8 0 6 0;
#X connect 9 0 6 0;
#X connect 10 0 0 2;
#X connect 11 0 12 0;
#X connect 12 0 13 0;
#X connect 12 1 7 0;
#X connect 13 0 8 0;
#X connect 14 0 9 0;
#X connect 15 0 20 0;
#X connect 16 0 18 0;
#X connect 17 0 16 1;
#X connect 17 0 15 1;
#X connect 19 0 0 1;
#X connect 21 0 0 0;
#X connect 22 0 95 0;
#X connect 23 0 16 0;
#X connect 24 0 15 0;
#X connect 25 0 29 0;
#X connect 26 0 28 0;
#X connect 27 0 26 1;
#X connect 27 0 25 1;
#X connect 30 0 97 0;
#X connect 31 0 69 0;
#X connect 31 0 92 0;
#X connect 32 0 70 0;
#X connect 32 0 91 0;
#X connect 33 0 37 0;
#X connect 34 0 36 0;
#X connect 35 0 34 1;
#X connect 35 0 33 1;
#X connect 38 0 99 0;
#X connect 39 0 0 2;
#X connect 40 0 39 0;
#X connect 41 0 39 0;
#X connect 42 0 0 2;
#X connect 43 0 0 2;
#X connect 44 0 45 0;
#X connect 46 0 50 0;
#X connect 47 0 49 0;
#X connect 48 0 47 1;
#X connect 48 0 46 1;
#X connect 51 0 101 0;
#X connect 52 0 71 0;
#X connect 52 0 93 0;
#X connect 53 0 72 0;
#X connect 53 0 94 0;
#X connect 54 0 58 0;
#X connect 55 0 57 0;
#X connect 56 0 55 1;
#X connect 56 0 54 1;
#X connect 59 0 56 0;
#X connect 59 0 103 0;
#X connect 60 0 54 0;
#X connect 60 0 55 0;
#X connect 61 0 38 0;
#X connect 62 0 30 0;
#X connect 63 0 22 0;
#X connect 64 0 51 0;
#X connect 66 0 67 0;
#X connect 66 1 5 0;
#X connect 67 0 10 0;
#X connect 68 0 40 0;
#X connect 69 0 92 0;
#X connect 70 0 91 0;
#X connect 71 0 93 0;
#X connect 72 0 94 0;
#X connect 73 0 88 0;
#X connect 74 0 89 0;
#X connect 75 0 63 0;
#X connect 76 0 62 0;
#X connect 77 0 61 0;
#X connect 78 0 64 0;
#X connect 79 0 59 0;
#X connect 80 0 79 0;
#X connect 81 0 75 0;
#X connect 82 0 76 0;
#X connect 83 0 77 0;
#X connect 84 0 78 0;
#X connect 85 0 80 0;
#X connect 87 0 86 0;
#X connect 88 0 25 0;
#X connect 89 0 26 0;
#X connect 90 0 63 0;
#X connect 91 0 34 0;
#X connect 92 0 33 0;
#X connect 93 0 46 0;
#X connect 94 0 47 0;
#X connect 95 0 96 0;
#X connect 96 0 17 0;
#X connect 97 0 98 0;
#X connect 98 0 27 0;
#X connect 99 0 100 0;
#X connect 100 0 35 0;
#X connect 101 0 102 0;
#X connect 102 0 48 0;
#X connect 103 0 104 0;
#X connect 104 0 56 0;
#X coords 0 669 1 668 150 300 0;
#X restore -11 92 pd out;
#N canvas 212 125 1440 796 chords 0;
#X obj 541 190 r \$0-changeChord;
#X obj 394 410 list prepend set;
#X obj 393 432 list trim;
#X msg 393 496 58 62 65 70;
#X obj 395 456 t b a;
#X obj 389 531 s \$0-currentChord;
#N canvas 665 188 649 479 progression 0;
#X obj 162 373 outlet;
#X obj 180 82 select 0 1 2;
#X obj 268 -5 random 3;
#X msg 181 118 60 64 67 72;
#X msg 200 145 68 72 75 80;
#X msg 214 178 58 62 65 70;
#X obj 181 -90 inlet;
#X obj 181 -1 f;
#X obj 217 1 + 1;
#X obj 181 34 mod 3;
#X obj 181 -26 spigot;
#X obj 267 -45 spigot;
#X obj 264 -78 birdInvert 1;
#X obj 407 -90 inlet;
#X obj 407 -53 route random reset;
#X msg 459 -25 0;
#X connect 1 0 3 0;
#X connect 1 1 4 0;
#X connect 1 2 5 0;
#X connect 2 0 1 0;
#X connect 3 0 0 0;
#X connect 4 0 0 0;
#X connect 5 0 0 0;
#X connect 6 0 10 0;
#X connect 6 0 11 0;
#X connect 7 0 8 0;
#X connect 7 0 9 0;
#X connect 8 0 7 1;
#X connect 9 0 1 0;
#X connect 10 0 7 0;
#X connect 11 0 2 0;
#X connect 12 0 10 1;
#X connect 13 0 14 0;
#X connect 14 0 12 0;
#X connect 14 0 11 1;
#X connect 14 1 15 0;
#X connect 15 0 7 1;
#X restore 419 320 pd progression;
#N canvas 833 246 450 300 progression 0;
#X msg 182 174 69 64 60 57;
#X obj 168 67 random 8;
#X obj 167 112 select 0 1 2 3 4 5 6 7;
#X msg 167 144 72 67 64 60;
#X msg 200 187 64 67 71 76;
#X msg 213 209 62 65 69 74;
#X msg 228 233 65 69 72 77;
#X msg 241 256 67 71 74 79;
#X msg 259 283 60 64 67 72;
#X msg 275 308 71 74 77 83;
#X obj 237 91 bng 15 250 50 0 empty empty empty 17 7 0 10 -262144 -1
-1;
#X obj 148 401 outlet;
#X obj 166 34 inlet;
#X connect 0 0 11 0;
#X connect 1 0 2 0;
#X connect 2 0 3 0;
#X connect 2 1 3 0;
#X connect 2 2 0 0;
#X connect 2 3 6 0;
#X connect 2 4 6 0;
#X connect 2 5 7 0;
#X connect 2 6 7 0;
#X connect 2 7 3 0;
#X connect 3 0 11 0;
#X connect 4 0 11 0;
#X connect 5 0 11 0;
#X connect 6 0 11 0;
#X connect 7 0 11 0;
#X connect 8 0 11 0;
#X connect 9 0 11 0;
#X connect 12 0 1 0;
#X connect 12 0 10 0;
#X restore 654 317 pd progression;
#X msg 501 296 random \$1;
#X obj 503 272 tgl 15 0 empty empty empty 17 7 0 10 -262144 -1 -1 0
1;
#X obj 301 -7 r \$0-random;
#X obj 300 47 ctr;
#X obj 301 146 sel 1;
#X obj 298 172 s \$0-resample;
#X floatatom 339 146 5 0 0 0 - - -;
#X obj 375 107 sel 0;
#X obj 374 130 s \$0-changeChord;
#X obj 301 119 mod 32;
#X obj 374 77 mod 2;
#N canvas 665 188 649 479 progression 0;
#X obj 162 373 outlet;
#X obj 180 82 select 0 1 2;
#X obj 268 -5 random 3;
#X obj 181 -90 inlet;
#X obj 181 -1 f;
#X obj 217 1 + 1;
#X obj 181 34 mod 3;
#X obj 181 -26 spigot;
#X obj 267 -45 spigot;
#X obj 264 -78 birdInvert 1;
#X obj 407 -90 inlet;
#X obj 407 -53 route random reset;
#X msg 459 -25 0;
#X msg 181 118 57 60 64 69;
#X msg 198 148 60 64 67 72;
#X msg 214 178 65 69 72 77;
#X connect 1 0 13 0;
#X connect 1 1 14 0;
#X connect 1 2 15 0;
#X connect 2 0 1 0;
#X connect 3 0 7 0;
#X connect 3 0 8 0;
#X connect 4 0 5 0;
#X connect 4 0 6 0;
#X connect 5 0 4 1;
#X connect 6 0 1 0;
#X connect 7 0 4 0;
#X connect 8 0 2 0;
#X connect 9 0 7 1;
#X connect 10 0 11 0;
#X connect 11 0 9 0;
#X connect 11 0 8 1;
#X connect 11 1 12 0;
#X connect 12 0 4 1;
#X connect 13 0 0 0;
#X connect 14 0 0 0;
#X connect 15 0 0 0;
#X restore 241 304 pd progression;
#X msg 323 280 random \$1;
#X obj 325 256 tgl 15 0 empty empty empty 17 7 0 10 -262144 -1 -1 0
1;
#X obj 481 131 hradio 15 1 0 8 empty empty empty 0 -8 0 10 -262144
-1 -1 1;
#X obj 412 206 route 0 1 2 3 4;
#X obj 515 224 print prgression;
#X obj 400 161 f 0;
#X obj 482 49 mod 8;
#X obj 480 77 sel 0;
#X obj 482 103 random 2;
#X connect 1 0 2 0;
#X connect 2 0 4 0;
#X connect 3 0 5 0;
#X connect 4 0 3 0;
#X connect 4 1 3 0;
#X connect 6 0 1 0;
#X connect 8 0 6 1;
#X connect 9 0 8 0;
#X connect 10 0 11 0;
#X connect 11 0 17 0;
#X connect 11 0 18 0;
#X connect 12 0 13 0;
#X connect 15 0 16 0;
#X connect 15 0 25 0;
#X connect 17 0 12 0;
#X connect 17 0 14 0;
#X connect 18 0 15 0;
#X connect 18 0 26 0;
#X connect 19 0 1 0;
#X connect 20 0 19 1;
#X connect 21 0 20 0;
#X connect 22 0 25 1;
#X connect 23 0 19 0;
#X connect 23 1 6 0;
#X connect 25 0 23 0;
#X connect 25 0 24 0;
#X connect 26 0 27 0;
#X connect 27 0 16 0;
#X connect 27 0 28 0;
#X connect 28 0 22 0;
#X restore -14 46 pd chords;
#N canvas 675 40 774 698 sampler 0;
#X obj 51 290 s~ input;
#X obj 2 235 birdGate~;
#X msg 154 200 learn;
#X msg 70 178 mask \$1;
#X obj 71 157 hsl 128 15 0 1 0 0 empty empty empty -2 -8 0 10 -262144
-1 -1 4191 1;
#X obj 10 465 samplerChain~;
#X msg 59 401 init;
#X msg 134 427 play \$1;
#X obj 174 493 hsl 128 15 0 1 0 0 empty empty empty -2 -8 0 10 -262144
-1 -1 7620 1;
#X msg 172 510 threshold \$1;
#X msg 314 486 0.25;
#X obj 30 43 hsl 128 15 0 1 0 0 empty empty empty -2 -8 0 10 -262144
-1 -1 12700 1;
#X obj 84 496 bng 15 250 50 0 empty empty empty 17 7 0 10 -262144 -1
-1;
#X obj 64 377 t b b;
#X msg 100 402 1;
#X msg 86 517 0;
#X obj 64 354 bng 15 250 50 0 empty empty empty 17 7 0 10 -262144 -1
-1;
#X obj 82 323 r \$0-resample;
#X obj -1 183 *~;
#X obj 164 59 loadbang;
#X msg 65 118 0.33;
#X obj 173 446 loadbang;
#X msg 174 468 0.6;
#X obj 169 97 t b b b;
#X msg 207 118 1;
#X obj 213 144 del 2500;
#X msg 213 164 0;
#X obj 248 170 del 2500;
#X obj 247 194 s \$0-start;
#X obj 244 448 r \$0-threshold;
#X obj -28 594 s~ samplerR;
#X obj 52 595 s~ samplerL;
#X obj 3 8 inlet~;
#X obj 160 397 hradio 15 1 0 4 empty empty empty 0 -8 0 10 -262144
-1 -1 0;
#X obj 177 359 randomSequencer;
#X obj 173 257 r \$0-clock;
#X obj 26 72 * 10;
#X obj 176 287 mod 4;
#X obj 27 313 r \$0-forceResample;
#X obj 51 570 birdFilter~ 1250 3500 9500 7500;
#X obj -38 547 birdFilter~ 1250 3500 9500 7500;
#X connect 1 0 0 0;
#X connect 1 0 5 0;
#X connect 2 0 1 1;
#X connect 3 0 1 1;
#X connect 4 0 3 0;
#X connect 5 0 40 0;
#X connect 5 1 39 0;
#X connect 5 2 12 0;
#X connect 6 0 5 1;
#X connect 7 0 5 1;
#X connect 8 0 9 0;
#X connect 9 0 5 1;
#X connect 10 0 9 0;
#X connect 11 0 36 0;
#X connect 12 0 15 0;
#X connect 13 0 6 0;
#X connect 13 1 14 0;
#X connect 14 0 11 0;
#X connect 15 0 11 0;
#X connect 16 0 13 0;
#X connect 17 0 16 0;
#X connect 18 0 1 0;
#X connect 19 0 20 0;
#X connect 19 0 23 0;
#X connect 20 0 4 0;
#X connect 21 0 22 0;
#X connect 22 0 8 0;
#X connect 23 0 2 0;
#X connect 23 1 25 0;
#X connect 23 2 24 0;
#X connect 24 0 11 0;
#X connect 25 0 26 0;
#X connect 25 0 27 0;
#X connect 26 0 11 0;
#X connect 27 0 28 0;
#X connect 32 0 18 0;
#X connect 33 0 7 0;
#X connect 34 0 7 0;
#X connect 35 0 37 0;
#X connect 36 0 18 1;
#X connect 37 0 34 0;
#X connect 38 0 16 0;
#X connect 39 0 31 0;
#X connect 40 0 30 0;
#X restore -20 -63 pd sampler;
#X obj -19 -274 s~ rawInput;
#X obj -19 -140 r~ rawInput;
#X obj -20 -87 r~ rawInput;
#X obj -18 -34 r~ rawInput;
#X obj -17 -195 switch~;
#X msg -16 -216 1;
#X obj 95 -303 bng 50 250 50 0 \$0-start empty empty 17 7 0 10 -262144
-1 -1;
#X text 100 -248 play;
#X obj 192 -302 bng 50 250 50 0 \$0-stop empty empty 17 7 0 10 -262144
-1 -1;
#X text 202 -248 stop;
#X text 93 -166 resample;
#X obj 94 -216 bng 50 250 50 0 \$0-forceResample empty empty 17 7 0
10 -262144 -1 -1;
#X text 202 -173 clock;
#X floatatom 203 -192 5 0 0 0 - #0-clock -;
#X obj -15 -237 loadbang;
#X obj 286 -300 bng 50 250 50 0 \$0-startRecord empty empty 17 7 0
10 -262144 -1 -1;
#X text 275 -247 start record;
#X obj 288 -216 bng 50 250 50 0 \$0-stopRecord empty empty 17 7 0 10
-262144 -1 -1;
#X text 277 -163 stop record;
#X obj 388 -215 tgl 50 0 \$0-doubleTime empty empty 17 7 0 10 -262144
-1 -1 0 1;
#X text 376 -162 double time;
#X msg 17 -215 0;
#N canvas 414 106 852 611 synth 0;
#N canvas 175 22 1172 801 instr 0;
#X obj 299 259 pack f 127;
#X obj 144 757 outlet~;
#X obj -106 -9 inlet;
#X obj 785 752 outlet~;
#X obj 1217 618 r \$0-random;
#X obj -85 486 - 12;
#X obj -84 515 pack f 127;
#X obj -99 288 pack f 127;
#X obj 1231 778 s \$0-toSynths;
#X obj 66 270 r \$0-toSynths;
#X obj 501 214 r \$0-toSynths;
#X obj 312 500 pack f 127;
#X obj 509 465 r \$0-toSynths;
#X obj 722 257 pack f 127;
#X obj 913 214 r \$0-toSynths;
#X obj -107 11 route monitor;
#X obj -105 69 route 0 1 2 3;
#X obj -105 44 s \$0-theMonitor;
#X obj -105 96 s \$0-synth1;
#X obj -86 122 s \$0-synth2;
#X obj -68 143 s \$0-synth3;
#X obj -51 167 s \$0-synth4;
#X obj -98 226 r \$0-synth1;
#X obj -85 463 r \$0-synth2;
#X obj 294 229 r \$0-synth3;
#X obj 312 468 r \$0-synth4;
#X obj 724 229 r \$0-theMonitor;
#X obj 73 292 route 0;
#X obj -91 341 throw~ \$0-synthOutL;
#X obj 76 342 throw~ \$0-synthOutR;
#X obj 140 717 catch~ \$0-synthOutL;
#X obj 778 716 catch~ \$0-synthOutR;
#X obj -79 572 throw~ \$0-synthOutL;
#X obj 118 565 throw~ \$0-synthOutR;
#X obj 305 331 throw~ \$0-synthOutL;
#X obj 507 325 throw~ \$0-synthOutR;
#X obj 311 567 throw~ \$0-synthOutL;
#X obj 513 561 throw~ \$0-synthOutR;
#X obj 724 323 throw~ \$0-synthOutL;
#X obj 902 319 throw~ \$0-synthOutR;
#N canvas 488 201 902 552 r 0;
#X obj 471 186 random 3;
#X obj 470 226 sel 0 1 2;
#X floatatom 435 272 5 0 0 0 - - -;
#X msg 493 265 osc shape square;
#X msg 528 286 osc shape sine;
#X msg 474 245 osc shape saw;
#X obj 470 124 inlet;
#X obj 496 322 list prepend;
#X obj 547 124 inlet;
#X obj 490 354 list trim;
#X obj 489 383 outlet;
#X connect 0 0 1 0;
#X connect 0 0 2 0;
#X connect 1 0 5 0;
#X connect 1 1 3 0;
#X connect 1 2 4 0;
#X connect 3 0 7 0;
#X connect 4 0 7 0;
#X connect 5 0 7 0;
#X connect 6 0 0 0;
#X connect 7 0 9 0;
#X connect 8 0 7 1;
#X connect 9 0 10 0;
#X restore 1254 672 pd r shape;
#X obj 1191 255 hsl 128 15 0 1 0 0 empty empty empty -2 -8 0 10 -262144
-1 -1 12700 1;
#X obj 1188 188 random 100;
#X obj 1189 210 * 0.01;
#X obj 1187 405 s \$0-toSynths;
#X obj 1185 91 r \$0-random;
#X obj 1220 311 hradio 15 1 0 8 empty empty empty 0 -8 0 10 -262144
-1 -1 3;
#X obj 1217 281 loadbang;
#X obj 118 483 r \$0-toSynths;
#X obj 118 512 route 1;
#X obj 501 265 route 2;
#X obj 510 501 route 3;
#X obj 1193 129 bng 50 250 50 0 empty empty empty 17 7 0 10 -262144
-1 -1;
#X obj 1346 239 hsl 128 15 0 20 0 0 empty empty empty -2 -8 0 10 -262144
-1 -1 1600 1;
#X obj 1342 184 random 100;
#X obj 1343 206 * 0.01;
#X obj 1345 93 r \$0-random;
#X obj 1399 300 hradio 15 1 0 8 empty empty empty 0 -8 0 10 -262144
-1 -1 3;
#X obj 1399 277 loadbang;
#X obj 1347 125 bng 50 250 50 0 empty empty empty 17 7 0 10 -262144
-1 -1;
#X obj 1198 454 vsl 15 128 0.01 1 0 0 empty empty empty 0 -9 0 10 -262144
-1 -1 0 1;
#X msg 1197 593 env a \$1;
#X obj 1187 354 list prepend;
#X obj 1186 377 list trim;
#X msg 1186 328 osc gliss \$1;
#X obj 1237 212 / 25;
#X obj 1345 404 s \$0-toSynths;
#X obj 1345 353 list prepend;
#X obj 1346 375 list trim;
#X msg 1344 327 comp \$1;
#X obj 1397 207 / 25;
#X obj 912 238 route 0 1 2 3;
#X obj 1269 645 bng 15 250 50 0 empty empty empty 17 7 0 10 -262144
-1 -1;
#X obj 1313 634 hradio 15 1 0 8 empty empty empty 0 -8 0 10 -262144
-1 -1 2;
#X msg 1186 702 0 env randomize \, 1 env randomize \, 2 env randomize
\, 3 env randomize;
#X msg 1221 736 0 pan randomize \, 1 pan randomize \, 2 pan randomize
\, 3 pan randomize;
#X obj 1264 502 list prepend voice;
#X obj 1263 529 list prepend;
#X obj 1264 553 list trim;
#X obj 1266 444 hradio 15 1 0 8 empty empty empty 0 -8 0 10 -262144
-1 -1 0;
#X obj 1331 481 hradio 15 1 0 8 empty empty empty 0 -8 0 10 -262144
-1 -1 3;
#X obj 1261 422 loadbang;
#X obj -99 259 - 36;
#X obj 1319 585 print toS;
#X obj 721 286 birdSynth~ 0 50 150 250 500 10;
#X obj 301 287 birdSynth~ 0 2500 2750 2600 5000 1;
#X obj -95 314 birdSynth~ 0 50 150 250 500 8;
#X obj -81 539 birdSynth~ 0 1250 1750 2500 4000 2;
#X obj 311 529 birdSynth~ 0 2500 2750 2600 5000 1;
#X connect 0 0 85 0;
#X connect 2 0 15 0;
#X connect 4 0 75 0;
#X connect 4 0 74 0;
#X connect 4 0 40 0;
#X connect 4 0 72 0;
#X connect 5 0 6 0;
#X connect 6 0 87 0;
#X connect 7 0 86 0;
#X connect 9 0 27 0;
#X connect 10 0 50 0;
#X connect 11 0 88 0;
#X connect 12 0 51 0;
#X connect 13 0 84 0;
#X connect 14 0 71 0;
#X connect 15 0 17 0;
#X connect 15 1 16 0;
#X connect 16 0 18 0;
#X connect 16 1 19 0;
#X connect 16 2 20 0;
#X connect 16 3 21 0;
#X connect 22 0 82 0;
#X connect 23 0 5 0;
#X connect 24 0 0 0;
#X connect 25 0 11 0;
#X connect 26 0 13 0;
#X connect 27 0 86 1;
#X connect 30 0 1 0;
#X connect 31 0 3 0;
#X connect 40 0 8 0;
#X connect 41 0 64 0;
#X connect 42 0 43 0;
#X connect 42 0 65 0;
#X connect 43 0 41 0;
#X connect 46 0 62 1;
#X connect 47 0 46 0;
#X connect 48 0 49 0;
#X connect 49 0 87 1;
#X connect 50 0 85 1;
#X connect 51 0 88 1;
#X connect 52 0 42 0;
#X connect 53 0 69 0;
#X connect 54 0 55 0;
#X connect 54 0 70 0;
#X connect 55 0 53 0;
#X connect 57 0 67 1;
#X connect 58 0 57 0;
#X connect 59 0 54 0;
#X connect 62 0 63 0;
#X connect 63 0 44 0;
#X connect 64 0 62 0;
#X connect 65 0 46 0;
#X connect 67 0 68 0;
#X connect 68 0 66 0;
#X connect 69 0 67 0;
#X connect 70 0 57 0;
#X connect 71 0 84 1;
#X connect 71 1 84 1;
#X connect 71 2 84 1;
#X connect 71 3 84 1;
#X connect 73 0 40 1;
#X connect 74 0 8 0;
#X connect 75 0 8 0;
#X connect 76 0 77 0;
#X connect 77 0 78 0;
#X connect 78 0 8 0;
#X connect 78 0 83 0;
#X connect 79 0 76 0;
#X connect 80 0 77 1;
#X connect 81 0 80 0;
#X connect 81 0 79 0;
#X connect 82 0 7 0;
#X connect 84 0 38 0;
#X connect 84 1 39 0;
#X connect 85 0 34 0;
#X connect 85 1 35 0;
#X connect 86 0 28 0;
#X connect 86 1 29 0;
#X connect 87 0 32 0;
#X connect 87 1 33 0;
#X connect 88 0 36 0;
#X connect 88 1 37 0;
#X restore 322 498 pd instr;
#X obj 322 356 r \$0-randomPlayer;
#X obj 414 559 s~ synthR;
#X obj 331 559 s~ synthL;
#X obj -15 336 randomPlayer;
#X obj -15 270 r \$0-clock;
#X floatatom -3 294 5 0 0 0 - - -;
#X obj 53 163 r \$0-currentChord;
#X obj 52 209 list trim;
#X obj 53 187 list prepend chord set;
#X obj -16 365 s \$0-randomPlayer;
#X obj 201 126 loadbang;
#X obj 486 339 inlet;
#X obj 486 372 route random;
#X obj 322 434 spigot;
#X obj 403 434 spigot;
#X obj 400 123 inlet;
#X obj 540 321 loadbang;
#X msg 541 344 random 0;
#X obj 482 404 birdInvert 1;
#X obj 466 188 route 0 1 2 3;
#X floatatom 672 275 5 0 0 0 - - -;
#X floatatom 611 276 5 0 0 0 - - -;
#X obj 477 257 pack f f f f;
#X obj 415 226 moses 1;
#X obj 466 225 moses 1;
#X obj 518 223 moses 1;
#X obj 569 222 moses 1;
#X obj 478 283 s \$0-currentChord;
#X obj 376 525 *~ 0.5;
#X obj 324 528 *~ 0.5;
#X msg 110 255 probs probs 80 25 25 50;
#X msg 105 279 probs probs 90 10 90 20;
#X msg 110 302 probs probs 80 90 10 20;
#X msg 109 331 probs probs 10 10 90 10;
#X obj 188 224 select 0 1 2 3;
#X obj 200 198 hradio 15 1 0 8 empty empty empty 0 -8 0 10 -262144
-1 -1 2;
#X obj 220 153 r \$0-random;
#X obj 220 177 random 4;
#X connect 0 0 30 0;
#X connect 0 1 29 0;
#X connect 1 0 14 0;
#X connect 4 0 10 0;
#X connect 5 0 4 0;
#X connect 5 0 6 0;
#X connect 7 0 9 0;
#X connect 8 0 4 1;
#X connect 9 0 8 0;
#X connect 11 0 36 0;
#X connect 12 0 13 0;
#X connect 13 0 14 1;
#X connect 13 0 19 0;
#X connect 14 0 0 0;
#X connect 15 0 0 0;
#X connect 16 0 15 0;
#X connect 16 0 20 0;
#X connect 17 0 18 0;
#X connect 18 0 13 0;
#X connect 19 0 15 1;
#X connect 20 0 22 0;
#X connect 20 0 24 0;
#X connect 20 1 21 0;
#X connect 20 1 25 0;
#X connect 20 2 26 0;
#X connect 20 3 27 0;
#X connect 23 0 28 0;
#X connect 24 1 23 0;
#X connect 25 1 23 1;
#X connect 26 1 23 2;
#X connect 27 1 23 3;
#X connect 29 0 2 0;
#X connect 30 0 3 0;
#X connect 31 0 4 1;
#X connect 32 0 4 1;
#X connect 33 0 4 1;
#X connect 34 0 4 1;
#X connect 35 0 31 0;
#X connect 35 1 32 0;
#X connect 35 2 33 0;
#X connect 35 3 34 0;
#X connect 36 0 35 0;
#X connect 37 0 38 0;
#X connect 38 0 36 0;
#X restore 380 -10 pd synth;
#N canvas 253 236 855 509 drums 0;
#X obj 107 -16 r \$0-clock;
#X obj 110 126 wrandom;
#X obj 110 193 birdKick~;
#X obj 110 163 pack 1 127;
#X obj 215 155 wrandom;
#X obj 218 178 pack 1 127;
#X obj 226 263 birdPan~;
#X msg 280 233 randomize;
#X obj 147 33 loadbang;
#X obj 76 161 bng 15 250 50 0 empty empty empty 17 7 0 10 -262144 -1
-1;
#X obj 215 202 birdSnare~;
#X msg 289 178 volume 1;
#X obj 282 385 s~ drumsR;
#X obj 106 382 s~ drumsL;
#X obj 237 6 inlet;
#X obj 237 34 route kick snare;
#X obj 108 17 mod 4;
#X obj 110 221 *~ 1;
#X obj 225 235 *~ 0.5;
#X msg 148 81 probs 95 15 15 60;
#X msg 367 104 probs 85 85 85 85;
#X msg 383 123 probs 5 20 95 25;
#X obj 367 75 select 0 1 2 3 4;
#X obj 367 50 hradio 15 1 0 8 empty empty empty 0 -8 0 10 -262144 -1
-1 1;
#X msg 402 144 probs 5 5 50 95;
#X obj 365 17 random 4;
#X obj 361 -8 r \$0-random;
#X obj -101 103 select 0 1 2 3 4;
#X obj -101 80 hradio 15 1 0 8 empty empty empty 0 -8 0 10 -262144
-1 -1 1;
#X obj -98 50 random 4;
#X obj -102 25 r \$0-random;
#X msg 414 167 probs 90 5 20 95;
#X msg -101 131 probs 95 15 15 60;
#X msg -85 150 probs 90 50 90 50;
#X msg -68 171 probs 5 90 90 10;
#X msg -56 197 probs 90 90 20 95;
#X connect 0 0 16 0;
#X connect 1 0 3 0;
#X connect 1 0 9 0;
#X connect 2 0 17 0;
#X connect 3 0 2 0;
#X connect 4 0 5 0;
#X connect 4 0 7 0;
#X connect 5 0 10 0;
#X connect 6 0 13 0;
#X connect 6 1 12 0;
#X connect 7 0 6 1;
#X connect 8 0 19 0;
#X connect 8 0 23 0;
#X connect 10 0 18 0;
#X connect 11 0 10 1;
#X connect 14 0 15 0;
#X connect 15 0 1 1;
#X connect 15 0 2 1;
#X connect 15 1 4 1;
#X connect 15 1 10 1;
#X connect 16 0 1 0;
#X connect 16 0 4 0;
#X connect 17 0 12 0;
#X connect 17 0 13 0;
#X connect 18 0 6 0;
#X connect 19 0 1 1;
#X connect 20 0 4 1;
#X connect 21 0 4 1;
#X connect 22 0 20 0;
#X connect 22 1 21 0;
#X connect 22 2 24 0;
#X connect 22 3 31 0;
#X connect 23 0 22 0;
#X connect 24 0 4 1;
#X connect 25 0 23 0;
#X connect 26 0 25 0;
#X connect 27 0 32 0;
#X connect 27 1 33 0;
#X connect 27 2 34 0;
#X connect 27 3 35 0;
#X connect 28 0 27 0;
#X connect 29 0 28 0;
#X connect 30 0 29 0;
#X connect 31 0 4 1;
#X connect 32 0 1 1;
#X connect 33 0 1 1;
#X connect 34 0 1 1;
#X connect 35 0 1 1;
#X restore -14 24 pd drums;
#X obj 376 -275 hsl 128 15 40 200 0 0 empty empty empty -2 -8 0 10
-262144 -1 -1 4700 1;
#X floatatom 375 -252 5 0 0 0 - - #0-setTempo;
#N canvas 900 42 540 512 compose 1;
#X obj -145 348 4Track;
#X obj -151 68 birdMidiIn;
#X obj -110 106 r \$0-cmd;
#X obj -111 127 t a a;
#X obj -150 257 list append;
#X obj -150 283 list trim;
#X obj 25 186 t b;
#X msg 25 207 0;
#X obj -85 165 route clock quant record length;
#X floatatom -86 200 5 0 0 0 - - -;
#X floatatom -40 189 5 0 0 0 - - -;
#X obj -42 212 / 2;
#X floatatom -44 246 5 0 0 0 - - -;
#X obj -44 269 + 0.5;
#X obj -46 295 int;
#X floatatom -1 313 5 0 0 0 - - -;
#X floatatom 37 257 5 0 0 0 - - -;
#X obj -149 442 outlet;
#X obj -147 382 list split 2;
#X obj -148 407 list trim;
#X msg -11 83 pattern \$1;
#X obj -13 63 hradio 15 1 0 4 empty empty empty 0 -8 0 10 -262144 -1
-1 0;
#X obj -7 106 s \$0-currentPattern;
#X obj -91 319 r \$0-saveload;
#X obj 160 275 s \$0-saveload;
#X msg 164 194 read test1.txt;
#X msg 187 218 read test2.txt;
#X obj 167 161 sel 0 1;
#X obj 167 129 hradio 15 1 0 8 empty empty empty 0 -8 0 10 -262144
-1 -1 0;
#X obj 167 77 loadbang;
#X connect 0 0 18 0;
#X connect 1 0 4 0;
#X connect 2 0 3 0;
#X connect 3 0 0 1;
#X connect 3 1 8 0;
#X connect 4 0 5 0;
#X connect 5 0 0 0;
#X connect 6 0 7 0;
#X connect 7 0 4 1;
#X connect 8 0 16 0;
#X connect 8 1 10 0;
#X connect 8 2 6 0;
#X connect 10 0 11 0;
#X connect 11 0 12 0;
#X connect 12 0 13 0;
#X connect 13 0 14 0;
#X connect 14 0 15 0;
#X connect 14 0 9 0;
#X connect 14 0 4 1;
#X connect 18 0 19 0;
#X connect 19 0 17 0;
#X connect 20 0 22 0;
#X connect 21 0 20 0;
#X connect 23 0 0 2;
#X connect 25 0 24 0;
#X connect 26 0 24 0;
#X connect 27 0 25 0;
#X connect 27 1 26 0;
#X connect 28 0 27 0;
#X connect 29 0 28 0;
#X restore 378 -52 pd compose;
#X obj 96 -143 bng 50 250 50 0 \$0-recordPattern empty empty 17 7 0
10 -262144 -1 -1;
#X text 85 -90 record pattern;
#X obj 196 -141 bng 50 250 50 0 \$0-clearPattern empty empty 17 7 0
10 -262144 -1 -1;
#X text 185 -88 clear pattern;
#X obj 291 -140 bng 50 250 50 0 \$0-resampleMelody empty empty 17 7
0 10 -262144 -1 -1;
#X text 280 -87 resample melody;
#X obj 384 -143 tgl 50 0 empty empty empty 17 7 0 10 -262144 -1 -1
0 1;
#X msg 384 -86 random \$1;
#X connect 0 0 7 0;
#X connect 0 1 7 0;
#X connect 8 0 3 0;
#X connect 9 0 6 0;
#X connect 10 0 2 0;
#X connect 12 0 11 0;
#X connect 21 0 12 0;
#X connect 28 0 11 0;
#X connect 31 0 32 0;
#X connect 33 0 29 0;
#X connect 40 0 41 0;
#X connect 41 0 29 1;
