#N canvas 343 112 1125 672 10;
#X obj 166 112 pattern 0;
#X obj 167 4 inlet;
#X obj 166 33 s \$0-theInput;
#X obj 165 81 r \$0-theInput;
#X obj 166 143 s \$0-theOutput;
#X obj 271 84 r \$0-theInput;
#X obj 272 146 s \$0-theOutput;
#X obj 370 84 r \$0-theInput;
#X obj 371 146 s \$0-theOutput;
#X obj 476 87 r \$0-theInput;
#X obj 477 149 s \$0-theOutput;
#X obj 181 429 r \$0-theOutput;
#X obj 180 502 outlet;
#X obj 373 4 inlet;
#X obj 373 24 s \$0-theCommands;
#X obj 213 56 r \$0-theCommands;
#X obj 318 58 r \$0-theCommands;
#X obj 428 56 r \$0-theCommands;
#X obj 535 55 r \$0-theCommands;
#X obj 288 427 r \$0-theInput;
#X obj 291 452 list prepend monitor;
#X obj 290 477 list trim;
#X obj 686 6 inlet;
#X obj 272 115 pattern 1;
#X obj 371 115 pattern 2;
#X obj 477 118 pattern 3;
#X connect 0 0 4 0;
#X connect 1 0 2 0;
#X connect 3 0 0 0;
#X connect 5 0 23 0;
#X connect 7 0 24 0;
#X connect 9 0 25 0;
#X connect 11 0 12 0;
#X connect 13 0 14 0;
#X connect 15 0 0 1;
#X connect 16 0 23 1;
#X connect 17 0 24 1;
#X connect 18 0 25 1;
#X connect 19 0 20 0;
#X connect 20 0 21 0;
#X connect 21 0 12 0;
#X connect 22 0 0 1;
#X connect 22 0 23 1;
#X connect 22 0 24 1;
#X connect 22 0 25 1;
#X connect 23 0 6 0;
#X connect 24 0 8 0;
#X connect 25 0 10 0;
