#N canvas 47 208 1440 804 10;
#X obj 441 24 inlet;
#X obj 448 192 mtof;
#X obj 903 421 inlet;
#X obj 454 816 outlet~;
#X obj 587 504 select 0 1;
#X obj 612 532 t b b;
#X obj 561 556 t b b;
#X obj 615 610 switch~;
#X msg 641 557 1;
#X msg 608 558 1;
#X obj 542 658 lop~ 1;
#X msg 584 582 0;
#X obj 560 606 del 30;
#X msg 561 632 0;
#X obj 456 688 *~;
#X obj 588 473 r \$0-switch;
#X obj 444 294 line;
#X msg 445 250 \$1 \$2;
#X obj 444 224 pack f f;
#X obj 947 715 s \$0-gliss;
#X obj 487 136 r \$0-gliss;
#X obj 442 51 t f f;
#X obj 443 146 sel 0;
#X obj 482 174 bng 15 250 50 0 empty empty empty 17 7 0 10 -262144
-1 -1;
#X msg 500 263 stop;
#X obj 454 109 f;
#X obj 482 193 t b b;
#X obj 948 555 *;
#X obj 1004 574 swap 60000;
#X obj 1016 598 /;
#X obj 947 680 *;
#X obj 905 513 s \$0-switch;
#X obj 1061 532 s \$0-list;
#X obj 887 12 r \$0-list;
#X obj 887 39 list-enumerate;
#N canvas 1130 155 450 300 s 0;
#X obj 37 102 + 0.5;
#X obj 36 127 int;
#X obj 35 15 inlet;
#X obj 35 157 outlet;
#X obj 36 76 / 7.6923;
#X connect 0 0 1 0;
#X connect 1 0 3 0;
#X connect 2 0 4 0;
#X connect 4 0 0 0;
#X restore 887 90 pd s;
#X obj 687 133 s \$0-wave1;
#N canvas 1130 155 450 300 s 0;
#X obj 31 36 inlet;
#X obj 35 157 outlet;
#X obj 36 76 * 0.01;
#X obj 37 102 *;
#X obj 36 127 * 220;
#X connect 0 0 2 0;
#X connect 2 0 3 1;
#X connect 2 0 3 0;
#X connect 3 0 4 0;
#X connect 4 0 1 0;
#X restore 900 135 pd s;
#N canvas 1130 155 450 300 s 0;
#X obj 31 36 inlet;
#X obj 35 157 outlet;
#X obj 36 76 * 0.01;
#X obj 37 102 *;
#X obj 36 127 * 1000;
#X connect 0 0 2 0;
#X connect 2 0 3 1;
#X connect 2 0 3 0;
#X connect 3 0 4 0;
#X connect 4 0 1 0;
#X restore 914 179 pd s;
#X obj 926 226 s \$0-rgliss;
#X obj 945 422 r \$0-rgliss;
#X msg 941 464 gliss \$1;
#X obj 949 278 + 50;
#X obj 948 303 s \$0-sub1Q;
#X obj 967 371 s \$0-xyloDec;
#X obj 968 323 * 2;
#X obj 991 394 s \$0-strLen;
#X obj 887 66 route 0 1 2 3 4 5 6;
#X msg 693 472 1;
#X obj 692 440 loadbang;
#X floatatom 784 142 5 0 0 0 - - -;
#X floatatom 809 176 5 0 0 0 - - -;
#X floatatom 830 224 5 0 0 0 - - -;
#X floatatom 860 320 5 0 0 0 - - -;
#X floatatom 879 388 5 0 0 0 - - -;
#X floatatom 1054 182 5 0 0 0 - - -;
#X obj 942 447 * 0.01;
#X obj 1015 626 * 0.375;
#X obj 949 250 * 5;
#X obj 601 693 *~;
#X obj 628 814 outlet~;
#X obj 904 486 route switch gliss tempo randomlist wave;
#X obj 1127 530 s \$0-wave1;
#X obj 968 347 + 30;
#X obj 898 159 s \$0-mf;
#X obj 912 203 s \$0-ma;
#X msg 759 33 0;
#X msg 540 263 0;
#X obj 1090 219 outlet;
#X obj 1091 160 r \$0-wave1;
#X obj 577 260 r \$0-wave1;
#X obj 717 314 t b;
#N canvas 1130 155 450 300 s 0;
#X obj 37 102 + 0.5;
#X obj 36 127 int;
#X obj 35 15 inlet;
#X obj 35 157 outlet;
#X obj 36 76 / 7.6923;
#X connect 0 0 1 0;
#X connect 1 0 3 0;
#X connect 2 0 4 0;
#X connect 4 0 0 0;
#X restore 662 311 pd s;
#X obj 686 64 t b;
#X obj 686 86 random 14;
#X obj 1150 686 s \$0-wave1;
#X obj 1149 617 t b;
#X obj 1149 639 random 14;
#X obj 716 339 random 14;
#X msg 484 320 \$1 100;
#X obj 579 297 r \$0-wave1;
#X obj 564 335 bang;
#X obj 484 373 s_chip;
#N canvas 3 118 1335 609 chip 0;
#X obj 585 19 r \$0-GUI;
#X symbolatom 364 352 20 0 0 0 - - -;
#X obj 496 322 s \$0-GUI;
#X obj 360 187 pgmin 1;
#X obj 585 66 g_synthcontrol;
#X obj 316 75 inlet;
#X obj 616 558 outlet;
#X obj 344 237 nbx 3 20 0 256 0 0 empty empty empty 0 -8 0 16 -260097
-262144 -1 0 256;
#X obj 360 187 pgmin 1;
#X obj 319 132 hradio 15 1 0 15 empty empty empty 0 -8 0 10 -262144
-1 -1 0;
#N canvas 0 22 1086 675 chip_presets 0;
#X obj 91 26 inlet;
#X obj 151 615 outlet name;
#X obj 151 590 symbol;
#X obj 217 646 outlet parms;
#X obj 151 566 route name;
#X obj 606 195 loadbang;
#X text 603 141 set up the interface to be human readable and show
which controls are actually used;
#X text 605 171 Requires modified [g-hsl];
#X msg -14 264 name portsaw \, mod3c 1 \, mod3b 0.929528 \, mod2a 0
\, mod1d 0.125984 \, mod1c 0 \, mod1b 0.716535 \, mod1a 0.84252 \,
osc3a 0.661417 \, osc2d 0 \, osc2c 0.188976 \, osc2b 0.622047 \, osc2a
1 \, osc1d 1 \, osc1c 0.155984 \, osc1b 0.503937 \, osc1a 1 \, env3r
0 \, env3s 0 \, env3d 0 \, env3a 0 \, env2r 0.0166142 \, env2s 0.889764
\, env2d 0 \, env2a 0 \, env1r 0.0331496 \, env1s 0.826772 \, env1d
0.10315 \, env1a 0 \,;
#X msg 606 233 env1a color 128 \, env1a label AMP-ATTACK \, env1d color
128 \, env1d label AMP-DECAY \, env1r color 128 \, env1r label AMP-REL
\, env1s color 128 \, env1s label AMP-SUS \, env2a color 128 \, env2a
label OSC1-ATTACK \, env2d color 128 \, env2d label OSC1-DECAY \, env2r
color 128 \, env2r label OSC1-REL \, env2s color 128 \, env2s label
OSC1-SUS \, env3a color 128 \, env3a label OSC2-ATTACK \, env3d color
128 \, env3d label OSC2-DECAY \, env3r color 128 \, env3r label OSC2-REL
\, env3s color 128 \, env3s label OSC2-SUS \, mod1a color 128 \, mod1a
label LFO-FREQ1 \, mod1b color 128 \, mod1b label LFO-FREQ2 \, mod1c
color 128 \, mod1c label VIB-AMNT \, mod1d color 128 \, mod1d label
VIB-ONSET \, mod2a color 2 \, mod2a label _ \, mod2b color 2 \, mod2b
label _ \, mod2c color 2 \, mod2c label _ \, mod2d color 2 \, mod2d
label _ \, mod3a color 2 \, mod3a label _ \, mod3b color 128 \, mod3b
label VOLUME \, mod3c color 128 \, mod3c label PORTAMENTO \, mod3d
color 2 \, mod3d label _ \, osc1a color 128 \, osc1a label OSC1-BRIGHT
\, osc1b color 128 \, osc1b label OSC1-WAVE \, osc1c color 128 \, osc1c
label OSC1-CLIP \, osc1d color 128 \, osc1d label OSC1-ENV \, osc2a
color 128 \, osc2a label OSC2-BRIGHT \, osc2b color 128 \, osc2b label
OSC2-WAVE \, osc2c color 128 \, osc2c label OSC2-CLIP \, osc2d color
128 \, osc2d label OSC2-ENV \, osc3a color 128 \, osc3a label OCTAVE
\, osc3b color 128 \, osc3b label OSC2-OCT \, osc3c color 2 \, osc3c
label _ \, osc3d color 2 \, osc3d label _;
#X msg 3 258 name dualbass \, mod3d 0 \, mod3c 0 \, mod3b 0.480709
\, mod3a 0 \, mod2d 0 \, mod2c 0 \, mod2b 0 \, mod2a 0 \, mod1d 0.125984
\, mod1c 0 \, mod1b 0.716535 \, mod1a 0.84252 \, osc3d 0 \, osc3c 0
\, osc3b 0.23622 \, osc3a 0.417323 \, osc2d 0.700787 \, osc2c 0.188976
\, osc2b 0.622047 \, osc2a 1 \, osc1d 1 \, osc1c 0.155984 \, osc1b
0.503937 \, osc1a 1 \, env3r 0.0393701 \, env3s 0.645669 \, env3d 0
\, env3a 0 \, env2r 0.0166142 \, env2s 0.889764 \, env2d 0 \, env2a
0 \, env1r 0.0331496 \, env1s 0.826772 \, env1d 0.10315 \, env1a 0
\,;
#X msg 17 258 name reedy1 \, mod3d 0 \, mod3c 0 \, mod3b 0.583071 \,
mod3a 0 \, mod2d 0 \, mod2c 0 \, mod2b 0 \, mod2a 0 \, mod1d 0.228346
\, mod1c 0.015748 \, mod1b 0.614173 \, mod1a 0.732283 \, osc3d 0 \,
osc3c 0 \, osc3b 0.472441 \, osc3a 0.755906 \, osc2d 0.826772 \, osc2c
0.0472441 \, osc2b 0.401575 \, osc2a 0.023622 \, osc1d 0.779528 \,
osc1c 0.045748 \, osc1b 0.574803 \, osc1a 0.015748 \, env3r 0.0393701
\, env3s 0.645669 \, env3d 0.19685 \, env3a 0.0629921 \, env2r 0.0166142
\, env2s 0.889764 \, env2d 0.110236 \, env2a 0 \, env1r 0.0331496 \,
env1s 0.826772 \, env1d 0.10315 \, env1a 0 \,;
#X msg 26 257 name pure \, mod3d 0 \, mod3c 0 \, mod3b 0.291732 \,
mod3a 0 \, mod2d 0 \, mod2c 0 \, mod2b 0 \, mod2a 0 \, mod1d 0.244094
\, mod1c 0.401575 \, mod1b 0.614173 \, mod1a 0.629921 \, osc3d 0 \,
osc3c 0 \, osc3b 0.472441 \, osc3a 0.755906 \, osc2d 0 \, osc2c 0.0472441
\, osc2b 0.401575 \, osc2a 0.023622 \, osc1d 0.779528 \, osc1c 0.203228
\, osc1b 1 \, osc1a 0.015748 \, env3r 0.0393701 \, env3s 0.645669 \,
env3d 0.19685 \, env3a 0.0629921 \, env2r 0.0244882 \, env2s 0.897638
\, env2d 0.110236 \, env2a 0 \, env1r 0.0331496 \, env1s 0.826772 \,
env1d 0.10315 \, env1a 0.000472441 \,;
#X msg 37 256 name voicier \, mod3d 0 \, mod3c 0 \, mod3b 0.291732
\, mod3a 0 \, mod2d 0 \, mod2c 0 \, mod2b 0 \, mod2a 0 \, mod1d 0.244094
\, mod1c 0.401575 \, mod1b 0.582677 \, mod1a 0.629921 \, osc3d 0 \,
osc3c 0 \, osc3b 0.472441 \, osc3a 1 \, osc2d 0.740157 \, osc2c 0.204724
\, osc2b 1 \, osc2a 0.496063 \, osc1d 0.677165 \, osc1c 0.203228 \,
osc1b 1 \, osc1a 0.527559 \, env3r 0.0393701 \, env3s 0.645669 \, env3d
0.19685 \, env3a 0.0629921 \, env2r 0.0244882 \, env2s 0.897638 \,
env2d 0.110236 \, env2a 0.0393701 \, env1r 0.0331496 \, env1s 0.826772
\, env1d 0.10315 \, env1a 0.000472441 \,;
#X msg 49 255 name stringy \, mod3d 0 \, mod3c 0 \, mod3b 0.197244
\, mod3a 0 \, mod2d 0 \, mod2c 0 \, mod2b 0 \, mod2a 0 \, mod1d 0.244094
\, mod1c 0.188976 \, mod1b 0.582677 \, mod1a 0.590551 \, osc3d 0 \,
osc3c 0 \, osc3b 0.472441 \, osc3a 1 \, osc2d 0.574803 \, osc2c 0.204724
\, osc2b 0.992126 \, osc2a 0.496063 \, osc1d 0.755906 \, osc1c 0.203228
\, osc1b 0.976378 \, osc1a 0.527559 \, env3r 0.0393701 \, env3s 0.645669
\, env3d 0.19685 \, env3a 0.0629921 \, env2r 0.0244882 \, env2s 0.897638
\, env2d 0.110236 \, env2a 0.23622 \, env1r 0.0331496 \, env1s 0.826772
\, env1d 0.10315 \, env1a 0.0398425 \,;
#X msg 64 253 name stringy2 \, mod3d 0 \, mod3c 0 \, mod3b 0.197244
\, mod3a 0 \, mod2d 0 \, mod2c 0 \, mod2b 0 \, mod2a 0 \, mod1d 0.220472
\, mod1c 0.00787402 \, mod1b 0.582677 \, mod1a 0.590551 \, osc3d 0
\, osc3c 0 \, osc3b 0.472441 \, osc3a 0.866142 \, osc2d 0.527559 \,
osc2c 0.409449 \, osc2b 0.771654 \, osc2a 0.015748 \, osc1d 0.889764
\, osc1c 0.0929921 \, osc1b 0.897638 \, osc1a 0 \, env3r 0.0393701
\, env3s 0.244094 \, env3d 0.0708661 \, env3a 0.0708661 \, env2r 0.0244882
\, env2s 0.307087 \, env2d 0.0787402 \, env2a 0.212598 \, env1r 0.0174016
\, env1s 0.425197 \, env1d 0.0559055 \, env1a 0.0555906 \,;
#X msg 82 254 name detrum \, mod3d 0 \, mod3c 0 \, mod3b 0.197244 \,
mod3a 0 \, mod2d 0 \, mod2c 0 \, mod2b 0 \, mod2a 0 \, mod1d 0 \, mod1c
0.23622 \, mod1b 0.023622 \, mod1a 0 \, osc3d 0 \, osc3c 0 \, osc3b
0.472441 \, osc3a 1 \, osc2d 0.291339 \, osc2c 0.826772 \, osc2b 0.669291
\, osc2a 0.015748 \, osc1d 0.677165 \, osc1c 0.982756 \, osc1b 0.527559
\, osc1a 0 \, env3r 0.015748 \, env3s 0.244094 \, env3d 0.0708661 \,
env3a 0.125984 \, env2r 0.00874016 \, env2s 0.0314961 \, env2d 0.0787402
\, env2a 0.0472441 \, env1r 0.0174016 \, env1s 0.385827 \, env1d 0.0559055
\, env1a 0.0555906 \,;
#X msg 91 252 name brassens \, mod3d 0 \, mod3c 0 \, mod3b 0.197244
\, mod3a 0 \, mod2d 0 \, mod2c 0 \, mod2b 0 \, mod2a 0 \, mod1d 0 \,
mod1c 0.023622 \, mod1b 0.811024 \, mod1a 0.015748 \, osc3d 0 \, osc3c
0 \, osc3b 0.76378 \, osc3a 0.204724 \, osc2d 0.677165 \, osc2c 0.826772
\, osc2b 0.299213 \, osc2a 0.015748 \, osc1d 0.677165 \, osc1c 0.982756
\, osc1b 0.15748 \, osc1a 0 \, env3r 0.015748 \, env3s 0.244094 \,
env3d 0.0708661 \, env3a 0.125984 \, env2r 0.00874016 \, env2s 0.0314961
\, env2d 0.0787402 \, env2a 0.0314961 \, env1r 0.0174016 \, env1s 0.385827
\, env1d 0.0559055 \, env1a 0.0398425 \,;
#X msg 104 254 name piano \, mod3d 0 \, mod3c 0 \, mod3b 0.197244 \,
mod3a 0 \, mod2d 0 \, mod2c 0 \, mod2b 0 \, mod2a 0 \, mod1d 0 \, mod1c
0.0102362 \, mod1b 0.000551181 \, mod1a 0.000629921 \, osc3d 0 \, osc3c
0 \, osc3b 0.598425 \, osc3a 0.543307 \, osc2d 0.834646 \, osc2c 0.393701
\, osc2b 0.299213 \, osc2a 0.015748 \, osc1d 0.559055 \, osc1c 0.818898
\, osc1b 0.622047 \, osc1a 1 \, env3r 0.0787402 \, env3s 0.88189 \,
env3d 0.0551181 \, env3a 0 \, env2r 0.386693 \, env2s 0.543307 \, env2d
0.0472441 \, env2a 0 \, env1r 0.26937 \, env1s 0.133858 \, env1d 0.0952756
\, env1a 0.00110236 \,;
#X msg 117 255 name organ1 \, mod3d 0 \, mod3c 0 \, mod3b 0.827165
\, mod3a 0 \, mod2d 0 \, mod2c 0 \, mod2b 0 \, mod2a 0 \, mod1d 0 \,
mod1c 0.0417323 \, mod1b 0.969055 \, mod1a 0.929764 \, osc3d 0 \, osc3c
0 \, osc3b 1 \, osc3a 0.543307 \, osc2d 0.283465 \, osc2c 0.125984
\, osc2b 0.511811 \, osc2a 0.00787402 \, osc1d 0.629921 \, osc1c 0.0629921
\, osc1b 0.645669 \, osc1a 0 \, env3r 0.0314961 \, env3s 0.88189 \,
env3d 0.0551181 \, env3a 0 \, env2r 0.0559843 \, env2s 0.503937 \,
env2d 0.00787402 \, env2a 0 \, env1r 0.0252756 \, env1s 1 \, env1d
0.0244094 \, env1a 0.00110236 \,;
#X msg 140 255 name organ2 \, mod3d 0 \, mod3c 0 \, mod3b 0.173622
\, mod3a 0 \, mod2d 0 \, mod2c 0 \, mod2b 0 \, mod2a 0 \, mod1d 0 \,
mod1c 0.159843 \, mod1b 0.929685 \, mod1a 0.890394 \, osc3d 0 \, osc3c
0 \, osc3b 0.692913 \, osc3a 0.826772 \, osc2d 0.299213 \, osc2c 0.448819
\, osc2b 0.228346 \, osc2a 0.00787402 \, osc1d 0.629921 \, osc1c 0.0629921
\, osc1b 0.472441 \, osc1a 0 \, env3r 0.0314961 \, env3s 0.614173 \,
env3d 0.00787402 \, env3a 0 \, env2r 0.0559843 \, env2s 0.503937 \,
env2d 0.00787402 \, env2a 0 \, env1r 0.0252756 \, env1s 1 \, env1d
0.0244094 \, env1a 0.00110236 \,;
#X msg 150 255 name oboe \, mod3d 0 \, mod3c 0 \, mod3b 0.583071 \,
mod3a 0 \, mod2d 0 \, mod2c 0 \, mod2b 0 \, mod2a 0 \, mod1d 0.464567
\, mod1c 0.0629921 \, mod1b 0.574803 \, mod1a 0.637795 \, osc3d 0 \,
osc3c 0 \, osc3b 0.692913 \, osc3a 0.826772 \, osc2d 0.19685 \, osc2c
0.110236 \, osc2b 0.866142 \, osc2a 0.0708661 \, osc1d 0.433071 \,
osc1c 0.0629921 \, osc1b 0.834646 \, osc1a 1 \, env3r 0.141732 \, env3s
0.535433 \, env3d 0.354331 \, env3a 0.000314961 \, env2r 0.441811 \,
env2s 0.503937 \, env2d 0.338583 \, env2a 0.700787 \, env1r 0.0331496
\, env1s 1 \, env1d 0.0244094 \, env1a 0.0798425 \,;
#X msg 158 256 name seq1 \, mod3d 0 \, mod3c 0 \, mod3b 0.583071 \,
mod3a 0 \, mod2d 0 \, mod2c 0 \, mod2b 0 \, mod2a 0 \, mod1d 0.464567
\, mod1c 0.0629921 \, mod1b 0.574803 \, mod1a 0.637795 \, osc3d 0 \,
osc3c 0 \, osc3b 0.692913 \, osc3a 0.606299 \, osc2d 0.283465 \, osc2c
0.11811 \, osc2b 0.377953 \, osc2a 0.0472441 \, osc1d 0.409449 \, osc1c
0.102362 \, osc1b 0.653543 \, osc1a 0.0314961 \, env3r 0.0314961 \,
env3s 1 \, env3d 1 \, env3a 0.023937 \, env2r 0.023622 \, env2s 1 \,
env2d 1 \, env2a 0 \, env1r 0.0331496 \, env1s 0 \, env1d 0.0401575
\, env1a 0 \,;
#X obj 91 52 sel 0 1 2 3 4 5 6 7 8 9 10 11 12 13 14;
#X msg 162 259 name fatbass \, mod3d 0 \, mod3c 0 \, mod3b 0.34685
\, mod3a 0 \, mod2d 0 \, mod2c 0 \, mod2b 0 \, mod2a 0 \, mod1d 0 \,
mod1c 0.0629921 \, mod1b 0.732283 \, mod1a 0.76378 \, osc3d 0 \, osc3c
0 \, osc3b 0.692913 \, osc3a 0.606299 \, osc2d 0.283465 \, osc2c 0.566929
\, osc2b 0.283465 \, osc2a 0.0472441 \, osc1d 0.409449 \, osc1c 0.527559
\, osc1b 0.653543 \, osc1a 0.0314961 \, env3r 0.0314961 \, env3s 1
\, env3d 1 \, env3a 0.023937 \, env2r 0.023622 \, env2s 1 \, env2d
1 \, env2a 0 \, env1r 0.0331496 \, env1s 0 \, env1d 0.0637795 \, env1a
0.000708661 \,;
#X connect 0 0 23 0;
#X connect 2 0 1 0;
#X connect 4 0 2 0;
#X connect 4 1 3 0;
#X connect 5 0 9 0;
#X connect 8 0 4 0;
#X connect 9 0 3 0;
#X connect 10 0 4 0;
#X connect 11 0 4 0;
#X connect 12 0 4 0;
#X connect 13 0 4 0;
#X connect 14 0 4 0;
#X connect 15 0 4 0;
#X connect 16 0 4 0;
#X connect 17 0 4 0;
#X connect 18 0 4 0;
#X connect 19 0 4 0;
#X connect 20 0 4 0;
#X connect 21 0 4 0;
#X connect 22 0 4 0;
#X connect 23 0 8 0;
#X connect 23 1 10 0;
#X connect 23 2 11 0;
#X connect 23 3 12 0;
#X connect 23 4 13 0;
#X connect 23 5 14 0;
#X connect 23 6 15 0;
#X connect 23 7 16 0;
#X connect 23 8 17 0;
#X connect 23 9 18 0;
#X connect 23 10 19 0;
#X connect 23 11 20 0;
#X connect 23 12 21 0;
#X connect 23 13 22 0;
#X connect 23 14 24 0;
#X connect 24 0 4 0;
#X restore 360 316 pd chip_presets;
#X obj 318 108 random 14;
#X connect 0 0 4 0;
#X connect 4 0 6 0;
#X connect 5 0 11 0;
#X connect 7 0 10 0;
#X connect 8 0 7 0;
#X connect 9 0 7 0;
#X connect 10 0 1 0;
#X connect 10 1 2 0;
#X connect 11 0 9 0;
#X restore 564 357 pd chip;
#X connect 0 0 21 0;
#X connect 1 0 18 0;
#X connect 2 0 61 0;
#X connect 4 0 6 0;
#X connect 4 1 5 0;
#X connect 5 0 9 0;
#X connect 5 1 8 0;
#X connect 6 0 12 0;
#X connect 6 1 11 0;
#X connect 8 0 10 0;
#X connect 9 0 7 0;
#X connect 10 0 14 1;
#X connect 10 0 59 1;
#X connect 11 0 10 0;
#X connect 12 0 13 0;
#X connect 13 0 7 0;
#X connect 14 0 3 0;
#X connect 15 0 4 0;
#X connect 17 0 16 0;
#X connect 18 0 17 0;
#X connect 20 0 18 1;
#X connect 21 0 22 0;
#X connect 21 1 25 1;
#X connect 22 0 23 0;
#X connect 22 1 25 0;
#X connect 23 0 26 0;
#X connect 24 0 16 0;
#X connect 25 0 1 0;
#X connect 25 0 79 0;
#X connect 26 0 67 0;
#X connect 26 1 24 0;
#X connect 27 0 30 0;
#X connect 28 0 29 0;
#X connect 28 1 29 1;
#X connect 29 0 57 0;
#X connect 30 0 19 0;
#X connect 33 0 34 0;
#X connect 34 0 47 0;
#X connect 35 0 50 0;
#X connect 37 0 51 0;
#X connect 38 0 52 0;
#X connect 40 0 56 0;
#X connect 41 0 61 0;
#X connect 42 0 43 0;
#X connect 42 0 53 0;
#X connect 45 0 63 0;
#X connect 47 0 35 0;
#X connect 47 0 73 0;
#X connect 47 1 37 0;
#X connect 47 2 38 0;
#X connect 47 3 39 0;
#X connect 47 4 58 0;
#X connect 47 5 45 0;
#X connect 47 6 46 0;
#X connect 47 6 55 0;
#X connect 48 0 4 0;
#X connect 49 0 48 0;
#X connect 56 0 41 0;
#X connect 57 0 30 1;
#X connect 58 0 42 0;
#X connect 59 0 60 0;
#X connect 61 0 31 0;
#X connect 61 1 27 1;
#X connect 61 1 27 0;
#X connect 61 2 28 0;
#X connect 61 3 32 0;
#X connect 61 4 76 0;
#X connect 63 0 44 0;
#X connect 63 0 54 0;
#X connect 66 0 35 0;
#X connect 67 0 16 0;
#X connect 69 0 68 0;
#X connect 71 0 78 0;
#X connect 73 0 74 0;
#X connect 74 0 36 0;
#X connect 76 0 77 0;
#X connect 77 0 75 0;
#X connect 79 0 82 0;
#X connect 80 0 81 0;
#X connect 81 0 83 0;
#X connect 82 0 59 0;
#X connect 82 0 14 0;
#X connect 83 0 82 1;
