#N canvas 0 22 1057 651 10;
#X obj 423 214 bng 15 250 50 0 empty empty empty 17 7 0 10 -262144
-1 -1;
#X obj 426 317 list-idx;
#X msg 427 286 10 14 17 22 24 12 8;
#X obj 427 261 t b f;
#X floatatom 426 347 5 0 0 0 - - -;
#X obj 290 213 bng 15 250 50 0 empty empty empty 17 7 0 10 -262144
-1 -1;
#X obj 291 314 list-idx;
#X msg 292 283 10 14 17 22 24 12 8;
#X obj 292 258 t b f;
#X floatatom 291 344 5 0 0 0 - - -;
#X obj 291 235 mm_rpoisson 1;
#X floatatom 317 71 5 0 0 0 - - -;
#X obj 292 96 mod 4;
#X obj 292 126 sel 0 1 2 3;
#X obj 426 238 mm_rpoisson 3;
#X obj 537 314 list-idx;
#X msg 538 283 10 14 17 22 24 12 8;
#X obj 538 258 t b f;
#X floatatom 537 344 5 0 0 0 - - -;
#X obj 537 235 mm_rpoisson 2;
#X obj 646 212 bng 15 250 50 0 empty empty empty 17 7 0 10 -262144
-1 -1;
#X obj 649 315 list-idx;
#X msg 650 284 10 14 17 22 24 12 8;
#X obj 650 259 t b f;
#X floatatom 649 345 5 0 0 0 - - -;
#X obj 649 236 mm_rpoisson 4;
#X obj 534 211 bng 15 250 50 0 empty empty empty 17 7 0 10 -262144
-1 -1;
#X obj 526 -37 inlet;
#X obj 526 81 route 0 1 2 3;
#X obj 619 22 list prepend set;
#X obj 620 47 list trim;
#X obj 621 67 s \$0-scale;
#X obj 741 248 r \$0-scale;
#X obj 181 221 r \$0-scale;
#X obj 294 32 inlet;
#X obj 434 523 outlet;
#X obj 599 121 route 0 1 2 3;
#X obj 527 -12 route beta lambda scale sparse;
#X obj 692 89 s \$0-sparse;
#X obj 340 207 s \$0-off;
#X obj 469 207 s \$0-off;
#X obj 595 205 s \$0-off;
#X obj 700 207 s \$0-off;
#X obj 525 450 r \$0-off;
#X obj 524 476 spigot;
#X obj 591 451 r \$0-sparse;
#X obj 531 521 outlet;
#X obj 288 185 mm_rgate 50;
#X obj 409 182 mm_rgate 50;
#X obj 530 182 mm_rgate 5;
#X obj 639 181 mm_rgate 20;
#X connect 0 0 14 0;
#X connect 1 0 4 0;
#X connect 1 0 35 0;
#X connect 2 0 1 0;
#X connect 3 0 2 0;
#X connect 3 1 1 1;
#X connect 5 0 10 0;
#X connect 6 0 9 0;
#X connect 6 0 35 0;
#X connect 7 0 6 0;
#X connect 8 0 7 0;
#X connect 8 1 6 1;
#X connect 10 0 8 0;
#X connect 12 0 13 0;
#X connect 13 0 47 0;
#X connect 13 1 48 0;
#X connect 13 2 49 0;
#X connect 13 3 50 0;
#X connect 14 0 3 0;
#X connect 15 0 18 0;
#X connect 15 0 35 0;
#X connect 16 0 15 0;
#X connect 17 0 16 0;
#X connect 17 1 15 1;
#X connect 19 0 17 0;
#X connect 20 0 25 0;
#X connect 21 0 24 0;
#X connect 21 0 35 0;
#X connect 22 0 21 0;
#X connect 23 0 22 0;
#X connect 23 1 21 1;
#X connect 25 0 23 0;
#X connect 26 0 19 0;
#X connect 27 0 37 0;
#X connect 28 0 47 1;
#X connect 28 1 48 1;
#X connect 28 2 49 1;
#X connect 28 3 50 1;
#X connect 29 0 30 0;
#X connect 30 0 31 0;
#X connect 32 0 22 0;
#X connect 32 0 16 0;
#X connect 33 0 7 0;
#X connect 33 0 2 0;
#X connect 34 0 11 0;
#X connect 34 0 12 0;
#X connect 36 0 10 1;
#X connect 36 1 14 1;
#X connect 36 2 19 1;
#X connect 36 3 25 1;
#X connect 37 0 28 0;
#X connect 37 1 36 0;
#X connect 37 2 29 0;
#X connect 37 3 38 0;
#X connect 43 0 44 0;
#X connect 44 0 46 0;
#X connect 45 0 44 1;
#X connect 47 0 5 0;
#X connect 47 1 39 0;
#X connect 48 0 0 0;
#X connect 48 1 40 0;
#X connect 49 0 26 0;
#X connect 49 1 41 0;
#X connect 50 0 20 0;
#X connect 50 1 42 0;
