#N canvas 0 22 1388 782 10;
#X floatatom 286 174 5 0 0 0 - - -;
#X obj 250 184 moses;
#X obj 279 143 * 1000;
#X obj 300 279 moses;
#X obj 250 210 bng 15 250 50 0 empty empty empty 17 7 0 10 -262144
-1 -1;
#X obj 300 306 bng 15 250 50 0 empty empty empty 17 7 0 10 -262144
-1 -1;
#X floatatom 363 235 5 0 0 0 - - -;
#X obj 351 215 * 1000;
#X floatatom 421 153 5 0 0 0 - - -;
#X obj 329 255 +;
#X floatatom 339 280 5 0 0 0 - - -;
#X obj 353 174 f 2;
#X obj 279 93 f 1;
#X obj 361 335 moses;
#X obj 360 361 bng 15 250 50 0 empty empty empty 17 7 0 10 -262144
-1 -1;
#X floatatom 436 299 5 0 0 0 - - -;
#X obj 412 271 * 1000;
#X obj 390 311 +;
#X floatatom 400 336 5 0 0 0 - - -;
#X obj 414 230 f 3;
#X obj 429 399 moses;
#X obj 428 425 bng 15 250 50 0 empty empty empty 17 7 0 10 -262144
-1 -1;
#X floatatom 504 363 5 0 0 0 - - -;
#X obj 480 335 * 1000;
#X obj 458 375 +;
#X floatatom 468 400 5 0 0 0 - - -;
#X obj 482 294 f 4;
#X obj 527 452 moses;
#X obj 526 478 bng 15 250 50 0 empty empty empty 17 7 0 10 -262144
-1 -1;
#X floatatom 602 416 5 0 0 0 - - -;
#X obj 578 388 * 1000;
#X obj 556 428 +;
#X floatatom 566 453 5 0 0 0 - - -;
#X obj 251 230 f 0;
#X obj 249 254 s \$0-out;
#X obj 298 348 s \$0-out;
#X obj 300 324 f 1;
#X obj 357 403 s \$0-out;
#X obj 359 379 f 2;
#X obj 426 471 s \$0-out;
#X obj 428 447 f 3;
#X obj 580 347 f 5;
#X obj 527 527 s \$0-out;
#X obj 529 503 f 4;
#X obj 611 547 moses;
#X obj 610 573 bng 15 250 50 0 empty empty empty 17 7 0 10 -262144
-1 -1;
#X floatatom 686 511 5 0 0 0 - - -;
#X obj 662 483 * 1000;
#X obj 640 523 +;
#X floatatom 650 548 5 0 0 0 - - -;
#X obj 611 622 s \$0-out;
#X obj 664 442 f 6;
#X obj 664 417 route 1;
#X obj 580 324 route 2;
#X obj 613 598 f 5;
#X obj 481 271 route 3;
#X obj 435 202 route 4;
#X obj 380 130 route 5;
#X obj 281 50 route 6;
#X obj 280 15 r \$0-init;
#X obj 383 97 r \$0-init;
#X obj 436 178 r \$0-init;
#X obj 498 245 r \$0-init;
#X obj 579 282 r \$0-init;
#X obj 660 387 r \$0-init;
#X obj 970 225 s \$0-init;
#X obj 969 171 f;
#X obj 1004 170 + 1;
#X floatatom 1001 198 5 0 0 0 - - -;
#X obj 704 590 moses;
#X obj 703 616 bng 15 250 50 0 empty empty empty 17 7 0 10 -262144
-1 -1;
#X floatatom 779 554 5 0 0 0 - - -;
#X obj 755 526 * 1000;
#X obj 733 566 +;
#X floatatom 743 591 5 0 0 0 - - -;
#X obj 704 665 s \$0-out;
#X obj 753 430 r \$0-init;
#X obj 706 641 f 6;
#X obj 757 485 f 7;
#X obj 757 460 route 0;
#X msg 985 136 0;
#X obj 319 667 r \$0-out;
#X obj 319 709 outlet;
#X floatatom 395 705 5 0 0 0 - - -;
#X obj 118 58 random 674;
#X obj 968 113 until;
#X msg 967 73 7;
#X obj 964 45 loadbang;
#X obj 1113 21 inlet;
#X obj 1152 74 s \$0-lambda;
#X obj 1113 49 t b b f;
#X obj 823 474 r \$0-lamba;
#X obj 755 508 mm_poisson \$1;
#X obj 730 402 r \$0-lamba;
#X obj 662 463 mm_poisson \$1;
#X obj 578 368 mm_poisson \$1;
#X obj 652 325 r \$0-lamba;
#X obj 480 315 mm_poisson \$1;
#X obj 558 273 r \$0-lamba;
#X obj 487 223 r \$0-lamba;
#X obj 412 251 mm_poisson \$1;
#X obj 351 195 mm_poisson \$1;
#X obj 434 134 r \$0-lamba;
#X obj 279 117 mm_poisson \$1;
#X obj 357 53 r \$0-lambda;
#X msg 1134 95 0;
#X obj 118 6 inlet;
#X obj 117 29 t b;
#X obj 799 580 + 1;
#X obj 798 624 s \$0-randRange;
#X obj 179 17 r \$0-randRange;
#X floatatom 195 60 5 0 0 0 - - -;
#X obj 796 600 int;
#X connect 1 0 4 0;
#X connect 1 1 3 0;
#X connect 2 0 0 0;
#X connect 2 0 1 1;
#X connect 2 0 9 0;
#X connect 3 0 5 0;
#X connect 3 1 13 0;
#X connect 4 0 33 0;
#X connect 5 0 36 0;
#X connect 7 0 6 0;
#X connect 7 0 9 1;
#X connect 8 0 101 0;
#X connect 9 0 10 0;
#X connect 9 0 3 1;
#X connect 9 0 17 0;
#X connect 11 0 101 0;
#X connect 12 0 103 0;
#X connect 13 0 14 0;
#X connect 13 1 20 0;
#X connect 14 0 38 0;
#X connect 16 0 15 0;
#X connect 16 0 17 1;
#X connect 17 0 18 0;
#X connect 17 0 13 1;
#X connect 17 0 24 0;
#X connect 19 0 100 0;
#X connect 20 0 21 0;
#X connect 20 1 27 0;
#X connect 21 0 40 0;
#X connect 23 0 22 0;
#X connect 23 0 24 1;
#X connect 24 0 25 0;
#X connect 24 0 20 1;
#X connect 24 0 31 0;
#X connect 26 0 97 0;
#X connect 27 0 28 0;
#X connect 27 1 44 0;
#X connect 28 0 43 0;
#X connect 30 0 29 0;
#X connect 30 0 31 1;
#X connect 31 0 32 0;
#X connect 31 0 27 1;
#X connect 31 0 48 0;
#X connect 33 0 34 0;
#X connect 36 0 35 0;
#X connect 38 0 37 0;
#X connect 40 0 39 0;
#X connect 41 0 95 0;
#X connect 43 0 42 0;
#X connect 44 0 45 0;
#X connect 44 1 69 0;
#X connect 45 0 54 0;
#X connect 47 0 46 0;
#X connect 47 0 48 1;
#X connect 48 0 49 0;
#X connect 48 0 44 1;
#X connect 48 0 73 0;
#X connect 51 0 94 0;
#X connect 52 0 51 0;
#X connect 53 0 41 0;
#X connect 54 0 50 0;
#X connect 55 0 26 0;
#X connect 56 0 19 0;
#X connect 57 0 11 0;
#X connect 58 0 12 0;
#X connect 59 0 58 0;
#X connect 60 0 57 0;
#X connect 61 0 56 0;
#X connect 62 0 55 0;
#X connect 63 0 53 0;
#X connect 64 0 52 0;
#X connect 66 0 67 0;
#X connect 66 0 65 0;
#X connect 67 0 66 1;
#X connect 67 0 68 0;
#X connect 69 0 70 0;
#X connect 70 0 77 0;
#X connect 72 0 71 0;
#X connect 72 0 73 1;
#X connect 73 0 74 0;
#X connect 73 0 69 1;
#X connect 73 0 108 0;
#X connect 76 0 79 0;
#X connect 77 0 75 0;
#X connect 78 0 92 0;
#X connect 79 0 78 0;
#X connect 80 0 66 1;
#X connect 81 0 82 0;
#X connect 81 0 83 0;
#X connect 84 0 1 0;
#X connect 85 0 66 0;
#X connect 86 0 85 0;
#X connect 87 0 86 0;
#X connect 88 0 90 0;
#X connect 90 0 86 0;
#X connect 90 1 105 0;
#X connect 90 2 89 0;
#X connect 91 0 92 1;
#X connect 92 0 72 0;
#X connect 93 0 94 1;
#X connect 94 0 47 0;
#X connect 95 0 30 0;
#X connect 96 0 95 1;
#X connect 97 0 23 0;
#X connect 98 0 97 1;
#X connect 99 0 100 1;
#X connect 100 0 16 0;
#X connect 101 0 7 0;
#X connect 102 0 101 1;
#X connect 103 0 2 0;
#X connect 104 0 103 1;
#X connect 105 0 66 1;
#X connect 106 0 107 0;
#X connect 107 0 84 0;
#X connect 108 0 112 0;
#X connect 110 0 84 1;
#X connect 110 0 111 0;
#X connect 112 0 109 0;
