#N canvas 470 229 498 427 10;
#X obj 100 -81 inlet;
#X obj 97 87 * 6.28319;
#X obj 97 110 sqrt;
#X floatatom 98 145 5 0 0 0 - - -;
#X floatatom 96 64 5 0 0 0 - - -;
#X obj 182 85 / 2.71828;
#X obj 181 53 t f f;
#X obj 182 111 pow;
#X floatatom 181 142 10 0 0 0 - - -;
#X floatatom 177 23 5 0 0 0 - - -;
#X obj 101 -52 t f f;
#X obj 110 181 *;
#X floatatom 109 219 10 0 0 0 - - -;
#X floatatom 144 -80 5 0 0 0 - - -;
#X obj 111 253 outlet;
#X connect 0 0 10 0;
#X connect 1 0 2 0;
#X connect 2 0 3 0;
#X connect 2 0 11 0;
#X connect 4 0 1 0;
#X connect 5 0 7 0;
#X connect 6 0 5 0;
#X connect 6 1 7 1;
#X connect 7 0 8 0;
#X connect 7 0 11 1;
#X connect 9 0 6 0;
#X connect 10 0 1 0;
#X connect 10 1 6 0;
#X connect 11 0 12 0;
#X connect 11 0 14 0;
#X connect 13 0 10 0;
