#N canvas 81 158 796 463 10;
#X obj 316 282 birdPitchShift;
#X obj 428 19 inlet;
#X obj 321 16 inlet~;
#X obj 313 404 outlet~;
#X obj 395 236 loadbang;
#X obj 364 88 moses 1;
#X obj 402 121 change;
#X obj 314 311 hip~ 4;
#X msg 397 256 0.3;
#X obj 365 65 fiddle~ 8192;
#N canvas 733 106 663 610 pitch 0;
#X floatatom 123 137 5 0 0 0 - - -;
#X obj 203 7 inlet;
#X obj 258 10 inlet;
#X floatatom 106 234 5 0 0 0 - - -;
#X floatatom 212 249 5 0 0 0 - - -;
#X obj 284 179 mod 12;
#X floatatom 285 216 5 0 0 0 - - -;
#X floatatom 281 67 5 0 0 0 - - -;
#X obj 223 179 mod 12;
#X floatatom 357 64 5 0 0 0 - - -;
#X floatatom 419 66 5 0 0 0 - - -;
#X floatatom 217 211 5 0 0 0 - - -;
#X obj 253 240 t b f;
#X obj 252 266 -;
#X floatatom 369 267 5 0 0 0 - - -;
#X obj 252 290 mod 12;
#X floatatom 104 303 5 0 0 0 - - -;
#X obj 252 324 t f f f;
#X obj 292 346 > 6;
#X floatatom 346 468 5 0 0 0 - - -;
#X floatatom 313 372 5 0 0 0 - - -;
#X floatatom 147 403 5 0 0 0 - - -;
#X obj 252 445 spigot;
#X floatatom 276 500 5 0 0 0 - - -;
#X obj 272 386 swap -12;
#X obj 279 417 +;
#X floatatom 294 449 5 0 0 0 - - -;
#X obj 165 443 spigot;
#X obj 199 413 birdInvert 1;
#X obj 230 543 * -1;
#X obj 231 574 outlet;
#X connect 1 0 8 0;
#X connect 2 0 5 0;
#X connect 5 0 6 0;
#X connect 5 0 12 0;
#X connect 7 0 5 0;
#X connect 8 0 11 0;
#X connect 8 0 13 0;
#X connect 9 0 8 0;
#X connect 10 0 5 0;
#X connect 12 0 13 0;
#X connect 12 1 13 1;
#X connect 13 0 14 0;
#X connect 13 0 15 0;
#X connect 15 0 16 0;
#X connect 15 0 17 0;
#X connect 17 0 21 0;
#X connect 17 0 27 0;
#X connect 17 1 24 0;
#X connect 17 2 18 0;
#X connect 18 0 20 0;
#X connect 18 0 22 1;
#X connect 18 0 28 0;
#X connect 22 0 23 0;
#X connect 22 0 29 0;
#X connect 24 0 19 0;
#X connect 24 0 25 0;
#X connect 24 1 25 1;
#X connect 25 0 26 0;
#X connect 25 0 22 0;
#X connect 27 0 29 0;
#X connect 28 0 27 1;
#X connect 29 0 30 0;
#X restore 401 147 pd pitch;
#X floatatom 438 211 5 0 0 0 - - -;
#X connect 0 0 7 0;
#X connect 1 0 10 1;
#X connect 2 0 0 0;
#X connect 2 0 9 0;
#X connect 4 0 8 0;
#X connect 5 1 6 0;
#X connect 6 0 10 0;
#X connect 7 0 3 0;
#X connect 8 0 0 2;
#X connect 9 0 5 0;
#X connect 10 0 11 0;
#X connect 10 0 0 1;
