#N canvas 627 41 813 596 10;
#X obj -138 -120 inlet~;
#X obj -157 234 tabwrite~ \$0-array;
#X msg -156 190 stop;
#X obj -124 381 tabplay~ \$0-array;
#X obj -80 75 timer;
#X floatatom -80 101 5 0 0 0 - - -;
#X obj -82 23 bng 15 250 50 0 empty empty empty 17 7 0 10 -262144 -1
-1;
#X obj -136 20 bng 15 250 50 0 empty empty empty 17 7 0 10 -262144
-1 -1;
#X obj -138 -85 birdEdge~;
#X obj -138 108 t b b b;
#X obj -86 -25 spigot;
#X msg -97 135 0;
#X obj -30 88 * 0.001;
#X obj -26 152 *;
#X obj -32 112 t f b;
#X obj -5 130 samplerate~;
#X floatatom 81 155 10 0 0 0 - - -;
#X obj -31 180 f;
#X obj -14 248 pack f \$0;
#X obj -13 271 print;
#X msg -16 295 \; \$2-array resize \$1;
#X obj -25 -121 inlet;
#X msg -23 -52 1;
#X obj -141 -24 spigot;
#X obj -124 423 outlet~;
#X obj 336 -69 table \$0-array 44100;
#X obj -22 213 int;
#X obj 25 -89 route arm play;
#X obj -23 419 outlet;
#X obj 122 209 int;
#X obj 96 97 bng 15 250 50 0 empty empty empty 17 7 0 10 -262144 -1
-1;
#X obj 123 185 * 0.4;
#X msg -125 346 0;
#X obj 114 419 outlet;
#X connect 0 0 8 0;
#X connect 0 0 1 0;
#X connect 2 0 1 0;
#X connect 3 0 24 0;
#X connect 3 1 28 0;
#X connect 4 0 5 0;
#X connect 4 0 12 0;
#X connect 6 0 4 0;
#X connect 6 0 1 0;
#X connect 7 0 4 1;
#X connect 7 0 9 0;
#X connect 7 0 33 0;
#X connect 8 0 23 0;
#X connect 8 1 10 0;
#X connect 9 0 17 0;
#X connect 9 1 2 0;
#X connect 9 2 11 0;
#X connect 10 0 6 0;
#X connect 11 0 10 1;
#X connect 11 0 23 1;
#X connect 12 0 14 0;
#X connect 13 0 16 0;
#X connect 13 0 17 1;
#X connect 14 0 13 0;
#X connect 14 1 15 0;
#X connect 15 0 13 1;
#X connect 16 0 31 0;
#X connect 17 0 26 0;
#X connect 18 0 19 0;
#X connect 18 0 20 0;
#X connect 21 0 27 0;
#X connect 22 0 10 1;
#X connect 22 0 23 1;
#X connect 23 0 7 0;
#X connect 26 0 18 0;
#X connect 27 0 22 0;
#X connect 27 1 32 0;
#X connect 30 0 16 0;
#X connect 31 0 29 0;
#X connect 32 0 3 0;
