#N canvas 120 40 1173 728 10;
#X obj -477 235 birdMidiIn;
#X obj -480 459 catch~ \$0-metro;
#X obj 145 109 throw~ \$0-metro;
#X msg 51 4 play;
#X obj 41 144 s \$0-cmd;
#X obj 32 114 route clock;
#X msg 37 -24 stop;
#X msg 168 45 divisions 4;
#X msg 21 -47 record;
#X msg -2 -70 reset;
#X msg 167 -3 countin 4;
#X msg -23 -95 clear;
#X floatatom 29 169 5 0 0 0 - - -;
#X msg 163 -31 pattern \$1;
#X obj 162 -56 hradio 15 1 0 4 empty empty empty 0 -8 0 10 -262144
-1 -1 0;
#X obj 100 177 print;
#X obj -377 472 freeverb~;
#X obj -375 514 birdOut~;
#X msg -216 368 roomsize \$1;
#X msg -216 426 damping \$1;
#X msg -217 476 width \$1;
#X msg -217 532 wet \$1;
#X msg -218 589 dry \$1;
#X obj -210 348 hsl 128 15 0.01 1 1 0 empty empty empty -2 -8 0 10
-262144 -1 -1 0 1;
#X obj -214 404 hsl 128 15 0.01 1 1 0 empty empty empty -2 -8 0 10
-262144 -1 -1 0 1;
#X obj -216 454 hsl 128 15 0.01 1 1 0 empty empty empty -2 -8 0 10
-262144 -1 -1 0 1;
#X obj -215 513 hsl 128 15 0.01 1 1 0 empty empty empty -2 -8 0 10
-262144 -1 -1 0 1;
#X obj -216 569 hsl 128 15 0.01 1 1 0 empty empty empty -2 -8 0 10
-262144 -1 -1 0 1;
#X msg -359 562 freeze \$1;
#X msg -359 606 bypass \$1;
#X obj -359 541 tgl 15 0 empty empty empty 17 7 0 10 -262144 -1 -1
0 1;
#X obj -360 587 tgl 15 0 empty empty empty 17 7 0 10 -262144 -1 -1
0 1;
#X msg 168 21 loop 1;
#N canvas 250 410 769 391 instrument1 0;
#X obj -297 -327 r \$0-cmd;
#X obj -216 -322 r \$0-cmd;
#X obj -136 -324 r \$0-cmd;
#X obj -55 -319 r \$0-cmd;
#X obj -73 -150 r \$0-theMonitor;
#X obj -346 -298 pattern 0;
#X msg -310 -217 shape sine;
#X msg -212 -217 shape saw;
#X msg -124 -209 shape square;
#X msg -34 -205 shape sine;
#X obj -73 -89 birdOsc~;
#X msg -7 -115 shape saw;
#X obj -259 -184 birdOsc~;
#X obj -358 -187 birdOsc~;
#X obj -172 -182 birdOsc~;
#X obj -95 -180 birdOsc~;
#X obj -104 -57 *~ 3;
#X obj -45 -284 loadbang;
#X obj -339 -404 inlet;
#X obj -274 -358 s \$0-theMonitor;
#X obj -306 -74 hip~ 20;
#X obj -304 -45 outlet~;
#X obj -186 -295 pattern 2;
#X obj -106 -294 pattern 3;
#X obj -267 -297 pattern 1;
#X connect 0 0 5 1;
#X connect 1 0 24 1;
#X connect 2 0 22 1;
#X connect 3 0 23 1;
#X connect 4 0 10 0;
#X connect 5 0 13 0;
#X connect 6 0 13 1;
#X connect 7 0 12 1;
#X connect 8 0 14 1;
#X connect 9 0 15 1;
#X connect 10 0 16 0;
#X connect 11 0 10 1;
#X connect 12 0 20 0;
#X connect 13 0 20 0;
#X connect 14 0 20 0;
#X connect 15 0 20 0;
#X connect 16 0 20 0;
#X connect 17 0 9 0;
#X connect 17 0 8 0;
#X connect 17 0 7 0;
#X connect 17 0 6 0;
#X connect 17 0 11 0;
#X connect 18 0 5 0;
#X connect 18 0 19 0;
#X connect 18 0 22 0;
#X connect 18 0 23 0;
#X connect 18 0 24 0;
#X connect 20 0 21 0;
#X connect 22 0 14 0;
#X connect 23 0 15 0;
#X connect 24 0 12 0;
#X restore -481 300 pd instrument1;
#N canvas 679 362 769 391 instrument2 0;
#X obj -297 -327 r \$0-cmd;
#X obj -216 -322 r \$0-cmd;
#X obj -136 -324 r \$0-cmd;
#X obj -55 -319 r \$0-cmd;
#X obj -73 -150 r \$0-theMonitor;
#X obj -104 -57 *~ 3;
#X obj 7 -261 loadbang;
#X obj -339 -404 inlet;
#X obj -274 -358 s \$0-theMonitor;
#X obj -306 -74 hip~ 20;
#X obj -304 -45 outlet~;
#X obj -358 -187 birdString;
#X floatatom -11 -117 5 0 0 0 - - -;
#X floatatom 19 -93 5 0 0 0 - - -;
#X obj -186 -295 pattern 2;
#X obj -106 -294 pattern 3;
#X obj -346 -298 pattern 0;
#X obj -267 -297 pattern 1;
#X obj -73 -89 birdString;
#X obj -259 -184 birdString;
#X obj -172 -182 birdString;
#X obj -95 -180 birdString;
#X msg -9 -221 0.98;
#X connect 0 0 16 1;
#X connect 1 0 17 1;
#X connect 2 0 14 1;
#X connect 3 0 15 1;
#X connect 4 0 18 0;
#X connect 5 0 9 0;
#X connect 6 0 22 0;
#X connect 7 0 8 0;
#X connect 7 0 14 0;
#X connect 7 0 15 0;
#X connect 7 0 16 0;
#X connect 7 0 17 0;
#X connect 9 0 10 0;
#X connect 11 0 9 0;
#X connect 12 0 18 1;
#X connect 14 0 20 0;
#X connect 15 0 21 0;
#X connect 16 0 11 0;
#X connect 17 0 19 0;
#X connect 18 0 5 0;
#X connect 19 0 9 0;
#X connect 20 0 9 0;
#X connect 21 0 9 0;
#X connect 22 0 11 1;
#X connect 22 0 18 1;
#X connect 22 0 19 1;
#X connect 22 0 20 1;
#X connect 22 0 21 1;
#X restore -378 302 pd instrument2;
#X obj 40 81 birdClock 4 4 4 80;
#X obj -359 101 adc~;
#X obj -359 129 *~ 3;
#X obj -378 271 print in;
#X connect 0 0 33 0;
#X connect 0 0 34 0;
#X connect 0 0 38 0;
#X connect 1 0 17 1;
#X connect 1 0 17 0;
#X connect 3 0 35 0;
#X connect 5 0 12 0;
#X connect 5 1 15 0;
#X connect 6 0 35 0;
#X connect 7 0 35 1;
#X connect 8 0 35 0;
#X connect 9 0 35 0;
#X connect 10 0 35 1;
#X connect 11 0 35 0;
#X connect 13 0 35 1;
#X connect 14 0 13 0;
#X connect 16 0 17 0;
#X connect 16 1 17 1;
#X connect 18 0 16 0;
#X connect 19 0 16 0;
#X connect 20 0 16 0;
#X connect 21 0 16 0;
#X connect 22 0 16 0;
#X connect 23 0 18 0;
#X connect 24 0 19 0;
#X connect 25 0 20 0;
#X connect 26 0 21 0;
#X connect 27 0 22 0;
#X connect 28 0 16 0;
#X connect 29 0 16 0;
#X connect 30 0 28 0;
#X connect 31 0 29 0;
#X connect 32 0 35 1;
#X connect 33 0 16 1;
#X connect 33 0 16 0;
#X connect 35 0 4 0;
#X connect 35 0 5 0;
#X connect 35 1 2 0;
#X connect 36 0 37 0;
