#N canvas 0 22 450 300 10;
#N canvas 265 46 1440 752 kick 0;
#X obj 515 585 soundfiler;
#X obj 151 26 inlet;
#X obj 143 716 outlet~;
#X obj 515 611 t b;
#X obj 515 642 \$0;
#N canvas 399 41 502 429 patterns 0;
#X obj 72 17 inlet;
#X obj 72 42 sel 0 1 2 3 4 5 6 7 8;
#X obj 107 419 outlet;
#X msg 72 72 100 5 5 5 5 10 5 15;
#X msg 92 120 100 50 5 5 5 5 65 5;
#X msg 109 145 100 5 90 5 5 5 70 5;
#X msg 125 168 100 5 5 90 90 5 5 5;
#X msg 140 189 100 1 1 1 90 1 1 1;
#X msg 157 212 100 2 2 2;
#X msg 175 235 90 10 1 10 90 10 1 90 1 90 1 10 90 90 1 25;
#X text 264 337 kick patterns;
#X msg 192 266 100 10 1 50 90 1 1 80 90 1 1 80 90 1 80 80 90;
#X msg 206 288 90 5 90 5 5 90 5 90;
#X connect 0 0 1 0;
#X connect 1 0 3 0;
#X connect 1 1 4 0;
#X connect 1 2 5 0;
#X connect 1 3 6 0;
#X connect 1 4 7 0;
#X connect 1 5 8 0;
#X connect 1 6 9 0;
#X connect 1 7 11 0;
#X connect 1 8 12 0;
#X connect 3 0 2 0;
#X connect 4 0 2 0;
#X connect 5 0 2 0;
#X connect 6 0 2 0;
#X connect 7 0 2 0;
#X connect 8 0 2 0;
#X connect 9 0 2 0;
#X connect 11 0 2 0;
#X connect 12 0 2 0;
#X restore 217 79 pd patterns;
#X obj 217 33 inlet;
#X obj 142 673 *~;
#X obj 150 252 t b b b;
#X obj 152 441 del;
#X obj 177 479 * 0.01;
#X obj 177 420 random 45;
#X obj 177 451 + 70;
#X obj 217 55 route pattern sample;
#X obj 275 103 s \$0-kickSample;
#X obj 613 376 \$0;
#X obj 602 329 \$0;
#X obj 639 467 \$0;
#X obj 628 420 \$0;
#X obj 150 132 wrandom;
#X obj 37 580 s \$0-kickHits;
#X obj 208 180 r \$0-clock;
#X obj 205 255 mod 8;
#X obj 282 233 r \$0-accent;
#X obj 205 280 == 0;
#X obj 205 312 sel 0 1;
#X msg 245 341 90;
#X msg 204 342 60;
#X obj 23 13 table \$0-kickArray0;
#X obj 25 33 table \$0-kickArray1;
#X obj 26 55 table \$0-kickArray2;
#X obj 28 75 table \$0-kickArray3;
#X msg 602 353 read -resize Kick-2.wav \$1-kickArray0;
#X msg 613 400 read -resize Kick-3.wav \$1-kickArray1;
#X msg 628 444 read -resize Kick-4.wav \$1-kickArray2;
#X msg 639 491 read -resize Kick-5.wav \$1-kickArray3;
#X obj 151 522 tabplay~ \$0-kickArray0;
#X obj 299 440 \$0;
#X obj 299 416 route 0 1 2 3;
#X obj 312 486 \$0;
#X obj 327 534 \$0;
#X obj 340 580 \$0;
#X msg 298 466 set \$1-kickArray0;
#X msg 311 512 set \$1-kickArray1;
#X msg 331 554 set \$1-kickArray2;
#X msg 339 606 set \$1-kickArray3;
#X obj 301 372 r \$0-changeKick;
#X obj 673 588 soundfiler;
#X obj 673 614 t b;
#X obj 673 645 \$0;
#X obj 832 586 soundfiler;
#X obj 832 612 t b;
#X obj 832 643 \$0;
#X obj 990 589 soundfiler;
#X obj 990 615 t b;
#X obj 990 646 \$0;
#X msg 515 669 \; \$1-kickArray0 normalize 1;
#X msg 673 672 \; \$1-kickArray1 normalize 1;
#X msg 832 670 \; \$1-kickArray2 normalize 1;
#X msg 990 673 \; \$1-kickArray3 normalize 1;
#X obj 601 288 loadbang;
#X obj 295 322 random 4;
#X obj 170 640 *~;
#X obj 174 617 lop~ 1;
#X obj 954 70 block~ 1024 1 2;
#X obj 214 451 random 10;
#N canvas 603 144 450 300 mdb 0;
#X obj 63 42 inlet;
#X obj 66 79 spigot;
#X obj 66 103 t b b;
#X msg 99 133 0;
#X msg 133 53 1;
#X obj 133 21 loadbang;
#X obj 72 162 outlet;
#X msg 194 64 1;
#X obj 197 25 inlet;
#X connect 0 0 1 0;
#X connect 1 0 2 0;
#X connect 2 0 6 0;
#X connect 2 1 3 0;
#X connect 3 0 1 1;
#X connect 4 0 1 1;
#X connect 5 0 4 0;
#X connect 7 0 1 1;
#X connect 8 0 7 0;
#X restore 154 191 pd mdb;
#X obj 469 -28 r \$0-clock;
#X obj 470 -3 t f b f;
#X obj 494 62 random 100;
#X obj 494 94 <;
#X obj 447 131 spigot;
#X obj 574 -77 r notes;
#X obj 567 -30 list prepend read;
#X obj 566 -7 list trim;
#X obj 567 -52 route 4;
#X obj 511 26 mm_pattern;
#X obj 602 76 print kicknotes;
#X obj 598 45 length;
#X obj 242 213 r divisions;
#X connect 0 0 3 0;
#X connect 1 0 19 0;
#X connect 3 0 4 0;
#X connect 3 0 15 0;
#X connect 4 0 56 0;
#X connect 5 0 19 1;
#X connect 6 0 13 0;
#X connect 7 0 2 0;
#X connect 8 0 9 0;
#X connect 8 1 11 0;
#X connect 8 2 61 0;
#X connect 8 2 65 0;
#X connect 9 0 36 0;
#X connect 9 0 20 0;
#X connect 10 0 63 0;
#X connect 11 0 12 0;
#X connect 12 0 10 0;
#X connect 13 0 5 0;
#X connect 13 1 14 0;
#X connect 15 0 33 0;
#X connect 16 0 32 0;
#X connect 17 0 35 0;
#X connect 18 0 34 0;
#X connect 21 0 22 0;
#X connect 22 0 24 0;
#X connect 23 0 24 1;
#X connect 24 0 25 0;
#X connect 25 0 27 0;
#X connect 25 1 26 0;
#X connect 26 0 12 1;
#X connect 27 0 12 1;
#X connect 32 0 0 0;
#X connect 33 0 47 0;
#X connect 34 0 50 0;
#X connect 35 0 53 0;
#X connect 36 0 7 0;
#X connect 36 1 66 1;
#X connect 37 0 42 0;
#X connect 38 0 37 0;
#X connect 38 1 39 0;
#X connect 38 2 40 0;
#X connect 38 3 41 0;
#X connect 39 0 43 0;
#X connect 40 0 44 0;
#X connect 41 0 45 0;
#X connect 42 0 36 0;
#X connect 43 0 36 0;
#X connect 44 0 36 0;
#X connect 45 0 36 0;
#X connect 46 0 38 0;
#X connect 47 0 48 0;
#X connect 48 0 49 0;
#X connect 48 0 18 0;
#X connect 49 0 57 0;
#X connect 50 0 51 0;
#X connect 51 0 52 0;
#X connect 51 0 17 0;
#X connect 52 0 58 0;
#X connect 53 0 54 0;
#X connect 54 0 55 0;
#X connect 55 0 59 0;
#X connect 60 0 16 0;
#X connect 61 0 38 0;
#X connect 62 0 7 1;
#X connect 63 0 62 1;
#X connect 63 0 62 0;
#X connect 65 0 9 1;
#X connect 66 0 8 0;
#X connect 67 0 68 0;
#X connect 68 0 71 0;
#X connect 68 1 69 0;
#X connect 68 2 76 0;
#X connect 69 0 70 0;
#X connect 70 0 71 1;
#X connect 71 0 66 0;
#X connect 72 0 75 0;
#X connect 73 0 74 0;
#X connect 74 0 76 1;
#X connect 74 0 78 0;
#X connect 75 0 73 0;
#X connect 76 0 70 1;
#X connect 76 1 70 1;
#X connect 78 0 77 0;
#X connect 79 0 22 1;
#X restore 187 237 pd kick;
#X obj 186 697 throw~ outputR;
#X obj 253 733 throw~ outputL;
#N canvas 0 23 1440 752 sn 0;
#X obj 720 193 \$0;
#X obj 731 473 soundfiler;
#X obj 150 15 inlet;
#X obj 150 663 outlet~;
#X obj 731 502 t b;
#X obj 731 533 \$0;
#N canvas 916 26 502 429 patterns 0;
#X obj 72 17 inlet;
#X obj 71 41 sel 0 1 2 3 4 5 6 7 8;
#X obj 114 327 outlet;
#X msg 72 70 0 5 5 5 95 15 5 15;
#X msg 103 118 0 5 5 5 95 15 5 15;
#X msg 86 93 0 5 5 5 95 50 5 50;
#X msg 119 141 0 5 5 95 95 5 5 15;
#X msg 134 162 0 1 95 95 1 1 10 20;
#X msg 151 185 1 1 1 1 95 10 1 10;
#X text 227 355 snare patterns;
#X msg 192 236 99 80 80 80 99 80 80 80 99 80 80 80 99 80 80 80;
#X msg 174 211 1 5 90 5 1 5 90 40;
#X msg 200 261 90 5 90 5 90 5 90 5;
#X connect 0 0 1 0;
#X connect 1 0 3 0;
#X connect 1 1 5 0;
#X connect 1 2 4 0;
#X connect 1 3 6 0;
#X connect 1 4 7 0;
#X connect 1 5 8 0;
#X connect 1 6 11 0;
#X connect 1 7 10 0;
#X connect 1 8 12 0;
#X connect 3 0 2 0;
#X connect 4 0 2 0;
#X connect 5 0 2 0;
#X connect 6 0 2 0;
#X connect 7 0 2 0;
#X connect 8 0 2 0;
#X connect 10 0 2 0;
#X connect 11 0 2 0;
#X connect 12 0 2 0;
#X restore 220 61 pd patterns;
#X obj 220 15 inlet;
#X obj 149 614 *~;
#X obj 154 210 t b b b;
#X obj 151 365 del;
#X obj 177 349 * 0.01;
#X obj 177 297 random 45;
#X obj 177 321 + 60;
#X obj 220 37 route pattern sample;
#X obj 280 83 s \$0-snareSample;
#X obj 738 282 \$0;
#X obj 750 325 \$0;
#X obj 765 369 \$0;
#X obj 153 114 wrandom;
#X obj 225 113 r \$0-clock;
#X obj 225 174 mod 8;
#X obj 302 152 r \$0-accent;
#X obj 225 199 == 0;
#X obj 225 231 sel 0 1;
#X msg 224 261 50;
#X msg 265 260 80;
#X obj 6 36 table \$0-snareArray1;
#X obj 7 59 table \$0-snareArray2;
#X obj 7 82 table \$0-snareArray3;
#X obj 6 13 table \$0-snareArray0;
#X msg 722 260 read -resize Snare-5.wav \$1-snareArray0;
#X msg 737 304 read -resize Snare.wav \$1-snareArray1;
#X msg 749 347 read -resize Clap-4.wav \$1-snareArray2;
#X msg 764 391 read -resize Snare-2.wav \$1-snareArray3;
#X obj 289 389 \$0;
#X obj 291 321 r \$0-changeSnare;
#X msg 288 415 set \$1-snareArray0;
#X obj 289 365 route 0 1 2 3;
#X obj 302 435 \$0;
#X msg 301 461 set \$1-snareArray1;
#X obj 317 483 \$0;
#X obj 330 529 \$0;
#X msg 316 509 set \$1-snareArray2;
#X msg 329 555 set \$1-snareArray3;
#X obj 720 160 loadbang;
#X obj 149 528 tabplay~ \$0-snareArray0;
#X obj 900 471 soundfiler;
#X obj 900 500 t b;
#X obj 900 531 \$0;
#X obj 1068 470 soundfiler;
#X obj 1068 499 t b;
#X obj 1068 530 \$0;
#X obj 1237 468 soundfiler;
#X obj 1237 497 t b;
#X obj 1237 528 \$0;
#X msg 731 560 \; \$1-snareArray0 normalize 1;
#X msg 900 558 \; \$1-snareArray1 normalize 1;
#X msg 1068 557 \; \$1-snareArray2 normalize 1;
#X msg 1237 555 \; \$1-snareArray3 normalize 1;
#X obj 339 288 random 4;
#X obj 168 404 s \$0-snareHits;
#X obj 167 554 lop~ 1;
#X obj 168 581 *~;
#X obj 934 50 block~ 1024 1 2;
#X obj 214 321 random 12;
#N canvas 603 144 450 300 mdb 0;
#X obj 63 42 inlet;
#X obj 66 79 spigot;
#X obj 66 103 t b b;
#X msg 99 133 0;
#X msg 133 53 1;
#X obj 133 21 loadbang;
#X obj 72 162 outlet;
#X msg 194 64 1;
#X obj 197 25 inlet;
#X connect 0 0 1 0;
#X connect 1 0 2 0;
#X connect 2 0 6 0;
#X connect 2 1 3 0;
#X connect 3 0 1 1;
#X connect 4 0 1 1;
#X connect 5 0 4 0;
#X connect 7 0 1 1;
#X connect 8 0 7 0;
#X restore 154 170 pd mdb;
#X obj 517 0 r \$0-clock;
#X obj 518 25 t f b f;
#X obj 541 80 random 100;
#X obj 542 103 <;
#X obj 520 136 spigot;
#X obj 612 -49 r notes;
#X obj 615 -2 list prepend read;
#X obj 614 21 list trim;
#X obj 557 49 mm_pattern;
#X obj 615 -24 route 5;
#X obj 701 98 print snare_notes;
#X obj 660 62 length;
#X obj 258 139 r divisions;
#X connect 0 0 31 0;
#X connect 1 0 4 0;
#X connect 2 0 19 0;
#X connect 4 0 5 0;
#X connect 4 0 16 0;
#X connect 5 0 56 0;
#X connect 6 0 19 1;
#X connect 7 0 14 0;
#X connect 8 0 3 0;
#X connect 9 0 10 0;
#X connect 9 1 12 0;
#X connect 9 2 60 0;
#X connect 9 2 65 0;
#X connect 10 0 61 0;
#X connect 10 0 46 0;
#X connect 11 0 62 0;
#X connect 12 0 13 0;
#X connect 13 0 11 0;
#X connect 14 0 6 0;
#X connect 14 1 15 0;
#X connect 16 0 32 0;
#X connect 17 0 33 0;
#X connect 18 0 34 0;
#X connect 20 0 21 0;
#X connect 21 0 23 0;
#X connect 22 0 23 1;
#X connect 23 0 24 0;
#X connect 24 0 25 0;
#X connect 24 1 26 0;
#X connect 25 0 13 1;
#X connect 26 0 13 1;
#X connect 31 0 1 0;
#X connect 32 0 47 0;
#X connect 33 0 50 0;
#X connect 34 0 53 0;
#X connect 35 0 37 0;
#X connect 36 0 38 0;
#X connect 37 0 46 0;
#X connect 38 0 35 0;
#X connect 38 1 39 0;
#X connect 38 2 41 0;
#X connect 38 3 42 0;
#X connect 39 0 40 0;
#X connect 40 0 46 0;
#X connect 41 0 43 0;
#X connect 42 0 44 0;
#X connect 43 0 46 0;
#X connect 44 0 46 0;
#X connect 45 0 0 0;
#X connect 46 0 8 0;
#X connect 46 1 66 1;
#X connect 47 0 48 0;
#X connect 48 0 49 0;
#X connect 48 0 17 0;
#X connect 49 0 57 0;
#X connect 50 0 51 0;
#X connect 51 0 52 0;
#X connect 51 0 18 0;
#X connect 52 0 58 0;
#X connect 53 0 54 0;
#X connect 54 0 55 0;
#X connect 55 0 59 0;
#X connect 60 0 38 0;
#X connect 62 0 63 1;
#X connect 62 0 63 0;
#X connect 63 0 8 1;
#X connect 65 0 10 1;
#X connect 66 0 9 0;
#X connect 67 0 68 0;
#X connect 68 0 71 0;
#X connect 68 1 69 0;
#X connect 68 2 75 0;
#X connect 69 0 70 0;
#X connect 70 0 71 1;
#X connect 71 0 66 0;
#X connect 72 0 76 0;
#X connect 73 0 74 0;
#X connect 74 0 75 1;
#X connect 74 0 78 0;
#X connect 75 0 70 1;
#X connect 75 1 70 1;
#X connect 76 0 73 0;
#X connect 78 0 77 0;
#X connect 79 0 21 1;
#X restore 279 234 pd sn;
#X msg 200 129 pattern \$1;
#X obj 278 556 lop~ 1;
#N canvas 16 23 1440 752 perc 0;
#X obj 738 563 soundfiler;
#X obj 328 46 inlet;
#X obj 362 591 outlet~;
#X obj 738 592 t b;
#X obj 738 623 \$0;
#N canvas 29 45 502 429 patterns 0;
#X obj 72 17 inlet;
#X obj 71 41 sel 0 1 2 3 4 5 6 7 8;
#X obj 114 327 outlet;
#X msg 72 70 80 5 80 5 80 5 80 5;
#X msg 86 93 5 80 5 80 5 80 5 80;
#X msg 103 118 80 80 80 80 80 80 80 80;
#X msg 119 141 5 80 80 5 5 80 80 5;
#X msg 134 162 85 85 85 85;
#X msg 151 185 5 80 5 80;
#X msg 169 208 80 80 80 1 80 80 80 1 1 80 80 80 1 80 80 80;
#X text 195 377 percussion patterns;
#X msg 186 239 15 15 80 15;
#X msg 201 264 80 50 80 50 80 50 80 50;
#X connect 0 0 1 0;
#X connect 1 0 3 0;
#X connect 1 1 4 0;
#X connect 1 2 5 0;
#X connect 1 3 6 0;
#X connect 1 4 7 0;
#X connect 1 5 8 0;
#X connect 1 6 9 0;
#X connect 1 7 11 0;
#X connect 1 8 12 0;
#X connect 3 0 2 0;
#X connect 4 0 2 0;
#X connect 5 0 2 0;
#X connect 6 0 2 0;
#X connect 7 0 2 0;
#X connect 8 0 2 0;
#X connect 9 0 2 0;
#X connect 11 0 2 0;
#X connect 12 0 2 0;
#X restore 398 138 pd patterns;
#X obj 398 88 inlet;
#X obj 327 557 *~;
#X obj 330 277 t b b b;
#X obj 330 416 del;
#X obj 356 400 * 0.01;
#X obj 356 348 random 45;
#X obj 356 372 + 55;
#X obj 398 114 route pattern sample;
#X obj 455 163 s \$0-percSample;
#X obj 735 372 \$0;
#X obj 748 415 \$0;
#X obj 763 458 \$0;
#X obj 777 504 \$0;
#X obj 331 191 wrandom;
#X obj 414 18 r \$0-clock;
#X obj 414 233 mod 8;
#X obj 491 197 r \$0-accent;
#X obj 414 258 == 0;
#X obj 414 290 sel 0 1;
#X msg 413 320 50;
#X msg 454 319 80;
#X obj 734 343 loadbang;
#X obj 22 42 table \$0-percArray0;
#X obj 22 65 table \$0-percArray1;
#X obj 23 88 table \$0-percArray2;
#X obj 23 111 table \$0-percArray3;
#X msg 735 394 read -resize Hat-6.aif \$1-percArray0;
#X msg 748 438 read -resize Hat-7.aif \$1-percArray1;
#X msg 763 480 read -resize Perc.wav \$1-percArray2;
#X msg 776 524 read -resize Tamb.wav \$1-percArray3;
#X obj 501 364 \$0;
#X obj 501 340 route 0 1 2 3;
#X obj 514 410 \$0;
#X obj 529 458 \$0;
#X obj 542 504 \$0;
#X obj 331 444 tabplay~ \$0-percArray0;
#X msg 500 390 set \$1-percArray0;
#X msg 513 436 set \$1-percArray1;
#X msg 528 486 set \$1-percArray2;
#X msg 541 530 set \$1-percArray3;
#X obj 503 296 r \$0-changePerc;
#X obj 899 564 soundfiler;
#X obj 899 593 t b;
#X obj 899 624 \$0;
#X obj 1057 561 soundfiler;
#X obj 1057 590 t b;
#X obj 1057 621 \$0;
#X obj 1218 562 soundfiler;
#X obj 1218 591 t b;
#X obj 1218 622 \$0;
#X msg 738 650 \; \$1-percArray0 normalize 1;
#X msg 899 651 \; \$1-percArray1 normalize 1;
#X msg 1057 648 \; \$1-percArray2 normalize 1;
#X msg 1218 649 \; \$1-percArray3 normalize 1;
#X obj 223 447 s \$0-percHits;
#X obj 944 60 block~ 1024 1 2;
#X obj 351 508 *~;
#X obj 349 467 lop~ 1;
#N canvas 603 144 450 300 mdb 0;
#X obj 63 42 inlet;
#X obj 66 79 spigot;
#X obj 66 103 t b b;
#X msg 99 133 0;
#X msg 133 53 1;
#X obj 133 21 loadbang;
#X obj 72 162 outlet;
#X msg 194 64 1;
#X obj 197 25 inlet;
#X connect 0 0 1 0;
#X connect 1 0 2 0;
#X connect 2 0 6 0;
#X connect 2 1 3 0;
#X connect 3 0 1 1;
#X connect 4 0 1 1;
#X connect 5 0 4 0;
#X connect 7 0 1 1;
#X connect 8 0 7 0;
#X restore 330 234 pd mdb;
#X obj 393 372 random 5;
#X obj 527 10 r \$0-clock;
#X obj 528 35 t f b f;
#X obj 551 90 random 100;
#X obj 552 113 <;
#X obj 530 146 spigot;
#X obj 622 -39 r notes;
#X obj 625 8 list prepend read;
#X obj 624 31 list trim;
#X obj 567 59 mm_pattern;
#X obj 625 -14 route 6;
#X obj 778 198 print percnotes;
#X obj 730 152 length;
#X obj 431 200 r divisions;
#X connect 0 0 3 0;
#X connect 1 0 19 0;
#X connect 3 0 4 0;
#X connect 3 0 16 0;
#X connect 4 0 56 0;
#X connect 5 0 19 1;
#X connect 6 0 13 0;
#X connect 7 0 2 0;
#X connect 8 0 9 0;
#X connect 8 1 11 0;
#X connect 8 2 65 0;
#X connect 9 0 41 0;
#X connect 9 0 60 0;
#X connect 10 0 63 0;
#X connect 11 0 12 0;
#X connect 12 0 10 0;
#X connect 13 0 5 0;
#X connect 13 1 14 0;
#X connect 15 0 32 0;
#X connect 16 0 33 0;
#X connect 17 0 34 0;
#X connect 18 0 35 0;
#X connect 20 0 21 0;
#X connect 21 0 23 0;
#X connect 22 0 23 1;
#X connect 23 0 24 0;
#X connect 24 0 25 0;
#X connect 24 1 26 0;
#X connect 25 0 12 1;
#X connect 26 0 12 1;
#X connect 27 0 15 0;
#X connect 32 0 0 0;
#X connect 33 0 47 0;
#X connect 34 0 50 0;
#X connect 35 0 53 0;
#X connect 36 0 42 0;
#X connect 37 0 36 0;
#X connect 37 1 38 0;
#X connect 37 2 39 0;
#X connect 37 3 40 0;
#X connect 38 0 43 0;
#X connect 39 0 44 0;
#X connect 40 0 45 0;
#X connect 41 0 7 0;
#X connect 41 1 64 1;
#X connect 42 0 41 0;
#X connect 43 0 41 0;
#X connect 44 0 41 0;
#X connect 45 0 41 0;
#X connect 46 0 37 0;
#X connect 47 0 48 0;
#X connect 48 0 49 0;
#X connect 48 0 17 0;
#X connect 49 0 57 0;
#X connect 50 0 51 0;
#X connect 51 0 52 0;
#X connect 51 0 18 0;
#X connect 52 0 58 0;
#X connect 53 0 54 0;
#X connect 54 0 55 0;
#X connect 55 0 59 0;
#X connect 62 0 7 1;
#X connect 63 0 62 1;
#X connect 63 0 62 0;
#X connect 64 0 8 0;
#X connect 65 0 9 1;
#X connect 66 0 67 0;
#X connect 67 0 70 0;
#X connect 67 1 68 0;
#X connect 67 2 74 0;
#X connect 68 0 69 0;
#X connect 69 0 70 1;
#X connect 70 0 64 0;
#X connect 71 0 75 0;
#X connect 72 0 73 0;
#X connect 73 0 74 1;
#X connect 73 0 77 0;
#X connect 74 0 69 1;
#X connect 74 1 69 1;
#X connect 75 0 72 0;
#X connect 77 0 76 0;
#X connect 78 0 21 1;
#X restore 126 235 pd perc;
#X msg 323 124 sample \$1;
#X obj 387 225 r \$0-detectedTempo;
#X obj 168 272 r \$0-detectedTempo;
#N canvas 501 222 450 300 toFuzz 0;
#X obj 75 -66 inlet~;
#X obj 76 197 throw~ toFuzz;
#X obj 76 167 *~;
#X obj 101 144 lop~ 1;
#X obj 154 44 random 100;
#X obj 152 67 * 0.01;
#X obj 152 91 *;
#X obj 37 36 r onOff;
#X obj 37 63 sel 0;
#X msg 36 90 0;
#X obj 152 -20 r randomize;
#X obj 154 13 t b;
#X connect 0 0 2 0;
#X connect 2 0 1 0;
#X connect 3 0 2 1;
#X connect 4 0 5 0;
#X connect 5 0 6 1;
#X connect 5 0 6 0;
#X connect 6 0 3 0;
#X connect 7 0 8 0;
#X connect 8 0 9 0;
#X connect 9 0 3 0;
#X connect 10 0 11 0;
#X connect 11 0 4 0;
#X restore 453 719 pd toFuzz;
#X obj 235 483 r drumsVolume;
#X obj 339 439 loadbang;
#X obj 400 255 r randomize;
#X obj 232 626 r randomize;
#X obj 190 294 r randomize;
#X obj 323 96 r drumSample;
#X obj 200 95 r drumPattern;
#X obj 117 161 r \$0-clock;
#X msg 326 498 0.25;
#X obj 305 316 mm_randFilter~;
#X obj 49 400 mm_randFilter~;
#X obj 186 660 birdPan~;
#X msg 370 413 0;
#X obj 336 656 *~;
#X obj 181 598 *~;
#N canvas 710 242 450 300 toTremelo 0;
#X obj 75 -66 inlet~;
#X obj 76 167 *~;
#X obj 101 144 lop~ 1;
#X obj 154 44 random 100;
#X obj 152 67 * 0.01;
#X obj 152 91 *;
#X obj 37 36 r onOff;
#X obj 37 63 sel 0;
#X obj 155 15 t b;
#X obj 156 -9 r randomize2;
#X obj 76 208 throw~ toTremelo;
#X msg 39 92 0;
#X connect 0 0 1 0;
#X connect 1 0 10 0;
#X connect 2 0 1 1;
#X connect 3 0 4 0;
#X connect 4 0 5 1;
#X connect 4 0 5 0;
#X connect 5 0 2 0;
#X connect 6 0 7 0;
#X connect 7 0 11 0;
#X connect 8 0 3 0;
#X connect 9 0 8 0;
#X connect 11 0 2 0;
#X restore 90 658 pd toTremelo;
#N canvas 710 242 450 300 toTremelo 0;
#X obj 75 -66 inlet~;
#X obj 76 167 *~;
#X obj 101 144 lop~ 1;
#X obj 154 44 random 100;
#X obj 152 67 * 0.01;
#X obj 152 91 *;
#X obj 37 36 r onOff;
#X obj 37 63 sel 0;
#X obj 155 15 t b;
#X obj 76 208 throw~ toTremelo;
#X msg 39 92 0;
#X obj 156 -9 r randomize3;
#X connect 0 0 1 0;
#X connect 1 0 9 0;
#X connect 2 0 1 1;
#X connect 3 0 4 0;
#X connect 4 0 5 1;
#X connect 4 0 5 0;
#X connect 5 0 2 0;
#X connect 6 0 7 0;
#X connect 7 0 10 0;
#X connect 8 0 3 0;
#X connect 10 0 2 0;
#X connect 11 0 8 0;
#X restore 449 690 pd toTremelo;
#N canvas 501 222 450 300 toFuzz 0;
#X obj 75 -66 inlet~;
#X obj 76 197 throw~ toFuzz;
#X obj 76 167 *~;
#X obj 101 144 lop~ 1;
#X obj 154 44 random 100;
#X obj 152 67 * 0.01;
#X obj 152 91 *;
#X obj 37 36 r onOff;
#X obj 37 63 sel 0;
#X msg 36 90 0;
#X obj 154 13 t b;
#X obj 152 -20 r randomize2;
#X connect 0 0 2 0;
#X connect 2 0 1 0;
#X connect 3 0 2 1;
#X connect 4 0 5 0;
#X connect 5 0 6 1;
#X connect 5 0 6 0;
#X connect 6 0 3 0;
#X connect 7 0 8 0;
#X connect 8 0 9 0;
#X connect 9 0 3 0;
#X connect 10 0 4 0;
#X connect 11 0 10 0;
#X restore 74 689 pd toFuzz;
#X obj 475 65 r drumPattern;
#X obj 475 89 t b;
#X obj 475 110 random 8;
#X obj 476 136 s \$0-accent;
#X obj 573 67 loadbang;
#X obj 380 350 r \$0-detectedTempo;
#X obj 391 375 r randomize1;
#X obj 101 474 mm_monoSyncDelay;
#X obj 207 430 r \$0-detectedTempo;
#X obj 186 403 r randomize2;
#X msg 485 372 feedback 0.6;
#X obj 499 339 loadbang;
#X obj 234 523 mm_xfade;
#X obj 172 320 r randomize1;
#X obj 179 343 r randomize3;
#X obj 315 356 *~ 0.5;
#X obj 763 147 samplerate~;
#X obj 765 170 == 44100;
#X obj 728 196 spigot;
#X obj 719 124 t b b;
#X obj 717 69 r onOff;
#X obj 718 92 sel 1;
#X obj 724 340 s sampleRate;
#X obj 329 522 f;
#X obj 358 478 r resetVolume;
#X obj 279 389 mm_monoSyncDelay;
#X obj 746 534 switch~;
#X obj 745 477 loadbang;
#X obj 728 279 random 2;
#X obj 726 307 + 1;
#X msg 748 508 1;
#X obj 338 259 bng 15 250 50 0 empty empty empty 17 7 0 10 -262144
-1 -1;
#X obj 789 218 r \$0-timer;
#X msg 802 272 seed \$1;
#X obj 801 248 mod 110;
#X obj 336 631 *~ 1;
#X obj 138 550 *~ 1;
#X obj 103 504 *~ 0.5;
#X obj 291 420 *~ 0.5;
#X obj 336 578 *~ 1.5;
#X obj 49 440 *~ 0.5;
#X obj 404 524 *~ 1.1;
#X obj 355 732 scope drumScope;
#X obj 29 649 scope percScope;
#X obj 403 646 scope kickScope;
#X obj 496 603 scope snareScope;
#X connect 0 0 68 0;
#X connect 3 0 20 0;
#X connect 3 0 54 0;
#X connect 3 0 70 0;
#X connect 4 0 3 1;
#X connect 4 0 0 1;
#X connect 4 0 6 1;
#X connect 5 0 24 1;
#X connect 5 0 25 1;
#X connect 6 0 21 0;
#X connect 6 0 36 0;
#X connect 6 0 65 0;
#X connect 7 0 3 1;
#X connect 7 0 0 1;
#X connect 7 0 6 1;
#X connect 8 0 20 1;
#X connect 9 0 21 1;
#X connect 11 0 41 0;
#X connect 11 0 52 1;
#X connect 12 0 19 0;
#X connect 13 0 20 1;
#X connect 14 0 22 1;
#X connect 15 0 21 1;
#X connect 15 0 20 1;
#X connect 15 0 54 1;
#X connect 16 0 7 0;
#X connect 17 0 4 0;
#X connect 18 0 6 0;
#X connect 18 0 0 0;
#X connect 18 0 3 0;
#X connect 19 0 41 0;
#X connect 19 0 52 1;
#X connect 20 0 44 0;
#X connect 21 0 69 0;
#X connect 22 0 1 0;
#X connect 22 0 71 0;
#X connect 22 1 2 0;
#X connect 22 1 71 0;
#X connect 23 0 41 0;
#X connect 24 0 10 0;
#X connect 24 0 27 0;
#X connect 24 0 2 0;
#X connect 24 0 1 0;
#X connect 24 0 71 0;
#X connect 25 0 26 0;
#X connect 25 0 28 0;
#X connect 25 0 22 0;
#X connect 25 0 72 0;
#X connect 29 0 30 0;
#X connect 30 0 31 0;
#X connect 31 0 32 0;
#X connect 33 0 31 0;
#X connect 34 0 54 1;
#X connect 35 0 54 1;
#X connect 36 0 66 0;
#X connect 37 0 36 1;
#X connect 38 0 36 1;
#X connect 39 0 36 1;
#X connect 39 0 54 1;
#X connect 40 0 39 0;
#X connect 41 2 5 0;
#X connect 42 0 21 1;
#X connect 42 0 20 1;
#X connect 43 0 21 1;
#X connect 43 0 20 1;
#X connect 43 0 36 1;
#X connect 44 0 70 0;
#X connect 45 0 46 0;
#X connect 46 0 47 1;
#X connect 47 0 57 0;
#X connect 48 0 47 0;
#X connect 48 1 45 0;
#X connect 49 0 50 0;
#X connect 50 0 48 0;
#X connect 52 0 41 0;
#X connect 53 0 52 0;
#X connect 54 0 67 0;
#X connect 56 0 59 0;
#X connect 57 0 58 0;
#X connect 58 0 51 0;
#X connect 59 0 55 0;
#X connect 60 0 20 1;
#X connect 61 0 63 0;
#X connect 62 0 57 0;
#X connect 63 0 62 0;
#X connect 64 0 24 0;
#X connect 65 0 25 0;
#X connect 66 0 65 0;
#X connect 67 0 70 0;
#X connect 68 0 64 0;
#X connect 68 0 73 0;
#X connect 69 0 65 0;
#X connect 70 0 24 0;
#X connect 70 0 74 0;
