#N canvas 464 111 950 534 10;
#X obj 142 14 inlet;
#X obj 315 19 inlet;
#X obj 316 72 s \$0-switch;
#X obj 354 133 r \$0-switch;
#X obj 354 165 switch~;
#X obj 231 15 inlet;
#X obj 144 315 outlet~;
#X obj 316 42 route switch;
#X obj 184 14 inlet;
#X obj 142 89 sig~;
#X obj 142 199 +~;
#X obj 182 110 osc~;
#X obj 183 148 *~ 1;
#X obj 140 229 osc~;
#X obj 196 56 loadbang;
#X msg 198 81 5;
#X obj 222 114 loadbang;
#X msg 223 135 30;
#X connect 0 0 9 0;
#X connect 1 0 7 0;
#X connect 3 0 4 0;
#X connect 5 0 12 1;
#X connect 7 0 2 0;
#X connect 8 0 11 0;
#X connect 9 0 10 0;
#X connect 10 0 13 0;
#X connect 11 0 12 0;
#X connect 12 0 10 1;
#X connect 13 0 6 0;
#X connect 14 0 15 0;
#X connect 15 0 11 0;
#X connect 16 0 17 0;
#X connect 17 0 12 0;
