#N canvas 346 159 628 548 10;
#X obj 106 281 random 100;
#X obj 105 54 \$1;
#X obj 105 80 until;
#X obj 105 -51 inlet;
#X obj 274 14 inlet;
#X obj 274 41 route seed length;
#X obj 273 66 s \$0-seed;
#X obj 14 221 r \$0-seed;
#X msg 104 370;
#X msg 105 313 add2 \$1;
#X msg 15 242 seed \$1;
#X obj 106 110 t b b;
#X obj 105 139 f;
#X obj 135 139 + 1;
#X obj 137 168 == \$1;
#X obj 137 193 sel 1;
#X obj 137 219 t b b b;
#X msg 157 246 set;
#X msg 131 252 0;
#X obj 119 7 r \$0-length;
#X obj 322 94 s \$0-length;
#X obj 163 138 r \$0-length;
#X obj 109 407 outlet;
#X connect 0 0 9 0;
#X connect 1 0 2 0;
#X connect 2 0 11 0;
#X connect 3 0 1 0;
#X connect 4 0 5 0;
#X connect 5 0 6 0;
#X connect 5 1 20 0;
#X connect 7 0 10 0;
#X connect 8 0 22 0;
#X connect 9 0 8 0;
#X connect 10 0 0 0;
#X connect 11 0 12 0;
#X connect 11 1 0 0;
#X connect 12 0 13 0;
#X connect 13 0 12 1;
#X connect 13 0 14 0;
#X connect 14 0 15 0;
#X connect 15 0 16 0;
#X connect 16 0 18 0;
#X connect 16 1 17 0;
#X connect 16 2 8 0;
#X connect 17 0 8 0;
#X connect 18 0 12 1;
#X connect 19 0 1 1;
#X connect 21 0 14 1;
